<svg width="28" height="28" viewBox="0 0 28 28" fill="none" xmlns="http://www.w3.org/2000/svg">
<path d="M1.5 12.1173C1.5 10.9038 2.06058 9.75706 3.02142 9.0051L11.5214 2.35298C12.9747 1.21567 15.0253 1.21567 16.4786 2.35298L24.9786 9.0051C25.9394 9.75706 26.5 10.9038 26.5 12.1173V22.5348C26.5 24.7247 24.7091 26.5 22.5 26.5H18.9474C18.3951 26.5 17.9474 26.0562 17.9474 25.5087V20.6566C17.9474 19.5616 17.0519 18.674 15.9474 18.674H12.0526C10.9481 18.674 10.0526 19.5616 10.0526 20.6566V25.5087C10.0526 26.0562 9.60492 26.5 9.05263 26.5H5.5C3.29086 26.5 1.5 24.7247 1.5 22.5348L1.5 12.1173Z" stroke="white" stroke-width="2"/>
</svg>
