<svg width="99" height="111" viewBox="0 0 99 111" fill="none" xmlns="http://www.w3.org/2000/svg">
<path d="M46.5937 81.4687L44.826 83.2365L46.5937 85.0043L48.3615 83.2365L46.5937 81.4687ZM39.6428 70.9822C38.6665 70.0059 37.0835 70.0059 36.1072 70.9822C35.1309 71.9585 35.1309 73.5415 36.1072 74.5178L39.6428 70.9822ZM65.799 65.799C66.7753 64.8227 66.7753 63.2398 65.799 62.2635C64.8227 61.2872 63.2398 61.2872 62.2635 62.2635L65.799 65.799ZM7 40.375H92V35.375H7V40.375ZM93.5 41.875V103.625H98.5V41.875H93.5ZM92 105.125H7V110.125H92V105.125ZM5.5 103.625V41.875H0.5V103.625H5.5ZM7 105.125C6.17157 105.125 5.5 104.453 5.5 103.625H0.5C0.5 107.215 3.41015 110.125 7 110.125V105.125ZM93.5 103.625C93.5 104.453 92.8284 105.125 92 105.125V110.125C95.5899 110.125 98.5 107.215 98.5 103.625H93.5ZM92 40.375C92.8284 40.375 93.5 41.0466 93.5 41.875H98.5C98.5 38.2851 95.5899 35.375 92 35.375V40.375ZM7 35.375C3.41015 35.375 0.5 38.2851 0.5 41.875H5.5C5.5 41.0466 6.17157 40.375 7 40.375V35.375ZM48.3615 79.701L39.6428 70.9822L36.1072 74.5178L44.826 83.2365L48.3615 79.701ZM48.3615 83.2365L65.799 65.799L62.2635 62.2635L44.826 79.701L48.3615 83.2365ZM30.25 5.5H68.75V0.5H30.25V5.5ZM70.25 7V37.875H75.25V7H70.25ZM28.75 37.875V7H23.75V37.875H28.75ZM68.75 5.5C69.5784 5.5 70.25 6.17157 70.25 7H75.25C75.25 3.41015 72.3399 0.5 68.75 0.5V5.5ZM30.25 0.5C26.6602 0.5 23.75 3.41015 23.75 7H28.75C28.75 6.17157 29.4216 5.5 30.25 5.5V0.5Z" fill="white"/>
</svg>
