<svg width="27" height="27" viewBox="0 0 27 27" fill="none" xmlns="http://www.w3.org/2000/svg">
<path d="M1 11.6173C1 10.4038 1.56058 9.25706 2.52142 8.5051L11.0214 1.85298C12.4747 0.715674 14.5253 0.715672 15.9786 1.85298L24.4786 8.5051C25.4394 9.25706 26 10.4038 26 11.6173V22.0348C26 24.2247 24.2091 26 22 26H18.4474C17.8951 26 17.4474 25.5562 17.4474 25.0087V20.1566C17.4474 19.0616 16.5519 18.174 15.4474 18.174H11.5526C10.4481 18.174 9.55263 19.0616 9.55263 20.1566V25.0087C9.55263 25.5562 9.10492 26 8.55263 26H5C2.79086 26 1 24.2247 1 22.0348L1 11.6173Z" stroke="#004F69" stroke-width="2"/>
</svg>
