<svg width="26" height="22" viewBox="0 0 26 22" fill="none" xmlns="http://www.w3.org/2000/svg">
<path d="M23.7931 4H3.10345C2.82909 4 2.56596 3.89464 2.37196 3.70711C2.17796 3.51957 2.06897 3.26522 2.06897 3C2.06897 2.73478 2.17796 2.48043 2.37196 2.29289C2.56596 2.10536 2.82909 2 3.10345 2H20.6897C20.964 2 21.2271 1.89464 21.4211 1.70711C21.6151 1.51957 21.7241 1.26522 21.7241 1C21.7241 0.734784 21.6151 0.48043 21.4211 0.292893C21.2271 0.105357 20.964 0 20.6897 0H3.10345C2.28141 0.00329046 1.49401 0.320418 0.91274 0.882315C0.331467 1.44421 0.00340393 2.20536 0 3V19C0.00340393 19.7946 0.331467 20.5558 0.91274 21.1177C1.49401 21.6796 2.28141 21.9967 3.10345 22H23.7931C24.3418 22 24.8681 21.7893 25.2561 21.4142C25.6441 21.0391 25.8621 20.5304 25.8621 20V6C25.8621 5.46957 25.6441 4.96086 25.2561 4.58579C24.8681 4.21071 24.3418 4 23.7931 4ZM23.7931 20H3.10345C2.82909 20 2.56596 19.8946 2.37196 19.7071C2.17796 19.5196 2.06897 19.2652 2.06897 19V5.825C2.40074 5.94068 2.75075 5.99989 3.10345 6H23.7931V20ZM17.5862 13C17.5862 12.7033 17.6772 12.4133 17.8477 12.1666C18.0182 11.92 18.2606 11.7277 18.5441 11.6142C18.8277 11.5007 19.1397 11.4709 19.4407 11.5288C19.7417 11.5867 20.0182 11.7296 20.2352 11.9393C20.4522 12.1491 20.6 12.4164 20.6598 12.7074C20.7197 12.9983 20.689 13.2999 20.5715 13.574C20.4541 13.8481 20.2552 14.0824 20 14.2472C19.7448 14.412 19.4448 14.5 19.1379 14.5C18.7264 14.5 18.3317 14.342 18.0407 14.0607C17.7497 13.7794 17.5862 13.3978 17.5862 13Z" fill="#004F69"/>
</svg>
