<svg width="20" height="25" viewBox="0 0 20 25" fill="none" xmlns="http://www.w3.org/2000/svg">
<path d="M12.5 22.6591C11.9625 23.4674 11.0435 24.0002 10 24.0002C8.95652 24.0002 8.03747 23.4674 7.50001 22.6591M3.00003 6.56238C3.00003 3.49037 5.49039 1 8.56241 1H11.4376C14.5097 1 17 3.49036 17 6.56238V11.041C17 11.9153 17.5293 12.6829 18.0949 13.3497C18.6595 14.0152 19 14.8768 19 15.8179C19 17.6612 17.683 19.2427 15.8572 19.4959C14.044 19.7473 11.7783 20.0002 10 20.0002C8.2217 20.0002 5.95603 19.7473 4.14285 19.4959C2.31698 19.2427 1 17.6612 1 15.8179C1 14.8768 1.34053 14.0152 1.9051 13.3496C2.47072 12.6829 3.00003 11.9153 3.00003 11.0409V6.56238Z" stroke="#004F69" stroke-width="2" stroke-linecap="round"/>
</svg>
