<svg width="29" height="30" viewBox="0 0 29 30" fill="none" xmlns="http://www.w3.org/2000/svg">
<rect width="29" height="30" rx="14.5" fill="#DFE7EA"/>
<path d="M10.8967 12.92H12.2727C12.2727 11.672 13.0887 10.92 14.4007 10.92C15.6967 10.92 16.5287 11.72 16.5287 13C16.5287 14.936 14.9767 15.288 13.1527 15.288H12.6887L12.7527 17.816H14.0167L14.0647 16.296C16.3047 16.296 17.9207 15.336 17.9207 13C17.9207 10.968 16.4807 9.704 14.3847 9.704C12.2887 9.704 10.8807 10.984 10.8967 12.92ZM14.3367 20.104C14.3367 19.544 13.9047 19.112 13.3767 19.112C12.8167 19.112 12.3847 19.544 12.3847 20.104C12.3847 20.664 12.8167 21.096 13.3767 21.096C13.9047 21.096 14.3367 20.664 14.3367 20.104Z" fill="#004F69"/>
</svg>
