<svg width="25" height="25" viewBox="0 0 25 25" fill="none" xmlns="http://www.w3.org/2000/svg">
<rect x="0.75" y="0.75" width="23.5" height="23.5" rx="4.25" stroke="#004F69" stroke-width="1.5"/>
<path fill-rule="evenodd" clip-rule="evenodd" d="M13.5 5.75C13.5 5.33579 13.1642 5 12.75 5C12.3358 5 12 5.33579 12 5.75V11.5H5.75C5.33579 11.5 5 11.8358 5 12.25C5 12.6642 5.33579 13 5.75 13H12V19.25C12 19.6642 12.3358 20 12.75 20C13.1642 20 13.5 19.6642 13.5 19.25V13H19.25C19.6642 13 20 12.6642 20 12.25C20 11.8358 19.6642 11.5 19.25 11.5H13.5V5.75Z" fill="#004F69"/>
</svg>
