<svg width="27" height="28" viewBox="0 0 27 28" fill="none" xmlns="http://www.w3.org/2000/svg">
<path d="M9.46407 14C9.46407 16.1539 11.2074 17.9 13.3579 17.9C15.5084 17.9 17.2517 16.1539 17.2517 14C17.2517 11.8461 15.5084 10.1 13.3579 10.1C11.2074 10.1 9.46407 11.8461 9.46407 14Z" stroke="#85FFC2" stroke-width="1.5"/>
<path d="M16.7151 1.43905C17.0407 1.52614 17.2557 1.82283 17.3175 2.15467C17.5189 3.23592 18.1732 4.22572 19.1988 4.81879C20.1454 5.36618 21.2261 5.47023 22.2013 5.19527C22.5253 5.1039 22.8856 5.16547 23.1079 5.41866C24.4776 6.9786 25.48 8.86992 25.9798 10.9571C26.0398 11.2077 25.9612 11.467 25.8075 11.6738C25.325 12.3233 25.0394 13.1282 25.0394 14C25.0394 14.8718 25.325 15.6767 25.8075 16.3262C25.9612 16.5329 26.0398 16.7923 25.9798 17.0429C25.4801 19.1299 24.4778 21.0211 23.1083 22.581C22.8859 22.8342 22.5256 22.8958 22.2015 22.8044C21.2263 22.5293 20.1455 22.6333 19.1987 23.1808C18.173 23.7739 17.5187 24.7639 17.3174 25.8453C17.2556 26.1772 17.0405 26.4739 16.7149 26.561C15.6441 26.8474 14.5188 27 13.3579 27C12.1971 27 11.0718 26.8474 10.0011 26.561C9.67542 26.474 9.46036 26.1772 9.39858 25.8453C9.19729 24.7639 8.54293 23.774 7.51722 23.1808C6.57049 22.6334 5.48963 22.5294 4.51441 22.8045C4.19034 22.8959 3.82996 22.8343 3.60763 22.5811C2.47346 21.2893 1.59113 19.7703 1.03753 18.1011C0.917869 17.7403 1.09651 17.3589 1.40115 17.1321C2.35586 16.4213 2.97441 15.283 2.97441 14C2.97441 12.717 2.35586 11.5787 1.40115 10.8679C1.09651 10.6411 0.917872 10.2597 1.03753 9.89893C1.59119 8.22952 2.47364 6.71038 3.60797 5.41852C3.8303 5.16533 4.19063 5.10376 4.51468 5.19515C5.48984 5.47017 6.5706 5.36613 7.51726 4.81871C8.54286 4.22564 9.19718 3.23584 9.39855 2.15459C9.46036 1.82274 9.67542 1.52604 10.0011 1.43896C11.0718 1.15264 12.1971 1 13.3579 1C14.5189 1 15.6442 1.15267 16.7151 1.43905Z" stroke="#85FFC2" stroke-width="1.5"/>
</svg>
