<svg width="24" height="25" viewBox="0 0 24 25" fill="none" xmlns="http://www.w3.org/2000/svg">
<path d="M12 15.3523C13.6569 15.3523 15 14.0091 15 12.3523C15 10.6954 13.6569 9.35226 12 9.35226C10.3431 9.35226 9 10.6954 9 12.3523C9 14.0091 10.3431 15.3523 12 15.3523Z" stroke="white" stroke-width="2" stroke-linecap="round" stroke-linejoin="round"/>
<path d="M19.4 15.3523C19.2669 15.6539 19.2272 15.9885 19.286 16.3129C19.3448 16.6372 19.4995 16.9366 19.73 17.1723L19.79 17.2323C19.976 17.418 20.1235 17.6386 20.2241 17.8814C20.3248 18.1242 20.3766 18.3844 20.3766 18.6473C20.3766 18.9101 20.3248 19.1703 20.2241 19.4131C20.1235 19.6559 19.976 19.8765 19.79 20.0623C19.6043 20.2482 19.3837 20.3957 19.1409 20.4964C18.8981 20.597 18.6378 20.6488 18.375 20.6488C18.1122 20.6488 17.8519 20.597 17.6091 20.4964C17.3663 20.3957 17.1457 20.2482 16.96 20.0623L16.9 20.0023C16.6643 19.7717 16.365 19.6171 16.0406 19.5583C15.7162 19.4994 15.3816 19.5391 15.08 19.6723C14.7842 19.799 14.532 20.0095 14.3543 20.2778C14.1766 20.5461 14.0813 20.8605 14.08 21.1823V21.3523C14.08 21.8827 13.8693 22.3914 13.4942 22.7665C13.1191 23.1416 12.6104 23.3523 12.08 23.3523C11.5496 23.3523 11.0409 23.1416 10.6658 22.7665C10.2907 22.3914 10.08 21.8827 10.08 21.3523V21.2623C10.0723 20.9313 9.96512 20.6103 9.77251 20.341C9.5799 20.0717 9.31074 19.8665 9 19.7523C8.69838 19.6191 8.36381 19.5794 8.03941 19.6383C7.71502 19.6971 7.41568 19.8517 7.18 20.0823L7.12 20.1423C6.93425 20.3282 6.71368 20.4757 6.47088 20.5764C6.22808 20.677 5.96783 20.7288 5.705 20.7288C5.44217 20.7288 5.18192 20.677 4.93912 20.5764C4.69632 20.4757 4.47575 20.3282 4.29 20.1423C4.10405 19.9565 3.95653 19.7359 3.85588 19.4931C3.75523 19.2503 3.70343 18.9901 3.70343 18.7273C3.70343 18.4644 3.75523 18.2042 3.85588 17.9614C3.95653 17.7186 4.10405 17.498 4.29 17.3123L4.35 17.2523C4.58054 17.0166 4.73519 16.7172 4.794 16.3929C4.85282 16.0685 4.81312 15.7339 4.68 15.4323C4.55324 15.1365 4.34276 14.8842 4.07447 14.7066C3.80618 14.5289 3.49179 14.4335 3.17 14.4323H3C2.46957 14.4323 1.96086 14.2216 1.58579 13.8465C1.21071 13.4714 1 12.9627 1 12.4323C1 11.9018 1.21071 11.3931 1.58579 11.0181C1.96086 10.643 2.46957 10.4323 3 10.4323H3.09C3.42099 10.4245 3.742 10.3174 4.0113 10.1248C4.28059 9.93217 4.48572 9.663 4.6 9.35226C4.73312 9.05065 4.77282 8.71607 4.714 8.39168C4.65519 8.06728 4.50054 7.76794 4.27 7.53226L4.21 7.47226C4.02405 7.28652 3.87653 7.06594 3.77588 6.82314C3.67523 6.58035 3.62343 6.3201 3.62343 6.05726C3.62343 5.79443 3.67523 5.53418 3.77588 5.29138C3.87653 5.04859 4.02405 4.82801 4.21 4.64226C4.39575 4.45631 4.61632 4.30879 4.85912 4.20814C5.10192 4.1075 5.36217 4.05569 5.625 4.05569C5.88783 4.05569 6.14808 4.1075 6.39088 4.20814C6.63368 4.30879 6.85425 4.45631 7.04 4.64226L7.1 4.70226C7.33568 4.9328 7.63502 5.08745 7.95941 5.14627C8.28381 5.20509 8.61838 5.16538 8.92 5.03226H9C9.29577 4.9055 9.54802 4.69502 9.72569 4.42673C9.90337 4.15844 9.99872 3.84405 10 3.52226V3.35226C10 2.82183 10.2107 2.31312 10.5858 1.93805C10.9609 1.56298 11.4696 1.35226 12 1.35226C12.5304 1.35226 13.0391 1.56298 13.4142 1.93805C13.7893 2.31312 14 2.82183 14 3.35226V3.44226C14.0013 3.76405 14.0966 4.07844 14.2743 4.34673C14.452 4.61502 14.7042 4.8255 15 4.95226C15.3016 5.08538 15.6362 5.12509 15.9606 5.06627C16.285 5.00745 16.5843 4.8528 16.82 4.62226L16.88 4.56226C17.0657 4.37631 17.2863 4.22879 17.5291 4.12814C17.7719 4.0275 18.0322 3.97569 18.295 3.97569C18.5578 3.97569 18.8181 4.0275 19.0609 4.12814C19.3037 4.22879 19.5243 4.37631 19.71 4.56226C19.896 4.74801 20.0435 4.96859 20.1441 5.21138C20.2448 5.45418 20.2966 5.71443 20.2966 5.97726C20.2966 6.2401 20.2448 6.50035 20.1441 6.74314C20.0435 6.98594 19.896 7.20652 19.71 7.39226L19.65 7.45226C19.4195 7.68794 19.2648 7.98728 19.206 8.31168C19.1472 8.63607 19.1869 8.97065 19.32 9.27226V9.35226C19.4468 9.64803 19.6572 9.90028 19.9255 10.078C20.1938 10.2556 20.5082 10.351 20.83 10.3523H21C21.5304 10.3523 22.0391 10.563 22.4142 10.9381C22.7893 11.3131 23 11.8218 23 12.3523C23 12.8827 22.7893 13.3914 22.4142 13.7665C22.0391 14.1416 21.5304 14.3523 21 14.3523H20.91C20.5882 14.3535 20.2738 14.4489 20.0055 14.6266C19.7372 14.8042 19.5268 15.0565 19.4 15.3523V15.3523Z" stroke="white" stroke-width="2" stroke-linecap="round" stroke-linejoin="round"/>
</svg>
