<svg width="25" height="22" viewBox="0 0 25 22" fill="none" xmlns="http://www.w3.org/2000/svg">
<path d="M23 4H3C2.73478 4 2.48043 3.89464 2.29289 3.70711C2.10536 3.51957 2 3.26522 2 3C2 2.73478 2.10536 2.48043 2.29289 2.29289C2.48043 2.10536 2.73478 2 3 2H20C20.2652 2 20.5196 1.89464 20.7071 1.70711C20.8946 1.51957 21 1.26522 21 1C21 0.734784 20.8946 0.48043 20.7071 0.292893C20.5196 0.105357 20.2652 0 20 0H3C2.20536 0.00329046 1.44421 0.320418 0.882315 0.882315C0.320418 1.44421 0.00329046 2.20536 0 3V19C0.00329046 19.7946 0.320418 20.5558 0.882315 21.1177C1.44421 21.6796 2.20536 21.9967 3 22H23C23.5304 22 24.0391 21.7893 24.4142 21.4142C24.7893 21.0391 25 20.5304 25 20V6C25 5.46957 24.7893 4.96086 24.4142 4.58579C24.0391 4.21071 23.5304 4 23 4ZM23 20H3C2.73478 20 2.48043 19.8946 2.29289 19.7071C2.10536 19.5196 2 19.2652 2 19V5.825C2.32072 5.94068 2.65906 5.99989 3 6H23V20ZM17 13C17 12.7033 17.088 12.4133 17.2528 12.1666C17.4176 11.92 17.6519 11.7277 17.926 11.6142C18.2001 11.5007 18.5017 11.4709 18.7926 11.5288C19.0836 11.5867 19.3509 11.7296 19.5607 11.9393C19.7704 12.1491 19.9133 12.4164 19.9712 12.7074C20.0291 12.9983 19.9993 13.2999 19.8858 13.574C19.7723 13.8481 19.58 14.0824 19.3334 14.2472C19.0867 14.412 18.7967 14.5 18.5 14.5C18.1022 14.5 17.7206 14.342 17.4393 14.0607C17.158 13.7794 17 13.3978 17 13Z" fill="white"/>
</svg>
