<svg width="56" height="56" viewBox="0 0 56 56" fill="none" xmlns="http://www.w3.org/2000/svg">
<rect width="56" height="56" rx="28" fill="#32936F"/>
<path d="M35.6561 29.408L37.2942 27.4918C37.3561 27.4299 37.4178 27.3683 37.4796 27.3064V19.8577C37.4796 18.8996 36.7069 18.127 35.7489 18.127H33.6162V19.9504H35.6562L35.6561 29.408Z" fill="white"/>
<path d="M35.657 38.5875V40.8747H17.8235V19.9504H19.7707V18.127H17.7308C16.7727 18.127 16 18.8996 16 19.8577V40.9365C16 41.8946 16.7727 42.6673 17.7308 42.6673H35.7188C36.6769 42.6673 37.4496 41.8946 37.4496 40.9365V36.6712L36.4604 37.8458C36.275 38.1239 35.9969 38.3712 35.6569 38.5874L35.657 38.5875Z" fill="white"/>
<path d="M26.3536 29.2506H27.1881C27.4663 29.2506 27.6827 29.0341 27.6827 28.756V27.2107H29.2281C29.5062 27.2107 29.7226 26.9942 29.7226 26.7161V25.8509C29.7226 25.5728 29.5062 25.3563 29.2281 25.3563H27.6827V23.811C27.6827 23.5329 27.4663 23.3164 27.1881 23.3164H26.3536C26.0755 23.3164 25.859 23.5329 25.859 23.811V25.3563H24.3137C24.0355 25.3563 23.8191 25.5728 23.8191 25.8509V26.6855C23.8191 26.9636 24.0355 27.18 24.3137 27.18H25.859V28.7254C25.8282 29.0035 26.0755 29.2506 26.3536 29.2506V29.2506Z" fill="white"/>
<path d="M21.6562 33.5483H31.8556C32.1337 33.5483 32.3502 33.3318 32.3502 33.0537V32.2192C32.3502 31.9411 32.1337 31.7246 31.8556 31.7246H21.6562C21.3781 31.7246 21.1616 31.9411 21.1616 32.2192V33.0537C21.1616 33.3321 21.3779 33.5483 21.6562 33.5483Z" fill="white"/>
<path d="M21.6562 37.8467H30.403C30.4338 37.7849 30.4338 37.6922 30.4338 37.6303L30.8357 35.9922L21.6562 35.9924C21.3781 35.9924 21.1616 36.2089 21.1616 36.487V37.3215C21.1616 37.6305 21.3779 37.8467 21.6562 37.8467L21.6562 37.8467Z" fill="white"/>
<path d="M21.8406 20.5662H31.5455C31.9163 20.5662 32.2254 20.2571 32.2254 19.8863V17.1355C32.2254 16.7647 31.9163 16.4556 31.5455 16.4556H29.9382C29.8764 14.7248 28.4548 13.334 26.6929 13.334C24.9311 13.334 23.5095 14.7248 23.4476 16.4556H21.8404C21.4695 16.4556 21.1604 16.7647 21.1604 17.1355V19.8863C21.1606 20.2573 21.4698 20.5662 21.8406 20.5662ZM26.6929 15.3429C27.3729 15.3429 27.9291 15.8991 27.9291 16.579C27.9291 17.259 27.3729 17.8152 26.6929 17.8152C26.013 17.8152 25.4567 17.259 25.4567 16.579C25.4567 15.8993 26.013 15.3429 26.6929 15.3429Z" fill="white"/>
<path d="M31.8863 37.966C31.7936 38.3369 32.1644 38.6152 32.5044 38.4914L34.2662 37.7188C34.6062 37.5642 34.9154 37.3479 35.1624 37.1007L32.7825 35.0918C32.566 35.401 32.4117 35.741 32.319 36.0809L31.8863 37.966Z" fill="white"/>
<path d="M40.7255 29.0342L39.8293 28.2924C39.3966 27.9215 38.7785 27.9832 38.4074 28.4159L33.7095 33.9792L36.1202 36.0192L40.8182 30.4558C41.189 30.0232 41.1582 29.405 40.7255 29.0342L40.7255 29.0342Z" fill="white"/>
</svg>
