<svg width="30" height="32" viewBox="0 0 30 32" fill="none" xmlns="http://www.w3.org/2000/svg">
<rect width="30" height="32" rx="3" fill="#EDEDED"/>
<path d="M15 15C17.2091 15 19 13.2091 19 11C19 8.79086 17.2091 7 15 7C12.7909 7 11 8.79086 11 11C11 13.2091 12.7909 15 15 15Z" stroke="#004F69" stroke-width="2" stroke-linecap="round" stroke-linejoin="round"/>
<path d="M23 25V23C23 21.9391 22.5786 20.9217 21.8284 20.1716C21.0783 19.4214 20.0609 19 19 19H11C9.93913 19 8.92172 19.4214 8.17157 20.1716C7.42143 20.9217 7 21.9391 7 23V25" stroke="#004F69" stroke-width="2" stroke-linecap="round" stroke-linejoin="round"/>
</svg>
