<?xml version="1.0" encoding="utf-8"?>
<!-- Generator: Adobe Illustrator 25.2.1, SVG Export Plug-In . SVG Version: 6.00 Build 0)  -->
<svg version="1.1" xmlns="http://www.w3.org/2000/svg" xmlns:xlink="http://www.w3.org/1999/xlink" x="0px" y="0px"
	 viewBox="0 0 2000 1500" style="enable-background:new 0 0 2000 1500;" xml:space="preserve">
<style type="text/css">
	.st0{fill:#CAE4EA;}
	.st1{fill:#E2ECED;stroke:#AFC5C9;stroke-width:3;stroke-miterlimit:10;}
	.st2{fill:none;stroke:#AFC5C9;stroke-width:2.5;stroke-miterlimit:10;}
	.st3{fill:#51281B;}
	.st4{fill:#004F69;}
	.st5{fill:#000B26;}
	.st6{fill:#85FFC2;}
	.st7{fill:#AFC5C9;}
	.st8{fill:#AFC5C9;stroke:#AFC5C9;stroke-miterlimit:10;}
	.st9{fill:#009DD1;}
	.st10{fill:#F2F2F2;}
	.st11{fill:#110F0F;}
	.st12{fill:#3A1E13;}
	.st13{fill:#7CA0A5;}
	.st14{fill:none;stroke:#AFC5C9;stroke-miterlimit:10;}
	.st15{fill:none;stroke:#7CA0A5;stroke-miterlimit:10;}
	.st16{fill:#2B1210;}
	.st17{fill:none;stroke:#2B1210;stroke-miterlimit:10;}
	.st18{fill:#9AACAF;}
	.st19{fill:#999999;}
	.st20{fill:#51281B;stroke:#2B1210;stroke-miterlimit:10;}
	.st21{fill:#2B150E;}
	.st22{fill:none;stroke:#F2F2F2;stroke-width:2.3;stroke-miterlimit:10;}
	.st23{fill:none;stroke:#F2F2F2;stroke-width:2.5;stroke-miterlimit:10;}
	.st24{fill:#58D6C8;}
	.st25{fill:#422017;}
	.st26{opacity:0.6;}
	.st27{fill:none;stroke:#110F0F;stroke-width:0.5;stroke-miterlimit:10;}
	.st28{fill:#A7BABC;}
	.st29{fill:#9DAFB2;}
	.st30{fill:#8D9C9E;}
	.st31{fill:#F2F2F2;stroke:#AFC5C9;stroke-miterlimit:10;}
	.st32{fill:none;stroke:#CAE4EA;stroke-width:3;stroke-miterlimit:10;}
	.st33{fill:#602E21;}
</style>
<g id="Calque_3">
	<circle class="st0" cx="834.64789" cy="726.17761" r="595.82886"/>
	<polygon class="st1" points="1908.86584,611.30957 1576.62244,611.30957 1576.62244,292.91016 1266.62244,292.91016 
		1266.62244,611.30957 934.37903,611.30957 934.37903,921.30957 1266.62244,921.30957 1266.62244,1239.72461 1576.62244,1239.72461 
		1576.62244,921.30957 1908.86584,921.30957 	"/>
</g>
<g id="Calque_4">
	<path class="st2" d="M1494.3999,498.36105c0,0,31.03442,22.93857,44.25842,42.59073"/>
	<path class="st2" d="M1492.67542,495.20419c0,0,73.3407,43.55368,93.31763,67.07492"/>
	<path class="st2" d="M1495.20789,501.11627c0,0,10.22107,14.65045,11.13562,22.33026
		c0.91443,7.67987,12.77686,18.67261,12.77686,18.67261"/>
	<polygon class="st3" points="1011.71942,1046.30127 1009.90631,1056.40283 1010.81287,1065.5979 1014.30957,1072.20276 
		1025.70618,1073.4978 1039.69299,1071.16663 1046.55688,1066.50439 1047.20447,1061.3241 1048.37,1055.49622 
		1049.01758,1049.79797 1045.90942,1041.50952 1033.73572,1039.69641 1020.26691,1040.73242 	"/>
	<path class="st4" d="M1110.00916,398.89368c0,0,7.13721,1.21304,10.05322,3.27823c2.91614,2.06519,3.20544,5.02664,3.20544,5.02664
		l-3.86108,3.05969l-5.97363-0.4371l-4.37097-3.13254l-1.3114-4.9538L1110.00916,398.89368z"/>
	<path class="st5" d="M1089.74463,1433.24792c1.08508,1.36633,2.62927,3.18079,4.40613,3.62073
		c0.49768,0.12329,0.86072,0.24438,1.32263,0.49573c1.06482,0.57922,2.19031,1.04382,3.34705,1.40466
		c2.35828,0.7356,4.83923,1.04333,7.30505,1.04163c4.08179-0.00281,8.11719-0.81848,12.09326-1.74097
		c2.95093-0.68457,5.98389-1.47583,8.36841-3.34399c2.72778-2.13708,4.26892-5.41003,5.71472-8.55933
		c1.23657-2.69385,2.47998-5.40649,3.20508-8.28052c1.1272-4.46802,0.94641-9.25781-0.51453-13.62805
		c-0.51221-1.53223-1.19812-3.04382-2.3092-4.21655c-2.16919-2.28955-5.62073-2.91528-8.75647-2.57715
		c-3.13562,0.33813-6.1167,1.49316-9.17761,2.25342c-5.77209,1.43384-11.7583,1.48169-17.6532,1.98462
		c-2.92676,0.24976-5.85571,0.60828-8.71045,1.31824c-1.41223,0.3512-2.80396,0.78882-4.15308,1.33569
		c-1.04211,0.42236-1.45886,0.80469-1.57593,1.92444c-0.28381,2.71399-0.49121,5.37378-0.27039,8.104
		c0.22351,2.76392,0.77368,5.50122,1.63208,8.13782C1085.27942,1426.39575,1087.20972,1430.05603,1089.74463,1433.24792z"/>
	<path class="st4" d="M1084.6145,1329.59985c-1.7146,3.4657-3.15503,7.40332-2.6001,11.27051
		c0.22791,1.58923-0.02441,3.33105-0.03162,4.93823c-0.01562,3.48828,0.09326,6.97607,0.25891,10.46021
		c0.33179,6.97595,0.89526,13.93933,1.16235,20.91846c0.15186,3.96887,0.20789,7.9436,0.06921,11.91431
		c-0.09363,2.67957,0.04907,5.32666-1.11633,7.77124c-0.43042,0.90295-0.59778,1.60498-0.53259,2.62292
		c0.17981,2.80615,0.77124,5.64746,1.46277,8.36682c1.39648,5.49268,3.62341,10.77576,6.60254,15.59802
		c1.68909,2.73425,3.7406,5.42761,6.65601,6.78003c7.86572,3.64868,15.71338,5.39685,23.36597,1.32007
		c7.65271-4.07678,12.70471-12.00195,15.03394-20.35413c2.09851-7.52515,1.24963-13.93933,1.07617-21.74976
		c-0.2168-9.76489-0.43359-19.52991-0.65039-29.2948c-0.10437-4.70349,0.1438-9.40173,0.32336-14.1001
		c0.16931-4.43457,0.42151-9.02002-0.1189-13.43823c-0.16028-1.31091-0.74878-2.47009-0.68726-3.8114
		c0.19055-4.16003,0.25024-8.10547-0.68933-12.203c-0.35608-1.55261-1.32239-2.18213-2.88-1.61951
		c-0.94031,0.3396-1.43115,1.08313-2.20117,1.65662c-1.18005,0.87878-2.83557,1.21179-4.20618,1.6936
		c-1.54932,0.5448-3.09863,1.0896-4.64783,1.6344c-1.79651,0.63159-3.59863,1.26489-5.45959,1.66882
		c-3.92786,0.85266-8.02771,0.625-11.9032-0.3855c-1.97998-0.51624-3.90625-1.23376-5.75208-2.11536
		c-0.92444-0.44153,0.87207-2.84119-0.00989-3.36255c-1.20081-0.70996-1.77539-1.5531-3.13513-0.48792
		c-1.44543,1.13232-4.83801,5.10852-5.6217,6.69238C1087.12646,1324.52283,1085.87048,1327.06128,1084.6145,1329.59985z"/>
	<path class="st3" d="M1094.00452,1290.72327c-0.00879-0.74683,0.15186-1.38953,0.76221-2.11157
		c1.39429-1.64978,2.79761-3.19104,4.59045-4.43359c3.01575-2.09009,6.50183-3.4375,10.0033-4.46777
		c5.16919-1.52087,10.59717-2.56042,15.93848-1.84583c3.09192,0.4137,7.05396,1.80139,8.19958,5.04932
		c0.2749,0.7793-0.00391,1.82129-0.05908,2.64685c-0.12939,1.93726-0.24707,3.87537-0.35291,5.81409
		c-0.21167,3.87756-0.37634,7.75757-0.49377,11.63904c-0.11731,3.87781-0.1875,7.75708-0.21057,11.6366
		c-0.00452,0.75366,0.17224,1.75708-0.10986,2.47192c-0.20349,0.5155-0.69141,0.99976-1.00574,1.45337
		c-0.86047,1.24158-1.90161,2.35229-3.06628,3.31299c-2.20569,1.81934-5.00879,3.2981-7.8429,3.81348
		c-5.92896,1.31348-12.18896-0.00854-17.73694-2.47791c-2.36853-1.05408-4.73926-2.39954-6.15808-4.56934
		c-0.63855-0.97668-1.27271-2.26453-1.24426-3.4613c0.02039-0.86194,0.39392-1.67163,0.42139-2.5426
		c0.09387-2.98877-0.22009-6.05249-0.42346-9.03333c-0.26416-3.86389-0.62866-7.72083-1.09326-11.56567
		C1094.06335,1291.55957,1094.00928,1291.12622,1094.00452,1290.72327z"/>
	<polygon class="st6" points="1621.58948,560.60388 1671.56824,831.99841 1621.58948,829.22614 1609.01672,564.21387 	"/>
	<polygon class="st7" points="1671.56824,831.99841 1634.86084,847.63239 1634.65613,829.95093 	"/>
	<path class="st5" d="M1023.06708,1166.50708c1.26593,0.03247,2.52765-0.21448,3.79437-0.28613
		c1.65833-0.09375,3.31592-0.19739,4.97302-0.31079c3.88501-0.26599,7.83203-0.60046,11.45825-2.02002
		c3.62622-1.41968,6.94678-4.09424,8.24146-7.76685c2.67749-7.59448,3.32849-14.48962,1.55981-22.34558
		c-0.09143-0.40649-0.23047-0.86877-0.61365-1.03284c-0.28625-0.12268-0.6145-0.03259-0.91162,0.06104
		c-6.72485,2.12146-13.66626,5.63074-20.46814,3.771c-2.33215-0.6377-4.44727-1.87671-6.53137-3.10229
		c-5.487-3.22668-10.97394-6.45337-16.46088-9.68005c-2.30096-1.35303-4.60785-2.70923-7.04572-3.79651
		c0.11737,4.6272,0.23474,9.25439,0.35205,13.88159c0.10449,4.11902,0.2254,8.3269,1.66431,12.18787
		c1.08594,2.91394,2.8775,5.50269,4.65088,8.05713c2.24237,3.2301,4.51215,6.67432,7.58661,9.19214
		c2.0918,1.71301,4.67126,2.98389,7.39807,3.17371C1022.83209,1166.49866,1022.94958,1166.50403,1023.06708,1166.50708z"/>
	<path class="st4" d="M1004.23761,1048.97949c-4.60016,4.78735-4.96082,12.11487-5.05292,18.75354
		c-0.06537,4.71277-0.13074,9.42554-0.19617,14.13831c-0.03137,2.26221-0.06274,4.52429-0.09412,6.78638
		c-0.02924,2.10657,0.14679,4.33264-0.09436,6.42432c-0.07086,0.61426-0.27277,1.12329-0.2583,1.75696
		c0.02161,0.9458,0.07233,1.89221,0.1178,2.83704c0.18213,3.78149,0.46454,7.55798,0.8468,11.32446
		c0.31726,3.1261,0.70331,6.24524,1.15784,9.35437c0.94324,6.4519,2.19379,12.90442,4.58264,18.97156
		c2.25952,5.73865,5.63263,10.66052,9.84467,15.10876c0.93616,0.98865,2.08362,1.76184,3.31384,2.33655
		c2.57379,1.20215,5.46509,1.57715,8.27411,1.73242c1.05798,0.05847,2.11768,0.08179,3.17712,0.09314
		c4.42798,0.04761,9.06433,0.04785,12.98804-2.00476c3.30823-1.73059,5.75928-4.76282,7.62866-7.99463
		c2.41968-4.18323,4.02185-8.83716,4.69006-13.62341c0.71057-5.08984,0.11047-9.34387-0.63623-14.42859
		c-0.28442-1.9364-0.72693-3.91626-0.86035-5.86816c-0.02063-0.30261,0.01123-0.55518,0.06409-0.8501
		c0.1405-0.78406,0.09998-1.55676,0.08386-2.35339c-0.03809-1.88684-0.09399-3.77332-0.16748-5.65918
		c-0.14709-3.77161-0.36511-7.54041-0.65356-11.30383c-0.32983-4.30298-0.75195-8.59888-1.26599-12.88379
		c-0.39844-3.32092-0.75769-6.69226-1.43091-9.96228c-0.14893-0.72339-0.01172-1.49902,0.03052-2.2384
		c0.05188-0.90918,0.09644-1.81873,0.13367-2.72864c0.14722-3.60144,0.17859-7.20776,0.09424-10.81128
		c-0.05469-2.33276-0.2052-4.81042-1.5531-6.71509c-3.69727,4.06799-3.30212,10.5874-6.64905,14.94812
		c-1.97314,2.5708-5.06921,4.09729-8.24072,4.76282c-3.17163,0.66565-6.4502,0.55066-9.68567,0.3667
		c-2.49933-0.14221-4.64087-0.96948-7.06805-1.58264c-1.36322-0.34436-2.79657-0.72729-3.79321-1.71912
		c-2.12177-2.11145-1.29053-5.3009-1.56812-8.28137s-1.0235-6.22742-3.43707-7.99792
		C1007.07428,1048.57825,1005.51453,1047.65063,1004.23761,1048.97949z"/>
	<path class="st8" d="M1152.95898,836.69281c2.01294-24.35406,1.89832-48.88361-0.34204-73.21777
		c-1.13403-12.31732-0.20728-23.43341-1.94775-35.67969c-2.40308-16.90747-16.82959-29.65997-31.92029-37.65411
		c-15.0907-7.9942-32.099-11.40509-48.63245-15.68042c-17.3064-4.47522-34.44336-10.00958-52.20343-12.03802
		c-17.76013-2.0285-36.58813-0.25641-51.87897,9.00244c-6.16028,3.73016-11.90894,6.00079-16.31598,11.69653l-1.33063,1.69012
		c-12.86389,30.4165-17.01532,64.46082-11.83783,97.07733c2.24072,14.11719,5.6662,28.18768,12.08319,40.98315
		c2.97205,5.92627,6.34814,11.64606,10.03296,17.15619c7.4234,11.10034,16.07861,21.33667,25.34528,30.93542
		c4.83008,5.00323,9.83276,9.83795,14.9472,14.54938c-2.2464,29.28711-2.22601,58.44562,2.68958,87.40454
		c1.19678,7.05078,2.60553,14.07983,3.21112,21.20575c0.4527,5.32648,0.45416,10.67975,0.45526,16.02545
		c0.00293,13.8598,0.00586,27.71967,0.00879,41.57953c2.19635,1.60889,5.17352,3.15247,7.83081,3.745
		c11.78882,2.62878,24.44434,1.19373,35.34521-4.00793c1.51501-0.7229,3.11218-1.64014,3.72437-3.20325
		c0.37524-0.95813,0.31958-2.02332,0.2583-3.05054c-0.39355-6.60059-0.78723-13.20117-1.18079-19.80188
		c-1.37231-23.01337,6.08545-44.80151,8.84143-67.69049c-0.58813,9.9325-1.17639,19.88763-0.70215,29.82623
		c0.34998,7.33575,1.27454,14.62592,1.98047,21.93182c0.3689,3.81744,0.68005,7.64233,0.81592,11.47589
		c0.07861,2.21704,0.49353,4.88013-0.09387,7.04102c-0.73706,2.71191-0.9353,5.42639-0.79285,8.25623
		c0.30957,6.14587,2.02039,12.10815,3.45618,18.05811c3.11121,12.89343,4.92041,26.10596,5.38391,39.36157
		c0.07849,2.24365-0.46802,4.09802-0.60364,6.26477c-0.15479,2.47327,0.6532,5.1615,1.0415,7.59607
		c0.43835,2.74817,0.86902,5.49756,1.29211,8.24805c1.69263,11.0022,3.26392,22.02295,4.71362,33.05981
		c2.89929,22.07361,5.3125,44.21106,7.23718,66.39087c1.92456,22.17981,3.36084,44.4021,4.3064,66.64514
		c0.08508,2.00183,0.16626,4.00391,0.24341,6.0061c15.12537,3.61731,29.54553,3.2229,45.06836,2.27271
		c4.2041-0.25732,8.67297-0.60754,12.04907-3.12598c2.69263-17.84558,3.67676-35.93799,3.12805-53.97351
		c-0.27454-9.02454-0.93298-18.03711-1.95593-27.00757c-0.45422-3.98291-1.06995-7.92773-1.33752-11.92639
		c-0.49646-7.41809-0.9928-14.8363-1.48914-22.25439c-0.9928-14.8363-1.9856-29.67261-2.97839-44.50891
		c0-3.86987-0.52283-7.81396-0.78125-11.67651c-0.16248-2.427-0.72351-5.09937-0.4071-7.52747
		c0.15308-1.1748,0.51245-2.17236,0.50952-3.38904c-0.00916-3.63586-0.20178-7.27966-0.45349-10.90588
		c-0.50439-7.26453-1.38892-14.49866-2.50305-21.69373c-0.59509-3.84338-1.25562-7.67664-1.96021-11.50146
		c-0.28186-1.52979-0.80908-3.17114-0.73083-4.75537c0.05469-1.10583,0.38562-2.14124,0.37415-3.26367
		c-0.03784-3.69873-0.36548-7.41821-0.54858-11.11304c-0.36743-7.41907-0.73499-14.83826-1.10254-22.25739
		c-0.34546-6.974-0.69092-13.948-1.0365-20.92267c-0.27686-5.59039-0.28308-11.26801,1.02625-16.73126
		c0.42163-1.75946,0.82947-3.52228,1.22656-5.28748c0.79419-3.5304,1.54126-7.07141,2.24084-10.6217
		c1.39941-7.10065,2.6095-14.23865,3.62866-21.40375c1.43701-10.10284,2.49463-20.25964,3.16821-30.44189
		c1.59583-24.12054,6.68945-50.0625,10.05066-74.00092"/>
	<path class="st4" d="M1019.97815,381.10345c-2.03314-0.30151-4.05499-0.67264-6.08295-1.00586
		c-1.39703-0.22955-2.97394-0.67078-4.39362-0.60519c-1.17505,0.05429-2.39038,0.05988-3.52753,0.41391
		c-2.63043,0.81903-4.77307,2.8735-6.4256,5.00415c-1.38336,1.78348-2.61627,3.76056-3.0484,5.97592
		c-0.43207,2.21533,0.06226,4.71356,1.71088,6.25522c1.97485,1.84674,4.97815,1.90878,7.68024,1.81271
		c4.5058-0.16019,9.05096-0.4671,13.37714-1.73682c3.65411-1.07248,7.18213-2.8869,9.70081-5.74338
		c1.24463-1.41156,2.20483-3.08499,2.7655-4.88297c0.35364-1.13422,1.20789-3.87143,0-4.7486
		c-0.50391-0.36594-1.25842-0.30975-1.84351-0.28381c-1.03845,0.04605-2.06812,0.14017-3.1095,0.13635
		C1024.5022,381.6868,1022.23053,381.4375,1019.97815,381.10345z"/>
	<path class="st3" d="M1208.28516,590.33917c10.10339,10.73834,21.46655,20.33203,30.57373,31.92725
		c2.17175,2.76514,4.39319,5.7796,7.68445,7.01685c4.42712,1.66431,9.30017-0.38428,13.57983-2.39758
		c14.08569-6.62671,28.34973-13.52148,41.50842-21.83826c8.60217-5.43695,17.48877-10.63373,25.78821-16.48474
		c2.04614-1.44257,4.69263-2.39758,6.9259-3.53589c10.2959-5.24768,19.87402-12.00299,29.14099-18.87488
		c6.98291-5.17816,13.80176-10.5722,20.61829-15.96594c4.32214-3.41998,8.64441-6.84003,12.96655-10.26001
		c2.04736-1.62,4.0946-3.23999,6.14197-4.85999c1.09192-0.86395,2.38342-1.64777,3.29956-2.70959
		c1.28455-1.48877,2.922-2.513,4.526-3.664c3.67944-2.64044,7.35889-5.28088,11.03833-7.92133
		c0.93042-0.6676,1.90649-1.35461,3.03796-1.53168c1.02429-0.16028,2.06055,0.11639,3.0636,0.37878
		c8.39343,2.1958,16.99365,3.5517,25.63464,4.33051c7.53064,0.67871,15.323,0.88885,22.43506-1.67822
		c9.27881-3.34918,16.64246-11.56528,18.95923-21.15417c0.39343-1.62863,0.64917-3.33746,0.28992-4.97397
		c-0.29163-1.32819-0.97168-2.5347-1.66846-3.70242c-2.17615-3.64697-4.72986-7.2616-8.41272-9.3764
		c-2.8833-1.65567-6.41882-2.7326-9.74878-2.71854c-1.9646,0.00827-3.92932-0.04807-5.89014-0.16873
		c-3.92151-0.24127-7.82739-0.73972-11.68359-1.49255c-9.70349-1.89441-19.36194-3.64948-29.23718-3.17587
		c-1.77722,0.08521-3.59192,0.23663-5.21948,0.95538c-1.56995,0.6933-2.86719,1.87057-4.1344,3.02792
		c-4.05017,3.6991-8.10046,7.39816-12.15063,11.09726c-5.41321,4.94382-11.61951,7.96396-18.09229,11.40585
		c-11.17346,5.94153-22.69824,11.22229-34.49426,15.80548c-27.7229,10.77142-50.43054,28.80396-76.2428,43.57916
		c-5.03149,2.88007-10.10144,5.77771-15.58875,7.64856c-2.87878-0.34149-4.39941-3.3526-6.08081-5.71423
		c-1.15601-1.62384-2.31213-3.24768-3.46826-4.87152c-3.84204-5.39667-22.0874-36.32178-23.07324-38.20148
		c-1.97168-3.7594-4.10327-7.435-6.38733-11.01324c-0.41113-0.64407-0.82727-1.285-1.24817-1.9227
		c-2.01355-3.0502-4.39185-6.21643-7.88684-7.28534c-1.9187-0.58679-3.979-0.46747-5.96875-0.20963
		c-6.46509,0.83789-12.68567,3.22794-18.15759,6.75305c-5.50781,3.54831-10.28113,8.24573-13.88953,13.71625
		c-1.79993,2.72876-3.30872,5.65112-4.46545,8.70923c-0.47644,1.25977-1.50537,3.21771-1.12878,4.57709
		c0.19495,0.70349,0.71228,1.34985,1.01135,2.01483c0.40527,0.90076,0.79565,1.80804,1.2041,2.7074
		c3.26794,7.19543,6.98413,14.18707,11.11536,20.92395c4.13135,6.73694,8.67798,13.21936,13.60693,19.39673
		C1201.3457,582.65393,1204.73816,586.56921,1208.28516,590.33917z"/>
	<path class="st3" d="M919.5658,500.30606c-2.12561,19.88608-4.25116,39.77219-6.37671,59.65829
		c-1.06281,9.94305-2.12561,19.88611-3.18835,29.82916c-0.3158,2.9541-0.33057,6.18658-1.13348,9.02271
		c-0.26074,0.9212-0.53461,1.84393-0.78827,2.76984c-2.02386,7.38782-4.12909,14.75336-6.31506,22.09479
		c-4.37195,14.68298-9.06683,29.26978-14.07971,43.7464c-5.01294,14.47668-10.34393,28.8432-15.98804,43.08563
		c-3.86627,9.75604-7.87946,19.45386-12.03796,29.08899c-3.12939,7.25049-7.90576,13.58862-11.70349,20.51251
		c-1.05945,1.93152-0.70923,3.6532,0.42236,5.34521c0.99146,1.48242,1.94849,2.98785,2.87054,4.5144
		c1.04321,1.72711,1.94495,3.54364,2.99634,5.26221c0.16693,0.27289,0.34302,0.50879,0.57965,0.72418
		c0.49396,0.44965,0.94373,0.8244,1.35492,1.36792c1.01471,1.34131,1.89966,2.77753,2.67938,4.26691
		c1.57874,3.01538,2.72693,6.2345,3.74182,9.47644c0.41748,1.33374,1.33008,4.49561,1.7229,5.83679
		c-0.05579-0.19037,8.22119-9.72888,9.3515-11.16199c2.24554-2.84698,4.25824-5.86707,6.26544-8.88385
		c8.75177-13.15375,17.50354-26.30756,26.25531-39.4613c7.71252-11.59174,14.82422-23.09332,22.52936-34.68994
		c4.35706-6.5575,8.77277-13.23767,11.04095-20.77692c5.841-19.41528,26.8631-29.88574,33.45697-49.05847
		c11.21338-32.60443,6.26971-68.28644,9.64691-102.59943c0.46997-4.77466,0.98956-10.02539-1.75061-13.96356
		c-1.6391-2.35571-4.21283-3.85669-6.70319-5.28293c-7.59186-4.34793-15.18378-8.69586-22.77563-13.04382
		c-3.47235-1.98862-7.05292-4.01547-11.01489-4.57617C933.05219,492.33844,925.94281,496.08408,919.5658,500.30606z"/>
	<path class="st3" d="M1039.19641,372.1575c-0.02942,0.47006-0.4801,0.86832-0.75684,1.20859
		c-0.38123,0.4689-0.76685,0.93402-1.16101,1.39215c-0.78833,0.91614-1.60486,1.80804-2.44751,2.67441
		c-3.37158,3.46606-7.16272,6.52252-11.25885,9.09146c-4.09576,2.5687-8.49829,4.65073-13.09009,6.16544
		c-0.59698,0.19693-1.19714,0.38425-1.80017,0.5618c-3.03912,0.89487-6.3476,1.66495-8.46246,4.02383
		c-2.3949,2.67117-2.57324,6.59915-2.62512,10.18634c-0.13312,9.21353,0.03888,19.32138,6.0199,26.33093
		c6.22705,7.29785,16.7287,8.8764,26.28699,9.69815c22.96265,1.97412,46.54663,2.32816,68.54541-4.5451
		c12.02649-3.75757,21.20508-10.43204,30.63806-18.78522c0.30542-3.97858-0.04797-8.84723-2.91626-11.62131
		c-1.94763-1.8837-4.78674-2.43158-7.21765-3.62848c-5.21326-2.56683-8.31812-7.97653-10.95288-13.15588
		c-3.24365-6.37625-4.57361-12.00104-5.91785-19.02747c-0.7085-3.70361-1.32361-7.48761-0.8739-11.23148
		c0.74707-6.21912,4.39832-12.14844,3.43359-18.33752c-1.51428-9.7164,3.34863-20.15335,9.21265-28.0473
		c2.79504-3.76257,6.39478-6.94806,8.64819-11.05801c5.05237-9.21494,2.01819-21.20612-4.66125-29.3194
		c-6.67944-8.11325-16.31506-13.13733-25.81506-17.63055c-5.26477-2.49002-11.10693-4.94029-16.74365-3.47585
		c-9.28857-6.14284-18.55981-11.47406-29.68652-11.93033s-22.72186,3.49855-30.02051,11.90936
		c-3.67041,4.22972-6.12933,9.36522-8.237,14.5537c-1.95172,4.80457-3.65387,9.77005-4.18622,14.92847
		c-0.5174,5.01373,0.08521,10.08438,1.10358,15.02078c1.03406,5.01236,2.49396,9.92542,3.95197,14.83124
		c2.45947,8.2753,4.91888,16.5506,7.37836,24.82593c1.7771,5.97931,3.68048,12.18607,7.91754,16.76404
		c0.50671,0.54749,0.99231,1.20963,1.59033,1.65945c0.50391,0.37894,1.00244,0.76462,1.49353,1.16006
		c0.98193,0.79077,1.93628,1.61591,2.86084,2.47314c1.84912,1.71451,3.5791,3.5574,5.17407,5.51068
		c0.86816,1.06335,1.69641,2.15948,2.48193,3.28537c0.40076,0.57446,0.79041,1.15665,1.16858,1.74619
		c0.30164,0.47028,0.88733,1.11725,0.92517,1.69406C1039.19849,372.09229,1039.19849,372.12506,1039.19641,372.1575z"/>
	<path class="st9" d="M1000.17828,382.63596c-23.79541,3.33322-47.77618,5.3429-71.79443,6.01669
		c-0.81696,0.02292-1.69812,0.06662-2.33636,0.57709c-0.57556,0.46033-0.82941,1.2038-1.04877,1.90738
		c-1.17047,3.7533-1.94287,7.58508-2.97302,11.37012c-0.19818,0.72824-0.45013,1.43866-0.76984,2.12253
		c-0.50592,1.082-1.13647,2.08243-1.48358,3.23508c-0.55737,1.85089-0.65808,3.85544-0.875,5.76767
		c-0.23645,2.08405-0.4505,4.17056-0.6488,6.25858c-0.79449,8.36603-1.33459,16.7532-2.02881,25.12762
		c-0.69037,8.32794-1.53162,16.65326-2.93829,24.89447c-1.25317,7.34161-2.96198,14.61649-5.38208,21.66534
		c-1.09503,3.18945-2.37006,6.39053-4.5271,8.98257c1.16504,1.28958,3.13995,1.48251,4.87524,1.38736
		c1.73535-0.09518,26.05188,4.28983,31.45361,8.06668c3.30286,2.30933,5.80127,3.19623,9.52814,4.72992
		c2.71222,1.11615,5.53033,2.11823,7.83917,3.92688c2.30884,1.80859,4.06177,4.64368,3.70007,7.5542
		c-3.76593,30.30469,1.80481,60.31555-4.29309,90.23834c-2.28644,11.21954-0.58374,21.63367-2.20233,32.96881
		c-1.16052,8.12714-5.30804,15.47583-9.37823,22.60535c-2.30859,4.04382-4.61725,8.08771-6.92584,12.13159
		c15.74408-0.23608,31.21063,4.71545,44.77081,12.71869c4.27716,2.52441,8.33112,5.41553,12.63678,7.89099
		c11.40558,6.5575,24.2262,9.99615,36.99017,12.7782c6.46863,1.40991,12.96997,2.66479,19.43347,4.09784
		c2.44922,0.54297,5.04724,0.83777,7.26318,2.05505c2.17676,1.1958,5.18713,1.27393,7.61523,1.62317
		c2.89722,0.41681,5.80811,0.73956,8.72632,0.96765c4.49402,0.35132,9.00562,0.47833,13.51221,0.37891
		c4.98218-0.10986,9.96619-0.49518,14.94348-0.24976c5.95642,0.2937,11.82959,1.48694,17.75977,2.11926
		c6.62769,0.70667,13.30786,0.71088,19.97302,0.71436c4.45593,0.00232,8.91187,0.00464,13.3678,0.00696
		c0.99023,0.00049,1.98047,0.00104,2.9707,0.00153c0.49451,0.00024,0.98914,0.00049,1.48376,0.00079
		c0.47961,0.00024,1.12219,0.11475,1.58972-0.00079c0.2771-0.06842,0.3656-0.16565,0.55872-0.37537
		c1.02649-1.11493,1.94653-3.11511,1.33582-4.64838c-0.17688-0.44391-0.44678-0.79333-0.55225-1.27325
		c-0.35278-1.60516-0.48303-3.29694-0.69348-4.92627c-0.42737-3.30798-0.7843-6.62512-1.07043-9.94836
		c-0.22327-2.5921-0.40344-5.18793-0.54041-7.78601c-0.3855-7.3139-0.05469-14.03442-3.09265-20.69891
		c-0.69995-1.53558-1.50269-3.02069-2.2644-4.52576c-0.49939-0.98657-1.27502-2.14819-1.48889-3.24042
		c-0.13965-0.71295-0.01013-1.59143-0.01953-2.32092c-0.021-1.61737-0.05103-3.23456-0.09021-4.85156
		c-0.07849-3.23395-0.19336-6.46704-0.34473-9.69843c-0.30261-6.46277-0.7511-12.9187-1.34485-19.36127
		c-0.62329-6.76465-1.40686-13.51459-2.34998-20.24213c-2.96497-21.14923,2.03564-41.94159,3.97266-63.20959
		c1.19702-13.14288,0.01489-24.47235,0.38293-37.66449c2.19299,7.44415,4.78833,14.76971,7.77087,21.93408
		c0.28833,0.69244,0.64429,1.44897,1.33972,1.72992c0.66858,0.2702,1.42163,0.00647,2.09326-0.25629
		c6.75513-2.64246,13.51025-5.28497,20.26538-7.92743c6.78577-2.65448,13.61511-5.33051,19.80591-9.17352
		c4.40881-2.73694,25.64014-12.54306,30.36438-15.26501c-7.46729-16.83551-24.92688-41.91296-32.39417-58.74844
		c-1.10168-2.48392-2.20349-4.96783-3.30518-7.45175c-5.87659-3.76447-10.59619-6.39539-16.47278-10.15985
		c-4.10547-2.62988-11.1687-5.42914-16.12634-6.87128c-1.45337-0.42279-2.90283-0.98474-4.43237-0.92801
		c-1.85461,0.06879-18.00891-4.25626-18.91882-4.70111c-2.30505-1.12689-4.57129-2.33276-6.7937-3.61484
		c-3.80798-2.19684-7.48267-4.61508-11.11157-7.0939c-1.53809-1.05069-3.10388-1.97598-4.29541-3.41315
		c-0.38562-0.465-2.8009-1.48123-2.13794-0.85983c1.8042,1.69116,1.81238,4.42853,2.2301,5.40216
		c1.13403,2.64291-0.09167,5.8049-0.6626,8.62897c-0.26721,1.3215-0.74646,2.64087-1.65869,3.63364
		c-1.11853,1.21738-2.74561,1.80634-4.30591,2.35254c-5.5918,1.95734-11.18359,3.9147-16.77539,5.87204
		c-1.91284,0.66959-3.86377,1.56915-5.83911,2.02481c-0.36682,0.08463-0.70947,0.1235-1.08521,0.10556
		c-2.05164-0.09787-4.05505,0.14108-6.10559,0.31924c-4.74561,0.41232-9.50281,0.74182-14.26782,0.78604
		c-5.02661,0.0466-10.06677-0.22754-15.0293-1.05737c-3.8009-0.63559-7.53955-1.5932-11.27271-2.54968
		c-4.2572-1.09073-8.51453-2.18146-12.77173-3.27219c-6.67529-1.71024-13.84039-3.72827-18.11188-9.13565
		C1006.12238,405.5997,1001.06659,394.34164,1000.17828,382.63596z"/>
	<path class="st10" d="M1059.74329,342.96042c9.67285-2.09525,20.20349-4.45972,28.58813-9.8364
		c-7.1333,9.71063-13.87317,23.88333-27.02734,25.58185c-3.54163,0.32169-5.20764,0.59518-10.31628-0.58511
		c-6.45642-1.4917-9.98767-8.70139-12.60608-14.85944c-0.89868-1.4877,0.03003-2.29437,1.50024-1.43259
		C1046.26782,343.9043,1053.15198,343.98987,1059.74329,342.96042z"/>
	<path class="st11" d="M1045.68652,252.87813c-2.51782,7.63002-7.35315,14.47826-13.70056,19.4044
		c-3.91541,3.03879-8.36444,5.3468-12.2121,8.47104s-7.17926,7.35953-7.63611,12.29477
		c-0.6275,6.77957,4.19147,12.86279,5.15729,19.60248c0.37354,2.60657,0.16022,5.25598,0.03796,7.88635
		c-0.46527,10.01245,0.40863,20.08633,2.59119,29.86911c-1.95331-3.25644-3.90668-6.51288-5.86005-9.76929
		c-0.3855-0.64261-0.83112-1.33441-1.54584-1.55975c-0.47583-0.15005-0.9892-0.06329-1.4881-0.07339
		c-1.94531-0.03946-3.58813-1.5918-4.39062-3.36435c-0.80243-1.77252-0.95056-3.75809-1.20612-5.68695
		c-0.94208-7.10983-3.51703-13.99832-7.46979-19.98276c-0.58356-0.88354-1.23608-1.78241-2.18475-2.25278
		c-1.36383-0.67618-2.98969-0.31439-4.46497,0.06082c-2.01819,0.51328-4.03632,1.02652-6.0545,1.53979
		c-1.0166,0.25854-2.22827,0.47318-3.00336-0.23367c-0.50092-0.45685-0.65741-1.17273-0.75482-1.84366
		c-0.28632-1.97217-0.29022-3.98517-0.01154-5.95844c0.29199-2.06729,0.86316-4.3103-0.14386-6.13919
		c-1.00708-1.82892-4.48352-1.98392-4.71545,0.09097c-0.07367-4.36957,2.12018-8.40372,3.95105-12.37192
		c2.56305-5.55518,4.51227-11.39331,5.8009-17.37402c2.62793-12.19716,13.43695-21.6131,22.40912-30.28355
		c4.12976-3.99084,8.25946-7.9817,12.38922-11.97255c2.81281-2.71823,5.7309-5.50499,9.38226-6.90773
		c3.45374-1.32678,7.25806-1.29646,10.95752-1.24837c12.72754,0.16542,25.45508,0.33086,38.18262,0.49628
		c2.39087,0.03108,4.80261,0.06451,7.13489,0.59212c3.00964,0.68086,5.76978,2.15648,8.65234,3.2576
		c6.78406,2.59143,12.45264,5.92038,17.95972,10.65442c3.21362,2.76257,6.42725,5.52515,9.64099,8.28772
		c2.2113,1.90092,4.44153,3.82181,6.19141,6.15443c1.43311,1.91022,2.53284,4.08224,4.20068,5.79128
		c1.04565,1.07141,2.30566,1.95107,3.15283,3.18538c2.84912,4.15128-0.14636,9.7637,0.27747,14.78073
		c0.32068,3.7951,2.60559,7.08591,4.27991,10.50681c2.54614,5.20233,3.75732,11.0513,3.48657,16.83698
		c-0.10681,2.28107-0.43713,4.59113,0.01343,6.8298c0.53296,2.64804,2.1438,5.12949,1.90393,7.81995
		c-0.55212,6.19046-7.61157,5.66925-6.88782,11.84201c1.14307-0.12033-0.66699,2.34543,0.22791,1.62408
		c0.89478-0.72131,2.39258-1.11218,3.06775-0.18195c0.51453,0.70895,0.18018,1.70209-0.2229,2.47983
		c-1.10425,2.13089-2.62048,4.04733-4.44019,5.61218c-0.56628,0.487-1.21985,0.96176-1.96667,0.97192
		s-2.05261,2.95169-1.85522,2.23129c-3.27368,5.21329-3.25415,7.28296-9.31714,8.34854
		c-0.23438,1.54852-2.46252,1.34537-2.87378,2.85654c-0.89648,0.24384-3.25476,1.00702-3.38184,0.0867
		c-0.12708-0.92035,0.13257-1.86487-0.02014-2.78128c-0.28076-1.68469-2.14441-2.9227-3.80627-2.52844
		c-1.66174,0.39429-2.77063,2.33752-2.26465,3.96878c-2.34314-3.57227-4.13171-7.50751-5.28223-11.62186
		c-0.36841,1.19418-1.28613,1.8251-2.99207,2.8739c-0.37268-3.73883-0.63477-6.28586,0.81348-9.75293
		c0.71924-1.72211,1.67383-3.50845,1.34619-5.34576c-0.22925-1.28583-1.06079-2.37622-1.51147-3.60214
		c-1.19812-3.25925,0.46252-6.89487,2.65796-9.58524c2.19543-2.6904,4.97888-4.94931,6.61597-8.01169
		c1.63696-3.06241,1.69543-7.41925-1.09412-9.48721c-1.70386,1.81628-4.04419,2.87323-6.3197,3.88504
		c-0.71997,0.32016-1.44006,0.64032-2.16003,0.96048c-0.64624,0.28735-1.31299,0.57959-2.0199,0.60202
		c-1.50366,0.04764-2.80969-1.17334-3.36328-2.5723c-0.55347-1.39899-0.52173-2.95004-0.50671-4.45447
		c0.04578-4.58792-0.19629-9.3923-2.49512-13.36298c-2.29895-3.9707-7.26453-6.75522-11.56116-5.14575
		c-6.35352-2.20517-13.35205-4.50482-19.88013-6.1218c-3.76843-0.93341-7.61633-1.78806-11.02368-3.64886
		C1050.67297,258.54681,1046.43652,256.68735,1045.68652,252.87813z"/>
	<g>
		<path class="st12" d="M1038.17358,370.83148l8.05054,5.9465c2.67126,1.9855,5.40027,3.90356,8.34875,5.39182
			c1.47217,0.74423,2.99731,1.37064,4.55786,1.86136c1.56763,0.47125,3.18237,0.78629,4.80835,0.89996
			c3.24402,0.22214,6.56848-0.41907,9.2843-2.18579c1.37622-0.85568,2.63513-1.9201,3.875-3.02112l3.70703-3.35107l7.32642-6.80408
			c2.43555-2.27594,4.8446-4.58066,7.23352-6.90695c2.41309-2.30228,4.77844-4.6535,7.16687-6.98468
			c-4.46436,4.96234-9.10852,9.76208-13.86731,14.44608c-2.36462,2.35757-4.80469,4.6373-7.24243,6.91867l-3.68604,3.39346
			c-1.24268,1.1217-2.52808,2.23788-3.9823,3.15582c-2.927,1.86719-6.49561,2.51273-9.88025,2.24573
			c-3.40454-0.26648-6.70422-1.36218-9.65527-2.98859c-2.97083-1.60608-5.67358-3.61319-8.29089-5.68378
			C1043.33472,375.05957,1040.73962,372.96692,1038.17358,370.83148z"/>
	</g>
	<path class="st11" d="M1038.86829,291.4425c-8.50098-2.00638-17.58099-1.48981-25.7995,1.46777
		c3.20648-3.99207,8.79974-4.94055,13.87616-5.61041c2.87927-0.37991,5.83569-0.71567,8.72815-0.27618
		c1.26025,0.19147,2.47144,0.58115,3.66614,1.01706c0.72192,0.26343,1.38086,0.59152,1.97729,1.08078
		c1.05579,0.86612,2.26636,1.93542,3.02686,3.06503c-0.86035,0.21008-1.91992,0.02008-2.77808-0.13281
		C1040.65735,291.89197,1039.76526,291.65424,1038.86829,291.4425z"/>
	<path class="st11" d="M1067.75928,282.94934c6.69128-2.70444,14.19519-2.69531,21.32971-1.60623
		c-0.45618-1.97629-2.23438-3.43793-4.16467-4.06104c-1.93018-0.62311-4.00891-0.547-6.03259-0.40945
		c-2.45923,0.16711-4.91724,0.42429-7.3385,0.89566c-2.1731,0.42313-4.2334,1.13275-6.34424,1.77649
		c-1.5144,0.46185-3.1814,0.82739-4.55139,1.65109c-0.37842,0.22754-0.84888,0.55719-0.89929,1.03769
		c-0.05737,0.54544,0.45239,0.99802,0.84253,1.29251c1.95007,1.47177,4.39673,0.57678,6.39844-0.26141
		C1067.25232,283.15869,1067.505,283.05212,1067.75928,282.94934z"/>
	<g>
		<path class="st4" d="M990.73364,554.74451c2.56781,1.78906,5.27991,3.33087,8.12457,4.55432
			c2.84778,1.21191,5.80206,2.16138,8.82959,2.76959c3.02289,0.6308,6.11237,0.92072,9.20715,0.92627l2.32281-0.06354
			l2.31903-0.2002l2.31519-0.29999c0.763-0.15179,1.53082-0.29199,2.30414-0.42462
			c-0.74451,0.23688-1.49463,0.46625-2.24945,0.68396l-2.29828,0.52563l-2.336,0.34442l-2.35626,0.20325
			c-3.15302,0.17755-6.32959-0.09198-9.42902-0.71613c-3.09467-0.64709-6.12115-1.6488-8.94946-3.05328
			C995.70679,558.60199,993.04761,556.85938,990.73364,554.74451z"/>
	</g>
	<g>
		<path class="st4" d="M1076.37146,561.49237c2.83569,1.08331,5.72449,1.99261,8.6886,2.57715
			c2.96423,0.55951,5.96216,0.93732,8.97461,0.98535c6.0144,0.10956,12.05493-0.6925,17.77075-2.55774
			c2.86047-0.90503,5.67371-1.99939,8.32434-3.41614c2.65369-1.422,5.29321-2.89325,7.40198-5.00262
			c2.15479-2.07379,3.89355-4.56604,5.59753-7.06348c1.72656-2.48608,3.39319-5.04706,5.41528-7.3161
			c-3.71191,4.7937-6.15881,10.45819-10.46887,14.92352c-1.07544,1.09589-2.24829,2.13641-3.56921,2.94177
			c-0.64539,0.42084-1.30347,0.79865-1.95483,1.20007c-0.64441,0.4104-1.31396,0.77869-1.99829,1.12238
			c-2.68677,1.46881-5.53906,2.61597-8.44666,3.56293c-5.84241,1.81879-11.99475,2.64789-18.09912,2.37061
			c-3.05359-0.14282-6.0802-0.60986-9.05273-1.27472C1081.99902,563.79419,1079.11816,562.78271,1076.37146,561.49237z"/>
	</g>
	<g>
		<path class="st4" d="M1101.50159,603.51031c0.5249,4.60052,1.24939,9.16571,2.25208,13.66681
			c1.00488,4.49915,2.21729,8.95172,3.76013,13.29285c1.46655,4.36737,3.2561,8.62097,5.24341,12.78052l1.53442,3.10046
			l1.63525,3.05103l1.70142,3.01941l1.78674,2.9751c-0.67773-0.93781-1.34924-1.88202-2.01099-2.83386l-1.90039-2.91327
			l-1.76758-2.99786l-1.66711-3.05743c-2.14587-4.12036-3.94568-8.41791-5.49927-12.7981
			c-1.47717-4.40643-2.71545-8.89807-3.56616-13.46533C1102.15076,612.76556,1101.61511,608.14209,1101.50159,603.51031z"/>
	</g>
	<g>
		<path class="st13" d="M967.45233,703.1178c6.73004,0.63391,13.21301,2.82294,19.36646,5.55701
			c6.16431,2.75275,12.12732,5.90747,17.99976,9.22253l8.83325,4.93292c2.93164,1.66724,5.76678,3.50513,8.65527,5.24976
			c5.7132,3.58337,11.1557,7.69257,15.86066,12.5777c4.69995,4.90259,8.46167,10.59485,11.85413,16.42346
			c1.70166,2.91779,3.32019,5.87628,4.89795,8.85675l4.77271,8.92126c0.77527,1.49689,1.63025,2.93066,2.29675,4.54834
			c0.6814,1.64185,0.75598,3.37976,1.55933,4.72992c1.6571,2.89612,3.67505,5.58844,5.62024,8.34869
			c3.83887,5.57312,7.41724,11.2923,10.72131,17.19519c3.26514,5.91711,6.16248,12.05591,8.45422,18.42865
			c2.27209,6.37482,3.93201,12.98633,4.71094,19.72125c0.38599,3.36566,0.56104,6.76062,0.44556,10.15009
			c-0.10352,3.39191-0.51355,6.76422-1.04041,10.09894c-0.53113,3.33984-1.23328,6.6532-2.06958,9.92633
			c-0.41638,1.63715-0.86169,3.26562-1.32092,4.88898c-0.4635,1.61694-0.91699,3.2561-1.50293,4.84869
			c-2.28052,6.40485-5.74133,12.25952-9.11108,18.0824c-1.69702,2.91144-3.34985,5.84149-4.88879,8.83221
			c-1.52246,2.99927-2.94202,6.04993-4.26343,9.14386c-5.27185,12.38074-8.70349,25.55933-10.10974,38.96759
			c1.24377-13.42426,4.51819-26.66797,9.65833-39.15656c1.30042-3.11609,2.7218-6.18054,4.23511-9.1994
			c1.53296-3.00989,3.1803-5.95874,4.86548-8.8775c3.3479-5.83917,6.76306-11.68054,8.9873-18.01447
			c1.08679-3.15704,1.92175-6.44037,2.76501-9.6886c0.8186-3.26056,1.50134-6.55078,2.01514-9.87024
			c0.51062-3.32312,0.90112-6.65668,0.9895-10.00482c0.10022-3.34888-0.08691-6.70398-0.48254-10.03101
			c-0.7981-6.65765-2.46814-13.19769-4.74646-19.50684c-2.29614-6.3075-5.20081-12.38354-8.46375-18.25641
			c-3.25476-5.87347-6.81226-11.61096-10.59656-17.15326c-1.92322-2.75464-3.94812-5.47607-5.63013-8.44275
			c-0.91418-1.60266-0.96655-3.37872-1.59253-4.84741c-0.60938-1.50519-1.47412-2.98413-2.24268-4.48022l-4.729-8.92798
			c-1.56323-2.98309-3.16797-5.94525-4.85022-8.85736c-3.35474-5.81927-7.06238-11.47552-11.68762-16.34009
			c-4.63391-4.85138-10.01782-8.95575-15.69647-12.54968c-2.87323-1.75134-5.69055-3.59479-8.61035-5.2713l-8.79626-4.97046
			c-5.82501-3.38159-11.7511-6.60828-17.86627-9.42749C980.61163,706.09509,974.17438,703.83319,967.45233,703.1178z"/>
	</g>
	<g>
		<path class="st13" d="M1084.88245,1025.51929c2.21301,0.75769,4.45483,1.36035,6.73059,1.73792
			c2.27625,0.3656,4.57373,0.56616,6.87195,0.52966c2.29834-0.01343,4.59106-0.26208,6.85876-0.67664l1.69446-0.35608
			l1.67676-0.44617l1.66882-0.49976c0.54443-0.20129,1.09534-0.39209,1.65271-0.57617
			c-0.51147,0.28198-1.02917,0.55737-1.55359,0.82202l-1.60999,0.71802l-1.66394,0.59021l-1.69727,0.49866
			c-2.28418,0.604-4.65076,0.88916-7.01624,0.92517c-2.3656,0.0127-4.73767-0.22192-7.03381-0.77832
			C1089.16565,1027.46362,1086.93213,1026.65625,1084.88245,1025.51929z"/>
	</g>
	<g>
		<path class="st13" d="M1078.54834,1049.43359c2.4408-0.40186,4.8656-0.81116,7.26843-1.31738
			c2.39978-0.51733,4.78772-1.07092,7.14648-1.73584c2.36511-0.64221,4.69849-1.39319,7.02295-2.18237
			c1.1615-0.39795,2.31445-0.82251,3.46265-1.26453l1.72803-0.65588c0.56873-0.23633,1.14343-0.46204,1.72314-0.68042
			c-1.05725,0.64441-2.15686,1.21008-3.255,1.78564c-1.1156,0.53613-2.24524,1.04443-3.38477,1.53394
			c-2.28381,0.96777-4.64209,1.755-7.03076,2.42688c-2.3949,0.64893-4.82263,1.18481-7.27942,1.52661
			C1083.49634,1049.22314,1081.02393,1049.44275,1078.54834,1049.43359z"/>
	</g>
	<path class="st14" d="M1014.68866,842.37079c9.7049,4.34393,20.69476,5.76733,31.1861,4.03931"/>
	<path class="st14" d="M1018.51788,873.26074c10.55597-0.25928,21.93365-0.80145,30.21344-7.35425"/>
	<path class="st15" d="M1128.1217,729.13831c-0.3927,16.91986,9.39343,33.68146,24.3208,41.65686"/>
	<g>
		<path class="st12" d="M1257.90173,588.81671c1.59412-3.07874,2.48145-6.34845,3.30981-9.67035
			c0.81213-3.25916,0.81885-6.68134,0.16211-10.07611c1.42627,3.17145,1.64795,6.88971,0.80811,10.31598
			c-0.43762,1.67841-0.922,3.34955-1.60693,4.95959C1259.90625,585.95679,1259.02222,587.4928,1257.90173,588.81671z"/>
	</g>
	<g>
		<path class="st16" d="M1421.11951,510.91293c0.3728,0.89844,0.65601,1.80612,0.98193,2.67599
			c0.33276,0.8653,0.68054,1.70911,1.17029,2.44421c0.46716,0.7536,1.07483,1.37152,1.80396,1.92603
			c0.72534,0.5553,1.55103,1.05127,2.29736,1.67786c-0.93457-0.25653-1.84546-0.5473-2.71997-1.02179
			c-0.87976-0.45581-1.67517-1.1842-2.2218-2.04126c-0.54675-0.86157-0.88379-1.81494-1.07715-2.77094
			C1421.15662,512.84546,1421.08521,511.88336,1421.11951,510.91293z"/>
	</g>
	<g>
		<path class="st16" d="M1424.6377,492.40872c2.13611,1.55453,4.44531,2.81235,6.88037,3.71234
			c2.4364,0.88901,4.97986,1.47983,7.56042,1.65335c2.57678,0.20529,5.17773,0.02914,7.71973-0.48245
			c0.63513-0.12967,1.26062-0.30591,1.89172-0.46466c0.61206-0.21008,1.24365-0.39832,1.84521-0.62732
			c0.59973-0.22891,1.16528-0.52856,1.66003-0.9451c0.49329-0.41644,0.9386-0.90848,1.39673-1.38397
			c-0.37488,0.54376-0.7467,1.09204-1.21606,1.57779c-0.46338,0.49185-1.03796,0.88757-1.63892,1.19806
			c-0.60913,0.29062-1.23022,0.51755-1.84778,0.77994c-0.63342,0.20782-1.26526,0.43372-1.91016,0.61292
			c-2.58582,0.70911-5.30127,0.92282-7.97791,0.7312c-2.67712-0.20529-5.32361-0.8493-7.76953-1.93967
			c-0.61377-0.26727-1.21716-0.55328-1.79797-0.88498c-0.5957-0.30164-1.15942-0.65939-1.71753-1.02304
			C1426.61243,494.17712,1425.58081,493.3331,1424.6377,492.40872z"/>
	</g>
	<g>
		<path class="st16" d="M1459.18115,495.40591c-1.79773-0.1369-3.66785-0.19952-5.29834,0.487
			c-1.59216,0.62024-2.90649,2.16504-2.89453,3.79895c0.02466,1.64578,1.47229,2.92709,3.03235,3.54797
			c1.58997,0.66171,3.43604,0.8667,5.19666,1.63306c0.86426,0.38507,1.64282,0.84668,2.43945,1.16794
			c0.39697,0.16034,0.79602,0.28903,1.19592,0.3475c0.37415,0.05682,0.8446,0.05109,1.31067,0.08344
			c1.84705,0.10965,3.66748,0.42651,5.44177,0.85928c3.55017,0.85706,6.98547,1.97986,10.60315,2.41238
			c-1.82007-0.00793-3.63464-0.26584-5.43115-0.57028l-5.33313-1.08997c-1.77417-0.31693-3.54492-0.61884-5.32739-0.66568
			c-0.43921-0.01782-0.88025-0.0069-1.40564-0.07425c-0.49976-0.06958-0.97144-0.21982-1.4165-0.39496
			c-0.89026-0.35355-1.68347-0.81439-2.48035-1.16098c-1.56848-0.71622-3.40283-0.92331-5.16479-1.67941
			c-0.87598-0.3909-1.7074-0.92322-2.36731-1.66647c-0.66199-0.72983-1.10974-1.73425-1.05933-2.7594
			c0.03687-1.02136,0.4989-1.9541,1.13098-2.67484c0.63538-0.72238,1.45752-1.27866,2.36023-1.57144
			C1455.52856,494.86398,1457.41248,495.05173,1459.18115,495.40591z"/>
	</g>
	<path class="st17" d="M1467.60889,496.75919c4.33447-0.03833,8.6731,0.42926,12.89978,1.39026"/>
	<path class="st17" d="M1460.59058,499.47159c-1.42773,1.16141-2.66418,2.55746-3.64453,4.11511"/>
	<g>
		<path class="st4" d="M932.59296,388.85413c-0.35529,9.33734,1.61407,18.53192,4.07483,27.46979
			c1.23987,4.47922,2.62164,8.92358,3.94965,13.38501l4.03357,13.36353c2.758,8.88522,5.66553,17.72107,8.90344,26.43457
			c1.64166,4.34781,3.37323,8.66083,5.2207,12.92416c1.8822,4.24741,3.83051,8.46576,5.93756,12.60797l0.05121,0.10068
			l-0.01489,0.10236l-2.18463,14.96683l-2.26367,14.9567l1.84344-15.01053l1.92249-15.00037l0.03625,0.20267
			c-2.1676-4.12845-4.22839-8.31491-6.11859-12.57864c-1.87616-4.26938-3.6358-8.58823-5.30499-12.94122
			c-1.64856-4.36057-3.21564-8.75098-4.69751-13.16922c-1.46069-4.42514-2.854-8.87073-4.2121-13.32587
			c-2.67896-8.92374-5.33051-17.84015-7.729-26.85049C933.68823,407.50104,931.92676,398.17801,932.59296,388.85413z"/>
	</g>
	<g>
		<path class="st4" d="M1159.82336,490.32831l-1.93738,6.67862c-0.62268,2.22754-1.26379,4.44617-1.84924,6.68054
			c-0.6084,2.22821-1.16235,4.47015-1.7356,6.71088l-1.66187,6.75247c0.07593-1.16199,0.22815-2.31335,0.35876-3.47003
			c0.16833-1.14978,0.35522-2.29706,0.5509-3.44373c0.39893-2.29205,0.9314-4.55835,1.52234-6.80817
			c0.61401-2.24362,1.28516-4.47281,2.08606-6.6571C1157.94714,494.58444,1158.80798,492.42276,1159.82336,490.32831z"/>
	</g>
	<path class="st7" d="M1604.17139,560.60388l-21.32178,301.64502l-224.19666,41.69513c0,0-4.51233-183.26587,4.94238-248.02264
		s113.4563-85.69458,113.4563-85.69458h72.49719L1604.17139,560.60388z"/>
	<polygon class="st7" points="1551.88232,560.60388 1606.98206,550.94122 1611.72522,581.88257 1554.9657,589.41907 
		1544.89478,589.41907 	"/>
	<polygon class="st6" points="1384.10498,550.18597 1324.27014,771.98169 1502.14221,765.72223 1556.91223,539.86115 	"/>
	<path class="st10" d="M1575.16895,572.20154l-25.62012-1.97473l-47.40662,195.49542l36.51343,43.81604
		C1538.65564,809.53827,1575.69055,630.06903,1575.16895,572.20154z"/>
	<polygon class="st18" points="1324.27014,771.98169 1354.55188,813.03503 1538.65564,809.53827 1502.14221,765.72223 	"/>
	<path class="st19" d="M1358.65295,903.94403l224.19666-41.69513l52.63159,38.961c0,0-199.58972,35.5434-216.67786,36.91046
		C1418.80334,938.12036,1390.77869,926.50037,1358.65295,903.94403z"/>
	<polygon class="st10" points="1602.42407,585.3233 1631.69824,574.49396 1635.4812,901.2099 1582.84961,862.2489 	"/>
	<path class="st2" d="M1456.94604,513.75995c0,0-19.80054,31.5329-20.90479,51.40845"/>
	<path class="st2" d="M1474.05872,491.48788c0,0,19.84436,22.58127-1.3573,59.45334"/>
	<path class="st2" d="M1482.48962,493.81055c0,0,17.79858,4.55051,17.0332,71.35785"/>
	<path class="st2" d="M1490.32922,502.47382c0,0,5.2688,12.37842,14.41382,20.97272
		c9.14514,8.59436,22.40527,18.19293,22.40527,18.19293"/>
	<path class="st2" d="M1459.95337,514.67188c0,0-4.12231,19.20679-7.55884,31.43396"/>
	<path class="st2" d="M1464.28796,519.63702c0,0,1.17798,15.12256-2.04614,25.88043"/>
	<g>
		<path class="st3" d="M1449.19763,490.17401c4.01721,3.17981,8.95251,5.68448,14.02576,6.4003
			c2.93665,0.41437,6.15601,0.30725,8.55481-1.43677c2.3988-1.74399,3.40515-5.57797,1.38049-7.74509
			c-0.97595-1.04453-2.40723-1.50656-3.77295-1.92868c-2.51929-0.77869-5.0387-1.55737-7.55811-2.33609
			c-1.33862-0.41373-2.67871-0.82797-3.98303-1.33966c-3.18347-1.24884-6.13794-2.45322-8.67383-4.74747"/>
		<path class="st16" d="M1449.19763,490.17401c2.01758,1.45151,4.14282,2.74631,6.39929,3.74777
			c2.24011,1.02576,4.59863,1.79575,7.0155,2.16638c2.40222,0.3497,4.91467,0.44983,7.13867-0.38379
			c1.1001-0.42374,2.10583-1.06665,2.79529-1.97849c0.68848-0.91199,1.1394-2.03415,1.1853-3.16321
			c0.07983-1.12714-0.28381-2.24652-1.08582-3.00696c-0.80542-0.77203-1.94519-1.19641-3.10974-1.56729
			c-2.36243-0.75754-4.74414-1.47522-7.09961-2.26553c-1.17847-0.38998-2.3656-0.76944-3.54065-1.20468
			c-1.17871-0.43921-2.31543-0.93335-3.46082-1.43301c-2.26099-1.04016-4.49829-2.27576-6.26428-4.04465
			c1.92029,1.5918,4.15125,2.70459,6.45972,3.58322c1.14978,0.4509,2.31213,0.90323,3.47717,1.28955
			c1.17053,0.38547,2.36426,0.71945,3.55847,1.0665c2.39209,0.67767,4.75867,1.42578,7.14319,2.13797
			c1.18677,0.36838,2.46985,0.79453,3.49536,1.7428c0.49243,0.48294,0.9071,1.07233,1.14221,1.729
			c0.23193,0.65591,0.31897,1.34976,0.2804,2.02646c-0.07703,1.35892-0.61426,2.63885-1.42993,3.69482
			c-0.83191,1.06946-2.01404,1.7959-3.22937,2.24329c-2.48206,0.87723-5.12378,0.76065-7.58508,0.2858
			C1457.50635,495.88043,1452.96887,493.39847,1449.19763,490.17401z"/>
	</g>
	<g>
		<path class="st16" d="M1466.33423,488.12238c-1.00391,0.40201-1.80212,0.80927-2.54907,1.36047
			c-0.75354,0.54242-1.38635,1.17477-2.08057,2.00504c-0.06482-1.10785,0.60425-2.16354,1.49292-2.81342
			C1464.09119,488.03156,1465.30042,487.72116,1466.33423,488.12238z"/>
	</g>
	<path class="st20" d="M1464.73914,514.99518c-1.63281,0.37006-3.09131,2.47845-2.25293,4.11975
		c0.30493,0.59711,0.9353,0.95154,1.48096,1.29657c1.68689,1.06671,3.1001,2.47064,5.07483,3.03503"/>
	<g>
		<path class="st16" d="M1452.39453,502.85669c-0.42017,1.33322-1.39026,2.43637-1.80103,3.6976
			c-0.10034,0.30676-0.18384,0.62183-0.15002,0.90457c0.02625,0.27094,0.15564,0.54181,0.34509,0.79749
			c0.39148,0.51587,0.87122,1.03226,1.3396,1.51041c1.90295,1.9126,4.19592,3.47653,6.7666,4.16183
			c1.2738,0.3645,2.60974,0.4447,3.98523,0.47266c1.37256,0.03851,2.79297,0.07367,4.172,0.27606
			c1.38464,0.18042,2.75391,0.42944,4.11145,0.71588c1.35156,0.32013,2.698,0.6394,4.03113,1.02252l-4.11536-0.53961
			c-1.36633-0.18713-2.73376-0.34833-4.10168-0.43323c-1.37231-0.08673-2.7196-0.1153-4.11133-0.09485
			c-1.38452,0.00098-2.83545-0.07281-4.23303-0.45483c-2.78796-0.77026-5.21667-2.48273-7.06567-4.60501
			c-0.46289-0.5419-0.89648-1.06873-1.30212-1.68274c-0.19971-0.31296-0.36865-0.69193-0.38171-1.11615
			c-0.01257-0.41309,0.11243-0.7782,0.25598-1.1123C1450.76172,505.05759,1451.77124,504.09665,1452.39453,502.85669z"/>
	</g>
	<path class="st17" d="M1453.77588,506.25839c-0.06299,1.00772-0.12598,2.01547-0.18896,3.02319"/>
</g>
<g id="Calque_2">
	<polygon class="st5" points="775.47632,657.23572 771.70703,658.84662 769.26776,656.90765 768.66071,653.14514 
		769.89319,651.21594 771.71478,651.21594 772.77032,652.15411 	"/>
	<path class="st21" d="M383.37341,367.40463c0,0,5.15518,11.08029,10.76965,13.10416l3.74451,6.69873l-1.12198,6.73181
		l-6.1351,5.04944l-4.56064,6.80835l-8.50003,10.62308c0,0-8.21469-8.50385-14.0383-17.43143
		C357.70792,390.06122,383.37341,367.40463,383.37341,367.40463z"/>
	<path class="st22" d="M361.99362,372.49066c0,0,4.35916-6.32199,10.07117-0.91061
		c5.71201,5.41135,10.22147,17.69736,15.48254,20.04721"/>
	<path class="st23" d="M410.80777,362.33743c0,0,13.37778-8.03845,28.8848-2.73859"/>
	<path class="st23" d="M383.08691,375.38928c0,0,10.79825,0.81415,19.68311-7.98465"/>
	<path class="st19" d="M720.37701,995.44202c0,0-3.09833,3.81335-7.15009,14.30011
		c-4.0517,10.48682-5.24335,17.3985-5.24335,17.3985l3.81335,12.87024l8.58008,11.91675l11.91681,6.43506h23.11859l10.9635-5.005
		v-10.17737v-7.45947l-0.95337-7.56934l-16.92188-21.03101l-10.01007-6.91174L720.37701,995.44202z"/>
	<path class="st19" d="M583.85388,1062.43677c0.48993,0.9834,0.99597,1.98877,1.79547,2.74231
		c0.677,0.63794,1.52777,1.05896,2.38733,1.41455c8.06482,3.33643,17.53284,1.43579,25.11932-2.87927
		c3.47729-1.97778,6.73077-4.49402,8.98163-7.80115c2.25079-3.30725,3.4137-7.48242,2.55121-11.38879
		c-0.5498-2.49023-1.86731-4.73242-3.16577-6.92725c-2.52472-4.2677-5.04944-8.53552-7.57416-12.80322
		c-0.74744-1.26343-1.70844-2.66882-3.17023-2.80273c-1.00635-0.09216-1.94489,0.4649-2.80145,1.0011
		c-5.93073,3.71265-11.86731,7.46423-17.31055,11.8772c-2.67102,2.16541-5.21863,4.4906-7.53809,7.03149
		c-1.16528,1.27649-2.27234,2.60657-3.3053,3.99243c-0.72302,0.96997-2.62,2.86743-2.17261,4.13892
		c0.34436,0.97876,0.99011,1.94128,1.45447,2.87329c0.52094,1.04553,1.04193,2.09119,1.56287,3.13684
		C581.72998,1058.17395,582.79193,1060.3053,583.85388,1062.43677z"/>
	<polygon class="st24" points="405.43399,361.47562 374.47269,413.66724 426.06625,657.23572 461.91769,573.38098 	"/>
	<path class="st5" d="M552.21375,648.8634c-2.08875,9.72357-6.1153,18.9043-10.03558,28.04443
		c-9.16479,21.36768-17.88397,42.92645-26.14984,64.65759c-7.64987,20.11163-14.62433,39.78931-22.79367,59.69556
		c-5.2738,12.85065-10.3154,26.21924-11.26581,40.20465c-0.20114,2.96014,0.20898,5.99841-0.22427,8.93304
		c-0.11572,0.78387-0.30591,1.54218-0.28644,2.34076c0.06326,2.59808,1.13742,5.36713,1.8035,7.86407
		c0.73544,2.75714,1.51532,5.50244,2.33542,8.2356c3.28339,10.9425,7.20999,21.68353,11.517,32.26221
		c4.31961,10.60962,9.02219,21.05878,13.86874,31.43677c2.05878,4.40851,4.14398,8.80463,6.2381,13.19653
		c1.45789,3.05762,2.98816,6.08038,4.57886,9.07098c0.99487,1.87036,2.29211,3.73248,2.99274,5.72144
		c0.45386,1.28864,1.09601,2.51965,1.68573,3.75903c1.26831,2.66553,2.54926,5.32507,3.84277,7.97845
		c2.58704,5.30682,5.22443,10.58911,7.91174,15.84589c3.36884,6.59009,6.8161,13.1402,10.34076,19.64832
		c1.84821,3.41272,4.09729,6.73859,5.52722,10.33929c0.99628,2.50879,2.00049,5.01465,3.04559,7.50354
		c2.08459,4.96423,4.33221,9.87073,6.99237,14.55603c1.85388,3.26538,3.90869,6.42053,6.22418,9.37854
		c7.11517,0.02271,14.32758-0.2572,21.44275-0.2345c2.28516,0.00732,4.59003,0.0127,6.82733-0.45251
		c3.10297-0.64514,5.95422-2.17139,8.60547-3.90771c8.31006-5.44263,15.10461-13.17383,19.43481-22.11401
		c-4.24438-13.91431-14.87854-25.88092-19.95343-39.51434c-5.16296-13.86981-9.04352-26.45135-12.93756-40.72949
		c-3.81512-13.98871-8.63129-27.67987-12.50446-41.65173c-0.92712-3.3446-1.80042-6.70447-2.59052-10.08417
		c-0.28143-1.2041-0.38147-2.52905-0.87921-3.65314c-0.55872-1.2616-1.24213-2.47498-1.81732-3.73145
		c-2.30359-5.03168-4.12775-10.28259-5.44269-15.65796c-0.789-3.22522-1.39465-6.49536-1.81049-9.78955
		c-0.11902-0.94293-0.2179-1.93011,0.11816-2.81915c0.34491-0.91235,1.09979-1.59668,1.8197-2.25476
		c8.82489-8.06635,16.21979-17.66443,21.72662-28.26465c1.21021-2.32947,3.39166-4.414,5.02881-6.49542
		c3.60895-4.58832,7.10168-9.26691,10.52887-13.99219c4.18292-5.76727,8.26807-11.60455,12.35291-17.44147
		c3.75531-5.36615,7.19629-10.97192,11.43268-15.93945c1.81268-2.12549,3.5791-4.29041,5.29773-6.49255
		c3.43726-4.40436,6.68341-8.95789,9.72595-13.64368c1.18658-1.82745,2.34216-3.67499,3.46606-5.54163
		c2.88672-4.79443,5.60034-9.76324,9.4068-13.86572c3.75104-4.04266,8.6778-7.44757,10.29785-12.71912
		c-0.06738,0.21924,0.29993,1.42407,0.33008,1.56372c0.17126,0.7926,0.34918,1.58374,0.53296,2.37354
		c0.36432,1.56531,0.75238,3.12506,1.16254,4.67902c0.88574,3.35565,1.87494,6.68365,2.9505,9.98328
		c2.06689,6.34064,4.45264,12.57379,7.03491,18.72137c2.59375,6.17505,5.38574,12.26483,8.26086,18.31335
		c1.00549,2.1153,1.89062,4.11584,3.26135,5.97058c0.72083,0.9754,1.07367,2.28223,1.53815,3.39386
		c0.52686,1.26093,1.05994,2.51929,1.59839,3.77533c1.07703,2.51233,2.17578,5.01538,3.28986,7.51154
		c4.45801,9.98853,9.16138,19.86475,13.72021,29.80713c4.55444,9.93286,8.96808,19.93866,12.83527,30.16211
		c0.64587,1.70758,1.11066,2.61072,1.11237,4.39105c0.0014,1.44189,0.00275,2.88385,0.00415,4.32581
		c0.00275,2.88385,0.00549,5.7677,0.00824,8.65161c0.00549,5.7677,0.01099,11.53546,0.01648,17.30322
		c0.00421,4.37451,0.00836,8.74902,0.01257,13.1236c0.00208,2.18457-0.05939,4.37976,0.00598,6.56323
		c0.0213,0.71252,0.26025,1.32697,0.33807,2.02429c0.25201,2.25867-0.09454,4.74744-0.17639,7.01813
		c-0.06842,1.89868,0.22186,3.94122-0.34851,5.78784c-0.23505,0.76093-0.44037,1.43109-0.47046,2.23956
		c-0.09277,2.49316-0.07123,4.99005-0.17828,7.48413c-0.21436,4.99182-0.62079,9.97534-1.21777,14.93591
		c-0.50824,4.22302-1.15454,8.4295-1.93793,12.61029c-0.38708,2.06573-0.80762,4.12531-1.26147,6.17743
		c-0.19263,0.87091-0.44196,1.69464-0.70026,2.5332c-0.71423,2.31897-0.91589,4.91492-1.42743,7.29425
		c-0.56006,2.60468-1.17407,5.19775-1.84167,7.77692c-0.38464,1.48621-0.70197,2.9516-1.3609,4.32928
		c-0.27911,0.58356-0.52069,1.185-0.72681,1.79803c-0.41284,1.22809-0.68024,2.50275-0.82385,3.78973
		c-0.29034,2.60199-0.08051,5.25037,0.47723,7.80328c1.0307,4.71753,3.1618,9.11084,5.27472,13.45282
		c3.49738,7.18689,7.00232,14.38757,11.19537,21.19202c6.15997,2.73938,12.15637-0.14392,18.66681-1.89441
		c2.47211-0.66467,5.00171-1.35583,7.09314-2.83203c2.10315-1.4845,3.60889-3.65576,4.97894-5.83521
		c8.30072-13.20496,12.5929-28.19965,16.70386-43.10388c1.15466-4.18628,2.25696-8.38708,3.30658-12.60101
		c3.51416-14.1084,8.96442-26.43872,12.81543-40.45898c0.76379-2.78082,1.5274-5.56195,2.23572-8.3576
		c0.4137-1.63257,1.03156-3.3479,1.1438-5.03888c0.04919-0.74072-0.08466-1.43451,0.0838-2.17181
		c0.54694-2.39429,1.46674-4.75568,2.17938-7.10736c1.44641-4.77319,2.84558-9.56067,4.1972-14.36151
		c2.70331-9.60168,5.21661-19.2569,7.53784-28.95807c0.41785-1.74622,0.82947-3.4939,1.2348-5.24304
		c3.00751-12.97729,4.06342-26.35406,0.97925-39.31335c-3.08411-12.95917-8.24677-25.34192-11.53815-38.25006
		c-2.15491-8.45093-4.1228-16.948-6.26019-25.40326c-1.04846-4.14758-2.14026-8.28448-3.31659-12.39777
		c-0.86829-3.03607-1.52832-6.38916-2.86713-9.2583c-0.47913-1.02679-1.26166-1.8363-1.67004-2.90564
		c-0.65796-1.72296-1.05328-3.59235-1.54877-5.36816c-2.02679-7.26337-3.89453-14.57111-5.60168-21.91614
		c-2.85095-12.26624-5.25415-24.6366-7.20209-37.07819c-1.02478-6.54523-2.40613-14.29449-5.60663-20.09503
		c-1.12244-2.03442-2.95386-4.21399-5.25446-3.88843c-31.92792-14.67871-68.42108-18.98352-103.4458-21.83502
		c-29.02155-2.36279-58.95715-4.52417-86.61688,4.57404c-4.91937,1.61816-9.74042,3.59064-14.21558,6.19684
		C554.85895,635.75464,549.74573,642.8941,552.21375,648.8634z"/>
	<path class="st25" d="M816.11346,821.64795c-3.64539,1.46094-7.11682,3.35541-10.31769,5.63074
		c-1.10394,0.78473-2.27551,1.79669-2.32465,3.15021c-0.02094,0.57642,0.17255,1.14014,0.19867,1.71631
		c0.07007,1.5448-1.03381,2.86481-2.07159,4.01123c0.28943,2.57581-0.24774,4.20227,1.17676,6.36774
		c0.78473,1.19293,2.1087,1.90631,3.10968,2.9245c1.58679,1.61395,2.45959,4.06775,4.55511,4.9231
		c1.172,0.47833,2.49268,0.33899,3.74994,0.19171c1.54095-0.18048,3.08197-0.36096,4.62292-0.5415
		c1.32104-0.15472,3.01746-0.71228,2.98346-2.04193c-0.24872-9.72321,7.34894-17.05402,11.6012-25.80157
		c1.10968-2.28284,2.07617-5.38971,0.15295-7.04614c-1.21039-1.04248-3.08746-0.90497-4.51282-0.18372
		c-1.42535,0.72119-2.54272,1.91412-3.76099,2.94733C823.18372,819.67084,818.66058,820.6272,816.11346,821.64795z"/>
	<path class="st12" d="M750.39691,496.42276c3.11487,19.4567,7.59454,38.69479,13.39514,57.52609
		c6.08691,19.76074,11.98187,37.89795,16.82361,58.00006c0.47528,1.97333,1.28845,4.1944,1.10645,6.27203
		c-0.05353,0.61084-0.20044,1.19843-0.19128,1.81622c0.0318,2.14624,0.61633,4.38324,0.94379,6.50305
		c0.69318,4.487,1.38629,8.97394,2.07941,13.46094l2.15479,13.94873c0.19672,1.27313,0.24316,2.56055,0.31036,3.84698
		c0.00763,0.14526,0.02307,0.29224,0.05072,0.44196c0.40533,2.19897,0.92169,4.38409,1.39343,6.5697
		c0.9444,4.37592,1.92017,8.74506,2.92712,13.10706c1.36035,5.89252,2.77771,11.77185,4.25183,17.63696
		c0.38824,1.54468,0.61896,3.12024,0.91974,4.68433c0.00098,0.00507,0.00195,0.01019,0.00299,0.01538
		c0.42987,2.16296,0.96802,4.30499,1.39246,6.47046c0.84869,4.32977,1.53839,8.69073,2.06793,13.07098
		c0.64417,5.32843,1.05145,10.68549,1.21967,16.05005c0.08417,2.68591,0.10864,5.37372,0.07245,8.06067
		c-0.00977,0.72534,0.10132,1.53265-0.22052,2.20892c-0.7439,1.56329-1.66467,3.12421-2.54596,4.62048
		c-1.90009,3.22626-4.12994,6.25781-6.64008,9.03589c-2.71082,3.00012-5.74927,5.7052-9.05157,8.03912
		c-0.66577,0.47058-1.35498,0.9386-1.84174,1.59265c-0.76233,1.02417-0.92822,2.35797-1.10175,3.62286
		c-1.34943,9.83832-4.68427,19.40015-9.74591,27.94385c1.45148,8.60522,2.14679,18.75189,0.17883,27.25385
		c-0.56171,2.42651-1.40363,4.86432-1.15234,7.34229s2.03918,5.04352,4.52844,5.12744
		c0.95172,0.0321,1.88306-0.29919,2.7229-0.74805c3.41614-1.82574,5.43622-5.42535,7.27203-8.83606
		c3.81415-7.08624,10.49884-36.18738,17.87836-39.3974c2.89282-1.25842,9.37921,25.70355,12.23053,27.05328
		c1.30054,0.61566-4.64441,5.13428-3.8501,6.33405c2.07269,3.13062,3.04156,5.45752,4.79163,10.41687
		c2.48981,7.05603,6.15289,12.00049,9.05652,18.89648c0.63568,1.50977,2.04883,4.12573,3.9137,4.43005
		c0.24689,0.04028,0.50146-0.01422,0.73511-0.10364c1.14484-0.43793,2.25183-0.97479,3.30664-1.59912
		c1.76349-1.04382,3.38159-2.33398,4.78674-3.82587c0.16498-0.17511,0.33173-0.36096,0.40326-0.5907
		c0.10712-0.34424,0.29358-1.11267,0.27643-1.47284c-0.11194-2.35126-0.16241-3.67352-0.22388-5.54224
		c3.2478,0.18793,4.53918,5.11963,7.72595,5.77405c1.01569,0.20856,2.08197,0.08795,3.07336-0.19666
		c1.83344-0.52643,3.46179-1.67224,4.57184-3.22351c2.53583-3.5437,1.61035-7.61536,0.68225-11.40808
		c3.44421-1.34143,6.70258-2.8736,9.75482-4.95825c0.28503-0.1947,0.57452-0.39886,0.7691-0.68402
		c0.54126-0.79321,0.17322-1.86383-0.20831-2.74512c0.41254-0.17249,0.85919-0.28943,1.31421-0.39264
		c1.34814-0.30579,2.31677-1.4657,2.40234-2.84552c0.11847-1.90991,0.13141-3.82635,0.03845-5.73767
		c-0.31458-6.47247-0.15497-12.97296-1.26117-19.35797c-3.00427-17.3399-16.1358-29.72198-22.1319-46.26721
		c-2.29773-6.34033-3.05487-12.70715-3.76788-19.4751c-0.45233-4.29358-0.55774-8.61499-0.48584-12.9317
		c0.05115-3.07019-0.1825-6.24152,0.00568-9.33313c0.0213-0.34985,0.09851-0.69171,0.18048-1.03247
		c0.19672-0.81836,0.1853-1.51886,0.12299-2.36945c-0.16937-2.3111-0.32513-4.62323-0.4679-6.93616
		c-0.28558-4.62585-0.51849-9.25494-0.69867-13.88611c-0.35425-9.10626-0.50458-18.22046-0.45068-27.33344
		c0.07233-12.23138-0.32715-24.45557-1.04803-36.66595c-0.72351-12.25421,0.70471-27.69019-3.87909-39.67609
		c-0.86835-2.27069-2.06757-4.41083-2.91663-6.6825c-0.16119-0.4314-5.32684-38.74988-6.29236-44.12183
		c-0.80804-4.49542-1.87958-8.94818-3.32788-13.28204c-2.92139-8.74207-4.36688-19.87454-5.62891-29.005
		c-1.15125-8.3291-2.02667-17.4122-7.80042-23.52475c-5.25391-5.56216-14.63947-6.21387-21.44751-6.0351
		c-3.25806,0.08554-6.49353,0.49301-9.7049,1.04932c-4.79095,0.82993-10.39099,1.1666-14.29645,4.39578
		c-2.89771,2.3959-4.42297,6.02884-5.78296,9.53415C753.67206,482.52988,749.34949,489.88,750.39691,496.42276z"/>
	<path class="st12" d="M592.78424,289.90616c1.67065,10.42297,3.03015,21.21432,2.08917,31.73459
		c-13.45148,11.22943-22.8819,27.90723-21.82184,45.90292c15.35828,50.7724,115.56879,22.17749,140.43091-8.98364
		c5.27307-5.15414,10.40973-13.39499,6.26587-20.60419c-16.79187-18.34805-47.54462,13.42624-52.16046-57.27267
		c-0.14172-1.86237,0.66357-8.90393-1.90057-8.30264c-9.8241,4.61508-20.3512,7.99655-29.8772,13.42352
		c-4.46313,2.35773-9.05609,4.93948-14.09998,5.13449C612.09143,290.36832,602.31696,285.35526,592.78424,289.90616z"/>
	<path class="st12" d="M561.37646,238.39793c-0.2782,4.2422,2.31134,8.09213,3.31464,12.22337
		c0.7962,3.27864,0.60376,6.81021,1.96027,9.89944c1.03528,2.35785,3.02777,4.34665,5.49591,5.08112
		c2.4682,0.73447,5.37463,0.07178,7.07062-1.86597c1.35071-1.54327,1.83099-3.67447,1.89856-5.72424
		c0.23944-7.26299-3.99902-13.82901-5.94714-20.82994c-0.4931-1.77202-0.86005-3.62897-1.87939-5.15999
		c-0.6405-0.96194-1.60846-1.76509-2.72314-2.10468c-1.13617-0.34613-2.2049,0.00444-3.26636,0.43102
		c-2.08368,0.83739-3.82782,2.46135-4.87781,4.43962C561.83093,235.90248,561.45917,237.1367,561.37646,238.39793z"/>
	<path class="st12" d="M679.48828,221.61125c2.82196,1.86574,3.51392,5.66302,3.70807,9.04041
		c0.14581,2.53613,0.15417,5.08015,0.02502,7.61717c-0.1416,2.78233-0.48761,5.67235-1.99426,8.0157
		c-1.19031,1.8513-3.00244,3.19905-4.77429,4.50467c-1.85779,1.36891-3.71552,2.73782-5.5733,4.10674
		c-0.85547,0.63037-1.92841,1.29236-2.90894,0.88277c-0.81696-0.34128-1.17743-1.27866-1.45282-2.12012
		c-1.49048-4.55385-2.99292-9.16817-3.29224-13.95039s0.73285-9.83043,3.81573-13.49857
		c0.73499-0.87456,1.56812-1.65855,2.34717-2.49249c0.68323-0.73131,1.21527-1.55327,1.84845-2.31982
		c1.05426-1.27632,3.43854-1.04729,4.91272-0.89694C677.32904,220.62065,678.49249,220.9529,679.48828,221.61125z"/>
	<path class="st4" d="M517.27252,338.86868c-17.12482,12.78516-28.55853,32.11697-45.96683,44.51337
		c2.97446,5.70627,5.95047,11.41565,8.62299,17.26941c4.54849,9.9628,8.20599,20.30157,12.66489,30.30286
		c2.21793,4.97482,4.63651,9.86896,7.44565,14.53912c0.54794,0.91089,1.2511,2.74115,2.56631,2.8837
		c0.83685,0.09073,1.74493-0.4425,2.48334-0.75577c1.07626-0.45657,2.1478-0.92468,3.20673-1.42032
		c2.45599-1.1496,4.66632-2.85675,7.16797-3.84677c0.98297-0.38901,1.78412-1.09955,2.62518-1.72937
		c1.99738-1.49567,3.98621-3.00275,5.96631-4.52115c3.96027-3.0368,7.8858-6.1189,11.77557-9.24545
		c0.3501-0.28137,0.69989-0.56314,1.04938-0.84525c0.18097,11.50867,0.534,22.95062,1.11017,34.44626
		c0.73291,14.62201,2.64813,29.14368,4.19,43.69318c0.37714,3.55887,0.73151,7.12024,1.03992,10.68576
		c0.3136,3.62518,0.26318,7.38885,0.78394,10.98358c0.14478,0.99957,0.58026,1.88031,0.70599,2.89941
		c0.71344,5.78131,1.38159,11.56555,2.27661,17.32275c1.33783,8.60522,3.11469,17.16882,5.89093,25.43463
		c2.63257,7.83801,6.20367,15.67474,5.86115,23.93591c-0.23468,5.66144-2.35577,11.91736-5.85651,16.42175
		c-0.5224,0.67218-1.23499,1.14374-1.6236,1.91541c-1.25171,2.48578-1.867,5.552-2.64124,8.21881
		c-1.62891,5.61041-2.97089,11.30414-4.01886,17.05145c-0.41919,2.29895-0.79126,4.60645-1.11591,6.92059
		c-0.30377,2.16577-0.49146,4.61395,0.9035,6.29828c1.45624,1.75836,4.07257,1.9895,5.91644,3.33582
		c0.41644-5.17578,1.00696-10.76788,4.52026-14.59137c2.04681-2.22748,4.90405-3.59338,7.85309-4.26727
		c11.47223-2.62152,22.4447-5.38635,34.20618-5.77698c4.40765-0.14636,8.84875-0.06494,13.18079,0.76147
		c4.54999,0.86804,8.8996,2.54108,13.32501,3.90906c9.96387,3.08002,20.2514,4.38556,30.52881,5.79449
		c2.47125,0.33881,5.13373,0.18311,7.62384,0.16345c5.0863-0.04016,10.17023-0.37842,15.21686-1.01343
		c0.15143-0.01904,0.3028-0.03839,0.4541-0.05798c3.92664-0.50818,7.86981-1.19745,11.81995-0.92621
		c2.11707,0.14539,4.2019,0.56622,6.26263,1.05634c0.9198,0.21875,1.83582,0.45276,2.75281,0.6828
		c0.88605,0.22229,2.08051,0.29321,2.89624,0.69244c0.49902,0.24426,0.82507,0.77435,1.26776,1.15369
		c0.96655,0.82819,2.15442,1.34094,3.37933,1.65173c2.65521,0.67358,5.46063,0.49854,8.17102,0.40735
		c8.22339-0.27667,16.38788,1.27246,24.45862,2.87354c10.33447,2.05023,20.67731,4.20111,31.17291,5.12183
		c1.36896,0.12012,1.81116,0.83057,3.08466,1.34711c1.2735,0.51648,2.44885,1.4176,2.9989,2.677
		c-0.37079-7.60999-2.63129-15.12085-6.52234-21.67133c-5.54004-9.3266-5.16095-19.46515-7.99005-29.93762
		c-1.48706-5.50464-3.90143-12.09943-4.40546-17.77905c-0.32178-3.62598-0.31024-7.28583-0.88153-10.88104
		c-0.29681-1.86823-0.87823-3.58203-1.43738-5.3764c-0.10498-0.33704-0.16962-0.66486-0.20886-1.01483
		c-0.09344-0.83221-0.3078-1.54828-0.59454-2.33923c-0.75031-2.06915-1.50049-4.13831-2.25073-6.20752
		c-2.56805-7.08282-5.16815-14.33521-5.23535-21.86896c-0.0769-8.61658-2.06378-17.16754-1.01672-25.72058
		c0.62115-5.07394,1.77991-10.21744,0.83197-15.24057c5.31561-1.91751,49.21173-15.9751,58.02087-17.36755
		c5.08051-0.80307,10.37488-1.95782,14.25787-5.33112c0.1358-0.11792-0.60095-2.01413-0.67792-2.25381
		c-0.28729-0.89551-0.59314-1.785-0.91229-2.66962c-0.69147-1.91666-1.44617-3.80966-2.21576-5.69604
		c-1.4754-3.61627-3.01074-7.21286-4.26385-10.91452c-0.67737-2.00104-1.22412-4.05304-1.88037-6.04449
		c-0.26392-0.8009-0.51935-1.60477-0.77521-2.40829c-0.51172-1.60718-1.01324-3.21759-1.50458-4.83109
		c-0.9826-3.22705-1.92432-6.46655-2.82489-9.71744c-1.3869-5.00638-2.67615-10.03979-3.86676-15.09644
		c-0.94263-4.00381-1.83002-8.04333-3.37488-11.8555c-0.57983-1.43091-1.37921-2.70926-1.7323-4.20316
		c-0.17096-0.72333-0.34253-1.4465-0.51556-2.16931c-0.34698-1.4498-0.69965-2.89825-1.06427-4.34375
		c-0.72968-2.89273-1.50677-5.77435-2.38135-8.62692c-1.73083-5.64539-3.85028-11.19952-6.73212-16.3652
		c-0.73297-1.31387-1.81976-2.57742-2.30945-4.01108c-0.15198-0.44507-0.24591-0.88217-0.45746-1.30838
		c-0.58563-1.17957-1.16833-2.34573-1.68951-3.55701c-1.00952-2.34619-1.99933-4.77075-3.71686-6.70419
		c-3.12286-3.51544-7.987-4.75943-12.38989-5.83865c-1.70276-0.41739-3.40137-0.85168-5.09546-1.30273
		c-3.38824-0.90216-6.75861-1.87143-10.10846-2.90695c-6.69977-2.07104-13.31769-4.40695-19.83313-7.00031
		c-6.51538-2.59335-12.92834-5.44415-19.21814-8.54495c-0.0943-0.04651-0.18866-0.09308-0.2829-0.13971
		c-0.77667-0.38403-1.59155-0.78125-2.45764-0.75897c-2.35779,0.06064-3.4447,2.87869-4.11285,5.14062
		c-1.00073,3.38791-2.39282,6.65869-4.12885,9.73492c-1.09271,1.93631-2.40454,3.73407-3.75995,5.49243
		c-0.45703,0.59286-0.86597,1.2132-1.47174,1.65897c-0.69031,0.50797-1.24536,1.0419-1.84515,1.66269
		c-1.4303,1.48035-2.96204,2.86023-4.55658,4.1611c-3.20953,2.61835-6.66626,4.91333-10.15753,7.13458
		c-0.87317,0.55554-1.74927,1.10657-2.62549,1.65738c-9.48956,5.96524-19.08508,11.9819-29.68219,15.63412
		c-5.87476,2.02466-12.06995,3.32986-17.46088,6.42017c-0.40149,0.23016-0.81396,0.47534-1.27429,0.52301
		c-0.6698,0.0694-1.3006-0.28815-1.88617-0.62091c-5.37653-3.05545-11.34778-5.24112-17.13928-7.35846
		c-1.14478-0.41855-11.76129-6.42014-13.04645-7.77817c-2.56384-2.7092-4.74304-5.78635-6.42126-9.11853
		c-1.6897-3.35495-2.86865-6.97153-3.40906-10.6915c-1.4079-9.69208,2.14258-19.60413,9.05023-26.54703
		c-4.42194,1.75107-8.02759,5.39322-12.25891,7.56473c-1.4574,0.74792-3.02661,1.25003-4.59637,1.71808
		c-7.12207,2.12354-14.43219,3.61606-21.81665,4.45435c-10.20306,1.15823-20.29852,1.62247-30.06427-1.55148
		c-0.78339-0.25464-1.57874-0.53815-2.4024-0.52411C518.62347,336.03366,518.93427,337.62802,517.27252,338.86868z"/>
	<g class="st26">
		<path class="st5" d="M697.50909,422.75052c1.34259,1.43143,2.92346,2.60623,4.59186,3.61215
			c0.83661,0.4975,1.70038,0.96585,2.57239,1.38391c0.87592,0.40482,1.81671,0.71429,2.69525,1.2276
			c0.43188,0.24582,0.87146,0.58752,1.1839,1.00085c0.32068,0.40195,0.57373,0.81833,0.87616,1.16873
			c0.63171,0.74167,1.28571,1.46646,1.94525,2.18997c1.32312,1.43716,2.64545,2.91687,3.86578,4.45483
			c4.93878,6.12665,9.14581,12.81039,12.91919,19.70032c3.70575,6.93259,6.9657,14.08884,9.9129,21.35959
			c2.9447,7.2738,5.62433,14.64346,8.18744,22.05222l-4.4032-10.90152c-1.45935-3.63562-2.94562-7.25943-4.49426-10.85483
			c-3.08722-7.19269-6.32758-14.32327-10.0816-21.18054c-3.68054-6.89319-7.86749-13.51712-12.64178-19.70117
			c-1.18066-1.56058-2.43762-3.03412-3.73444-4.5108c-0.64343-0.73972-1.28522-1.48508-1.90656-2.24985
			c-0.32794-0.40131-0.57605-0.83243-0.85925-1.20218c-0.27258-0.379-0.61896-0.65033-1.02423-0.91016
			C703.65503,427.74634,700.03467,425.77158,697.50909,422.75052z"/>
	</g>
	<g class="st26">
		<path class="st5" d="M601.72327,491.5517c1.67651,4.29709,4.09766,8.25824,7.01715,11.79294
			c2.93188,3.53067,6.28442,6.68845,9.81311,9.62204c7.0882,5.83899,14.76953,10.96857,22.03082,16.66949
			c7.25671,5.69696,14.31232,11.67194,20.91516,18.12616c6.61041,6.44141,12.75909,13.36823,18.21161,20.80182
			c-2.8949-3.58618-5.88855-7.0863-9.03284-10.4469c-3.11749-3.38391-6.35675-6.6543-9.71191-9.80048
			c-6.68817-6.31519-13.71045-12.27246-20.99622-17.89294c-3.61761-2.84485-7.29449-5.60547-11.00446-8.34094
			c-3.69482-2.75336-7.40961-5.5036-10.90631-8.53131c-3.4928-3.02527-6.81866-6.27386-9.69891-9.90173
			C605.54388,499.98254,603.18817,495.92838,601.72327,491.5517z"/>
	</g>
	<g class="st26">
		<path class="st5" d="M616.71497,566.23633c3.99341,2.29987,7.90057,4.74231,11.76782,7.24646
			c3.86884,2.50238,7.65631,5.12701,11.43909,7.75751c3.73596,2.69653,7.46436,5.40448,11.10797,8.22461l5.42621,4.27905
			c1.77594,1.4682,3.56512,2.91815,5.30627,4.42773l-11.19269-8.09045c-3.73358-2.68842-7.45044-5.39789-11.22546-8.02612
			c-3.72815-2.69421-7.51733-5.30164-11.28864-7.93689L616.71497,566.23633z"/>
	</g>
	<g>
		<path class="st4" d="M666.82233,650.59564c0.66119,3.56427,1.14447,7.15735,1.54108,10.76007
			c0.40802,3.60217,0.66772,7.21954,0.85669,10.83966c0.16522,3.6214,0.25806,7.24689,0.203,10.87164
			c-0.03186,1.81226-0.07483,3.62372-0.13904,5.4342c-0.10345,1.80994-0.18719,3.61914-0.35034,5.42474l-0.27979-10.85144
			c-0.1261-3.61249-0.24506-7.22284-0.43207-10.83051c-0.16327-3.60883-0.3963-7.21362-0.62122-10.82129L666.82233,650.59564z"/>
	</g>
	<g>
		<path class="st4" d="M679.83008,651.26715c1.27728,3.11218,2.12958,6.40204,2.63403,9.74469
			c0.5166,3.34338,0.62598,6.74866,0.40851,10.12811c-0.24084,3.37799-0.81079,6.737-1.77466,9.97998l-0.78265,2.41064
			l-0.90228,2.36499l-1.05743,2.29657c-0.38702,0.74841-0.78461,1.49011-1.18878,2.22552
			c0.30743-0.78375,0.62146-1.5611,0.94598-2.33179l0.84174-2.36377l0.75958-2.38519l0.64093-2.41632
			c0.7749-3.23865,1.30585-6.53137,1.52051-9.84845c0.23785-3.31561,0.15735-6.6499-0.17102-9.96387
			C681.36426,657.79401,680.71521,654.50824,679.83008,651.26715z"/>
	</g>
	<g>
		<path class="st4" d="M569.29736,853.63275c-2.03552,2.74323-4.82501,4.91901-7.89331,6.46667
			c-3.07861,1.52679-6.49402,2.45227-9.91016,2.43109c3.31604-0.76819,6.48578-1.82477,9.46338-3.32507
			C563.9455,857.7265,566.69415,855.82544,569.29736,853.63275z"/>
	</g>
	<path class="st4" d="M647.37311,1041.22571c4.00012,4.69995,8.11322,9.60876,9.73242,15.56433
		c2.03748,7.49402-0.18036,15.42188-2.5415,22.82031c-1.35571,4.24817-2.76904,8.48999-4.59644,12.56274
		c-0.64001,1.42651-1.24445,2.98987-2.24182,4.22363c-0.83002,1.02686-1.38776,2.00623-2.00494,3.17944
		c-1.45544,2.76672-3.58765,5.09497-5.53925,7.51074c-1.33441,1.65186-2.61884,3.36682-3.56195,5.27783
		c-1.34967,2.73474-1.94745,5.76868-2.53174,8.76184c-1.65125,8.45923-3.30255,16.91846-4.95386,25.37781
		c-2.10071,10.76147-4.50653,22.13831-12.01782,30.1261c-2.19318,2.33228-4.86945,4.63745-7.80096,6.00452
		c-0.60461,0.28186-1.22839,0.46423-1.87811,0.60681c-1.67249,0.36682-3.10175,1.04846-4.67676,1.70142
		c-6.86218,2.84534-14.59912,2.71838-21.854,1.89844c-2.71893-0.30725-5.47723-0.72583-8.01904-1.78418
		c-1.04401-0.43469-2.31635-0.95984-3.02002-1.88477c-1.76721-2.323-3.98792-4.23022-5.58069-6.724
		c-2.67139-4.18237-4.04712-9.29041-3.2666-14.19141c1.40527-8.8241,9.93317-14.0531,16.42841-20.18921
		c11.72083-11.07263,24.41962-21.10962,37.90009-29.95605c5.77441-12.19324,11.60889-25.38269,17.3833-37.57581
		c2.96143-6.2533,5.93866-12.54895,7.72729-19.23279C641.92041,1049.84302,642.7262,1044.44397,647.37311,1041.22571z"/>
	<path class="st5" d="M581.78735,1058.65063c-0.2937,0.0636-0.60126,2.28735-0.68042,2.62488
		c-0.23047,0.98254-0.46075,1.96509-0.69098,2.94775c-0.46045,1.96521-0.92041,3.93054-1.37982,5.89587
		c-1.58044,6.76111-3.15503,13.52356-4.72363,20.28748c-0.46454,2.00281-0.68518,4.25769-1.5968,6.13635
		c-0.24823,0.51172-0.59009,0.96411-0.87567,1.45361c-0.9231,1.5824-1.23639,3.5282-1.69727,5.28174
		c-0.53802,2.04663-1.05371,4.09924-1.54712,6.15723c-1.97369,8.23169-3.59009,16.54895-4.84351,24.92065
		c-0.89618,5.98572-1.60681,11.99927-2.12976,18.02905c-0.54926,6.33337-0.76276,13.1969,2.76025,18.48865
		c2.30927,3.46851,5.99994,5.75781,9.92883,6.97314c3.65179,1.12952,7.45551,1.03381,11.22803,0.91296
		c0.6416-0.02051,1.2572,0.02722,1.89172,0.11243c1.72437,0.23157,3.19537-0.71423,4.86438-0.6217
		c0.79309,0.04382,1.51807-0.05029,2.29602-0.22327c1.67615-0.37256,3.29315-0.98865,4.81323-1.7843
		c3.08734-1.61597,5.776-3.95227,7.98712-6.63245c0.17682-0.21423,0.35059-0.43103,0.52142-0.65015
		c3.85437-4.94324,6.26599-10.83105,8.63062-16.63635c4.16736-10.23132,3.25128-21.63171,6.2879-32.25354
		c1.20795-4.22534,2.94757-8.28235,4.89648-12.22107c3.76575-7.61047,8.33154-14.82483,13.5979-21.4856
		c5.61658-7.10388,7.19977-14.88403,8.21722-23.88257c1.01746-8.99866-0.77032-18.41699-5.68365-26.02417
		c-4.9101-2.3927-10.79468-4.5343-16.13013-5.70374c-0.87097-0.19092-1.71307-0.50061-2.47821-0.96155
		c-0.33569-0.20227-0.65454-0.4314-0.95746-0.67993c-0.35028-0.28723-0.66479-0.73975-1.05292-0.96057
		c-0.04614,0.22742,0.07764,0.46448,0.01593,0.70569c-0.04437,0.17358-0.15515,0.32153-0.24127,0.47571
		c-0.26965,0.48279-0.49738,0.98645-0.77734,1.46448c-0.5719,0.97656-1.24573,1.89331-2.00806,2.72974
		c-0.14069,0.1543-0.29205,0.32251-0.31061,0.53052c-0.01471,0.16516,0.05817,0.32446,0.13232,0.47278
		c0.7887,1.57776,1.90125,2.95862,2.85309,4.43579c0.88275,1.37,1.80103,3.04541,1.81897,4.70386
		c0.00555,0.51477,0.00677,1.02966,0.00354,1.54456c-0.0108,1.73987-0.07373,3.49524-0.49536,5.18335
		c-0.68976,2.76135-2.31281,5.18225-4.24908,7.22949c-1.07648,1.13818-2.52496,1.77759-3.87891,2.55835
		c-1.47272,0.84924-2.94537,1.69849-4.41809,2.54785c-4.32178,2.49231-8.83545,5.04578-13.81122,5.40833
		c-1.80774,0.13171-3.63623-0.03894-5.39038-0.49402c-0.85333-0.22131-1.84839-0.46704-2.61462-0.91602
		c-1.83228-1.07373-3.48792-2.86438-4.90991-4.42224c-0.612-0.67053-1.20312-1.35974-1.78607-2.05554
		C583.00665,1060.0542,582.05438,1058.5929,581.78735,1058.65063z"/>
	<path class="st12" d="M670.30469,226.12639c4.87634-65.1356-23.71582-57.841-75.34406-48.99118
		c-24.16412,2.25427-26.82117,23.65254-27.08917,43.60445c3.10425,18.22256,3.58978,37.10135,10.97638,54.37747
		c5.73883,11.77036,19.93481,18.64383,29.8382,26.96902c14.19965,11.85947,32.32739,2.211,43.12115-9.56192
		c6.0177-7.39594,17.92908-15.58765,18.92914-25.22171C670.88513,253.54182,670.88031,239.85725,670.30469,226.12639z"/>
	<g>
		<path class="st11" d="M592.87048,290.40097c3.4151,2.44135,6.9082,4.76053,10.35724,7.16168
			c1.71326,1.21588,3.41168,2.45834,5.05286,3.78067c1.62366,1.32773,3.30261,2.52631,5.16522,3.43259
			c3.69824,1.83356,7.89038,2.56796,11.99475,2.16534c4.11389-0.37576,8.09436-1.77136,11.76611-3.67865
			c3.69086-1.8941,7.11163-4.31717,10.229-7.07227c1.55646-1.38531,3.04797-2.83456,4.42419-4.39313
			c1.35071-1.61652,2.85522-3.11429,4.3573-4.57834c2.9986-2.94244,6.09668-5.77277,8.79199-8.96674
			c1.36438-1.57782,2.63739-3.24643,3.64227-5.07565c1.00891-1.81924,1.79169-3.78769,2.0849-5.87396
			c-0.18475,2.0986-0.88788,4.12656-1.85132,5.99908c-0.95087,1.88751-2.17822,3.62131-3.49811,5.26297
			c-2.64642,3.29034-5.70422,6.20001-8.62604,9.19839c-1.4646,1.50174-2.91168,2.99521-4.24957,4.60278
			c-1.38934,1.59677-2.90295,3.08942-4.47003,4.504c-3.14856,2.82166-6.60944,5.3176-10.37671,7.28058
			c-3.7735,1.92532-7.87665,3.33588-12.14294,3.69571c-4.24664,0.37595-8.64484-0.37561-12.42224-2.38727
			c-1.8974-0.97223-3.62512-2.26682-5.21777-3.62924c-1.59686-1.34778-3.26422-2.61526-4.94037-3.87265
			C599.59784,295.42865,596.15057,293.02264,592.87048,290.40097z"/>
	</g>
	<path class="st11" d="M602.12585,223.66426c-1.40247-0.08356-2.79114-0.31606-4.18561-0.48708
		c-6.62683-0.81271-13.62543-0.15804-19.44513,3.11403c0.2276-1.75992,1.38049-3.30518,2.82782-4.33199
		s3.17023-1.59244,4.89703-2.00139c3.1629-0.74904,6.43909-1.00978,9.68134-0.78926
		c1.63013,0.11087,3.25201,0.34337,4.84723,0.69669c1.04633,0.23174,2.14606,0.45537,3.09772,0.96939
		c0.48615,0.2626,0.94208,0.58072,1.40283,0.88441c0.75903,0.5002,1.59387,0.95003,2.30597,1.51175
		c-0.84619,0.26334-1.81097,0.33682-2.6922,0.40652C603.95258,223.70935,603.03735,223.71857,602.12585,223.66426z"/>
	<path class="st11" d="M619.33289,221.39816c1.82812-0.00406,3.63544-0.3569,5.45465-0.53726
		c2.96039-0.2935,5.94489-0.12959,8.91528,0.03456c2.13464,0.11798,4.26935,0.23595,6.40399,0.35391
		c0.77386,0.04277,1.54968,0.08554,2.32343,0.04053c2.92316-0.17009,5.6355-1.57339,8.52661-2.03711
		c-1.27783-0.74496-2.8125-0.86761-4.28851-0.96353c-2.03412-0.13219-4.0694-0.2469-6.10461-0.3616
		c-1.94495-0.10962-3.88983-0.21922-5.83478-0.32884c-2.47144-0.1393-4.95642-0.27811-7.42719-0.05046
		c-0.75732,0.06978-1.56818,0.09225-2.29596,0.33458c-0.82782,0.27565-1.58307,0.81187-2.31647,1.2695
		c-0.57117,0.35635-1.1366,0.72179-1.69611,1.09615c-0.27979,0.18716-0.55804,0.37657-0.83478,0.56818
		c-0.13837,0.09579-0.27637,0.19215-0.41394,0.28906C619.66266,221.16344,619.42767,221.39795,619.33289,221.39816z"/>
	<path class="st11" d="M613.36322,268.83197c14.59265,1.01077,24.19952-4.28979,35.94324-7.20517
		c-11.15698,11.47403-38.52417,18.32455-49.17847,3.27179C605.37854,267.06268,607.91284,268.45444,613.36322,268.83197z"/>
	<path class="st11" d="M618.22534,281.69751c4.71185,2.60938,10.39496,1.80066,15.41711-2.19385"/>
	<g>
		<path class="st11" d="M595.284,310.18088c0.33356,3.92575,0.7475,7.83795,1.30853,11.72797
			c0.56268,3.88907,1.21826,7.76434,2.06732,11.59958c0.78973,3.84781,1.76794,7.65442,2.84113,11.4346
			c1.07275,3.78101,2.28949,7.52213,3.5838,11.24335c-1.58496-3.60846-2.94348-7.31641-4.13635-11.07736
			c-1.19244-3.76184-2.17017-7.59021-3.02124-11.44452c-0.79181-3.86685-1.46191-7.76086-1.90424-11.68234
			C595.57892,318.06165,595.30853,314.12198,595.284,310.18088z"/>
	</g>
	<path class="st11" d="M605.8277,184.72299c9.0592-1.06332,18.16711-1.71107,27.28552-1.94182
		c4.55927-0.11537,9.12109-0.1265,13.68085-0.03319c1.54382,0.03159,3.1806,0.25343,4.7168,0.10841
		c0.28369-0.02678,0.49756-0.0867,0.78436-0.02875c1.2749,0.25757,2.61383,1.30067,3.5376,2.16721
		c1.0116,0.94896,1.83716,2.09961,2.39246,3.3717c0.13324,0.30525,0.25098,0.61728,0.35181,0.93471
		c0.82489,2.59564,0.57416,5.4071,1.08118,8.08305c0.67657,3.57072,2.7594,6.85542,5.70068,8.99007
		c0.10107,0.07335,0.33563,0.92157,0.3559,0.97911c0.17499,0.49756,0.34094,0.99825,0.4989,1.50146
		c0.31232,0.9951,0.59247,2.00021,0.84363,3.01244c0.54297,2.188,0.94922,4.40833,1.25854,6.64087
		c0.28687,2.07089,0.4903,4.15263,0.64435,6.23738c0.08167,1.10574,0.23407,2.23982,0.17468,3.35118
		c-0.02704,0.50633-0.16748,0.99289-0.21014,1.49599c-0.06012,0.70886,0.12085,1.39307,0.24969,2.08444
		c0.63,3.37976,0.77368,6.82892,0.72205,10.26015c-0.10449,6.93481-1.00745,13.87402-0.41626,20.80881
		c0.09381,1.10065,0.22565,2.19818,0.40436,3.28833c-0.04761-0.29034,0.22205-0.84686,0.29559-1.13834
		c0.11322-0.44925,0.22278-0.89941,0.32855-1.35049c0.20337-0.86743,0.39288-1.73813,0.56842-2.61163
		c0.35114-1.74701,0.64648-3.50522,0.88568-5.27103c0.47845-3.53165,0.73248-7.0937,0.75916-10.65752
		c0.01227-1.63506-0.11121-3.26941-0.10333-4.90211c0.0025-0.5172,0.14301-0.94229,0.26892-1.43405
		c0.06812-0.2659,0.10474-0.53036,0.12762-0.80368c0.16327-1.94926,0.21863-3.89058,0.49298-5.8322
		c0.40039-2.83408,1.07153-5.62489,1.4621-8.46036c0.90851-6.59589,0.26666-13.40028-1.85919-19.70993
		c-1.52295-4.52008,1.64331-8.05652,0.14624-12.58522c-0.53534-1.61943-1.40735-3.10216-2.21515-4.60434
		c-2.22461-4.13661-4.00189-8.51358-5.29095-13.03004c-1.22089-4.27742-6.35083-7.84404-9.30103-11.17317
		c-1.24591-1.40591-2.54425-2.79184-4.10297-3.84079c-1.94165-1.30664-4.19525-2.02614-6.46014-2.53661
		c-2.17029-0.48917-4.51172-0.61972-6.6286-1.29628c-0.91223-0.29156-1.82672-0.53683-2.77795-0.74092
		c-2.1145-0.45369-4.24103-0.85229-6.37805-1.18423c-4.27002-0.66325-8.58661-1.06339-12.90955-1.08388
		c-7.83582-0.03714-15.73541,1.21323-22.92792,4.41269c-6.18842,2.75281-11.67969,6.83931-16.98962,11.04391
		c-4.62427,3.66167-9.31708,7.64899-11.65106,13.06598c-1.87659,4.35553-2.04602,9.23763-1.97028,13.97963
		c0.26251,16.43735,3.12183,32.71141,6.07513,48.88339c1.77655,9.72815,4.42145,17.2119,7.31067,26.66942
		c0.35266-11.40601-6.42279-20.05119-6.02448-31.45572c0.10394-2.97449,0.64148-5.92787,0.617-8.90405
		c-0.04016-4.87196-1.5849-9.68372-1.21149-14.5415c0.26306-3.42191,1.46637-6.69199,2.65796-9.91048
		c1.66449-4.4955,3.32892-8.991,4.99335-13.4865c0.58722-1.58595,1.20703-3.22409,2.39893-4.42384
		c1.32599-1.33475,3.07666-1.47273,4.85925-1.46967c2.14026,0.00369,4.2691,0.33501,6.41907,0.31639
		C596.46741,185.9265,601.15009,185.27203,605.8277,184.72299z"/>
	<path class="st4" d="M703.74884,1037.88159c0.12201,9.10315,9.80414,24.0199,11.89038,32.88171
		c2.09149,8.8844,4.18304,17.7688,6.2746,26.6532c2.10699,8.95032,4.21851,17.92554,5.26508,27.06079
		c0.32025,2.79517,0.5437,5.60278,0.96558,8.38574c0.15845,1.04517,0.43634,2.08997,0.48999,3.14978
		c0.03149,0.62134,1.80017,5.65405,2.71735,7.3429c2.01685,3.71375,4.3158,7.27429,6.87006,10.64111
		c0.79004,1.04126,1.60437,2.06409,2.44244,3.06714c0.68829,0.82373,1.39429,1.91187,2.24298,2.57239
		c0.27814,0.21655,0.44818,0.26355,0.78436,0.3385c1.01056,0.22498,2.04285,0.40686,3.0639,0.58411
		c2.1814,0.37854,4.38324,0.63916,6.59259,0.78223c4.41925,0.28638,8.86877,0.10291,13.24963-0.54504
		c3.72333-0.55066,7.39752-1.43713,10.95886-2.65576c1.26324-0.43225,2.53143-0.91528,3.60223-1.71289
		c1.59564-1.18848,2.62689-2.97925,3.45685-4.7876c6.46655-14.0896,2.6748-31.32275-6.34784-43.92932
		c-9.02258-12.60669-22.52448-21.27209-36.3877-28.21094c-12.48419-6.24854-18.00867-21.54065-26.80432-32.38208
		c-1.24866-1.53906-2.51404-10.4469-4.42468-10.97363C708.7406,1035.61731,703.65051,1030.54382,703.74884,1037.88159z"/>
	<path class="st5" d="M706.80377,1005.45728c-1.1582,1.12939-2.42725,2.1615-3.40192,3.4527
		c-2.14813,2.84576-2.62054,6.59418-2.77618,10.15631c-0.25989,5.94922,0.2301,12.17249,3.22302,17.32056
		c4.24713,7.3053,7.9776,13.77966,11.45599,21.48071c6.20142,13.72986,9.08539,28.32825,11.7345,43.15894
		c1.74292,9.75757,2.58551,19.94812,6.7854,29.05847c0.71265,1.54578,1.80206,2.98718,2.42157,4.55298
		c0.15869,0.401,0.27368,0.8219,0.45154,1.22534c0.38293,0.86853,0.77087,1.73486,1.17395,2.59424
		c1.59064,3.39148,3.41669,6.74841,5.97638,9.5155c1.10651,1.19617,2.34723,2.26941,3.71893,3.15161
		c3.82843,2.46204,8.81366,3.58447,13.30383,2.99146c1.42078-0.18762,3.047,0.23364,4.4884,0.27954
		c3.17749,0.10107,6.38519-0.17542,9.44855-1.05554c4.56866-1.31262,8.83569-4.06885,11.33405-8.11292
		c1.97131-3.1908,2.74561-6.96362,3.315-10.67078c1.17993-7.68237,1.62769-15.47705,1.33514-23.24402
		c-0.41449-11.00586-6.19702-21.64587-10.9057-31.60217c-4.68835-9.91345-5.36664-20.97083-8.22906-31.42737
		c-0.42664-1.55847-0.88025-2.82458-0.93866-4.39124c-0.03973-1.06592-0.42267-2.1449-0.67139-3.17712
		c-1.12585-4.67273-2.25171-9.34546-3.3775-14.01819c-0.23645-0.98132-1.6933-3.42889-1.92969-4.41022
		c-1.33716,1.44061-2.06702,4.80511-2.71973,6.65912c-0.47571,1.35132-0.59851,2.79736-0.71405,4.22534
		c-0.34076,4.21301-0.67206,8.51648-2.32983,12.40442c-1.65778,3.88806-4.9209,7.35742-9.08539,8.08081
		c-2.35474,0.40894-4.7287-0.0752-7.07092-0.32703c-1.56104-0.16772-3.44257,0.26428-4.90765-0.31726
		c-0.5882-0.23352-1.01477-0.66785-1.54724-0.99438c-1.66144-1.01868-3.23126-1.8894-4.58032-3.34094
		c-1.2395-1.33374-2.24249-2.91357-3.70978-3.99219c-1.95874-1.4397-4.45972-1.78796-6.82538-1.88342
		c-0.79095-0.03186-0.88214-0.005-1.41028-0.55823c-0.6048-0.63342-1.15607-1.31738-1.64978-2.04077
		c-0.9856-1.44397-1.73712-3.04053-2.26862-4.70447c-1.08856-3.40796-1.27234-7.08386-0.7478-10.61157
		c0.17377-1.16864,0.42712-2.32556,0.75977-3.45929c0.7113-2.42413,1.73242-4.79065,1.94116-7.30835
		c0.56378-6.80066-3.14026-14.91589-1.16241-21.44696c-0.96692,0.69714-3.41516,3.13385-3.83801,4.24554
		c-0.34436,0.90558-0.38379,1.81427-1.00085,2.59473C710.26172,1001.54883,708.66779,1003.63947,706.80377,1005.45728z"/>
	<path class="st12" d="M360.40436,343.89041c-2.42032-1.24695-5.32367,0.19727-7.5412,1.77695
		c-6.60712,4.70667-12.09973,10.96722-15.90665,18.13065c-0.82291,1.54843-1.57419,3.1554-1.94635,4.86899
		c-0.51422,2.3678-0.28195,4.83969,0.20947,7.21234c1.09006,5.26312,3.46115,10.25616,6.85114,14.42709
		c3.91138,4.81241,8.65494,10.29282,12.28784,15.31876c0.64563,0.89319,1.32968,1.83966,2.34518,2.26788
		c1.96002,0.82651,3.29932-4.58936,5.28983-3.83936c3.08276,1.16153,8.21503,0.96677,7.05133-3.58139
		c-0.13785-0.53876-0.59195-1.09155-0.10193-1.35449c0.74786-0.40128,1.69696-0.03564,2.32642,0.53363
		c0.62949,0.56931,1.07065,1.32141,1.69424,1.89709c1.14658,1.0585,2.90097,1.40558,4.36423,0.86334
		c1.46323-0.54224,2.56778-1.94876,2.74768-3.49881c0.44464-3.83096-3.0264-7.89951-5.55582-10.81088
		c2.21631,0.61646,4.56842,0.85596,6.82681,0.41806c2.25836-0.43793,4.41754-1.59271,5.83167-3.40717
		c0.42838-0.54962,0.79297-1.1731,0.89978-1.86169c0.11688-0.75351-0.0831-1.51886-0.32828-2.24091
		c-0.58188-1.71347-1.49619-3.18289-2.41638-4.71994c-0.22748-0.38-0.43835-0.77274-0.59518-1.18774
		c-0.24789-0.65604-0.3176-1.34216-0.4053-2.03259c-0.13574-1.06815-0.4086-2.10382-0.58636-3.16397
		c-0.22205-1.32425-0.33594-2.66864-0.65973-3.97452c-0.76508-3.08542-2.69809-5.72955-4.58844-8.28528
		c-1.63986-2.21698-2.55725-4.96216-4.83633-6.51456c-1.19968-0.81714-2.58069-1.31702-3.91159-1.89636
		C366.52365,347.83087,363.53278,345.50223,360.40436,343.89041z"/>
	<path class="st27" d="M363.67984,355.59567c-0.71552,3.96661,1.28381,7.87076,3.2941,11.36426
		c0.7695,1.33722,1.73901,2.80402,3.2608,3.05792c-0.68369,4.79022-0.20224,10.37656,1.82144,14.77185
		c0.87234,1.89468,2.10291,3.79047,4.02695,4.59598"/>
	<path class="st27" d="M377.56982,379.24179c1.25656-0.74686,2.5563-1.42105,3.89056-2.01813
		c0.80746-0.36133,1.96167-0.59424,2.40305,0.17242"/>
	<g>
		<path class="st11" d="M357.63284,364.30713c0.93381,2.27185,1.99518,4.48413,3.16669,6.63156
			c1.17838,2.14368,2.45844,4.23141,3.88919,6.21384c1.3978,2.00571,2.94244,3.90604,4.57593,5.72693
			c1.63806,1.81671,3.37424,3.55057,5.20804,5.18469c-1.95218-1.49182-3.79071-3.13919-5.49011-4.92322
			c-1.70407-1.77991-3.25989-3.69989-4.70129-5.69958c-1.40842-2.02301-2.70636-4.12592-3.82031-6.32388
			C359.34012,368.92331,358.39484,366.64285,357.63284,364.30713z"/>
	</g>
	<g>
		<path class="st11" d="M349.96558,369.69785c0.38364,1.43997,0.79449,2.87158,1.35666,4.24832
			c0.51859,1.39117,1.1293,2.74615,1.8082,4.06467c1.34976,2.64163,2.92679,5.16376,4.6839,7.55737
			c1.71405,2.42548,3.61053,4.7189,5.52274,6.9982c0.93597,1.14062,2.04559,2.16153,2.90244,3.40988
			c0.3588,0.66058,0.90085,1.14505,1.49573,1.60284l1.73233,1.40964l-1.80991-1.31503
			c-0.60852-0.41217-1.22391-0.91348-1.61789-1.55609c-0.87399-1.18719-2.00302-2.1694-2.9935-3.29956
			c-1.97736-2.23291-3.87955-4.53903-5.63718-6.95801c-1.73431-2.4332-3.3335-4.97632-4.62198-7.67981
			C351.47507,375.49008,350.52945,372.62384,349.96558,369.69785z"/>
	</g>
	<g>
		<path class="st11" d="M343.15961,376.72119c0.72867,2.7164,1.77921,5.33551,3.12738,7.78333
			c1.34903,2.44995,3.03156,4.69284,4.9498,6.73285c1.87119,2.08249,3.93781,3.9902,5.91882,5.98959
			c0.9939,0.99619,1.96658,2.01718,2.90933,3.06403c0.92981,1.05963,1.80304,2.16757,2.62622,3.30737
			c-3.55313-4.37543-7.983-7.87436-11.82278-12.0238c-1.90213-2.08243-3.62692-4.36948-4.91913-6.88974
			C344.64304,382.17453,343.70981,379.48019,343.15961,376.72119z"/>
	</g>
	<polygon class="st10" points="321.48022,379.24179 339.66806,390.15979 361.41626,381.95667 371.32278,592.12561 
		295.41116,592.12561 	"/>
	<g>
		<path class="st7" d="M339.28217,405.79712l-1.86734,28.08316c-0.59317,9.36148-1.20215,18.72104-1.67917,28.0874
			c-0.55005,9.36249-0.93747,18.73199-1.23926,28.10303l-0.17984,7.02963l-0.04553,7.0307
			c-0.02621,2.34412,0.06195,4.68546,0.08731,7.03036c-0.00363,1.1738,0.10223,2.34055,0.16522,3.51096l0.19662,3.51337
			c-1.0795-9.33032-1.09851-18.75119-0.99283-28.13141c0.14276-9.38739,0.5387-18.7674,1.01093-28.14084
			c0.56085-9.36871,1.15512-18.73489,1.91284-28.08859C337.41379,424.47186,338.2493,415.12463,339.28217,405.79712z"/>
	</g>
	<polyline class="st14" points="295.41116,592.12561 329.91644,560.08502 371.32278,592.12561 	"/>
	<path class="st8" d="M321.48022,379.24179l-22.61853,35.42813c0,0-23.16782,188.30023-19.22437,217.87616l15.77383-39.78955
		L321.48022,379.24179z"/>
	<polygon class="st28" points="279.63733,632.54608 358.20407,635.9173 371.32278,592.12561 295.41116,592.75653 	"/>
	<polygon class="st0" points="362.69116,408.13745 384.67184,418.45428 414.86932,402.95184 448.17679,592.12561 
		369.86346,596.99695 	"/>
	<polyline class="st14" points="369.86346,596.99695 399.21143,566.84698 448.17679,592.12561 	"/>
	<path class="st14" d="M384.67184,418.45428c0,0,18.65683,128.35504,14.53958,148.3927"/>
	<polygon class="st29" points="448.17679,592.12561 430.41342,645.23761 353.86569,650.08777 369.86346,596.99695 	"/>
	<path class="st30" d="M349.95428,635.69568c0.90662,4.97302,2.27621,9.86151,4.0853,14.58167l4.16449-14.36005L349.95428,635.69568
		z"/>
	<polygon class="st29" points="505.3168,654.51843 426.06625,657.23572 461.91769,573.38098 560.03741,566.23633 	"/>
	<polygon class="st31" points="405.43399,361.47562 432.8187,365.86743 453.7883,347.82907 560.03741,566.23633 
		461.91769,573.38098 	"/>
	<polyline class="st14" points="461.91769,573.38098 489.80569,537.14471 560.03741,566.23633 	"/>
	<path class="st14" d="M432.8187,365.86743c0,0,26.4707,106.13669,56.987,171.27728"/>
	<path class="st32" d="M298.62427,416.61288c0,0-0.84509-13.58658,9.00949-17.62411"/>
	<g>
		<path class="st11" d="M833.91833,828.15778c1.00714,2.82581,1.57007,5.7674,2.04681,8.69659
			c0.44794,2.93903,0.82526,5.86676,1.05963,8.85223c-1.00946-2.82526-1.57214-5.76703-2.04681-8.69653
			C834.53204,834.07074,834.15503,831.14282,833.91833,828.15778z"/>
	</g>
	<g>
		<path class="st11" d="M845.32184,814.37897c1.30048,3.86835,2.49829,7.72882,3.82007,11.55573
			c1.29364,3.83649,2.70422,7.62415,4.03595,11.48206c-2.05261-3.53113-3.65247-7.30371-4.98187-11.15948
			C846.89465,822.39185,845.85657,818.42792,845.32184,814.37897z"/>
	</g>
	<g>
		<path class="st11" d="M856.14911,810.41888c1.70746,2.77698,3.0592,5.73492,4.27887,8.73657
			c1.19269,3.01404,2.25647,6.07544,3.02216,9.24274c-1.50677-2.8902-2.73584-5.87933-3.94983-8.87097
			C858.31427,816.52301,857.14081,813.52209,856.14911,810.41888z"/>
	</g>
	<g>
		<path class="st11" d="M845.66565,810.54803c1.42621-1.08313,2.97919-1.88794,4.56189-2.6275
			c1.5957-0.71094,3.22211-1.35455,4.9762-1.71802c-1.42535,1.08502-2.97827,1.88995-4.56189,2.6275
			C849.04523,809.53894,847.41882,810.18262,845.66565,810.54803z"/>
	</g>
	<g>
		<path class="st11" d="M832.28815,817.138c0.92133-0.92285,1.98352-1.57428,3.07886-2.16211
			c1.10974-0.55994,2.25366-1.0542,3.53943-1.27527c-0.92029,0.92474-1.98248,1.57629-3.0788,2.16217
			C834.7168,816.42078,833.57294,816.9151,832.28815,817.138z"/>
	</g>
	<g>
		<path class="st11" d="M829.25891,820.43671c-1.31708,1.27911-2.7951,2.29822-4.31091,3.25635
			c-1.53229,0.9314-3.10358,1.79987-4.83691,2.40656c1.31598-1.28088,2.79395-2.30011,4.31091-3.25629
			C825.95544,821.91382,827.52667,821.04523,829.25891,820.43671z"/>
	</g>
	<path class="st2" d="M308.07034,405.79712c0,0-2.42572-15.02078,4.15842-21.4538s34.77481-18.31189,57.2388-11.85266"/>
	<path class="st10" d="M369.46756,398.98877c-1.6243,6.87473-1.83032,13.47073-1.83084,13.58252l-2.5-0.0083
		c0.00162-0.50388,0.33362-7.4382,2.35001-15.06644"/>
</g>
<g id="Calque_5">
	<path class="st3" d="M806.50421,789.20935c1.20905-0.32416,2.43573-0.65076,3.6875-0.64532
		c1.25177,0.00549,2.55341,0.38348,3.42242,1.28448c0.91962,0.95343,1.23199,2.36639,1.12848,3.68701
		c-0.10358,1.32062-0.57501,2.58075-1.04181,3.8205c1.49292-0.0813,3.17615-0.09521,4.24493,0.95032
		c0.80658,0.789,1.03912,1.98352,1.16675,3.10461c0.24841,2.18188,0.21515,4.52795-0.94501,6.39246
		c1.6239,0.05725,3.75696-0.21008,5.38086-0.15283c1.54041,1.6969,3.15448,3.54828,3.43585,5.82275
		c0.17139,1.38531-0.19904,2.83057-1.01562,3.96271c-1.69098,2.3443-7.06458,5.00275-12.04108,11.36505
		c-0.58655,6.23779,7.92804,16.94647,6.11145,18.84967c-1.92957,2.02161-5.97852,2.98785-8.81256,2.72064
		c-1.40881-0.13281-7.38922-4.64429-8.82056-6.10614c-6.87299-7.68933-12.85791-16.17175-17.79785-25.22491
		c-0.41992-0.76947-0.84399-1.59167-0.80573-2.46741c0.02789-0.63715,0.29968-1.23541,0.57861-1.8089
		c2.38928-4.91266,5.66528-9.3924,9.62262-13.15839C797.9649,797.83588,803.6615,793.88092,806.50421,789.20935z"/>
	<g>
		<path class="st12" d="M791.35278,818.80072c1.815-2.01923,3.70581-3.95923,5.60803-5.88727
			c1.89435-1.93622,3.84296-3.81567,5.79181-5.69489c0.98181-0.92444,1.96649-1.87152,2.96777-2.77765
			c0.4978-0.45184,0.98499-0.9057,1.43658-1.3847c0.22729-0.23969,0.44031-0.48364,0.65216-0.7384
			c0.24658-0.29132,0.5177-0.52844,0.78326-0.75067c1.03271-0.85242,2.06476-1.76477,3.13715-2.59259
			c1.09076-0.81293,2.18256-1.62115,3.33289-2.34418c-2.04913,1.78815-4.01184,3.61633-5.95825,5.51105
			c-0.23877,0.22815-0.46265,0.45703-0.6377,0.69617c-0.20703,0.27686-0.43317,0.54846-0.66193,0.80878
			c-0.45947,0.52252-0.94751,1.00928-1.43567,1.4845l-2.9259,2.81036c-1.96619,1.86102-3.93262,3.72186-5.95325,5.52588
			C795.47699,815.27942,793.45276,817.07971,791.35278,818.80072z"/>
	</g>
	<g>
		<path class="st12" d="M819.14355,807.25104c-1.9953,1.80859-4.00421,3.60059-6.05139,5.34576
			c-2.03302,1.76434-4.10352,3.48065-6.02887,5.31506c-0.95764,0.92303-1.86273,1.89392-2.68561,2.92493
			c-0.81689,1.03577-1.55475,2.13416-2.25415,3.2616c-1.39178,2.26202-2.53607,4.68646-3.68518,7.11597l0.03625-0.12952
			c-0.07275,0.95691,0.07544,2.06165,0.27911,3.08649c0.20715,1.04181,0.50018,2.07214,0.84772,3.08496
			c0.33911,1.01605,0.72241,2.02094,1.13593,3.01575c0.42749,0.98877,0.88605,1.96515,1.35217,2.9422l-0.8421-1.38831
			l-0.77771-1.42761c-0.48572-0.96881-0.97986-1.94037-1.3678-2.95935c-0.40283-1.01233-0.75336-2.04944-1.01965-3.11591
			c-0.25891-1.07904-0.48041-2.12836-0.44647-3.33301l0.00146-0.0531l0.03485-0.07678
			c1.11066-2.44861,2.22583-4.91888,3.617-7.26501c1.36273-2.3623,3.16583-4.48907,5.15668-6.33246
			c1.97766-1.8714,4.14368-3.48218,6.25995-5.13818C814.82166,810.46332,816.97583,808.84888,819.14355,807.25104z"/>
	</g>
	<path class="st33" d="M805.49048,843.05957c0.35956,1.88165,1.84406,3.46112,3.27783,4.9483
		c1.95184,2.02466,4.10242,4.16187,7.1106,4.85846c1.28711,0.29803,4.00458,0.79822,5.44519-0.67535
		c1.44061-1.47351,1.68127-2.47577,1.04742-4.50238c-0.62244-1.98999-2.05634-2.03088-3.01398-3.59003
		c-2.19604-0.79712-4.32422-0.43872-5.29791-2.13922c-0.76666-1.33887-1.73071-2.20972-3.72858-2.95544
		C806.07898,837.41675,805.15253,841.29095,805.49048,843.05957z"/>
	<g>
		<path class="st12" d="M812.07581,842.53278c0.34979,0.75458,0.16876,1.74078-0.40363,2.40594
			c-0.29694,0.32092-0.65454,0.57556-1.04749,0.73071c-0.19543,0.07788-0.3996,0.1264-0.5957,0.18652
			c-0.20892,0.02014-0.41058,0.0542-0.61591,0.05652c0.36078-0.20471,0.71405-0.37152,1.03387-0.58417
			c0.31506-0.21692,0.60657-0.44409,0.84772-0.71692C811.77051,844.06207,812.02704,843.35089,812.07581,842.53278z"/>
	</g>
	<g>
		<path class="st12" d="M806.20648,793.19122c0.11377,0.90753,0.36664,1.75818,0.94476,2.34644
			c0.28271,0.29199,0.62347,0.53442,1.01678,0.70801c0.38892,0.18719,0.81873,0.29077,1.26343,0.42926
			c-0.22766,0.03168-0.45947,0.03766-0.69513,0.04718c-0.22888-0.03723-0.4693-0.04266-0.69788-0.11432
			c-0.47021-0.10382-0.90216-0.37921-1.25085-0.72742c-0.34009-0.36121-0.57233-0.81989-0.65417-1.29364
			C806.04773,794.11536,806.05688,793.63312,806.20648,793.19122z"/>
	</g>
	<g>
		<path class="st12" d="M812.1228,802.2608c0.49823,0.57092,0.86237,1.20795,1.19501,1.86047
			c0.31561,0.66089,0.59882,1.33771,0.7467,2.08124c-0.49939-0.57037-0.8634-1.20746-1.19501-1.86047
			C812.55493,803.68066,812.27185,803.00372,812.1228,802.2608z"/>
	</g>
	<g>
		<path class="st12" d="M818.12305,811.70825c0.37885,0.9527,0.78589,1.85004,1.33112,2.65601
			c0.26398,0.40875,0.58765,0.76611,0.9278,1.11249c0.34546,0.34717,0.75903,0.60834,1.19238,0.89221
			c-0.50482-0.08801-1.00757-0.28235-1.43561-0.5943c-0.43188-0.30377-0.80347-0.6947-1.09845-1.13031
			c-0.28674-0.44098-0.52252-0.91278-0.67206-1.41119C818.216,812.73749,818.11066,812.22638,818.12305,811.70825z"/>
	</g>
</g>
</svg>
