<?xml version="1.0" encoding="utf-8"?>
<!-- Generator: Adobe Illustrator 25.2.1, SVG Export Plug-In . SVG Version: 6.00 Build 0)  -->
<svg version="1.1" xmlns="http://www.w3.org/2000/svg" xmlns:xlink="http://www.w3.org/1999/xlink" x="0px" y="0px"
	 viewBox="0 0 3008.97363 1500" style="enable-background:new 0 0 3008.97363 1500;" xml:space="preserve">
<style type="text/css">
	.st0{fill:url(#SVGID_1_);}
	.st1{clip-path:url(#SVGID_3_);fill:url(#SVGID_4_);}
	.st2{fill:none;}
	.st3{fill:#FFFFFF;stroke:#AFC5C9;stroke-width:5;stroke-linecap:round;stroke-linejoin:round;stroke-miterlimit:10;}
	.st4{fill:#FCFCFC;stroke:#AFC5C9;stroke-width:5;stroke-linecap:round;stroke-linejoin:round;stroke-miterlimit:10;}
	.st5{fill:none;stroke:#AFC5C9;stroke-width:3.5;stroke-linecap:round;stroke-linejoin:round;stroke-miterlimit:10;}
	.st6{fill:#58D6C8;}
	.st7{fill:none;stroke:#AFC5C9;stroke-width:2;stroke-linecap:round;stroke-linejoin:round;stroke-miterlimit:10;}
	.st8{fill:none;stroke:#AFC5C9;stroke-width:5;stroke-linecap:round;stroke-linejoin:round;stroke-miterlimit:10;}
	.st9{fill:none;stroke:#AFC5C9;stroke-width:3;stroke-linecap:round;stroke-linejoin:round;stroke-miterlimit:10;}
	.st10{clip-path:url(#SVGID_6_);fill:#004F69;}
	.st11{clip-path:url(#SVGID_6_);fill:#2D160F;}
	.st12{clip-path:url(#SVGID_6_);fill:#3A1E13;}
	.st13{clip-path:url(#SVGID_6_);fill:#110F0F;}
	.st14{clip-path:url(#SVGID_6_);}
	.st15{fill:#110F0F;}
	.st16{clip-path:url(#SVGID_6_);fill:#58D6C8;}
	
		.st17{clip-path:url(#SVGID_6_);fill:none;stroke:#58D6C8;stroke-width:2;stroke-linecap:round;stroke-linejoin:round;stroke-miterlimit:10;}
	
		.st18{clip-path:url(#SVGID_6_);fill:none;stroke:#AFC5C9;stroke-width:2;stroke-linecap:round;stroke-linejoin:round;stroke-miterlimit:10;}
	.st19{fill:#000B26;}
	.st20{display:none;}
	.st21{display:inline;fill:#F2F2F2;}
</style>
<g id="Calque_6">
	<linearGradient id="SVGID_1_" gradientUnits="userSpaceOnUse" x1="1486.73962" y1="1700.62158" x2="1499.02979" y2="143.87584">
		<stop  offset="0" style="stop-color:#CAE4EA"/>
		<stop  offset="0.25858" style="stop-color:#D5E8EC;stop-opacity:0.63808"/>
		<stop  offset="0.70956" style="stop-color:#F2F2F2;stop-opacity:0.00686"/>
		<stop  offset="0.71446" style="stop-color:#F2F2F2;stop-opacity:0"/>
	</linearGradient>
	<path class="st0" d="M3362.60669-594.10065c-10.37988-27.71002-41.25977-41.76001-68.96997-31.38
		c-14.3999,5.39001-25.05981,16.34003-30.57007,29.48999c-184.27979,16.58002-322.3999,76.27002-410.91992,177.82001
		c-16.18994,18.56-29.81982,37.53003-41.31006,56.42999c-6.22998-2.12-10.87988-3.64996-12.68994-4.17999
		c-32.81006-9.70001-98.04004-33.60999-174.87988-34.22998c7.67993-39.64001,19.85986-85.94,39.19995-132.75
		c61.1499-148.02002,164.68994-238.04004,308.16992-268.14001c9.80005,10.72003,23.8501,17.47998,39.52002,17.47998
		c29.59009,0,53.58008-23.98999,53.58008-53.57996c0-29.59003-23.98999-53.58002-53.58008-53.58002
		c-25.37988,0-46.59009,17.66998-52.12988,41.37c-158.08008,34.26001-275.82007,136.67999-342.3501,298.84998
		c-22.66992,55.24005-36.05005,109.07001-43.97998,153.63c-6.21997,0.87-12.47998,1.91003-18.78003,3.17004
		c-54.86011,10.95996-104.07007,30.04999-147.41992,56.84998c-207.04004-282.37-541.19995-465.71002-918.18005-465.71002
		c-389.20996,0-732.77997,195.42999-937.92999,493.51001c-29.01001-12.48999-60.13004-22.09998-93.32999-28.72998
		c-6.30005-1.26001-12.56-2.29999-18.79004-3.16998c-7.91998-44.56-21.31-98.39001-43.96997-153.62
		C326.76675-656.75067,209.01677-759.16064,50.94676-793.43066c-5.53998-23.70001-26.75-41.37-52.13-41.37
		c-29.58997,0-53.57996,23.98999-53.57996,53.58002c0,29.58997,23.98999,53.58002,53.57996,53.58002
		c15.67004,0,29.72003-6.76001,39.51001-17.48004c143.48004,30.11005,247.03001,120.12,308.17999,268.14001
		c19.34003,46.81,31.52002,93.10999,39.20001,132.75c-76.83997,0.62-142.06999,24.53003-174.87999,34.22998
		c-1.81,0.54004-6.46997,2.06-12.69,4.19c-11.48999-18.90997-25.13-37.88-41.31-56.44
		C68.30681-463.80066-69.81319-523.49066-254.09322-540.07062c-5.51003-13.14001-16.18001-24.09003-30.58003-29.49005
		c-27.70996-10.38-58.58997,3.67999-68.95996,31.39001c-10.38,27.71002,3.66998,58.59003,31.38,68.97003
		c24.02997,9,50.40997-0.39001,63.76996-21.11005c170.53004,15.35004,297.26001,69.13,377.06,160.22003
		c12.02002,13.71997,22.44,27.76001,31.48004,41.83002c-6.39001,2.53998-12.09003,4.94995-16.35004,7
		c-27.03998,13.48999-85.56,46.46999-97.83997,55.31996C-29.46321-178.87065-110.35323-93.70061,34.47679,1.14937
		c155.33002,101.70996,258.54999,254.15997,317.96997,416.34998c10.88,152.26001,51.71002,296.22998,116.65002,426.04999
		c109.73001,219.38,288.26999,398.3501,507.32999,508.62012c153.62,77.32996,327.17004,120.87,510.89001,120.87
		c181.4801,0,353.03003-42.49011,505.26001-118.05005c261.74988-129.94995,466.34998-357.70001,566.00012-635.45001
		c22.62988-63.06006,39.83984-128.70001,51.08984-196.36005c5.58008-21.69,11.26001-43.70996,17.06006-66.06
		c51-196.44,162.19995-390.37994,347.76001-511.88995c144.84009-94.85004,63.94995-180.02002-1.38989-227.10005
		c-12.27002-8.83997-70.80005-41.82001-97.84009-55.31c-4.25-2.04999-9.95996-4.45996-16.3501-7.01001
		c9.05005-14.06995,19.45996-28.09998,31.47998-41.81995c79.81006-91.10004,206.54004-144.87006,377.06006-160.22003
		c13.36987,20.72003,39.75,30.09998,63.78003,21.09998C3358.93677-535.51062,3372.98682-566.38068,3362.60669-594.10065z"/>
</g>
<g id="Calque_5">
	<g>
		<defs>
			<path id="SVGID_2_" d="M3362.60669-594.10065c-10.37988-27.71002-41.25977-41.76001-68.96997-31.38
				c-14.3999,5.39001-25.05981,16.34003-30.57007,29.48999c-184.27979,16.58002-322.3999,76.27002-410.91992,177.82001
				c-16.18994,18.56-29.81982,37.53003-41.31006,56.42999c-6.22998-2.12-10.87988-3.64996-12.68994-4.17999
				c-32.81006-9.70001-98.04004-33.60999-174.87988-34.22998c7.67993-39.64001,19.85986-85.94,39.19995-132.75
				c61.1499-148.02002,164.68994-238.04004,308.16992-268.14001c9.80005,10.72003,23.8501,17.47998,39.52002,17.47998
				c29.59009,0,53.58008-23.98999,53.58008-53.57996c0-29.59003-23.98999-53.58002-53.58008-53.58002
				c-25.37988,0-46.59009,17.66998-52.12988,41.37c-158.08008,34.26001-275.82007,136.67999-342.3501,298.84998
				c-22.66992,55.24005-36.05005,109.07001-43.97998,153.63c-6.21997,0.87-12.47998,1.91003-18.78003,3.17004
				c-54.86011,10.95996-104.07007,30.04999-147.41992,56.84998c-207.04004-282.37-541.19995-465.71002-918.18005-465.71002
				c-389.20996,0-732.77997,195.42999-937.92999,493.51001c-29.01001-12.48999-60.13004-22.09998-93.32999-28.72998
				c-6.30005-1.26001-12.56-2.29999-18.79004-3.16998c-7.91998-44.56-21.31-98.39001-43.96997-153.62
				C326.76675-656.75067,209.01677-759.16064,50.94676-793.43066c-5.53998-23.70001-26.75-41.37-52.13-41.37
				c-29.58997,0-53.57996,23.98999-53.57996,53.58002c0,29.58997,23.98999,53.58002,53.57996,53.58002
				c15.67004,0,29.72003-6.76001,39.51001-17.48004c143.48004,30.11005,247.03001,120.12,308.17999,268.14001
				c19.34003,46.81,31.52002,93.10999,39.20001,132.75c-76.83997,0.62-142.06999,24.53003-174.87999,34.22998
				c-1.81,0.54004-6.46997,2.06-12.69,4.19c-11.48999-18.90997-25.13-37.88-41.31-56.44
				C68.30681-463.80066-69.81319-523.49066-254.09322-540.07062c-5.51003-13.14001-16.18001-24.09003-30.58003-29.49005
				c-27.70996-10.38-58.58997,3.67999-68.95996,31.39001c-10.38,27.71002,3.66998,58.59003,31.38,68.97003
				c24.02997,9,50.40997-0.39001,63.76996-21.11005c170.53004,15.35004,297.26001,69.13,377.06,160.22003
				c12.02002,13.71997,22.44,27.76001,31.48004,41.83002c-6.39001,2.53998-12.09003,4.94995-16.35004,7
				c-27.03998,13.48999-85.56,46.46999-97.83997,55.31996C-29.46321-178.87065-110.35323-93.70061,34.47679,1.14937
				c155.33002,101.70996,258.54999,254.15997,317.96997,416.34998c10.88,152.26001,51.71002,296.22998,116.65002,426.04999
				c109.73001,219.38,288.26999,398.3501,507.32999,508.62012c153.62,77.32996,327.17004,120.87,510.89001,120.87
				c181.4801,0,353.03003-42.49011,505.26001-118.05005c261.74988-129.94995,466.34998-357.70001,566.00012-635.45001
				c22.62988-63.06006,39.83984-128.70001,51.08984-196.36005c5.58008-21.69,11.26001-43.70996,17.06006-66.06
				c51-196.44,162.19995-390.37994,347.76001-511.88995c144.84009-94.85004,63.94995-180.02002-1.38989-227.10005
				c-12.27002-8.83997-70.80005-41.82001-97.84009-55.31c-4.25-2.04999-9.95996-4.45996-16.3501-7.01001
				c9.05005-14.06995,19.45996-28.09998,31.47998-41.81995c79.81006-91.10004,206.54004-144.87006,377.06006-160.22003
				c13.36987,20.72003,39.75,30.09998,63.78003,21.09998C3358.93677-535.51062,3372.98682-566.38068,3362.60669-594.10065z"/>
		</defs>
		<clipPath id="SVGID_3_">
			<use xlink:href="#SVGID_2_"  style="overflow:visible;"/>
		</clipPath>
		<linearGradient id="SVGID_4_" gradientUnits="userSpaceOnUse" x1="552.59009" y1="1230.526" x2="2804.29614" y2="1230.526">
			<stop  offset="0" style="stop-color:#F2F2F2"/>
			<stop  offset="0.0779" style="stop-color:#E3E8E9;stop-opacity:0.94022"/>
			<stop  offset="0.2533" style="stop-color:#C7D5D7;stop-opacity:0.80561"/>
			<stop  offset="0.40624" style="stop-color:#B5C9CD;stop-opacity:0.68825"/>
			<stop  offset="0.51868" style="stop-color:#AFC5C9;stop-opacity:0.60196"/>
			<stop  offset="1" style="stop-color:#F2F2F2;stop-opacity:0"/>
		</linearGradient>
		<path class="st1" d="M2427.81445,988.01257c-52.56812,159.5498-111.40918,305.58447-175.56201,435.68835
			c-192.29663,31.1283-424.724,49.3385-675.08435,49.3385c-351.97705,0-668.54144-35.98633-887.92657-93.27625
			c-48.98376-103.96936-94.68536-217.38306-136.65143-339.15527c233.4342-46.78894,589.53931-48.849,1023.48352-48.849
			C1908.58447,991.75891,2212.80493,988.05646,2427.81445,988.01257z"/>
	</g>
</g>
<g id="Calque_2">
	<path class="st2" d="M3362.60669-594.10065c-10.37988-27.71002-41.25977-41.76001-68.96997-31.38
		c-14.3999,5.39001-25.05981,16.34003-30.57007,29.48999c-184.27979,16.58002-322.3999,76.27002-410.91992,177.82001
		c-16.18994,18.56-29.81982,37.53003-41.31006,56.42999c-6.22998-2.12-10.87988-3.64996-12.68994-4.17999
		c-32.81006-9.70001-98.04004-33.60999-174.87988-34.22998c7.67993-39.64001,19.85986-85.94,39.19995-132.75
		c61.1499-148.02002,164.68994-238.04004,308.16992-268.14001c9.80005,10.72003,23.8501,17.47998,39.52002,17.47998
		c29.59009,0,53.58008-23.98999,53.58008-53.57996c0-29.59003-23.98999-53.58002-53.58008-53.58002
		c-25.37988,0-46.59009,17.66998-52.12988,41.37c-158.08008,34.26001-275.82007,136.67999-342.3501,298.84998
		c-22.66992,55.24005-36.05005,109.07001-43.97998,153.63c-6.21997,0.87-12.47998,1.91003-18.78003,3.17004
		c-54.86011,10.95996-104.07007,30.04999-147.41992,56.84998c-207.04004-282.37-541.19995-465.71002-918.18005-465.71002
		c-389.20996,0-732.77997,195.42999-937.92999,493.51001c-29.01001-12.48999-60.13004-22.09998-93.32999-28.72998
		c-6.30005-1.26001-12.56-2.29999-18.79004-3.16998c-7.91998-44.56-21.31-98.39001-43.96997-153.62
		C326.76675-656.75067,209.01677-759.16064,50.94676-793.43066c-5.53998-23.70001-26.75-41.37-52.13-41.37
		c-29.58997,0-53.57996,23.98999-53.57996,53.58002c0,29.58997,23.98999,53.58002,53.57996,53.58002
		c15.67004,0,29.72003-6.76001,39.51001-17.48004c143.48004,30.11005,247.03001,120.12,308.17999,268.14001
		c19.34003,46.81,31.52002,93.10999,39.20001,132.75c-76.83997,0.62-142.06999,24.53003-174.87999,34.22998
		c-1.81,0.54004-6.46997,2.06-12.69,4.19c-11.48999-18.90997-25.13-37.88-41.31-56.44
		C68.30681-463.80066-69.81319-523.49066-254.09322-540.07062c-5.51003-13.14001-16.18001-24.09003-30.58003-29.49005
		c-27.70996-10.38-58.58997,3.67999-68.95996,31.39001c-10.38,27.71002,3.66998,58.59003,31.38,68.97003
		c24.02997,9,50.40997-0.39001,63.76996-21.11005c170.53004,15.35004,297.26001,69.13,377.06,160.22003
		c12.02002,13.71997,22.44,27.76001,31.48004,41.83002c-6.39001,2.53998-12.09003,4.94995-16.35004,7
		c-27.03998,13.48999-85.56,46.46999-97.83997,55.31996C-29.46321-178.87065-110.35323-93.70061,34.47679,1.14937
		c155.33002,101.70996,258.54999,254.15997,317.96997,416.34998c10.88,152.26001,51.71002,296.22998,116.65002,426.04999
		c109.73001,219.38,288.26999,398.3501,507.32999,508.62012c153.62,77.32996,327.17004,120.87,510.89001,120.87
		c181.4801,0,353.03003-42.49011,505.26001-118.05005c261.74988-129.94995,466.34998-357.70001,566.00012-635.45001
		c22.62988-63.06006,39.83984-128.70001,51.08984-196.36005c5.58008-21.69,11.26001-43.70996,17.06006-66.06
		c51-196.44,162.19995-390.37994,347.76001-511.88995c144.84009-94.85004,63.94995-180.02002-1.38989-227.10005
		c-12.27002-8.83997-70.80005-41.82001-97.84009-55.31c-4.25-2.04999-9.95996-4.45996-16.3501-7.01001
		c9.05005-14.06995,19.45996-28.09998,31.47998-41.81995c79.81006-91.10004,206.54004-144.87006,377.06006-160.22003
		c13.36987,20.72003,39.75,30.09998,63.78003,21.09998C3358.93677-535.51062,3372.98682-566.38068,3362.60669-594.10065z"/>
	<polyline class="st3" points="1892.49683,646.45935 2227.8667,646.45935 2227.8667,1088.27942 1892.49634,1088.27942 	"/>
	<polyline class="st3" points="2036.26672,1088.27942 1892.49683,1088.27942 1798.03674,1088.27942 1669.86682,1088.27942 
		1553.19678,1088.27942 1504.48682,1088.27942 1169.11682,1088.27942 1169.11682,646.45935 1504.48682,646.45935 	"/>
	<rect x="1504.4856" y="358.55875" class="st4" width="388.01083" height="729.72345"/>
	<rect x="1576.07361" y="817.39935" class="st5" width="244.83484" height="270.88281"/>
	<g>
		<path class="st6" d="M1602.95081,595.15833v3.88196h-5.27026v16.00952h-4.8457v-16.00952h-5.27014v-3.88196H1602.95081z
			 M1612.35779,599.81952c0.8501-0.50024,1.79443-0.75092,2.83374-0.75092v5.12878h-1.33191
			c-1.20911,0-2.11584,0.25983-2.72034,0.77905c-0.60461,0.51984-0.90662,1.43103-0.90662,2.7345v7.33887h-4.84534v-15.81116
			h4.84534v2.63513C1610.79919,601.00513,1611.50769,600.32025,1612.35779,599.81952z M1617.47217,602.83722
			c0.61365-1.22766,1.44958-2.17218,2.50781-2.8335c1.05762-0.66113,2.2384-0.99176,3.54175-0.99176
			c1.1145,0,2.09192,0.22668,2.93286,0.68005c0.84033,0.45337,1.48767,1.04846,1.94104,1.78503v-2.2384h4.84521v15.81116h-4.84521
			v-2.2384c-0.47253,0.73657-1.12903,1.3316-1.96936,1.78503c-0.84094,0.45337-1.81836,0.68005-2.93286,0.68005
			c-1.28479,0-2.45581-0.33527-3.51343-1.00598c-1.05823-0.67029-1.89417-1.62433-2.50781-2.86182
			c-0.61401-1.237-0.9209-2.66803-0.9209-4.29279C1616.55127,605.49152,1616.85815,604.06531,1617.47217,602.83722z
			 M1627.38965,604.28241c-0.6709-0.69867-1.48767-1.04846-2.45105-1.04846c-0.9635,0-1.78064,0.34485-2.45105,1.0343
			c-0.67065,0.68964-1.00586,1.63892-1.00586,2.84766c0,1.20911,0.33521,2.16754,1.00586,2.87598
			c0.67041,0.70844,1.48755,1.06262,2.45105,1.06262c0.96338,0,1.78015-0.34943,2.45105-1.04846
			c0.67017-0.69861,1.00598-1.65271,1.00598-2.86182C1628.39563,605.93555,1628.05981,604.98145,1627.38965,604.28241z
			 M1650.82263,600.86798c1.10522,1.19977,1.65771,2.84766,1.65771,4.9444v9.23743h-4.81702v-8.58569
			c0-1.05762-0.27405-1.87939-0.82178-2.46509c-0.54822-0.58527-1.28503-0.87842-2.21008-0.87842
			c-0.9259,0-1.66272,0.29315-2.21033,0.87842c-0.54797,0.58569-0.82178,1.40747-0.82178,2.46509v8.58569h-4.84521v-15.81116
			h4.84521v2.09668c0.49109-0.69861,1.15222-1.25116,1.98364-1.65747c0.83093-0.40607,1.76599-0.60925,2.80518-0.60925
			C1648.23938,599.0686,1649.71753,599.66846,1650.82263,600.86798z M1655.89453,602.83722
			c0.67029-1.22766,1.60547-2.17218,2.80542-2.8335c1.19922-0.66113,2.57361-0.99176,4.12256-0.99176
			c1.98364,0,3.64124,0.51984,4.9729,1.55853c1.33191,1.03906,2.20532,2.50323,2.62097,4.39178h-5.15686
			c-0.43494-1.2085-1.27515-1.81335-2.52197-1.81335c-0.88806,0-1.59656,0.34485-2.12512,1.0343
			c-0.52905,0.68964-0.79346,1.67664-0.79346,2.961c0,1.28473,0.2644,2.27173,0.79346,2.961
			c0.52856,0.68988,1.23706,1.0343,2.12512,1.0343c1.24683,0,2.08704-0.60449,2.52197-1.8136h5.15686
			c-0.41565,1.85175-1.29395,3.30609-2.63513,4.36371c-1.34167,1.05823-2.99426,1.58685-4.95874,1.58685
			c-1.54895,0-2.92334-0.33026-4.12256-0.99176c-1.19995-0.66095-2.13513-1.60541-2.80542-2.8335
			c-0.67065-1.22766-1.00598-2.66345-1.00598-4.30701S1655.22388,604.06531,1655.89453,602.83722z M1687.07764,600.86798
			c1.09521,1.19977,1.64331,2.84766,1.64331,4.9444v9.23743h-4.81702v-8.58569c0-1.05762-0.27405-1.87939-0.82178-2.46509
			c-0.54797-0.58527-1.28479-0.87842-2.21008-0.87842c-0.92578,0-1.66248,0.29315-2.21008,0.87842
			c-0.54822,0.58569-0.82178,1.40747-0.82178,2.46509v8.58569h-4.84534v-20.96826h4.84534v7.28217
			c0.49097-0.69867,1.16187-1.25598,2.01196-1.67169c0.84985-0.41528,1.80359-0.62341,2.86157-0.62341
			C1684.52734,599.0686,1685.98169,599.66846,1687.07764,600.86798z M1706.91223,608.30603h-10.96594
			c0.07544,0.98242,0.39197,1.73334,0.94934,2.25256c0.55713,0.5199,1.24182,0.7793,2.05432,0.7793
			c1.20874,0,2.04944-0.51007,2.52185-1.53021h5.1571c-0.26465,1.03906-0.74158,1.97418-1.43103,2.80536
			c-0.6897,0.83136-1.55396,1.48309-2.59265,1.95502c-1.03906,0.47235-2.20093,0.70844-3.48523,0.70844
			c-1.54907,0-2.92822-0.33026-4.13696-0.99176c-1.20911-0.66095-2.15344-1.60541-2.8335-2.8335
			c-0.68005-1.22766-1.02014-2.66345-1.02014-4.30701s0.33508-3.07892,1.00598-4.30701
			c0.67004-1.22766,1.61023-2.17218,2.81934-2.8335c1.20874-0.66113,2.59717-0.99176,4.16528-0.99176
			c1.53027,0,2.89014,0.32147,4.08032,0.96344c1.18994,0.64233,2.12024,1.55829,2.79102,2.74847
			c0.67029,1.19012,1.00598,2.57843,1.00598,4.16528C1706.99731,607.34259,1706.96899,607.81494,1706.91223,608.30603z
			 M1702.03857,605.61401c0-0.83093-0.28345-1.49207-0.84998-1.98334c-0.56677-0.49115-1.27515-0.73682-2.12524-0.73682
			c-0.81262,0-1.49731,0.23651-2.05444,0.70844c-0.55737,0.47235-0.90222,1.14307-1.0343,2.01172H1702.03857z M1729.92017,604.72162
			c-0.52881,0.9541-1.34143,1.724-2.43677,2.30927c-1.0957,0.58569-2.45593,0.87842-4.08032,0.87842h-3.00342v7.1405h-4.84546
			v-19.89148h7.84888c1.58691,0,2.92786,0.27399,4.02368,0.82178c1.09534,0.54797,1.91711,1.30328,2.46509,2.26672
			c0.54773,0.96344,0.82178,2.0686,0.82178,3.31525C1730.71362,602.71448,1730.44897,603.76794,1729.92017,604.72162z
			 M1725.10327,603.40393c0.45349-0.43439,0.68018-1.04846,0.68018-1.84186c0-0.79327-0.22668-1.40704-0.68018-1.84174
			c-0.45337-0.43439-1.14319-0.65173-2.0686-0.65173h-2.63501v4.98712h2.63501
			C1723.96008,604.05573,1724.6499,603.83881,1725.10327,603.40393z M1733.19263,602.83722
			c0.61389-1.22766,1.44983-2.17218,2.50781-2.8335c1.05774-0.66113,2.23865-0.99176,3.54199-0.99176
			c1.1145,0,2.09192,0.22668,2.93262,0.68005c0.84058,0.45337,1.48767,1.04846,1.94104,1.78503v-2.2384h4.84521v15.81116h-4.84521
			v-2.2384c-0.47253,0.73657-1.12878,1.3316-1.96936,1.78503c-0.8407,0.45337-1.81812,0.68005-2.93262,0.68005
			c-1.28503,0-2.45593-0.33527-3.51367-1.00598c-1.05798-0.67029-1.89392-1.62433-2.50781-2.86182
			c-0.61377-1.237-0.92065-2.66803-0.92065-4.29279C1732.27197,605.49152,1732.57886,604.06531,1733.19263,602.83722z
			 M1743.11023,604.28241c-0.67078-0.69867-1.48779-1.04846-2.45117-1.04846c-0.96326,0-1.78064,0.34485-2.45081,1.0343
			c-0.6709,0.68964-1.00586,1.63892-1.00586,2.84766c0,1.20911,0.33496,2.16754,1.00586,2.87598
			c0.67017,0.70844,1.48755,1.06262,2.45081,1.06262c0.96338,0,1.7804-0.34943,2.45117-1.04846
			c0.67029-0.69861,1.00586-1.65271,1.00586-2.86182C1744.11609,605.93555,1743.78052,604.98145,1743.11023,604.28241z
			 M1768.62598,599.23865l-9.9176,23.32001h-5.2135l3.62683-8.04724l-6.43225-15.27277h5.41211l3.65527,9.88898l3.6272-9.88898
			H1768.62598z"/>
		<path class="st6" d="M1646.72424,571.68854l-61.58691,0.15552l30.10071-24.64081
			C1623.40869,557.84143,1634.23462,566.33276,1646.72424,571.68854z M1750.30542,499.27435
			c0,40.0791-32.4906,72.5697-72.5697,72.5697s-72.5697-32.4906-72.5697-72.5697s32.4906-72.5697,72.5697-72.5697
			S1750.30542,459.19522,1750.30542,499.27435z M1731.8894,499.27435c0-29.90823-24.24536-54.15372-54.15369-54.15372
			c-29.9082,0-54.15369,24.24548-54.15369,54.15372c0,29.90826,24.24548,54.15375,54.15369,54.15375
			C1707.64404,553.4281,1731.8894,529.18262,1731.8894,499.27435z M1674.1792,523.65381l30.51099-48.75894l-33.10278,34.93616
			l-20.80615-16.44815L1674.1792,523.65381z M1834.29114,413.49734c-0.70288-1.87665-2.79407-2.82816-4.67065-2.12531
			c-0.97522,0.36526-1.69727,1.10675-2.07056,1.9968c-12.47974,1.12292-21.83337,5.16507-27.828,12.04205
			c-1.09595,1.25723-2.01917,2.54193-2.79724,3.82208c-0.42188-0.14392-0.73669-0.24719-0.85962-0.28351
			c-2.22205-0.6568-6.6394-2.27594-11.84314-2.31808c0.52002-2.68439,1.34509-5.81995,2.65466-8.99002
			c4.14111-10.02393,11.15344-16.11984,20.87-18.15863c0.66357,0.72589,1.61511,1.18399,2.6759,1.18399
			c2.00403,0,3.62854-1.62451,3.62854-3.62848s-1.62451-3.62848-3.62854-3.62848c-1.71887,0-3.15527,1.19656-3.53003,2.80127
			c-10.70508,2.32071-18.67883,9.25623-23.18457,20.23886c-1.53467,3.74072-2.44104,7.38626-2.97778,10.40359
			c-0.42139,0.05881-0.84546,0.1293-1.27197,0.21451c-20.34534,4.06424-29.19507,24.64688-24.45935,56.87308
			c0.97876,4.95981,1.49329,10.08636,1.49329,15.33328c0,20.36499-7.72986,38.92438-20.41541,52.90491
			c-2.80334,3.1662-5.89282,6.07434-9.23657,8.6709c-5.56213,4.44147-11.73877,8.14569-18.38281,10.96307
			c0.08887,0.01929,0.17358,0.03119,0.25806,0.03076c11.53247-1.9137,22.54053-5.99054,32.92883-11.99817
			c28.97449-15.59198,33.40295-38.92059,42.81226-75.15939c3.45398-13.30276,10.98438-26.4368,23.5509-34.6658
			c9.80859-6.42297,4.33069-12.19095-0.09412-15.37885c-0.83118-0.59875-4.79468-2.83264-6.62585-3.7457
			c-0.28821-0.13895-0.67444-0.30243-1.10718-0.4747c0.61255-0.95279,1.31787-1.90305,2.13196-2.83237
			c5.4043-6.16904,13.98669-9.81094,25.53467-10.84998c0.90491,1.40271,2.69177,2.03839,4.31897,1.42896
			C1834.04248,417.46512,1834.9939,415.37399,1834.29114,413.49734z"/>
	</g>
	<line class="st5" x1="1698.49097" y1="817.39935" x2="1698.49097" y2="1088.28223"/>
	<path class="st7" d="M1738.36682,966.88934c-0.83008,4.17004-4.5,7.31-8.91003,7.31c-5.02002,0-9.08008-4.06995-9.08008-9.08997
		c0-5.01001,4.06006-9.08002,9.08008-9.08002c4.30994,0,7.91992,3.01001,8.84998,7.03003"/>
	<path class="st7" d="M1750.65454,967.61121l-19.80603-1.16382c-0.78088-0.04584-1.39075-0.6925-1.39075-1.47479l0,0
		c0-0.78229,0.60986-1.42896,1.39075-1.47485l19.80603-1.16376c0.84863-0.04987,1.56409,0.62482,1.56409,1.47479v2.32758
		C1752.21863,966.98639,1751.50317,967.66107,1750.65454,967.61121z"/>
	<rect x="1947.38672" y="830.98932" class="st8" width="204.90015" height="112.85004"/>
	<g>
		<path class="st6" d="M2014.37085,860.10443v20.39453h-3.3457v-13.96777l-6.2207,13.96777h-2.31836l-6.25098-13.96777v13.96777
			h-3.34473v-20.39453h3.60938l7.16016,15.99316l7.13086-15.99316H2014.37085z"/>
		<path class="st6" d="M2033.47339,873.66205h-12.35352c0.09766,1.29102,0.57617,2.32812,1.4375,3.11035
			c0.86035,0.78223,1.91699,1.17383,3.16895,1.17383c1.7998,0,3.07129-0.75293,3.81543-2.25977h3.60938
			c-0.48926,1.4873-1.375,2.70508-2.65625,3.65332c-1.28125,0.94922-2.87109,1.42285-4.76855,1.42285
			c-1.54492,0-2.92969-0.34668-4.15234-1.04102s-2.18164-1.67285-2.875-2.93457c-0.69531-1.26172-1.04199-2.72461-1.04199-4.3877
			c0-1.66211,0.33691-3.125,1.0127-4.38672c0.6748-1.26172,1.62305-2.23438,2.8457-2.91992
			c1.22266-0.68457,2.62695-1.02637,4.21094-1.02637c1.52637,0,2.88574,0.33203,4.0791,0.99707s2.12305,1.59961,2.78809,2.80273
			s0.99707,2.58691,0.99707,4.15234C2033.59058,872.62494,2033.55151,873.17279,2033.47339,873.66205z M2030.09937,870.96185
			c-0.02051-1.23242-0.45996-2.21973-1.32129-2.96387c-0.86035-0.74316-1.92676-1.11523-3.19824-1.11523
			c-1.1543,0-2.14258,0.36719-2.96387,1.10059s-1.31055,1.72656-1.4668,2.97852H2030.09937z"/>
		<path class="st6" d="M2039.32788,880.07318c-1.00781-0.45898-1.80469-1.08594-2.3916-1.87793s-0.90039-1.67676-0.93945-2.65527
			h3.46289c0.05859,0.68457,0.38574,1.25684,0.9834,1.7168c0.5957,0.45996,1.34473,0.68945,2.24414,0.68945
			c0.93945,0,1.66797-0.18066,2.18652-0.54297s0.77734-0.82617,0.77734-1.39453c0-0.60547-0.28809-1.05566-0.86523-1.34961
			c-0.57715-0.29297-1.49219-0.61621-2.74414-0.96777c-1.21289-0.33301-2.2002-0.65527-2.96387-0.96875
			c-0.7627-0.3125-1.42285-0.79199-1.98047-1.4375s-0.83594-1.49707-0.83594-2.55371c0-0.86035,0.25391-1.64746,0.7627-2.3623
			c0.50879-0.71387,1.2373-1.27637,2.18652-1.68652c0.94824-0.41113,2.03906-0.61621,3.27148-0.61621
			c1.83887,0,3.32031,0.46484,4.44531,1.39355c1.125,0.92969,1.72656,2.19629,1.80469,3.7998h-3.34473
			c-0.05859-0.72363-0.35254-1.30078-0.88086-1.73145c-0.52734-0.42969-1.24219-0.64551-2.1416-0.64551
			c-0.88086,0-1.55566,0.16699-2.02539,0.49902c-0.46875,0.33301-0.7041,0.77344-0.7041,1.32031
			c0,0.43066,0.15625,0.79297,0.46973,1.08594c0.3125,0.29395,0.69434,0.52344,1.14453,0.68945
			c0.4502,0.16699,1.11523,0.37695,1.99512,0.63086c1.17383,0.31348,2.1377,0.63086,2.89062,0.9541
			c0.75293,0.32227,1.40332,0.79688,1.95117,1.42285c0.54785,0.62695,0.83203,1.45801,0.85156,2.49414
			c0,0.91992-0.25488,1.74219-0.7627,2.46582c-0.50977,0.72363-1.22852,1.29102-2.15723,1.70117
			c-0.92969,0.41113-2.02051,0.61621-3.27246,0.61621C2041.47437,880.76263,2040.33472,880.53314,2039.32788,880.07318z"/>
		<path class="st6" d="M2054.9978,880.07318c-1.00781-0.45898-1.80469-1.08594-2.3916-1.87793s-0.90039-1.67676-0.93945-2.65527
			h3.46289c0.05859,0.68457,0.38574,1.25684,0.9834,1.7168c0.5957,0.45996,1.34473,0.68945,2.24414,0.68945
			c0.93945,0,1.66797-0.18066,2.18652-0.54297s0.77734-0.82617,0.77734-1.39453c0-0.60547-0.28809-1.05566-0.86523-1.34961
			c-0.57715-0.29297-1.49219-0.61621-2.74414-0.96777c-1.21289-0.33301-2.2002-0.65527-2.96387-0.96875
			c-0.7627-0.3125-1.42285-0.79199-1.98047-1.4375s-0.83594-1.49707-0.83594-2.55371c0-0.86035,0.25391-1.64746,0.7627-2.3623
			c0.50879-0.71387,1.2373-1.27637,2.18652-1.68652c0.94824-0.41113,2.03906-0.61621,3.27148-0.61621
			c1.83887,0,3.32031,0.46484,4.44531,1.39355c1.125,0.92969,1.72656,2.19629,1.80469,3.7998h-3.34473
			c-0.05859-0.72363-0.35254-1.30078-0.88086-1.73145c-0.52734-0.42969-1.24219-0.64551-2.1416-0.64551
			c-0.88086,0-1.55566,0.16699-2.02539,0.49902c-0.46875,0.33301-0.7041,0.77344-0.7041,1.32031
			c0,0.43066,0.15625,0.79297,0.46973,1.08594c0.3125,0.29395,0.69434,0.52344,1.14453,0.68945
			c0.4502,0.16699,1.11523,0.37695,1.99512,0.63086c1.17383,0.31348,2.1377,0.63086,2.89062,0.9541
			c0.75293,0.32227,1.40332,0.79688,1.95117,1.42285c0.54785,0.62695,0.83203,1.45801,0.85156,2.49414
			c0,0.91992-0.25488,1.74219-0.7627,2.46582c-0.50977,0.72363-1.22852,1.29102-2.15723,1.70117
			c-0.92969,0.41113-2.02051,0.61621-3.27246,0.61621C2057.14429,880.76263,2056.00464,880.53314,2054.9978,880.07318z"/>
		<path class="st6" d="M2068.11499,868.02728c0.6748-1.25195,1.59375-2.22461,2.75781-2.91992
			c1.16406-0.69434,2.4502-1.04102,3.85938-1.04102c1.27148,0,2.38086,0.24902,3.33008,0.74805s1.70703,1.12012,2.27441,1.86328
			v-2.34766h3.375v16.16895h-3.375v-2.40625c-0.56738,0.7627-1.33984,1.39844-2.31836,1.90723s-2.09375,0.7627-3.3457,0.7627
			c-1.38867,0-2.66016-0.35645-3.81445-1.07031s-2.06836-1.71191-2.74316-2.99316c-0.67578-1.28125-1.0127-2.73438-1.0127-4.3584
			C2067.10229,870.71771,2067.43921,869.27924,2068.11499,868.02728z M2079.64722,869.49506
			c-0.45996-0.82227-1.06152-1.44824-1.80469-1.87891c-0.74414-0.42969-1.5459-0.64551-2.40625-0.64551
			c-0.86133,0-1.66309,0.21094-2.40625,0.63086c-0.74414,0.4209-1.3457,1.03711-1.80469,1.84961
			c-0.45996,0.81152-0.68945,1.77441-0.68945,2.88965s0.22949,2.09375,0.68945,2.93457
			c0.45898,0.8418,1.06543,1.48242,1.81934,1.92188c0.75293,0.44043,1.5498,0.66113,2.3916,0.66113
			c0.86035,0,1.66211-0.21582,2.40625-0.64551c0.74316-0.43066,1.34473-1.06152,1.80469-1.89355
			c0.45898-0.83105,0.68945-1.80469,0.68945-2.91992C2080.33667,871.2851,2080.1062,870.31635,2079.64722,869.49506z"/>
		<path class="st6" d="M2097.95776,864.81439c0.96875,0.49902,1.72656,1.12012,2.27441,1.86328v-2.34766h3.375v16.43262
			c0,1.4873-0.31348,2.8125-0.93945,3.97656s-1.53125,2.07812-2.71484,2.74414c-1.18359,0.66406-2.59668,0.99707-4.24023,0.99707
			c-2.19043,0-4.00977-0.51367-5.45801-1.54004c-1.44727-1.02734-2.26953-2.4209-2.46484-4.18164h3.31641
			c0.25391,0.84082,0.79688,1.52051,1.62793,2.03906c0.83203,0.51855,1.82422,0.77734,2.97852,0.77734
			c1.35059,0,2.44043-0.41016,3.27246-1.23242c0.83105-0.82129,1.24707-2.01465,1.24707-3.58008v-2.69922
			c-0.56738,0.7627-1.33496,1.4043-2.30371,1.92188c-0.96875,0.51855-2.06836,0.77734-3.30078,0.77734
			c-1.40918,0-2.69531-0.35645-3.85938-1.07031s-2.08301-1.71191-2.75781-2.99316c-0.67578-1.28125-1.0127-2.73438-1.0127-4.3584
			c0-1.62305,0.33691-3.06152,1.0127-4.31348c0.6748-1.25195,1.59375-2.22461,2.75781-2.91992
			c1.16406-0.69434,2.4502-1.04102,3.85938-1.04102C2095.87866,864.06635,2096.98999,864.31537,2097.95776,864.81439z
			 M2099.54272,869.49506c-0.45996-0.82227-1.06152-1.44824-1.80469-1.87891c-0.74414-0.42969-1.5459-0.64551-2.40625-0.64551
			c-0.86133,0-1.66309,0.21094-2.40625,0.63086c-0.74414,0.4209-1.3457,1.03711-1.80469,1.84961
			c-0.45996,0.81152-0.68945,1.77441-0.68945,2.88965s0.22949,2.09375,0.68945,2.93457
			c0.45898,0.8418,1.06543,1.48242,1.81934,1.92188c0.75293,0.44043,1.5498,0.66113,2.3916,0.66113
			c0.86035,0,1.66211-0.21582,2.40625-0.64551c0.74316-0.43066,1.34473-1.06152,1.80469-1.89355
			c0.45898-0.83105,0.68945-1.80469,0.68945-2.91992C2100.23218,871.2851,2100.00171,870.31635,2099.54272,869.49506z"/>
		<path class="st6" d="M2122.70972,873.66205h-12.35352c0.09766,1.29102,0.57617,2.32812,1.4375,3.11035
			c0.86035,0.78223,1.91699,1.17383,3.16895,1.17383c1.7998,0,3.07129-0.75293,3.81543-2.25977h3.60938
			c-0.48926,1.4873-1.375,2.70508-2.65625,3.65332c-1.28125,0.94922-2.87109,1.42285-4.76855,1.42285
			c-1.54492,0-2.92969-0.34668-4.15234-1.04102s-2.18164-1.67285-2.875-2.93457c-0.69531-1.26172-1.04199-2.72461-1.04199-4.3877
			c0-1.66211,0.33691-3.125,1.0127-4.38672c0.6748-1.26172,1.62305-2.23438,2.8457-2.91992
			c1.22266-0.68457,2.62695-1.02637,4.21094-1.02637c1.52637,0,2.88574,0.33203,4.0791,0.99707s2.12305,1.59961,2.78809,2.80273
			s0.99707,2.58691,0.99707,4.15234C2122.8269,872.62494,2122.78784,873.17279,2122.70972,873.66205z M2119.33569,870.96185
			c-0.02051-1.23242-0.45996-2.21973-1.32129-2.96387c-0.86035-0.74316-1.92676-1.11523-3.19824-1.11523
			c-1.1543,0-2.14258,0.36719-2.96387,1.10059s-1.31055,1.72656-1.4668,2.97852H2119.33569z"/>
	</g>
	<rect x="2012.21106" y="904.04474" class="st9" width="75.25149" height="17.44026"/>
	<rect x="2035.90186" y="943.83936" class="st3" width="27.86987" height="247.84003"/>
	<line class="st9" x1="1408.96472" y1="795.80182" x2="1461.68164" y2="783.36298"/>
	<line class="st9" x1="1408.96472" y1="812.3869" x2="1461.68164" y2="800.83655"/>
	<line class="st9" x1="1413.99951" y1="829.86053" x2="1461.68164" y2="819.19867"/>
	<path class="st9" d="M1417.55347,848.40973"/>
	<path class="st9" d="M1465.2356,836.96844"/>
	<line class="st9" x1="1417.55347" y1="848.40973" x2="1465.2356" y2="836.96844"/>
	<line class="st9" x1="1422.88428" y1="863.91925" x2="1468.19727" y2="854.73822"/>
</g>
<g id="Calque_3">
	<g>
		<defs>
			<path id="SVGID_5_" d="M3362.60669-594.10065c-10.37988-27.71002-41.25977-41.76001-68.96997-31.38
				c-14.3999,5.39001-25.05981,16.34003-30.57007,29.48999c-184.27979,16.58002-322.3999,76.27002-410.91992,177.82001
				c-16.18994,18.56-29.81982,37.53003-41.31006,56.42999c-6.22998-2.12-10.87988-3.64996-12.68994-4.17999
				c-32.81006-9.70001-98.04004-33.60999-174.87988-34.22998c7.67993-39.64001,19.85986-85.94,39.19995-132.75
				c61.1499-148.02002,164.68994-238.04004,308.16992-268.14001c9.80005,10.72003,23.8501,17.47998,39.52002,17.47998
				c29.59009,0,53.58008-23.98999,53.58008-53.57996c0-29.59003-23.98999-53.58002-53.58008-53.58002
				c-25.37988,0-46.59009,17.66998-52.12988,41.37c-158.08008,34.26001-275.82007,136.67999-342.3501,298.84998
				c-22.66992,55.24005-36.05005,109.07001-43.97998,153.63c-6.21997,0.87-12.47998,1.91003-18.78003,3.17004
				c-54.86011,10.95996-104.07007,30.04999-147.41992,56.84998c-207.04004-282.37-541.19995-465.71002-918.18005-465.71002
				c-389.20996,0-732.77997,195.42999-937.92999,493.51001c-29.01001-12.48999-60.13004-22.09998-93.32999-28.72998
				c-6.30005-1.26001-12.56-2.29999-18.79004-3.16998c-7.91998-44.56-21.31-98.39001-43.96997-153.62
				C326.76675-656.75067,209.01677-759.16064,50.94676-793.43066c-5.53998-23.70001-26.75-41.37-52.13-41.37
				c-29.58997,0-53.57996,23.98999-53.57996,53.58002c0,29.58997,23.98999,53.58002,53.57996,53.58002
				c15.67004,0,29.72003-6.76001,39.51001-17.48004c143.48004,30.11005,247.03001,120.12,308.17999,268.14001
				c19.34003,46.81,31.52002,93.10999,39.20001,132.75c-76.83997,0.62-142.06999,24.53003-174.87999,34.22998
				c-1.81,0.54004-6.46997,2.06-12.69,4.19c-11.48999-18.90997-25.13-37.88-41.31-56.44
				C68.30681-463.80066-69.81319-523.49066-254.09322-540.07062c-5.51003-13.14001-16.18001-24.09003-30.58003-29.49005
				c-27.70996-10.38-58.58997,3.67999-68.95996,31.39001c-10.38,27.71002,3.66998,58.59003,31.38,68.97003
				c24.02997,9,50.40997-0.39001,63.76996-21.11005c170.53004,15.35004,297.26001,69.13,377.06,160.22003
				c12.02002,13.71997,22.44,27.76001,31.48004,41.83002c-6.39001,2.53998-12.09003,4.94995-16.35004,7
				c-27.03998,13.48999-85.56,46.46999-97.83997,55.31996C-29.46321-178.87065-110.35323-93.70061,34.47679,1.14937
				c155.33002,101.70996,258.54999,254.15997,317.96997,416.34998c10.88,152.26001,51.71002,296.22998,116.65002,426.04999
				c109.73001,219.38,288.26999,398.3501,507.32999,508.62012c153.62,77.32996,327.17004,120.87,510.89001,120.87
				c181.4801,0,353.03003-42.49011,505.26001-118.05005c261.74988-129.94995,466.34998-357.70001,566.00012-635.45001
				c22.62988-63.06006,39.83984-128.70001,51.08984-196.36005c5.58008-21.69,11.26001-43.70996,17.06006-66.06
				c51-196.44,162.19995-390.37994,347.76001-511.88995c144.84009-94.85004,63.94995-180.02002-1.38989-227.10005
				c-12.27002-8.83997-70.80005-41.82001-97.84009-55.31c-4.25-2.04999-9.95996-4.45996-16.3501-7.01001
				c9.05005-14.06995,19.45996-28.09998,31.47998-41.81995c79.81006-91.10004,206.54004-144.87006,377.06006-160.22003
				c13.36987,20.72003,39.75,30.09998,63.78003,21.09998C3358.93677-535.51062,3372.98682-566.38068,3362.60669-594.10065z"/>
		</defs>
		<clipPath id="SVGID_6_">
			<use xlink:href="#SVGID_5_"  style="overflow:visible;"/>
		</clipPath>
		<path class="st10" d="M1318.84119,908.12085c6.61133-10.59253,15.13831-23.73535,21.21106-38.55261
			c6.13086-9.11774,18.4884-60.6098,12.18372-70.57281c-8.08716-3.10016-24.20898,35.96332-31.38428,40.12494
			c-9.54468,4.89319-22.71436,19.17474-19.55042,30.22034C1307.38391,878.15405,1317.6095,904.71741,1318.84119,908.12085z"/>
		<path class="st11" d="M1335.40723,906.62408c-2.52393,1.63562-4.98279,4.01074-5.09521,7.01624
			c-0.04443,1.18781,0.29041,2.35596,0.68091,3.47852c0.40747,1.17084,0.88538,2.33069,1.60059,3.3432
			c0.68408,0.96826,1.56665,1.77612,2.44202,2.57574c0.83423,0.76221,1.66858,1.52441,2.50293,2.28662
			c1.14233,1.04364,1.41821,2.48993,2.95667,2.65509c0.74329,0.07983,1.48706-0.15961,2.15796-0.48956
			c3.52625-1.73425,5.2959-5.72748,6.30127-9.52631c0.71411-2.69812,1.18457-5.55524,0.52942-8.26825
			c-0.65515-2.71295-1.43823,0.85309-4.17126,0.28729c-2.28015-0.47205,0.79871-1.76532-4.70752-3.07898
			C1339.56299,906.65509,1336.30615,906.04156,1335.40723,906.62408z"/>
		<path class="st11" d="M1330.63171,941.13916c-2.27283-1.92834-4.34888-4.0885-6.1853-6.4361
			c-1.00793-1.28845-1.97388-2.70807-2.16821-4.33228c-0.27075-2.26318,1.21106-4.61542,3.36938-5.34833
			c2.46802-0.83807,3.69409-1.05725,5.77808,0.50818c1.745,1.31085,2.15686,2.12555,2.64868,2.46429
			c1.29602,0.89246,2.60095,2.07947,3.61475,3.28284c1.09009,1.29388,1.82581-0.80145,2.91589,0.49243
			C1337.89392,935.45673,1334.53625,938.75293,1330.63171,941.13916z"/>
		<path class="st12" d="M734.58466,1272.49182c-1.73065,55.12195,10.16608,109.37622,16.06207,163.94141
			c3.53278,25.80322,3.112,52.01929,10.05914,77.25879c25.11316-2.12854,49.14069-6.17627,73.78723-11.44409
			c-7.04974-34.32703-8.80127-59.18738-7.20593-108.78027c1.40753-43.75415,9.37042-93.28088,5.48419-137.18726
			C822.50006,1217.82983,750.19989,1246.19885,734.58466,1272.49182z"/>
		<path class="st12" d="M940.00177,846.20465c0.39807,2.25507,3.2796,18.20386,3.71686,21.99164
			c0.88348,7.65259,0.38727,15.46887-1.52051,22.935c-1.70001,6.65289-4.51727,13.01288-8.25665,18.76984
			c-1.88873,2.90784-4.01324,5.66284-6.349,8.22559c-1.99884,2.19318-4.04846,4.52429-6.78766,5.7536
			c-0.77612,0.34833-1.50366,0.72815-2.23016,1.17371c52.66119-7.15143,105.46332-3.45178,158.5257-0.49603
			c-6.92566-7.2215-9.90405-17.51544-10.16357-27.51782c-0.2594-10.00232,1.93909-19.88678,4.12512-29.65082
			c1.01807-4.54694,2.13452-9.29547,5.18054-12.82147c2.72742-3.15729,6.67163-4.94397,10.48523-6.63599
			c6.58081-2.91968,13.1615-5.83929,19.74219-8.75897c12.13745-5.38501,23.38586-14.84521,28.48022-27.10748
			c2.17029-5.22406,2.85864-10.92462,3.52576-16.54211c0.52295-4.40344,1.0459-8.80688,1.56885-13.21033
			c0.28381-2.3902,0.91223-4.9306,0.76172-7.34949c-0.07837-1.25995-0.28491-2.28113-0.08057-3.56268
			c0.60352-3.78619,1.31079-7.55505,1.89355-11.34552c1.16504-7.57849,2.13599-15.18677,2.91138-22.81494
			c0.75903-7.46625,1.32568-15.05969-0.07861-22.43182c-1.4043-7.37219-5.00867-14.59955-11.14148-18.92493
			c-15.91956-11.22791-34.95203-10.95001-54.39783-9.78363c-21.88818,1.31281-43.55579,6.2334-63.86407,14.50305
			c-19.86218,8.08801-39.03265,19.96082-50.70251,37.95355c-7.11066,10.96326-11.07721,23.61707-14.9621,36.09357
			C942.89221,798.7113,935.62134,821.38776,940.00177,846.20465z"/>
		<path class="st13" d="M1139.52576,620.54797c-5.98157,0.97168-12.40515-1.59033-16.07617-6.41193
			c-1.31531-1.72742-2.35583-3.76843-4.19214-4.92688c-1.58691-1.00122-3.53467-1.18945-5.32898-1.73834
			c-6.48547-1.98401-10.4032-8.36694-13.98438-14.12775c-2.36389-3.80255-5.09912-8.51068-9.4585-10.27527
			c-1.75781-0.71149-3.16113-1.6665-4.75562-2.68878c-3.47253-2.22644-7.32776-3.77631-11.2572-4.98871
			c-8.1521-2.51526-16.67065-3.62891-24.77979-6.30054c-3.27405-1.07867-6.4751-2.41205-9.44312-4.17572
			c-3.23584-1.92285-6.21069-4.36249-9.74402-5.65997c-4.80969-1.76617-10.11804-1.23334-15.21136-0.67657
			c-8.14496,0.89026-16.48145,1.83459-23.83099,5.45654c-1.89246,0.93262-3.71735,2.04205-5.73767,2.64996
			c-2.54364,0.76532-5.25226,0.69409-7.90814,0.64679c-15.20032-0.27069-32.04871,1.15747-42.58319,12.11871
			c-5.55487,5.77985-8.79236,13.74658-15.29736,18.43146c-3.71039,2.67218-8.24585,4.078-11.79468,6.96136
			c-7.03748,5.71783-8.94171,16.13647-16.11224,21.68658c-5.2868,4.0921-12.46643,4.76874-18.27386,8.08087
			c-7.1413,4.07288-11.43396,11.60028-16.32074,18.21124c-6.86957,9.29321-15.52466,17.39716-20.65851,27.75079
			c-6.534,13.17755-6.65515,28.49377-6.64117,43.20233c0.0152,16.0354,0.13586,32.60022,6.55872,47.29315
			c3.29498,7.53766,8.13153,14.2818,12.93164,20.96252c2.76746,3.85168,5.53491,7.70343,8.30231,11.55511
			c1.5603,2.17157,3.23822,4.44073,5.68933,5.5094c4.70386,2.0509,9.95337-1.05713,15.07031-1.44312
			c8.27112-0.6239,18.09717,5.5022,23.95526-0.37012c6.08118,6.93585,5.72424,17.56903,11.11316,25.05548
			c7.59113,10.5459,22.09924,12.80817,35.0351,14.03491c3.54974,0.33661,7.14575,0.67114,10.49921,1.88287
			c2.34894,0.84875,4.54297,2.11652,6.94861,2.78778c2.99365,0.83533,6.16388,0.70667,9.26312,0.47327
			c6.21899-0.46838,12.42548-1.31226,18.53149-2.58777c1.65112-0.34485,2.7121-0.35614,4.37604-0.22473
			c2.42255,0.19141,4.84979,0.32257,7.27887,0.39398c4.85785,0.14276,9.7226,0.04651,14.57123-0.28424
			c9.69879-0.66156,19.33307-2.26129,28.7265-4.76392c10.89514-2.90271,21.46887-7.02167,31.43433-12.29877
			c8.28259-4.38599,16.35718-9.74542,21.70544-17.44177c4.27185-6.14728,6.55603-13.42102,8.77991-20.56885
			c0.80188-2.57721,1.61157-5.29828,1.03113-7.9342c-0.62463-2.83667-2.73853-5.06213-4.3053-7.508
			c-7.20288-11.24377-2.52478-25.99225,2.32971-38.43164c2.03174-5.20605,4.13965-10.53778,7.88892-14.68188
			s9.5553-6.90649,14.9635-5.49878c2.70862,0.70502,5.07251,2.36719,7.72498,3.2608
			c2.65247,0.89368,4.07239,4.54279,5.76843,2.31616c1.24829-1.63885,3.15662-7.6485,3.0553-9.70618
			c-0.2373-4.81854-0.47461-9.63715-0.71191-14.45569c-0.48962-9.94427-1.5426-17.94226-1.54199-27.89856
			c0.00061-8.91821,0.00122-17.83643-0.00659-26.75458c-0.00256-2.96582-0.00903-5.95941-0.6521-8.85468
			c-0.45496-2.04828-1.22119-4.01221-1.9845-5.96667C1143.0415,627.97821,1140.95032,624.19525,1139.52576,620.54797z"/>
		<path class="st12" d="M1300.11743,875.91589c-4.89905,4.87903-10.45422,9.09845-16.46875,12.50879
			c-1.276,0.72351-2.5824,1.41754-3.70386,2.36298c-1.50671,1.27026-2.61511,2.93848-3.93152,4.40497
			c-1.3822,1.53973-2.26648,2.79163-2.81958,4.80023c-0.1394,0.5061-0.28943,1.00665-0.47961,1.49634
			c-0.28149,0.7243-0.66284,1.40479-0.9408,2.13025c-0.59131,1.54285-0.6283,3.21344-1.09143,4.75842
			c-0.1969,0.65717-0.38782,1.3161-0.56213,1.98114c-0.3468,1.323-0.66602,2.6532-0.95801,3.98938
			c-0.58374,2.67218-1.05762,5.36829-1.422,8.0791c-0.72888,5.42242-1.01904,10.9035-0.87256,16.37262
			c0.26526,9.89801,1.96204,19.7616,5.08105,29.16125c11.09863,33.44769,14.47363,67.59882,22.32593,101.9538
			c6.58606,28.81445-12.42432,58.06421-27.14758,83.6936c-12.59949,21.93237-29.95911,42.94348-31.28699,68.20239
			c-0.92603,17.61658,8.27954,33.29541,18.42883,46.9458c8.40198,11.29993,17.5863,22.04102,25.83655,33.42664
			c3.8313,5.28748,8.12097,10.21875,12.40283,15.14111c3.49658,4.01965,6.99304,8.03918,10.48962,12.05872
			c3.03784,3.49219,6.08582,6.99487,9.53784,10.07825c8.12415,7.25659,18.19189,11.9397,28.297,16.00781
			c2.70251,1.08789,5.47876,2.15283,8.38855,2.29688c2.72266,0.13489,5.41711-0.54517,8.02673-1.33325
			c4.73523-1.43018,9.4989-3.32422,13.02795-6.79028c7.48584-7.35217,11.15198-17.30139,13.47131-27.3241
			c1.20203-5.19421,2.10107-10.45264,3.08582-15.69055c0.18811-1.00012,0.03992-1.91309,0.16882-2.89478
			c0.32275-2.46045,1.06079-4.8999,1.44836-7.3606c0.39111-2.48254,0.68604-4.97998,0.8988-7.48413
			c0.85742-10.09644,0.38196-20.25427-0.49023-30.33228c-0.69092-7.98425-1.42932-15.9873-2.30664-23.96033
			c-0.56042-5.09497-1.24536-10.17615-2.05371-15.23767c-2.1427-13.41711-5.63379-26.45361-8.61804-39.67615
			c-1.35938-6.02332-2.6283-12.06641-3.89832-18.10901c-2.53406-12.05701-5.06982-24.125-8.33838-36.00903
			c-2.56006-9.30823-4.49988-18.88611-6.99609-28.26917c-2.31921-8.71802-4.75842-17.40405-7.31665-26.05493
			c-5.11658-17.30164-10.70923-34.46265-16.77002-51.45654c-0.93945-2.63403-1.89014-5.2641-2.85205-7.89001
			c8.98462-11.98981,17.46814-23.64709,25.99548-35.96637c5.35583-7.73761,8.82861-14.34534,14.06091-22.16699
			c-0.35718-5.77966-1.5614-11.85999-1.91858-17.63971c-0.37451-6.06085-0.77209-12.23169-2.94714-17.90118
			c-0.27344-0.71283-0.57935-1.44244-0.55261-2.20544c0.02051-0.58368,0.23535-1.14111,0.4563-1.68176
			c1.01099-2.47443,2.61426-4.49805,2.52686-8.91272c-0.01843-0.92987-2.21179-3.38153-2.50415-3.94366
			c-0.29858-0.57416-0.66455-0.86456-1.18396-1.25989c-1.35864-1.034-2.65735-2.14459-3.92017-3.29297
			c-2.53357-2.30396-4.92114-4.76123-7.40332-7.11926c-4.79126-4.55182-10.20667-8.88403-15.64404-12.64044
			c-0.00903-0.00629-4.58496,6.96906-5.04602,7.96826c-1.42749,3.09332-1.64685,4.62714-1.44788,6.0603
			c0.53088,3.82379,2.18811,7.44818,4.41052,10.57941c3.26672,4.60242,7.67261,8.25256,12.0249,11.84576
			c-4.11438,4.79596-6.60803,10.75067-10.17432,15.9671c-5.08081,7.43158-12.39734,13.31329-20.74719,16.67847
			c-9.74963-3.25592-17.01599-11.08154-23.95972-18.66052c-0.54517-0.59509-1.10754-1.22028-1.32825-1.99658
			c-0.19727-0.69391-0.099-1.43365,0.01233-2.14642c0.4989-3.19293,1.23438-6.349,2.19824-9.43365
			c4.24548-3.76404,8.60706-8.09235,11.80334-12.78021s5.23401-10.41553,4.42761-16.03174
			c-0.38184-2.65918-1.38269-5.19849-2.6438-7.5705c-0.64185-1.20721-1.43396-2.45099-2.6936-2.9826
			C1302.25061,874.12866,1300.32178,874.56403,1300.11743,875.91589z"/>
		<g class="st14">
			<path class="st15" d="M1364.34534,917.64697c-1.10217,2.50055-2.3009,4.9494-3.51428,7.3905
				c-1.20337,2.44641-2.47595,4.85583-3.7489,7.26508c-1.29382,2.39807-2.58948,4.79517-3.95337,7.15582l-2.04907,3.53931
				c-0.71521,1.16254-1.40015,2.34125-2.14209,3.4895c0.54199-1.25513,1.14099-2.47968,1.70972-3.72052l1.80298-3.67078
				c1.20398-2.44604,2.47632-4.85565,3.75037-7.26428c1.29504-2.3974,2.59033-4.79468,3.95496-7.15497
				C1361.51025,922.31097,1362.87939,919.95319,1364.34534,917.64697z"/>
		</g>
		<g class="st14">
			<path class="st15" d="M1368.25,938.61115c-0.94922,2.91058-2.172,5.69104-3.46167,8.43964
				c-1.31702,2.73566-2.70264,5.4386-4.36414,8.01038c0.94702-2.91162,2.17004-5.69202,3.46167-8.4397
				C1365.20471,943.88672,1366.5907,941.1839,1368.25,938.61115z"/>
		</g>
		<g class="st14">
			<path class="st15" d="M757.48962,1364.57703c2.09723,0.58618,4.14703,1.0365,6.21161,1.29248
				c2.06268,0.24158,4.12714,0.33093,6.1803,0.18933c2.05511-0.10559,4.09418-0.43958,6.1131-0.92468
				c2.01917-0.5,4.00092-1.18933,6.01508-2.01831c-1.55927,1.52893-3.48175,2.6875-5.53497,3.5033
				c-2.05426,0.8313-4.25702,1.28564-6.4743,1.43494c-2.21936,0.11267-4.46033-0.0769-6.59833-0.65881
				C761.26691,1366.82849,759.22058,1365.90771,757.48962,1364.57703z"/>
		</g>
		<g class="st14">
			<path class="st15" d="M1135.19946,741.14801c0.38513-2.43414,0.45215-4.89972,0.16858-7.31488
				c-0.29041-2.41394-0.92004-4.77075-1.84607-6.98682l0.71631,0.35547c-2.79797,0.91449-4.84912,3.28247-6.56226,5.7818
				c-1.6947,2.56207-3.4624,5.1756-4.88562,7.85413c-0.70386,1.34955-1.35254,2.71606-1.83801,4.13184
				c-0.49133,1.4093-0.81958,2.87286-1.04858,4.37341c-0.43799,2.99457-0.59778,6.12762-0.85193,9.23877
				c-0.47717,6.21967-1.02698,12.45312-1.60889,18.64966c-0.11047,1.50354-0.15295,3.03693,0.37549,4.3244
				c0.49377,1.297,1.75281,2.12762,3.21411,2.18384c3.00781,0.24902,5.69592-2.15063,8.87158-2.32202
				c-1.55566,0.25269-2.91211,1.0387-4.30566,1.73669c-1.37793,0.71869-2.90161,1.38275-4.5824,1.41724
				c-0.8324,0.01788-1.71667-0.14465-2.4895-0.5946c-0.76709-0.44983-1.38306-1.15387-1.755-1.9444
				c-0.74634-1.59546-0.77954-3.29584-0.73267-4.88232c0.30298-6.25677,0.66077-12.4751,1.07861-18.70795
				c0.24548-3.10858,0.31995-6.22699,0.828-9.40735c0.46655-3.17896,1.60791-6.33569,3.18958-9.09906
				c0.78345-1.39355,1.63965-2.72839,2.51733-4.03369c0.88586-1.30011,1.7478-2.59064,2.70349-3.86761
				c0.95862-1.26801,1.9906-2.51855,3.23083-3.59515c1.21826-1.0907,2.70862-1.94885,4.32471-2.37848l0.02466-0.00653
				c0.29138-0.07745,0.5907,0.08429,0.69189,0.36212c0.85718,2.37311,1.3175,4.87109,1.40723,7.36493
				C1136.13196,736.27399,1135.86963,738.77313,1135.19946,741.14801z"/>
		</g>
		<path class="st16" d="M1394.40869,902.42084c-18.19238-13.42621-55.34717-31.76251-55.34717-31.76251
			s10.39221-58.34619,13.17444-71.6629c-6.88635,10.69727-41.0033,60.54919-50.93469,70.34528
			c-25.14429,0.17731-44.68555,2.81531-69.83032,3.89203c41.86743-24.40314,82.62073-50.71765,122.09033-78.83411
			C1366.3938,832.32196,1378.34485,865.74927,1394.40869,902.42084z"/>
		<path class="st17" d="M1318.68018,907.43408c-3.70227,1.17194-8.6626-0.81995-10.44519,2.63013
			c-1.78247,3.45001-1.8241,7.85107,0.26843,11.12238c1.50671,2.35559,3.94543,3.98517,5.5177,6.29749
			c3.31616,4.87708,2.38708,12.12842,6.7074,16.14313"/>
		<path class="st17" d="M1345.00623,991.08386c3.06909,8.47058,9.06421,14.27887,13.98181,17.88275
			c4.91748,3.60388,10.44031,6.38348,15.03137,10.39496c4.59119,4.01147,8.28467,9.72229,7.82263,15.80151
			c-0.31091,4.09058-2.43274,7.78076-4.06494,11.54443c-1.63232,3.76379-2.79309,8.13379-1.16711,11.90027
			c1.70569,3.95081,5.93262,6.07605,9.83826,7.88281c11.26208,5.21008,22.52417,10.42004,33.78625,15.63"/>
		<path class="st18" d="M1288.54211,838.34229c2.72485-3.17639,4.09717-8.30261,5.46411-12.25806
			c2.04541-5.91809,3.27283-12.24847,4.61316-18.36475c2.21558-10.10986,3.46045-20.43237,3.70996-30.77917
			c0.11414-4.73737,0.03296-9.49835-0.21106-14.23077c-0.0708-1.37305-0.40955-2.4751-1.55078-3.3241
			c-2.58875-1.92578-6.14014-2.89844-9.17151-3.82806c-5.55005-1.70203-11.27332-2.7298-16.92542-4.02063
			c-9.88599-2.25769-19.53198-4.67407-28.86694-8.63483c4.50159,13.85651,5.13135,28.81598,2.89172,43.21222
			c-2.23962,14.39618-7.28333,28.26007-13.8363,41.27264c9.1825,7.15765,34.92163,19.25153,38.56909,20.17065"/>
		<path class="st18" d="M1424.92908,882.66235c20.29382-5.3139,41.92859-10.17065,62.3844-14.82281
			c-2.76538-3.37103-4.33875-7.53894-5.82104-11.63934c-5.32288-14.72388-10.09424-29.72119-12.60022-45.17584
			c-2.50586-15.45459-3.84106-33.24658-0.06726-48.44141c-4.2998,0.48059-8.17749,2.12671-12.33594,3.13361
			c-16.90747,4.09363-33.85938,8.00372-50.85168,11.72937c-3.54553,28.52924-1.13599,57.95154,7.57275,85.34949
			C1415.50989,870.03076,1419.46252,877.39392,1424.92908,882.66235z"/>
		<path class="st10" d="M812.9483,950.83307c-83.52362,33.39618-78.95166,143.27155-91.37677,218.5744
			c-4.52289,31.4707,0.1626,63.34253-5.96484,94.74512c35.01416,17.37402,81.35828,5.11755,118.04517-3.37341
			c6.8717,79.4165,8.90057,158.31335,11.633,237.97961c128.61487,1.34778,304.74152-124.91541,384.44977-23.68506
			c-52.08472-66.14807-14.63123-181.64124-13.72693-272.90381c7.59814,15.4585,12.50806,32.86597,21.63354,47.28784
			c38.74756-8.27576,80.05554-35.20117,104.34875-66.53577c4.37683-6.23438,7.84253-8.75,12.00146-15.12891
			c-13.94336-33.09949-32.08508-63.01965-47.07666-95.65784c-14.51331-31.5968-25.55151-67.23505-45.12695-95.74811
			c-23.08704-24.25867-42.26831-32.74634-73.79456-36.34558c-27.50684-5.422-55.11255-10.73029-83.20679-11.8913
			C1004.71393,912.33783,908.52966,912.89764,812.9483,950.83307z"/>
		<g class="st14">
			<path class="st19" d="M831.05725,1135.1875c-0.68365,10.49817-1.24274,20.99036-1.66333,31.48328
				c-0.41779,10.49353-0.62109,20.98999-0.64612,31.48706c-0.07996,5.24475,0.00018,10.49939,0.05725,15.74756
				c0.05212,5.2467,0.15771,10.50208,0.43951,15.71338c0.1394,2.58374,0.55011,5.16821,0.8844,7.77698
				c0.34827,2.60107,0.73004,5.19922,1.11853,7.797c0.73328,5.20386,1.59851,10.38745,2.40436,15.58643
				c-1.25073-5.11108-2.30841-10.26428-3.37048-15.41931c-0.50671-2.58215-0.98859-5.16943-1.44763-7.7627
				c-0.44171-2.58826-0.91333-5.19409-1.14514-7.85693c-0.47266-5.27588-0.61261-10.53613-0.77698-15.79907
				c-0.11462-5.26318-0.21002-10.52246-0.1626-15.79053c0.08411-5.26416,0.0835-10.52979,0.28583-15.79089
				c0.20142-5.26062,0.43427-10.52014,0.80652-15.771C828.52612,1156.08398,829.60474,1145.60706,831.05725,1135.1875z"/>
		</g>
		<g class="st14">
			<path class="st19" d="M908.56079,1040.86853c3.32916-0.60181,6.66266-1.18738,10.00079-1.74829l10.03778-1.54272
				l10.07428-1.29431l10.09723-1.12231c13.47919-1.36743,27.01819-2.10889,40.56256-2.50049
				c13.54822-0.22998,27.10687-0.09802,40.63458,0.64966l10.1377,0.66284l10.12292,0.83459l10.09741,1.08594
				c3.36011,0.40918,6.7168,0.84253,10.06982,1.29321c-3.37671-0.2356-6.74976-0.4884-10.11926-0.7655l-10.12305-0.63611
				l-10.12366-0.55115l-10.12878-0.38684c-13.50543-0.42773-27.0188-0.57507-40.52222-0.18958
				c-13.50726,0.22375-26.99957,0.99255-40.47205,2.02881l-10.10071,0.8479l-10.08807,1.01074l-10.08356,1.09729
				C915.28119,1040.07275,911.9231,1040.47864,908.56079,1040.86853z"/>
		</g>
		<g class="st14">
			<path class="st19" d="M1218.20374,1091.401c-0.72461,9.31995-1.33093,18.63403-1.82227,27.94861
				c-0.46338,9.31616-0.80103,18.63464-0.91907,27.95715c-0.15552,9.32178-0.09387,18.64624,0.09399,27.9718
				c0.21631,9.32495,0.54492,18.65295,0.99109,27.99048c-1.22046-9.26843-2.07227-18.58984-2.55066-27.93237
				c-0.50684-9.34192-0.65417-18.703-0.53308-28.05957c0.15845-9.35596,0.58289-18.70862,1.36646-28.03125
				C1215.58594,1109.92175,1216.71167,1100.62952,1218.20374,1091.401z"/>
		</g>
		<line class="st18" x1="1252.69653" y1="766.0564" x2="1295.94275" y2="779.86389"/>
		<line class="st18" x1="1253.73865" y1="779.86389" x2="1290.99292" y2="794.39862"/>
		<line class="st18" x1="1252.69653" y1="794.39862" x2="1288.90869" y2="808.20618"/>
		<line class="st18" x1="1250.00916" y1="808.20618" x2="1284.91882" y2="820.45056"/>
		<line class="st18" x1="1244.35999" y1="820.76544" x2="1275.88281" y2="834.57294"/>
		<path class="st11" d="M1350.01526,1173.14905c0,0,29.02405,34.16528,35.61438,53.90466"/>
	</g>
</g>
<g id="Calque_4" class="st20">
	<path class="st21" d="M3376.38672-661.5c-10.37988-27.71002-41.25977-41.76001-68.96997-31.38
		c-14.3999,5.39001-25.05981,16.34003-30.57007,29.48999C3092.56689-646.81,2954.44678-587.12,2865.92676-485.57001
		c-16.18994,18.56-29.81982,37.53003-41.31006,56.42999c-6.22998-2.12-10.87988-3.64996-12.68994-4.17999
		c-32.81006-9.70001-98.04004-33.60999-174.87988-34.22998c7.67993-39.64001,19.85986-85.94,39.19995-132.75
		c61.1499-148.02002,164.68994-238.04004,308.16992-268.14001c9.80005,10.72003,23.8501,17.47998,39.52002,17.47998
		c29.59009,0,53.58008-23.98999,53.58008-53.57996c0-29.59003-23.98999-53.58002-53.58008-53.58002
		c-25.37988,0-46.59009,17.66998-52.12988,41.37c-158.08008,34.26001-275.82007,136.67999-342.3501,298.84998
		c-22.66992,55.24005-36.05005,109.07001-43.97998,153.63c-6.21997,0.87-12.47998,1.91003-18.78003,3.17004
		c-54.86011,10.95996-104.07007,30.04999-147.41992,56.84998c-207.04004-282.37-541.19995-465.71002-918.18005-465.71002
		c-389.20996,0-732.78003,195.42999-937.93005,493.51001c-29.01001-12.48999-60.13-22.09998-93.32996-28.72998
		c-6.30005-1.26001-12.56-2.29999-18.79004-3.16998c-7.91998-44.56-21.31-98.39001-43.96997-153.62
		C340.54675-724.15002,222.79677-826.56,64.72675-860.83002c-5.53997-23.70001-26.75-41.37-52.13-41.37
		c-29.58997,0-53.57996,23.98999-53.57996,53.58002c0,29.58997,23.98999,53.58002,53.57996,53.58002
		c15.67004,0,29.72003-6.76001,39.51001-17.48004c143.48004,30.11005,247.03001,120.12,308.17999,268.14001
		c19.34003,46.81,31.52002,93.10999,39.20001,132.75c-76.83997,0.62-142.07001,24.53003-174.87999,34.22998
		c-1.81,0.54004-6.46997,2.06-12.69,4.19c-11.48999-18.90997-25.13-37.88-41.31-56.44
		C82.0868-531.20001-56.03319-590.89001-240.31322-607.46997c-5.51001-13.14001-16.18001-24.09003-30.58003-29.49005
		c-27.70996-10.38-58.58997,3.67999-68.95996,31.39001c-10.38,27.71002,3.66998,58.59003,31.38,68.97003
		c24.02997,9,50.40997-0.39001,63.76997-21.11005c170.53003,15.35004,297.26001,69.13,377.06,160.22003
		c12.02002,13.71997,22.44,27.76001,31.48004,41.83002c-6.39001,2.53998-12.09003,4.94995-16.35004,7
		c-27.03999,13.48999-85.56,46.46997-97.83997,55.31995C-15.68322-246.27002-96.57323-161.09998,48.25679-66.25
		C203.58681,35.45996,306.80676,187.90997,366.22675,350.09998c10.88,152.26001,51.71002,296.22998,116.65002,426.04999
		c109.72998,219.38,288.26996,398.35004,507.32996,508.62006c153.62006,77.32996,327.1701,120.87,510.89008,120.87
		c181.4801,0,353.03003-42.49011,505.26001-118.05005c261.74988-129.94995,466.34998-357.69995,566.00012-635.44995
		c22.62988-63.06006,39.83984-128.70001,51.08984-196.36005c5.58008-21.69,11.26001-43.70996,17.06006-66.06
		c51-196.44,162.19995-390.37994,347.76001-511.88995c144.84009-94.85004,63.94995-180.02002-1.38989-227.10004
		c-12.27002-8.83997-70.80005-41.82001-97.84009-55.31c-4.25-2.04999-9.95996-4.45996-16.3501-7.01001
		c9.05005-14.06995,19.45996-28.09998,31.47998-41.81995c79.81006-91.10004,206.54004-144.87006,377.06006-160.22003
		c13.36987,20.72003,39.75,30.09998,63.78003,21.09998C3372.7168-602.90997,3386.76685-633.78003,3376.38672-661.5z"/>
</g>
</svg>
