<?xml version="1.0" encoding="utf-8"?>
<!-- Generator: Adobe Illustrator 25.2.1, SVG Export Plug-In . SVG Version: 6.00 Build 0)  -->
<svg version="1.1" xmlns="http://www.w3.org/2000/svg" xmlns:xlink="http://www.w3.org/1999/xlink" x="0px" y="0px"
	 viewBox="0 0 2000 1500" style="enable-background:new 0 0 2000 1500;" xml:space="preserve">
<style type="text/css">
	.st0{opacity:0.47;fill:#CAE4EA;}
	.st1{fill:#009DD1;}
	.st2{fill:#F2F2F2;}
	.st3{fill:#AFC5C9;}
	.st4{fill:none;stroke:#AFC5C9;stroke-width:3;stroke-miterlimit:10;}
	.st5{fill:none;stroke:#AFC5C9;stroke-width:4;stroke-miterlimit:10;}
	.st6{fill:none;stroke:#009DD1;stroke-width:4;stroke-miterlimit:10;}
	.st7{fill:none;stroke:#009DD1;stroke-width:4.70447;stroke-miterlimit:10;}
	.st8{fill:url(#SVGID_1_);}
	.st9{display:none;}
	.st10{display:inline;fill:#999999;}
	.st11{font-family:'Poppins-Bold';}
	.st12{font-size:19.22942px;}
	.st13{fill:#CAE4EA;}
	.st14{fill:#003744;}
	.st15{fill:#8E4332;}
	.st16{opacity:0.5;fill:#3A1E13;}
	.st17{fill:#004F69;}
	.st18{fill:#77362B;}
	.st19{fill:#723329;}
	.st20{fill:#3A1E13;}
	.st21{fill:none;stroke:#003744;stroke-width:0.75;stroke-linecap:round;stroke-linejoin:round;stroke-miterlimit:10;}
	.st22{fill:#85FFC2;}
	.st23{fill:none;stroke:#3A1E13;stroke-width:0.75;stroke-miterlimit:10;}
	.st24{fill:none;stroke:#003744;stroke-width:0.75;stroke-miterlimit:10;}
	.st25{fill:none;stroke:#003744;stroke-width:1.3;stroke-miterlimit:10;}
	.st26{fill:#009DD1;stroke:#003744;stroke-miterlimit:10;}
	.st27{fill:url(#SVGID_2_);}
	.st28{fill:#58D6C8;}
	.st29{opacity:0.35;fill:#6ECE9B;}
	.st30{fill:#000B26;}
	.st31{fill:none;stroke:#004F69;stroke-miterlimit:10;}
	.st32{fill:none;stroke:#AFC5C9;stroke-miterlimit:10;}
	.st33{opacity:0.57;}
	.st34{display:inline;fill:#009DD1;}
	.st35{display:inline;fill:#004F69;}
	.st36{display:inline;fill:#000B26;}
	.st37{display:inline;fill:#3A1E13;}
	.st38{display:inline;fill:#110F0F;}
	.st39{display:inline;fill:#8E4332;}
	.st40{display:inline;fill:#85FFC2;}
	.st41{display:inline;fill:#F2F2F2;}
	.st42{display:inline;fill:#727271;}
	.st43{display:inline;fill:#CAE4EA;}
	.st44{display:inline;fill:#AFC5C9;}
	.st45{display:inline;fill:#424241;}
</style>
<g id="Calque_6">
	<ellipse class="st0" cx="1016.54834" cy="1011.55792" rx="817.43066" ry="326.9328"/>
</g>
<g id="phone">
	<path class="st1" d="M855.24292,859.81219l-317.48254,161.57965c-28.37543-0.40369-60.81485-15.68066-60.81485-46.74908V360.87131
		c0-21.04132,17.3981-43.44379,38.74216-50.00629l312.92749-93.52306c24.62244-4.14661,49.31592-6.28471,80.19598,11.53557
		l-34.66766,580.67664C874.19647,829.5072,874.54669,851.99237,855.24292,859.81219z"/>
	<path class="st2" d="M873.49445,880.90973l-323.5094,137.48218c-21.43817,8.68451-38.91345-1.43781-38.91345-22.65161V381.9689
		c0-21.04135,17.39813-43.44382,38.74219-50.00632l337.96979-103.91313c19.22766-5.91179,34.77643,5.36826,34.82898,25.16858
		l-14.34296,577.43372C908.32251,850.6048,892.79822,873.0899,873.49445,880.90973z"/>
	<path class="st3" d="M511.07159,444.61124V381.9689c0-21.04135,17.39813-43.44382,38.74219-50.00632l337.96979-103.91313
		c19.22766-5.91179,34.77643,5.36826,34.82898,25.16858l-2.28534,57.98839L511.07159,444.61124z"/>
	<path class="st2" d="M766.52838,316.62247l-109.83447,34.45615c-3.57697,1.1221-6.49335-0.72534-6.49335-4.125v-0.00003
		c0-3.39105,2.90308-7.01294,6.46375-8.09134l109.38464-33.12885c2.88586-0.87405,5.32458,0.83691,5.4621,3.82318v0.00003
		C771.6488,312.54965,769.4248,315.71381,766.52838,316.62247z"/>
	<path class="st3" d="M818.39062,539.33099l-230.99274,88.93964c-5.0495,1.94421-10.47833-1.78284-10.47833-7.19373v-52.82629
		c0-3.2301,2.01379-6.11761,5.04492-7.23376l230.99274-85.05719c5.03235-1.85303,10.37219,1.87106,10.37219,7.23373v48.94388
		C823.32941,535.32581,821.36627,538.1853,818.39062,539.33099z"/>
	<path class="st3" d="M818.39062,642.98352l-230.99274,88.93964c-5.0495,1.94427-10.47833-1.78284-10.47833-7.19373v-52.82629
		c0-3.2301,2.01379-6.11761,5.04492-7.23376l230.99274-85.05719c5.03235-1.85303,10.37219,1.87109,10.37219,7.23376v48.94385
		C823.32941,638.97833,821.36627,641.83783,818.39062,642.98352z"/>
	<path class="st4" d="M818.60864,735.39185L587.7392,834.9447c-5.17249,2.23041-10.81964-1.2934-10.81964-6.75665v-52.63239
		c0-3.2301,2.05859-6.18011,5.15564-7.38983l231.10004-90.26501c4.92896-1.92517,10.15417,1.59949,10.15417,6.8446v43.52258
		C823.32941,731.34277,821.46185,734.16156,818.60864,735.39185z"/>
	<path class="st4" d="M818.33392,827.38416L586.67468,938.58032c-4.54773,2.18292-9.75513-1.82666-9.75513-7.48132v-52.13812
		c0-3.10675,1.64673-5.88171,4.18274-7.04126l230.18335-105.24854c5.70697-2.6095,12.04376,1.38416,12.04376,7.62622v45.15161
		C823.32941,822.82965,821.38098,825.92157,818.33392,827.38416z"/>
	<path class="st5" d="M870.86835,493.35217c0,10.69812-7.10498,22.0177-16.2984,25.44275
		c-9.70416,3.61536-17.97577-2.8681-17.97577-14.66721c0-11.79913,8.27161-23.48364,17.97577-25.97009
		C863.76337,475.80203,870.86835,482.65405,870.86835,493.35217z"/>
	<path class="st6" d="M430.60385,510.52405c3.91235,38.27625-12.84702,80.96368-40.2876,98.03802
		c-31.33997,19.50073-65.56979-0.38196-72.37109-48.44922c-7.0267-49.66022,19.15289-99.35388,53.68643-108.2023
		C401.65497,444.21777,426.59067,471.26123,430.60385,510.52405z"/>
	<path class="st7" d="M1650.9325,749.07703c4.60132,45.0174-15.10962,95.2229-47.38306,115.30432
		c-36.8595,22.93506-77.1178-0.44922-85.11694-56.98199c-8.26416-58.40631,22.52612-116.85193,63.1416-127.25867
		C1616.88513,671.09308,1646.21252,702.89935,1650.9325,749.07703z"/>
	<path class="st5" d="M870.86835,597.547c0,10.69812-7.10498,22.01764-16.2984,25.44275
		c-9.70416,3.61536-17.97577-2.8681-17.97577-14.66724s8.27161-23.48364,17.97577-25.97009
		C863.76337,579.99683,870.86835,586.84888,870.86835,597.547z"/>
	<path class="st5" d="M870.86835,695.10388c0,10.69812-7.10498,22.0177-16.2984,25.44275
		c-9.70416,3.61536-17.97577-2.8681-17.97577-14.66724s8.27161-23.48364,17.97577-25.97009
		C863.76337,677.55371,870.86835,684.40576,870.86835,695.10388z"/>
	<path class="st5" d="M870.86835,781.20874c0,10.69812-7.10498,22.0177-16.2984,25.44275
		c-9.70416,3.61536-17.97577-2.86804-17.97577-14.66718s8.27161-23.48364,17.97577-25.97015
		C863.76337,763.65857,870.86835,770.51062,870.86835,781.20874z"/>
	<linearGradient id="SVGID_1_" gradientUnits="userSpaceOnUse" x1="578.55255" y1="465.09146" x2="675.93848" y2="465.09146">
		<stop  offset="0.00643" style="stop-color:#85FFC2"/>
		<stop  offset="1" style="stop-color:#009DD1"/>
	</linearGradient>
	<path class="st8" d="M603.2663,508.01935l-24.71375,7.99597l11.90613-14.1228
		C593.82874,505.26584,598.23468,507.40085,603.2663,508.01935z M643.67456,465.13391
		c0.26038,16.49542-12.25958,33.9166-28.07867,38.99332c-15.94781,5.11804-29.25684-4.21249-29.60944-20.92456
		c-0.3537-16.7634,12.45929-34.39246,28.50031-39.29245C630.39746,439.05005,643.41345,448.58847,643.67456,465.13391z
		 M636.44843,467.39725c-0.20337-12.36234-9.94373-19.46078-21.82025-15.80951
		c-11.94904,3.67355-21.48218,16.80902-21.22736,29.29266c0.25427,12.45511,10.15778,19.43781,22.05505,15.64291
		C627.28131,492.75134,636.65131,479.73166,636.44843,467.39725z M613.81635,484.65329l11.73413-23.99741l-12.87109,18.59225
		l-8.42639-4.23251L613.81635,484.65329z M675.84222,419.71146c-0.28149-0.69022-1.09491-0.83658-1.81696-0.32654
		c-0.37524,0.26511-0.65063,0.65552-0.79028,1.06613c-4.82855,1.93311-8.43701,4.70593-10.72784,8.25443
		c-0.41901,0.64902-0.77063,1.28888-1.06592,1.90967c-0.16498-0.00922-0.28809-0.01437-0.33612-0.01474
		c-0.86877-0.00671-2.59894-0.14954-4.62811,0.45282c0.18671-1.1712,0.48975-2.56531,0.98157-4.03131
		c1.55511-4.63535,4.25159-7.98419,8.02008-9.97095c0.26196,0.22186,0.63428,0.29919,1.04645,0.17447
		c0.77826-0.23557,1.3999-1.09729,1.38873-1.9249c-0.01117-0.82773-0.65112-1.30835-1.42963-1.07333
		c-0.66803,0.20166-1.2196,0.86487-1.3562,1.57214c-4.15295,2.21915-7.22064,6.02954-8.9129,11.10632
		c-0.57642,1.72925-0.9082,3.34436-1.09937,4.65558c-0.16418,0.07458-0.32935,0.1543-0.49536,0.24039
		c-7.93457,4.11484-11.2724,13.69839-9.20715,26.43549c0.41504,1.92596,0.64929,3.97632,0.68292,6.13831
		c0.13043,8.38324-2.77228,16.97089-7.64722,24.29779c-1.07776,1.65216-2.2699,3.23462-3.56445,4.72156
		c-2.15393,2.52524-4.5564,4.82675-7.15161,6.82468c0.0351-0.0033,0.06854-0.00909,0.10181-0.01993
		c4.52325-2.24255,8.81635-5.30292,12.84601-9.07263c11.21161-10.00443,12.79266-20.1232,16.23627-36.16608
		c1.26477-5.89249,4.11633-12.20688,8.94891-17.0997c3.76556-3.81253,1.61102-5.53522-0.12341-6.32236
		c-0.32605-0.14792-1.87811-0.59756-2.59497-0.75638c-0.11285-0.02301-0.26392-0.04453-0.43317-0.06412
		c0.23267-0.46585,0.50134-0.94165,0.81244-1.42172c2.06445-3.18558,5.37439-5.70224,9.84119-7.49207
		c0.35754,0.47116,1.05188,0.52246,1.67767,0.07996C675.76703,421.37424,676.12366,420.40152,675.84222,419.71146z"/>
	<text transform="matrix(1 0 0 1 602.77722 292.59726)" class="st9"><tspan x="0" y="0" class="st10 st11 st12">Paiement</tspan><tspan x="0" y="23.0752" class="st10 st11 st12">par tranche</tspan></text>
	<g>
		<path class="st1" d="M697.37244,428.40829c-0.47083,1.04709-1.19336,2.00699-2.16797,2.87991
			c-0.97516,0.87341-2.18573,1.55292-3.633,2.03876l-2.67914,0.89932l-0.00293,6.66885l-4.32983,1.46332v-18.62531l7.02032-2.32782
			c1.41571-0.46942,2.61053-0.60931,3.58575-0.42102c0.97375,0.18903,1.70355,0.65225,2.1897,1.39011
			c0.48523,0.7377,0.72723,1.68753,0.72565,2.8511C698.07953,426.3009,697.84314,427.36203,697.37244,428.40829z
			 M693.0896,428.61136c0.40411-0.54089,0.60706-1.18182,0.60779-1.92328c0.00067-0.74088-0.20129-1.24695-0.6048-1.51932
			c-0.40363-0.27112-1.01794-0.26978-1.84393,0.00513l-2.35272,0.78311l-0.00208,4.66632l2.35168-0.78647
			C692.07111,429.56076,692.68549,429.15234,693.0896,428.61136z"/>
		<path class="st1" d="M700.27875,425.6803c0.54517-1.32565,1.28735-2.45273,2.22565-3.38208
			c0.93719-0.92731,1.98206-1.58331,3.13428-1.9668c0.98364-0.32736,1.84613-0.40363,2.58704-0.22882
			c0.73981,0.1749,1.30841,0.53836,1.70587,1.09024l0.00537-2.08133l4.2619-1.41879l-0.04388,14.66364l-4.25568,1.43826
			l0.00531-2.07605c-0.41699,0.82358-0.99646,1.57074-1.73737,2.24118c-0.74115,0.67072-1.60333,1.17233-2.58612,1.50455
			c-1.13336,0.38312-2.16724,0.42123-3.10077,0.1138c-0.93494-0.30746-1.67334-0.94525-2.21429-1.91391
			c-0.54254-0.96811-0.81213-2.20947-0.80988-3.7229C699.4585,428.4274,699.73224,427.00726,700.27875,425.6803z
			 M709.03906,424.09647c-0.58923-0.45184-1.30841-0.53638-2.1582-0.25241c-0.85028,0.28415-1.57275,0.8461-2.16644,1.68567
			c-0.59393,0.84048-0.89203,1.82297-0.89423,2.94775c-0.00214,1.12521,0.29236,1.91705,0.88336,2.37622
			c0.5907,0.45956,1.31122,0.54572,2.16089,0.25964c0.84918-0.28592,1.5694-0.85211,2.1615-1.7001
			c0.59192-0.84708,0.88928-1.832,0.89215-2.95505C709.92096,425.33618,709.62805,424.54871,709.03906,424.09647z"/>
		<path class="st1" d="M717.59863,414.34128c-0.47021-0.30762-0.70428-0.80386-0.70203-1.4881
			c0.00232-0.70172,0.24017-1.36334,0.71362-1.98471c0.47327-0.62122,1.08246-1.05499,1.82727-1.3013
			c0.72748-0.24054,1.32532-0.20615,1.79498,0.1026c0.46875,0.30884,0.70178,0.81354,0.69916,1.51416
			c-0.00262,0.68317-0.23993,1.3349-0.71204,1.95471c-0.47284,0.62085-1.07208,1.05188-1.79919,1.29355
			C718.6759,414.67966,718.0686,414.64938,717.59863,414.34128z M721.52075,415.25531l-0.05463,14.63016l-4.23352,1.43079
			l0.0484-14.64957L721.52075,415.25531z"/>
		<path class="st1" d="M737.4057,418.30585l-9.49902,3.18976c0.0611,0.88547,0.33313,1.48563,0.81537,1.802
			c0.48138,0.31647,1.07483,0.3558,1.77954,0.11847c1.04803-0.35294,1.77844-1.06824,2.1925-2.14627l4.46008-1.49985
			c-0.2337,1.03372-0.65021,2.03247-1.24963,2.99786c-0.60016,0.96649-1.35022,1.81854-2.25104,2.55646
			c-0.90131,0.73831-1.90857,1.29575-3.02155,1.67197c-1.34363,0.45416-2.539,0.55423-3.58655,0.29919
			c-1.04913-0.25504-1.86688-0.84998-2.4549-1.78378c-0.58777-0.9353-0.87842-2.16245-0.87244-3.6824
			c0.00604-1.51978,0.30365-2.94543,0.89276-4.27704c0.58838-1.33054,1.41119-2.47708,2.46619-3.44009
			c1.05432-0.96112,2.263-1.66901,3.62482-2.12225c1.32812-0.44202,2.50574-0.53751,3.53381-0.28842
			c1.02722,0.24951,1.82764,0.82584,2.40167,1.7294c0.57367,0.90298,0.85706,2.08502,0.84924,3.54596
			C737.48431,417.39413,737.45715,417.83765,737.4057,418.30585z M733.20404,417.23926
			c0.00378-0.76642-0.23883-1.29416-0.72797-1.58328c-0.48871-0.28876-1.10229-0.31055-1.8396-0.06421
			c-0.70587,0.23578-1.30115,0.65298-1.7876,1.25095c-0.48596,0.59787-0.78888,1.31848-0.90686,2.15903L733.20404,417.23926z"/>
		<path class="st1" d="M761.00684,403.58493c0.9787,0.75919,1.45978,2.10547,1.44458,4.03922l-0.06628,8.43228l-4.09027,1.38235
			l0.05847-7.8476c0.0069-0.93268-0.21674-1.57758-0.6712-1.9346c-0.45465-0.35654-1.0849-0.40091-1.89032-0.13174
			c-0.80585,0.26929-1.44012,0.73651-1.9032,1.40048c-0.4632,0.66479-0.69806,1.46442-0.70453,2.39865l-0.05444,7.86044
			l-4.117,1.39139l0.05127-7.8707c0.0061-0.93546-0.21973-1.58194-0.67828-1.9393c-0.45807-0.35703-1.09271-0.40076-1.90277-0.13007
			c-0.81116,0.27109-1.44934,0.74042-1.91559,1.40714c-0.4657,0.6673-0.70135,1.46957-0.70697,2.40656l-0.04724,7.88364
			l-4.16815,1.40866l0.08105-14.54681l4.17413-1.38956l-0.01093,1.82501c0.42566-0.74893,0.98096-1.41547,1.66516-1.99866
			c0.68396-0.58295,1.45483-1.01712,2.31433-1.30319c1.02057-0.33969,1.92975-0.40887,2.72772-0.20718
			c0.79681,0.20175,1.41827,0.66061,1.86517,1.37552c0.47351-0.95273,1.11554-1.81531,1.92596-2.5863
			c0.80945-0.77042,1.6897-1.31418,2.64062-1.63068C758.70148,402.72293,760.02783,402.8248,761.00684,403.58493z"/>
		<path class="st1" d="M777.80743,404.73886l-9.23279,3.10037c0.0556,0.87448,0.3172,1.46838,0.78394,1.7832
			c0.46588,0.31491,1.04169,0.35684,1.72668,0.12616c1.01862-0.34305,1.73053-1.0455,2.13684-2.10767l4.33521-1.45786
			c-0.23114,1.01938-0.63947,2.0033-1.22528,2.95334c-0.58649,0.95111-1.31805,1.78848-2.19537,2.51236
			c-0.87787,0.72427-1.85785,1.26941-2.93964,1.6351c-1.30591,0.44144-2.46655,0.53403-3.48218,0.27682
			c-1.01715-0.25723-1.80841-0.84882-2.37518-1.77374c-0.56659-0.92642-0.84363-2.13937-0.83154-3.63989
			c0.01215-1.50034,0.30682-2.90622,0.88409-4.21783c0.57648-1.31049,1.37976-2.43817,2.40765-3.38351
			c1.02722-0.94345,2.20319-1.63614,3.52679-2.07666c1.29083-0.4296,2.4342-0.51788,3.43103-0.26675
			c0.99597,0.25159,1.77051,0.82465,2.32397,1.71964c0.5531,0.89441,0.8233,2.06287,0.80975,3.50519
			C777.88751,403.83914,777.85931,404.27689,777.80743,404.73886z M773.73364,403.66431
			c0.00684-0.75662-0.2265-1.2789-0.70001-1.56683c-0.47321-0.28757-1.06866-0.31223-1.78528-0.07281
			c-0.68604,0.22919-1.2655,0.63803-1.74011,1.22583c-0.47406,0.58777-0.77106,1.29764-0.88904,2.12686L773.73364,403.66431z"/>
		<path class="st1" d="M791.83014,393.32037c0.9068,0.78052,1.34955,2.11877,1.32874,4.01666l-0.09143,8.34995l-4.00238,1.35263
			l0.08197-7.77084c0.01007-0.9581-0.21039-1.62616-0.66095-2.00436c-0.45142-0.3775-1.06293-0.43839-1.83484-0.18048
			c-0.77289,0.25827-1.39081,0.73026-1.85358,1.41397c-0.4635,0.68475-0.69946,1.50687-0.70911,2.46655l-0.07819,7.78345
			l-4.0517,1.36935l0.13831-14.36163l4.05743-1.35068l-0.01917,1.90433c0.41663-0.77121,0.9743-1.45715,1.67291-2.05771
			c0.69769-0.59946,1.47961-1.04327,2.3468-1.33194C789.69727,392.40631,790.92249,392.53986,791.83014,393.32037z"/>
		<path class="st1" d="M803.18463,398.58267l-0.04431,3.70004l-2.03204,0.68677c-1.44965,0.48993-2.57697,0.48511-3.38007-0.01611
			c-0.80432-0.50076-1.19617-1.63028-1.17633-3.38699l0.06421-5.68442l-1.59735,0.53381l0.04059-3.64102l1.5979-0.53192
			l0.03937-3.48807l4.01141-1.33041l-0.04077,3.48355l2.62048-0.87234l-0.0434,3.63138l-2.61963,0.87543l-0.06702,5.7283
			c-0.00494,0.42569,0.08533,0.70105,0.2702,0.82492c0.18488,0.12518,0.49554,0.11365,0.93182-0.03323L803.18463,398.58267z"/>
		<path class="st1" d="M690.62201,457.66766c0.7395-0.67548,1.60443-1.18338,2.59528-1.52393
			c1.1568-0.39758,2.20392-0.45038,3.14081-0.15982c0.93616,0.29163,1.67517,0.91208,2.21722,1.86246
			c0.54114,0.95065,0.81073,2.17761,0.80847,3.68185c-0.00226,1.50378-0.2757,2.9223-0.81976,4.25516
			c-0.54474,1.33392-1.28522,2.47406-2.22174,3.42059c-0.93701,0.94705-1.98315,1.62222-3.13824,2.02521
			c-0.97211,0.33914-1.8316,0.42905-2.57776,0.26923c-0.74719-0.15967-1.33032-0.49954-1.74988-1.01944l-0.00397,9.03531
			l-4.31287,1.51468v-21.69846l4.32239-1.48593l-0.00092,2.08157C689.30164,459.09641,689.88226,458.34344,690.62201,457.66766z
			 M694.13055,460.70688c-0.59448-0.43411-1.32812-0.50073-2.20056-0.19968c-0.85632,0.29547-1.58344,0.87112-2.17975,1.72592
			c-0.59778,0.85611-0.896,1.84543-0.89648,2.96756c-0.00049,1.12317,0.29681,1.9057,0.89368,2.34686
			c0.59521,0.44205,1.32141,0.51331,2.17712,0.21594c0.85516-0.29721,1.58447-0.87863,2.18805-1.7449
			c0.60413-0.86554,0.90601-1.85812,0.90723-2.97919C695.021,461.91873,694.72467,461.14145,694.13055,460.70688z"/>
		<path class="st1" d="M701.60486,456.80142c0.54303-1.32303,1.28235-2.45111,2.21686-3.38513
			c0.93341-0.93198,1.974-1.59576,3.12152-1.99017c0.97955-0.33667,1.8385-0.42255,2.57629-0.25763
			c0.73676,0.16504,1.30286,0.51935,1.69867,1.06281l0.00555-2.06723l4.24451-1.45914l-0.04559,14.56439l-4.23828,1.47836
			l0.00555-2.06198c-0.41541,0.82285-0.99255,1.57172-1.73047,2.24628c-0.73822,0.67484-1.59686,1.18314-2.57562,1.5246
			c-1.12872,0.39377-2.15826,0.44376-3.08789,0.14935c-0.93103-0.2944-1.66626-0.91922-2.20483-1.87491
			c-0.5401-0.95517-0.80847-2.18491-0.80597-3.68805C700.7876,459.53937,701.06049,458.12573,701.60486,456.80142z
			 M710.32898,455.12561c-0.58673-0.44186-1.30292-0.51736-2.14923-0.22534c-0.8468,0.29218-1.56628,0.85876-2.15765,1.69958
			c-0.59155,0.84171-0.88855,1.82098-0.89087,2.93814c-0.00232,1.11758,0.29083,1.90057,0.87933,2.34967
			c0.58813,0.44949,1.30573,0.52661,2.15192,0.23254c0.8457-0.29391,1.56299-0.86472,2.15271-1.71387
			c0.5896-0.84827,0.88586-1.82996,0.88885-2.9454C711.20709,456.34656,710.91547,455.56787,710.32898,455.12561z"/>
		<path class="st1" d="M724.60583,446.09702c0.74017-0.71378,1.56152-1.22604,2.46326-1.53598l-0.02032,4.71204l-1.1554,0.39902
			c-1.05011,0.36267-1.83868,0.87341-2.36591,1.53241c-0.52728,0.65918-0.79333,1.58804-0.79797,2.78561l-0.02612,6.73962
			l-4.21631,1.47067l0.05011-14.55051l4.22247-1.45154l-0.0094,2.42453
			C723.24658,447.65405,723.86475,446.81198,724.60583,446.09702z"/>
		<path class="st1" d="M741.80255,450.32611l-0.02179,3.7493l-2.11523,0.73782c-1.50903,0.52634-2.68506,0.54483-3.52625,0.05368
			c-0.84241-0.49066-1.25867-1.62683-1.24957-3.40701l0.02942-5.76031l-1.66296,0.57382l0.01819-3.68973l1.66357-0.5719
			l0.01801-3.53476l4.17615-1.43048l-0.01953,3.53012l2.72797-0.93781l-0.02136,3.67984l-2.72693,0.94095l-0.0321,5.80472
			c-0.00238,0.43137,0.09363,0.70844,0.28735,0.83014c0.19366,0.12299,0.51764,0.10486,0.9718-0.05295L741.80255,450.32611z"/>
		<path class="st1" d="M750.13477,437.31613c0.72833-0.70563,1.53577-1.21109,2.42157-1.51556l-0.03217,4.67447l-1.13507,0.392
			c-1.03156,0.35626-1.80688,0.86032-2.32599,1.5123c-0.51929,0.65216-0.78278,1.57275-0.79047,2.76077l-0.04315,6.68594
			l-4.14191,1.44473l0.08716-14.43436l4.14783-1.4259l-0.01556,2.40518
			C748.79663,438.85623,749.40552,438.02295,750.13477,437.31613z"/>
		<path class="st1" d="M754.47473,438.56555c0.52948-1.29767,1.24664-2.40225,2.15076-3.31464
			c0.90295-0.9104,1.90765-1.55627,3.01379-1.93646c0.94427-0.32455,1.77118-0.4032,2.48022-0.23599
			c0.70795,0.16733,1.25085,0.51965,1.62878,1.05692l0.0163-2.03342l4.09186-1.40668l-0.12073,14.32684l-4.08612,1.42526
			l0.0163-2.02835c-0.40405,0.80658-0.96338,1.53931-1.67694,2.19781c-0.71387,0.65878-1.54279,1.15289-2.48633,1.48209
			c-1.08807,0.37961-2.07892,0.42172-2.9718,0.12573c-0.89417-0.29599-1.59827-0.91565-2.11133-1.85941
			c-0.51459-0.94324-0.76624-2.15469-0.75592-3.63321C753.67395,441.25308,753.94391,439.86447,754.47473,438.56555z
			 M762.87744,436.97638c-0.56226-0.4386-1.25092-0.51773-2.06677-0.23624c-0.81635,0.28165-1.5116,0.83411-2.08502,1.65714
			c-0.57361,0.82394-0.8645,1.78519-0.87268,2.88406c-0.00818,1.09927,0.26978,1.87149,0.83362,2.31726
			c0.56354,0.4462,1.25354,0.52695,2.06927,0.24347c0.81525-0.28336,1.50842-0.83994,2.08038-1.6712
			c0.57178-0.83041,0.86206-1.79407,0.87085-2.89133C763.71588,438.18338,763.43939,437.41544,762.87744,436.97638z"/>
		<path class="st1" d="M782.5896,427.09644c0.91095,0.76584,1.35657,2.09357,1.33759,3.98514l-0.08368,8.32202l-4.01581,1.40073
			l0.07477-7.74481c0.00922-0.95493-0.21271-1.61774-0.66534-1.98868c-0.45343-0.37024-1.06726-0.42285-1.84174-0.15564
			c-0.77545,0.26755-1.3952,0.74603-1.85901,1.43347c-0.46454,0.68848-0.70056,1.51083-0.70935,2.46732l-0.07086,7.75735
			l-4.06531,1.418l0.12494-14.31339l4.07098-1.39951l-0.01733,1.89795c0.41736-0.77402,0.97644-1.46494,1.677-2.0726
			c0.69965-0.60657,1.48407-1.05914,2.35419-1.35822C780.44806,426.21368,781.67786,426.3306,782.5896,427.09644z"/>
		<path class="st1" d="M786.79645,427.41711c0.56848-1.29846,1.35486-2.41711,2.35822-3.35678
			c1.00214-0.93765,2.14551-1.62775,3.42963-2.06909c1.64203-0.56436,3.00806-0.56845,4.09814-0.01291
			c1.08899,0.55499,1.79456,1.62164,2.11798,3.19885l-4.25848,1.47171c-0.34741-0.96246-1.0368-1.26596-2.06921-0.90973
			c-0.73566,0.25381-1.32587,0.76648-1.77106,1.53824c-0.4458,0.77274-0.67438,1.73627-0.68671,2.89194
			c-0.01233,1.15604,0.1972,1.96793,0.62952,2.43533c0.43158,0.46805,1.01471,0.57333,1.74982,0.31784
			c1.03174-0.35861,1.73267-1.14282,2.104-2.35306l4.2569-1.47708c-0.36194,1.77917-1.10114,3.33551-2.21814,4.6691
			c-1.11768,1.33438-2.48816,2.28497-4.11243,2.85165c-1.28229,0.44736-2.41766,0.54788-3.40588,0.30045
			c-0.98962-0.24744-1.75745-0.82669-2.30255-1.73755c-0.54602-0.91183-0.81158-2.10764-0.79639-3.58856
			C785.935,430.10672,786.22723,428.71667,786.79645,427.41711z"/>
		<path class="st1" d="M812.51685,416.79272c0.88074,0.7648,1.30884,2.08289,1.28436,3.95636l-0.10767,8.24258l-3.93115,1.37122
			l0.09717-7.67081c0.01196-0.94577-0.203-1.60318-0.64441-1.97238c-0.4422-0.3685-1.0423-0.42307-1.80035-0.1615
			c-0.75909,0.2619-1.36664,0.73334-1.82227,1.41235c-0.4563,0.68005-0.6897,1.49362-0.70123,2.44092l-0.09351,7.68311
			l-3.97937,1.38803l0.22131-18.80899l3.98663-1.36392l-0.07947,6.53247c0.41052-0.76495,0.96759-1.45441,1.66937-2.06693
			c0.70203-0.61185,1.48578-1.06677,2.35284-1.36478C810.45319,415.90036,811.63538,416.02792,812.51685,416.79272z"/>
		<path class="st1" d="M828.52661,417.86029l-8.87524,3.07672c0.04877,0.85455,0.29663,1.43378,0.7428,1.73923
			c0.44543,0.30554,0.99768,0.34366,1.65613,0.11478c0.97919-0.34039,1.66595-1.03061,2.06128-2.07092l4.16754-1.44672
			c-0.22705,0.99765-0.62402,1.96155-1.1911,2.89319c-0.56775,0.93268-1.27405,1.75488-2.11969,2.46686
			c-0.84613,0.71237-1.78925,1.25009-2.82916,1.61288c-1.25537,0.43799-2.36945,0.53418-3.34259,0.28775
			c-0.97455-0.2464-1.73065-0.82077-2.26959-1.72214c-0.53876-0.90274-0.79822-2.08701-0.77881-3.5538
			c0.01947-1.46658,0.30957-2.84225,0.87018-4.12717c0.56-1.28387,1.33655-2.39017,2.32764-3.31934
			c0.99048-0.92737,2.12238-1.61038,3.39465-2.04767c1.24078-0.42645,2.33832-0.51849,3.29352-0.27805
			c0.95441,0.24088,1.69464,0.79718,2.22107,1.66925c0.52606,0.87155,0.7793,2.01242,0.75879,3.42242
			C828.60815,416.98038,828.57886,417.40845,828.52661,417.86029z M824.62317,416.83026
			c0.01044-0.73969-0.21069-1.24902-0.66357-1.52811c-0.45251-0.27875-1.02374-0.29984-1.71259-0.06223
			c-0.65948,0.22748-1.21759,0.63-1.67603,1.20697c-0.45789,0.5769-0.74658,1.27225-0.86407,2.0834L824.62317,416.83026z"/>
	</g>
	<path class="st1" d="M1128.10535,276.6171c0.01294-0.56107-0.1322-0.83517-0.60229-0.87057
		c-8.47693-1.18658-17.38623-2.08054-26.50232-3.42908c-3.15869-0.48877-6.40759-0.84671-9.6759-1.27771
		c-0.47681-0.06287-0.92053-0.03299-1.47021,0.3252c-13.24316,8.63046-27.23572,17.72662-42.04126,27.33511
		c-0.64856,0.42093-0.89429,0.82199-0.97363,1.52658c-3.26697,28.60684-3.021,68.88931,38.54333,74.26447
		C1118.12366,343.01901,1127.82727,302.91708,1128.10535,276.6171z M1085.89294,366.85333
		c-35.05396-5.07187-35.27026-39.07803-32.55249-63.25531c0.06616-0.59619,0.27124-0.93668,0.81299-1.2963
		c12.42334-8.24664,24.2644-16.11975,35.56177-23.64975c0.47083-0.31381,0.85107-0.34509,1.25964-0.29727
		c2.8042,0.32797,5.59692,0.59409,8.31726,0.97424c7.87903,1.04764,15.61987,1.71066,23.02295,2.63574
		c0.41162,0.02509,0.5387,0.26077,0.5271,0.74692C1122.59192,305.48691,1114.11304,340.14029,1085.89294,366.85333z"/>
	<path class="st13" d="M493.79883,628.50317l-1.81833-1.03064c-1.29767-0.73553-2.34772-2.64893-2.34772-4.27502V520.08014
		c0-1.6261,1.05005-2.43671,2.34772-1.80945l1.81833,0.87897c1.30383,0.63025,2.36273,2.46692,2.36273,4.10114v103.63263
		C496.16156,628.51764,495.10266,629.24225,493.79883,628.50317z"/>
</g>
<g id="Calque_5">
	<path class="st14" d="M1260.30505,1004.74927c-0.05005,2.27002-2.02478,3.86353-3.38989,5.67999
		c-3.29187,4.38013-8.35217,4.65002-10.53223,4.97998c-2.28992,0.34003-4.57996,0.69-6.88,0.93005
		c-1.88,0.18994-3.77002,0.31995-5.65991,0.31995c-0.95007,0-1.89014-0.02997-2.83008-0.10999
		c-0.44995-0.02997-0.92993-0.03998-1.37-0.14001c-0.39001-0.08997-0.73999-0.06995-1.15002-0.06
		c-1.09998,0.02002-2.18994,0.05005-3.28003-0.01996c-2.31995-0.14001-4.76001-0.82001-6.27002-2.59003
		c-1.40991-1.65997-1.76001-4.03998-1.33984-6.16998c0.41992-2.14001,1.52991-4.08002,2.75-5.88
		c0.8999-1.33002,1.87988-2.59998,2.92993-3.82001c0.28003-0.33002,0.55005-0.65997,0.81006-0.98999
		c2.19995-2.83002,3.63989-5.91998,5.08984-9.10004c0.02002,0.17004,0.04004,0.33002,0.06006,0.49005
		c0.1001,0.91998,0.17993,1.83997,0.25,2.75995c0.15002,2.07001,0.25,4.13,0.30005,6.20001
		c0.06006,2.07001,0.06006,4.14001,0.01001,6.21002s-0.14001,4.15002-0.29004,6.21997
		c-0.02002,0.26001-0.04004,0.52002-0.06006,0.77002c0.5-0.37,4.69006-5.03998,6.26001-6.65002
		c1.33008-1.35999,2.83008-2.53998,4.34009-3.69995c5.68994-4.37,11.53003-8.55005,17.5-12.53003
		c0.52002-0.33997,1.05994-0.70001,1.3999-1.21997c0.37012-0.55005,0.48999-1.23004,0.66003-1.88
		c0.05005-0.17999,0.09998-0.35999,0.15002-0.54004c0.30005-0.98999,0.67993-1.97998,0.82007-3
		c0.16992-1.20996,0.95996-3.25,0.04993-4.06995c-0.17004,0.07996-0.33997,0.17999-0.51001,0.28998
		c0.02002-0.42999,0.04004-0.87,0.06995-1.32001c0.08008-1.10999,0.15015-2.22998,0.04004-3.34003
		c-0.15991-1.60999-0.71997-3.12-1.1499-4.66998c0.97998-0.03998,2.01001,0.58002,2.55994,1.44
		c0.71008,1.12,0.79993,2.51001,0.77002,3.84003c-0.05005,2.13995-0.33997,4.26996-0.42004,6.40997
		c-0.09998,2.45001,0.09009,4.90002,0.28003,7.35004C1262.67285,992.13928,1260.41516,999.43927,1260.30505,1004.74927z"/>
	<path class="st14" d="M1183.05298,977.82928c-0.11011,1.97998-1.72998,3.53998-3.38013,4.63995
		c-3.54993,2.39001-7.70996,3.74005-11.25,6.13c-5.11987,3.46002-8.63989,8.87-13.6499,12.47003
		c-3.78003,2.71997-8.29004,4.32001-12.89001,5.04999c-1.60999,0.25-3.26001,0.40997-4.84998,0.09003
		c-1.89001-0.37-3.6001-1.38-5.13-2.56c-3.41003-2.63-6.19006-6.42004-6.54004-10.72003
		c-0.07996-1.04999,0.02002-2.10999,0.27002-3.13c0.59998-2.47998,2.14001-4.82001,4.41003-6.04999
		c0.5-0.27002,1.06995-0.58002,1.60999-0.76001c0.25-0.08002,0.52991-0.09998,0.81995-0.08002
		c-0.48999,0.48004,4.1178-0.5899,3.62781-0.11987c-0.46997,0.45001-1.87012,1.22906-2.12012,1.8291
		c-0.25,0.58997,0.33289,0.37292,0.81299,0.81293c0.63989,0.57996,0.05518,1.60394,0.74512,1.06396
		c-0.87988,0.73999,2.88452-0.05029,1.9646,0.6297c-0.92004,0.69-0.21912-0.36261,0.271,0.67743
		c0.29993,0.64996-1.05884,0.71521-0.33875,0.74518c0.37,0.02002,0.53076,1.07843,0.88074,0.94843
		c-0.84998,0.72003,0.3783,0.90686,0.94836,1.89685c0.55994,0.98004,0.91455,0.27228,1.9646-0.06775
		c-0.51001,0.58002,0.61377,0.39404,0.87378,1.14404c0.38989,1.09998,0,0,1.1499,0.21002
		c1.14001,0.22003-0.71472,3.44,0.41516,3.15002c0.05005,0.44,0.13013,0.88,0.29004,1.28998
		c0.02002,0.06-2.09143,1.19141-2.05139,1.2514c0.08997,0.12,0.62537,1.20715,0.74524,1.28711
		c0.30005,0.19,0.03003,0.703,0.35999,0.81299c0.68005,0.22003-0.70996-0.01996,0,0
		c1.04004,0.02002,0.04993,0.34003,1.04004,0.02002c0.85986-0.28003-1.09485-0.95142-0.65491-1.78143
		c0.09009-0.16998,1.1571-0.06323,1.28723-0.20319c0.82996-0.86005,0.17957-1.43439,0.60962-2.57434
		c0.30994-0.84003,1.64783-1.4903,2.16785-2.22028c0.30994-0.44,2.06665-2.93292,2.50659-3.26294
		c1.90002-1.38,3.5874-2.56323,5.4873-3.95325c2.56006-1.87,3.56323-7.25378,6.52319-8.37378
		c1.06006-0.40002,2.42468,1.17175,3.53479,0.97174c0.01001,0-0.9541-0.5545-0.9541-0.5545
		c0.40991-0.07001,2.38672-0.31726,2.78674-0.41724c1.48999-0.35999,3.16577,0.03082,4.39575-0.87915
		c2.06995-1.53998,4.07117-0.64551,4.8811-3.09552c0.06995-0.20001,1.28149-0.41138,1.33154-0.6214
		c0.08997-0.02002,1.00818,0.37378,1.10828,0.35376c0.51001-0.09003,1.13989,0.12,1.60986,0.33002
		C1182.05298,974.83929,1183.14294,976.26929,1183.05298,977.82928z"/>
	<path class="st15" d="M1184.45996,874.30603c-0.12988,1.75-0.20996,3.5-0.13989,5.25995
		c0.02991,0.78003-0.1001,5.14001-0.17004,6.52002c-0.18005,3.63-0.51001,7.23999-0.99011,10.84003
		c-0.29993,2.29999-0.90991,4.64996-1.00989,6.95996c-0.05994,1.44-0.4801,2.95001-0.70007,4.38
		c-0.23999,1.47003-0.46997,2.92999-0.67993,4.40002c-0.87,5.85999-2.65002,23.96997-2.78003,25.63l-0.54004,6.95996
		c-0.08997,1.13-0.28003,2.31-0.26001,3.44c0.03003,2.05005-0.29993,4.13-0.32996,6.19
		c-0.03992,2.71002,0.16003,5.44,0.83997,8.07001c0.17004,0.66998,0.37012,1.33002,0.58008,2
		c0.62988,2.02002,1.34998,4.12,1.23999,6.28003c-0.02002,0.38995-0.05347,0.82782-0.11865,1.20703
		c-0.13477,0.78333-0.72144,1.91296-0.79138,2.11298c-0.80994,2.44995-2.41003,4.64996-4.47998,6.19
		c-0.17004-0.26001-0.30994-0.55005-0.43005-0.84003c-0.12988-0.28003-0.20996-0.56-0.41992-0.78998
		c-0.44995-0.51001-0.87012-0.94-1.46997-1.28003c-1.46997-0.83002-3.21008-1.07001-4.88013-0.95001
		c-0.45996,0.03003-0.84985,0.07001-1.27991,0.19c-0.27002,0.08002-0.55005,0.17004-0.81995,0.25
		c-0.55005,0.17004-1.09009,0.34003-1.64014,0.52002c-1.07996,0.34998-2.15991,0.72998-3.23999,1.12
		c-2.13989,0.78998-4.26001,1.65997-6.34998,2.59998c-1.06995,0.49005-2.14001,1-3.19006,1.53003
		c-0.90991,0.45001-1.78992,1.02002-2.7699,1.27002c-0.75,0.19995-1.40002,0.95996-1.89001,1.51996
		c-0.09998-1.91998,0.20996-3.79999,0.73999-5.63c0.82007-2.84998,2.16992-5.60999,3.35999-8.33997
		c0.45007-1.02002,0.87-2.04999,1.27002-3.09003c0.71008-1.82996,1.35999-3.70001,1.94006-5.57996
		c0.05994-0.19,0.21997-0.51001,0.20996-0.76001c0.21997-0.22003,0.43994-0.42004,0.65991-0.63
		c2.36011-2.17999,4.12012-5.01001,4.98999-8.10004c1.26001-4.50995,0.67017-9.29999,0.07007-13.92999
		c-0.20996-1.65997-0.42993-3.31-0.64001-4.96997c-0.42004-3.22003-2.83997-29.78003-3.68005-37.90002
		c-1-9.64001-2-19.27002-2.98999-28.90997c-0.25-2.41003-0.97998-16.95001-1.02002-18.32001
		c-0.03992-1.10004-0.25989-2.20001-0.40991-3.28003c-0.40002-2.78998-0.77002-5.58997-1.07007-8.38995
		c-0.06995-0.70001-0.13989-1.40002-0.20996-2.09003c-0.30005-3.17999-0.5-6.37-0.55005-9.56c0-0.31-0.01001-0.62,0-0.92999
		c0-1.13,0.03003-2.26001,0.04004-3.38c1.69995,0.94,4.9574-6.19769,6.8175-5.5777
		c3.48999,1.08997,6.58618,2.66522,10.23621,2.97522c6.65002,0.56,12.43628,7.59247,19.10632,7.63245
		c-0.16003,1.91003-0.42004,3.85004-0.66003,5.78003c-0.25,2.01001-0.47998,4.01001-0.55994,5.98999
		c-0.33997,8.35999,2.02991,16.63,1.89001,24.98999C1185.21997,867.37598,1184.72998,870.836,1184.45996,874.30603z"/>
	<path class="st16" d="M1184.62,827.12598c-0.16003,1.91003-0.42004,3.85004-0.66003,5.78003l-35.54004-7.42999
		c0-1.13,0.03003-2.26001,0.04004-3.38c1.69995,0.94,6.06934-6.4826,7.92944-5.86261
		c3.48999,1.08997,5.47424,3.86298,9.12427,4.17297C1172.1637,820.96637,1177.94995,827.086,1184.62,827.12598z"/>
	<path class="st15" d="M1260.18994,975.80603c-0.03003,0.44995-0.04993,0.88995-0.06995,1.31995
		c-1.96997,1.24005-3.71008,4.09003-4.89001,5.98004c-3.5,5.59998-10.27002,8.14001-15.13989,12.59998
		c-2.47009,2.26001-4.46008,5.04004-7.15015,7.02002c-0.73901-6.32416,0.80493-13.17413-1.79993-19.14001
		c-0.01001-0.03998-0.03003-0.07001-0.04993-0.10999c1.69531-4.65753,6.0282-8.08838,6.90015-13.0799
		c0.13977-1.25012-0.0603-2.51013-0.16016-3.76013c-0.22009-2.76001,1.13989-4.65997,0.95996-7.42999
		c-0.42859-6.19061-1.09009-12.37335-1.98999-18.51001c-1.73462-14.00446-6.72302-27.26129-10.41992-40.83002
		c-1.93677-7.4953-2.36938-12.78577-3.64014-19.12994c-3.58264-18.3479-9.46936-36.16687-10.80005-54.86005
		c-0.55261-8.84515,10.47302-9.22101,15.98743-9.86743c6.81201-0.79858,14.71924-0.79999,20.99255,5.64746
		c0.05518,7.67285,0.95862,15.34839,2.66016,22.82001c0.89062,4.31189,3.10168,10.41284,3.80994,14.44989
		c2.06384,8.31122,2.84265,16.88959,3.69995,25.43011c0.4895,4.94971,0.72595,9.90942,0.74011,14.88
		c0.3219,1.47357,0.31165,2.98718,0.07959,4.46997c-0.85852,11.92694-1.71973,23.83606-2.57959,35.77002
		c-0.19617,3.8031-0.98108,11.17963-1.28015,15.00024c0.27307,4.41309,1.98389,8.6059,2.9198,12.90979
		C1259.82849,970.12335,1260.60486,972.90582,1260.18994,975.80603z"/>
	<path class="st16" d="M1248.98999,824.72601c-7.70996,1.26001-28.97998,4.64001-36.05005,4.79999
		c-0.22998,0.01001-0.44995,0-0.66992-0.01001c-0.13-1.20996-0.23999-2.42999-0.33008-3.64001
		c3.828-4.8277,9.50732-8.4975,14.38745-9.0675c7.44995-0.88,14.63928,1.35992,22.59253,4.84753
		C1248.92993,822.67603,1248.94995,823.70599,1248.98999,824.72601z"/>
	<path class="st17" d="M1258.89294,819.98926c0.18005,0.95001-1.23999,0.64001-1.95007,0.72998
		c-2.66992,0.31-5.34985,0.62006-8.02002,0.94c-7.43994,0.86005-14.87988,1.73004-22.32983,2.61005
		c-4.88013,0.57001-9.76001,1.13995-14.65015,1.60999c-1.8999,0.19-3.80994,0.34998-5.71997,0.5
		c-7.18994,0.56-14.38989,0.81-21.59998,0.75c-6.67004-0.03998-13.33997-0.35004-19.98999-0.91003
		c-3.65002-0.31-7.31995-0.70996-10.80994-1.79999c-1.86011-0.62-3.66003-1.38-5.36011-2.32001
		c-1.06995-0.59998-2.10986-1.25995-3.09998-2.00995c-1.28992-0.96002-2.48999-2.03003-3.59998-3.20001
		c-1.10999-1.17999-2.34998-2.16003-3.56006-3.25c0.78003-2.08002,1.46997-4.21002,2.07007-6.35004
		c2.02002-7.29999,2.98999-14.83997,3.5-22.37c0.26001-3.79999,0.3999-7.60999,0.5-11.40997
		c0.05005-1.72003-0.19995-3.73004,0.21997-5.40002c0.15002-0.58997,0.36011-1.08997,0.40002-1.70001
		c0.29993-4.59998,0.22998-9.31995,0.22998-13.92999c0.14001-8.16998,0.27002-16.33997,0.41003-24.51001
		c0.07007-4.08997,0.13-8.17999,0.19995-12.25995c0.03003-2.02002-0.08997-4.12,0.1001-6.13
		c0.02991-0.32001,0.13989-0.57001,0.21997-0.87c0.40991-1.65002,0.34998-3.54004,0.51001-5.23004
		c0.46997-5.07996,0.94995-10.15997,1.41992-15.25c0.17004-1.78998,0.07007-3.53998,0.33008-5.13
		c1.59998,1.75,3.3999,3.34003,5.36987,4.67004c1.67017,1.13,3.46008,2.08997,5.34009,2.82001
		c0.6499,0.25,1.17993,0.44995,1.80005,0.79999c0.56995,0.32001,1.1499,0.63,1.73999,0.91998
		c1.16992,0.57001,2.37988,1.08002,3.60986,1.53003c2.47009,0.89996,5.02002,1.54999,7.6001,2.06
		c2.67993,0.51996,5.38,0.87994,8.08997,1.16998c11.44006,1.20996,23.06995,1.25,34.41003-0.72003
		c10.33008-1.77997,20.41992-5.25995,29.33008-10.75c1.38989,2.54004,1.88989,5.49005,2.34985,8.37
		c0.32007,2,0.62012,4,0.91003,6.01001c0.58997,4.01001,1.12,8.03003,1.59998,12.06
		c1.11011,9.23004,1.6001,18.47003,1.62012,27.78003c0.01001,4.32001-0.08008,8.64996-0.61011,12.94
		c-0.01001,0.12-0.03003,0.23999-0.04004,0.34998c-0.51001,3.94-1.35986,7.83002-1.79993,11.78003
		c-0.21997,1.95996-0.32996,3.91998-0.25,5.88995c0.03992,0.82001,0.08997,1.57001,0.37,2.34003
		c0.28003,0.79999,0.27002,1.66998,0.34009,2.51001c0.20996,2.32001,0.43994,4.63,0.67993,6.94
		c0.80005,7.54999,1.83008,15.08002,3.54004,22.47998c0.84998,3.67999,1.85986,7.32001,3.07996,10.90002
		c0.30994,0.89001,0.63,1.77997,0.96997,2.65997C1258.52295,819.04926,1258.80298,819.53925,1258.89294,819.98926z"/>
	<path class="st15" d="M1145.19714,458.37244c-0.58643,4.47299,0.11572,9.10748,2.00061,13.20609
		c0.47595,1.03494,1.03015,2.04965,1.27637,3.16187c0.39941,1.80365-0.04578,3.67001-0.24451,5.50662
		c-0.88647,8.1972,3.16394,16.06082,7.44873,23.10504c0.59949,0.98563,1.23352,1.95309,1.94531,2.86188
		c0.48633,0.62082,1.04932,1.17056,1.55493,1.76968c0.27515,0.32611,0.67065,0.5314,1.0448,0.73758
		c0.87048,0.47958,1.80847,0.83667,2.77808,1.05515c0.87561,0.19733,1.77222,0.28214,2.66577,0.36649
		c0.9021,0.08517,1.8042,0.17035,2.70642,0.25549c0.70728,0.06677,1.53784,0.02527,2.22266,0.21069
		c0.33276,0.09015,0.30383,0.25592,0.33105,0.58987c0.06628,0.81143,0.13293,1.62289,0.19946,2.4343
		c0.13452,1.64368,0.26917,3.28729,0.40369,4.93097c0.05432,0.66302,0.10413,1.35657-0.15588,1.96893
		c-0.19983,0.47064-0.56482,0.84857-0.92651,1.21002c-2.92053,2.91821-6.13953,5.52478-9.06348,8.43951
		c-2.92407,2.91467-5.58655,6.20105-7.08911,10.04651c-1.99182,5.09735,0.49768,10.83362,4.62122,14.43182
		c2.80896,2.45117,6.70508,3.19006,10.42102,3.4903c7.3938,0.59735,14.97498-0.19995,21.84839-2.98938
		c6.87329-2.78937,13.00244-7.65411,16.70215-14.08337c0.00818-0.0141,0.01624-0.02826,0.02441-0.04236
		c0.3512-0.61267,0.68018-1.23785,0.9939-1.87054c0.573-1.1557,1.30029-2.23041,1.97266-3.33868
		c0.3606-0.59448,0.72131-1.18896,1.08203-1.78345c0.1803-0.2973,0.36072-0.59454,0.54102-0.89178
		c0.09375-0.15454,0.1875-0.30914,0.28137-0.46368c0.05212-0.08594,0.23804-0.29535,0.23804-0.3924
		c0.44702-0.73682,0.90588-1.63989,0.53064-2.41565c-0.25781-0.53278-0.85486-0.82947-1.44128-0.90863
		c-0.58655-0.07916-1.18018,0.02002-1.76965,0.07227c-0.77637,0.06879-1.55981,0.0556-2.33337-0.03851
		c-0.33545-0.04083-0.68823-0.1524-1.02625-0.12866c-0.82251,0.05768-1.69373-0.13129-2.46692-0.4093
		c-0.41895-0.1507-0.81702-0.35645-1.1853-0.60651c-1.03979-0.70605-1.81494-1.7359-2.42603-2.81989
		c-0.31702-0.56219-0.59338-1.14655-0.84619-1.74017c-0.1178-0.27667-0.1947-0.53369-0.2666-0.82092
		c-0.16077-0.6427-0.53162-1.25983-0.73792-1.8963c-0.28601-0.88239-0.50049-1.78693-0.67065-2.69836
		c-0.6748-3.6167-0.82568-7.3765,0.01819-10.95752c0.84399-3.58102,2.73999-6.97916,5.64136-9.24152
		c5.01929-3.91379,7.0979-10.86911,9.02905-16.93387c1.93115-6.06473,2.45105-12.70639,0.59558-18.79471
		c-1.09204-3.58307-3.20032-7.11185-6.6062-8.67072c-2.51697-1.15198-5.51599-1.12845-7.84216-2.62875
		c-1.93396-1.24731-3.4137-3.52713-5.71106-3.66357c-10.49011-0.62299-20.08777-8.87598-30.53552-10.00598
		c-2.9762-0.3219-6.03101-0.46729-8.92297,0.30609c-4.28198,1.14514-7.95117,4.38208-9.62134,8.48782
		C1142.75696,449.888,1142.93054,454.56339,1145.19714,458.37244z"/>
	<path class="st15" d="M1168.79297,982.93927c-1.11011,0.20001-2.23999,0.34998-3.30005,0.75
		c-2.95996,1.12-4.21997,5.01001-6.78003,6.88c-1.8999,1.39001-3.79993,2.77997-5.69995,4.15997
		c-0.43994,0.33002-0.89001,0.66003-1.19995,1.10004c-0.52002,0.72998-0.61011,1.66998-0.92004,2.51001
		c-0.43005,1.13995-1.23999,1.94995-2.06995,2.81c-0.13013,0.13995-0.22998,0.27997-0.32007,0.44995
		c-0.43994,0.83002-1.54004,1.31-2.3999,1.59003c-0.99011,0.32001-2.05005,0.42999-3.09009,0.40997
		c-0.70996-0.01996-1.42993-0.08997-2.10999-0.31c-0.32996-0.10999-0.65002-0.25-0.95007-0.44
		c-0.11987-0.07996-0.31995-0.19-0.40991-0.31c-0.04004-0.06-0.04004-0.10999-0.06006-0.16998
		c-0.15991-0.40997-0.23999-0.84998-0.29004-1.28998c-1.12988,0.28998-2.30994,0.51001-3.44995,0.28998
		c-1.1499-0.21002-2.26001-0.92999-2.6499-2.02997c-0.26001-0.75-0.07007-1.64001,0.43994-2.22003
		c-1.05005,0.34003-2.37-0.02997-2.92993-1.01001c-0.57007-0.98999-0.21008-2.33997,0.63989-3.06
		c-0.34998,0.13-0.71997,0.19-1.08997,0.16998c-0.72009-0.02997-1.44006-0.42999-1.73999-1.07996
		c-0.49011-1.04004,0.21997-2.27002,1.14001-2.96002c0.91992-0.67999,2.05005-1.06,2.92993-1.79999
		c-0.68994,0.53998-1.75,0.83997-2.38989,0.26001c-0.4801-0.44-0.53003-1.21002-0.28003-1.79999
		c0.25-0.60004,0.72998-1.07001,1.19995-1.52002c0.48999-0.47003,0.96997-0.92999,1.45996-1.41003
		c0.80005-0.75995,1.6001-1.53998,2.40002-2.31c2.27002-2.19995,4.54004-4.40997,6.79004-6.63
		c1.54993-1.51996,3.09998-3.04999,4.64001-4.57996c-0.37012,2.32996-1.06006,4.59998-2,6.76001
		c-0.44995,1.02997-0.96997,2.02997-1.33008,3.08997c-0.27002,0.77002-0.44995,1.57001-0.59998,2.37
		c-0.10999,0.54999-0.20007,1.10999-0.28992,1.66998c-0.46008,2.91003-0.92004,5.91003-0.22009,8.77002
		c0.09998,0.41998,0.31995,0.91003,0.75,0.92999c0.24011,0.01001,0.45007-0.14996,0.64001-0.29999
		c1.04004-0.87,1.81006-2.02002,2.85999-2.87c1.22009-1,2.7301-1.53998,4.16003-2.19c3.06006-1.37,5.87-3.23999,8.77002-4.91998
		c1.37-0.79999,2.80005-1.56,4.35999-1.81s3.30994,0.09998,4.38,1.26996c0.23999,0.27002,0.45996,0.58002,0.80005,0.72003
		C1168.65295,982.89929,1168.7229,982.91925,1168.79297,982.93927z"/>
	<path class="st18" d="M1156.31299,526.78925c-0.27002,0.23999-0.48999,0.57001-0.70007,0.88
		c-4.69006,7.04999-9.41003,14.13-13.19995,21.71002c-3.03003,6.07001-5.46008,12.46997-6.72009,19.14996
		c-0.11987,0.61005-0.28992,1.06006-0.52991,1.62006c-0.01001,0.01996-0.02002,0.03998-0.02002,0.06
		c-1.44006,1.10999-2.92004,2.17999-4.34998,3.27997c-5.59009,4.28998-10.72998,9.13-15.8501,13.96002
		c-2.8999,2.71997-5.78992,5.45001-8.68994,8.17999c-0.70996,0.67999-1.44995,1.37-2.37,1.72998
		c-0.65002,0.26001-1.35999,0.34003-2.05994,0.35999c-3.10999,0.11005-6.17004-0.77997-9.13-1.75
		c-6.92004-2.26996-13.62-5.25-20.68005-7.06995c20.06006-15.97003,37.42993-35.02002,56.25-52.43005
		c4.32007-4,8.93994-8.02997,14.63-9.53998C1147.23291,525.76929,1151.83301,526.20929,1156.31299,526.78925z"/>
	<path class="st19" d="M1279.09302,761.24927c-1.30005,2.56-1.89014,5.42999-3.04004,8.07001
		c-0.80005-0.19-1.58008-0.38-2.37012-0.57001c-0.5-0.12-1.09985-0.34003-1.16992-0.84003
		c-0.03003-0.22998,0.06006-0.45996,0.15002-0.66998c0.20996-0.5,0.42004-1,0.63-1.5c0.25-0.58002,0.51001-1.17999,0.97998-1.58997
		c1.17993-1.02002,3.29004-0.60004,4.17993-1.87006C1278.68286,761.94928,1278.89294,761.60925,1279.09302,761.24927z"/>
	<path class="st15" d="M1289.70288,771.16925c-0.72998,1.29004-1.54993,2.39001-2.56995,3.46002
		c-0.17004,0.19-0.29993,0.33002-0.55994,0.41998c-0.87012,0.28003-1.89014,0.33002-2.80005,0.48999
		c-1.93994,0.33002-3.88,0.67004-5.82007,1c-0.83997,0.88-0.67993,1.55005-1.3999,2.53003s-1.66003,1.89001-2.8501,2.14996
		c-1.18994,0.26001-2.61987-0.37994-2.86987-1.56995c-0.14014-0.67004,0.09985-1.36005,0.3999-1.98004
		c1.38-2.91998,3.89001-5.26996,4.83008-8.34998h-0.01001c1.1499-2.64001,1.73999-5.51001,3.04004-8.07001
		c0.02991-0.07001,0.06995-0.15002,0.10986-0.22003c2.13013-3.97998,2.22998-9.26996,1.22998-13.63995
		c-0.52991-2.34003-1.63989-4.5-2.75-6.63c-3.15991,1.77997-3.60986,6.44-6.59985,8.48999
		c-1.27002,0.85999-2.84009,1.15002-4.38013,1.23999c-0.88989-0.04999-1.92993-0.53998-2.77002-0.83002
		c-0.84985-0.28998-1.63989-0.87-1.97998-1.69c-0.28992-0.70996-0.21997-1.50995-0.12988-2.26996
		c0.15991-1.29004,0.38989-2.62,1.08997-3.72003c1.2699-2.01001,3.91003-3,4.7699-5.21997
		c0.46008-1.17999,1.08008-1.92999,1.38013-3.16998c0.31995-1.31006,0.07996-2.71002,0.38989-4.03003
		c0.8501-3.59998,5.29004-5.17999,6.8501-8.53003c1.55994-3.32996,0.55005-6.37-0.06006-9.98999
		c-3.05005-18.01001-9.23999-45.5-9.87-50.13995c-0.17004-1.19-3-18.32001-3.13-19.5c-0.12-1.11005-0.25-2.22003-0.59998-3.28003
		c-0.38-1.17999-1.03003-2.23999-1.68005-3.28998c-1.04993-1.67999-2.13989-3.34003-3.25-4.97003
		c-0.56995-0.83002-1.13989-1.64996-1.71997-2.46997c-0.22998-0.33002-5.46997-8.70001-6.96997-11.21002
		c-0.79004-1.33002-4.06006-7.77997-4.53003-8.81c-0.46997-1.03998-1.01001-2.04999-1.57007-3.04999
		c-2.0199-3.66998-4.04993-7.33002-6.05994-11c0.01001-0.09003,0.01001-0.17999,0.02002-0.27002
		c-2.18005-2.95996-3.16003-6.88-5.37-9.83002c-0.33008-0.44-0.79004-1.25-1.31006-1.54999
		c-0.51001-0.29999-1.1499-0.45001-1.67993-0.69c-1.13-0.51996-2.18994-1.15997-3.17993-1.89996
		c-1.25-0.91003-2.39014-1.96002-3.45007-3.08002c-0.35999-0.39001-0.69006-0.81-1.09998-1.15002
		c-0.28003-0.22998-0.59009-0.39996-0.82007-0.67999c-0.38989-0.46997-0.63989-1.07996-0.92993-1.62
		c-0.3501-0.62-0.68994-1.25-1.03003-1.88c-0.98999-1.81-1.97998-3.63-2.78003-5.52997
		c-2.35999-5.67004-2.90991-12.08002-1.54004-18.06c1.36011-5.98999,4.63013-11.52002,9.22009-15.61005
		c0-0.06-0.01001-0.10999-0.01001-0.15997c6.32996,0.28003,12.52991,2.71002,17.37,6.81
		c5.18994,4.39001,8.65991,10.45001,11.67993,16.53003c2.46008,4.94995,3.83008,10.02997,6.08008,15.06995
		c2.43994,5.45001,5.18994,10.75,7.92993,16.05005c2.43005,4.69,13.77002,27.46997,15.47998,31.04999
		c3.03003,6.33002,5.5,12.98999,6.52002,19.95996c0.68005,4.60004,0.91003,9.38,0.87012,14.03003
		c-0.01001,0.69,1.11987,15.34003,1.46997,19.62c0.68994,8.54999,0.82996,17.15002,0.40991,25.72003
		c-0.07996,1.53998-0.16992,3.07996-0.29004,4.62c-0.25,3.47998-0.59985,6.96997-0.5,10.45996
		c0.06006,2.25,0.31006,4.5,0.56006,6.73999c0.36011,3.26001,0.45996,6.67004,1.13,9.88c0.2301,1.06,0.45007,2.13,0.67004,3.20001
		c0.44995,2.14001,0.88989,4.27002,1.32996,6.41003c0.89001,4.26996,1.78003,8.53998,2.67004,12.81
		c0.32007,1.5,0.63,2.98999,0.93994,4.48999C1298.44287,760.62927,1292.67285,765.95929,1289.70288,771.16925z"/>
	<path d="M1144.9978,461.35785c-0.3186-3.48322,1.67688-5.82074,3.49988-8.68561c1.82288-2.8649,4.24487-5.56195,7.4696-6.62564
		c2.29138-0.7558,4.78125-0.6196,7.13416-1.15405c2.1145-0.48032,4.1217-1.50198,6.28796-1.59943
		c2.87146-0.12915,5.55505,1.38321,7.86511,3.09375c2.30994,1.71054,4.48218,3.69641,7.14648,4.77493
		c1.09509,0.44336,2.35583,0.8017,2.96228,1.81577c0.35144,0.58774,0.41309,1.29703,0.49548,1.97684
		c0.96582,7.95929,5.86658,15.19495,5.9281,23.21237l1.79944-9.00717c0.1571-0.78665,0.39246-1.56299,0.78076-2.26492
		c2.70227-4.88449,7.58728-1.90652,8.34766,1.66779c0.25525,1.20016,0.30627,2.50906-0.24609,3.61969
		c-0.28979,0.58255-0.40759,1.1936-0.59973,1.81262c-0.44946,1.44839-1.14709,2.82013-2.05835,4.03278
		c-0.51184,0.6813-1.09961,1.32993-1.39795,2.12823c-0.42749,1.1438-0.19983,2.41623,0.04553,3.61243
		c0.8429,4.10828,1.83545,8.18579,2.97522,12.22177c0.22144,0.7843,0.03333,2.32318-1.14087,3.32422
		c-1.30896,1.116,5.45654-0.43655,7.08423-0.99295c2.90564-0.99329,5.8114-1.98657,8.71704-2.97986
		c1.24719-0.42633,2.51453-0.86285,3.58533-1.63135c0.76794-0.55118,1.41028-1.25604,2.11499-1.88626
		c1.45642-1.30258,3.16956-2.27826,4.86829-3.24368c2.60046-1.47781,2.71423-3.63754,1.97949-6.53687
		c-0.35327-1.39426-0.97937-2.83121-0.58813-4.21527c0.23279-0.82327,0.79932-1.5029,1.22803-2.24329
		c1.00061-1.72824,1.24426-3.77737,1.46716-5.76193c0.37842-3.36823,0.75635-6.78308,0.24744-10.13409
		c-0.20862-1.3743-0.56531-2.72693-0.68567-4.11176c-0.10095-1.16068-0.04089-2.36523-0.47375-3.44687
		c-0.25952-0.64868-0.68872-1.22839-0.86865-1.9035c-0.55017-2.06415,1.08569-2.81427,2.77197-4.12579
		c-0.23328-1.99216-1.59509-1.5043-1.34753-3.10968c0.04761-0.30908-0.05737-0.62766-0.26147-0.86462
		c-1.37561-1.59744-0.74548-0.89755-1.63892-3.39661c-0.44446-1.24329-0.68567-2.57529-1.35999-3.71048
		c-0.66101-1.11273-1.68787-1.95132-2.54395-2.92203c-2.61328-2.96313-3.66357-7.18832-6.71973-9.69217
		c-0.4635-0.3797-0.98267-0.73172-1.25793-1.26389c-0.34583-0.66833-0.2334-1.46954-0.32129-2.21689
		c-0.32886-2.7944-3.32837-4.41513-6.05359-5.11505c-2.72522-0.69995-5.77332-1.07703-7.70081-3.12677
		c-0.68066-0.72385-1.16907-1.61353-1.86829-2.31943c-1.58691-1.60193-4.02954-2.02844-6.28027-1.8923
		s-4.45337,0.74609-6.70471,0.87018c-2.104,0.11594-4.23083-0.19986-6.21033-0.92215
		c-2.85791-1.04282-5.68188-2.95676-8.66541-2.36246c-1.61169,0.32104-2.9834,1.34427-4.50061,1.97534
		c-2.64246,1.09903-5.62427,0.97385-8.401,1.66876c-1.86707,0.46735-3.40845,1.43939-4.67383,2.87109
		c-0.18176,0.20563-0.35168,0.41629-0.59277,0.55652c-0.52319,0.30435-1.25342,0.37585-1.82837,0.53604
		c-1.97827,0.55127-3.95654,1.10233-5.93481,1.6535c-1.16577,0.32477-2.39404,0.68652-3.21802,1.57281
		c-0.82397,0.88632-1.01331,2.47818-0.06433,3.22903c-0.96851,0.20242-1.55005,1.21851-1.74902,2.18774
		s-0.14502,1.98877-0.45679,2.92786c-0.60229,1.81473-2.38586,2.90802-3.77454,4.22244
		c-4.50745,4.26669-5.00647,11.15247-5.21338,17.35559c-0.04773,1.431-0.08887,2.90497,0.4115,4.24649
		c0.33081,0.88666,0.88916,1.68631,1.11829,2.60452c0.42822,1.71677-0.34448,3.63495,0.37219,5.25266
		c1.0835,2.44608,2.79504,2.81161,5.72925,4.11551"/>
	<g>
		<path class="st20" d="M1161.30371,495.71985c1.68701-0.10873,3.33862-0.41684,4.90466-0.95837
			c1.56104-0.54965,3.05017-1.29062,4.38257-2.25598c1.34229-0.95139,2.52332-2.12247,3.54578-3.42371
			c1.01709-1.30795,1.84021-2.77243,2.48743-4.33426c-0.35046,1.65945-1.06458,3.24542-2.01953,4.67172
			c-0.94958,1.43311-2.17786,2.6835-3.57727,3.69562c-1.4093,0.99823-2.98828,1.7587-4.65088,2.19574
			C1164.71887,495.75592,1162.98755,495.92111,1161.30371,495.71985z"/>
	</g>
	<g>
		<path class="st20" d="M1161.18787,471.47003c-0.26428,1.48166-0.60742,2.94061-0.96265,4.39618
			c-0.34705,1.45789-0.75061,2.89954-1.15442,4.34113l-0.63782,2.15216c-0.10742,0.34146-0.18762,0.67838-0.14905,0.95126
			c0.03687,0.26733,0.19116,0.44669,0.49841,0.60648c1.28711,0.60724,2.7915,0.85016,4.28308,0.72739
			c-1.45068,0.42896-3.05127,0.35474-4.52344-0.20294c-0.19104-0.0787-0.39526-0.18457-0.57214-0.36136
			c-0.17542-0.17944-0.28992-0.4213-0.33289-0.655c-0.08398-0.47247,0.02014-0.88629,0.11292-1.25983l0.60046-2.16489
			c0.42188-1.43637,0.84412-2.87271,1.32288-4.29279C1160.1438,474.28537,1160.62622,472.86636,1161.18787,471.47003z"/>
	</g>
	<g>
		<path class="st20" d="M1168.4668,463.01685c1.63281-0.68039,3.40369-0.97043,5.16711-1.02045
			c1.76379-0.02905,3.54614,0.18271,5.20679,0.79248c-1.76416-0.02435-3.47217-0.09058-5.19043-0.04312
			C1171.93164,462.77225,1170.22778,462.91327,1168.4668,463.01685z"/>
	</g>
	<g>
		<path class="st20" d="M1149.64856,465.80289c0.73267-0.67911,1.50098-1.32239,2.37073-1.84412
			c0.86084-0.52917,1.83081-0.93628,2.86169-1.10556c2.08154-0.31201,3.99854,0.19693,5.98438,0.13474
			c-0.95215,0.32336-1.98047,0.40271-2.96851,0.42648c-0.99146,0.03455-1.96631,0.02234-2.89648,0.17877
			C1153.13196,463.87396,1151.44153,464.92554,1149.64856,465.80289z"/>
	</g>
	<path class="st15" d="M1257.24365,1005.76294c-0.94006,0.46802-1.65308,0.93811-2.68311,0.80811
		c-1.03992-0.13-1.06055-2.80182-1.15051-3.8418c-0.34998,0.89996-0.10608,4.65222-0.55603,5.51221
		c-0.35999,0.71002-2.14673,1.46136-3.30273,1.52057c-1.82666,0.09363-1.86084-0.38464-2.41504-1.58698
		c-0.75635-1.64075,0.27673-2.93579,0.10669-4.73578c-0.34998,1.70001-0.68994,3.40997-1.03003,5.12
		c-0.04993,0.21997-0.09998,0.45001-0.23999,0.64001c-0.13989,0.19-0.35999,0.28998-0.57996,0.39001
		c-0.96008,0.41998-2.19714,0.9873-3.22717,1.09735c-0.34998,0.03998-2.55591-0.21674-2.70593-0.60675
		c-0.45007-1.20001-0.67004-2.89496,0.13318-4.51062c-0.61011,0.85999-0.41016,2.03998-0.2301,3.08002
		c0.17004,1.03998,0.24011,2.26996-0.53992,2.97998c-0.40015,0.35999-1.45642,1.30304-1.97644,1.42303
		c-1.85999,0.40997-2.72351,0.27344-4.61365,0.13342c-0.27002-0.01996-1.09998-0.56647-1.29004-0.75647
		c-0.22998-0.22998-0.23999-0.58997-0.19995-0.91998c0.08008-0.78003,0.32007-1.54999,0.36011-2.33002
		c0-0.10999,0.0199-0.19,0.04993-0.23999v-0.01001c0.02991-0.02997,0.05994-0.06,0.07996-0.08997
		c1.58008-1.59003,2.91003-3.45001,4.47998-5.06006c1.33008-1.35999,2.83008-2.53998,4.34009-3.69995
		c5.68994-4.37,11.53003-8.55005,17.5-12.53003c0.52002-0.33997,1.05994-0.70001,1.3999-1.21997
		c0.37012-0.55005,0.48999-1.23004,0.66003-1.88c0.05005-0.17999,0.09998-0.35999,0.15002-0.54004
		c-0.04004,0.36005-0.08008,0.73004-0.13,1.11005c-0.26001,2.06-1.02002,4.01996-1.53992,6.03998
		c-0.53003,2.01001-0.81006,4.17999-0.12012,6.14001c0.44995,1.31-0.43005,3.64429,0.08997,4.92426
		C1258.58289,1003.39355,1258.30054,1005.23676,1257.24365,1005.76294z"/>
	<path class="st15" d="M1229.45288,1010.42926c0.5-0.37,0.57715-0.44208,1.01721-0.89203
		c-0.54993,1.10999-0.53723,0.75201-1.59717,2.31201c-0.77991,1.15002-1.58997,2.36005-2.95996,2.58002
		c-1.38,0.21002-2.79004-0.25-3.96008-1c-0.73999-0.47998-1.40991-1.08002-1.83997-1.83997
		c-0.64001-1.14001-0.68005-2.51001-0.68005-3.81006c0.01001-1.46997,0.06006-2.96997,0.59009-4.32996
		c0.39001-1.01001,1.03003-1.90002,1.64001-2.79004c0.84998-1.23999,1.65002-2.5,2.43005-3.77997
		c1.6499-2.72998,3.15991-5.54999,4.58984-8.41003c0.16016-0.31995,0.32007-0.63995,0.47009-0.95996
		c0.01001,0.08997,0.0199,0.17999,0.02991,0.26996c0.02002,0.17004,0.04004,0.33002,0.06006,0.49005
		c0.1001,0.91998,0.17993,1.83997,0.25,2.75995c0.15002,2.07001,0.25,4.13,0.30005,6.20001
		c0.06006,2.07001,0.06006,4.14001,0.01001,6.21002s-0.14001,4.15002-0.29004,6.21997
		C1229.49292,1009.91925,1229.4729,1010.17926,1229.45288,1010.42926z"/>
	<g>
		<path class="st20" d="M1169.72559,955.56909l1.17578,1.3158c0.36914,0.40338,0.8186,0.96338,1.04541,0.91724
			c0.18787,0.07178,0.57141-0.57208,0.8894-1.01477c0.32361-0.47864,0.66382-0.95496,1.02319-1.44171
			c-0.08997,0.59839-0.26294,1.18079-0.51245,1.72742c-0.11804,0.28094-0.25964,0.53412-0.41357,0.80981
			c-0.15784,0.25403-0.45105,0.64764-0.97717,0.6687c-0.51038-0.02045-0.79956-0.33051-1.00732-0.56683
			c-0.19604-0.25757-0.36438-0.48926-0.51782-0.75525C1170.11584,956.7157,1169.87708,956.15479,1169.72559,955.56909z"/>
	</g>
	<g>
		<path class="st20" d="M1251.90784,958.09399c0.83569,0.2608,1.5177,0.67371,2.22437,0.85992
			c0.34045,0.10284,0.70129,0.14441,1.06409,0.1402c0.36072-0.01764,0.73682-0.06958,1.12476-0.27106
			c-0.17004,0.40698-0.57629,0.72211-1.02075,0.84698c-0.4458,0.14014-0.92493,0.12518-1.37341,0.00476
			C1253.04175,959.40558,1252.3772,958.81207,1251.90784,958.09399z"/>
	</g>
	<path class="st21" d="M1231.23291,1008.83929c-0.03003,0.00995-0.06006,0.03998-0.07996,0.08997v0.01001
		c-0.08997,0.09998-0.19006,0.19-0.29004,0.27002c0.07996-0.13,0.15002-0.29004,0.2301-0.47003
		C1231.15295,1008.78925,1231.19287,1008.81927,1231.23291,1008.83929z"/>
	<path class="st22" d="M1260.58301,980.90924c-0.14014,1.02002-0.52002,2.01001-0.82007,3
		c-0.05005,0.18005-0.09998,0.36005-0.15002,0.54004c-0.17004,0.64996-0.28992,1.32996-0.66003,1.88
		c-0.33997,0.51996-0.87988,0.88-1.3999,1.21997c-5.96997,3.97998-11.81006,8.16003-17.5,12.53003
		c-1.51001,1.15997-3.01001,2.33997-4.34009,3.69995c-1.56995,1.61005-2.8999,3.47003-4.47998,5.06006
		c-0.04004-0.02002-0.07996-0.05005-0.13989-0.10004c-0.08008,0.17999-0.15015,0.34003-0.2301,0.47003
		c-0.44006,0.44995-0.91003,0.84998-1.41003,1.21997c0.02002-0.25,0.04004-0.51001,0.06006-0.77002
		c0.15002-2.06995,0.23999-4.14996,0.29004-6.21997s0.05005-4.14001-0.01001-6.21002c-0.05005-2.07001-0.15002-4.13-0.30005-6.20001
		c-0.07007-0.91998-0.1499-1.83997-0.25-2.75995c-0.02002-0.16003-0.04004-0.32001-0.06006-0.49005
		c-0.01001-0.08997-0.0199-0.17999-0.02991-0.26996c-0.03003-0.31-0.04993-0.63-0.04004-0.95001
		c0.01001-0.53998,0.13-1.06,0.31995-1.57001c0.29004-0.77002,0.67017-1.62,1.13013-2.29999
		c0.19995,0.22998,0.37988,0.5,0.53003,0.78998c0.0199,0.04004,0.03992,0.07001,0.04993,0.11005
		c0.18005,0.33997,0.32996,0.68994,0.46008,1.00995c0.97998,2.46002,1,5.17999,1.02991,7.79004
		c0.03992,3.45001,0.14001,6.89996,0.30994,10.33997c2.69006-1.97998,4.68005-4.76001,7.15015-7.01996
		c4.86987-4.46002,11.63989-7,15.13989-12.60004c1.18005-1.89001,2.92004-4.73999,4.89001-5.97998
		c0.17004-0.10999,0.33997-0.21002,0.51001-0.28998C1261.54297,977.65924,1260.75293,979.69928,1260.58301,980.90924z"/>
	<path class="st22" d="M1174.13293,980.74927c-1.22998,0.90997-2.62,1.59003-4.10999,1.95001
		c-0.40002,0.09998-0.80005,0.16998-1.20996,0.23999c0,0-0.01001,0-0.02002,0c-0.07007-0.02002-0.14001-0.03998-0.20996-0.06
		c-0.34009-0.14001-0.56006-0.45001-0.80005-0.72003c-1.07007-1.16998-2.82007-1.51996-4.38-1.26996s-2.98999,1.01001-4.35999,1.81
		c-2.90002,1.67999-5.70996,3.54999-8.77002,4.91998c-1.42993,0.65002-2.93994,1.19-4.16003,2.19
		c-1.04993,0.84998-1.81995,2-2.85999,2.87c-0.18994,0.15002-0.3999,0.31-0.64001,0.29999
		c-0.43005-0.01996-0.65002-0.51001-0.75-0.92999c-0.69995-2.85999-0.23999-5.85999,0.22009-8.77002
		c0.08984-0.56,0.17993-1.12,0.28992-1.66998c0.15002-0.79999,0.32996-1.59998,0.59998-2.37
		c0.36011-1.06,0.88013-2.06,1.33008-3.08997c0.93994-2.16003,1.62988-4.43005,2-6.76001
		c0.01001-0.04004,0.01001-0.08002,0.02002-0.12c0.13989-0.86005,0.23999-1.74005,0.58997-2.53003
		c0.56995-1.32001,1.75-2.26001,2.87-3.14001c0.67993-0.53998,1.3999-1.07996,2.23999-1.33997
		c0.29004-0.09003,0.83997-0.26001,1.10999-0.04999c0.08997,0.06995,0.13,0.16998,0.14001,0.27997
		c0.01001,0.25-0.15002,0.57001-0.20996,0.76001c-0.58008,1.88-1.22998,3.75-1.94006,5.58002
		c-0.40002,1.03998-0.81995,2.07001-1.2699,3.08997c-1.19006,2.73004-2.54004,5.48999-3.36011,8.34003
		c-0.53003,1.83002-0.83997,3.70996-0.73999,5.63c0.48999-0.56,1.14001-1.32001,1.89001-1.52002
		c0.97998-0.25,1.85999-0.82001,2.77002-1.27002c1.04993-0.52997,2.12-1.03998,3.19006-1.52997
		c2.08984-0.94,4.20996-1.81,6.34985-2.60004c1.08008-0.38995,2.16003-0.76996,3.23999-1.12
		c0.55005-0.17999,1.09009-0.34998,1.64014-0.51996c0.27002-0.08002,0.54993-0.17004,0.81995-0.25
		c0.43005-0.12,0.81995-0.16003,1.27991-0.19c1.67017-0.12,3.41016,0.12,4.88013,0.95001
		c0.59998,0.33997,1.02002,0.76996,1.46997,1.27997c0.20996,0.22998,0.29004,0.51001,0.41992,0.78998
		C1173.823,980.19928,1173.96289,980.48926,1174.13293,980.74927z"/>
	<path class="st14" d="M1277.02722,718.64124c-3.08423-4.10431,1.12366-4.32507,4.18372-4.3028
		c2.61353-0.16272,13.75696-2.57166,9.18457,2.84424l-0.09155-0.84265c2.62048-3.50598-7.38635-1.21716-9.02051-1.25623
		c-2.08594,0.211-6.61377-0.5177-4.177,2.78296L1277.02722,718.64124z"/>
	<path class="st18" d="M954.53375,608.11163c0.771,0.24573,1.60077,0.19659,2.40826,0.14496
		c4.62537-0.2959,9.25067-0.59174,13.87604-0.88763c1.66504-0.10651,3.34479-0.21545,4.9505-0.6687
		c1.60577-0.45325,3.15332-1.28357,4.17896-2.59961c1.25275-1.60742,8.25616-4.85529,8.29767-6.89282
		c-0.38379-0.27191-0.89941-0.2301-1.36621-0.1731c-2.6228,0.32019-11.89197,1.87061-14.49292,2.3327
		c-2.617,0.4649-5.22968,0.95514-7.85406,1.37708c-2.57147,0.41351-5.15704,0.76636-7.75586,0.95258
		c-1.28815,0.09235-3.00555-0.02454-3.8429,1.16888c-1.12622,1.60529-0.75751,3.91132,0.94525,4.9458
		C954.08429,607.93683,954.30426,608.03845,954.53375,608.11163z"/>
	<path class="st23" d="M1267.37476,741.7771c1.30554,0.54486,2.57141,1.18481,3.78406,1.91333
		c-0.53003,0.90961-1.67896,3.31781-2.44031,3.90668c-0.2334,0.18048-3.1344-1.60522-4.03442-2.11096
		C1265.27844,744.11908,1266.60718,743.05487,1267.37476,741.7771z"/>
	<g>
		<path class="st20" d="M1287.49548,758.22327c-0.19788,1.47345-0.53101,2.93085-0.94751,4.35876
			c-0.40027,1.43402-0.87695,2.84149-1.35803,4.24036l-0.02075,0.06012l-0.04553,0.05432
			c-1.36877,1.63312-2.69275,3.29926-3.93738,5.0249c-0.62744,0.85907-1.23779,1.73206-1.80762,2.63275
			c-0.58728,0.87305-1.08337,1.88159-1.91638,2.58435c0.69434-0.82666,1.05017-1.8371,1.56348-2.78937
			c0.50867-0.94891,1.04651-1.88477,1.63037-2.79108c1.17786-1.80621,2.50403-3.51117,3.91748-5.13239l-0.06604,0.11414
			l1.56555-4.15302C1286.57654,761.03906,1287.06091,759.64484,1287.49548,758.22327z"/>
	</g>
	<g>
		<path class="st20" d="M1295.43628,755.83258c-0.2522,0.99884-0.5752,1.97693-0.92285,2.95123
			c-0.36987,0.96558-0.80676,1.90533-1.2417,2.83533c-0.8894,1.84839-1.70227,3.71783-2.64941,5.56683
			c-0.48511,0.91492-1.00439,1.81891-1.59827,2.67859c-0.29614,0.43085-0.63513,0.82922-0.95044,1.24432
			c-0.1604,0.2063-0.32678,0.3855-0.49219,0.57825l-0.25244,0.28192c-0.06995,0.07391-0.20447,0.25867-0.32361,0.33386
			c-0.4397,0.31622-0.85181,0.58282-1.26331,0.89337l-1.18665,0.95453l-0.60669,0.46863l-0.57654,0.51642
			c-0.38867,0.33875-0.85034,0.64624-1.36694,0.71899c1.00964-0.32581,1.49792-1.31897,2.30054-1.974l1.14465-1.05786
			c0.38635-0.33466,0.81604-0.65814,1.19031-0.9671c1.25732-1.48352,2.4115-3.2124,3.31726-5.01715
			c0.94238-1.79724,1.78772-3.6886,2.80176-5.4798C1293.77026,759.57251,1294.63965,757.73584,1295.43628,755.83258z"/>
	</g>
	<path class="st24" d="M1135.14294,570.20929"/>
	<path class="st22" d="M1248.21997,683.91602c-0.85999,0.58002-1.72998,1.14996-2.62,1.67999
		c0,0-22.06995,13.02997-49.50989,13.27997c-15.2301,0.15002-32.11011-3.63995-47.78003-15.77997
		c-0.09009-0.09003-0.17004-0.17999-0.25-0.27002c-0.66003-0.72998-1.13013-1.38-0.86011-2.38
		c0.13013-0.47998,0.32007-0.92999,0.45996-1.40997c0.84009-3.03003,0.94006-6.22998,1.22009-9.35004
		c0.92004-9.91998,3.45007-19.63995,4.51001-29.54999c0.05994-0.54999,0.10999-1.10999,0.16003-1.65997
		c0.45996-5.25,0.44995-10.59003-0.45007-15.79999c-0.44995-2.57001-1.12-5.10004-2.04993-7.54004
		c-0.46997-1.20996-1.1001-2.33997-1.59009-3.53998c-0.13989-0.35999-0.17993-0.76001-0.38989-1.08002
		c-0.38013-0.57001-1.07007-0.95996-1.63013-1.29999c-1.23999-0.73999-2.59985-1.23999-3.86987-1.91998
		c-0.58008-0.29999-1.14014-0.63-1.68005-0.98999c-0.43005-0.30005-0.59998-0.60004-0.91003-1
		c-0.84998-1.12006-1.78003-2.13-2.54004-3.32001c-0.78992-1.25-1.45996-2.57001-2.02002-3.94
		c-1.13989-2.75-1.84985-5.67004-2.19995-8.62c-0.33997-2.85004-0.37-5.73004-0.22998-8.60004
		c0.14001-2.96997,0.46997-5.91998,0.84009-8.87c0.06995-0.58002,0.08984-1.20001,0.30994-1.75
		c2.56995-14.54999,10.68005-29.01001,21.17004-43.41998c0.15991-0.15002,0.32996-0.27002,0.52002-0.35999
		c0.52991-0.24005,1.13989-0.17004,1.71997-0.09003c2.01001,0.26001,4.02002,0.52002,6.03003,0.78998l0.19995,0.28003
		c-1.95996,3.22998-4.30005,6.27997-5.57007,9.84003c-1.27002,3.54999-1.28003,7.87,1.16003,10.73999
		c2.19006,2.58997,5.78992,3.42999,9.15002,3.82996c3.01001,0.36005,6.07007,0.48004,9.07007,0.08002
		c2.07983-0.27997,4.11987-0.79999,6.09985-1.51001c3.76001-1.34998,7.25-3.34998,10.56006-5.57996
		c1.66992-1.13,3.31006-2.32001,4.91992-3.53003c0.81006-0.60999,1.61011-1.21997,2.40015-1.83002
		c2.94995-2.26996,5.31995-5.20996,6.56995-8.73999c0.29993-0.83997,0.59998-1.77997,1.38-2.20996
		c0.29004-0.16003,0.62-0.23004,0.94995-0.29004c2.8501-0.5,5.82007-0.29999,8.57007,0.58002
		c1.31995,0.41998,2.72998,1.17999,2.85999,2.52002c0,0.04999,0.00989,0.09998,0.00989,0.15997
		c-4.58984,4.09003-7.85986,9.62-9.21997,15.60999c-1.36987,5.98004-0.81995,12.39001,1.54004,18.06
		c0.80005,1.90002,1.79004,3.72003,2.78003,5.53003c0.33997,0.63,0.67993,1.26001,1.03003,1.88
		c0.29004,0.53998,0.54004,1.14996,0.92993,1.62c0.22998,0.27997,0.54004,0.45001,0.82007,0.67999
		c0.40991,0.33997,0.73999,0.76001,1.09998,1.15002c1.05994,1.12,2.20007,2.16998,3.45007,3.07996
		c0.98999,0.73999,2.04993,1.38,3.17993,1.90002c0.53003,0.23999,1.16992,0.39001,1.67993,0.69
		c0.52002,0.29999,0.97998,1.10999,1.31006,1.54999c2.20996,2.95001,3.18994,6.87,5.37,9.83002
		c-0.01001,0.08997-0.01001,0.17999-0.02002,0.26996c-0.71997,9.44-3.41003,18.61005-6.80994,27.48004l-0.01001,0.01996
		c-0.62012,1.63-1.26001,3.24005-1.93005,4.84003c5.41003,10.27002,9.7301,21.12,12.87,32.31
		C1243.47998,666.86603,1245.02002,675.24603,1248.21997,683.91602z"/>
	<path class="st24" d="M1171.51379,518.35907c-4.07458,4.73077-9.052,11.1134-11.65063,16.79059
		c-2.59863,5.67712-3.97009,12.03644-3.08228,18.21661c0.46045,3.20569,1.56494,6.32947,3.26721,9.08734
		c1.15308,1.86835,2.60339,3.42468,4.17322,4.93988c0.74451,0.71869,1.39746,1.24243,2.48132,0.99384
		c2.62976-0.60327,5.27527-2.22839,7.49927-3.70197c2.78418-1.84479,5.31689-4.05585,7.61218-6.47778
		c4.63721-4.89319,8.32849-10.58844,11.99182-16.24762c1.60754-2.48358,3.21521-4.9671,4.82288-7.45068
		c1.89331-2.92487,3.86145-6.11841,3.64783-9.59601c-0.16321-2.65649-1.70654-5.19037-3.99194-6.5542"/>
	<path class="st25" d="M1166.70264,568.38733c-0.10095,1.28094-0.77478,3.45624-0.68872,4.73828"/>
	<polygon class="st26" points="1166.12012,570.85919 1170.60547,568.44464 1171.10583,573.55054 1166.54285,577.97961 
		1162.29944,573.77057 1162.96228,568.27161 	"/>
	<g>
		<path class="st14" d="M1131.24292,993.04926c0.56067-0.59546,1.2041-1.06647,1.86707-1.5083
			c0.67346-0.42603,1.36694-0.82196,2.14404-1.09235c-0.55994,0.5965-1.20349,1.06738-1.86707,1.50824
			C1132.71289,992.38196,1132.01929,992.77777,1131.24292,993.04926z"/>
	</g>
	<g>
		<path class="st14" d="M1138.79187,1001.30603c-0.06177-0.67456-0.07129-1.36322,0.11401-2.05035
			c0.17456-0.70477,0.64587-1.27783,1.05713-1.79218c0.84595-1.0307,1.79761-2.09485,3.04895-2.66901
			c-1.02039,0.89606-1.81824,1.93542-2.66101,2.98395c-0.4325,0.52179-0.84753,1.00702-1.08203,1.59888
			C1139.02759,999.9718,1138.93433,1000.64221,1138.79187,1001.30603z"/>
	</g>
	<g>
		<path class="st14" d="M1133.53296,997.11926c0.75623-0.73511,1.58557-1.33978,2.43457-1.91528
			c0.85913-0.55945,1.73669-1.08765,2.70093-1.49243c-0.74756,0.7312-1.58191,1.33881-2.43457,1.91528
			C1135.37109,996.18726,1134.48865,996.71844,1133.53296,997.11926z"/>
	</g>
	<g>
		<path class="st20" d="M1273.40027,776.44958c0.49707,0.06635,0.92249,0.21875,1.34705,0.39679
			c0.41833,0.1922,0.81775,0.40314,1.20178,0.72656c-0.50525,0.0495-0.9696-0.08929-1.40332-0.26929
			C1274.12073,777.10388,1273.7052,776.8548,1273.40027,776.44958z"/>
	</g>
	<g>
		<path class="st1" d="M1180.62048,607.85089c1.05591,2.83429,3.24939,5.08521,5.81592,6.51111
			c2.58801,1.43091,5.54712,2.09418,8.50488,2.22504c2.96521,0.18396,5.9541-0.13062,8.85046-0.82239
			c2.89929-0.69171,5.7019-1.80756,8.33264-3.27228c-2.46887,1.73181-5.26355,3.00867-8.18738,3.83063
			c-2.92639,0.82281-5.99194,1.14215-9.03662,1.01208c-3.02979-0.19586-6.11462-0.87433-8.7522-2.47638
			C1183.53674,613.27783,1181.3811,610.79639,1180.62048,607.85089z"/>
	</g>
	<g>
		<path class="st1" d="M1148.61414,609.77698c1.47864,0.28644,2.96716,0.37799,4.43481,0.26007
			c1.4657-0.12726,2.91284-0.41748,4.29785-0.89868c1.39209-0.46539,2.71912-1.11554,3.99768-1.85931
			c1.27612-0.75134,2.47998-1.63373,3.66235-2.56732c-0.9668,1.15887-2.104,2.17694-3.34973,3.05219
			c-1.24182,0.88208-2.61938,1.58179-4.0686,2.08398c-1.45459,0.48566-2.98389,0.77051-4.51672,0.763
			C1151.54285,610.61273,1150.00842,610.36206,1148.61414,609.77698z"/>
	</g>
	<linearGradient id="SVGID_2_" gradientUnits="userSpaceOnUse" x1="1181.74536" y1="495.07358" x2="1181.17639" y2="532.34357">
		<stop  offset="0" style="stop-color:#723329"/>
		<stop  offset="1" style="stop-color:#8E4332;stop-opacity:0"/>
	</linearGradient>
	<path class="st27" d="M1170.59631,510.60904c0,0,6.6261-2.15329,12.53943-6.83939
		c5.91345-4.6861,9.59534-13.53311,9.59534-13.53311l-3.57031,31.27335l-9.75916,5.80182l-8.02698-6.77863
		C1172.00378,518.62006,1171.19531,510.19861,1170.59631,510.60904z"/>
	<polygon class="st1" points="853.50537,508.77051 844.37061,500.30081 847.06921,495.74161 853.26752,502.01196 
		860.84052,488.71823 863.09186,491.67108 	"/>
	<polygon class="st28" points="377.06369,570.31055 344.05127,538.29242 350.65518,521.12225 373.85544,545.86298 
		395.17334,493.88589 403.91534,506.47855 	"/>
	<polygon class="st1" points="853.50537,612.96527 844.37061,604.49561 847.06921,599.9364 853.26752,606.20679 
		860.84052,592.91302 863.09186,595.86584 	"/>
	<path class="st29" d="M1239.3313,678.61639c-6.8208-8.10724-4.63818-7.36639-6.27515-24.82745
		c-0.66992-7.14661-0.42554-13.10272,0.09668-17.64832c-1.56091-3.55188-3.23535-7.05322-5.04285-10.48462
		c0.67004-1.59998,1.30994-3.21002,1.93005-4.84003l-3.03003,6.20001l-30.91992,71.85999
		c27.43994-0.25,49.50989-13.27997,49.50989-13.27997c0.10901-0.06488,0.21521-0.13507,0.32361-0.20111
		C1243.96777,683.66687,1241.70276,681.43524,1239.3313,678.61639z"/>
	<ellipse class="st3" cx="1197.94397" cy="479.40283" rx="1.66544" ry="2.34455"/>
</g>
<g id="man">
	<path class="st17" d="M1085.64697,1049.68567l0.72534,2.17627l-0.09045,3.00842v4.33838l-1.56897,4.39111l-3.08679,2.27502
		l-2.16907-0.79358l-1.18359-3.85217c-0.48999-1.02002-0.66309-2.61084-0.83313-3.72095
		c-0.28992-1.92993,0.90259-3.77893,2.06262-5.33887c1.16003-1.56006,3.20996-2.51001,5.09998-2.08008L1085.64697,1049.68567z"/>
	<path class="st17" d="M1116.073,1093.78931c0.08997,0.28992,0.17993,0.57996,0.25,0.88
		c0.38,1.34998,0.67993,2.71997,0.88989,4.10999c0.18005,1.16992,0.30005,2.39001-0.03992,3.52002
		c-0.68005,2.34998-3.05005,3.72998-5.26001,4.75c-4.37,2.02991-9.18005,3.63989-13.94006,2.90991
		c-2.39001-0.37-4.64001-1.30994-6.87-2.23999c-1.59998-0.66992-3.13904-1.60657-4.64905-2.46655
		c-2.44006-1.39001-4.46008-2.14001-5.83008-4.59998c-2.48999-4.45996-5.32031-8.78149-9.61035-11.55151
		c-4.41992-2.84998-8.78735-4.76526-13.19739-7.60522c-2.07996-1.34009-5.75879-4.80432-7.00879-6.9342
		c-1.93994-3.29004-1.84839-7.99622-1.11841-11.74622"/>
	<path class="st17" d="M968.9361,1074.11084c-0.76886,3.69653-0.5517,9.13135,0.54443,12.74451
		c0.82117,2.70679,4.02563,7.94836,5.38129,10.41907c0.41772,0.76123,15.31342,16.31323,19.01086,19.13989
		c1.07123,0.81885,7.03894,6.43298,7.34796,6.69727c0.81036,0.69299,1.70422,1.29907,2.62537,1.83423
		c1.85791,1.07959,3.88367,1.85535,5.96698,2.37146c1.90948,0.47314,3.87091,0.73096,5.83612,0.80127
		c5.41248,0.19385,10.78094-0.93652,16.03705-2.24243c1.3042-0.3241,2.66113-0.68823,3.65881-1.5885
		c1.33118-1.20117,1.7511-3.11011,1.86377-4.89954c0.15308-2.43115-0.12988-4.88916-0.83142-7.22192"/>
	<polygon class="st3" points="1006.24884,1070.26514 999.23279,1072.98779 995.35822,1076.901 994.62524,1082.72656 
		996.09125,1087.54358 1001.11768,1090.59302 1010.96112,1089.95203 1017.76776,1088.14868 1023.73663,1084.50671 
		1027.19238,1080.25635 1029.73425,1074.63989 1028.35217,1069.87036 1020.17627,1067.12366 1012.21771,1067.96143 	"/>
	<path class="st20" d="M1103.60925,1036.90283h-5.32959l-13.56677,3.72644l0.1001,1.95996
		c-0.03003,2.46997-0.06006,4.94006-0.1001,7.40002c0,0.21997,0,0.44995,0.09009,0.64001c0.07996,0.16003,0.10999,0.5,0.10999,0.5
		l2.28748,6.54797l9.79443,0.96033l6.97766-1.60046l2.2406-0.83215l0.47986-1.58569c0.43994-0.58997,0.3999-1.39001,0.32996-2.10999
		c-0.32996-3.71997-0.13-11.82996-0.13-11.88"/>
	<path class="st20" d="M1028.26294,1071.94922c-0.40002,0.85999-1.40002,1.23999-2.30994,1.51001
		c-0.37,0.10999-0.75,0.20996-1.13,0.31006c-0.92004,0.23999-1.84009,0.44995-2.78003,0.60999
		c-5.35004,0.98999-10.92004,0.85999-16.22003-0.40002c-0.41998-0.09998-0.88-0.22998-1.13-0.57996
		c-0.22998-0.31006,0.22131-1.76672,0.20129-2.48669c0.01001-0.38,0.34137-3.78894,0.34137-3.78894
		c-0.00812-7.04639-0.62866-10.72644-0.60864-10.85645c1.48999-0.08997,2.03833-3.29321,3.51837-3.46326
		c6.26996-0.70996,12.19543-0.22522,18.38544-1.40527c0.05908,0.39514,1.51221,14.10059,1.90222,18.75061
		C1028.48291,1070.75928,1028.52295,1071.39929,1028.26294,1071.94922z"/>
	<path class="st30" d="M1117.01294,1038.65918c-11.77576,2.62122-23.78564,5.51648-35.90991,3.44006
		c-8.13892-35.14783-7.7561-71.77325-18.82214-106.35956c-3.78833-12.04169-2.78162-24.57037-2.55737-37.0105
		c-0.44812-18.58966-4.90051-36.85712-7.67053-55.19995c-2.96521,31.3338-17.81006,59.78394-21.36096,90.82983
		c0.02063,39.52191,1.9729,79.39667,5.69092,118.6402c-10.5509,1.43958-36.07135,9.50256-43.95044,2.94226
		c-2.58636-16.62939-1.6087-34.03003-4.12024-50.8222c-2.28387-11.82428-4.18988-23.21362-4.08862-35.15021
		c0.29425-9.96271-2.89215-22.3172-3.11035-32.8399c-0.16541-13.22815-1.41663-26.5014-1.69147-39.56995
		c6.54846-39.91559,5.67334-80.93445,14.86115-120.35999c32.88257,13.57288,90.37329,10.53937,114.57007-18.17004
		c1.33484,9.11932,0.78369,18.54706-2.17029,27.31006c-0.75012,1.69489-0.66736,3.46747,0.25037,5.06995
		c5.25513,11.56732,2.97632,24.48328,1.51941,36.58002c2.40125,21.35364,1.97266,43.19434,2.71118,64.64996
		c-1.53882,12.90454,2.14893,25.28479,4.90991,37.79999C1119.23389,966.23315,1120.01257,1002.82916,1117.01294,1038.65918z"/>
	<g>
		<path class="st17" d="M1003.9834,811.88434c-1.22913,1.35522-2.31909,2.8183-3.19604,4.40442
			c-0.90356,1.56744-1.64331,3.22449-2.22076,4.93427c-1.16486,3.41791-1.78168,7.00061-2.10889,10.60938
			c-0.17712,1.80481-0.2785,3.62018-0.35986,5.4397c-0.09509,1.82062-0.14441,3.63916-0.17059,5.4549
			c-0.01392,1.81549,0.04578,3.63208,0.25269,5.43463c0.16479,1.80969,0.52405,3.5957,1.01141,5.3595
			c-0.70251-1.69141-1.16492-3.48193-1.49689-5.29138c-0.30902-1.81506-0.45654-3.65393-0.53632-5.48981
			c-0.12109-3.6767-0.0047-7.33093,0.30457-11.00098c0.35608-3.65613,1.01501-7.33466,2.3855-10.78094
			c0.6803-1.71918,1.51532-3.37909,2.52417-4.9248C1001.40607,814.50555,1002.59515,813.07971,1003.9834,811.88434z"/>
	</g>
	<path class="st31" d="M1005.51276,821.08722c-0.35852,7.52228-1.10211,15.02625-2.22693,22.4726"/>
	<g>
		<path class="st17" d="M1051.00269,847.31116c0.52075-4.21149,1.34448-8.39465,2.47607-12.49615
			c1.14319-4.09662,2.5072-8.14404,4.21619-12.04877l0.13245-0.30255l0.32825,0.04651
			c0.53882,0.07635,1.11218,0.12976,1.69812,0.28851c0.28748,0.06934,0.60486,0.21515,0.78943,0.26312
			c0.22131,0.05957,0.46899,0.08539,0.73645,0.10217c1.08911,0.07251,2.17627,0.05743,3.26086-0.0426
			c2.16833-0.19916,4.3042-0.72998,6.35278-1.49255c4.11902-1.49866,7.90271-3.85376,11.36536-6.5816
			c3.45471-2.75195,6.71765-5.76562,9.63196-9.10236l4.18347-5.16864c0.63367-0.90649,1.30762-1.80139,1.91016-2.72021
			c0.58362-0.927,0.73718-2.09631,1.4071-3.00549c-0.61731,0.94391-0.67212,2.10455-1.23926,3.09918
			c-0.57263,0.96777-1.19849,1.88074-1.79626,2.82526c-1.29309,1.81329-2.66394,3.57654-4.01624,5.35498
			c-2.85059,3.4361-6.03113,6.61639-9.53076,9.40869c-3.4906,2.79407-7.32361,5.26038-11.57483,6.82312
			c-2.12427,0.76849-4.34753,1.30096-6.61255,1.48804c-1.13074,0.09418-2.27405,0.09912-3.4032,0.01343
			c-0.28662-0.02118-0.59509-0.05194-0.91089-0.1394c-0.35022-0.1051-0.53528-0.20801-0.78955-0.27112
			c-0.48767-0.13849-1.02563-0.19745-1.58594-0.28064l0.46033-0.25586c-1.70081,3.86407-3.23718,7.8089-4.46423,11.85858
			C1052.78931,839.01965,1051.77258,843.13708,1051.00269,847.31116z"/>
	</g>
	<path class="st30" d="M1010.07526,1083.80359c-0.33716,1.17957-0.41742,2.52539-1.27728,3.40051
		c-0.93945,0.95618-3.6601,2.50659-5.02057,1.39954c-1.42645-1.16077-2.10742-4.87134-2.09149-6.71021
		c0.01569-1.81519-1.22913-4.1748-1.49512-5.97034c-0.34857-2.35303,2.69751-2.32776,4.50214-2.5238
		c0.47241-2.36182,0.71942-5.04956,0.52686-8.01367c-2.92114,0.9198-7.45813,0.40637-10.40485-0.42773
		c-1.57062-0.44458-3.18103-0.73059-4.78821-1.01587c-2.65869-0.47192-5.32526-0.9447-8.02155-1.09216
		c-1.50861-0.08252-3.06665-0.05432-4.46393,0.52063c-1.38849,0.57129-2.50787,1.63599-3.55835,2.70874
		c-1.3053,1.33301-2.5705,2.73035-3.49847,4.34888c-0.46295,0.80737-0.80676,1.66956-1.26752,2.47717
		c-0.22015,0.38599-0.2702,0.76343-0.28082,1.20557c-0.02789,1.1626,0.07501,2.33154,0.27185,3.47693
		c0.39795,2.31555,1.20197,4.5509,2.2666,6.64111c0.58844,1.15527,1.25812,2.26892,1.99377,3.33643
		c2.96039,4.29529,6.8631,7.83972,10.72894,11.34241c4.99902,4.52942,9.93164,7.83374,15.47083,11.68396
		c1.42493,0.99048,2.84985,1.98096,4.27484,2.97131c1.46466,1.01807,2.93665,2.04053,4.54053,2.82104
		c6.43811,3.13281,14.07056,2.00598,21.04596,0.39124c1.86853-0.43262,3.8075-0.9342,5.25378-2.19373
		c1.06628-0.92871,1.75122-2.20886,2.08154-3.57288c0.60754-2.50916,0.21497-5.07849-0.71643-7.44885
		c-0.95984-2.44263-2.31604-4.73059-3.02979-7.26843c-1.28894-4.58228-0.2511-9.46729-0.5293-14.21924
		c-0.06079-1.03967-0.20581-2.05603-0.50818-3.05396c-0.10681-0.35242-0.1167-0.6593-0.11572-1.02148
		c0.00049-0.18689-0.02014-0.36926-0.05701-0.55237c-0.19141-0.95044-0.55066-2.01392-1.29529-2.67615
		c-0.50049-0.44495-1.15295-0.67981-1.80432-0.83508c-3.35059-0.79858-6.81696,0.23975-9.84259,1.66626
		c-0.95563,0.45068-1.89136,0.94189-2.82562,1.43481c-1.73083,0.91309-3.58508,1.93079-4.72113,3.5813
		c-0.28998,0.42114-0.59381,0.9325-0.70001,1.43909C1010.59357,1082.65466,1010.24664,1083.20386,1010.07526,1083.80359z"/>
	<path class="st30" d="M1117.95288,1087.11926c-0.02002,1.56995-0.21997,3.14001-0.60986,4.65991
		c-0.20007,0.76001-0.44006,1.51001-0.7301,2.24011c-0.09998,0.23999-0.18005,0.45996-0.28992,0.6499
		c-0.16003,0.31006-0.38013,0.55005-0.78003,0.70007c-0.66003,0.25-1.23999,0.82996-1.83008,1.20996
		c-2.01001,1.32007-4.19995,2.33997-6.48999,3.04004c-1.26001,0.39001-2.57996,0.77002-3.8999,0.78003
		c-0.64014,0-1.26001,0.22998-1.90002,0.25c-0.70996,0.0199-1.41003-0.05005-2.10999-0.14001
		c-1.57007-0.20007-3.13-0.46008-4.66003-0.8501c-1.38-0.34998-2.73999-0.80994-4.02002-1.43994
		c-0.52991-0.25-1.06995-0.46997-1.39001-0.96997c-0.23999-0.37-0.55994-0.68005-0.84998-1.01001
		c-0.62-0.71008-1.23999-1.42004-1.84998-2.13c-1.23999-1.41003-2.46997-2.83008-3.70996-4.25
		c-0.58008-0.67004-1.16003-1.33008-1.78003-1.95996c-1.21997-1.25-2.57007-2.34009-4.18005-3.04004
		c-0.60999-0.26001-1.08997-0.66003-1.6499-0.98999c-1.1001-0.64001-2.36011-1.03003-3.53003-1.51001
		c-2.38-0.97998-4.75-1.96997-7.13-2.95007c-1.80005-0.73999-3.59998-1.48999-5.22998-2.55994c-2.87-1.88-5.03003-4.66003-7.13-7.37
		c-0.81006-1.05005-1.63-2.12-2.18005-3.32007v-0.00989c-0.71997-1.58008-0.94995-3.33008-0.89001-5.05005
		c0.04004-1.10999,0.21008-2.25,0.79004-3.19995c0.62-1.02002,1.66003-1.71008,2.71997-2.25
		c3.83997-1.95007,8.28003-2.33008,12.58008-2.31006c4.30994,0.02002,9.29993,0.40002,13.55994-0.18994
		c-1.2699,2.55994-1.31995,5.6499,0.54004,7.77991c0.26001,0.30005,0.54993,0.58008,0.85999,0.84009
		c0.52002,0.43994,1.12,0.80994,1.52002,1.34998c0.23999,0.32996,0.43994,0.66992,0.55994,1.02002
		c0.19006,0.5,0.21997,1.01001-0.01001,1.54993c-0.26001,0.62-0.14001,1.33997,0.15002,1.95007
		c0.29004,0.59998,0.73999,1.10999,1.19006,1.60999c0.60999,0.68994,1.25,1.39001,2.06995,1.80994
		c0.65002,0.32007,1.38,0.45007,2.08997,0.58008c0.81006,0.13989,1.63,0.27991,2.44006,0.41992
		c0.59998,0.10999,1.19995,0.21008,1.80994,0.16003c0.84009-0.06006,1.64001-0.44995,2.25-1.03003
		c0.29004-0.28992,0.55005-0.63,0.72998-1c0.82007-1.71997,0.92004-3.69995,1.83008-5.39001
		c0.54993-1.01001,1.32996-1.85999,2.19995-2.60999c2.17004-1.84998,4.88-3.03003,7.69995-3.45996
		c0.1001-0.01001,0.20007-0.03003,0.30005-0.03003c1.51001-0.18994,3.19995-0.03003,4.14001,1.14001
		c0.65002,0.81995,0.7699,1.92004,0.84998,2.95996c0.14001,1.56006,0.27002,3.12,0.40002,4.68005
		c0.20007,2.38,0.42004,4.80994,1.42004,6.97998c0.47998,1.06006,1.1499,2.02002,1.70996,3.04004
		c0.09998,0.17993,0.19995,0.35999,0.29004,0.53992C1117.27295,1080.82922,1117.98291,1083.98926,1117.95288,1087.11926z"/>
	<path class="st3" d="M1107.01294,1058.69922c-0.09998,0-0.19995,0.02002-0.30005,0.03003
		c-2.81995,0.42993-5.52991,1.60999-7.69995,3.45996c-0.87,0.75-1.65002,1.59998-2.19995,2.60999
		c-0.91003,1.69006-1.01001,3.67004-1.83008,5.39001c-0.17993,0.37-0.43994,0.71008-0.72998,1
		c-0.60999,0.58008-1.40991,0.96997-2.25,1.03003c-0.60999,0.05005-1.20996-0.05005-1.80994-0.16003
		c-0.81006-0.14001-1.63-0.28003-2.44006-0.41992c-0.70996-0.13-1.43994-0.26001-2.08997-0.58008
		c-0.81995-0.41992-1.45996-1.12-2.06995-1.80994c-0.45007-0.5-0.90002-1.01001-1.19006-1.60999
		c-0.29004-0.61011-0.41003-1.33008-0.15002-1.95007c0.22998-0.53992,0.20007-1.04993,0.01001-1.54993
		c0.25-0.88,0.51001-1.75,0.77002-2.62c0.18005-0.63,0.35999-1.25,0.53003-1.88c0.73999-2.78003,1.18994-5.64001,1.34998-8.51001
		c-0.07544-0.19495-0.27734-0.77063-0.18738-0.80054c1.2832,2.82056,6.05737,5.58044,7.03735,6.09045
		c1.31006,0.68005,2.87,0.70007,4.34009,0.60999c3.04993-0.17993,6.06982-0.68994,9-1.52991
		c0.58984-0.17004,1.20996-0.38,1.57983-0.85999c0.01001-0.01001,0.01001-0.01001,0.01001-0.02002
		c0,0,0.02002,0.01001,0.02002,0.02002c0.1001,0.1499,0.11011,0.32996,0.12012,0.51001
		C1106.89294,1056.33923,1106.95288,1057.51929,1107.01294,1058.69922z"/>
	<path class="st14" d="M1129.91296,658.27924c-0.09998,0.33002-0.35999,0.59003-0.60999,0.84003
		c-1.26001,1.23999-2.54004,2.48999-4.1001,3.33002c-0.34985,0.19-0.70996,0.35999-1.07996,0.51001
		c-0.55994,0.23999-1.15002,0.44-1.72998,0.64996c-1.45007,0.51001-2.89001,1.01001-4.32996,1.52002
		c-1.29004,0.45001-2.77002,0.77002-3.96997,1.41998c-0.03003,0.01001-0.672,0.67047-0.69202,0.69043
		c0.21997-1.29999-17.98218-12.91357-17.7821-14.22357c2.88-19.04999,21.73413-28.89685,18.48413-47.89685
		c0.06982,0.13,0.13989,0.28003,0.20996,0.41998c1.28003,2.63,2.48999,5.31,3.62988,8.01001
		c2.92004,6.91998,5.38013,14.04999,7.34009,21.29999c0.98999,3.63,1.84998,7.29004,2.58997,10.98004
		c0.13,0.65997,0.26001,1.32001,0.38,1.98999c0.21997,1.17999,0.42993,2.35999,0.63,3.54999
		c0.30994,1.89001,0.40002,3.92999,0.93005,5.76001C1129.92285,657.50928,1130.02295,657.90924,1129.91296,658.27924z"/>
	<path class="st20" d="M957.41296,677.19928c-0.04004,0.04004-4.27002,3.04999-4.31,3.08997
		c-4.89001,5.33002-11.97003,7.98004-18.77002,10.44c-1.75,0.63-3.52002,1.27002-5.37,1.47003
		c-1.41998,0.14996-2.82001,0-4.15002-0.52002c-0.48999-0.17999-0.95001-0.28998-1.45996-0.37
		c-1.24005-0.20001-2.39001-0.85999-3.5-1.40002c-4.30005-2.10999-8.44-4.52997-12.57001-6.94995
		c-7.95001-4.66003-15.91003-9.32001-23.71002-14.22003c-1.03998-0.65997-2.08002-1.31-3.10999-1.97998
		c-1.98004-1.28003-3.94-2.59003-5.85004-3.96002c-0.95996-0.69-1.89996-1.39001-2.82996-2.12
		c-0.42999-0.33002-0.85004-0.77997-1.33002-1.02002c-1.26001-0.63995-2.48999-1.35999-3.72003-2.07996
		c-0.20996-0.13-0.42999-0.25-0.63995-0.39001c0.07996-0.16003,0.13-0.33002,0.14996-0.52002
		c0.23004-1.98999,0.38-4.72998,1.44-5.78998h0.06c4.08002,0,7.38-3.29999,7.38-7.38c0-0.72998-0.10999-1.42999-0.31-2.09998
		c1.13-1.85004,2.85004-3.89001,4.35004-5.09003c0.39996,0.19,0.76996,0.5,1.16998,0.66998
		c0.47998,0.20001,0.96997,0.40002,1.45001,0.59003c0.95996,0.39996,1.91998,0.79999,2.88995,1.20001
		c4.58002,1.89996,9.17004,3.79999,13.75,5.69995c2.26001,0.94,4.53003,1.88,6.81,2.79004
		c4.37006,1.73999,8.79004,3.38,13.31006,4.69c2.25995,0.65997,4.53998,1.22998,6.83997,1.69
		c0.91998,0.17999,1.71002,0.35999,2.62,0.13c1.22998-0.30005,2.44-0.42004,3.62-0.96002
		c2.23004-1.03003,4.10004-2.70001,5.89001-4.34998c0.40002-0.36005,0.78998-0.73004,1.19-1.10004
		c4.39966-2.40649,7.15765-7.81549,9.52979-4.1615C952.22656,649.34967,953.36639,670.90674,957.41296,677.19928z"/>
	<path class="st20" d="M1069.88062,584.17181c-16.30725,0.18188-33.47339,4.29028-49.50787,6.64868
		c5.85809-7.28491,6.57465-19.7666,6.35028-28.74121c-5.37714,0.53821-14.1767,1.69324-18.5603-1.56897
		c-4.37158-5.43756-5.80536-12.94708-5.93011-19.8009c0.02893-4.17157-5.27649-5.89288-6.22894-9.97058
		c-0.97137-1.70087-0.13049-3.40619,1.27954-4.56952c9.5141-8.35376,5.79395-22.59131,7.07306-33.78195
		c0.33997-0.07001,13.90985-9.30527,14.23981-9.36526c1.24512,6.16409,5.18793,8.49234,10.4126,9.36264
		c-1.31677,2.54883-5.37604,11.92645-6.21399,14.65363c1.77881,6.00601-3.19714,4.64737-1.15582,10.60818
		c-3.94836-11.52969,11.10272-12.84137,19.17206-6.63885c9.62317,9.72961,11.43091,18.83636,4.245,21.16266
		c-5.02271,1.28857,0.15112,7.15057,0.68005,10.68817c1.01465,6.01355,17.15869,14.31073,22.51709,11.87402
		C1062.28149,562.04187,1063.11328,577.64093,1069.88062,584.17181z"/>
	<path class="st17" d="M1114.65295,662.68927c-0.20007,1.31-0.92542,3.06207-1.14539,4.36206
		c-0.10657,0.18835-0.29468,0.55792-0.36462,1.33795c-0.27002,3.10999-0.87,10.75-0.94006,11.47998
		c-0.03992,0.41998-0.28992,1.85999-0.32996,2.51001c-0.08997,1.34998-0.16003,2.69-0.23999,4.03998
		c-0.14001,2.70001-0.25,5.40002-0.33997,8.10004c-0.16003,5.39996-0.20996,10.79999-0.14001,16.19995
		c0.0199,1.34003,0.03992,2.69,0.06995,4.04004c0.03003,1.22998,0.22998,2.56,0.05005,3.77997
		c-0.12,0.78003-0.54004,1.46002-0.66003,2.25c-0.07996,0.48999-0.13,0.98999-0.18005,1.48999
		c-0.06995,0.83002-0.11987,1.66003-0.13989,2.48004c-0.04004,0.94,0.03003,1.87,0.03003,2.81
		c0.06995,1.08002-0.13013,2.06-0.18005,3.14001c-0.04993,1.33997-0.08997,2.66998-0.09998,4.00995
		c-0.02002,2.67004,0.05005,5.35004,0.26001,8.01001c0.07996,1.02002,0.17993,2.03003,0.30005,3.04004
		c0.31982,2.73999,0.80994,5.45996,1.47998,8.13995c-0.95007,1.78003-2.03003,3.49005-3.22998,5.12
		c-3.95007,5.43005-9.16003,9.95001-15.11011,13.06006c-2.88989,1.50995-6.13684,4.48914-9.18677,5.62915
		c-4.57007,1.71002-9.31873,3.68451-14.02869,4.94452c-18.25,4.85999-37.4845,3.0163-56.24451,0.80627
		c-4.17004-0.5-8.50836-0.51428-12.34839-2.22424c-1.67999-0.73999-7.11322-2.00897-8.08319-2.15894
		c-4.44-0.73004-8.82843-1.89679-13.14844-3.13678c4.16998-9.51001,7.45001-19.51001,8.39001-29.85004
		c0.92999-10.12,2.75-20.09998,1.73999-30.20996c-1.63-16.27002-1.98999-33.10004-2.16998-49.45001
		c-8.95001,8.33997-18.41003,16.14001-28.31,23.32001c-2.62006-3.03003-4.99005-6.23999-7.14001-9.59003
		c-6.45001-10.02997-10.97003-21.32996-14.51001-32.81c-0.34003-1.08002-0.65997-2.14996-0.97998-3.22998
		c-0.17004-0.58002-0.34003-1.21002-0.17999-1.79999c0.12994-0.47003,0.44995-0.86005,0.77997-1.23004
		c1.38-1.57996,3.62085-3.95471,5.20087-5.34467c0.40997,0.63,0.68591,1.74231,0.90912,2.36469
		c1.57001-2,3.17999-3.96997,4.79999-5.91998c4.86005-5.83002,9.96002-11.46002,15.27002-16.87
		c2.66003-2.71002,5.38-5.36005,8.15002-7.95001c1.10999-1.04999,2.16998-2.01001,2.96997-3.32001
		c0.72003-1.16998,1.62-1.91998,2.79004-2.65002c6.16998-3.83997,13.23999-5.95996,20.29999-7.46997
		c1.34998-0.28998,2.70001-0.54999,4.04999-0.81c3.87-0.72998,7.76001-1.35999,11.62-2.12
		c1.92999-0.37,3.85999-0.78003,5.77002-1.23999c3.65997-0.88,7.31006-1.58002,11.03003-2.28003
		c7.87-1.5,15.79993-2.77002,23.79004-3.45001c3.96997-0.33997,7.95996-0.52997,11.94995-0.51996
		c1.98999,0,3.98999,0.04999,5.97998,0.15997c0.95007,0.04999,1.91003,0.15002,2.87,0.16998
		c4.5,0.07001,9.03003-0.60999,13.53003-0.13c8.09998,0.88,15.6499,5.85004,19.66992,12.94
		c1.92004,3.41003,3.44006,5.08002,5.13013,8.46002C1117.35303,624.11926,1117.53296,643.63928,1114.65295,662.68927z"/>
	<path class="st32" d="M1114.10291,605.11926c-0.01001-0.10999-0.02991-0.21002-0.04993-0.32001"/>
	<g>
		<path class="st1" d="M1115.823,654.18927c1.14172-0.46088,2.26978-0.73273,3.401-1.13361
			c1.1239-0.38177,2.23718-0.74567,3.28149-1.2309c1.05811-0.46301,2.00513-1.07709,2.95105-1.78497
			c0.94055-0.70636,1.86035-1.453,2.79639-2.22052c-0.62317,1.04248-1.41541,1.97217-2.29199,2.81586
			c-0.86328,0.85052-1.91321,1.58942-3.04114,2.09918c-1.13293,0.50323-2.31311,0.83978-3.49573,1.07251
			C1118.25684,654.06604,1117.01428,654.14081,1115.823,654.18927z"/>
	</g>
	<path class="st20" d="M1123.85303,706.47925c-0.93018,1.98004-2.6001,3.48999-4.17017,5.01001
		c-3.3999,3.29999-6.5,6.91998-9.25,10.78998c0.05005-0.5,0.1001-1,0.18005-1.48999c0.12-0.78998,0.54004-1.46997,0.66003-2.25
		c0.17993-1.21997-0.02002-2.54999-0.05005-3.77997c-0.03003-1.35004-0.05005-2.70001-0.06995-4.04004
		c-0.06995-5.39996-0.02002-10.79999,0.14001-16.19995c0.08997-2.70001,0.19995-5.40002,0.33997-8.10004
		c0.07996-1.34998,1.23999-14.91998,1.51001-18.02997c0.06995-0.78003,0.18005-1.40002,0.88-1.79004
		c0.02002-0.01996,0.04004-0.03998,0.07007-0.04999c1.19995-0.64996,2.67993-0.96997,3.96997-1.41998
		c1.43994-0.51001,2.87988-1.01001,4.32996-1.52002c0.57996-0.20996,1.17004-0.40997,1.72998-0.64996v0.02997
		c-0.05994,1.03998-0.06995,2.06-0.04993,3.10999c0.06995,2.66003,0.12988,5.31,0.18994,7.97003
		c0.13,5.27997,0.26001,10.56,0.38,15.83997c0.06995,3,0.15002,5.99005,0.21997,8.99005
		C1124.92285,701.46924,1124.96289,704.15924,1123.85303,706.47925z"/>
	<g>
		<path class="st1" d="M944.43292,638.11926c0.82935,3.51184,1.79126,6.97742,2.95636,10.37158
			c1.17523,3.38977,2.49518,6.72571,4.00586,9.97662c1.48914,3.26099,3.16559,6.43433,4.9375,9.5575l1.35876,2.32703
			l1.41583,2.29517l1.43762,2.28613c0.50055,0.74805,0.99152,1.50391,1.4762,2.26599
			c-1.15881-1.38446-2.23993-2.82983-3.3208-4.27887l-1.54175-2.22931l-1.48511-2.26978
			c-1.94153-3.05353-3.66083-6.24982-5.18604-9.53595c-1.50378-3.29547-2.81616-6.68378-3.82764-10.16217
			C945.63708,645.25012,944.85638,641.70551,944.43292,638.11926z"/>
	</g>
	<path class="st30" d="M867.68292,650.87927c-1.06,1.06-1.20996,3.79999-1.44,5.78998
		c-0.01996,0.19-0.07001,0.35999-0.14996,0.52002c-0.29999,0.65002-0.98004,1.06-1.72003,1
		c-1.57996-0.14001-4.01001-0.53998-5.91998-1.64001c-1.03003-0.59998-1.72003-1.22998-2.15997-1.79999
		c-0.75-0.95001-0.73004-2.28003,0.00995-3.22998c0.14001-0.17999,0.29004-0.37,0.45001-0.57001
		c1.29999-1.64001,2.95001-3.54999,4.13-4.73004C861.95294,648.92926,864.59296,650.85925,867.68292,650.87927z"/>
	<path class="st20" d="M870.66296,633.12927c-0.76001,0.89996-1.58002,2.07001-2.18005,3.02997
		c-5.37512-0.68201-9.70068,5.10211-7.59998,10.06c-1.17999,1.18005-2.83002,3.09003-4.13,4.73004
		c-0.82062-0.67175-1.36761-1.66193-2.29999-2.17004c-4.15088-2.26221-3.66791-1.68115-10.76001-2.36987
		c-6.12134-0.59442-11.90625-2.00842-16.64984-5.68036c-2.93005-2.04865-4.28571-7.13049-0.73999-9.18988
		c1.19226-0.46454,0.84839-1.21179,0.30975-2.13989c-0.8418-1.91443,0.99902-3.80499,2.86017-4.0899
		c1.0639-0.19836,1.93829-0.82715,1.00983-1.69006c-0.56726-1.20502,0.61578-3.02631,1.76001-3.54999
		c0.57007-0.25,1.3501-0.16998,1.14008-0.73999c-5.10175-3.33417-10.91785-5.95575-16.12982-9.29041
		c-0.90015-0.53961-1.91016-1.22961-2.01019-2.2796c-0.08997-2.12787,2.36646-2.47009,4.06042-2.02246
		c4.89008,1.29218,7.60962,2.45245,11.81958,4.29242c5.02429,2.18115,9.896,4.53876,14.88007,6.7699
		C854.7359,621.39966,861.86328,628.60339,870.66296,633.12927z"/>
	<path class="st32" d="M867.74292,650.81927c-0.01996,0.02002-0.03998,0.03998-0.06,0.06"/>
	<path class="st32" d="M861.07294,646.02924c-0.06,0.06006-0.12,0.12006-0.19,0.19"/>
	<path class="st30" d="M879.81293,635.64929l-0.64996,0.65997c-1.5,1.20001-3.22003,3.23999-4.35004,5.09003
		c-0.83002-2.83002-3.31-4.95001-6.33002-5.24005c0.60004-0.95996,1.42004-2.13,2.18005-3.02997
		c0.23999-0.28003,0.47998-0.53998,0.69995-0.76001c0.33002-0.32001,0.80005-0.44,1.24005-0.29999
		c1.26996,0.39001,4.21997,1.35999,7.02997,2.58002C880.02295,634.81927,880.12292,635.33929,879.81293,635.64929z"/>
	<path class="st1" d="M875.12292,643.49927c0,4.08002-3.29999,7.38-7.38,7.38h-0.06
		c-3.08997-0.02002-5.72998-1.95001-6.79999-4.66003c-0.33997-0.83997-0.52002-1.75995-0.52002-2.71997
		c0-4.08002,3.30005-7.38,7.38-7.38c0.25,0,0.48999,0.01001,0.73999,0.03998c3.02002,0.29004,5.5,2.41003,6.33002,5.24005
		C875.01294,642.06927,875.12292,642.76929,875.12292,643.49927z"/>
	<path class="st30" d="M873.02747,643.49927c0,2.92151-2.36304,5.28448-5.28455,5.28448h-0.04297
		c-2.21259-0.01434-4.10297-1.3963-4.8692-3.33685c-0.24341-0.60144-0.37231-1.26019-0.37231-1.94763
		c0-2.92157,2.36298-5.28455,5.28448-5.28455c0.17902,0,0.35089,0.0072,0.52991,0.02863
		c2.16248,0.2077,3.93829,1.72577,4.53265,3.7522C872.94867,642.47528,873.02747,642.97656,873.02747,643.49927z"/>
	<path d="M1096.42297,514.81927c-0.44995,7.54999-1.07996,15.60999-5.73999,21.56c-2.79004,3.56-6.76001,5.98999-9.93005,9.21002
		c-2.6499,2.68994-4.76001,5.94995-7.81995,8.13995c-1.63,1.16003-3.45007,1.98004-5.38,2.48999
		c-2.55005,0.69-5.27002,0.86005-7.91003,0.64001c-4.63-0.37-10.92102-6.37115-11.63098-7.02118
		c-0.78003-0.71997-1.63245-1.1142-1.97253-2.12421c-1.19995-3.53998-7.6665-6.45459-8.08643-10.17462
		c-0.08008-0.72998-5.35999-2.65997-4.91003-3.23999c0.43005-0.56,1.18994-0.73999,1.87-0.95001
		c5.23999-1.67999,7.85999-7.78998,7.77002-13.28998c-0.04004-2.44-0.57007-5.04999-2.32996-6.72998
		c-1.87012-1.78003-4.75-2.12-7.27002-1.60004c-6.47998,1.34003-11.24005,8.31-10.14008,14.83002
		c-2.19-5.35999-4.37-10.72998-6.56-16.09003c-0.21002-0.50995-0.40997-1.02997-0.39001-1.56995
		c0.03003-0.60004,0.35004-1.14001,0.66003-1.66003c1.19-1.97998,2.37-3.96002,3.56-5.94
		c-3.21002-0.45001-6.48999-0.91998-9.41998-2.32001c-1.33002-0.63-2.57001-1.46997-3.62006-2.51001
		c-0.58997-0.58997-1.25995-1.29999-1.81-2.06995c-0.63995-0.89001-1.12-1.88-1.13995-2.91003
		c-0.05005-2.5,1.10999-5.10999,2.53998-7.10999c1.84003-2.56,4.34003-4.54999,6.83002-6.5
		c3.31-2.59003,6.67999-5.41003,10.35999-7.47998c0.61005-0.34003,1.23004-0.60004,1.90009-0.77002
		c1.56995-0.41998,2.92993-0.97998,4.40991-1.65002c3.81006-1.70996,7.96997-2.58997,12.14001-2.83997
		c1.17004-0.07001,2.33997-0.09003,3.51001-0.06c6.81006,0.16998,13.5,1.82996,20,3.85999
		c3.94995,1.22998,7.94006,2.64001,11.10999,5.27997c1.42004,1.19,2.64001,2.58002,3.93005,3.89001
		c1.27002,1.29004,3,2.25,4.05994,3.67999c2.59009,3.45001,4.72998,7.21002,6.84998,10.96002
		c1.42004,2.5,2.84009,5.02997,3.69006,7.77997C1096.97302,505.10925,1096.703,510.02924,1096.42297,514.81927z"/>
	<path class="st17" d="M1005.20282,1064.59448c0,0-5.11609,0.68396-5.40479,3.60254
		c-1.71887,4.38318,0.39276,7.72607,0.39276,7.72607c0.74536,3.37012,0.27911,1.19592,0.74536,3.37012
		c0,0,2.81458-1.13086,3.80414-6.13879C1005.51929,1069.21204,1005.40686,1065.3457,1005.20282,1064.59448z"/>
	<path class="st33" d="M1024.41602,544.4267c0,0-0.6579,11.5675-10.26135,10.93982c-6.5896-0.43066-9.93323-2.20923-9.93323-2.20923
		s1.15063,6.53021,4.638,7.80945s11.69037,3.9483,18.25177,1.0047c0,0,1.35144-5.69165,2.58154-11.3504
		c1.3407-6.16724-4.35901-21.33612-4.35901-21.33612L1024.41602,544.4267z"/>
	<path class="st28" d="M1619.62146,795.67834l8.21423,8.20776l-16.85669,7.87048
		C1614.50366,807.42963,1617.4613,801.87054,1619.62146,795.67834z M1599.95361,740.13196
		c12.17896-2.7713,21.66113,11.30066,22.00195,31.04315c0.33691,19.52557-8.37024,39.43073-20.23364,45.0249
		c-12.83508,6.05237-24.58093-6.64429-25.25842-29.07928C1575.77734,764.39746,1586.75452,743.13538,1599.95361,740.13196z
		 M1601.50171,806.72742c8.96851-3.9552,15.64771-18.93506,15.37024-33.77045c-0.27966-14.96039-7.54248-25.3595-16.68982-22.99091
		c-9.7113,2.51465-17.65002,18.25104-17.17944,34.86255C1583.46887,801.28571,1591.98926,810.92255,1601.50171,806.72742z
		 M1608.96997,772.69269l-6.09253,10.70441l-11.00427-14.96075l10.37012,22.43701L1608.96997,772.69269z M1541.98108,747.87787
		c0.73535,0.23175,1.50732-0.33771,1.87048-1.30634c5.02686-0.40686,8.73926,1.0636,11.12207,4.33948
		c0.35596,0.48938,0.66687,1.00079,0.93909,1.52173c-0.17395,0.1463-0.3291,0.28296-0.44458,0.39532
		c-0.73499,0.73395-2.32983,2.48993-2.66296,2.93988c-1.78357,2.40826-3.9718,6.54517,0.3042,9.40289
		c5.32617,3.55963,8.60547,10.49921,10.2312,17.90912c4.33057,19.73871,6.43579,32.36987,17.21204,36.45123
		c3.69958,1.62463,7.49329,2.08173,11.33972,1.30396c0.02759-0.01276,0.05518-0.03217,0.08398-0.05603
		c-2.22791-0.46704-4.34375-1.48865-6.29102-3.0174c-1.18152-0.88873-2.28931-1.99292-3.30981-3.28979
		c-4.70056-5.78864-7.81201-15.05219-8.16687-26.56085c-0.09192-2.97729,0.00732-5.95416,0.27991-8.89301
		c1.17529-18.89819-2.46301-29.93787-10.33386-30.52234c-0.16895-0.01251-0.33691-0.01654-0.50366-0.01385
		c-0.27136-1.75146-0.7019-3.85065-1.38489-5.96143c-2.02368-6.25488-5.40503-9.87543-9.89771-10.51715
		c-0.19385-0.96765-0.82629-1.60693-1.55347-1.48297c-0.85144,0.14514-1.50671,1.27917-1.46008,2.53143
		c0.04675,1.25146,0.77649,2.13867,1.62646,1.98322c0.44836-0.08203,0.83911-0.43945,1.10205-0.94006
		c4.08606,0.51788,7.07422,3.6911,8.94592,9.40741c0.58691,1.79272,0.97864,3.6004,1.23926,5.16064
		c-2.073,0.49695-3.81836,1.88025-4.70605,2.48553c-0.04919,0.03363-0.17517,0.12579-0.34399,0.25281
		c-0.34473-0.703-0.74988-1.39685-1.2262-2.05975c-2.63086-3.66071-6.66602-5.32996-12.09314-4.92236
		c-0.18591-0.52826-0.52197-0.93225-0.96106-1.07654c-0.84802-0.27863-1.75391,0.51245-2.02002,1.76923
		C1540.65186,746.37,1541.12927,747.60938,1541.98108,747.87787z"/>
	<g>
		<g>
			<polygon class="st1" points="998.09625,604.77393 998.43091,606.2348 998.26862,606.26154 			"/>
			<path class="st1" d="M999.02899,609.26263c0.18945,1.01166,0.34338,2.02905,0.51184,3.04462l-0.60309,0.0777
				c-0.11053-1.01984-0.2356-2.03796-0.32507-3.06177L999.02899,609.26263z"/>
			<path class="st1" d="M999.98816,615.36377c0.13635,1.02075,0.26276,2.04303,0.37817,3.06665l-0.87958,0.08374
				c-0.0968-1.02032-0.18256-2.04193-0.25842-3.06506L999.98816,615.36377z"/>
			<polygon class="st1" points="1000.66919,621.50562 1000.88922,624.59302 999.90479,624.6488 999.71271,621.5791 			"/>
			<polygon class="st1" points="1001.03076,627.68365 1001.0838,630.77899 1000.1236,630.78693 1000.04419,627.71729 			"/>
			<path class="st1" d="M1001.02649,633.87677c-0.05078,1.03271-0.11005,2.06488-0.18182,3.09534l-0.76685-0.04492
				c0.00989-1.02466,0.03223-2.04761,0.06305-3.06995L1001.02649,633.87677z"/>
			<path class="st1" d="M1000.51776,640.05695c-0.16467,1.02216-0.31311,2.04559-0.49847,3.06134l-0.4176-0.06799
				c0.08368-1.02356,0.20428-2.03937,0.30872-3.05646L1000.51776,640.05695z"/>
			<polygon class="st1" points="999.28149,646.13837 998.81299,647.56458 999.12097,646.09924 			"/>
		</g>
	</g>
</g>
<g id="Calque_3" class="st9">
	<rect x="692.06683" y="-397.40414" class="st34" width="167.77022" height="88.81953"/>
	<rect x="497.41336" y="-397.40414" class="st35" width="167.77022" height="88.81953"/>
	<rect x="302.75989" y="-397.40414" class="st36" width="167.77022" height="88.81953"/>
	<rect x="497.41336" y="-263.61273" class="st37" width="167.77022" height="88.81953"/>
	<rect x="302.75989" y="-263.61273" class="st38" width="167.77022" height="88.81953"/>
	<rect x="718.95007" y="-263.61273" class="st39" width="167.77022" height="88.81953"/>
	<rect x="886.72034" y="-397.40414" class="st40" width="167.77022" height="88.81953"/>
	<rect x="1081.37378" y="-397.40414" class="st41" width="167.77022" height="88.81953"/>
	<rect x="1276.02734" y="-397.40414" class="st10" width="167.77022" height="88.81953"/>
	<rect x="1470.68079" y="-397.40414" class="st42" width="167.77022" height="88.81953"/>
	<rect x="497.41336" y="-542.19659" class="st41" width="167.77022" height="88.81953"/>
	<rect x="692.06683" y="-542.19659" class="st43" width="167.77022" height="88.81953"/>
	<rect x="886.72034" y="-542.19659" class="st44" width="167.77022" height="88.81953"/>
	<rect x="1665.33423" y="-397.40414" class="st45" width="167.77022" height="88.81953"/>
</g>
</svg>
