<?xml version="1.0" encoding="utf-8"?>
<!-- Generator: Adobe Illustrator 25.2.1, SVG Export Plug-In . SVG Version: 6.00 Build 0)  -->
<svg version="1.1" xmlns="http://www.w3.org/2000/svg" xmlns:xlink="http://www.w3.org/1999/xlink" x="0px" y="0px"
	 viewBox="0 0 2000 1500" style="enable-background:new 0 0 2000 1500;" xml:space="preserve">
<style type="text/css">
	.st0{fill:url(#SVGID_1_);}
	.st1{fill:#30160E;}
	.st2{fill:#AFC5C9;}
	.st3{fill:#009DD1;}
	.st4{fill:#AFC5C9;stroke:#110F0F;stroke-width:0.5;stroke-miterlimit:10;}
	.st5{fill:#000B26;}
	.st6{fill:#331911;}
	.st7{fill:#3A1E13;}
	.st8{fill:#004F69;}
	.st9{fill:#110F0F;}
	.st10{fill:none;stroke:#110F0F;stroke-width:0.5;stroke-miterlimit:10;}
	.st11{fill:#58D6C8;}
	.st12{fill:#85FFC2;stroke:#009DD1;stroke-width:3;stroke-miterlimit:10;}
	.st13{opacity:0.5;fill:#85FFC2;}
	.st14{fill:none;stroke:#009DD1;stroke-width:2.0723;stroke-miterlimit:10;}
	.st15{fill:#A4FFCF;stroke:#009DD1;stroke-width:2.0723;stroke-miterlimit:10;}
	.st16{clip-path:url(#SVGID_3_);fill:#3A1E13;}
	.st17{clip-path:url(#SVGID_3_);fill:#000B26;}
	.st18{clip-path:url(#SVGID_3_);fill:none;stroke:#004F69;stroke-miterlimit:10;}
	.st19{clip-path:url(#SVGID_3_);}
	.st20{clip-path:url(#SVGID_3_);fill:none;stroke:#110F0F;stroke-width:1.13997;stroke-miterlimit:10;}
	.st21{clip-path:url(#SVGID_3_);fill:none;stroke:#110F0F;stroke-miterlimit:10;}
	.st22{clip-path:url(#SVGID_3_);fill:none;stroke:#110F0F;stroke-width:1.18576;stroke-miterlimit:10;}
	.st23{clip-path:url(#SVGID_3_);fill:#110F0F;}
	.st24{clip-path:url(#SVGID_3_);fill:#424241;}
	.st25{fill:none;stroke:#009DD1;stroke-width:4;stroke-miterlimit:10;}
	.st26{display:none;}
	.st27{display:inline;fill:url(#SVGID_4_);}
</style>
<g id="Calque_5">
	<linearGradient id="SVGID_1_" gradientUnits="userSpaceOnUse" x1="1008.4306" y1="-566.67273" x2="985.86798" y2="1791.11938">
		<stop  offset="0.20318" style="stop-color:#FFFFFF"/>
		<stop  offset="0.3723" style="stop-color:#F9FCFD"/>
		<stop  offset="0.59728" style="stop-color:#E8F3F6"/>
		<stop  offset="0.85272" style="stop-color:#CDE5EB"/>
		<stop  offset="0.87455" style="stop-color:#CAE4EA"/>
	</linearGradient>
	<path class="st0" d="M578.24487,1314.39429c742.42761,409.2865,1962.28247-788.39471,922.73169-927.51904
		C1196.26257,330.5538,1227.73035-10.3918,904.4386,80.77237c-216.80457,61.13612-121.70984,442.67557-451.26682,384.3877
		C-54.38834,476.64325-47.31281,1004.80914,578.24487,1314.39429z"/>
	<g id="Calque_7">
	</g>
</g>
<g id="Calque_4">
	<path class="st1" d="M1233.02271,1143.81458c3.76733,16.68201,6.63879,33.58264,7.00342,50.7688
		c2.4187,12.60535,5.72156,25.13416,5.67798,38.0863c4.66614,1.17761,22.46814,5.54956,22.88818-0.99963
		c-0.27979-25.1792,5.26404-51.62891-1.35229-76.2489c-0.02173-11.61047,1.40808-23.22327,4.25281-34.47974
		c3.84973-11.43262,5.96289-22.79626,4.11243-34.85706c-1.18262-4.94653,0.68408-15.89758-3.72449-18.44861
		c-17.4043-3.70679-38.98779-12.15466-40.79834,7.25903C1227.77271,1092.64233,1232.54932,1125.76721,1233.02271,1143.81458z"/>
	<path class="st2" d="M1279.08838,1082.23743c-0.29163-7.39429-1.08545-32.72681-1.44482-40.11816
		c-0.20654-4.24792-0.42432-8.49536-0.6532-12.74207c-0.08752-1.62292,0.42322-3.08179,0.36865-4.70166
		c-0.35535-10.55365-0.71143-21.10724-1.06702-31.66083c-0.23218-6.88678-0.5896-14.17993-4.4314-19.90027
		c-2.82715-4.20959-9.1438-5.74078-14.14099-6.60199c-2.51428-0.43329-5.10278-0.49646-7.54468-1.23535
		c-1.89795-0.57428-3.64966-1.53998-5.4729-2.31946c-5.19177-2.21973-10.91028-2.90607-16.55334-3.09845
		c-17.94824-0.61182-35.69543,3.51947-53.07007,8.06189c-3.37646,0.88275-7.1366,2.08484-8.69812,5.20593
		c-1.75085,3.49945,0.0929,7.65985,0.04285,11.57257c-0.04102,3.19739-1.36877,6.22852-1.896,9.38245
		c-0.56116,3.35718-0.20642,6.79584,0.26257,10.16711c1.59045,11.43292,10.22913,21.479,9.2854,32.9834
		c-0.40845,4.97974,3.66125,9.00879,6.72717,12.95422c3.20569,4.12537,5.57043,8.90149,6.90796,13.95203
		c1.02197,3.85925,1.70166,8.28394,4.94165,10.61658c1.55786,1.12146,0.8938,16.98328,2.78174,17.32983
		c5.45667,1.00146,19.82874,7.01538,26.24622,7.81213l1.32104-33.33105v29.68103c3.00122,0.02588,15.23047,4.8269,17.93359,4.55725
		c6.06348-0.60486,12.1272-1.20972,18.19067-1.81458c5.91736-0.59021,11.0686-6.13184,16.33093-8.90173
		c0.89807-0.4729,1.78418-1.02112,2.41895-1.81323C1279.18848,1086.63623,1279.17114,1084.33594,1279.08838,1082.23743z"/>
	<path class="st3" d="M1205.88977,1332.17627c-0.61328,3.0531-3.33557,5.3335-6.28992,6.31812
		c-2.95435,0.9845-6.14258,0.90576-9.25537,0.81665c-4.1322-0.11829-8.2644-0.23657-12.39661-0.35498
		c-1.99658-0.05713-3.99512-0.11438-5.9834-0.30493c-0.86365-0.08276-1.73914-0.19421-2.53455-0.54065
		c-0.78528-0.34192-1.45703-0.89746-2.08728-1.47742c-3.35327-3.0863-5.92542-7.38501-5.72717-11.93799
		c0.03345-0.76819,0.14746-1.54187,0.44336-2.25146c0.32935-0.78992,0.87207-1.47278,1.4613-2.09338
		c2.67273-2.81494,6.36877-4.49548,10.15955-5.33105c3.79065-0.83545,7.70642-0.88525,11.58789-0.85059
		c3.00024,0.02673,6.07483,0.11609,8.86304,1.22437c3.17896,1.26343,5.70007,3.7334,8.12927,6.14197
		c1.31714,1.30603,2.63574,2.6106,3.95154,3.91797c0.5304,0.52722,0.60217,0.81836,0.34802,1.50623
		c-0.28284,0.76562-0.38904,1.55359-0.43604,2.36523C1206.06836,1330.276,1206.07825,1331.23779,1205.88977,1332.17627z"/>
	<path class="st3" d="M1244.61548,1282.05725c-1.07507-0.11023-2.19165,0.41284-2.79529,1.3092
		c-0.91675,1.36169-0.57898,3.18872-0.07324,4.75037c0.25781,0.79602,0.56958,1.55408,0.76746,2.36243
		c0.09521,0.38843,0.34583,0.68518,0.57532,1.00513c0.61499,0.85718,1.22766,1.71606,1.83813,2.57642
		c1.22095,1.72095,2.43274,3.44824,3.6355,5.18188c0.65527,0.94495,1.30835,1.89148,1.95813,2.84009
		c0.20703,0.30225,0.38306,0.61926,0.6676,0.85229c0.30798,0.2522,0.54236,0.51733,0.79102,0.83215
		c0.57922,0.73303,1.14612,1.47595,1.6897,2.23596c1.08032,1.5105,2.07227,3.09192,2.85986,4.77637
		c0.47778,1.02161,0.87878,2.08008,1.17505,3.16882c0.52649,1.93567,0.7168,3.9436,0.97876,5.9325
		c0.34302,2.604,0.81213,5.19153,1.40552,7.75049c0.25708,1.10889,0.56787,2.32092,1.10791,3.33105
		c0.17688,0.33093,0.56543,0.60425,0.83765,0.85669c0.62109,0.57593,1.26636,1.12549,1.93274,1.64819
		c1.32947,1.0426,2.74292,1.97693,4.21692,2.80225c2.96912,1.66248,6.17773,2.88123,9.47852,3.698
		c3.32825,0.82361,6.75488,1.24268,10.18225,1.28821c0.63159,0.0083,1.26343,0.00391,1.8949-0.01318
		c2.01025-0.05457,4.02344-0.22754,5.98865-0.65491c2.17676-0.47339,4.27283-1.25366,6.36035-2.03137
		c0.9502-0.354,1.91992-0.71912,2.70203-1.36475c1.40845-1.16272,1.99585-3.07642,2.0509-4.90198
		c0.02551-0.84412-0.04846-1.69824-0.30481-2.50305c-0.86218-2.70557-3.55103-4.34546-6.09692-5.60303
		c-8.76587-4.33008-18.49353-7.14758-25.90381-13.52563c-1.65259-1.42249-3.58069-3.17334-4.66675-5.06409
		C1264.04712,1295.4585,1256.24304,1283.24927,1244.61548,1282.05725z"/>
	<path class="st4" d="M1167.51697,1259.63c-0.12036,1.54333-0.22729,3.16614,0.42334,4.57092
		c7.85046,0.1897,15.71362-0.14758,23.51917-1.00854c1.09058-0.12036,2.39954-0.42163,2.73328-1.46692
		c0.11426-0.35815,0.08447-0.74426,0.05359-1.1189c-0.55481-6.71472-1.10962-13.42932-1.66443-20.14404
		c-0.18237-2.20618-0.37122-4.44348-1.13074-6.52283s-2.1731-4.0177-4.1969-4.91479
		c-3.42224-1.51709-7.32825,0.27368-10.63403,2.02991c-1.93665,1.02881-3.87329,2.05774-5.80994,3.08655
		c-0.74011,0.39319-1.31079,0.53809-1.41833,1.40588c-0.13293,1.073-0.1676,2.16882-0.25171,3.24707
		c-0.34509,4.42944-0.69019,8.85889-1.03528,13.28833C1167.90894,1254.59839,1167.71289,1257.11414,1167.51697,1259.63z"/>
	<path class="st4" d="M1245.80444,1241.25916c-0.01477,0.61316-0.03076,1.16345-0.23743,1.73914
		c-0.31201,0.86987-0.46692,1.6073-0.51685,2.54736c-0.13037,2.45361,0.04138,4.92322,0.51257,7.33472
		c0.69702,3.56604,2.22363,7.22302,5.26965,9.20386c3.57373,2.3241,8.30725,1.76392,12.3385,0.37744
		c1.66479-0.57251,3.38196-1.34668,4.35229-2.81567c0.53223-0.80566,0.79382-1.75708,1.00403-2.69946
		c0.68958-3.09192,0.91113-6.28784,0.65491-9.44543c-0.38928-4.79785-1.8595-9.71216-0.47473-14.32227
		c0.1792-0.59668,0.40515-1.23962,0.18774-1.82349c-0.16431-0.44116-3.34155,0.04358-6.16479,0.09485
		c-1.8457,0.03357-6.66809,1.53882-10.95605,1.38757c-1.22949-0.04333-5.25989-1.46912-5.93018-0.29565
		c-0.50085,0.87671-0.26501,2.05444-0.19153,3.00464C1245.79956,1237.44678,1245.85022,1239.354,1245.80444,1241.25916z"/>
	<path class="st5" d="M1171.08948,1252.1145c-0.052,0.09094-0.1051,0.18213-0.16248,0.27173
		c-0.27637,0.43115-0.65991,0.77234-0.99463,1.15588c-0.36011,0.4126-0.69153,0.85059-0.98474,1.31311
		c-0.58801,0.92786-1.02087,1.95923-1.20471,3.04529c-0.31543,1.8645-0.09314,4.18689-1.6875,5.20349
		c-1.4585,0.92993-3.8092,0.19543-4.78906,1.62073c-0.40369,0.58716-0.40173,1.35266-0.38489,2.06482
		c0.09802,4.14697,0.08984,8.18286,0.43225,12.30176c0.19934,2.39661,0.38928,4.79407,0.55566,7.19312
		c0.33264,4.7926,0.57251,9.59351,0.60547,14.39819c0.02966,4.31738-0.10815,8.63794-0.49438,12.93884
		c-0.27136,3.02234-0.65991,6.11731,0.1073,9.05322c0.34216,1.3092,0.96143,2.55859,1.8219,3.60498
		c0.53699,0.65308,1.21045,1.09741,1.81494,1.66663c0.28601,0.26941,0.48206,0.61267,0.75842,0.89099
		c0.7821,0.78796,1.82788,1.38965,2.81238,1.88513c2.05859,1.03577,4.32031,1.60815,6.58337,1.98596
		c1.16797,0.19507,2.34412,0.33765,3.52185,0.45874c2.98157,0.30676,5.98413,0.50781,8.9823,0.37903
		c1.54761-0.06653,3.09302-0.2218,4.61694-0.50293c0.97559-0.17993,1.9342-0.53149,2.89832-0.69983
		c1.13721-0.19849,2.25049-0.26111,3.37097-0.59106c2.19238-0.64551,4.24304-1.7793,5.93848-3.31384
		c0.69226-0.62646,1.33484-1.32874,1.75256-2.16357c1.00183-2.00293,0.56653-4.38965,0.81006-6.61572
		c0.52051-4.75647-2.52576-8.7489-3.33154-13.46533c-0.26721-1.56433-0.47498-3.13782-0.70996-4.70715
		c-0.21704-1.44873-0.3501-3.03918-0.81714-4.43262c-0.14453-0.43103-0.39612-0.76843-0.49365-1.22217
		c-0.29089-1.35352-0.49902-2.73193-0.71362-4.09924c-0.43005-2.74011-0.76892-5.49463-1.01562-8.25732
		c-0.47021-5.26685-0.93994-10.48181-1.99939-15.67346c-0.56677-2.77795-0.91614-5.27368-1.42542-8.06274
		c-0.11682-0.63965-0.31921-1.38599-0.92993-1.60901c-0.72644-0.26526-1.42114,0.39307-2.0415,0.85498
		c-1.35242,1.00696-3.26526,1.20178-4.79297,0.48804c-0.87622-1.2821-0.83215-2.91357-0.80933-4.46619
		c0.01575-1.07874,0.24731-2.23071-0.25537-3.1853c-0.73669-1.39893-2.31213-1.64282-3.69519-2.02771
		c-0.7384-0.20544-1.49194-0.35498-2.25171-0.45569c-1.52625-0.20227-3.07495-0.20801-4.60754-0.07642
		c-0.12256,0.0105-0.245,0.02197-0.36743,0.03418c-1.40857,0.14136-2.82678,0.40942-4.13086,0.97705
		c-0.60999,0.26562-1.25256,0.59216-1.7395,1.05371C1171.40039,1251.55627,1171.24951,1251.83472,1171.08948,1252.1145z"/>
	<path class="st5" d="M1269.84412,1245.15784c-0.65015-0.3208-1.44409-0.37122-2.15747-0.45251
		c-0.7312-0.08337-1.50879,0.24951-2.20459,0.43372c-0.86377,0.22876-1.73035,0.45837-2.55615,0.79944
		c-0.98743,0.40771-1.9032,0.98328-2.70923,1.68359c-0.93811,0.81494-1.72925,1.79907-2.32263,2.89087
		c-0.29639,0.54541-0.54333,1.11768-0.73376,1.7085c-0.09021,0.27979-0.22192,0.60535-0.23889,0.90051
		c-0.06702,1.15967,0.17224,2.35559-0.03613,3.50891c-0.1886,1.04382-1.00366,2.11304-2.06226,2.04675
		c-0.61438-0.03845-1.13599-0.44348-1.61438-0.83093c-1.83508-1.48608-3.67029-2.97229-5.50537-4.45837
		c-0.78992-0.63977-1.94141-1.29065-2.72839-0.64734c-0.47815,0.39087-0.54895,1.08264-0.58325,1.6991
		c-0.3678,6.59058-0.73547,13.18103-1.10315,19.77161c-0.09082,1.6283-0.1814,3.26013-0.11963,4.89136
		c0.02502,0.66113-0.09851,1.50293,0.31201,2.05701c0.40015,0.54016,0.82227,1.06506,1.25671,1.578
		c0.85632,1.01074,1.77283,1.97046,2.74329,2.87219c5.27393,4.8999,7.57825,11.17297,9.29321,18.16455
		c1.71509,6.99146,2.95105,14.37146,7.14368,20.22327c1.89697,2.64758,4.58643,4.51721,7.54004,5.82031
		c0.92603,0.40857,1.93567,0.89929,2.97058,0.96777c0.44092,0.02917,0.88171-0.03137,1.323-0.02161
		c0.703,0.0155,1.37903,0.18994,2.0636,0.33362c3.23096,0.67786,6.5155,1.09912,9.81274,1.26147
		c4.05542,0.19971,8.13062,0.00793,12.14844-0.57959c1.62158-0.23718,3.30652-0.56958,4.59094-1.5874
		c2.29614-1.8197,2.58154-5.17493,2.34424-8.09509c-0.25232-3.10388-0.88049-6.17712-1.86658-9.13098
		c-2.6377-7.90198-8.68518-13.39404-12.60461-20.745c-2.11633-3.96912-4.36743-6.87012-6.18542-10.9845
		c-0.46228-1.04626-0.90552-2.11206-1.56323-3.04797c-0.4425-0.62976-1.04541-1.09229-1.31348-1.80603
		c-0.2356-0.62732-0.46667-1.2561-0.71277-1.87964c-0.49207-1.2467-1.0177-2.4801-1.57617-3.69836
		c-1.10376-2.40771-2.33569-4.75671-3.68933-7.0332c-2.12317-3.5708-4.64172-6.82861-5.15857-10.95056
		c-0.17419-1.38855,0.005-2.80261-0.16028-4.19214C1271.71558,1247.2395,1271.099,1245.7771,1269.84412,1245.15784z"/>
	<path class="st6" d="M1292.86755,853.98975c0.05957,21.95801,4.8457,43.83392,2.79102,65.72961
		c-0.54553,29.16028-3.36353,58.60205,6.33057,86.71637c1.1084,3.38611-0.79053,6.53308-1.61987,9.72662
		c-1.32312,5.5611-1.6283,11.47046-3.87073,16.75549c-2.49438,2.55518-8.59045,16.39026-11.22949,8.11108
		c-0.56091-1.42847-0.23096-3.07739,0.48279-4.43518c-1.79688-0.98755-2.026-3.7113-0.35205-4.92834
		c0.0437-6.6438,6.28943-5.8634,3.92334-14.01019c-1.75671,0.65558-4.02808,0.71912-5.58264-0.32916
		c-2.16577-6.28607-1.60229-12.71637-1.37292-19.28131c0.59143-4.89893-2.87524-9.03839-3.21326-13.88171
		c-0.66663-13.48822,3.68982-9.34863,1.44287-27.84674c-2.85071-23.46973-9.15845-46.50037-9.0686-69.9538
		c-4.52698-7.86969-7.32129-33.07788,4.53638-35.84204C1281.22632,848.50519,1293.81519,844.57373,1292.86755,853.98975z"/>
	<path class="st7" d="M1188.8158,710.16797c0.77454,4.5426,1.54907,9.08514,2.32361,13.62775
		c1.12878,6.61938,2.20581,13.69855-0.5365,19.82806c-2.32886,5.20557-7.16589,9.06287-9.05603,14.4433
		c-2.48987,7.08746,0.99902,15.28595,6.85706,19.98865c5.85791,4.70264,13.58215,6.44403,21.08301,6.854
		c6.66882,0.3645,13.43945-0.2265,19.7887-2.29846c5.4126-1.76636,10.96313-5.21399,12.30054-10.74823
		c1.0658-4.41083-0.75293-9.68585-4.29285-12.51904c-1.41504-1.13251-2.23792-3.03656-3.13245-4.57776
		c-2.05188-3.53497-3.95044-7.1875-5.27148-11.065c-0.71997-2.11316-1.26318-4.28906-1.55676-6.50354
		c-0.09778-0.73804-0.12646-1.59766,0.41992-2.10339c0.49207-0.45551,1.24109-0.42896,1.89954-0.55566
		c1.52112-0.29272,2.72681-1.52411,3.39246-2.92285c0.66565-1.39868,0.87793-2.96313,1.08179-4.49872
		c0.39709-2.99048,3.06262-4.6806,4.875-7.09222c3.44409-4.58282,5.25378-10.36847,5.03503-16.09705
		c-0.28577-7.48169,1.59387-13.25543,2.23987-20.71466c0.27209-3.14209,0.56091-6.3515,1.84253-9.23328
		c2.21204-4.97363,1.20337-10.15527-1.09363-15.09027c-0.65308-1.40308-1.45776-2.76593-2.60254-3.8075
		c-1.22827-1.11749-2.7832-1.80731-4.35034-2.35651c-10.37634-3.63629-21.78796-1.76135-32.57166,0.38434
		c-1.68335,0.33496-3.44141,0.71069-4.76172,1.8075c-3.80811,3.16357-2.30652,10.69659-6.84473,12.67535
		c-1.19287,0.52008-2.54224,0.48083-3.83203,0.65411c-4.00696,0.53833-7.39868,3.11884-10.58362,5.60925
		c-1.98169,1.54944-4.05725,3.22528-4.90894,5.59216c-0.62183,1.72778-0.51074,3.62964-0.24475,5.44647
		C1177.72388,694.52032,1187.18066,700.57825,1188.8158,710.16797z"/>
	<path class="st3" d="M1184.72302,752.37543c-13.83826,3.30005-28.33875,9.28888-41.62451,14.37592
		c-9.2616,2.72217-16.07336,10.48987-17.90173,20.01129c-3.84424,25.74677,9.47241,49.87097,19.40369,72.92035
		c1.45374,3.2124,4.25867,5.07336,7.78174,5.20941c1.48914,28.33502,13.4657,55.03418,11.85779,83.45459
		c-0.24536,11.48938,0,20.92786,0,36.97351c7.93311,5.27783,14.35864-0.04596,22.71179,2.08197
		c9.15735,0.24219,20.88391-3.47845,29.69482-1.89331c19.41443,0.34961,39.30151-1.36572,57.76746-7.94348
		c2.0647-15.73364-1.12097-31.79315-0.32739-47.64795c-1.34045-9.97955,0.1322-20.47864-2.53003-30.2533
		c-1.09094-14.68646,0.59155-29.58063-0.29553-44.29968c7.20959-0.03693,15.27588-1.72949,22.54639-2.4494
		c1.42078-0.49756,4.41467,0.64319,4.81995-1.17743c0.50745-7.68494,0.24939-15.1731-2.146-22.55286
		c-1.65552-11.64972-0.79993-23.61127-3.31836-35.19391c-1.05627-15.57886-12.6925-23.27484-26.59631-27.08539
		c-11.53333-4.12537-21.23352-8.62909-32.76807-12.75323c4.0166,18.21478-12.59119,27.18445-28.82141,22.9765
		C1195.30762,774.6358,1184.49536,762.33966,1184.72302,752.37543z"/>
	<g>
		<path class="st8" d="M1238.61401,859.90009c-0.05066-2.50775-0.09155-5.01172-0.22192-7.51215
			c-0.09387-2.50079-0.24377-4.99841-0.44958-7.4903c-0.21069-2.49133-0.41418-4.98242-0.70801-7.46454
			c-0.27954-2.48358-0.64111-4.9563-1.01013-7.42719l-0.1073-0.71893l0.70398,0.16302
			c2.22046,0.51422,4.47729,0.87549,6.74951,1.08313c2.2738,0.1955,4.55933,0.22717,6.84363,0.15625
			c2.28406-0.0929,4.56238-0.35205,6.82019-0.74689c2.23181-0.40723,4.59473-0.78693,6.35461-2.33826
			c-0.78772,0.84985-1.83496,1.43372-2.92065,1.8399c-1.08936,0.41608-2.21851,0.67999-3.34033,0.96014
			c-2.25842,0.50751-4.55737,0.84229-6.87024,1.02979c-4.63074,0.36169-9.31165-0.03625-13.85571-1.02295l0.59656-0.55573
			c0.39624,2.48206,0.68811,4.97955,0.95032,7.47827c0.2478,2.50024,0.474,5.00366,0.58081,7.51398
			c0.11182,2.5097,0.16711,5.02087,0.16602,7.53094C1238.85803,854.88898,1238.79724,857.39795,1238.61401,859.90009z"/>
	</g>
	<path class="st8" d="M1192.91418,839.12231c-0.60291,1.4104-1.87537,2.40173-3.0968,3.32947
		c-0.93359,0.70905-2.06409,1.4588-3.1886,1.12732c-0.47839-0.14105-0.88013-0.46533-1.24084-0.80957
		c-2.46509-2.35223-3.5415-6.06372-2.71753-9.36981c0.09631-0.38654,0.21912-0.77283,0.43799-1.10559
		c0.2832-0.43054,0.71313-0.74774,1.17383-0.97858c1.37756-0.69019,3.04358-0.6449,4.49634-0.13171
		c1.24402,0.43939,2.4751,1.20996,3.43127,2.12177c0.80469,0.7674,1.0011,2.27325,1.07593,3.32324
		C1193.34607,837.47565,1193.24976,838.33716,1192.91418,839.12231z"/>
	<path class="st8" d="M1146.46863,857.5495c-0.39783,0.44165-1.46362,2.8255-1.64465,3.39166
		c-0.38611,1.20703,0.44849,2.1806,1.35583,3.06531c1.9823,1.93274,5.56091,1.12445,8.23523,0.40851
		c0.47009-0.12585,0.93713-0.29907,1.32043-0.59882c0.88159-0.68915,1.15955-1.92914,1.03357-3.04102
		c-0.22156-1.95514-1.48083-3.66052-2.99036-4.92273c-1.04199-0.87128-1.59253-3.49335-3.01624-3.10236
		c-0.58618,0.16101-2.05835,2.44794-2.46887,2.86383C1147.67065,856.24512,1147.06213,856.89056,1146.46863,857.5495z"/>
	<g>
		<path class="st8" d="M1299.03137,842.84979c-2.34204-0.02863-4.67908,0.09393-7.01086,0.24255
			c-2.33142,0.16492-4.65613,0.40753-6.97864,0.67004c-2.32288,0.26428-4.6366,0.60547-6.95715,0.90521l-6.96057,0.93195
			l0.17322-0.1767c-0.21436,1.67175-0.13123,3.37976-0.02197,5.07892c0.09607,1.70178,0.22351,3.4137,0.14673,5.12103
			c-0.02917-3.41327-0.86096-6.77692-0.52563-10.24628l0.01489-0.15381l0.15869-0.02307l6.94836-1.00995
			c2.31641-0.34369,4.64355-0.61932,6.97327-0.87561c2.32947-0.25793,4.66882-0.44037,7.01196-0.53107
			C1294.34595,842.67633,1296.69434,842.71307,1299.03137,842.84979z"/>
	</g>
	<path class="st7" d="M1148.55566,850.56268c7.02759,11.854,11.15649,27.02618,22.91858,35.33905
		c19.95215,4.12921,40.46704,5.61761,60.71008,7.69275c14.96387,0.83002,30.40454-0.06537,45.17065,3.08533
		c2.5769,0.08716,5.10596,0.67114,6.97192,2.57068c9.33032,5.77747,21.15845,7.69513,31.99829,8.57031
		c0.73389-0.16742,1.08545-2.31488,1.2063-3.96912c-0.06506-0.28674-0.65576-0.52155-0.95996-0.68848
		c1.86731-0.85938,2.41431-3.69397,1.00073-5.18634c1.88196-0.95483,3.56262-3.64752,1.15808-4.90271
		c1.99194-0.64948,2.91687-3.4162,1.71619-5.13306c12.05298,0.97137,23.35706,9.06824,35.08215,4.80518
		c1.92371-1.05963,1.78149-3.37848-0.51282-3.49689c-18.00525-4.56665-36.03955-8.36115-53.81506-13.81421
		c-23.10046,2.9812-46.08899-4.51788-68.20068-10.37714c-13.14221-3.44904-27.44409-3.90723-39.98364-8.94476
		c-4.02649-8.37555-7.95361-16.82324-11.96533-25.21417C1170.42822,837.49548,1155.37634,839.37738,1148.55566,850.56268z"/>
	<g>
		<path class="st8" d="M1173.20166,902.07825c1.99011,3.62079,3.79883,7.33795,5.50549,11.10162
			c1.70898,3.76324,3.24841,7.60101,4.74438,11.45422c1.42029,3.88171,2.79199,7.78259,3.99292,11.73737
			c0.59021,1.98053,1.16443,3.96503,1.71301,5.9563c0.50903,2.00293,1.03162,4.00061,1.47205,6.01923l-1.94165-5.87854
			c-0.6427-1.95917-1.29785-3.91321-1.97498-5.85938c-1.34851-3.89355-2.70752-7.78223-4.19604-11.62292
			c-1.41272-3.86926-2.96021-7.68683-4.51306-11.5036C1176.44861,909.6662,1174.82043,905.8786,1173.20166,902.07825z"/>
	</g>
	<g>
		<path class="st9" d="M1179.85242,851.54199c2.54749,0.08215,5.06616,0.65759,7.47803,1.49243
			c2.39258,0.88855,4.70312,2.0451,6.7207,3.60278c-2.23828-1.20386-4.50708-2.3078-6.8894-3.13269
			C1184.79883,852.62585,1182.3457,852.0343,1179.85242,851.54199z"/>
	</g>
	<path class="st9" d="M1202.60608,667.4718c-0.11621,1.79993,0.28137,3.62183-0.0072,5.40234
		c-0.37024,2.28442-1.81445,4.22369-2.81372,6.3111c-2.38135,4.97455-2.21021,10.72565-2.89148,16.19861
		c-0.18652,1.49835-0.60498,3.21729-1.97534,3.85132c-0.93823-5.68152-1.87646-11.36298-2.8147-17.04443
		c-0.26697-1.61664-0.54443-3.26526-1.30774-4.71509c-0.76331-1.44989-2.11035-2.69299-3.73645-2.89465
		c-2.48853-0.30859-4.63696,1.85406-5.66431,4.1416c-1.07056,2.38336-1.39795,5.03491-1.46704,7.64673
		c-0.06165,2.33386,0.08105,4.7135,0.88684,6.90479c0.7312,1.9884,3.35413,8.73126,6.38269,4.23718
		c3.80481,5.84821,4.28406,14.05341,3.02649,20.91614c-2.48523-1.78186-5.22156-4.08887-7.25195-6.37549
		c-1.6272-1.83258-3.25439-3.66522-4.88171-5.49786c-1.06824-1.20312-2.14355-2.41577-2.96338-3.80035
		c-0.78784-1.33057-1.6239-2.7204-2.11548-4.18188c-0.20337-0.60486-0.46155-1.18951-0.73389-1.76605
		c-0.54651-1.15698-1.16345-2.28705-1.56433-3.50653c-0.42456-1.2915-0.6062-2.68109-1.28455-3.85931
		c-0.43103-0.74854-1.04565-1.37891-1.47363-2.12921c-1.3335-2.33771-0.61682-5.26031,0.13342-7.84491
		c-1.01208-1.71698-1.745-3.29065-1.72083-5.28363c0.01404-1.16174,0.39429-2.284,0.77039-3.38324
		c2.25134-6.57977,4.50256-13.15961,6.75391-19.73938c0.45251-1.32269,0.91077-2.65741,1.63892-3.85077
		c2.21948-3.63739,6.49329-5.35815,9.88159-7.94202c0.75598-0.57648,1.47681-1.20435,2.28918-1.698
		c0.745-0.45276,1.55542-0.78552,2.36194-1.11639c2.47241-1.01416,4.94482-2.02826,7.41724-3.04242
		c1.8335-0.75214,3.69006-1.51062,5.65149-1.79437c2.47046-0.35742,4.9801,0.05511,7.44214,0.46674
		c2.2771-0.89636,5.35718-1.59247,7.78186-1.26178c0.34509,0.04706,0.69373,0.10828,1.00757,0.25928
		c0.24268,0.11676,0.45728,0.28387,0.69116,0.41724c0.89819,0.51202,1.98962,0.48883,3.00977,0.65717
		c1.23376,0.20367,2.39722,0.70044,3.54663,1.19305c1.28796,0.552,2.57581,1.104,3.86377,1.65594
		c2.05481,0.88068,4.1781,1.10736,6.3186,1.75244c1.16162,0.35004,2.33228,0.7038,3.40125,1.27777
		c2.50574,1.34534,4.22937,3.76703,5.7522,6.16901c0.60938,0.96106,1.24316,2.00494,1.36682,3.16089
		c0.04297,0.40155-0.07092,0.7652-0.0614,1.14172c0.01172,0.46448,0.29553,0.97388,0.45166,1.41077
		c0.37036,1.03564,0.73096,2.0752,1.05896,3.12518c0.65283,2.0896,1.17981,4.22858,1.38745,6.41211
		c0.26379,2.77466,0.00964,5.56952-0.24438,8.34503c-0.27661,3.02264-0.55322,6.04523-0.82983,9.06781
		c-0.27234,2.9754-0.35559,6.04413-0.83813,8.99225c-0.12817,0.78326-0.53662,1.41687-0.77649,2.15863
		c-0.41028,1.26929-0.42346,2.67407-0.63147,3.98218c-0.44373,2.79095-1.14954,5.64404-2.89124,7.93262
		c0.36841-3.9057,0.35608-7.84723-0.03699-11.75049c-0.24963-2.47974,1.2627-4.06433,1.39136-6.55328
		c0.08276-1.60168-0.01843-3.22107,0.27039-4.79865c0.27356-1.49347,0.8877-2.89972,1.33337-4.35114
		c1.66052-5.40692,0.68933-11.84283-3.39844-15.7522c-2.34851,1.51672-5.5542,1.30536-8.34973,1.29041
		c-4.02112-0.02161-8.06458-0.13446-12.0415,0.46075c-1.87561,0.2807-3.71191,0.55951-5.60022,0.72589
		c-0.28809,0.02539-0.55151,0.10388-0.83325,0.15643c-0.78491,0.14655-1.65112-0.03143-2.44482-0.05963
		c-1.45764-0.05188-2.90601,0.00446-4.36194,0.06586c-0.79797,0.03363-1.59045,0.01422-2.32202,0.37842
		c-2.02502,1.00806-3.6189,3.06293-4.38818,5.15277C1202.85291,665.724,1202.66455,666.59204,1202.60608,667.4718z"/>
	<path class="st9" d="M1212.08728,673.84021c3.75647-1.23041,8.05298,0.60468,11.7406-0.81885
		c-0.56055-0.64014-1.23938-1.17627-1.99194-1.57312c-3.73999-1.97211-8.69836-0.52155-12.09778,1.54645
		c-1.28662,0.78259-2.55652,1.67267-3.64001,2.72406c-0.27588,0.26776-1.33813,1.32721-0.31946,1.19434
		c0.98499-0.12842,1.97717-0.78351,2.81311-1.27301C1209.72205,674.97821,1210.83362,674.25085,1212.08728,673.84021z"/>
	<path class="st9" d="M1244.6134,673.23077c0.52734-0.02301,1.21191-0.19232,1.24524-0.71918
		c0.0083-0.13019-1.7749-0.75787-1.97083-0.83337c-0.67615-0.26062-1.36572-0.4903-2.07312-0.6499
		c-1.30603-0.29474-2.66846-0.32233-4-0.2243c-1.90771,0.14044-3.82007,0.52747-5.65125,1.07538
		c-0.51367,0.15369-1.8761,0.15503-1.81506,0.98297c0.02979,0.40338,0.82129,0.54401,1.11475,0.57367
		c0.58398,0.05908,0.00159,0.20319,0.58179,0.08411c0.68091-0.13971,1.38171-0.13666,2.07336-0.13031
		c3.10693,0.02844,6.21204,0.00427,9.31714-0.11139C1243.82812,673.26379,1244.22083,673.24792,1244.6134,673.23077z"/>
	<g>
		<path class="st9" d="M1231.98474,682.69604c0.49451,2.63196,0.85999,5.29059,1.08643,7.96277
			c0.23438,2.67206,0.31763,5.35486,0.31909,8.03876c-0.01038,0.67383-0.04187,1.36377-0.20544,2.04681
			c-0.15747,0.67853-0.49365,1.35858-1.03931,1.83984c-1.12219,0.97278-2.63916,1.05072-3.96289,0.94751
			c-2.69397-0.2312-5.32678-0.97052-7.73096-2.15363c2.47717,1.01312,5.11145,1.60925,7.75562,1.76978
			c1.28967,0.0481,2.69873-0.04993,3.63269-0.90094c0.94263-0.85028,1.04919-2.25787,1.0509-3.55444
			c0.04016-2.66846-0.05017-5.33954-0.20154-8.0061C1232.53015,688.02002,1232.2981,685.35535,1231.98474,682.69604z"/>
	</g>
	<g>
		<path class="st9" d="M1209.05945,707.03363c1.55103,1.53296,3.27356,2.84717,5.15015,3.86285
			c1.88,1.00342,3.88538,1.75952,5.96594,2.15179c2.07617,0.41467,4.21875,0.46552,6.3374,0.23901
			c1.06091-0.11218,2.11511-0.31702,3.15015-0.60461c1.04688-0.25641,2.06104-0.63373,3.07263-1.0451
			c-0.90674,0.61249-1.90088,1.08911-2.91968,1.51086c-1.03064,0.39069-2.09961,0.68866-3.18884,0.89954
			c-2.18079,0.41949-4.4491,0.39703-6.64233-0.01868c-2.18884-0.43781-4.30042-1.2666-6.16455-2.47339
			c-0.93066-0.60352-1.81067-1.27948-2.61926-2.0285C1210.41418,708.75507,1209.67102,707.94073,1209.05945,707.03363z"/>
	</g>
	<g>
		<path class="st9" d="M1194.74597,703.57086c1.25891,4.03796,2.49377,8.08282,3.69666,12.1369
			c0.30603,1.01202,0.59473,2.02411,1.04297,2.95398c0.44043,0.93262,1.10596,1.73004,1.88281,2.41571
			c1.55884,1.36603,3.47253,2.36279,5.09265,3.76398c1.6333,1.37,3.1156,2.88556,4.67627,4.29846
			c1.55286,1.41925,3.22595,2.70349,4.97229,3.87299c0.87439,0.57611,1.78882,1.0946,2.77356,1.42572
			c0.98328,0.33429,2.03137,0.45947,3.07898,0.50183c2.10217,0.05835,4.22437-0.04169,6.33643-0.05804
			c-2.11426,0.09784-4.21594,0.27942-6.3429,0.30267c-1.06189-0.01538-2.13928-0.12183-3.17004-0.44611
			c-1.03052-0.3219-1.98303-0.83667-2.88391-1.40247c-1.80103-1.13251-3.48438-2.44257-5.06873-3.85828
			c-1.5835-1.41425-3.07495-2.91431-4.69177-4.25317c-1.57397-1.38507-3.4541-2.3739-5.07532-3.80878
			c-0.80115-0.71509-1.51221-1.57886-1.96924-2.56738c-0.46948-0.97992-0.74011-2.01929-1.02185-3.0351
			C1196.93591,711.74127,1195.82886,707.65955,1194.74597,703.57086z"/>
	</g>
	<g>
		<path class="st8" d="M1270.03369,810.72858c0.20728,3.73901,0.3894,7.47864,0.53845,11.21899l0.4054,11.22223l0.28967,11.22491
			c0.08215,3.742,0.13171,7.48474,0.15491,11.22809c-0.20825-3.73895-0.39001-7.47858-0.53931-11.21899l-0.40454-11.22217
			l-0.28882-11.22498C1270.10706,818.21472,1270.05786,814.47192,1270.03369,810.72858z"/>
	</g>
	<g>
		<path class="st9" d="M1313.36145,902.44183c0.65576-0.06305,1.28125,0.02032,1.89954,0.13806
			c0.61438,0.13635,1.22156,0.30804,1.7981,0.62744c-0.65601,0.06427-1.28137-0.01923-1.89941-0.13812
			C1314.54541,902.93182,1313.93835,902.76001,1313.36145,902.44183z"/>
	</g>
	<g>
		<path class="st9" d="M1314.77783,897.54736c0.4856-0.00305,0.95056,0.06708,1.42114,0.11072
			c0.46704,0.07233,0.93506,0.11725,1.40515,0.23969c-0.47961,0.08508-0.95972,0.05273-1.43591,0.00812
			C1315.69556,897.83264,1315.22229,897.74615,1314.77783,897.54736z"/>
	</g>
	<g>
		<path class="st9" d="M1315.19666,892.078c1.12305,0.48755,2.24988,0.78571,3.46643,0.92218
			C1317.45496,893.21442,1316.13904,892.86273,1315.19666,892.078z"/>
	</g>
	<g>
		<path class="st3" d="M1219.69116,993.47375c0.3573,4.1225,0.65198,8.23962,1.09229,12.34564
			c0.38208,4.11188,0.90967,8.20563,1.37427,12.31744c-0.87585-4.04633-1.43066-8.15308-1.87122-12.26776
			C1219.90405,1001.74866,1219.63562,997.61328,1219.69116,993.47375z"/>
	</g>
	<g>
		<path class="st3" d="M1228.98706,993.83539c-0.00647,3.9574-0.20642,7.90833-0.53467,11.85376
			c-0.38599,3.93689-0.90271,7.87885-1.89453,11.71442c0.58264-3.91327,1.06921-7.82526,1.39722-11.75958
			C1228.34106,1001.71588,1228.56799,997.7713,1228.98706,993.83539z"/>
	</g>
	<g>
		<path class="st3" d="M1224.23438,1024.6427c-0.04236,1.94043,0.01794,3.87903,0.09656,5.81689l0.18982,5.81921
			c0.14539,3.89368-0.25195,7.77588-0.40662,11.64319l-0.58044,11.62268l-0.53259,11.62817
			c-0.0271-3.88171,0.04053-7.76294,0.14819-11.64258c0.10449-3.88,0.28064-7.75757,0.46606-11.63477
			c0.19739-3.88269,0.58569-7.73914,0.52258-11.61218C1224.13208,1032.4093,1223.98523,1028.51953,1224.23438,1024.6427z"/>
	</g>
	<path class="st5" d="M1280.1051,969.08234c-0.19922,1.19641,0.05212,2.53693,0.94055,3.36273
		c0.71875,0.66809,1.75317,0.90863,2.7334,0.86334c0.98035-0.04523,1.92834-0.34595,2.86536-0.6377
		c2.26404-0.70496,4.63269-1.37903,6.97559-1.01288c0.22742,0.03552,0.47278,0.07819,0.67773-0.02649
		c0.2334-0.1192,0.33936-0.39038,0.41687-0.64069c0.505-1.63062,0.62695-3.37842,0.35327-5.06335
		c-0.02991-0.18402-0.07629-0.38647-0.22949-0.49268c-0.12878-0.08929-0.29834-0.08514-0.45483-0.07532
		c-2.15857,0.13495-4.30554,0.68347-6.45874,0.47968c-1.16345-0.11011-2.29761-0.43835-3.46069-0.55353
		c-0.9187-0.091-3.08105-0.18408-3.73523,0.62891C1280.45898,966.24976,1280.21704,968.41003,1280.1051,969.08234z"/>
	<path class="st5" d="M1297.29297,976.1131L1297.29297,976.1131c-1.50256,0-2.72058-1.21808-2.72058-2.72058v-8.23529
		c0-1.50256,1.21802-2.72058,2.72058-2.72058l0,0c1.50244,0,2.72058,1.21802,2.72058,2.72058v8.23529
		C1300.01355,974.89502,1298.79541,976.1131,1297.29297,976.1131z"/>
	<g>
		<path class="st9" d="M1291.75488,990.38336c-0.92554,0.83276-1.50024,1.97504-1.78027,3.15643
			c-0.29651,1.1839-0.33313,2.42163-0.1687,3.6283c0.31042,2.4281,1.21863,4.7478,1.72607,7.19836
			c0.47827,2.44623,0.6449,4.98303,0.23828,7.45905c-0.21021,1.2337-0.56189,2.44397-1.06311,3.58746
			c-0.25244,0.57141-0.5741,1.12384-1.00073,1.58685c-0.42017,0.45978-0.99536,0.82227-1.62366,0.84174
			c0.62573-0.06244,1.15405-0.45209,1.53149-0.92212c0.38281-0.47522,0.65796-1.02734,0.86719-1.60089
			c0.44604-1.1427,0.74878-2.33752,0.90857-3.55035c0.31885-2.42804,0.16028-4.90479-0.34753-7.30243
			c-0.45215-2.40393-1.37769-4.74561-1.61719-7.25562c-0.12207-1.24866-0.04163-2.52887,0.31494-3.73468
			C1290.10718,992.27844,1290.77637,991.15259,1291.75488,990.38336z"/>
	</g>
	<path class="st10" d="M1284.92297,1009.29205c1.19226-0.36115,2.41528-0.62109,3.65137-0.77612"/>
	<g>
		<path class="st9" d="M1291.74744,1017.40546c0.20874,1.40491,0.36389,2.8219,0.33704,4.25763
			c-0.02344,1.43188-0.28052,2.88342-0.84875,4.22729c-0.59705,1.34033-1.55542,2.47668-2.62207,3.42542
			c-1.07227,0.95398-2.24023,1.76404-3.4137,2.56433c1.04565-0.96362,2.15588-1.85242,3.1499-2.84424
			c0.99146-0.9873,1.901-2.06873,2.42859-3.34631c0.57593-1.25879,0.8197-2.64886,0.92358-4.04449
			C1291.80786,1020.24524,1291.75098,1018.82654,1291.74744,1017.40546z"/>
	</g>
	<g>
		<path class="st9" d="M1293.2489,1017.64563c-0.01636,1.90894,0.04883,3.82458-0.1449,5.73608
			c-0.18079,1.90942-0.57043,3.81689-1.27014,5.6261l-1.15784,2.6322c-0.40161,0.88086-0.97375,1.72205-1.67676,2.3855
			c-1.36389,1.36938-3.00122,2.39819-4.05212,4.01648c0.87549-1.73596,2.51501-2.90356,3.77405-4.28223
			c1.35742-1.32361,1.86523-3.20422,2.6488-4.93701c0.71741-1.74084,1.09412-3.60828,1.35364-5.48529
			c0.14502-0.93854,0.21155-1.88885,0.27271-2.83972L1293.2489,1017.64563z"/>
	</g>
	<g>
		<path class="st9" d="M1291.52698,1020.98157c-0.12964,0.63574-0.45374,1.19519-0.84558,1.68951
			c-0.40576,0.48285-0.88977,0.9118-1.48804,1.16406c0.3418-0.54926,0.7251-1.00696,1.10132-1.48041
			C1290.68481,1021.89276,1291.05762,1021.42615,1291.52698,1020.98157z"/>
	</g>
	<path class="st1" d="M1157.39417,1126.0802c-1.63623,29.98462,3.76404,59.41467,8.2196,88.82593
		c5.09033,23.55969-1.13184,24.24451,26.11133,19.35376c4.14148-23.20142,2.4165-46.64307,4.79761-70.00586
		c1.29297-12.00916,2.28113-26.79004-7.89417-35.29639C1179.58337,1122.07471,1167.54211,1120.58411,1157.39417,1126.0802z"/>
	<g>
		<path class="st3" d="M1175.33789,804.65436c5.62622,9.76031,11.25244,19.52063,16.87866,29.28094
			c-3.39563-1.18982-7.15515-1.0282-10.6344-0.11102c-3.47925,0.91711-6.72327,2.55334-9.87378,4.29132
			c-4.1405,2.28412-8.17261,4.76471-12.07825,7.43066c-6.05005,4.1297-12.07092,9.07172-14.5658,15.9588l-5.96387-13.99133"/>
		<path class="st8" d="M1175.33789,804.65436c2.92139,4.81775,5.81738,9.65009,8.68408,14.49933l8.5697,14.56525l0.59155,1.00549
			l-1.10999-0.38043c-2.2085-0.75684-4.5968-0.94678-6.93335-0.70184c-2.34338,0.23541-4.63367,0.89392-6.83215,1.78412
			c-2.2052,0.88208-4.31274,2.01117-6.41919,3.15375c-2.10291,1.15204-4.17834,2.35498-6.22363,3.60736
			c-4.07068,2.52863-8.12305,5.13922-11.77551,8.20825c-3.65503,3.0321-6.88525,6.73175-8.57471,11.20007l-0.24097,0.63721
			l-0.25439-0.62354l-2.87329-7.04187l-2.84558-7.05377l3.11829,6.9375l3.09045,6.94934l-0.49524,0.01373
			c1.63892-4.62518,4.88416-8.49207,8.53564-11.64948c3.68884-3.16479,7.7467-5.79913,11.82288-8.37555
			c2.04956-1.27423,4.13-2.49915,6.23901-3.67328c2.10547-1.17889,4.27148-2.28503,6.53882-3.185
			c2.26282-0.89862,4.64795-1.56989,7.09998-1.79956c2.4436-0.23907,4.96375-0.02692,7.30933,0.79517l-0.51831,0.62488
			l-8.30896-14.71558C1180.77295,814.52484,1178.04272,809.59692,1175.33789,804.65436z"/>
	</g>
	<g>
		<path class="st8" d="M1146.16443,843.65991c2.09644-1.81927,4.21643-3.61285,6.41492-5.31329
			c2.19336-1.70605,4.47058-3.30951,6.83069-4.78827c2.38-1.44324,4.84888-2.76007,7.44336-3.78467
			c2.5896-1.03064,5.29907-1.76917,8.05554-2.11719c-2.72583,0.53088-5.36987,1.39056-7.9093,2.4729
			c-2.53906,1.08801-4.9845,2.38788-7.32764,3.85419c-2.36499,1.43268-4.6261,3.03357-6.86206,4.66864
			C1150.57825,840.29413,1148.37646,841.98279,1146.16443,843.65991z"/>
	</g>
	<g>
		<polygon class="st11" points="466.28094,524.43335 487.85696,502.85699 482.76047,497.76071 466.28094,514.24036 
			455.27621,503.23553 450.17972,508.33182 		"/>
	</g>
	<polygon class="st11" points="908.66187,364.36343 930.28833,366.85373 914.17566,401.90869 951.78363,360.56241 
		929.37817,355.22513 937.6886,323.16534 	"/>
</g>
<g id="Calque_3">
	<rect x="179.72237" y="811.12079" class="st12" width="253.30321" height="85.67609"/>
	<path class="st3" d="M245.9456,844.06537v-7.71173h13.43391v35.40399h-8.63295v-27.69226H245.9456z M268.27856,840.42755
		c2.14975-3.20111,5.61755-4.80096,10.40283-4.80096c4.78461,0,8.25241,1.59985,10.4028,4.80096
		c2.14975,3.20105,3.22528,7.58228,3.22528,13.14294c0,5.62604-1.07553,10.03931-3.22528,13.24036
		c-2.15039,3.20105-5.61819,4.80096-10.4028,4.80096c-4.78528,0-8.25308-1.59991-10.40283-4.80096
		c-2.15103-3.20105-3.22525-7.61432-3.22525-13.24036C265.05331,848.00983,266.12753,843.6286,268.27856,840.42755z
		 M283.09464,846.02942c-0.71136-1.76202-2.18243-2.64337-4.41324-2.64337s-3.70255,0.88135-4.41324,2.64337
		c-0.71201,1.76263-1.06705,4.27594-1.06705,7.54108c0,2.1994,0.12881,4.01831,0.38773,5.45605
		c0.25827,1.43903,0.78394,2.60352,1.57635,3.492c0.79175,0.88983,1.96405,1.3338,3.5162,1.3338s2.72311-0.44397,3.5162-1.3338
		c0.79175-0.88849,1.31677-2.05298,1.57632-3.492c0.25827-1.43774,0.38773-3.25665,0.38773-5.45605
		C284.16165,850.30536,283.80533,847.79205,283.09464,846.02942z M299.8996,840.42755
		c2.14972-3.20111,5.61755-4.80096,10.40283-4.80096c4.78461,0,8.25241,1.59985,10.4028,4.80096
		c2.14975,3.20105,3.22528,7.58228,3.22528,13.14294c0,5.62604-1.07553,10.03931-3.22528,13.24036
		c-2.15039,3.20105-5.61819,4.80096-10.4028,4.80096c-4.78528,0-8.25311-1.59991-10.40283-4.80096
		c-2.15106-3.20105-3.22528-7.61432-3.22528-13.24036C296.67432,848.00983,297.74854,843.6286,299.8996,840.42755z
		 M314.71567,846.02942c-0.71136-1.76202-2.18243-2.64337-4.41324-2.64337c-2.23083,0-3.70255,0.88135-4.41324,2.64337
		c-0.71201,1.76263-1.06705,4.27594-1.06705,7.54108c0,2.1994,0.12881,4.01831,0.38773,5.45605
		c0.25824,1.43903,0.78391,2.60352,1.57632,3.492c0.79178,0.88983,1.96408,1.3338,3.51624,1.3338
		c1.55212,0,2.72311-0.44397,3.5162-1.3338c0.79175-0.88849,1.31677-2.05298,1.57632-3.492
		c0.25827-1.43774,0.38773-3.25665,0.38773-5.45605C315.78268,850.30536,315.42636,847.79205,314.71567,846.02942z
		 M329.87106,839.21533c1.50311-1.42267,3.45081-2.13403,5.84378-2.13403c2.3923,0,4.33215,0.71136,5.82022,2.13403
		c1.48679,1.42273,2.23083,3.44299,2.23083,6.06219c0,2.61914-0.74405,4.64008-2.23083,6.06213
		c-1.48807,1.42334-3.42792,2.13403-5.82022,2.13403c-2.39297,0-4.34067-0.71069-5.84378-2.13403
		c-1.50378-1.42206-2.255-3.44299-2.255-6.06213C327.61606,842.65833,328.36728,840.63806,329.87106,839.21533z
		 M333.33823,845.27753c0,2.19879,0.77606,3.29785,2.32822,3.29785c0.74338,0,1.32529-0.27466,1.7457-0.82446
		c0.42038-0.54926,0.63092-1.37366,0.63092-2.47339c0-2.23083-0.79306-3.34625-2.37662-3.34625
		C334.11429,841.93127,333.33823,843.04669,333.33823,845.27753z M360.54602,837.61481l-18.6716,34.14282h-8.00269
		l18.67224-34.14282H360.54602z M352.9317,858.03278c1.48676-1.42273,3.42664-2.13403,5.82025-2.13403
		c2.3923,0,4.33215,0.7113,5.81958,2.13403c1.48679,1.42267,2.2308,3.44299,2.2308,6.06213c0,2.6192-0.74402,4.64014-2.2308,6.06219
		c-1.48743,1.42334-3.42728,2.13403-5.81958,2.13403c-2.39362,0-4.3335-0.71069-5.82025-2.13403
		c-1.48743-1.42206-2.2308-3.44299-2.2308-6.06219C350.7009,861.47577,351.44427,859.45544,352.9317,858.03278z
		 M356.98141,861.57318c-0.40469,0.54987-0.60608,1.39001-0.60608,2.52173c0,2.19879,0.77606,3.29785,2.32758,3.29785
		c0.74338,0,1.32593-0.2746,1.74634-0.82446c0.41974-0.54919,0.63028-1.37366,0.63028-2.47339
		c0-1.09906-0.21054-1.93134-0.63028-2.49756c-0.42041-0.56555-1.00296-0.84863-1.74634-0.84863
		C357.95886,860.74872,357.38547,861.02332,356.98141,861.57318z"/>
	<g>
		<rect x="1488.44006" y="756.66882" class="st13" width="174.97307" height="59.18207"/>
		<rect x="1488.44006" y="756.66882" class="st14" width="174.97307" height="59.18207"/>
		<g>
			<path class="st3" d="M1540.95972,774.41956c1.62305-1.42578,3.82324-2.13916,6.60254-2.13916
				c1.84473,0,3.42383,0.31982,4.74023,0.95898c1.31445,0.63965,2.31055,1.51221,2.9873,2.61865
				c0.67578,1.10693,1.01465,2.34863,1.01465,3.72559c0,1.62305-0.40625,2.94482-1.21777,3.96533s-1.75781,1.71484-2.83984,2.08398
				v0.14746c1.40137,0.46729,2.50781,1.2417,3.31934,2.32373c0.81152,1.08252,1.21777,2.47119,1.21777,4.16797
				c0,1.5249-0.35059,2.87109-1.05176,4.03906c-0.7002,1.16797-1.72168,2.08398-3.06152,2.74805
				c-1.33984,0.66357-2.93164,0.99561-4.77637,0.99561c-2.95117,0-5.30566-0.7251-7.06348-2.17627
				c-1.75879-1.45068-2.68652-3.63867-2.78516-6.56543h6.12305c0.02441,1.08252,0.33203,1.93652,0.92285,2.56348
				c0.58984,0.62695,1.4502,0.94043,2.58105,0.94043c0.95898,0,1.70312-0.27637,2.23242-0.82959
				c0.52832-0.55322,0.79297-1.28467,0.79297-2.19482c0-1.18018-0.37598-2.03418-1.125-2.56348
				c-0.75098-0.52832-1.94922-0.79297-3.59668-0.79297h-1.18066v-5.12695h1.18066c1.25391,0,2.26855-0.21533,3.04297-0.64551
				s1.16211-1.19873,1.16211-2.30566c0-0.88525-0.24609-1.57324-0.73828-2.06543c-0.49219-0.4917-1.16797-0.73779-2.02832-0.73779
				c-0.93457,0-1.62891,0.2832-2.08398,0.84863c-0.45508,0.56592-0.71875,1.2666-0.79297,2.10254h-6.16016
				C1538.47632,777.87463,1539.33667,775.84631,1540.95972,774.41956z"/>
			<path class="st3" d="M1562.92456,776.00598c1.63574-2.43457,4.27246-3.65186,7.91211-3.65186
				c3.63867,0,6.27637,1.21729,7.91211,3.65186c1.63477,2.43408,2.45312,5.7666,2.45312,9.99561
				c0,4.27881-0.81836,7.63525-2.45312,10.06982c-1.63574,2.43457-4.27344,3.65137-7.91211,3.65137
				c-3.63965,0-6.27637-1.2168-7.91211-3.65137c-1.63477-2.43457-2.45215-5.79102-2.45215-10.06982
				C1560.47241,781.77258,1561.28979,778.44006,1562.92456,776.00598z M1574.19312,780.26624
				c-0.54102-1.34033-1.65918-2.01025-3.35645-2.01025c-1.69629,0-2.81543,0.66992-3.35645,2.01025
				s-0.81152,3.25195-0.81152,5.73535c0,1.67236,0.09766,3.05566,0.29492,4.14941c0.19727,1.09473,0.59668,1.97998,1.19922,2.65576
				c0.60254,0.67676,1.49414,1.01465,2.67383,1.01465c1.18066,0,2.07129-0.33789,2.6748-1.01465
				c0.60156-0.67578,1.00098-1.56104,1.19824-2.65576c0.19629-1.09375,0.29492-2.47705,0.29492-4.14941
				C1575.00464,783.51819,1574.73413,781.60657,1574.19312,780.26624z"/>
			<path class="st3" d="M1585.71948,775.08362c1.14355-1.08154,2.625-1.62305,4.44531-1.62305
				c1.81934,0,3.29492,0.5415,4.42578,1.62305c1.13086,1.08252,1.69629,2.61865,1.69629,4.61084
				c0,1.9917-0.56543,3.52881-1.69629,4.61035c-1.13086,1.08252-2.60645,1.62305-4.42578,1.62305
				c-1.82031,0-3.30176-0.54053-4.44531-1.62305c-1.14355-1.08154-1.71484-2.61865-1.71484-4.61035
				C1584.00464,777.70227,1584.57593,776.16614,1585.71948,775.08362z M1588.35718,779.69446
				c0,1.67236,0.58984,2.50781,1.77051,2.50781c0.56543,0,1.00781-0.2085,1.32812-0.62695
				c0.31836-0.41797,0.47949-1.04492,0.47949-1.88086c0-1.69678-0.60352-2.54541-1.80762-2.54541
				C1588.94702,777.14905,1588.35718,777.99768,1588.35718,779.69446z M1609.04956,773.86633l-14.20117,25.96729h-6.08594
				l14.20117-25.96729H1609.04956z M1603.25854,789.39514c1.13086-1.08203,2.60645-1.62305,4.42676-1.62305
				c1.81934,0,3.29492,0.54102,4.42578,1.62305c1.13086,1.08252,1.69629,2.61865,1.69629,4.61084
				c0,1.9917-0.56543,3.52881-1.69629,4.61035c-1.13086,1.08252-2.60645,1.62305-4.42578,1.62305
				c-1.82031,0-3.2959-0.54053-4.42676-1.62305c-1.13086-1.08154-1.69629-2.61865-1.69629-4.61035
				C1601.56226,792.01379,1602.12769,790.47766,1603.25854,789.39514z M1606.33862,792.08752
				c-0.30762,0.41846-0.46094,1.05762-0.46094,1.91846c0,1.67236,0.58984,2.50781,1.77051,2.50781
				c0.56543,0,1.00781-0.2085,1.32812-0.62695c0.31836-0.41797,0.47949-1.04492,0.47949-1.88086s-0.16113-1.46924-0.47949-1.8999
				c-0.32031-0.42969-0.7627-0.64551-1.32812-0.64551C1607.08179,791.46057,1606.64526,791.67004,1606.33862,792.08752z"/>
		</g>
	</g>
	<g>
		<rect x="1488.44006" y="847.86871" class="st15" width="174.97307" height="59.18207"/>
		<g>
			<path class="st3" d="M1536.84741,886.20172v-5.09033l11.65527-16.67236h7.04492v16.30371h3.02539v5.45898h-3.02539v4.79492
				h-6.30664v-4.79492H1536.84741z M1549.68335,871.3736l-6.19727,9.36914h6.19727V871.3736z"/>
			<path class="st3" d="M1564.1228,867.16901c1.63574-2.43457,4.27246-3.65186,7.91211-3.65186
				c3.63867,0,6.27637,1.21729,7.91211,3.65186c1.63477,2.43408,2.45312,5.7666,2.45312,9.99561
				c0,4.27881-0.81836,7.63525-2.45312,10.06982c-1.63574,2.43457-4.27344,3.65137-7.91211,3.65137
				c-3.63965,0-6.27637-1.2168-7.91211-3.65137c-1.63477-2.43457-2.45215-5.79102-2.45215-10.06982
				C1561.67065,872.93561,1562.48804,869.60309,1564.1228,867.16901z M1575.39136,871.42926
				c-0.54102-1.34033-1.65918-2.01025-3.35645-2.01025c-1.69629,0-2.81543,0.66992-3.35645,2.01025
				s-0.81152,3.25195-0.81152,5.73535c0,1.67236,0.09766,3.05566,0.29492,4.14941c0.19727,1.09473,0.59668,1.97998,1.19922,2.65576
				c0.60254,0.67676,1.49414,1.01465,2.67383,1.01465c1.18066,0,2.07129-0.33789,2.6748-1.01465
				c0.60156-0.67578,1.00098-1.56104,1.19824-2.65576c0.19629-1.09375,0.29492-2.47705,0.29492-4.14941
				C1576.20288,874.68121,1575.93237,872.76959,1575.39136,871.42926z"/>
			<path class="st3" d="M1586.91772,866.24664c1.14355-1.08154,2.625-1.62305,4.44531-1.62305
				c1.81934,0,3.29492,0.5415,4.42578,1.62305c1.13086,1.08252,1.69629,2.61865,1.69629,4.61084
				c0,1.9917-0.56543,3.52881-1.69629,4.61035c-1.13086,1.08252-2.60645,1.62305-4.42578,1.62305
				c-1.82031,0-3.30176-0.54053-4.44531-1.62305c-1.14355-1.08154-1.71484-2.61865-1.71484-4.61035
				C1585.20288,868.8653,1585.77417,867.32916,1586.91772,866.24664z M1589.55542,870.85748
				c0,1.67236,0.58984,2.50781,1.77051,2.50781c0.56543,0,1.00781-0.2085,1.32812-0.62695
				c0.31836-0.41797,0.47949-1.04492,0.47949-1.88086c0-1.69678-0.60352-2.54541-1.80762-2.54541
				C1590.14526,868.31207,1589.55542,869.16071,1589.55542,870.85748z M1610.2478,865.02936l-14.20117,25.96729h-6.08594
				l14.20117-25.96729H1610.2478z M1604.45679,880.55817c1.13086-1.08203,2.60645-1.62305,4.42676-1.62305
				c1.81934,0,3.29492,0.54102,4.42578,1.62305c1.13086,1.08252,1.69629,2.61865,1.69629,4.61084
				c0,1.9917-0.56543,3.52881-1.69629,4.61035c-1.13086,1.08252-2.60645,1.62305-4.42578,1.62305
				c-1.82031,0-3.2959-0.54053-4.42676-1.62305c-1.13086-1.08154-1.69629-2.61865-1.69629-4.61035
				C1602.7605,883.17682,1603.32593,881.64069,1604.45679,880.55817z M1607.53687,883.25055
				c-0.30762,0.41846-0.46094,1.05762-0.46094,1.91846c0,1.67236,0.58984,2.50781,1.77051,2.50781
				c0.56543,0,1.00781-0.2085,1.32812-0.62695c0.31836-0.41797,0.47949-1.04492,0.47949-1.88086s-0.16113-1.46924-0.47949-1.8999
				c-0.32031-0.42969-0.7627-0.64551-1.32812-0.64551C1608.28003,882.6236,1607.84351,882.83307,1607.53687,883.25055z"/>
		</g>
	</g>
	<g>
		<rect x="1488.44006" y="665.46893" class="st15" width="174.97307" height="59.18207"/>
		<g>
			<path class="st3" d="M1540.95972,683.21967c1.62305-1.42578,3.82324-2.13916,6.60254-2.13916
				c1.84473,0,3.42383,0.31982,4.74023,0.95898c1.31445,0.63965,2.31055,1.51221,2.9873,2.61865
				c0.67578,1.10693,1.01465,2.34863,1.01465,3.72559c0,1.62305-0.40625,2.94482-1.21777,3.96533s-1.75781,1.71484-2.83984,2.08398
				v0.14746c1.40137,0.46729,2.50781,1.2417,3.31934,2.32373c0.81152,1.08252,1.21777,2.47119,1.21777,4.16797
				c0,1.5249-0.35059,2.87109-1.05176,4.03906c-0.7002,1.16797-1.72168,2.08398-3.06152,2.74805
				c-1.33984,0.66357-2.93164,0.99561-4.77637,0.99561c-2.95117,0-5.30566-0.7251-7.06348-2.17627
				c-1.75879-1.45068-2.68652-3.63867-2.78516-6.56543h6.12305c0.02441,1.08252,0.33203,1.93652,0.92285,2.56348
				c0.58984,0.62695,1.4502,0.94043,2.58105,0.94043c0.95898,0,1.70312-0.27637,2.23242-0.82959
				c0.52832-0.55322,0.79297-1.28467,0.79297-2.19482c0-1.18018-0.37598-2.03418-1.125-2.56348
				c-0.75098-0.52832-1.94922-0.79297-3.59668-0.79297h-1.18066v-5.12695h1.18066c1.25391,0,2.26855-0.21533,3.04297-0.64551
				s1.16211-1.19873,1.16211-2.30566c0-0.88525-0.24609-1.57324-0.73828-2.06543c-0.49219-0.4917-1.16797-0.73779-2.02832-0.73779
				c-0.93457,0-1.62891,0.2832-2.08398,0.84863c-0.45508,0.56592-0.71875,1.2666-0.79297,2.10254h-6.16016
				C1538.47632,686.67474,1539.33667,684.64642,1540.95972,683.21967z"/>
			<path class="st3" d="M1562.92456,684.80609c1.63574-2.43457,4.27246-3.65186,7.91211-3.65186
				c3.63867,0,6.27637,1.21729,7.91211,3.65186c1.63477,2.43408,2.45312,5.7666,2.45312,9.99561
				c0,4.27881-0.81836,7.63525-2.45312,10.06982c-1.63574,2.43457-4.27344,3.65137-7.91211,3.65137
				c-3.63965,0-6.27637-1.2168-7.91211-3.65137c-1.63477-2.43457-2.45215-5.79102-2.45215-10.06982
				C1560.47241,690.57269,1561.28979,687.24017,1562.92456,684.80609z M1574.19312,689.06635
				c-0.54102-1.34033-1.65918-2.01025-3.35645-2.01025c-1.69629,0-2.81543,0.66992-3.35645,2.01025
				s-0.81152,3.25195-0.81152,5.73535c0,1.67236,0.09766,3.05566,0.29492,4.14941c0.19727,1.09473,0.59668,1.97998,1.19922,2.65576
				c0.60254,0.67676,1.49414,1.01465,2.67383,1.01465c1.18066,0,2.07129-0.33789,2.6748-1.01465
				c0.60156-0.67578,1.00098-1.56104,1.19824-2.65576c0.19629-1.09375,0.29492-2.47705,0.29492-4.14941
				C1575.00464,692.3183,1574.73413,690.40668,1574.19312,689.06635z"/>
			<path class="st3" d="M1585.71948,683.88373c1.14355-1.08154,2.625-1.62305,4.44531-1.62305
				c1.81934,0,3.29492,0.5415,4.42578,1.62305c1.13086,1.08252,1.69629,2.61865,1.69629,4.61084
				c0,1.9917-0.56543,3.52881-1.69629,4.61035c-1.13086,1.08252-2.60645,1.62305-4.42578,1.62305
				c-1.82031,0-3.30176-0.54053-4.44531-1.62305c-1.14355-1.08154-1.71484-2.61865-1.71484-4.61035
				C1584.00464,686.50238,1584.57593,684.96625,1585.71948,683.88373z M1588.35718,688.49457
				c0,1.67236,0.58984,2.50781,1.77051,2.50781c0.56543,0,1.00781-0.2085,1.32812-0.62695
				c0.31836-0.41797,0.47949-1.04492,0.47949-1.88086c0-1.69678-0.60352-2.54541-1.80762-2.54541
				C1588.94702,685.94916,1588.35718,686.79779,1588.35718,688.49457z M1609.04956,682.66644l-14.20117,25.96729h-6.08594
				l14.20117-25.96729H1609.04956z M1603.25854,698.19525c1.13086-1.08203,2.60645-1.62305,4.42676-1.62305
				c1.81934,0,3.29492,0.54102,4.42578,1.62305c1.13086,1.08252,1.69629,2.61865,1.69629,4.61084
				c0,1.9917-0.56543,3.52881-1.69629,4.61035c-1.13086,1.08252-2.60645,1.62305-4.42578,1.62305
				c-1.82031,0-3.2959-0.54053-4.42676-1.62305c-1.13086-1.08154-1.69629-2.61865-1.69629-4.61035
				C1601.56226,700.8139,1602.12769,699.27777,1603.25854,698.19525z M1606.33862,700.88763
				c-0.30762,0.41846-0.46094,1.05762-0.46094,1.91846c0,1.67236,0.58984,2.50781,1.77051,2.50781
				c0.56543,0,1.00781-0.2085,1.32812-0.62695c0.31836-0.41797,0.47949-1.04492,0.47949-1.88086s-0.16113-1.46924-0.47949-1.8999
				c-0.32031-0.42969-0.7627-0.64551-1.32812-0.64551C1607.08179,700.26068,1606.64526,700.47015,1606.33862,700.88763z"/>
		</g>
	</g>
</g>
<g id="Calque_2">
	<g>
		<defs>
			<path id="SVGID_2_" d="M578.24487,1314.39429c742.42761,409.2865,1962.28247-788.39471,922.73169-927.51904
				C1196.26257,330.5538,1227.73035-10.3918,904.4386,80.77237C687.63403,141.90849,670.9837,572.22284,341.42673,513.935
				C-166.13339,525.41815-47.31281,1004.80914,578.24487,1314.39429z"/>
		</defs>
		<clipPath id="SVGID_3_">
			<use xlink:href="#SVGID_2_"  style="overflow:visible;"/>
		</clipPath>
		<path class="st16" d="M478.52957,1025.7793c-20.13843-15.52844-43.98428-26.56458-61.70883-45.06854
			c-17.64615-32.45593-34.71765-27.77051-66.34207-28.62067c-15.6077-1.21399-11.77509,1.37622-25.65341-8.26086
			c-5.18597-1.56171-9.52972-4.81598-14.44629-6.79614c-3.25677-0.87775-9.68292-1.39508-11.23337,1.93573
			c0.07458,2.67297,2.72919,3.94189,3.85352,6.22821c-12.40607,0.1452-25.28085-14.4267-36.30383-4.22412
			c-8.38861,0.06879-19.48306-5.23035-25.89043,2.59113c-3.36288,0.17059-12.81578,3.18274-10.78456,7.71497
			c5.60611,6.12891,13.46623,8.28809,19.89,13.11206c6.54945,5.38324,15.27565,6.47815,22.16634,11.29694
			c10.45343,4.97937,22.79593,3.78418,33.91858,6.98102c7.88287,1.40674,15.87936,5.42725,24.0498,3.92322
			c7.3721,2.6532,14.65857,6.2804,22.74918,6.77295c29.75223,3.7713,31.21902,8.72736,53.69821,27.20697
			c26.21143,23.31665,47.23746,53.69446,69.17126,81.13892c26.09546,30.62622,51.87979,55.20947,84.62936,82.7395
			c10.26691,8.63062,28.94391,29.96667,42.58124,27.5083c26.09869-13.59314,52.34906-26.84509,77.28607-42.55054
			c10.15167-7.03333-9.69177-28.21069-15.28223-34.62976c-13.60339-14.94666-15.52191-37.38367-26.64288-54.25781
			c-4.34735-5.34265-11.63733-5.89331-17.23901-1.58521c-11.64478,7.11267-23.28949,14.22595-34.9342,21.33923
			C581.62042,1104.24292,506.3959,1045.68713,478.52957,1025.7793z"/>
		<path class="st16" d="M1432.13171,1009.32184c17.9873-8.43433,35.95483-17.1568,53.12683-27.10498
			c18.71045-11.52344,30.78931-20.84753,53.58972-13.42249c21.75708,4.79968,44.95703-19.05359,63.59814-4.57526
			c10.88391-6.37903,28.26843-10.28821,10.91321,5.73761c5.02429-0.17383,32.65759-12.49133,27.22107-0.29169
			c5.54407-3.4491,21.73645-2.32281,14.26697,7.13977c-11.92236,11.96857-54.96179,27.6687-72.47534,30.97565
			c-17.84705,3.01501-35.55042,3.89252-53.50195,6.09808c-18.5509,2.11963-36.34167-3.24762-50.5271,12.29492
			c-31.33325,23.05029-59.8479,49.10962-90.4364,73.00879c-34.47815,25.57581-68.97278,51.09119-104.40234,75.46521
			c-12.87415,4.07263-35.87903,28.69922-46.95667,24.87964c-19.58911-8.86658-37.80164-20.25671-56.77136-30.41162
			c-8.75806-5.24805-20.83862-9.24292-25.91187-18.39441c6.15442-32.67517,28.86987-61.49927,55.92615-80.23157
			c10.86035,10.68799,23.45093,20.85718,37.83997,26.14014c16.48804-3.953,31.70239-13.51147,47.48901-19.88464
			c17.56189-11.84412,37.69861-19.11792,56.69043-28.30029C1378.02319,1034.49011,1404.96997,1021.72095,1432.13171,1009.32184z"/>
		<path class="st17" d="M720.22858,962.14099c-16.19189,14.41656-59.81531,69.64563-71.16803,77.37134
			c-8.18878,9.16016-16.90784,17.88184-26.36798,25.75024c-4.26514,2.15393,3.65173,15.1814,4.72815,19.17517
			c11.16266,36.56885,35.26135,66.3645,56.85699,97.25305c22.44202-8.77283,41.95721-24.74768,61.36273-38.91504
			c-4.25317,19.16711,1.42413,39.11707-0.91162,58.4624c-5.59961,39.03479-3.16516,79.19214-5.23755,118.54846
			c-2.37854,29.7616-3.54694,59.62-3.49951,89.47644c39.92651-5.46204,109.76245,3.50146,152.74725,0.58472
			c68.93402-1.95654,140.34302-1.86951,207.7804-12.60254c-1.53564-55.31873-4.36804-111.23145-0.89124-166.70496
			c0.70667-13.9303,0.02332-27.98328-1.11597-41.85217c-0.31995-21.23608,1.77881-42.74329,2.22925-64.05627
			c14.44849,16.34888,28.14954,33.66626,45.02612,47.58167c18.86401-11.26282,34.68433-27.91467,45.35278-47.10791
			c10.0061-12.99988,20.25061-26.34387,23.75195-42.82629c0.64136-7.34814,11.02869-18.63318,4.30969-24.14587
			c-7.60693-9.67139-17.46729-17.37744-24.57837-27.46008c-4.61951-8.26953-11.86682-14.53387-17.72498-21.93744
			c-12.60669-14.81305-28.55469-26.6731-41.0166-41.8205c-10.58618-11.68915-19.15491-26.42194-35.4491-30.63989
			c-20.86157-5.60706-43.03381-5.62744-64.50317-5.4281c-33.3183-1.58411-66.71338-1.3515-100.06952-0.95605
			c-46.20538,1.1485-92.59259-0.59131-138.69336,2.76685c-17.25507,2.30603-35.06042,5.06671-51.25922,11.3996
			C734.23254,949.53735,726.98865,955.58978,720.22858,962.14099z"/>
		<path class="st18" d="M648.36591,1060.54944c5.19019,20.32837,14.81049,39.20837,24.47626,57.82983
			c5.46454,10.52759,11.10828,21.22693,19.60541,29.50269"/>
		<path class="st18" d="M747.45026,1080.01282c-3.15784,15.7959-2.85944,32.05176-2.5484,48.1571
			c0.11023,5.7063,0.22046,11.41248,0.33063,17.11865"/>
		<g class="st19">
			<path class="st8" d="M1096.58594,1076.53418c0.53479,4.15662,0.95935,8.32288,1.31226,12.49817
				c0.35522,4.17505,0.56567,8.36279,0.71472,12.55469c0.06799,4.19348,0.06824,8.39355-0.18286,12.58374l-0.22974,3.13916
				l-0.29956,3.1322c-0.26648,2.08154-0.5426,4.15967-0.92542,6.22058c0.07288-1.04602,0.15442-2.08948,0.2478-3.13074
				l0.18921-3.13123l0.15759-3.12988l0.09143-3.13147c0.09119-4.17505,0.09888-8.35156-0.047-12.52673
				c-0.06506-4.17737-0.28979-8.35181-0.48022-12.53052C1096.94141,1084.90344,1096.70959,1080.72339,1096.58594,1076.53418z"/>
		</g>
		<path class="st18" d="M1192.71265,1048.77209c-8.93994,23.71167-21.11951,46.19946-36.09399,66.6427
			c-5.50098,7.51001-11.51099,14.86902-19.28943,19.9834"/>
		<g class="st19">
			<path class="st9" d="M1523.39844,1001.91174c3.7522-0.75598,7.32361-2.16956,10.69348-3.93146
				c3.38867-1.73541,6.61243-3.77484,9.82727-5.83392c3.20801-2.07068,6.45312-4.11194,9.84741-5.92114
				c3.39172-1.80151,6.97522-3.33289,10.76123-4.20728c3.79468-0.84033,7.65112-1.00824,11.44446-1.30402
				c3.79749-0.27966,7.56152-0.77942,11.14075-2.01221c3.57935-1.20947,6.95959-3.02167,9.98279-5.31342
				c1.51843-1.13654,2.95496-2.39337,4.27356-3.76288c0.32361-0.33582,0.60034-0.71613,0.76892-1.14362
				c0.17029-0.42822,0.19116-0.90192,0.14795-1.36951c-0.09998-0.9386-0.33862-1.87915-0.39502-2.8335
				c0.10718,0.95294,0.39185,1.86218,0.54504,2.81653c0.06616,0.47656,0.06421,0.98535-0.10168,1.45728
				c-0.16382,0.47015-0.4458,0.88794-0.76953,1.25153c-1.27637,1.43439-2.67419,2.75824-4.16772,3.9707
				c-3.00366,2.40234-6.40051,4.32678-10.02979,5.65277c-3.62598,1.37988-7.51733,1.86743-11.32043,2.19336
				c-3.81311,0.3252-7.62463,0.52985-11.29871,1.37115c-3.67786,0.81854-7.1969,2.28485-10.55945,4.03729
				c-3.37244,1.74689-6.5907,3.79614-9.8645,5.7666c-3.26648,1.98126-6.55481,3.96216-10.01636,5.62109
				C1530.84204,1000.04431,1527.19312,1001.37799,1523.39844,1001.91174z"/>
		</g>
		<path class="st20" d="M1572.92896,968.00336c1.2229,2.9718,2.2262,6.04529,2.99756,9.18292"/>
		<g class="st19">
			<path class="st9" d="M1592.75146,976.28412c4.12866-0.14856,7.96863-1.49109,11.75427-2.99005
				c1.89856-0.74243,3.8009-1.52008,5.72778-2.2229c1.92065-0.72034,3.86621-1.38049,5.83606-1.98157
				c-3.64709,1.92194-7.38477,3.58429-11.19836,5.13464c-1.92151,0.74194-3.88867,1.42352-5.93176,1.82861
				C1596.90808,976.48572,1594.78845,976.59503,1592.75146,976.28412z"/>
		</g>
		<g class="st19">
			<path class="st9" d="M1545.97534,991.86475c3.84253-1.57117,7.87354-2.66058,11.94495-3.49097
				c4.08081-0.80151,8.21167-1.3114,12.34229-1.72766c8.26074-0.82153,16.56042-1.16364,24.6875-2.62927
				c2.01599-0.38641,4.09668-0.6864,5.99512-1.31665c0.49426-0.16217,0.89331-0.34204,1.42603-0.57111
				c0.55383-0.21014,1.10059-0.28479,1.61353-0.36292c0.98596-0.13666,2.01331-0.41321,3.01807-0.61292
				c4.05603-0.80475,8.04431-1.90747,12.01636-3.05493c7.92651-2.3645,15.66089-5.38226,23.1521-8.94098
				c-3.64905,1.97308-7.41187,3.73553-11.23083,5.36841c-3.83264,1.60077-7.73633,3.03595-11.69446,4.30762
				c-3.95825,1.27032-7.9801,2.35303-12.05017,3.20929c-1.02661,0.21149-2.00366,0.48724-3.07104,0.64581
				c-0.50928,0.07935-0.99707,0.15771-1.41321,0.32141c-0.41699,0.18469-0.96423,0.43213-1.45569,0.59406
				c-2.04089,0.68799-4.08423,0.99109-6.13293,1.39667c-8.22693,1.39697-16.54248,1.75177-24.79211,2.40814
				C1562.09131,988.0589,1553.823,989.11499,1545.97534,991.86475z"/>
		</g>
		<path class="st21" d="M575.26965,1123.09143c0.19806-2.85303,0.73358-5.6626,1.06287-8.48669
			c0.07812-0.66968,0.38293-1.30359,0.64465-1.92529c0.57721-1.37109,1.25183-2.70117,2.01556-3.97778
			c1.5448-2.58228,3.45514-4.94666,5.66406-6.9906"/>
		<path class="st22" d="M324.70822,963.58948c-0.81741,2.65625-1.63483,5.31244-2.45224,7.96863"/>
		<g class="st19">
			<path class="st9" d="M369.3353,994.77118l-11.22586-2.54248c-1.87411-0.36829-3.77118-0.94299-5.43033-1.96252l-2.37473-1.66907
				c-0.75778-0.58752-1.5094-1.17316-2.29605-1.70648c-1.56232-1.06647-3.27432-1.95038-5.12308-2.23181
				c-0.89401-0.1402-1.83014,0.02313-2.80579,0.09253c-0.99597,0.05792-1.95322-0.00549-2.92398-0.09631
				c-3.8631-0.42615-7.59528-1.50598-11.21729-2.82629c-3.61267-1.35962-7.13748-2.86804-10.60168-4.58557
				c-3.44266-1.74127-6.76035-3.89246-9.39432-6.82391c-1.29935-1.47241-2.3504-3.27649-2.70367-5.27191
				c-0.36923-1.97827-0.17566-4.0188,0.42343-5.91302c0.612-1.88727,1.64188-3.6731,3.12512-5.04694
				c1.46753-1.37079,3.32114-2.31458,5.26886-2.74878c1.94977-0.43817,3.98154-0.40027,5.91302-0.03564
				c1.93851,0.35712,3.78836,1.01068,5.57779,1.74359c1.79663,0.71765,3.51672,1.62463,5.27344,2.22479
				c1.77676,0.60681,3.63858,0.96436,5.52301,1.22443c3.75522,0.51526,7.69611,0.69977,11.37772,2.13263
				c0.90823,0.32697,1.82492,0.81183,2.63998,1.21191c0.40247,0.18701,0.82736,0.33014,1.16882,0.30286
				c0.36209-0.02728,0.47473-0.2002,0.85513-0.63342c1.23627-1.53503,2.83713-2.7865,4.61292-3.63916
				c3.5896-1.73126,7.62012-1.85071,11.43851-1.68341c1.92569,0.09119,3.83823,0.26697,5.74829,0.40363
				c1.90063,0.14319,3.83539,0.19482,5.74973,0.46783c3.82455,0.5285,7.56125,1.64514,11.0401,3.29156
				c3.4841,1.6427,6.66467,3.88684,9.43652,6.53644c-2.82816-2.59052-6.0448-4.75677-9.53943-6.31445
				c-3.48965-1.5614-7.21225-2.58661-10.99994-3.0282c-1.89102-0.23761-3.7984-0.27209-5.72421-0.3916
				c-1.91803-0.11426-3.82901-0.26672-5.73706-0.33417c-3.78662-0.12451-7.70502,0.06232-11.07181,1.742
				c-1.66922,0.82721-3.1546,2.01514-4.30801,3.48383c-0.15741,0.16803-0.27606,0.34906-0.54037,0.58777
				c-0.24908,0.21173-0.58298,0.33423-0.89102,0.35608c-0.62451,0.03931-1.13232-0.16901-1.59576-0.37292
				c-0.90753-0.44116-1.69098-0.85522-2.59027-1.17865c-3.52188-1.35962-7.37195-1.53473-11.19293-2.03876
				c-1.91376-0.25659-3.83972-0.61591-5.69867-1.24249c-1.8775-0.63757-3.56677-1.52734-5.33615-2.22388
				c-3.48294-1.43555-7.27341-2.46252-10.90921-1.61835c-1.79681,0.3941-3.48236,1.24725-4.82623,2.49133
				c-1.34354,1.2323-2.30502,2.87152-2.8804,4.62323c-0.56345,1.75562-0.74548,3.64722-0.41605,5.44727
				c0.3121,1.80511,1.25183,3.44897,2.47357,4.84772c2.49899,2.8045,5.72256,4.92932,9.10156,6.65179
				c1.6922,0.8714,3.44019,1.64746,5.18872,2.42841c1.74857,0.77802,3.50696,1.52832,5.28989,2.20923
				c3.55945,1.34729,7.24817,2.4577,11.01465,2.91772c0.93588,0.10016,1.89999,0.172,2.82019,0.12817
				c0.93192-0.05139,1.91846-0.21979,2.93185-0.05249c1.96155,0.32581,3.7388,1.27026,5.31183,2.38605
				c0.78998,0.56018,1.54001,1.17084,2.28513,1.77405l2.29797,1.68933c1.60394,1.03027,3.42206,1.62646,5.29715,2.0376
				L369.3353,994.77118z"/>
		</g>
		<path class="st22" d="M265.64966,941.56927c11.93634,3.38672,26.34415,13.28308,38.40735,15.89813"/>
		<path class="st22" d="M240.6981,943.96198c4.58,0.37817,9.09059,1.98694,13.12715,4.68201
			c1.65961,1.10803,3.23993,2.39667,4.93771,3.4129c1.63791,0.98047,3.36938,1.69794,5.09537,2.41266
			c3.48779,1.44434,6.97559,2.88867,10.46338,4.33301c3.12488,1.29401,6.26361,2.59247,9.50879,3.30579
			c2.27084,0.49915,4.57617,0.7077,6.87665,0.91553c3.69995,0.33423,9.10617,0.66846,12.80615,1.00269"/>
		<path class="st22" d="M303.18085,945.21179c2.14035,0.62115,4.28073,1.24237,6.42111,1.86353
			c6.46927,1.87744,14.84955,6.29218,21.0282,9.31116"/>
		<path class="st16" d="M1040.30371,738.76495c-0.44617,2.55975-0.66199,5.15961-0.64392,7.75781
			c0.00305,0.44037,0.01648,0.89667,0.20886,1.29272c0.6488,1.33582,2.71545,1.11816,3.78674,2.14661
			c0.75122,0.72107,0.83752,1.87616,0.84058,2.91742c0.00745,2.61823-0.21387,5.23645-0.65466,7.8172
			c-0.28577,1.67322-0.81079,3.29779-1.08533,4.96777c-0.10901,0.66357-0.11938,1.29346-0.39319,1.92017
			c-0.82751,1.89508-1.88269,3.57483-2.48792,5.58362c-1.21313,4.02655-1.44006,8.29547-1.26013,12.47516
			c0.0271,0.62866,0.06409,1.25684,0.10925,1.88446c0.18005,2.50128,0.46936,5.01459,0.21411,7.50946
			c-0.26855,2.62347-1.30579,6.54944-4.3064,7.33496c-0.88672,0.23212-1.82837,0.3504-2.73401,0.48267
			c-0.59229,0.08649-1.17126,0.125-1.75171-0.06232c-0.5199-0.16772-1.02173-0.90027-1.50281-0.94843
			c-0.36975-0.03699-0.55078,0.43298-0.60962,0.79993c-0.81372,5.06635-1.91565,10.08759-3.30383,15.02765
			c-0.25684,0.91443-0.53784,1.64465-1.04974,2.43103c-0.96625,1.48438-1.34735,3.31854-2.01434,4.95251
			c-1.49921,3.67291-3.45374,7.16028-5.80975,10.35223c-1.63898,2.22052-3.46625,4.29443-5.29089,6.36505
			c-5.33502,6.05432-10.71576,12.14734-17.0174,17.22723c-1.53009,1.2334-3.112,2.40338-4.75098,3.4884
			c-0.79987,0.52954-1.67474,0.97693-2.45331,1.53314c-0.14758,0.10547-0.32159,0.18268-0.42279,0.34302
			c-0.26062,0.41302-0.05884,0.99023-0.13898,1.45349c-0.2746,1.58838-0.78619,3.13324-1.03772,4.73517
			c-0.25208,1.60541-0.40601,3.22614-0.4632,4.85022c-0.22864,6.49634,1.08936,13.05298,3.87836,18.92883
			c0.43219,0.91052,0.8996,1.80432,1.40155,2.67828c-22.80804,5.83447-45.7738,11.73688-69.14526,14.56909
			c-19.71417,2.38898-40.49811,2.98364-58.57892-5.22852c-4.55103-2.06702-9.31189-4.74133-14.22797-3.83807
			c-0.86377-0.10706-1.06439-0.60077-1.77698-1.10046c0.18866,0.13226,2.76135-4.29309,2.97009-4.74396
			c0.52295-1.12946,0.96075-2.2981,1.31659-3.49066c0.18665-0.62549,0.27655-1.31769,0.52869-1.92163
			c0.14313-0.34277,0.32745-0.61523,0.41931-0.98328c0.28021-1.12317,0.37946-2.32593,0.48547-3.47595
			c0.21564-2.3385,0.24231-4.68896,0.26855-7.03564c0.02234-1.99213,0.04309-3.98486-0.00378-5.97687
			c-0.04651-1.97894-0.00568-4.13776-0.41888-6.08081c-0.17767-0.83545-0.52606-1.66724-0.79541-2.47766
			c-0.57092-1.71783-1.16907-3.42664-1.79419-5.12549c-1.25024-3.39771-2.60822-6.7558-4.07123-10.0675
			c-0.74615-1.68896-1.51959-3.36584-2.32007-5.02972c-3.04633-6.33264-6.63489-12.65863-12.19458-16.95648
			c-5.57202-4.30737-4.9024-12.9939-6.32617-19.8913c-0.61835-2.99567-1.2348-6.11926-0.4632-9.07916
			c1.1261-4.3194,4.92944-7.34705,8.64392-9.82245c25.13373-16.74933,57.09003-22.90948,86.64886-16.703
			C955.88776,751.16217,997.43134,739.45923,1040.30371,738.76495z"/>
		<path class="st16" d="M808.47681,762.95831c-3.81726,1.55933-8.13715,3.69232-8.99493,7.72552
			c-0.31934,1.50146-0.08649,3.05878,0.14716,4.57593c0.83032,5.39117,1.66064,10.78235,2.49103,16.17352
			c0.25885,1.68091,0.67621,3.38226,0.57568,5.09393c-0.09662,1.64551,0.41376,2.84363,1.1037,4.33514
			c1.73029,3.74048,3.71881,7.36145,5.94678,10.82861c0.75745,1.17883,1.54266,2.3399,2.35474,3.48181
			c2.19281,3.08337,4.69574,6.12152,8.09497,7.78302c2.12378,1.03802,4.57758-0.56567,5.25623-2.82996
			c0.29901-0.99756,0.17621-2.06653,0.05072-3.10034c-0.57355-4.72522-1.15729-9.49506-2.74567-13.98212
			c-1.49945-4.2359-3.86688-8.13696-5.19684-12.42914c-1.48578-4.7948-1.62164-9.88922-2.46478-14.83765
			S812.33569,766.1687,808.47681,762.95831z"/>
		<g class="st19">
			<path class="st9" d="M998.99261,827.69653c-1.62317,2.95471-3.17328,5.93488-4.57324,8.98218
				c-1.38922,3.05133-2.68347,6.14221-3.80963,9.29578c-1.14832,3.14551-2.12891,6.34973-3.01013,9.58447l-0.62909,2.43591
				l-0.56494,2.45355l-0.53961,2.46338c-0.15289,0.82635-0.31805,1.65186-0.49213,2.47766
				c0.11322-1.68311,0.32916-3.35583,0.54987-5.03101l0.42932-2.4964l0.49921-2.48517
				c0.71198-3.30597,1.67841-6.55615,2.81763-9.742c1.16144-3.1778,2.49524-6.29523,4.06152-9.29236
				C995.28674,833.34131,997.01947,830.4328,998.99261,827.69653z"/>
		</g>
		<path class="st23" d="M1032.86902,757.74634c1.29553-1.50812,2.30603-3.23755,3.51501-4.81586
			c1.20911-1.57831,2.68005-3.04578,4.54163-3.74396c-0.07056,0.02643-0.42908-0.43365-0.47498-0.49121
			c-0.15344-0.1925-0.27209-0.40002-0.3949-0.61206c-0.23877-0.41229-0.52783-0.71436-0.92285-0.30225
			c-0.67065,0.69983-1.30457,1.44446-1.9259,2.18793c-1.23169,1.47369-2.37781,3.03815-3.2323,4.7641
			C1033.4989,755.69385,1033.11755,756.70258,1032.86902,757.74634z"/>
		<g class="st19">
			<path class="st9" d="M1247.25317,1095.90222c0.11572,2.1051-0.0144,4.21985-0.2937,6.31519
				c-0.26819,2.09875-0.74634,4.16833-1.3512,6.19714c-0.62744,2.02197-1.38428,4.00671-2.33069,5.89893
				c-0.47925,0.94312-0.97937,1.87305-1.50903,2.78516c-0.56848,0.89111-1.13013,1.78198-1.7688,2.62109
				c0.21985-0.47986,0.44617-0.95374,0.68262-1.42053l0.65234-1.42871c0.43677-0.9491,0.85327-1.90466,1.24072-2.87122
				c0.76709-1.93542,1.48254-3.88623,2.07678-5.87585c0.61694-1.98291,1.10986-4.00146,1.55261-6.03577
				C1246.63635,1100.05017,1246.95679,1097.98694,1247.25317,1095.90222z"/>
		</g>
		<path class="st23" d="M813.55786,742.11115c-6.54858,11.80768-6.14539,26.08643-5.56683,39.57605
			c0.14282,3.33099,0.28735,6.67633,0.91632,9.9505c0.883,4.59595,2.70013,8.95166,4.50568,13.26935
			c1.72388,4.1225,3.44775,8.245,5.17163,12.36749c1.21381,2.90277,2.50214,5.91144,4.8678,7.98584
			c1.2218,1.07141,2.67865,1.84216,3.93689,2.87054c1.73724,1.41974,3.04541,3.28638,4.61206,4.89246
			c2.53119,2.59491,5.69305,4.46844,8.81482,6.31091c3.7309,2.20203,7.46179,4.40399,11.19269,6.60596
			c2.22705,1.31439,5.0047,2.64807,7.2572,1.37775c10.72418-6.04797,23.26556,4.90149,35.47748,3.33441
			c2.62042-0.33624,5.20282-0.95679,7.83539-1.17859c2.95978-0.24945,5.93555,0.00867,8.89819,0.22137
			c11.73755,0.84296,23.64349,0.96338,35.15247-1.49084c9.33252-1.99011,18.22418-5.63409,26.95398-9.48737
			c6.91687-3.05298,11.37311-9.95654,17.21606-14.75476c4.14496-3.40375,8.28986-6.8075,12.43475-10.21124
			c1.8808-1.54449,3.7843-3.11292,5.20325-5.09003c1.42169-1.98096,2.29901-4.29132,3.16077-6.57227
			c3.27625-8.67188,6.55255-17.34375,9.82886-26.01562c0.56024-1.48291,1.12451-2.98126,1.34076-4.5517
			c0.22192-1.61169,0.07037-3.25098,0.17584-4.87451c0.13824-2.12921,0.72479-4.22833,1.71039-6.12079
			c0.84082-1.61456,2.01355-2.86804,3.10303-4.29688c0.19812-0.25977,0.31946-0.4541,0.46228-0.74066
			c0.30505-0.612,0.63721-1.17413,1.0321-1.73969c0.84851-1.21539,1.79199-2.3642,2.81775-3.4342
			c2.05139-2.13989,4.43213-3.96527,7.03943-5.37695c0.98706-1.97809,1.38708-4.30286,1.69678-6.49176
			c0.26367-1.8642,0.23633-3.90051-0.82654-5.45459c-0.94531-1.38214-2.58496-2.16302-4.23718-2.43445
			c-1.65234-0.27142-3.34155-0.09381-5.00647,0.08429c-51.22217-7.05328-104.2243-2.70709-155.58624,3.24335
			C854.50531,736.27618,834.20172,739.71948,813.55786,742.11115z"/>
		<path class="st24" d="M812.55957,662.56934c-0.6098,5.69385-0.71838,11.7085-2.00592,17.29022
			c-0.37061,1.60675-0.71722,3.21912-1.04034,4.83612c-0.64624,3.23395-1.19775,6.48676-1.65442,9.75287
			c-0.91333,6.53247-1.44708,13.11786-1.59985,19.71204c-0.25208,10.88007,0.53302,21.78516,2.36176,32.51385
			c3.1767,1.8949,7.5318,3.40228,11.2041,3.84534c2.48865,0.30029,5.00574,0.24689,7.51031,0.14368
			c10.60327-0.43665,21.30273-1.75079,31.7666,0.01758c27.71014,4.6828,54.76227,1.21661,82.81122-0.52515
			c7.98383-0.49579,15.99719-0.23102,23.87744-1.60504c4.04462-0.70526,8.05969-1.76379,12.16498-1.81818
			c4.07324-0.05396,8.09534,0.88391,12.16351,1.09381c6.18231,0.31903,12.31384-1.04468,18.35413-2.40002
			c8.21796-1.84399,16.43597-3.68799,24.65387-5.53198c6.63013-1.48773,13.84302-3.34247,17.86511-8.81915
			c3.09436-4.21375,0.5874-9.92029,0.70154-15.14697c0.07056-3.23151,0.63831-6.43506,0.75037-9.66541
			c0.11194-3.23041-0.27319-6.59351-1.9436-9.36072c-0.15613-10.45862-1.09863-20.52832-2.3501-30.91296
			c-1.86584-15.48364-12.07849-29.12097-25.2655-37.03265c-1.02966-0.61774-2.00659-1.15247-2.93677-1.89325
			c-0.521-0.41492-1.05481-0.61658-1.70111-0.77502c-1.97498-0.48413-3.97546-0.88147-5.97003-1.27521
			c-3.79419-0.74902-7.60632-1.40222-11.41791-2.05542c-3.77026-0.64606-7.54053-1.29211-11.31073-1.93817
			c-9.65009-1.65369-19.32245-3.30994-29.09399-3.92151c-10.20691-0.63885-20.4657-0.54974-30.70752-0.44232
			c-8.25226,0.08661-16.50354,0.27155-24.75146,0.55475c-2.84552,0.09772-5.69061,0.20715-8.53522,0.32831
			c-4.73254,0.20148-9.46655,0.43713-14.18121,0.90784c-2.35193,0.23486-4.69855,0.52808-7.0321,0.90521
			c-1.16461,0.18829-2.32605,0.39703-3.48254,0.63019c-0.69092,0.13928-1.41876,0.39978-2.12701,0.43286
			c-0.70923,0.03314-1.36029-0.06659-2.08209,0.02832c-0.98969,0.13013-1.97717,0.27686-2.96222,0.43835
			c-3.94324,0.64642-7.84436,1.52979-11.70911,2.54077c-1.54675,0.4046-3.08813,0.8299-4.62543,1.2691
			c-6.83484,1.95288-13.66602,4.21478-19.70966,7.95685c-5.53229,3.42548-10.44049,8.22369-13.10168,14.23755
			c-0.44965,1.01617-0.4809,2.01086-0.78552,3.06451c-0.39044,1.3504-0.7019,2.72266-0.96082,4.10394
			C813.17267,656.87067,812.86456,659.72198,812.55957,662.56934z"/>
		<path class="st17" d="M926.14246,640.34296c2.01318,2.74323,4.02631,5.48639,6.03949,8.22955
			c1.32178,1.80115,2.67065,3.65741,3.2489,5.81543c-1.25909-0.34003-2.4325-0.99274-3.38544-1.88318
			c0.10107,0.62744,0.20209,1.25494,0.3031,1.88239c-0.75677-0.31732-1.51355-0.63464-2.27032-0.95197
			c0.99677,1.97852-0.96545,4.06232-1.8985,6.07166c-0.51807,1.11566-0.7359,2.38031-1.45062,3.38147
			c-0.71466,1.00122-2.23419,1.61591-3.17609,0.82471c0.63965,0.69922-0.40277,1.87488-1.33179,1.68781
			c-0.92896-0.18701-1.51343-1.08698-1.97052-1.91711c-0.45709-0.83008-0.98279-1.74689-1.88959-2.02203
			c-0.14471,0.62195-1.11841,0.44843-1.55756-0.01514s-0.85132-1.12726-1.48865-1.08752
			c-0.28027,0.01752-0.5387,0.18048-0.81952,0.18188c-0.7392,0.00354-1.00037-0.98053-0.96625-1.71899
			s0.00519-1.69073-0.69067-1.94043c0.89185-0.07129,1.44183-1.1756,1.15302-2.0224
			c-0.28882-0.84674-1.17542-1.37659-2.06183-1.4975c0.20428-0.2832,0.40863-0.56635,0.61292-0.84955
			c-0.17462-0.33209-0.34924-0.66418-0.52386-0.99628c1.78259-3.047,3.56512-6.09399,5.34772-9.14099
			c0.43396-0.74176,0.90717-1.52173,1.67163-1.91425c0.4444-0.22815,0.95654-0.30652,1.38879-0.55676
			c0.96857-0.56061,1.25726-2.02362,0.57422-2.9101c-0.00543-2.30157-1.81323-4.18951-1.73425-6.48975
			c0.07153-2.08313,2.09564-3.56006,2.73962-5.54242c0.3728-1.14771,0.258-2.38849,0.15906-3.59119
			c-0.2807-3.41187-0.36407-7.01599,1.20111-10.06067s5.30957-5.22919,8.48016-3.93787
			c1.72308,0.70172,2.96796,2.28271,3.677,4.00281c0.70911,1.72009,0.95068,3.59082,1.18573,5.4364
			c-1.28363-0.1524-2.4743-0.9491-3.1048-2.07758c-0.11816-0.21143-0.24622-0.45715-0.48175-0.51385
			c-0.31818-0.07654-0.58368,0.237-0.75818,0.51385c-2.15979,3.42596-3.87378,7.13263-5.08527,10.99713
			c-0.32465,1.03564-0.61566,2.09821-0.61993,3.18353c-0.0058,1.47357,0.51746,2.91638,0.46552,4.38904
			c-0.05054,1.43121-0.63831,2.78174-0.95398,4.17859S925.29517,639.18842,926.14246,640.34296z"/>
		<path class="st17" d="M815.64679,931.08801c2.17505-5.27057,4.35004-10.54108,6.52509-15.81165
			c0.93622-2.26849,1.88629-4.56213,3.33838-6.54053c2.43524-3.31805,6.14191-5.52808,10.03638-6.85962
			c3.89447-1.3316,8.01025-1.85925,12.09302-2.37939c7.55359-0.9624,13.60822-3.08282,21.17865-3.90192
			c18.26904-1.9765,36.60742-3.31165,54.97003-4.0022c22.27759-0.83777,44.06256-0.56232,65.95435,3.64972
			c10.51733,2.0235,22.11908,4.08887,29.43243,11.91339c6.7077,7.17651,8.28058,17.60577,9.54218,27.34766
			c0.15991,1.23492,0.28711,2.60779-0.44788,3.61298c-0.52698,0.7207-1.39526,1.09698-2.23474,1.401
			c-7.68951,2.78461-16.12543,2.13831-24.29956,1.88043c-35.87671-1.13202-71.83478,5.93201-107.55469,2.39551
			c-21.30591-2.10944-41.8219,0.85822-63.08563-1.6402c-3.49609-0.41077-7.07263-1.013-10.08954-2.82666
			C817.98834,937.51282,814.30396,934.34192,815.64679,931.08801z"/>
	</g>
</g>
<g id="Calque_8">
	<circle class="st25" cx="466.41315" cy="511.32733" r="82.5089"/>
	<path class="st11" d="M504.1398,483.10538c-0.01544-0.51077-0.19095-0.80219-0.71317-0.96429
		c-9.26572-3.3602-18.62869-6.45071-27.87411-9.87073c-3.12387-1.17361-6.28754-2.24124-9.43158-3.36127
		c-0.45517-0.16217-0.87357-0.23788-1.37427-0.05954c-11.73032,4.17758-23.46649,8.33871-35.20673,12.48846
		c-0.49921,0.17648-0.67621,0.431-0.70544,0.9599c-1.21146,21.30191,0.92715,52.34796,36.9473,71.61005
		C496.78879,539.74579,505.22662,507.0871,504.1398,483.10538z M465.87296,547.75983
		c-30.81927-16.48083-32.64911-43.04425-31.61258-61.27042c0.02502-0.45255,0.17645-0.67029,0.60364-0.82132
		c10.04504-3.55057,20.08667-7.11087,30.12329-10.6853c0.42841-0.15256,0.78638-0.0878,1.17584,0.05096
		c2.69006,0.95828,5.39694,1.8718,8.06973,2.87595c7.91055,2.92621,15.9216,5.5705,23.84946,8.4455
		c0.44681,0.13873,0.59698,0.38806,0.61023,0.82507C499.62244,507.69931,492.40292,535.64252,465.87296,547.75983z"/>
	<circle class="st25" cx="1395.87036" cy="468.74673" r="82.5089"/>
	<circle class="st25" cx="930.22278" cy="362.53702" r="69.77723"/>
	<g>
		<path class="st11" d="M1430.11816,479.89911c-1.4707-3.18567-3.46277-6.12598-6.04053-8.80048
			c-3.276-3.39911-7.24329-5.7796-11.81262-7.58875c1.44165-1.37738,2.65869-2.42133,3.73828-3.5921
			c4.92041-5.336,6.15063-13.70978,3.03394-20.30762c-3.2887-6.96173-10.72266-11.54932-18.03711-11.13086
			c-7.66101,0.43829-14.61377,5.53876-17.09839,12.54321c-2.65405,7.48163-0.58313,15.44269,5.5293,20.77649
			c1.42896,1.24701,1.67456,1.81213-0.32422,2.69958c-8.14392,3.61603-13.72852,9.6709-16.81201,18.05707
			c-4.25879,11.58295-1.25342,18.47192,10.29297,22.93018c8.17371,3.15601,16.65857,4.26868,25.3844,3.10406
			c4.62366-0.61719,9.09119-1.68555,13.27478-3.52191c2.38782,1.86255,5.38086,2.98376,8.63672,2.98376
			c7.76465,0,14.08203-6.31738,14.08203-14.08252C1443.9657,486.28326,1437.77393,480.02606,1430.11816,479.89911z
			 M1387.61462,447.42194c0.05981-7.96625,6.33081-14.04108,14.3877-13.93744c7.98462,0.10278,13.99475,6.32526,13.92615,14.41821
			c-0.0658,7.76135-6.39246,13.90155-14.28333,13.86255C1393.74231,461.72614,1387.55481,455.40057,1387.61462,447.42194z
			 M1398.44885,504.11975c-5.9751-0.31769-11.77246-1.61426-17.14258-4.42627c-5.6991-2.98431-7.01074-5.836-5.55103-12.1142
			c2.96118-12.73474,13.2915-21.06073,26.1145-21.04761c10.06067,0.01031,18.9093,5.69745,23.39429,14.14984
			c-5.49927,1.91803-9.4624,7.14246-9.4624,13.28772c0,2.7124,0.78394,5.23926,2.11804,7.39087
			C1411.77502,503.78461,1405.22107,504.47968,1398.44885,504.11975z M1429.88367,503.95215
			c-5.50391,0-9.98242-4.47852-9.98242-9.98291s4.47852-9.98242,9.98242-9.98242s9.98242,4.47803,9.98242,9.98242
			S1435.38757,503.95215,1429.88367,503.95215z"/>
		<polygon class="st11" points="1432.30554,488.32373 1428.20593,488.32373 1428.20593,491.91943 1424.61023,491.91943 
			1424.61023,496.01904 1428.20593,496.01904 1428.20593,499.61475 1432.30554,499.61475 1432.30554,496.01904 
			1435.90125,496.01904 1435.90125,491.91943 1432.30554,491.91943 		"/>
	</g>
</g>
<g id="Calque_6" class="st26">
	<linearGradient id="SVGID_4_" gradientUnits="userSpaceOnUse" x1="111.63788" y1="630.73682" x2="2618.48291" y2="630.73682">
		<stop  offset="0.00643" style="stop-color:#85FFC2"/>
		<stop  offset="1" style="stop-color:#009DD1"/>
	</linearGradient>
	<path class="st27" d="M730.71576,1525.99341l-619.07788,1.56311l302.57547-247.69153
		C496.34473,1386.80054,605.16809,1472.15674,730.71576,1525.99341z M1771.92346,798.07867
		c0,402.8797-326.59827,729.47784-729.47791,729.47784c-402.87921,0-729.47784-326.59814-729.47784-729.47784
		S639.56635,68.60082,1042.44556,68.60082C1445.3252,68.60082,1771.92346,395.19904,1771.92346,798.07867z M1586.80408,798.07867
		c0-300.64096-243.71753-544.35815-544.35852-544.35815c-300.64056,0-544.35815,243.71718-544.35815,544.35815
		s243.71756,544.35822,544.35815,544.35822C1343.08655,1342.43689,1586.80408,1098.7196,1586.80408,798.07867z M2616.15601-64.16042
		c-7.06543-18.86415-28.08594-28.42889-46.94995-21.36353c-9.80249,3.67149-17.06079,11.12492-20.8125,20.07198
		c-125.44824,11.28754-219.47144,51.91977-279.73047,121.04773c-11.01685,12.63792-20.29639,25.55167-28.11768,38.42003
		c-4.24048-1.4467-7.40601-2.48471-8.6416-2.84995c-22.33618-6.60199-66.73975-22.87805-119.04785-23.30142
		c5.22705-26.98384,13.52124-58.50294,26.68481-90.36873c41.62646-100.76151,112.11548-162.03815,209.7876-182.53224
		c6.66992,7.29648,16.23438,11.90149,26.89844,11.90149c20.14404,0,36.47412-16.3299,36.47412-36.47385
		s-16.33008-36.47398-36.47412-36.47398c-17.27832,0-31.71704,12.02814-35.48486,28.15874
		c-107.60815,23.32799-187.76147,93.04471-233.05347,203.44321c-15.42651,37.60194-24.53784,74.24726-29.93262,104.57777
		c-4.23608,0.59125-8.49951,1.3-12.78662,2.15642c-204.51306,40.85395-293.47144,247.75287-245.86719,571.69397
		c9.83875,49.85632,15.0105,101.38885,15.0105,154.13141c0,204.71094-77.70154,391.27173-205.21729,531.80554
		c-28.18005,31.82678-59.23608,61.05957-92.84692,87.16077c-55.91113,44.64587-117.99927,81.88098-184.78601,110.2019
		c0.89307,0.19373,1.745,0.3136,2.59314,0.30945c115.92664-19.23682,226.57959-60.21765,331.00464-120.60681
		c291.25427-156.73218,335.77002-391.23407,430.35254-755.50983c34.71973-133.72095,110.4165-265.74536,236.73657-348.46414
		c98.59668-64.56433,43.53198-122.54482-0.94678-154.58969c-8.35425-6.01891-48.19604-28.47401-66.60278-37.65232
		c-2.89819-1.39647-6.78003-3.03983-11.12964-4.77151c6.15723-9.57774,13.24658-19.1296,21.42993-28.47123
		c54.3252-62.01196,140.59644-98.62087,256.67749-109.06528c9.09619,14.1004,27.05835,20.49022,43.41504,14.36405
		C2613.65649-24.27598,2623.22119-45.29613,2616.15601-64.16042z"/>
</g>
</svg>
