<?xml version="1.0" encoding="utf-8"?>
<!-- Generator: Adobe Illustrator 25.2.1, SVG Export Plug-In . SVG Version: 6.00 Build 0)  -->
<svg version="1.1" xmlns="http://www.w3.org/2000/svg" xmlns:xlink="http://www.w3.org/1999/xlink" x="0px" y="0px"
	 viewBox="0 0 2000 1500" style="enable-background:new 0 0 2000 1500;" xml:space="preserve">
<style type="text/css">
	.st0{fill:#F2F2F2;}
	.st1{fill:none;stroke:#F2F2F2;stroke-width:10;stroke-linecap:round;stroke-linejoin:round;stroke-miterlimit:10;}
	.st2{fill:#FFFFFF;stroke:#AFC5C9;stroke-width:5;stroke-miterlimit:10;}
	.st3{fill:#CAE4EA;stroke:#AFC5C9;stroke-width:3;stroke-miterlimit:10;}
	.st4{fill:#F2F2F2;stroke:#AFC5C9;stroke-width:2.98644;stroke-miterlimit:10;}
	.st5{fill:none;stroke:#AFC5C9;stroke-width:3;stroke-miterlimit:10;}
	.st6{fill:#F2F2F2;stroke:#AFC5C9;stroke-width:3;stroke-miterlimit:10;}
	.st7{fill:none;stroke:#AFC5C9;stroke-width:3.49967;stroke-linecap:round;stroke-linejoin:round;stroke-miterlimit:10;}
	.st8{fill:none;stroke:#AFC5C9;stroke-width:5;stroke-miterlimit:10;}
	.st9{fill:#009DD1;}
	.st10{fill:#A4B7BA;}
	.st11{fill:#AFC5C9;}
	.st12{fill:#03060A;}
	.st13{fill:#3A1E13;}
	.st14{fill:#110F0F;}
	.st15{fill:#999999;}
	.st16{fill:none;stroke:#000B26;stroke-miterlimit:10;}
	.st17{fill:#000B26;}
	.st18{fill:#000819;}
	.st19{fill:none;stroke:#000B26;stroke-width:0.85347;stroke-miterlimit:10;}
	.st20{fill:none;stroke:#000B26;stroke-width:0.8332;stroke-miterlimit:10;}
	.st21{fill:#AFC5C9;stroke:#110F0F;stroke-width:0.8332;stroke-miterlimit:10;}
	.st22{fill:none;stroke:#AFC5C9;stroke-width:0.8332;stroke-miterlimit:10;}
	.st23{fill:#AFC5C9;stroke:#000B26;stroke-width:0.8332;stroke-miterlimit:10;}
	.st24{fill:#004F69;}
	.st25{fill:none;stroke:#110F0F;stroke-width:0.5;stroke-miterlimit:10;}
</style>
<g id="Calque_6">
	<ellipse class="st0" cx="1081.73779" cy="1206.35303" rx="785.95953" ry="50.06597"/>
</g>
<g id="Calque_3">
	<path class="st1" d="M1532.23987,357.06131l55.08203-73.42032c11.64587,31.91376,7.41077,68.91626-14.47607,98.08997
		c-24.19714,32.2529-63.56262,46.44565-100.75708,40.10339l-137.00586,182.61877
		c17.61255,34.30066,15.41309,77.07269-9.28577,109.99432c-22.43396,29.90302-57.89929,44.29883-92.5564,41.1582l55.35559-73.78497
		l-27.72461-58.25647l-61.0575-7.3689l-54.47412,72.61005c-12.09656-32.15717-8.01855-69.62555,14.12671-99.14362
		c23.49792-31.32104,61.27795-45.59503,97.48999-40.55975l138.84497-185.07037
		c-16.05249-33.76337-13.28601-75.09659,10.71362-107.08636c22.64697-30.18668,58.60327-44.56201,93.62024-41.05681
		l-55.7356,74.29158l24.13867,56.57898L1532.23987,357.06131z"/>
	<g>
		<path class="st0" d="M778.11066,631.62555c-6.63397-28.17694-17.75378-54.59613-32.55817-78.50214
			c-4.00134-6.46136-3.82715-14.66089,0.41541-20.96655l17.45868-25.94843c4.32642-6.4303,3.4939-15.0239-1.98639-20.50415
			l-35.14014-35.13992c-5.47723-5.4772-14.06482-6.31216-20.49457-1.99271l-25.96643,17.44409
			c-6.29852,4.23129-14.48303,4.40714-20.93793,0.41849c-23.91699-14.77887-50.37115-25.89825-78.56055-32.53308
			c-7.38068-1.73715-13.03833-7.66287-14.49683-15.10364l-6.01648-30.69489c-1.4903-7.60309-8.15411-13.08752-15.90192-13.08752
			H494.263c-7.74777,0-14.41159,5.48444-15.90189,13.08752l-6.01651,30.69489c-1.45847,7.44077-7.11615,13.36649-14.49683,15.10364
			c-28.18716,6.63431-54.63943,17.75247-78.55518,32.52963c-6.45782,3.9902-14.64624,3.81247-20.94547-0.42365l-25.91379-17.42661
			c-6.43008-4.32413-15.02173-3.49081-20.50098,1.98843l-35.13754,35.13754c-5.47925,5.47928-6.31259,14.07089-1.98843,20.50101
			l17.42657,25.9137c4.23615,6.29926,4.41385,14.48767,0.42365,20.9455c-14.77713,23.91559-25.89511,50.36786-32.52954,78.55524
			c-1.73718,7.38062-7.66295,13.03827-15.1037,14.49677l-30.69453,6.0163c-7.6031,1.49023-13.08759,8.15411-13.08759,15.90186
			v49.6626c0,7.7478,5.48448,14.41162,13.08759,15.90186l30.69453,6.01636c7.44075,1.45844,13.36652,7.11609,15.1037,14.49677
			c6.63495,28.18958,17.75418,54.64386,32.53308,78.56091c3.98859,6.45483,3.81274,14.63934-0.41849,20.93781l-17.44418,25.96674
			c-4.31943,6.42975-3.48444,15.0174,1.9928,20.49457l35.13992,35.13971c5.48022,5.48022,14.07373,6.31268,20.504,1.98633
			l25.93967-17.45258c6.30844-4.24438,14.51221-4.41669,20.97427-0.41003c23.91003,14.82477,50.35193,25.91711,78.50177,32.5448
			c7.37936,1.73737,13.03647,7.66113,14.49591,15.10046l6.01358,30.6532c1.49133,7.60181,8.1546,13.0849,15.90137,13.0849h49.66684
			c7.74677,0,14.41003-5.48309,15.90137-13.0849l6.01355-30.6532c1.45947-7.43933,7.11658-13.3631,14.49591-15.10046
			c28.1521-6.62823,54.59595-17.7218,78.50745-32.54834c6.45917-4.00507,14.659-3.83459,20.96667,0.40503l25.99207,17.46997
			c6.42987,4.32172,15.01941,3.48755,20.49762-1.9906l35.14246-35.14209c5.47827-5.47815,6.3125-14.06775,1.99072-20.49768
			l-17.47626-26.00146c-4.23767-6.30493-4.40997-14.50043-0.41022-20.95886c14.80615-23.90747,25.92719-50.32867,32.56171-78.50787
			c1.73724-7.37878,7.66132-13.03534,15.1001-14.49463l30.65137-6.01306c7.60187-1.49133,13.08502-8.1546,13.08502-15.90137
			v-49.66705c0-7.74677-5.48315-14.41003-13.08502-15.90137l-30.65137-6.01312
			C785.77197,644.66089,779.8479,639.00439,778.11066,631.62555z M529.93323,859.66241
			c-100.87152,6.36096-183.94699-76.77521-177.58411-177.64374c5.24619-83.16541,72.72943-150.64874,155.89487-155.89532
			c100.86942-6.36346,184.00644,76.71307,177.6445,177.58527C680.6413,786.90601,613.13068,854.41602,529.93323,859.66241z"/>
		<line class="st0" x1="568.37518" y1="431.57516" x2="568.32629" y2="431.37967"/>
		<line class="st0" x1="469.90134" y1="431.37967" x2="469.85248" y2="431.57516"/>
		<line class="st0" x1="369.17947" y1="473.31049" x2="368.98398" y2="473.16385"/>
		<line class="st0" x1="299.53915" y1="542.95081" x2="299.39255" y2="542.75531"/>
		<line class="st0" x1="257.80383" y1="643.62378" x2="257.60837" y2="643.67267"/>
		<line class="st0" x1="257.80383" y1="742.14648" x2="257.60837" y2="742.09766"/>
		<line class="st0" x1="299.53915" y1="842.81952" x2="299.39255" y2="843.01501"/>
		<line class="st0" x1="369.17947" y1="912.50867" x2="369.03287" y2="912.60645"/>
		<line class="st0" x1="469.90134" y1="954.43951" x2="469.85248" y2="954.19513"/>
		<line class="st0" x1="568.37518" y1="954.19513" x2="568.32629" y2="954.43951"/>
		<line class="st0" x1="669.19482" y1="912.60645" x2="669.04822" y2="912.50867"/>
		<line class="st0" x1="738.83514" y1="842.96613" x2="738.73737" y2="842.81952"/>
		<line class="st0" x1="780.66815" y1="742.09766" x2="780.42383" y2="742.14648"/>
		<line class="st0" x1="780.66815" y1="643.67267" x2="780.42383" y2="643.62378"/>
		<line class="st0" x1="738.83514" y1="542.8042" x2="738.73737" y2="542.95081"/>
		<line class="st0" x1="669.24371" y1="473.16385" x2="669.04822" y2="473.31049"/>
	</g>
	<path class="st2" d="M1456.27368,1057.21545H480.96811c-10.36343,0-18.76468-8.40125-18.76468-18.76465V526.94122
		c0-10.3634,8.40125-18.76468,18.76468-18.76468h975.30554c10.3634,0,18.76465,8.40128,18.76465,18.76468v511.50958
		C1475.03833,1048.81421,1466.63708,1057.21545,1456.27368,1057.21545z"/>
	<path class="st3" d="M1410.13379,1000.63641h-888.5329c-1.3844,0-2.50671-1.12231-2.50671-2.50671V562.30103
		c0-1.3844,1.12231-2.50665,2.50671-2.50665h888.5329c1.3844,0,2.50671,1.12225,2.50671,2.50665V998.1297
		C1412.6405,999.5141,1411.51819,1000.63641,1410.13379,1000.63641z"/>
	<path class="st4" d="M1230.10522,928.06183h-502.7533c-2.24774,0-4.06982-1.82214-4.06982-4.06982V293.98627
		c0-2.24771,1.82208-4.06982,4.06982-4.06982h502.7533c2.24768,0,4.06982,1.82211,4.06982,4.06982V923.992
		C1234.17505,926.23969,1232.35291,928.06183,1230.10522,928.06183z"/>
	<path class="st5" d="M850.75928,383.19766h-79.58405c-2.14014,0-3.87506-1.73489-3.87506-3.87503v-27.18356
		c0-2.14014,1.73492-3.87506,3.87506-3.87506h79.58405c2.14014,0,3.87506,1.73492,3.87506,3.87506v27.18356
		C854.63434,381.46277,852.89941,383.19766,850.75928,383.19766z"/>
	<path class="st5" d="M1168.80176,383.19766H913.92969c-2.14014,0-3.87506-1.73489-3.87506-3.87503v-27.18356
		c0-2.14014,1.73492-3.87506,3.87506-3.87506h254.87207c2.14014,0,3.875,1.73492,3.875,3.87506v27.18356
		C1172.67676,381.46277,1170.94189,383.19766,1168.80176,383.19766z"/>
	<path class="st5" d="M1166.97778,527.15875H772.99915c-3.14746,0-5.69897-2.55157-5.69897-5.69904v-66.52603
		c0-3.14746,2.55151-5.69897,5.69897-5.69897h393.97864c3.14746,0,5.69897,2.55151,5.69897,5.69897v66.52603
		C1172.67676,524.60718,1170.12524,527.15875,1166.97778,527.15875z"/>
	<path class="st5" d="M1166.97778,763.20654H772.99915c-3.14746,0-5.69897-2.55151-5.69897-5.69897v-66.52606
		c0-3.14746,2.55151-5.69897,5.69897-5.69897h393.97864c3.14746,0,5.69897,2.55151,5.69897,5.69897v66.52606
		C1172.67676,760.65503,1170.12524,763.20654,1166.97778,763.20654z"/>
	<path class="st5" d="M1166.97778,881.68921H772.99915c-3.14746,0-5.69897-2.55157-5.69897-5.69904v-66.52606
		c0-3.14746,2.55151-5.69897,5.69897-5.69897h393.97864c3.14746,0,5.69897,2.55151,5.69897,5.69897v66.52606
		C1172.67676,879.13763,1170.12524,881.68921,1166.97778,881.68921z"/>
	<path class="st2" d="M1052.19263,1170.505h-167.1452c-10.44415,0-18.51794-9.16541-17.20056-19.52612l11.92188-93.76343h173.88458
		l15.63867,93.07739C1071.06885,1160.86841,1062.91638,1170.505,1052.19263,1170.505z"/>
	<path class="st6" d="M1425.82043,1135.76257h-386.5448c-8.96301,0-16.22894-7.26599-16.22894-16.229v-8.85217
		c0-8.96301,7.26593-16.229,16.22894-16.229h386.5448c8.96301,0,16.229,7.26599,16.229,16.229v8.85217
		C1442.04944,1128.49658,1434.78345,1135.76257,1425.82043,1135.76257z"/>
	<circle class="st7" cx="1057.16333" cy="1113.06335" r="6.84691"/>
	<line class="st7" x1="1062.32837" y1="1117.55518" x2="1071.44946" y2="1126.67627"/>
	<polyline class="st8" points="1688.66248,583.95953 1770.39807,583.95953 1770.39807,639.68835 	"/>
	<polyline class="st8" points="1635.05664,625.35809 1737.49158,625.35809 1737.49158,701.25543 1682.29346,769.19153 
		1515.6377,769.19153 	"/>
</g>
<g id="Calque_5">
	<path class="st6" d="M1308.38916,713.59937H914.41052c-3.14752,0-5.69904-2.55151-5.69904-5.69897v-66.52606
		c0-3.14746,2.55151-5.69897,5.69904-5.69897h393.97864c3.14746,0,5.69897,2.55151,5.69897,5.69897v66.52606
		C1314.08813,711.04785,1311.53662,713.59937,1308.38916,713.59937z"/>
	<g>
		<path class="st9" d="M1017.7998,696.78906l-18.45453,0.04663l9.01971-7.38361
			C1010.81329,692.63977,1014.05731,695.1842,1017.7998,696.78906z M1048.83789,675.09021
			c0,12.0097-9.73572,21.74548-21.74548,21.74548c-12.0097,0-21.74554-9.73578-21.74554-21.74548
			c0-12.00977,9.73584-21.74561,21.74554-21.74561C1039.10217,653.3446,1048.83789,663.08044,1048.83789,675.09021z
			 M1043.31958,675.09021c0-8.96204-7.26514-16.22723-16.22717-16.22723c-8.96198,0-16.22717,7.2652-16.22717,16.22723
			c0,8.96198,7.2652,16.22711,16.22717,16.22711C1036.05444,691.31732,1043.31958,684.05219,1043.31958,675.09021z
			 M1026.02673,682.39551l9.14258-14.61066l-9.91919,10.46863l-6.23462-4.92871L1026.02673,682.39551z M1074.00427,649.38708
			c-0.21069-0.56238-0.83728-0.84747-1.39954-0.63684c-0.29224,0.10944-0.50867,0.3316-0.62048,0.59833
			c-3.7395,0.33649-6.54236,1.54773-8.33862,3.6084c-0.32849,0.37671-0.6051,0.76166-0.83826,1.14526
			c-0.12634-0.04309-0.2207-0.07404-0.25757-0.08496c-0.66577-0.19678-1.9895-0.68195-3.54883-0.69458
			c0.15588-0.80438,0.40308-1.74396,0.79553-2.69385c1.24084-3.00372,3.34216-4.83032,6.25366-5.44128
			c0.19885,0.21753,0.48401,0.3548,0.80188,0.3548c0.60046,0,1.08728-0.48676,1.08728-1.08728
			c0-0.60046-0.48682-1.08728-1.08728-1.08728c-0.51514,0-0.94543,0.35858-1.05786,0.83942
			c-3.20776,0.69543-5.59705,2.77362-6.94714,6.06458c-0.45996,1.12091-0.73157,2.21332-0.89233,3.11743
			c-0.12634,0.01764-0.25342,0.03876-0.38123,0.06427c-6.09644,1.2179-8.74829,7.38544-7.32922,17.04205
			c0.29333,1.48621,0.44751,3.0224,0.44751,4.5946c0,6.10236-2.31628,11.6637-6.11743,15.85297
			c-0.84009,0.94879-1.76587,1.82019-2.76782,2.59827c-1.66663,1.33087-3.51746,2.44086-5.50842,3.2851
			c0.02661,0.00574,0.05212,0.00934,0.07739,0.00922c3.45569-0.57349,6.75427-1.7951,9.86707-3.59528
			c8.68225-4.67212,10.00928-11.6626,12.82874-22.52155c1.03503-3.98615,3.2915-7.92175,7.05701-10.38757
			c2.93921-1.92468,1.29773-3.65302-0.0282-4.60828c-0.24902-0.17944-1.43665-0.84882-1.98535-1.12244
			c-0.08643-0.04163-0.20215-0.09058-0.33179-0.14221c0.18347-0.28552,0.3949-0.57025,0.63879-0.84875
			c1.61938-1.84851,4.19116-2.93982,7.65149-3.25116c0.27112,0.42029,0.80664,0.61078,1.29419,0.42816
			C1073.92981,650.57599,1074.21484,649.9494,1074.00427,649.38708z"/>
		<g>
			<path class="st9" d="M1086.73291,669.44489v3.20355h-4.34937v13.21167h-3.99854v-13.21167h-4.34937v-3.20355H1086.73291z
				 M1094.49585,673.29144c0.70154-0.41284,1.48083-0.61963,2.33838-0.61963v4.23236h-1.099
				c-0.9978,0-1.74622,0.21448-2.24487,0.64307c-0.49902,0.42896-0.74829,1.18091-0.74829,2.25653v6.05634h-3.99854v-13.04797
				h3.99854v2.17462C1093.20972,674.26996,1093.79431,673.70471,1094.49585,673.29144z M1098.71643,675.7818
				c0.50647-1.01312,1.19629-1.79242,2.06958-2.33832c0.8728-0.54553,1.84729-0.81848,2.92285-0.81848
				c0.91956,0,1.72644,0.18713,2.42029,0.56122c0.69336,0.37415,1.22754,0.86523,1.60181,1.47321v-1.84729h3.99841v13.04797
				h-3.99841v-1.84735c-0.39001,0.60803-0.93188,1.09906-1.62524,1.47321c-0.69385,0.37415-1.50049,0.56122-2.42017,0.56122
				c-1.0603,0-2.02673-0.27661-2.89954-0.83014c-0.87329-0.55316-1.56311-1.34052-2.06958-2.36176
				c-0.50659-1.02081-0.75989-2.20166-0.75989-3.5426C1097.95654,677.97217,1098.20984,676.79535,1098.71643,675.7818z
				 M1106.90076,676.97437c-0.55347-0.5766-1.22766-0.86517-2.02271-0.86517s-1.46948,0.28461-2.02271,0.85352
				c-0.55347,0.56921-0.83008,1.35254-0.83008,2.34998c0,0.99786,0.27661,1.78888,0.83008,2.37347
				c0.55322,0.58459,1.22766,0.87683,2.02271,0.87683s1.46924-0.28827,2.02271-0.86511c0.5531-0.5766,0.8302-1.36395,0.8302-2.36182
				C1107.73096,678.33868,1107.45386,677.55127,1106.90076,676.97437z M1126.23853,674.15668
				c0.91199,0.99011,1.36792,2.34998,1.36792,4.08044v7.62299h-3.97522v-7.08521c0-0.87286-0.2262-1.55103-0.67798-2.03436
				c-0.45239-0.48303-1.0603-0.72491-1.82397-0.72491c-0.76404,0-1.37195,0.24188-1.82397,0.72491
				c-0.45227,0.48334-0.6781,1.1615-0.6781,2.03436v7.08521h-3.99841v-13.04797h3.99841v1.73035
				c0.40515-0.57654,0.95081-1.03253,1.63696-1.36792c0.68567-0.33508,1.4574-0.50275,2.31482-0.50275
				C1124.10669,672.67181,1125.32666,673.16687,1126.23853,674.15668z M1130.42407,675.7818
				c0.55322-1.01312,1.32483-1.79242,2.31494-2.33832c0.98987-0.54553,2.1239-0.81848,3.40234-0.81848
				c1.63684,0,3.00476,0.42896,4.10376,1.28613c1.099,0.85754,1.81982,2.06573,2.16309,3.62439h-4.25586
				c-0.35876-0.99744-1.05225-1.49646-2.08118-1.49646c-0.73291,0-1.3175,0.28461-1.75378,0.85352
				c-0.43665,0.56915-0.65479,1.38354-0.65479,2.44348c0,1.0603,0.21814,1.87469,0.65479,2.4436
				c0.43628,0.56927,1.02087,0.85352,1.75378,0.85352c1.02893,0,1.72241-0.49878,2.08118-1.49652h4.25586
				c-0.34326,1.52789-1.06799,2.72815-2.1748,3.60101c-1.10706,0.87323-2.47095,1.30951-4.09204,1.30951
				c-1.27844,0-2.41248-0.27258-3.40234-0.81842c-0.99011-0.54553-1.76172-1.32483-2.31494-2.33838
				c-0.55359-1.01312-0.83008-2.19806-0.83008-3.55432C1129.59399,677.97986,1129.87048,676.79535,1130.42407,675.7818z
				 M1156.15747,674.15668c0.90381,0.99011,1.3562,2.34998,1.3562,4.08044v7.62299h-3.97522v-7.08521
				c0-0.87286-0.2262-1.55103-0.67798-2.03436c-0.45239-0.48303-1.0603-0.72491-1.82397-0.72491
				c-0.76404,0-1.37195,0.24188-1.82397,0.72491c-0.45227,0.48334-0.6781,1.1615-0.6781,2.03436v7.08521h-3.99854v-17.30383h3.99854
				v6.00958c0.40515-0.57648,0.95874-1.0365,1.66016-1.37964c0.70166-0.34271,1.48865-0.5144,2.36182-0.5144
				C1154.05298,672.67181,1155.25317,673.16687,1156.15747,674.15668z M1172.52588,680.2948h-9.04932
				c0.06201,0.81073,0.32336,1.43042,0.7832,1.85901c0.45972,0.42889,1.0249,0.64307,1.69531,0.64307
				c0.99744,0,1.69141-0.4209,2.08118-1.26276h4.25586c-0.21851,0.85754-0.61206,1.62921-1.18091,2.315
				c-0.56934,0.68616-1.28247,1.22394-2.13965,1.61346c-0.85742,0.38983-1.81616,0.58459-2.8761,0.58459
				c-1.27844,0-2.4165-0.27258-3.41394-0.81842c-0.99792-0.54553-1.77722-1.32483-2.33838-2.33838
				c-0.56128-1.01312-0.8418-2.19806-0.8418-3.55432c0-1.3562,0.27649-2.54071,0.83008-3.55426
				c0.55322-1.01312,1.32874-1.79242,2.32666-2.33832c0.99744-0.54553,2.14319-0.81848,3.43738-0.81848
				c1.2627,0,2.38513,0.26532,3.36719,0.7951c0.98206,0.53015,1.74976,1.28601,2.30334,2.26819
				c0.5531,0.98212,0.83008,2.12787,0.83008,3.43732C1172.59607,679.49982,1172.57263,679.88965,1172.52588,680.2948z
				 M1168.50391,678.07336c0-0.68573-0.23376-1.23126-0.70154-1.63684c-0.46765-0.40515-1.05225-0.60791-1.75378-0.60791
				c-0.67029,0-1.2356,0.19507-1.69519,0.58453c-0.46008,0.38983-0.74463,0.94336-0.85352,1.66022H1168.50391z
				 M1191.51306,677.33679c-0.43665,0.78741-1.10706,1.42279-2.01111,1.90576c-0.9043,0.48334-2.02661,0.72491-3.36719,0.72491
				h-2.47864v5.89264h-3.99854v-16.41522h6.47717c1.30945,0,2.41626,0.2262,3.32043,0.6781
				c0.90393,0.45233,1.58215,1.07568,2.03442,1.87067c0.4519,0.7951,0.6781,1.70703,0.6781,2.7359
				C1192.16772,675.6806,1191.94922,676.5498,1191.51306,677.33679z M1187.53784,676.24951
				c0.37415-0.35846,0.56116-0.86523,0.56116-1.51996c0-0.65479-0.18701-1.16119-0.56116-1.5199
				c-0.37427-0.35846-0.94336-0.53784-1.70703-0.53784h-2.17468v4.11554h2.17468
				C1186.59448,676.78735,1187.16357,676.60822,1187.53784,676.24951z M1194.2135,675.7818
				c0.50635-1.01312,1.19629-1.79242,2.06958-2.33832c0.87268-0.54553,1.84729-0.81848,2.92285-0.81848
				c0.91956,0,1.72644,0.18713,2.42029,0.56122c0.69336,0.37415,1.22754,0.86523,1.60168,1.47321v-1.84729h3.99854v13.04797
				h-3.99854v-1.84735c-0.38989,0.60803-0.93176,1.09906-1.62512,1.47321c-0.69385,0.37415-1.50061,0.56122-2.42017,0.56122
				c-1.0603,0-2.02686-0.27661-2.89954-0.83014c-0.87329-0.55316-1.56323-1.34052-2.06958-2.36176
				c-0.50671-1.02081-0.75989-2.20166-0.75989-3.5426C1193.45361,677.97217,1193.70679,676.79535,1194.2135,675.7818z
				 M1202.39783,676.97437c-0.55347-0.5766-1.22766-0.86517-2.02271-0.86517s-1.4696,0.28461-2.02271,0.85352
				c-0.55347,0.56921-0.83008,1.35254-0.83008,2.34998c0,0.99786,0.27661,1.78888,0.83008,2.37347
				c0.5531,0.58459,1.22766,0.87683,2.02271,0.87683s1.46924-0.28827,2.02271-0.86511
				c0.5531-0.5766,0.83008-1.36395,0.83008-2.36182C1203.22791,678.33868,1202.95093,677.55127,1202.39783,676.97437z
				 M1223.45435,672.81213l-8.1842,19.24451h-4.30261l2.99304-6.64081l-5.30811-12.6037h4.46631l3.0166,8.16077l2.99292-8.16077
				H1223.45435z"/>
		</g>
	</g>
</g>
<g id="Calque_2">
	<path class="st10" d="M828.41998,775.67999c-3.19,0.5-6.38995,0.96997-9.58997,1.42999
		C815.19,777.63,811.53998,778.13,807.88,778.59998c-1.82001,0.23999-3.65002,0.47003-5.47998,0.70001
		c-3.75,0.46002-7.61005,1.07001-11.22003-0.42999c-2.29999-0.96002-4.27997-2.51001-6.22998-4.06
		c-5.54999-4.41998-11-8.96002-16.35004-13.62c-1.35999-1.17999-2.71997-2.37-4.06-3.57001
		c-0.66998-0.60004-1.33997-1.20001-2.00995-1.79999c-0.51001-0.45001-0.81006-0.94-1.23004-1.45001
		c-0.42999-0.51001-1.02997-0.91003-1.52997-1.33002c-0.85004-0.72998-1.69-1.45001-2.53003-2.16998
		c-1.69-1.45001-3.38-2.89001-5.07001-4.34003c-3.51001-3.01001-7.02997-6.01996-10.53998-9.03998
		c-4.95001-4.23999-9.90002-8.47998-14.84998-12.72003c4.69995,9.68005,2.58997,22.54004,4.59998,33.33002
		c0.81,4.35999,1.64001,8.78003,3.51001,12.79999c0.35999,0.79004,0.76996,1.57001,1.08997,2.38
		c0.27002,0.67999,0.48004,1.37,0.55005,2.09003c0.12,1.17999-0.15002,2.38,0.06,3.54999c0.25,1.39001,1.13995,2.57001,1.70996,3.87
		c1.03003,2.35004,0.94,5.16003-0.22998,7.44c-0.91998,1.82001-2.53998,3.47998-2.39001,5.52002
		c0.08002,1.12,0.70001,2.12,1.17999,3.13c2.04999,4.32001,1.67004,9.69995-0.97998,13.67999
		c-0.53998,0.79999-1.19,1.70001-0.96002,2.64996c0.11005,0.47003,0.44,0.86005,0.77002,1.23004
		c2.03998,2.26996,4.38,4.26001,6.95001,5.89996c0.04999,0.04004,0.09998,0.07001,0.14996,0.10004
		c9.34003,5.88995,18.33844,10.89001,29.36847,10.52997c3.14996-0.10999,7.95105-2.99414,11.091-2.76416
		c2.56,0.17999,6.53955-0.4668,9.08954-0.16681c0.60999,0.07001,2.19482,1.54449,2.80481,1.58447
		c10.54999,0.76001,19.9162-6.39349,28.19623-13.00348c0.13995-0.10004,0.26996-0.20001,0.39996-0.31
		c-0.31-14.23999-0.72998-27.76001,4.19-41.13C828.10999,776.67999,828.28003,776.17999,828.41998,775.67999z"/>
	<path class="st11" d="M836.82001,694.44c0.03998-0.54999,0.12-1.19,0.58997-1.5c0.36005-0.23004,0.82001-0.17999,1.24005-0.15002
		c6.32996,0.53998,12.19995-2.94,17.87-5.79999c7.47998-3.78003,15.41998-6.66003,23.57996-8.56
		c13.65002-3.19,24.45001-12.64001,37.45001-17.90002c31.31-12.64996,61.88-21.58997,95.21002-27.08997
		c0.04999-5.29004-0.31-10.58002-1.04999-15.82001c-0.24005-1.72998-0.52002-3.45001-0.85004-5.16003
		c-8.17999,2.24005-16.82996,1.58002-25.31,1.80005c-8.66998,0.21997-17.27997,1.38995-25.83997,2.70996
		c-14.67004,2.27002-29.26001,5.01001-43.75,8.23004c-3.55005,0.78998-7.09003,1.59998-10.63,2.44995
		c-2.60004,0.62-5.21002,1.44-7.85004,1.90002c-0.89996,0.15002-1.75,0.09998-2.64996,0.04999
		c-2.54004-0.14001-5.11005,0.79999-7.56,1.37c-2.94,0.69-5.88,1.37-8.82001,2.03003
		c-11.73999,2.63-23.58002,4.92999-35.57001,6.14996c-5.42999,0.55005-10.89001,0.88-16.35999,0.91003
		c-5.35004,0.03998-10.71002-0.21002-16.06-0.12c-0.63,0.01001-1.27002,0.02997-1.90002,0.10999
		c1.03003,2.33002,2.06,4.65997,3.08002,6.97998c0.79999,1.79004,1.87,3.62,2.28998,5.53003
		c0.25,1.16998,0.44,2.32001,0.47003,3.51001c0.04999,2.39996-0.37,4.78998-0.87,7.12
		c-0.78003,3.64996-1.83002,7.29999-1.88,11.04999c-6.46002-1.56-12.82001-3.52002-19.03003-5.89001
		c-0.07001,0.33002-0.15002,0.66998-0.21997,1c-0.03003,0.13-0.06,0.26001-0.09003,0.39001
		c-0.10999-0.06-0.22998-0.12-0.34003-0.17999c-0.01996,0.31-0.03998,0.62-0.08997,0.92999
		c-0.15002,0.94-0.45001,1.83997-0.75,2.73999c-1.10999,3.38-2.22998,6.75-3.34003,10.12
		c-0.44-0.20001-0.88995-0.38-1.33997-0.53998c-1.19-0.41998-2.41998-0.73004-3.66998-0.90002
		c-1.05005-0.14001-2.11005-0.07001-3.11005-0.45001c-1.31-0.48999-2.81-0.51996-4.17999-0.73999
		c-3.06-0.51001-6.12-1.08997-9.14996-1.79999c-6.01001-1.40002,0.35156-9.75598-5.15845-12.55597
		c0.58997-3.95001-5.6347-5.85278-6.60474-9.71277c-0.52002-2.10004,0.35999-2.20129,0-4.3313
		c-0.32001-1.91992-8.19684-1.52997-7.86682-3.43994c-0.11005,0.09998-0.21002,0.19995-0.33002,0.32001
		c-0.92999,0.97998-2.01001,1.82996-3.03998,2.69995c-7.66003,6.49005-15.51001,12.77002-23.52002,18.83002
		c-2.42999,1.83002-4.91003,3.66998-6.83002,6.03998c-1,1.23004-1.77997,2.63-2.39001,4.09003
		c-0.28998,0.70001-0.48999,1.41998-0.87,2.07001c-0.35999,0.59998-0.51996,1.19-0.67999,1.87
		c-0.35999,1.56-0.58997,3.15997-0.65997,4.76001c-0.16003,3.20001,0.26001,6.42999,1.25,9.46997
		c2.79999,8.58002,9.66998,15.06,15.06,22.29004c0.81,1.08997,1.5,2.25,2.08002,3.44995
		c4.94995,4.24005,9.89996,8.48004,14.84998,12.72003c3.51001,3.02002,7.02997,6.02997,10.53998,9.03998
		c1.69,1.45001,3.38,2.89001,5.07001,4.34003c0.84003,0.71997,1.67999,1.44,2.53003,2.16998
		c0.5,0.41998,1.09998,0.82001,1.52997,1.33002c0.41998,0.51001,0.72003,1,1.23004,1.45001
		c0.66998,0.59998,1.33997,1.19995,2.00995,1.79999c1.34003,1.20001,2.70001,2.39001,4.06,3.57001
		c5.35004,4.65997,10.80005,9.20001,16.35004,13.62c1.95001,1.54999,3.92999,3.09998,6.22998,4.06
		c3.60999,1.5,7.47003,0.89001,11.22003,0.42999c1.82996-0.22998,3.65997-0.46002,5.47998-0.70001
		c3.65997-0.46997,7.31-0.96997,10.95001-1.48999c3.20001-0.46002,6.39996-0.92999,9.58997-1.42999
		c1.13-0.16998,2.26001-0.35004,3.39001-0.53003c2.14001-0.32996,4.27002-0.73999,6.40997-1.03998
		c0.35004-0.03998,0.64001-0.03998,0.98004,0c1.58997,0.21002,3.32001-0.15997,4.90997-0.32001
		c3.60004-0.39001,7.19-0.84998,10.75-1.44c4.32001-0.70001,8.60999-1.58002,12.84003-2.69
		c6.51001-1.70001,12.88-3.91998,19.33002-5.83997c9.16998-2.72003,18.50995-4.80005,27.84998-6.89001
		c-0.19-0.38-0.38-0.77002-0.56-1.16003c-3.34003-6.94995-6.03998-14.14996-8-21.57996
		c-0.48999-1.85004-0.92999-3.71002-1.32001-5.59003c-23.28003,5.79999-47.46997,8.67999-71.46002,9.44
		c0.48004-3.64996,0.87-7.32001,1.09003-11C835.31,716.14996,836.03003,705.32996,836.82001,694.44z"/>
	<path class="st12" d="M824.42999,832.21997c-0.06,0.07001-0.15997,0.09003-0.25,0.10999
		c-0.10999,0.03003-0.22998,0.06006-0.33997,0.08002c0,0,0,0-0.01001,0c-0.77002,0.19-1.53003,0.38-2.31,0.56
		c-1.21002,0.29004-1.11261,4.91943-2.32257,5.20941c-2.02002,0.48999-4.29547,1.36627-6.31543,1.84625
		c-0.48004,0.12-0.97003,0.28003-1.46002,0.34003c-0.28998,0.03998-0.57001-0.02002-0.85999-0.01001
		c-0.28003,0.01001-0.74951-0.23773-1.01947-0.16772c-1.15002,0.31-1.85095,0.79846-3.01099,1.06842
		c-2.40997,0.56-4.33893,0.51703-6.79895,0.77704c-3.25,0.33002-5.18018,1.1955-8.45013,1.16553
		c-3.35004-0.04004-10.33252-1.23267-13.6825-1.2627c-1.40002-0.01996-2.68195,0.82098-4.09198,0.79095
		c-4.01001-0.06995-9.88928-1.75073-13.88928-2.15076c-1.99005-0.20001-2.88641-0.62128-4.85638-0.97125
		c-0.98999-0.16998-3.00226,3.35205-3.98224,3.12201c-3.65002-0.84998-5.15009-8.41718-8.74011-9.54718
		c-0.27997-0.09003-0.57001-0.17999-0.84998-0.27002c-0.21002-0.06-0.42999-0.14001-0.56-0.32001
		c-0.09998-0.14996-0.10999-0.33997-0.13-0.51996c-0.10999-1.80005-0.21997-3.60004-0.34003-5.40002
		c-0.01996-0.40002-0.04999-0.81,0.02002-1.21002c0.21002-1.14996,1.14001-2,2.03003-2.76996
		c0.13995-0.12,0.27997-0.23999,0.42999-0.35004c0.04999,0.04004,0.09998,0.07001,0.14996,0.10004
		c9.34003,5.88995,20.96002,4.70001,31.99005,4.33997c3.14996-0.10999,6.31-0.39996,9.44995-0.16998
		c2.56,0.17999,5.08002,0.71002,7.63,1.01001c0.60999,0.07001,1.23004,0.13,1.84003,0.16998
		c10.54999,0.76001,21.35999-2.56,29.64001-9.16998c0.04999,0.02002,0.09998,0.04999,0.13995,0.08002
		c0.05005,0.01996,0.09003,0.03998,0.14001,0.06995c-0.09998,0.98004,1.56525,1.41534,1.46527,2.39532
		c-0.03998,0.32001-0.29626,1.1001-0.41626,1.40009c-0.10999,0.30005-0.26404,1.06433-0.45404,1.32434
		c-1.04999,1.41003-1.52301,1.84418-2.57306,3.25421c0.69,0.89996,2.00708,0.23895,3.0271,0.71893
		c1.02997,0.49005,0.96948,2.31342,1.05951,3.44342C825.74854,831.42627,824.52002,832.13,824.42999,832.21997z"/>
	<path class="st13" d="M817.08002,574.38c-2.74048-4.69031-7.99542-7.09729-10.47003-11.96002
		c0-0.01001-0.01001-0.02002-0.01001-0.02997c-3.22046-4.42969-5.56549-9.97668-7.8056-14.95575
		c-0.28931-0.56726,0.77765-1.64722-0.19598-2.06622c1.98944-0.73663,3.78296-0.61353,5.76862-1.44983
		c0.53473-0.22522,0.97626-1.17535,1.44299-1.5282c0.00024-0.24335-0.00989-0.49664-0.02002-0.74005
		c-4.20367-7.06165-13.36298-15.75134-20.21991-21.11017c-4.23004-2.42981-9.05005-3.7998-13.89008-4.24982
		c-11.75726-1.08521-30.5929,4.39557-40.2403,11.25922c-5.61475,6.26056-8.59497,14.62219-10.18994,22.78064
		c-3.48328,18.02753,2.65643,31.76642,16.91095,42.85974c3.84674,3.56744,9.43597,5.3313,12.39929,9.87042
		c4.16016,8.04932,8.32812,16.85596,8.00031,26.06989c-0.0025,2.24237-0.13501,4.48694-0.39752,6.716
		c-0.28308,2.4035-3.71429,5.07385-4.2998,7.41895c-0.62659,1.64655,2.07764,10.28674,3.46399,11.34607
		c9.52075,8.99011,31.66333,17.37543,31.66333,17.37543c0.58551,0.28644,2.74792-2.55194,3.3197-2.24634
		c1.58417-7.08649,9.28674-13.21832,10.87701-20.31299c2.85956-11.59308-7.61725-10.59192-9.92761-19.02686
		c-0.49591-3.92981-1.08429-8.50317-0.92938-12.64014c-5.95221-1.70624-7.26099-6.96436-10.58301-12.14966
		c-1.86017-2.59985-2.71924-7.36438-4.50928-10.0144c-1.02997-1.53998-2.7486-1.54169-3.58862-3.20172
		c-4.21289-8.70154-3.58136-1.12994-1.79187-10.56842c2.30939,7.94293,6.36169,25.0824,18.42963,19.9455
		c3.13177-1.34851,5.72662-5.92822,6.26782-8.82513c3.80847-6.23163,8.00684-12.16827,15.10529-11.61621
		c-0.02997-0.10999-0.06-0.22998-0.08997-0.33997C814.36646,580.16443,819.69415,577.99005,817.08002,574.38z M785.87946,550.68652
		c-1.7453,1.03754-3.59637,1.91565-5.27649,3.03949c-1.02985,0.78021-0.65137,0.98077-1.70135,1.72076
		c0.01996-0.65997-0.05798-0.21118,0.17206-0.84119c0.34998-0.98999,0.85187-0.74786,1.70184-1.29785
		c2.89972-2.03168,5.92902-3.33167,9.13434-4.76208c0.34991-0.1601,1.0575-0.22278,1.4375-0.1828
		c0.27002,0.02002,0.88538-0.3587,1.12537-0.23871c0.75,0.35999-0.68176,0.25378,0.06824,0.61383
		C789.78094,550.04797,788.70947,549.56653,785.87946,550.68652z"/>
	<path class="st13" d="M806.59998,562.39001c-1.45996-1.76001-2.69366-3.41382-3.64368-5.50378
		c-0.87-1.92004-1.71082-3.45117-2.59076-5.37115c-0.46002-1-1.47839-3.57489-1.84839-4.61487
		c0.13,0.01001,1.17517-1.59149,1.30518-1.63153c1.62-0.57001,1.95496,0.67914,3.57495,0.11914
		c0.19-0.07001,0.7041-0.18451,0.83411-0.33453c0.13-0.14001-0.36768-0.29962-0.3277-0.49957
		c0.16998-0.81,1.79633-1.18372,1.91632-2.00372c0.21997,5.96002,0.27002,11.89001,0.51001,17.84998
		C806.35999,561.07001,806.39001,561.76001,806.59998,562.39001z"/>
	<path class="st14" d="M813.85999,593.56c-0.07996-0.57001-0.03998-1.12-0.12-1.70001
		c-0.16998-1.22998-0.35999-2.46002-0.58002-3.67999c-0.40997-2.29999-0.90997-4.58002-1.5-6.84003v-0.01001
		c-0.35999-0.03998-0.70996-0.06995-1.06995-0.07996c-0.64001-0.02002-1.28003,0.01001-1.92004,0.08997
		c-0.73999,0.09003-1.44,0.05005-2.19,0.17004c-1.63,0.25995-3.22998,0.70996-4.76001,1.33997
		c-2.88995,1.17999-5.52997,2.97003-7.62994,5.28003c-0.54004,0.57996-1.04004,1.19995-1.34003,1.92999
		c-0.39001,1.01001-0.34998,2.13-0.57001,3.19c-0.39996,1.90997-1.71002,3.59998-3.46002,4.45996
		c-1.75,0.86005-3.88995,0.87-5.63995,0.02002c-0.23004-0.10999-0.46002-0.23999-0.67999-0.37
		c-1.58002-1-2.71002-2.56-3.72003-4.09003c-1.25-1.88995-2.25-4-3.16998-6.06c-1.06-2.32996-1.97003-4.72998-2.79004-7.15997
		c-0.81995-2.45001-1.53998-4.91998-2.21997-7.40997c-0.34003-1.30005-0.67999-2.60004-1.01001-3.90002
		c-0.14996-0.59998-0.28998-1.20001-0.44-1.79999c-0.08002-0.29999-0.14996-0.61005-0.21997-0.91003
		c-0.02002-0.06-0.15002-0.45001-0.15002-0.57001c-0.27002,1.24005-0.46002,1.77002-0.63,3.03003
		c-1.12,8.65997-2.15997,17.92999,1.76001,25.73999c0.84003,1.66003,1.88,3.21002,2.90997,4.75
		c1.79004,2.65002,3.57001,5.31,5.43005,7.91003c1.17999,1.66998,2.40997,3.31995,3.82996,4.78998
		c0.72003,0.73999,1.48999,1.58997,2.42004,2.08002c0.21997,0.12,0.45996,0.19995,0.67999,0.33997
		c0.32001,0.21002,0.58997,0.5,0.88995,0.72998c1.30005,1.04004,2.86005,1.65002,4.40002,2.22003
		c0.06,0.02997,0.12,0.04999,0.17999,0.07001c0.59003,0.21997,1.17999,0.44,1.78003,0.64001
		c0.07996-0.33002,0.19-0.64001,0.34998-0.95001c4.95001-0.29004,10.01001-1.66998,14.53003-3.71002
		c2.15997-0.97998,4.32001-2.20996,5.59998-4.20001c1.28998-2.00995,1.52002-4.5,1.56-6.88995
		C814.41998,599.17999,814.23999,596.35999,813.85999,593.56z M810.04596,593.05969
		c-0.09003,0.66998-1.62451,1.85626-1.57446,2.53625c0.12,1.72998-0.35168,1.67084-0.88171,3.32086
		c-0.16998,0.56-0.00494,1.39941-0.31494,1.8894c-0.82001,1.23004-1.31415,0.25275-2.72412,0.69275
		c-1.59003,0.5-0.24634,0.33893-1.93634,0.18896c-0.92999-0.08002-0.8045,0.42102-1.57452-0.18896
		c-0.66003-0.53003-0.71173-0.50256-0.88171-1.32257c-0.21997-1.03998-0.58185-1.25732-0.25189-2.26727
		c0.80005-2.37,0.85406-1.99683,2.83405-3.52686c0.97003-0.75,2.56287-1.41809,3.65283-1.98804
		c0.83002-0.45001,0.62152-1.00995,1.51154-1.34991c0.67999-0.25,0.76416-0.52594,1.38416-0.12592
		C810.24878,591.51837,810.19598,591.8797,810.04596,593.05969z"/>
	<path class="st14" d="M794.87,548.45001c-2.76001,1.31-5.88,1.62-8.71002,2.73999
		c-0.66998,0.26996-1.31995,0.57996-1.94995,0.91998c-1.14001,0.62-2.21002,1.34003-3.24005,2.10999
		C779.94,555,779,555.91998,777.95001,556.65997c0.01996-0.65997,0.15997-1.40997,0.39001-2.03998
		c0.34998-0.98999,1.16998-1.57001,2.01996-2.12c1.54999-1.02002,3.22003-1.81,4.91003-2.58002
		c1.82996-0.84003,3.66998-1.67999,5.5-2.52002c0.34998-0.15997,0.71997-0.32996,1.09998-0.28998
		c0.27002,0.02002,0.51001,0.14001,0.75,0.26001C793.37,547.72998,794.12,548.08997,794.87,548.45001z"/>
	<g>
		<path class="st14" d="M762.85394,565.40533c-0.55115-0.64191-1.17773-1.23193-1.91516-1.61725
			c-0.72864-0.38873-1.59198-0.5213-2.3623-0.31708c-0.80463,0.17261-1.27936,0.8338-1.91687,1.45972
			c-0.67615,0.62646-1.54187,0.91827-2.30591,1.23682c-0.77765,0.31433-1.47186,0.69434-1.92517,1.32758
			c-0.46167,0.62268-0.71033,1.40607-0.77466,2.19653c-0.12274,1.60303,0.47351,3.20398,1.05035,4.78058
			c1.125,3.17401,2.57367,6.23993,4.25031,9.15515c0.82062,1.41815,1.95343,2.79688,3.58459,3.11938
			c1.59045,0.34894,3.40485-0.23175,4.47437-1.5611c-0.93835,1.44012-2.79999,2.17761-4.5412,1.92267
			c-0.87799-0.13855-1.69977-0.57562-2.35309-1.16321c-0.66333-0.58453-1.18835-1.2923-1.65521-2.0141
			c-1.80951-2.90454-3.26648-6.00354-4.46375-9.20276c-0.55176-1.59033-1.18134-3.27771-1.02496-5.09698
			c0.08588-0.89355,0.37549-1.78754,0.93628-2.52582c0.5498-0.76599,1.43744-1.19684,2.23291-1.47278
			c0.80414-0.29431,1.59979-0.53693,2.20221-1.05499c0.30615-0.25854,0.58661-0.58264,0.93158-0.8689
			c0.34265-0.29095,0.77344-0.50702,1.21527-0.59381c0.8902-0.17279,1.80579,0.0451,2.54205,0.50079
			C761.78284,564.06451,762.36572,564.71466,762.85394,565.40533z"/>
	</g>
	<path class="st13" d="M811.56,592.29999c-0.09003,0.66998-0.09003,1.25-0.03998,1.92999
		c0.12,1.72998-0.08002,3.48999-0.61005,5.14001c-0.16998,0.56-0.38995,1.09998-0.69995,1.58997
		c-0.82001,1.23004-2.23004,1.94-3.64001,2.38c-1.59003,0.5-3.37,1.13-5.06,0.98004c-0.92999-0.08002-1.85999-0.10004-2.63-0.71002
		c-0.66003-0.53003-1.09003-1.32001-1.26001-2.14001c-0.21997-1.03998-0.03998-2.14001,0.28998-3.14996
		c0.80005-2.37,2.48004-4.37,4.46002-5.90002c0.97003-0.75,2.01001-1.40002,3.09998-1.96997
		c0.83002-0.45001,1.69-0.92004,2.58002-1.26001c0.67999-0.25,1.28003-0.23004,1.90002,0.16998
		C810.90997,589.95996,811.71002,591.12,811.56,592.29999z"/>
	<path class="st14" d="M805.82001,542.53998v0.01001c-0.12,0.82001-0.35004,1.65002-0.52002,2.46002
		c-0.03998,0.19995-0.08997,0.39996-0.21997,0.53998c-0.13,0.15002-0.32001,0.21997-0.51001,0.28998
		c-1.62,0.56-3.20325,1.2395-4.82324,1.80951c-0.13,0.04004-0.83545-0.0282-0.96545-0.03821l0.03967,0.10529
		c-0.32996-0.91998-0.711-1.81653-0.85101-2.76654c0.17999-0.06,0.92004-0.27002,1-0.29004
		c0.36005-0.08997,0.71002-0.19,1.07001-0.28998c1.22003-0.32001,2.45001-0.60999,3.69-0.89001
		c0.33002-0.08002,0.66003-0.15002,0.97003-0.32001c0.39996-0.21997,0.71997-0.56,1.10999-0.76996
		C805.82001,542.44,805.82001,542.48999,805.82001,542.53998z"/>
	<g>
		<path class="st14" d="M801.90344,595.5921c1.38751-0.35718,2.6366-0.71332,3.84418-1.24908
			c1.21606-0.51617,2.32965-1.18274,3.5412-1.94879c-0.62366,1.30859-1.82086,2.28284-3.1441,2.86591
			C804.81317,595.82416,803.28455,596.03052,801.90344,595.5921z"/>
	</g>
	<g>
		<path class="st15" d="M734.60706,771.41132c0.94177,1.07629,1.84857,2.1684,2.8252,3.18298
			c0.98169,1.00763,2.00128,1.96918,3.1333,2.77515c1.11877,0.81714,2.35345,1.47046,3.65778,1.94269
			c1.3075,0.46393,2.70312,0.69971,4.13196,0.65497c-1.39319,0.35669-2.89331,0.26825-4.30109-0.10339
			c-1.41675-0.36432-2.7406-1.04016-3.92755-1.88666c-1.17609-0.86078-2.22406-1.87939-3.12469-3.00244
			C736.09418,773.85645,735.29578,772.66522,734.60706,771.41132z"/>
	</g>
	<path class="st16" d="M792.19257,669.49451c1.55316,7.99188,2.88751,15.81885,3.62103,23.92712
		c0.37616,4.15753,0.6441,8.32483,0.80286,12.49628c0.04211,1.1059,0.19482,2.1806-0.14484,3.23877
		c-0.43085,1.34247-0.41522,2.76636-0.46301,4.16925c-0.05817,1.70581-0.05829,3.41357-0.00031,5.11938"/>
	<path class="st16" d="M795.1438,827.50989c2.42999-14.21997,2.12622-32.79987,2.43622-47.23987"/>
	<g>
		<path class="st15" d="M803.83215,739.09906c2.77808-0.83649,5.62299-1.37714,8.47583-1.84369
			c1.4295-0.21503,2.8595-0.42474,4.29852-0.5636c1.4353-0.11957,2.95844-0.15015,4.35938,0.28583
			c-1.45764-0.04645-2.84406,0.24304-4.26019,0.48822c-1.41272,0.29572-2.83087,0.54681-4.25146,0.7782
			C809.60773,738.67706,806.75336,739.03589,803.83215,739.09906z"/>
	</g>
	<path class="st17" d="M879.40997,1131.25c-1.42999,0.53003-2.87,1.05005-4.31,1.57007
		c-4.8645,1.76782-8.37512,7.88025-13.30334,9.52332c-4.15924,1.38672-9.72876-1.67004-13.91663-0.44348
		c-1.31,0.38013-2.62,0.76001-3.92999,1.12012c-0.01001-0.03003-0.02002-0.06006-0.04004-0.1001
		c-2.5-6.26001-3.84998-12.8999-5.00995-19.52002c-1.16003-6.63989-2.12-13.32983-3.87-19.83984
		c-0.88-3.25-2.14001-6.29004-3.27002-9.45007c-0.38-1.06995-0.52002-2.12-0.60004-3.23999
		c-0.19-2.46008-1.15997-4.77002-1.90997-7.09998c-2.28003-7.08008-4.42999-14.19006-6.46002-21.33008
		c-2.02997-7.1499-3.94995-14.32996-5.73999-21.54004c-0.89001-3.59985-1.75-7.20996-2.58997-10.82983
		c-0.5-2.17017-0.96002-4.34009-1.56-6.4801c-2.49005-8.79999-5.39484-22.02692-6.17004-24.65997
		c-1.46997-3.28003-2.16998-6.88-2.97998-10.44c0-0.02002-0.01001-0.03998-0.01001-0.04999
		c-0.51001-2.26001-1.06-4.51001-1.88-6.66003c-1.37-3.62-3.45996-6.91998-5.54999-10.17999
		c-2.73999-4.31-5.48999-8.62-8.22998-12.91998c-1.19-1.87-2.40002-3.73999-3.58002-5.62c-0.81-1.29004-0.90997-2.60004-1.5-3.96002
		c-0.69-1.59998-1.64001-3.12-2.46002-4.65997c-1.22998-2.32001-2.44995-4.63-3.66998-6.95001
		c-2.53998-4.82001-5.04999-9.66003-7.53998-14.52002c-4.81-9.39996-9.54004-18.84998-14.17004-28.34998
		c-0.72998-3.17999-1.66998-6.33002-2.88995-9.41998c-1.98999-5.06-3.98004-10.13-5.97003-15.19
		c-0.97998-2.49005-1.95996-4.98004-2.71997-7.54004c-2.81-9.44-2.54004-19.48999-1.54004-29.28998
		c3.59003,1.13,7.25,1.98999,10.90002,2.83997c0.97998,0.23004,1.96002,0.42004,2.95001,0.59003
		c1.96997,0.34998,3.95996,0.60999,5.95001,0.81c4,0.40002,8.01996,0.53003,12.02997,0.59998
		c1.41003,0.03003,2.82001,0.04004,4.22003,0.06c3.34998,0.03003,6.69995,0.07001,10.04999,0.11005
		c3.26996,0.02997,6.53998,0.07001,9.78998-0.26001c2.46002-0.26001,4.89001-0.72003,7.29999-1.28003
		c1.16003-0.26996,2.32001-0.56,3.47003-0.87c0.26996-0.07001,0.53998-0.14996,0.82001-0.15997
		c0.28998-0.01001,0.57001,0.04999,0.85999,0.01001c0.48999-0.06,0.97998-0.22003,1.46002-0.34003
		c2.01996-0.47998,4.02997-0.96002,6.04999-1.45001c1.20996-0.28998,2.41998-0.57996,3.63-0.87
		c0.07001,0.08002,0.13,0.16003,0.19,0.23999c1.64996,2.26001,2.31,5.07001,2.92999,7.80005
		c1.03998,4.56,2.07001,9.12,3.07001,13.67999c1.14996,5.31,2.25,10.63995,3.22998,15.98999
		c0.48999,2.66998,0.94,5.34998,1.35999,8.02997c0.16003,1.02002,0.39001,1.82001,0.77002,2.76001
		c0.35999,0.90002,0.40997,1.85999,0.54999,2.81c0.41998,2.95001,0.89001,5.89001,1.41003,8.83002
		c1.81995,10.21002,4.21997,20.32001,7.18994,30.26001c1.49005,4.96997,3.12006,9.89001,4.90002,14.77002
		c0.88,2.42999,1.81,4.85999,2.76001,7.26996c0.44,1.10004,0.77997,2.40002,1.45001,3.38c2.16998,3.17999,3.69,7.06,4.44,10.85004
		c0.53998,2.70996,0.63,5.47998,0.88995,8.22998c0.22003,2.39001,0.84003,4.65997,0.80005,7.06
		c-0.03003,1.58002,0.40997,3.14001,0.65997,4.69c0.59003,3.62,0.91003,7.28998,1.14001,10.95001
		c0.45001,7.35999,0.48999,14.75,1.33002,22.07996c0.21997,1.92999,0.56,3.62,0.33997,5.52002
		c-0.14001,1.26001,0.23999,2.62,0.42999,3.85999c0.44,2.91998,0.89001,5.84003,1.33002,8.76007
		c1.13,7.42993,2.26001,14.86987,2.79999,22.36987c0.10999,1.55005,0.35004,3.11011,0.54999,4.67004
		c0.92004,7.13,2.67004,14.13,4.17004,21.16003c0.75995,3.52002,1.44995,7.05005,1.94995,10.60999
		c0.12006,0.88,0.29004,1.78003,0.33002,2.66003c0.02002,0.56006-0.17999,1.06995-0.20001,1.63
		c-0.08997,1.73999,0.30005,3.62,0.52002,5.33997c0.28003,2.20996,0.62,4.40002,1,6.59009
		c0.77002,4.38989,1.70001,8.73999,2.63,13.08984C877.40997,1123.43994,878.44,1126.70996,879.40997,1131.25z"/>
	<path class="st18" d="M806.72998,998.92999c-2.20996,7.98999-7.63,13.75-10.52997,21.82001
		c-0.04004,0.09998-0.08002,0.20996-0.12,0.31c-2.52002,6.99005-5.15002,13.94-7.88,20.84991
		c-2.73004,6.90015-5.57001,13.77002-8.51001,20.59009c-1.47003,3.40991-2.96002,6.81006-4.48999,10.19995
		c-0.60999,1.37012-1.08002,2.48999-1.21002,3.96997c-0.14996,1.71008-1.03998,3.37012-1.67999,4.93005
		c-1.71997,4.14001-3.67999,8.18005-5.17999,12.40002c-2.34998,6.57996-3.57001,13.52002-6.07001,20.04004
		c-0.19,0.51001-0.46002,1.06995-0.96997,1.23999c-0.32001,0.10999-0.67004,0.03003-0.99005-0.04004
		c-1.32996-0.29004-2.65997-0.59009-3.97998-0.88c-1.21002-0.27002-3.7616,2.15869-4.97162,1.88867
		c-2.58997-0.57007-4.88983-0.80005-7.37982-1.70996c-2.89001-1.07007-6.70972,0.57996-9.53973-0.63
		c-1.50995-0.63989-0.85883-7.52869-2.3988-8.19873c-2.65002-1.13989-5.34003-2.22998-8.04999-2.91992
		c4.34998-8.58008,6.72998-17.98999,10.12-26.98999c2.13-5.63013,4.63-11.11011,6.96997-16.65015
		c2.63-6.22998,5.09003-12.57983,6.48999-19.20996c0.35004-1.62988,0.63-3.27002,0.83002-4.92993
		c0.19-1.63,0.14001-3.31006,0.39001-4.93005c0.16998-1.10999,0.70001-2.09998,0.85999-3.21997
		c0.54999-4.07001,1.02002-8.09003,1.91998-12.09998c0.95001-4.24005,2.17999-8.42004,3.69-12.49005
		c0.34003-0.94,0.71002-1.87994,0.77002-2.87994c0.08002-1.09003-0.22003-2.17004-0.42999-3.25
		c-0.98999-4.93005,0.15997-10.5,2.40997-15c-1.82001-2.90002-3.39001-6.21002-3-9.61005
		c0.39001-3.39996,3.46002-6.66998,6.83002-6.10999C754.60999,942.37,760.37,917.45001,755.15997,894.62
		c4.63,9.5,9.36005,18.95001,14.17004,28.34998c2.48999,4.85999,5,9.70001,7.53998,14.52002
		c1.22003,2.32001,2.44,4.63,3.66998,6.95001c0.82001,1.53998,1.77002,3.06,2.46002,4.65997
		c0.59003,1.35999,0.69,2.66998,1.5,3.96002c1.17999,1.88,2.39001,3.75,3.58002,5.62
		c2.73999,4.29999,5.48999,8.60999,8.22998,12.91998c2.09003,3.26001,4.17999,6.56,5.54999,10.17999
		c0.82001,2.15002,1.37,4.40002,1.88,6.66003C804.54999,992.01996,805.25,995.63,806.72998,998.92999z"/>
	<path class="st17" d="M827.69,831.29999c-0.12,0.15997-0.32001,0.23999-0.5,0.31c-1.07001,0.42999-2.20001,0.87-3.34998,0.79999
		c0.10999-0.01996,0.22998-0.04999,0.33997-0.08002c0.09003-0.01996,0.19-0.03998,0.25-0.10999
		c0.09003-0.08997,0.10004-0.22998,0.08002-0.34998c-0.09003-1.13-1.15002-1.91998-2.17999-2.41003
		c-1.02002-0.47998-2.17004-0.87-2.86005-1.76996c1.05005-1.41003,2.11005-2.81,3.16003-4.22003
		c0.19-0.26001,0.39001-0.51996,0.5-0.82001c0.12-0.29999,0.15002-0.62,0.19-0.94c0.09998-0.97998,0.20001-1.95996,0.29999-2.94
		c-0.04999-0.02997-0.08997-0.04999-0.14001-0.06995c0.04004-0.02002,0.10004-0.01001,0.16003,0
		c0.34998,0.06995,0.69,0.15997,1.01996,0.25995c0.73004,0.23004,1.45001,0.57001,1.97003,1.15002
		c0.88,0.98999,0.96997,2.42999,1.02002,3.76001c0.06995,2.21997,0.13995,4.44,0.19995,6.65997
		C827.85999,830.79999,827.85999,831.08997,827.69,831.29999z"/>
	<path class="st19" d="M806.20142,681.67743c0,2.59454-1.80933,4.70264-4.05396,4.70264c-2.23608,0-4.04541-2.10809-4.04541-4.70264
		c0-2.60303,1.80933-4.71112,4.04541-4.71112C804.39209,676.96631,806.20142,679.0744,806.20142,681.67743z"/>
	<path class="st20" d="M809,802.62c0,2.64996-1.69,4.79999-3.78003,4.79999c-2.08997,0-3.78998-2.15002-3.78998-4.79999
		c0-2.65002,1.70001-4.79999,3.78998-4.79999C807.31,797.82001,809,799.96997,809,802.62z"/>
	<path class="st13" d="M755.12,1114.35999c-1.08002,5.29993-2.79999,11.21997-4.52997,16.28992
		c-0.18005,0.51001-0.36005,1.03003-0.59003,1.52002c-0.15002,0.34009,0.80786,2.18896,0.58789,2.4989
		c-0.63,0.88013,0.02441,3.44824-0.80554,4.14832c-1.60004,1.37-3.70245,1.1604-4.75244,2.98035
		c-0.22998,0.40002-1.5434,0.51587-1.97345,0.6958c-0.41998,0.16003-1.5838,0.12891-2.01379-0.01111
		c-0.66003-0.22009-1.56921-0.11316-2.15924-0.48328c-2.19-1.38989-4.19122-1.55579-6.70123-2.29578
		c-1.52997-0.43994-3.78638-0.24451-5.31635-0.68457c-0.94-0.27002-0.98242-0.99048-1.81238-1.53052
		c-0.39001-0.25-0.50549-0.84839-0.80548-1.20825c-0.11005-0.13013-0.85608-0.16211-0.88605-0.32214
		c-0.01001-0.05005-0.66919-0.71521-0.68921-0.76526c-0.08997-0.32007,0.09003-1.74414,0-2.06409
		c3.57001-8.44006,6.48724-18.11829,8.08728-27.13831l0.07001-0.28003c1.53998,0.67004,3.07001,1.36011,4.57996,2
		c2.83002,1.20996,5.53003,2.70996,8.42004,3.78003c2.48999,0.90991,5.07001,1.48999,7.65997,2.06006
		C752.70001,1113.82007,753.90997,1114.08997,755.12,1114.35999z"/>
	<path class="st21" d="M788.71997,1215.52002c-0.14996,2.68994-2.06,4.96997-4.20996,6.58997
		c-6.20001,4.66003-14.47003,5.25-22.22998,5.38c-3.11005,0.05005-6.22003,0.05005-9.33002-0.15002
		c-4.5-0.29993-8.96002-1.03992-13.38-1.97998c-4.19-0.88-8.38-1.95007-12.21002-3.85999
		c-0.26001-0.13-0.51996-0.26001-0.76996-0.39001c-2.11005-1.13-4.09003-2.53992-5.78003-4.25
		c-0.83002-0.84998-1.59003-1.77002-2.25-2.76001c-0.52997-0.79993-0.79999-1.59998-1.16998-2.48999
		c-1.44-3.43005-2.88-6.85999-4.31-10.29993c-1.57001-3.7301-3.14001-7.4801-5.32001-10.90015
		c-1.72998-2.69995-3.81-5.13989-5.72003-7.70996c-4.08997-5.5-7.40997-11.52002-10.71997-17.52002
		c-0.19-0.34998-0.39001-0.72998-0.35004-1.13989c0.07001-0.58008,0.62006-0.96997,1.12006-1.28003
		c1.10999-0.69995,2.21997-1.39001,3.32996-2.09009c0.67999-0.41992,1.36005-0.91992,2.06-1.34985
		c0.35004-0.22009,0.70001-0.41016,1.06-0.57007c1.06-0.46997,1.63,1.01001,2.14001,1.71997
		c0.72003,1.02002,1.44,2.03003,2.16998,3.05005c1.71002,2.37988,3.43005,4.76001,5.17004,7.12
		c3.21997,4.38,6.54999,8.68994,8.94995,13.58997c1.11005,2.28003,2.05005,4.64001,2.80005,7.06006
		c0.38,1.21997,0.69995,2.43994,0.97998,3.67993c0.17999,0.82007,0.35999,1.56006,0.65002,2.3501
		c1.19,3.25989,2.16998,6.59985,2.92999,9.98999c0.35999,1.61987,0.66998,3.27991,1.37,4.79993
		c0.53998,1.17004,1.33002,2.26001,2.40997,2.98999c0.25,0.17004,0.54004,0.38,0.84003,0.47009
		c1.19,0.34985,2.52997,0.46997,3.76996,0.70996c4.04004,0.79004,8.09003,1.57996,12.13,2.35999
		c6.59003,1.28992,13.23004,2.57996,19.94,2.69995c7.15002,0.13,14.79004-1.31995,19.89001-6.33997
		c0.60004-0.59009,1.41003-1.25,2.17999-1.44995c0.48999-0.14014,0.97003-0.09009,1.37,0.27991
		C788.66998,1214.25,788.75,1214.91992,788.71997,1215.52002z"/>
	<path class="st18" d="M786.85999,1213.55005c-0.76996,0.19995-1.57996,0.85986-2.17999,1.44995
		c-5.09998,5.02002-12.73999,6.46997-19.89001,6.33997c-6.70996-0.12-13.34998-1.41003-19.94-2.69995
		c-4.03998-0.78003-8.08997-1.56995-12.13-2.35999c-1.23999-0.23999-2.57996-0.36011-3.76996-0.70996
		c-0.29999-0.09009-0.59003-0.30005-0.84003-0.47009c-1.07996-0.72998-1.87-1.81995-2.40997-2.98999
		c-0.70001-1.52002-1.01001-3.18005-1.37-4.79993c-0.76001-3.39014-1.73999-6.7301-2.92999-9.98999
		c-0.29004-0.79004-0.47003-1.53003-0.65002-2.3501c-0.28003-1.23999-0.59998-2.45996-0.97998-3.67993
		c-0.75-2.42004-1.69-4.78003-2.80005-7.06006c-2.39996-4.90002-5.72998-9.20996-8.94995-13.58997
		c-1.73999-2.35999-3.46002-4.74011-5.17004-7.12c-0.72998-1.02002-1.44995-2.03003-2.16998-3.05005
		c-0.51001-0.70996-1.08002-2.18994-2.14001-1.71997c-0.35999,0.15991-0.70996,0.34998-1.06,0.57007
		c-0.22998-0.57007-0.34998-1.16016-0.31-1.79004c0.14001-2.27002,2.23999-3.81006,4.07001-5.16003
		c4.79004-3.53003,8.96002-7.89001,12.26001-12.83997c0.96002-1.44006,1.84998-2.94006,3.04999-4.18005
		c1.21002-1.23999,2.78003-2.22998,4.5-2.32996c0.75-0.04004,1.48999,0.07996,2.23999,0.20996
		c0.02002,0.05005,0.04004,0.10999,0.05005,0.16003c0.02997,0.16003,0.07996,0.2699,0.19,0.40002
		c0.29999,0.35986,0.71997,0.65991,1.10999,0.90991c0.82996,0.54004,1.75,0.90002,2.69,1.17004
		c1.52997,0.44006,3.12,0.65002,4.64996,1.08997c2.51001,0.73999,4.76001,2.09009,6.95001,3.47998
		c0.59003,0.37012,1.25,0.45996,1.91003,0.68005c0.42999,0.14001,0.89996,0.27002,1.31995,0.10999
		c0.43005-0.17993,0.68005-0.62,0.91003-1.02002c1.04999-1.81995,2.40997-3.45996,4.01001-4.82996
		c0.82996-0.70007,1.73999-1.34998,2.37-2.2301c0.21997-0.30994,0.39996-0.63989,0.54999-0.97998
		c0.75,0.34009,1.47998,0.70007,2.21997,1.04004c-0.06,2.53003-0.92999,4.95996-1.56,7.42004
		c-1.77997,6.97998-1.62994,14.27991-1.46997,21.48999c0.21002,9.35999-0.44,18.03992,0.75,27.32996
		c0.27002,2.04004,0.53998,4.28003-0.59003,6c1.09003-0.09998,2.29004,0.13,2.93005,1.02002
		c0.23999,0.34009,0.33997,0.76001,0.42999,1.17004c0.38,1.69995,0.75,3.40002,1.13,5.09998
		c9.33997,2.71997,19.22998,2.51001,28.66998,4.83008c1.73999,0.42993,3.66998,1.11987,4.39996,2.75989
		C787.35999,1211.33997,787.22998,1212.48999,786.85999,1213.55005z"/>
	<path class="st13" d="M883,1158.22998c-0.09998,0.05005-0.08398,0.14905-0.18396,0.20911
		c-4.64001,2.32996-1.97345,5.87866-4.06348,10.61865c-0.17999,0.40002-3.76556,0.40271-3.69556,0.83276
		c0.07001,0.44995,0.74103,0.90906,1.04102,1.24915c0.83997,0.97998,2.64734,2.67358,3.4873,3.64355
		c-0.87994,1.52002-4.59186,4.07263-6.14185,4.89258c-1.59003,0.83997-5.64313,1.61365-7.44312,1.61365
		c-1.66003,0.01001-4.85004-0.00879-6.35004-0.72876c-2.62-1.26001-5.86853-4.96338-6.81848-7.70337
		c-0.39001-1.11987-0.89105-1.995-1.04102-3.17505c-0.20001-1.59985,2.29919-4.19226,1.95917-5.76233
		c-0.27002-1.29993-0.57001-2.59985-0.88-3.88989c-0.41998-1.78003-0.83997-3.56006-1.27002-5.33008
		c-0.77997-3.15991-1.60999-6.30994-2.56995-9.41992c-0.24005-0.76001-0.47003-1.54004-0.75-2.29004
		c-0.13-0.34998-0.33002-0.70996-0.40002-1.09009c4.91418-1.43933,9.8139-3.01135,14.68683-4.66333
		c4.20032-1.42395,8.38068-2.90735,12.53314-4.4165c1.29004,5.21997,0.42004,10.85986,2.20001,15.93994
		C878.48999,1152.16992,880.72998,1155.40015,883,1158.22998z"/>
	<path class="st22" d="M848.51001,1202.05005c-0.01001-0.03003-0.02002-0.07007-0.03003-0.1001"/>
	<path class="st23" d="M952.84998,1229.76001c-2.50995,3.66992-7.27997,4.8999-11.62,5.84998
		c-0.44995,0.09998-0.88995,0.19006-1.33997,0.28992c-2.46002,0.54004-4.92999,1.08008-7.40002,1.62012
		c-1.23999,0.27002-2.46997,0.54004-3.70996,0.80994c-0.47003,0.10999-0.80005,0.12-1.27002,0.07996
		c-0.92999-0.07996-1.91003,0.1001-2.85004,0.12012c-1.42999,0.04004-2.87,0.02002-4.29999-0.05005
		c-2.41998-0.10999-4.83997-0.34998-7.23999-0.64001c-3.28998-0.40002-6.62-0.78992-9.84998-1.52991
		c-2.30005-0.53003-4.57001-1.19006-6.80005-1.9801c-1.12-0.40002-2.21997-0.81995-3.31-1.27991
		c-0.46997-0.20007-0.88995-0.27002-1.37-0.39014c-1.47998-0.38989-2.94-1.01001-4.35999-1.57996
		c-1.34998-0.53992-2.67999-1.12-4-1.72998c-2.15997-1.02002-4.27997-2.13-6.41998-3.18005
		c-1.08002-0.52002-2.16003-1.02991-3.26001-1.48999c-2.28003-0.95996-4.5-2.05994-6.73999-3.11987
		c-2.21002-1.04004-4.40002-2.12012-6.57001-3.23999c-1.09003-0.56006-2.16998-1.13013-3.25-1.71008
		c-0.47998-0.25-0.95001-0.54993-1.47003-0.71997c-2.70996-0.90002-5.40997-1.81995-8.28998-1.94006
		c-0.71997-0.03003-1.46002-0.02002-2.12-0.28003c-0.46002-0.17993-0.87-0.46997-1.22998-0.79993
		c-1.44-1.29004-2.40002-3.37-1.67999-5.15002c0.38995-0.95996,1.19-1.67993,1.96997-2.34998
		c1.15002-0.97998,2.47998-2.28003,4.14001-3.28003c-0.04999,0.83997-0.13,1.67004-0.25,2.5
		c-0.09003,0.72009-0.21002,1.47009,0,2.16003c0.27997,0.93994,1.12,1.62,2.02997,1.96997
		c0.91003,0.3501,1.90002,0.42993,2.87,0.52002c3.21002,0.31006,6.40002,0.87,9.53003,1.66992
		c8.29999,2.11011,14.32001,9.64014,22.41998,12.40015c3.88,1.32996,7.92004,2.16992,11.78003,3.55994
		c2.82001,1.02002,5.52997,2.31995,8.34998,3.31995c12.79999,4.51001,26.98999,2.44006,40-1.43994
		c2.60004-0.78003,4.42999-1.73999,6.87-2.92993c0.65002-0.31006,0.85999-0.95007,0.88-1.65015
		c0.42999,0.40015,0.69,1.05005,0.72998,1.40015C953.88,1226.96997,953.64001,1228.59998,952.84998,1229.76001z"/>
	<path class="st18" d="M952.98999,1223.92993v0.23999c-0.02002,0.70007-0.22998,1.34009-0.88,1.65015
		c-2.44,1.18994-4.26996,2.1499-6.87,2.92993c-13.01001,3.88-27.20001,5.94995-40,1.43994
		c-2.82001-1-5.52997-2.29993-8.34998-3.31995c-3.85999-1.39001-7.90002-2.22998-11.78003-3.55994
		c-8.09998-2.76001-14.12-10.29004-22.41998-12.40015c-3.13-0.79993-6.32001-1.35986-9.53003-1.66992
		c-0.96997-0.09009-1.95996-0.16992-2.87-0.52002c-0.90997-0.34998-1.75-1.03003-2.02997-1.96997
		c-0.21002-0.68994-0.09003-1.43994,0-2.16003c0.12-0.82996,0.20001-1.66003,0.25-2.5v-0.03992
		c0.01001-0.30005,0.02002-0.61011,0.02997-0.91003c0.02002-0.96008,0.01001-1.92004-0.04999-2.88
		c-0.06-0.92004-0.27002-1.86011-0.27002-2.78003c0-0.27002,0.07001-0.51001,0.13-0.77002
		c0.18005-0.73999,0.11005-1.52002,0.11005-2.28003c0.04999-4.8999,0.09998-9.79993,0.14996-14.69995
		c0.02002-1.97998,0.04004-4,0.65002-5.89001c0.90997-2.82996,3.02997-5.10999,4.20996-7.83997
		c0.09003-0.03003,0.18005-0.06006,0.28003-0.08008c0.34003,1.57007,0.63,3.15015,0.83002,4.75
		c0.14996,1.18005,0.23999,2.39014,0.63,3.51001c0.94995,2.73999,3.48999,4.62012,6.10999,5.88013
		c1.5,0.71997,3.10999,1.30994,4.77002,1.29993c1.79999,0,3.52997-0.69006,5.12-1.53003
		c1.54999-0.81995,3.07001-1.83997,3.94995-3.35999c-0.83997-0.96997-1.69-1.94995-2.52997-2.92993
		c-0.29999-0.34009-0.60999-0.70007-0.67999-1.15002c-0.07001-0.43005,0.09998-0.87,0.27997-1.27002
		c2.09003-4.73999,5.88-8.72998,10.52002-11.05994c0.08002,0.04993,0.16998,0.10986,0.25,0.16992
		c1.21997,0.93994,2.21997,2.12,3.21002,3.30005c1.81,2.1499,3.25,3.81995,5.13,5.90991
		c3.01996,3.37012,4.62994,7.17004,7.84998,10.3501c2.23999,2.21997,4.34003,4.59998,6.26001,7.10986
		c1.08002,1.41016,2.10999,2.87012,3.08002,4.37012c0.21997,0.32996,0.40997,0.71997,0.69995,0.98999
		c0.23004,0.20996,0.47003,0.37,0.67999,0.60999c1.5,1.73999,2.91003,3.54993,4.42004,5.27991
		c1.51996,1.7301,3.08997,3.42017,4.73999,5.02002c1.71997,1.68005,3.53998,3.25,5.46997,4.68005
		c0.59003,0.44006,1.17004,0.95007,1.86005,1.21008c0.28998,0.10986,0.50995,0.2699,0.73999,0.46997
		c0.58997,0.51001,1.19,1.01001,1.79999,1.5c1.21997,0.96997,2.46002,1.90991,3.72998,2.80994
		c2.54004,1.80994,5.20001,3.46008,7.94,4.94006c0.64001,0.34998,1.28003,0.67993,1.92999,1.01001
		c0.29004,0.1499,0.59003,0.33997,0.91003,0.40991c0.60999,0.14001,1.14001,0.44006,1.72998,0.69006
		c1.40002,0.60999,2.89001,1.22998,4.40002,1.43994c0.45996,0.06995,0.94,0.13,1.38,0.30005
		c1.00995,0.39001,1.78998,1.35999,1.94995,2.43005C952.95001,1223.34998,952.98999,1223.64001,952.98999,1223.92993z"/>
	<g>
		<path class="st9" d="M756.6806,981.46576c1.23596,1.62555,2.48444,3.15479,3.90436,4.53796
			c1.40509,1.39825,2.95203,2.62372,4.59454,3.83752c-1.95209-0.62872-3.70782-1.80804-5.17908-3.24445
			C758.54388,985.14545,757.3396,983.40753,756.6806,981.46576z"/>
	</g>
	<g>
		<path class="st9" d="M760.79309,965.47711c0.5589,1.9317,1.1651,3.83466,1.88647,5.6908
			c0.73016,1.85193,1.52698,3.67352,2.4458,5.43445c0.90137,1.76978,1.92175,3.47626,3.00635,5.14539
			c1.09216,1.66516,2.28998,3.26312,3.53735,4.84052c-1.50134-1.34174-2.84277-2.85962-4.06116-4.47119
			c-1.22607-1.60767-2.2879-3.33893-3.22278-5.13336c-0.91742-1.80347-1.711-3.67291-2.30762-5.60468
			C761.47217,969.45166,761.01532,967.47821,760.79309,965.47711z"/>
	</g>
	<g>
		<path class="st9" d="M802.1908,983.25586c0.63062,2.24109,1.44348,4.40808,2.43774,6.48657
			c0.99542,2.07721,2.11572,4.09399,3.38794,6.01886c1.21588,1.9613,2.5777,3.83142,3.94073,5.70453
			c1.36298,1.87408,2.77472,3.71869,4.12091,5.61932c-1.61298-1.67987-3.15082-3.42517-4.62805-5.22742
			c-1.47638-1.80273-2.84692-3.69537-4.1347-5.64801c-1.22992-1.98761-2.38312-4.03754-3.2702-6.20898
			C803.15668,987.83386,802.48492,985.56964,802.1908,983.25586z"/>
	</g>
	<path class="st13" d="M981.34998,715.20996c0.27002,3.77002-1.41998,7.68005-3.47998,10.86005
		c-2.04999,3.16998-8.21997,8.98999-8.21997,8.98999c-16.69,8.94-35.69,12.51001-53.13,19.85999
		c-0.72003,0.29999-1.46002,0.60999-2.20001,0.84998c-3.34003-6.94995-6.03998-14.14996-8-21.57996
		c0.08002-0.02002,0.16998-0.04999,0.27002-0.07001c3.58997,0.16998,7.00995-1.41003,10.25995-2.96002
		c1.56-0.73999,3.14001-1.5,4.40002-2.67999c1.60999-1.52002,2.54999-3.59998,3.44-5.63
		c1.02002-2.29999,2.02997-4.60999,3.04999-6.90997c2.90002-0.32001,5.60004-0.81,8.5-1.14001
		c-0.10999,1.91998,0.72998,4.15002,2.59003,4.62c0.77997,0.20001,1.60999,0.04999,2.38995-0.15002
		c2.08002-0.52997,4.06006-1.39996,5.87006-2.53998c0.90997-0.58002,1.76996-1.21997,2.56995-1.91998
		c0.59003-0.52002,1.25-1.06,1.71002-1.70001c0.17999-0.25,0.22998-0.53003,0.34998-0.81
		c0.16003-0.40002,0.46002-0.76001,0.72003-1.10999c1.12-1.5,2.46997-2.81,3.83002-4.11005
		c0.92999-0.89996,1.88-1.78998,2.76001-2.75c3.53998-3.84998,5.96997-8.57996,8.97998-12.85999
		c0.63-0.89996,1.33002-1.81,2.31-2.31c0.98999-0.48999,2.33002-0.44,3.02997,0.41003c0.66003,0.81,0.53003,1.98999,0.20001,2.96997
		c-0.33997,0.97003-0.85999,1.91998-0.89001,2.95001c1.11005-1.17999,2.49005-1.70001,4.11005-1.70001
		c0.57001,0,1.16998,0.09003,1.60999,0.45001c0.85999,0.69,0.77997,2.02002,0.52997,3.09998
		c-0.42999,1.96002-1.12,3.86005-2.04999,5.63c-0.01996,0.04004-0.04999,0.09003-0.07001,0.13c-0.06,0.12-0.12,0.23999-0.19,0.35999
		c0.17004-0.23999,0.34003-0.48999,0.51001-0.73999c0.39001-0.57001,0.69-1.01001,1.27002-1.37
		c0.58002-0.37,1.34998-0.51001,1.96997-0.20996c0.88,0.42999,1.18005,1.52997,1.23004,2.5
		c0.22998,3.89996-1.79004,7.53998-3.85004,10.85999C979.04999,714.47998,980.03998,715.01001,981.34998,715.20996z"/>
	<g>
		<path class="st14" d="M972.36542,695.3172c-1.5238,3.56531-3.57684,6.89606-5.91284,9.9964
			c-2.38165,3.06537-5.05963,5.91821-8.10394,8.31958c2.76428-2.71002,5.3869-5.54419,7.70734-8.62311
			C968.422,701.96613,970.47327,698.6944,972.36542,695.3172z"/>
	</g>
	<g>
		<path class="st14" d="M976.85901,702.96545c-0.69745,1.43689-1.15228,2.95569-1.70142,4.4577
			c-0.5423,1.49756-1.2359,2.99854-2.33179,4.23358c-0.55908,0.60089-1.18872,1.10846-1.79974,1.61542l-1.81146,1.54883
			c-1.21191,1.02673-2.50702,2.04803-4.02386,2.58453c1.42645-0.72632,2.61072-1.7887,3.76807-2.87177
			c1.12238-1.12323,2.44812-2.08606,3.49854-3.21417c1.06097-1.13373,1.73071-2.58008,2.34406-4.03668
			C975.41864,705.8255,975.97876,704.30511,976.85901,702.96545z"/>
	</g>
	<g>
		<path class="st14" d="M977.64252,714.47986c-0.38019,0.77466-0.63123,1.58527-1.02032,2.37372
			c-0.36261,0.80841-1.01471,1.48828-1.66742,2.03778c-1.34467,1.07452-2.72247,2.1142-4.17804,3.03107
			c1.22046-1.23047,2.52673-2.32855,3.8515-3.40936c0.66125-0.54706,1.23059-1.11798,1.65881-1.8446
			C976.72711,715.95544,977.08545,715.14771,977.64252,714.47986z"/>
	</g>
	<path class="st13" d="M1011.71002,617.62c1.50995-0.14001,3.00995-0.28998,4.51996-0.42999
		c1.48999-0.13,2.98004-0.27002,4.47003-0.32001c2.98999-0.10999,5.98004,0.14001,8.95001,0.46002
		c0.51001,0.06,1.01001,0.10999,1.52002,0.16998c0.6499,0.08002,1.26001,0.09998,1.90991,0.12
		c4.10999,0.16003,8.2301,0.31,12.34009,0.47003c1.33997,0.04999,21.97998,1.33997,23.93994,1.64996
		c0.98999,0.15002,4.90002,0.79004,5.18005,0.79999c0.54993,0.02002,4.33997,3.45001,5.91992,4.66003
		c0.84009,0.64001,1.67004,1.67999,2.41003,2.42999c1.10999,1.10999,1.87488,2.17853,2.38489,2.75854
		c0.2699,0.29999,0.5199,0.60999,0.79993,0.89996c0.43005,0.45001,2.94165,6.64441,3.03162,7.91437
		c0.05005,0.67004,0.34729,1.61578,0.03735,2.21576c-0.56006,1.07001-1.8938,1.21136-2.86377,0.50134
		c0.37,3.82001,1.78003,7.14001,0.87,10.88c-0.38,1.58002-0.22998,3.46002-1.43005,4.54999
		c-0.72998,0.67004-1.82996,0.84003-2.7699,0.54004c-0.77002-0.23999-1.37-0.92004-1.81006-1.63
		c-0.09998-0.16003-0.18994-0.33002-0.28003-0.48999c0.07007,1.37,0.14001,2.73999,0.22009,4.10999
		c0.02991,0.66998,0.15991,1.40997,0.09998,2.07001c-0.13,1.42999-3.37305,2.23682-4.63306,1.8468
		c-0.97998-0.29999-1.75-1.03998-2.3999-1.82001c-0.77002-0.90997,0.02295-1.7868-0.51709-2.85681
		c-0.21997,1.03003-1.41003,1.48999-2.44995,1.66003c-0.58008,0.09998-1.19006,0.14996-1.72998-0.08002
		c-1.02002-0.44-1.37-1.69-1.62-2.77002c-0.94006-4.01001-0.82007-9.35999-3.96008-12.02002
		c-3.29993-2.79999-6.51001-5.98999-10.71997-6.96997c-3.33997-0.78003-6.64001-1.97998-9.97998-2.76001
		c-0.68005,1.48999-0.33997,3.22998,0.05994,4.83002c0.14001,0.54999,0.28003,1.09998,0.55005,1.59998
		c0.32996,0.60999,0.82996,1.10004,1.25,1.64001c0.52002,0.65997,0.92993,1.40997,1.20996,2.20001
		c0.12,0.33002,0.21997,0.63,0.39001,0.92999c0.47998,0.84998,0.875,3.51703,0.45508,4.30701
		c-0.67004,1.29004-1.27808,2.35992-3.15002,2.79999c-1.96643,0.50824-4.67505-2.13702-5.56506-3.02698
		c-0.91003-0.89001-1.66003-1.94-2.35999-3c-0.26001-0.41003-0.39001-0.80005-0.54004-1.25
		C1035.38,647,1035.27002,646.81,1035.15002,646.63c-0.69006-0.98999-1.57007-1.88-2.43005-2.72003
		c-0.31995-0.31-0.73999-0.57996-1.03003-0.90997c-0.31995-0.35999-0.50989-0.98999-0.71997-1.42999
		c-0.30994-0.67999-0.60999-1.35999-0.90002-2.04999c-0.52991-1.25-1.03992-2.52002-1.58997-3.76001
		c-0.31995-0.72998-0.70996-1.51001-1.43994-1.84003c-0.51001-0.22998-1.1001-0.17999-1.66003-0.13995
		c-5.0744-0.23383-6.95599-0.43536-12.89001-0.28003L1011.71002,617.62z"/>
	<g>
		<path class="st14" d="M1039.24951,648.16699c0.54236-0.43384,1.15112-0.73364,1.77197-1.00031
			c0.62805-0.24921,1.27136-0.46545,1.96228-0.53839c-0.55383,0.44-1.15527,0.73669-1.77197,1.00037
			C1040.58801,647.87488,1039.95203,648.08795,1039.24951,648.16699z"/>
	</g>
	<g>
		<path class="st14" d="M1070.77295,657.35144c0.35803-0.28912,0.75208-0.43323,1.15442-0.54321
			c0.40698-0.09155,0.82263-0.14807,1.27454-0.05817c-0.35779,0.29041-0.75171,0.43433-1.15442,0.54321
			C1071.64026,657.38379,1071.22461,657.44012,1070.77295,657.35144z"/>
	</g>
	<g>
		<path class="st14" d="M1077.44727,660.58197c0.21643-0.32581,0.49976-0.51794,0.79871-0.67865
			c0.30737-0.14374,0.63098-0.25519,1.02209-0.23169c-0.21594,0.3269-0.49915,0.51892-0.79871,0.67865
			C1078.1615,660.49298,1077.83777,660.60431,1077.44727,660.58197z"/>
	</g>
	<g>
		<path class="st14" d="M1084.32556,654.10834c0.08716-0.34534,0.27563-0.58081,0.48792-0.79047
			c0.22522-0.1958,0.47498-0.36499,0.82703-0.42334c-0.0863,0.34625-0.2749,0.58167-0.48804,0.79053
			C1084.92651,653.87994,1084.67676,654.04907,1084.32556,654.10834z"/>
	</g>
	<g>
		<path class="st14" d="M1072.88293,632.57355c1.41211,1.6015,2.73645,3.28491,3.94775,5.04889
			c1.22498,1.755,2.31799,3.59943,3.3479,5.47595c1.07788,1.90222,1.44434,4.15613,1.31702,6.29553
			c-0.11243,2.1521-0.51697,4.24402-0.65564,6.3761c-0.01794-1.0675,0.02905-2.13776,0.08936-3.20386
			c0.07556-1.06451,0.16113-2.12695,0.17029-3.18451c0.06152-2.11328-0.31372-4.21985-1.35486-6.0509
			c-0.9845-1.88458-2.08557-3.70496-3.22363-5.50238C1075.36926,636.03998,1074.1615,634.28339,1072.88293,632.57355z"/>
	</g>
	<g>
		<path class="st14" d="M1065.44507,635.67535c1.2887,1.72498,2.55664,3.46411,3.79724,5.22192
			c0.63135,0.87134,1.23328,1.76282,1.849,2.64484c0.59961,0.89746,1.26013,1.72784,1.78857,2.72156
			c0.98462,2.008,1.13977,4.26172,1.08276,6.40735c-0.04956,2.16351-0.32556,4.29565-0.35266,6.44897
			c-0.15808-2.15094-0.01355-4.31317-0.03186-6.4519c-0.02026-2.12476-0.18176-4.30902-1.14441-6.17999
			c-0.46655-0.91522-1.13452-1.79297-1.71753-2.68988c-0.59729-0.89465-1.20837-1.77979-1.79004-2.68506
			C1067.7406,639.31775,1066.5824,637.5036,1065.44507,635.67535z"/>
	</g>
	<g>
		<path class="st14" d="M1077.42078,629.45105c1.79529,1.7467,3.46875,3.58057,5.1355,5.46118
			c0.20325,0.23743,0.42078,0.44623,0.59497,0.80402l0.4259,0.81885l0.84058,1.65613
			c0.56653,1.11151,1.12622,2.22687,1.63708,3.36908c-0.69287-1.04193-1.33679-2.11084-1.974-3.18347
			c-0.32812-0.52783-0.62305-1.08643-0.93127-1.63843l-0.44922-0.83417c-0.10156-0.20886-0.32471-0.44733-0.53296-0.67828
			C1080.54004,633.36121,1078.91943,631.44965,1077.42078,629.45105z"/>
	</g>
	<path class="st17" d="M791.96997,669.56c-0.01996,0.31-0.03998,0.62-0.08997,0.92999c-0.15002,0.94-0.45001,1.83997-0.75,2.73999
		c-1.10999,3.38-2.22998,6.75-3.34003,10.12c-0.44-0.20001-18.57953-2.68945-26.12683-3.36658
		c0.58997-3.95001-12.38312-15.1734-13.35315-19.03339c-0.52002-2.10004-1.27002-4.14001-1.63-6.27002
		c-0.32001-1.91998-0.29999-3.89001,0.03003-5.79999c0-0.01001,0.00995-0.01001,0.00995-0.01001
		c0.63-3.72998,2.44-7.26001,5.19-9.85999c0.10004-0.10004,0.20001-0.19,0.30005-0.29004
		c1.63995-1.45001,3.66998-2.45996,5.88995-2.40997c-0.07996,0.70996-0.19,1.40997-0.29999,2.10999
		c-0.25,1.53003-0.56,3.06-0.94,4.56c-0.17999,0.73999-0.37,1.5-0.20001,2.22998c0.21002,0.85004,0.87006,1.5,1.5,2.10004
		c5.64001,5.26001,11.69,10.07001,18.09003,14.37c4.54999,3.06,9.45001,4.79999,14.32001,7.17999c0.01001,0,0.01001,0,0.01001,0
		C791.04999,669.08997,791.51001,669.32001,791.96997,669.56z"/>
	<g>
		<path class="st14" d="M797.52325,543.98267c0.40009,1.14764,0.8407,2.27979,1.30603,3.40082
			c0.44733,1.12762,0.91638,2.24646,1.41504,3.35138c0.99011,2.21216,2.02203,4.40613,3.19977,6.52167
			c1.15674,2.12579,2.42712,4.18787,3.83417,6.15601c1.43579,1.94415,2.99957,3.79901,4.79492,5.44403
			c-1.91522-1.5033-3.59973-3.29065-5.10321-5.21405c-1.48517-1.9397-2.76465-4.02399-3.96423-6.14667
			c-1.14954-2.15112-2.19476-4.35583-3.11383-6.61133C798.97485,548.62878,798.16473,546.32892,797.52325,543.98267z"/>
	</g>
	<path class="st17" d="M814.40002,656.07001c0.04999,2.39996-0.37,4.78998-0.87,7.12
		c-0.78003,3.64996-1.83002,7.29999-1.88,11.04999c-6.46002-1.56-13.47003-2.19043-19.68005-4.56042
		c0.03003-0.12,0.71002-1.56958,0.73004-1.68958c1.45996-6.5,2.92999-13,4.39001-19.51001
		c0.94995-4.17999,1.71997-9.08997-1.12006-12.31c-1.51996-1.72998-2.28998-3.67999-2.70996-5.77002
		c4.06,1.02002,8.02002,2.51001,11.72998,4.46002c0.48999,0.25,0.97998,0.52002,1.38,0.90002
		c0.53003,0.51996,0.84003,1.21997,1.14001,1.89996c0.34998,0.79999,0.70001,1.59003,1.04999,2.39001
		c1.03003,2.33002,2.06,4.65997,3.08002,6.97998c0.79999,1.79004,1.87,3.62,2.28998,5.53003
		C814.17999,653.72998,814.37,654.88,814.40002,656.07001z"/>
	<g>
		<path class="st15" d="M833.53998,738.03998c-2.28992,0.1579-4.58722,0.25555-6.89136,0.17139
			c-1.15143-0.04309-2.30438-0.13245-3.45032-0.30023c-1.15308-0.15302-2.26221-0.48938-3.39093-0.74915l-0.12457-0.07361
			c0.04016,0.04749,0.1239,0.08173,0.18634,0.07581l-0.08221-0.01202c-1.37317-0.38538-2.71832-0.85217-4.04944-1.33746
			l-1.99158-0.73212c-0.65765-0.2901-1.34399-0.53046-1.98016-0.86981c-2.57825-1.30951-4.83081-3.17432-6.80377-5.22882
			c-3.97015-4.10406-7.21649-8.76941-11.65271-12.20667c-4.47833-3.58923-8.0752-8.05389-11.58893-12.46429
			c-3.53711-4.39209-7.14832-8.77356-11.68036-12.19299c4.73029,3.14893,8.56543,7.45074,12.2016,11.76215
			c3.66888,4.29407,7.24512,8.69672,11.65308,12.16003c2.26587,1.73767,4.30145,3.79553,6.15643,5.93823
			c1.86749,2.14178,3.62823,4.34772,5.56476,6.37115c1.91473,2.0412,4.08258,3.82623,6.5238,5.13641
			c0.60211,0.34296,1.25128,0.58759,1.87769,0.88605l1.96906,0.78436c1.31158,0.51843,2.62732,1.01453,3.96649,1.42938
			l-0.08185-0.0119c0.07568,0.00073,0.17261,0.04156,0.22601,0.09564l-0.12427-0.07343
			c1.0993,0.28461,2.18591,0.6427,3.30634,0.82715c1.11713,0.21399,2.25092,0.35236,3.38971,0.44507
			C828.94769,738.05298,831.24536,738.04901,833.53998,738.03998z"/>
	</g>
	<g>
		<path class="st15" d="M839.04376,665.52686c0.1377,2.42297,0.12921,4.84552,0.08368,7.26642
			c-0.0354,2.42175-0.17523,4.83923-0.3396,7.255c-0.18408,2.41418-0.41302,4.82629-0.73938,7.22723
			c-0.31879,2.40143-0.70227,4.79614-1.22845,7.16449c0.04022-1.21454,0.16089-2.41626,0.20978-3.6264l0.2533-3.61481l0.50806-7.224
			l0.57166-7.2215l0.30927-3.61255C838.8053,667.93719,838.89771,666.73193,839.04376,665.52686z"/>
	</g>
</g>
<g id="Calque_4">
	<path class="st24" d="M1493.71826,1194.82935c0,0,10.12415-3.77551,18.45227-3.91431
		c8.32825-0.13879,16.97156,1.46179,16.97156,1.46179l-7.94934,11.44678l-8.60571,3.47009l-15.12952-2.49841l-3.73926-5.69519
		V1194.82935z"/>
	<path class="st24" d="M1423.00598,1166.81445c0,0,21.69128-2.40942,31.25269,2.61731v7.0896l-9.00476,4.12573H1430.724
		l-8.66553-3.22888l-1.37988-5.56079l-0.44849-1.79382L1423.00598,1166.81445z"/>
	<path class="st24" d="M1539.9082,1221.83838c2.06262,14.55505-100.92358,33.48462-107.80676,13.59167
		c-1.02917-2.97424-1.34741-5.57385,1.45093-8.20349c17.72717-7.43945,38.22534-11.67603,38.49536-11.65601
		c0,0.45996-35.44727,13.06946-35.20728,13.45947c2.10425,3.75293,6.62537,4.00757,10.39001,3.08997
		c-1.9126,5.0249,5.45569,5.61938,8.05994,2.82996c0.55115,2.87305,3.32349,1.39319,5.17004,0.80005
		c0.90515,3.53369,6.19104,2.4043,8.05994,0.29004c3.97559,1.45532,7.74158-0.88428,11.53015-1.90991
		c13.16248-4.54895,27.34875-4.5116,40.82996-7.63013c1.50989,1.34888,8.33545,0.76453,4.91992-1.73999
		c2.7948-1.09045,3.55481-3.17212,5.25781-5.55811c0.99622-0.98279,2.05383-1.98926,3.0625-2.8717
		c0.29419-1.026,0.52429-2.09009,0.64966-3.16028C1539.02112,1212.95215,1538.10364,1217.646,1539.9082,1221.83838z"/>
	<path class="st24" d="M1459.59265,1202.87024c-8.03369,8.49219-21.32922,7.5155-32.10986,7.40027
		c-6.88721-0.46118-19.54309-2.12939-31.35229,1.45312c-11.85535,3.59656-27.20093,9.02283-41.45605,7.26562
		c-1.92126-0.23682-6.70032-2.24609-7.13123-8.20374c-1.00891-13.95422,19.7063-22.75537,20.9762-23.20532
		c7.76245-1.59229-3.97229,14.15002-4.08264,14.35461c-0.06995,0.60999,2.47571,10.02539,6.61584,8.59534
		c3.66492-1.13184,7.09253-3.23938,10.81995-4.07019c3.45239-0.69653,6.89771-1.64514,10.42017-2.05969
		c2.86975-0.41016,2.06958-2.2688,4.95947-2.41882c0.52002-0.03003,4.29468-1.02576,4.78467-0.91577
		c0.97998,0.22009,1.57495-0.48962,2.56494-0.5697c2.42004-0.18994,4.23279-1.36707,6.66272-1.36707
		c3.27002,0,7.54395,2.05237,10.79395,2.39233c0.79004,0.64014,11.11072-0.65942,11.42065-0.56958
		c3.04382,0.44824,9.73083,0.56677,12.08899-2.75867c2.92053-4.01746,6.87146-5.00146,4.92444-10.61279
		C1457.52722,1189.94885,1465.37256,1194.71545,1459.59265,1202.87024z"/>
	<path class="st13" d="M1445.38147,1101.35486c-2.7616,21.349,4.62598,38.94836,4.28918,60.58508
		c-1.47705,8.37708,3.12708,15.12817,5.11157,22.81982c3.92065,11.92981-7.6875,18.74902-18.27124,16.93018
		c-13.59961-10.77856-31.50342-12.37488-47.95581-11.72607c3.99072-2.33496,8.02405-4.1792,9.08679-9.29395
		c32.64319-4.90894,28.78857-17.31042,29.03857-44.85083c-0.55908-28.91736-2.55322-57.91943-6.70959-86.51904
		c13.20789,5.69592,12.66565,0.47729,27.36414-3.13013C1447.77014,1063.59424,1446.81873,1083.89709,1445.38147,1101.35486z"/>
	<path class="st13" d="M1534.77039,1213.16992c-0.23389,5.39636-4.23291,9.47119-8.96997,11.59009
		c-5.98535-2.4137-10.95337-2.84973-16.89465-5.85779c-11.49768-2.76477-23.96875-2.05969-35.39539,0.29773
		c4.3125-4.8822,10.56677-8.46045,13.12012-14.66992c24.1676-7.39673,3.21667-51.71436-0.07507-69.63623
		c-6.28821-24.31665-5.88977-50.32373-12.79504-74.47388c0.20007-0.16992-0.44995-2.47241-0.25-2.63245
		c7.07239,0.58545,14.74707-0.45984,21.90027,0.0033c5.90161,0.3396,12.08496,0.42371,17.13977-3.14087
		c11.17224,17.94666,10.83569,40.8009,10.80115,61.33972c-1.08728,26.27478-7.15527,54.8457,4.55823,79.67041
		C1530.68274,1201.26953,1535.68909,1206.37012,1534.77039,1213.16992z"/>
	<g>
		<path class="st14" d="M1510.80896,1193.26331c0.78711,0.72729,1.55029,1.43176,2.34546,2.09045
			c0.79065,0.61963,1.6377,1.41357,2.36243,1.42798c0.63354,0.08362,1.31226-0.94287,1.90845-1.71509
			c0.59058-0.82971,1.09741-1.72717,1.56799-2.68982c-0.06787,1.0719-0.39734,2.12903-0.90186,3.09619
			c-0.24683,0.49231-0.55066,0.9375-0.89185,1.38757c-0.18005,0.22522-0.40125,0.44922-0.69019,0.63306
			c-0.28699,0.18689-0.66333,0.29321-1.01685,0.28723c-0.71887-0.04211-1.25537-0.38977-1.69958-0.7334
			c-0.43213-0.3689-0.81299-0.72388-1.17566-1.13171C1511.89124,1195.12048,1511.26233,1194.23596,1510.80896,1193.26331z"/>
	</g>
	<g>
		<path class="st14" d="M1460.81006,1235.06995c0.13196-0.8855,0.31714-1.75781,0.5105-2.62817
			c0.0896-0.41345,0.21643-0.94727,0.63525-1.29163c0.38953-0.30872,0.74695-0.51282,1.12134-0.77234
			c1.49219-0.9635,3.0542-1.88696,4.76282-2.43787c-0.76794,0.45947-1.52478,0.91638-2.26746,1.39856l-2.22253,1.45789
			c-0.36206,0.23828-0.77588,0.48291-1.09167,0.71619c-0.3103,0.21411-0.41943,0.60901-0.56958,1.03381
			C1461.41895,1233.39331,1461.14111,1234.23828,1460.81006,1235.06995z"/>
	</g>
	<g>
		<path class="st14" d="M1465.99939,1236.05945c0.07532-0.74414,0.53479-1.41565,1.07605-1.92773
			c0.54175-0.52661,1.18372-0.91565,1.80872-1.28894c1.25073-0.72449,2.6626-1.40869,4.15564-1.39111
			c-1.42249,0.37463-2.65454,1.08655-3.90344,1.82251c-0.63025,0.36157-1.24683,0.72192-1.81079,1.14746
			C1466.76819,1234.85034,1466.27759,1235.37585,1465.99939,1236.05945z"/>
	</g>
	<g>
		<path class="st14" d="M1451.83362,1232.146c1.50146-1.33923,3.09888-2.56335,4.71509-3.75757
			c0.82263-0.5752,1.66846-1.14258,2.59106-1.57947c0.91565-0.43921,1.91089-0.76624,2.9248-0.79004
			c-1.97461,0.46228-3.59937,1.6283-5.22913,2.77881C1455.21265,1229.97205,1453.57104,1231.11646,1451.83362,1232.146z"/>
	</g>
	<path class="st18" d="M1524.66284,1017.82019c0.46997,3.31,8.91125,152.5238,8.68115,155.85388
		c-0.62,9.17993-42.91248,6.32703-43.07861,4.35632c-1.62988-19.33545-10.96143-55.55103-17.59204-104.33594
		c-5.05676-37.20532-8.41724-58.31287-8.41724-87.42834c1.02795,16.28491-9.70618,31.99933-10.59375,55.09241
		c-1.77844,46.27112,1.99573,116.35669-2.28101,123.6864c-0.67542,1.15771-37.91565,0.96375-37.91565-3.47449
		c0-4.0293-7.47229-82.68787-9.40527-119.68909c0.18311-9.2467,9.46729-127.36218,15.00732-148.42218
		c6.98645-0.79419,6.0022,2.41083,9.62219,2.61084c5.73999,0.29999,11.48999-0.15002,17.17993-0.80005
		c6.44006-0.73999,12.87012-1.89996,19.37012-1.34998c3.98999,0.34003,7.91992,1.08002,11.88989,1.62
		c1.66003,0.22998,3.33008,0.41998,5,0.53003c3.53003,0.23999,7.08008,0.10999,10.61011,0.32996
		c8.22998,0.51001,16.77002,2.85004,24.81995,0.03003c1.53992-0.54999,4.58521-3.56818,6.16528-3.98816
		c1.5,3.08997,0.76477,9.10815,1.4447,12.50818C1526.60986,912.12,1524.54285,1016.93018,1524.66284,1017.82019z"/>
	<path class="st18" d="M1423.00598,1166.81445c0,0-20.69446,8.81445-39.50769,13.5675
		c-18.81311,4.75305-18.61731,4.22961-25.8877,12.34302c-7.27051,8.1134-10.94006,19.52747-4.44849,20.40442
		c12.18494,1.64612,19.60388,1.25745,33.62854-5.22461c14.02466-6.48193,26.80872-4.84021,37.86145-3.99036
		c11.05273,0.84973,24.76855-1.48938,31.04175-5.42261c6.27307-3.93323,2.89209-10.03845,2.03394-18.10986
		c-0.85815-8.07129-3.46912-10.9502-3.46912-10.9502s1.35852,0.88489-7.03076,4.97266
		c-8.3894,4.08789-9.17139,2.28711-17.63733,1.27441S1423.00598,1166.81445,1423.00598,1166.81445z"/>
	<path class="st18" d="M1493.71826,1194.82935c0,0-4.14758,9.10364-16.04883,13.86414
		c-11.90112,4.7605-39.8689,8.33069-44.927,16.06653c-5.05798,7.73584,4.72607,14.63623,15.17407,15.47156
		c13.68323,1.09412,16.36414,0,30.94312-2.38013c14.57898-2.38025,43.43933-7.73596,53.25781-13.09143
		s5.23035-16.69678,2.76392-22.77856s-5.73926-9.60461-5.73926-9.60461s-1.85059,2.7168-10.14868,4.90503
		S1493.71826,1194.82935,1493.71826,1194.82935z"/>
	<path class="st13" d="M1368.17993,703.85999c-0.07996,0.92999,1.96252,2.03326,1.66248,2.91327
		c-0.48999,1.42999-0.63599,2.91766-0.55603,4.44763c0.22998,4.32001-0.14124,7.65198-0.11121,11.98199
		c0.02002,2.37994-1.62512,5.20709-1.66516,7.59711c-12.83008-0.63-25.62-1.64001-38.39001-2.98999
		c-0.67004-0.08002-0.88-0.17999-1.35999-0.58002c-0.46997-0.39001-0.98999-0.73999-1.47998-1.10999
		c-1.01001-0.76001-2-1.53003-2.97998-2.32001c-3.92004-3.14001-7.68005-6.47998-11.25-10.01001
		c-2.26001-2.23999-51.26001-59.62-52.56006-61.76001c-0.20996-0.33997-0.42993-0.69-0.76001-0.90997
		c-0.32996-0.21002-0.73999-0.26001-1.13-0.32001c-4.15002-0.63-8.05994-2.71002-10.91003-5.78003
		c-2.38989,0.5-4.60986,0.86005-7.03992,0.59003c-1.03003-0.10999-2.07996-0.28998-3.09998-0.09998
		c-0.70996,0.13-1.38013,0.42999-2.05005,0.71997c-1.51001,0.65002-3.06006,1.22998-4.64001,1.72003
		c-1.28992,0.39996-2.62,0.75-3.96997,0.75995c-0.89001,0-1.77002-0.13995-2.65002-0.28998
		c-2.21997-0.38-4.42993-0.77002-6.64001-1.17999c-1.18005-0.22003-2.42004-0.47998-3.30994-1.27002
		c-1.93005-1.70996-2.17004-4.45001-1.09009-6.79999c0.32007-0.70001,0.80005-1.37,1.47998-1.75
		c1.31006-0.73999,13.4397-3.02136,14.9397-3.16138c-6.06006-0.57001-20.60571-0.21002-26.75574,0
		c-6.68005,0.22998-13.53345,0-21.3877-0.11914l4.17896-1.6687c12.51001-6.54999,22.26477-9.59076,36.06482-12.61078
		c11.38-2.5,23.37012,5.46002,34.51001,8.88c1.67993,0.52002,3.38,1.04999,4.81006,2.07001
		c0.80994,0.57001,1.51001,1.26996,2.19995,1.97998c1.18994,1.21002,2.39001,2.41998,3.58008,3.63
		c0.27002,0.28003,0.48999,0.47003,0.81995,0.66998c0.5,0.30005,0.89001,0.73004,1.31995,1.14001
		c0.95996,0.92999,1.93005,1.84998,2.90002,2.77002c1.96008,1.82996,3.94006,3.62,5.94006,5.39996
		c4.01001,3.54004,8.11987,6.98004,12.27002,10.35004c4.15991,3.38,8.37988,6.67999,12.61987,9.95996
		c3.05005,2.36005,6.11011,4.70001,9.18005,7.05005c8.87,6.78998,18.44006,11.27997,27.41003,17.94
		c0.30005,0.21997,0.60999,0.42999,0.91992,0.62c8.20007,5.07001,19.34009-0.76001,29.40002-0.48004
		C1368.90002,695.90997,1368.53003,699.51996,1368.17993,703.85999z"/>
	<path class="st13" d="M1389.82007,794.73999c-6.23999,4.48999-12.75,8.59998-19.48999,12.29999
		c-1.07007,0.58002-2.16016,1.16998-3.36011,1.35999c-0.87988,0.14001-1.82996,0.04004-2.62-0.39996
		c-0.34998-0.20001-0.5199-0.45001-0.7699-0.73004c-0.32007-0.35999-0.83008-0.53998-1.23999-0.75995
		c-1.1001-0.60004-2.21008-1.20001-3.31006-1.80005c-6.82007-3.69-13.68994-7.27997-20.6001-10.78998
		c-3.45996-1.75-34.05994-17.33002-36.67993-19.17999c-8.44995-5.97003-16.40002-10.12-24.91992-15.98999
		c-9.27002-6.37-18.53003-12.73999-27.79004-19.12c-2.86011-1.97003-4.90002-4.5-8.36011-4.91003
		c-1.18994-0.14001-2.37988-0.28998-3.56995-0.48999c-3.43005-0.58002-6.75-1.64001-10.13-2.45001
		c-1.48999-0.35999-2.98999-0.65997-4.51001-0.84998c-0.75-0.09003-1.51001-0.10999-2.26001-0.19
		c-0.46997-0.06-0.87988-0.25-1.33997-0.35999c-0.73999-0.17004-1.46997-0.13-2.20007-0.34003
		c-0.73999-0.21002-1.61987-0.19-2.38989-0.26001c-0.15002-0.01001-0.31006-0.01996-0.45996-0.01996
		c-0.21008,0-0.42004,0.02997-0.63013,0.06c-0.56995,0.07996-1.08997,0-1.6499-0.10004
		c-4.44995-0.84998-8.89001-1.77997-13.31006-2.78998c-2.19995-0.5-4.38989-1.02002-6.57996-1.56
		c-1.09998-0.27002-2.19006-0.54999-3.28003-0.83002c-0.51001-0.13-1.01001-0.27997-1.52002-0.37
		c-2.32996-0.42999-4.5199-1.09003-6.60999-2.22998c-3.6499-1.98999-7.30005-4.94623-10.94995-6.94623
		c14.17993,0.5,27.93555,0.21002,42.12549,0l0,0c-1.72998-0.57001-2.0155-0.60376-3.53552-1.61377
		c-1.47998-0.98999-2.96008-1.98004-4.44006-2.96002c-0.28003-0.19-0.56995-0.38-0.71997-0.67999
		c-0.19995-0.37-0.1499-0.82001-0.06006-1.22998c0.6001-2.64001,2.94006-4.79004,5.62012-5.17004
		c3.06995-0.42999,5.97998,1.25,8.76001,2.59003c2.53003,1.22998,5.18994,2.22998,7.97998,2.59998
		c1.41992,0.19,2.85999,0.22003,4.27002,0.45001c2.25,0.37,4.36987,1.26001,6.47998,2.14001
		c2.71997,1.14996,5.53003,2.34998,7.57996,4.47998c1.88,1.97003,2.24011,4.66003,4.4801,6.20001
		c0.7699,0.53998,1.55994,1.04999,2.34985,1.56c2.63013,1.66998,5.37012,3.19,8.18005,4.53998
		c2.80994,1.35004,5.71008,2.54004,8.66003,3.55005c1.47998,0.50995,15.48999,5.81995,17.37,6.41998
		c2.57996,0.81,36.45996,12.27997,41.65002,14.03998c5.18994,1.75,32.57996,9.13,34.30994,9.51001
		c0.79004,0.17999,1.57996,0.34998,2.38,0.5c0.29004,0.06,1.86011,0.52002,2.05005,0.34003
		c3.44995-3.25,8.55005-5.08002,12.52002-7.90002c0.80994,3.37,1.83997,6.70001,2.3999,10.10999
		c0.09009,0.56,0.1001,1.09003,0.03003,1.65002c-0.15991,1.29999,0.14001,2.42999,0.45996,3.69
		c0.75,2.98999,1.64014,5.95001,2.64014,8.87C1384.72998,784.20001,1387.07007,789.57996,1389.82007,794.73999z"/>
	<path class="st9" d="M1535.14001,893.39996c-0.72009,0.73004-1.79993,0.94-2.79993,1.16003
		c-2.10791,0.46722-4.1665,1.146-6.20007,1.87c-8.04993,2.82001-16.05591,3.52209-24.28589,3.01208
		c-5.2041-0.26605-9.75671,1.70728-14.9259,0.87848c-3.96997-0.53986-7.8999-1.27985-11.88989-1.61987
		c-6.5-0.54999-14.14832-4.17072-20.58838-3.43073c-10.97839,1.24615-40.52686,3.29108-41.89172,2.84607
		c-1.93506-1.29993,0.7959-7.48541,1.1499-9.49005c1.83008-6.45007,7.43164-17.30731,7.43164-24.00665
		c0-8.78802,5.36548-56.56451,5.98022-60.42932v-0.01001c0.76746-5.18494,0.98486-10.64362,1.18005-15.82001
		c-9.63745,5.02698-18.12317,12.00531-27.02014,18.2099c-0.46985,0.34009-0.94983,0.7901-1.47986,1.0401
		c-0.20007,0.09003-1.53003,0.44-1.53003,0.53998c-8.43347-11.44604-14.60547-24.55878-18.08008-38.33997
		c-0.31995-1.26001-3.19995-16.75-3.32996-17.41003c-0.70386-2.27466,0.25439-3.95282,2.24023-5.12994
		c1.24792-0.74219,2.34229-1.89148,3.70972-2.38019c1.22009-0.14984,1.71008,1.68018,2.85999,2.09015
		c2.46375-1.81891,4.83105-4.25513,6.69006-6.72998c-5.32996-0.15002-10.66003,0.01001-15.95996,0.48999
		c0.13513-17.53381,0.77307-35.09711,0.82397-52.59528c10.38477-1.09662,20.46606-4.30005,30.70605-6.30432
		c11.07312-2.38751,22.7417-6.44049,33.80566-9.02014c-0.54004,0.5-1.82397,1.77527-2.05396,2.45526
		c-0.01001,0-0.43335,0.43329-0.43335,0.43329c-2.07227,5.06732,4.85608,5.37866,9.12292,5.48425
		c6.82434,0.64581,10.93127,0.5177,17.42505-2.16333c1.28369-0.23163,2.13391-2.21466,3.25708-2.85986
		c3.7915-1.92023,6.81677-1.5899,10.48621-3.73376c1.51025-0.78406,5.73438-0.56927,5.01038-2.44617
		c-0.36011-0.82996-1.64636-3.26862-2.45642-3.66864c0.69995-0.13,2.99731,0.32672,2.99731,0.32672
		c1.92212,0.51904,2.21912,1.12195,3.25903,1.82196c3.78845,2.36981,6.37048,5.98059,9.0697,9.42023
		c2.45581,2.49878,5.5658,4.26215,8.35022,6.37982c10.7832,6.9505,9.76746,16.65033,11,27.93011
		c0.43848,4.11768-0.37805,8.31494,0.73999,12.30988c0.32971,3.76697-0.16895,7.5592-0.27991,11.32996
		c-0.26526,6.80377-0.11072,13.59558,0.09009,20.39001c0.03992,1.14001-0.07007,2.38,0.27002,3.47003
		c0.6499,2.06995,0.37988,4.21997,0.35986,6.37c0.04651,9.26526-1.01746,18.49365-1.17017,27.75
		c0.29797,6.67987,2.17261,13.29028,4.56006,19.49005c1.19824,3.15576,0.96741,6.7229,1.83032,9.99988
		c1.15991,5.42004,2.31982,10.88007,2.43982,16.43005c0.07996,3.33997-1.06995,6.88,0.76001,9.66998
		c2.69617,4.6842,5.75793,29.37769,6.47021,30.78998c1.24854,2.80731,1.87524,5.84161,2.54956,8.80011
		C1536.20483,890.29785,1536.23401,892.25531,1535.14001,893.39996z"/>
	<path class="st9" d="M1377.27002,699.13c-0.05005,1.45996-0.1001,2.91998-0.14001,4.38
		c-0.08997,2.92999-0.17004,5.84998-0.25,8.77997c-0.15002,5.85004-0.26001,11.70001-0.34998,17.54999
		c-0.06006,3.63-0.11011,7.26001-0.13,10.90002c-0.07996,0-0.17004,0.01001-0.25,0.02002
		c-1.52002,0.13995-3.04004,0.29999-4.56995,0.25995c-0.75-0.01996-1.5-0.08997-2.23999-0.23999
		c-0.54004-0.10999-1.95007-0.16998-2.13013-0.82001c-0.03003-0.10999,0.01001-0.25,0.02002-0.35999
		c0.04004-0.88,0.08008-1.77002,0.11011-2.65997c0.07983-2.04999,0.13989-4.09003,0.16992-6.14001
		c0.04004-2.39001,0.05005-4.78003,0.03003-7.15997c-0.03003-4.33002,0.48999-35.79004,0.48999-35.79004
		c1.81006,0.07001,2.6095-0.88824,4.40942-0.81824c1.66003,0.06,3.5907-0.55365,5.2406-0.61371
		C1377.15015,690.07806,1377.39001,695.44,1377.27002,699.13z"/>
	<g>
		<path class="st24" d="M1385.95569,746.83661c-0.03552,5.02783,0.77649,9.99414,2.08484,14.80817
			c1.31665,4.81775,3.05469,9.5144,4.93359,14.15894c1.83911,4.66547,3.65698,9.34473,5.76953,13.87036
			c1.05078,2.26642,2.21777,4.47852,3.54675,6.59283c1.30054,2.13348,2.79785,4.14569,4.46008,6.0293
			c-1.82678-1.72736-3.41833-3.69861-4.87-5.7605c-1.42664-2.08185-2.68298-4.27747-3.82788-6.52368
			c-2.27942-4.50592-4.09277-9.1983-6.00708-13.84033c-1.80615-4.68768-3.5752-9.42267-4.74695-14.33728
			c-0.57617-2.45654-1.02808-4.94519-1.28357-7.45483C1385.79077,751.86841,1385.72363,749.33978,1385.95569,746.83661z"/>
	</g>
	<g>
		<path class="st24" d="M1391.84583,740.8822c1.82764-1.63129,3.70654-3.20111,5.57495-4.78534
			c1.88953-1.5575,3.79639-3.09436,5.70972-4.62354c3.8363-3.04639,7.7699-5.96765,11.71631-8.87
			c3.98706-2.84442,8.02026-5.63464,12.07947-8.35919c2.02942-1.36322,4.03918-2.75171,6.00476-4.20087
			c1.9873-1.42212,3.89929-2.94318,5.77405-4.51971c-1.72156,1.74384-3.58142,3.34869-5.4751,4.9082
			c-1.91382,1.53473-3.8822,2.99963-5.86243,4.44244c-3.97803,2.86218-7.99976,5.63464-11.93579,8.53876
			c-3.98816,2.82935-7.90479,5.75684-11.83508,8.66779L1391.84583,740.8822z"/>
	</g>
	<g>
		<path class="st24" d="M1421.53955,792.43933c1.94226-1.49286,3.93127-2.92072,5.91077-4.36365
			c1.99878-1.41473,4.01306-2.80762,6.03345-4.19238c4.04944-2.7569,8.18652-5.38177,12.33521-7.98694
			c4.18494-2.54437,8.41187-5.03131,12.66003-7.45087c2.12378-1.21075,4.22998-2.44806,6.29663-3.74921
			c2.08606-1.27252,4.10461-2.64935,6.08984-4.08411c-1.84485,1.61285-3.81726,3.07703-5.82019,4.49347
			c-2.02136,1.39026-4.0918,2.70685-6.17249,4.00055c-4.17712,2.56281-8.39136,5.0329-12.52979,7.6405
			c-4.18494,2.5293-8.30566,5.16168-12.43896,7.77661L1421.53955,792.43933z"/>
	</g>
	<g>
		<path class="st24" d="M1377.49329,688.12573c0.11511,4.38879,0.12061,8.77533,0.1095,13.1615
			c-0.00879,4.38623-0.10754,8.77063-0.15686,13.15601c-0.13025,4.38373-0.21729,8.76831-0.38806,13.15118l-0.27612,6.57391
			c-0.12866,2.19049-0.22278,4.38177-0.38171,6.57166c-0.06787-2.19458-0.07092-4.38788-0.1084-6.58185l-0.00281-6.57971
			c0.01147-4.38617,0.10657-8.77063,0.15857-13.15594c0.13281-4.38367,0.21643-8.76831,0.38977-13.15112
			C1377.0083,696.88849,1377.19604,692.50598,1377.49329,688.12573z"/>
	</g>
	<path class="st13" d="M1484.36292,672.74799c-7.30225,5.04248-15.98633,9.82117-24.98254,10.79266
		c-6.4624-0.32941-22.73975,2.26666-20.39038-8.29065c7.41101-6.26373,5.70337-16.3681,6.12-25.01001
		c2.80933-0.0556-1.3501-1.68475,0.28235-3.8299c3.71533-0.98346,1.42065,1.20203,3.13269-2.62262
		c-4.5448-2.39496-3.49524,0.86401-7.83142,2.73187c-3.10254,1.05817-7.05371,0.62323-10.27185,0.32782
		c-1.98999-0.38995-4.7157-2.716-5.84583-4.41602c-1.11987-1.69-2.43958-4.64093-3.0896-6.57092
		c0.3457-4.755-0.13611-9.51898-0.7063-14.37024c-8.30969-7.62823-12.72961-9.22998-2.41931-17.98962
		c-3.00598-11.9624-3.96289-16.33386-0.18079-28.52039c2.98999-1.90002,5.36682-7.05066,9.01685-6.77063
		c10.66125,1.69104,28.97705-1.06268,35.76257,8.73792c5.03125,6.94061-0.58667,18.18353,11.46814,10.48267
		c2.07275-0.13129,5.64331,0.37518,7.29077,1.55853c1.3197,2.45044-0.36609,10.87512-1.05603,13.57513
		c-0.67993,2.70996,1.44067,6.60699,5.63647,6.15399c2.6825,4.87433-9.31323,14.52899-6.57874,19.16241
		c-5.94983,5.77295-3.35474,37.06104,4.96997,40.04999C1487.31824,668.43231,1485.99829,671.5708,1484.36292,672.74799z"/>
	<path class="st14" d="M1465.30005,635.20001c-3.14014,5.04999-9.81006,6.69-13.84009,11.06995
		c-1.11987,1.22003-2.08997,2.69-3.60999,3.35004c-0.85999,0.38-1.80994,0.45996-2.73999,0.62
		c-0.44006,0.07001-0.88,0.15997-1.29993,0.31c-2.44006,0.90002-4.03003,3.70001-6.61011,3.94
		c-1.66992,0.15002-3.18994-0.84003-4.77002-1.38c-2.36987-0.78998-1.90796-0.20947-4.17798-1.25952
		c-1.37-0.63-0.09888-1.24615-1.20886-2.26611c-1.03003-0.96002-3.00623-1.65491-3.33606-3.01489
		c-0.36011-1.45996-2.87146-3.47986-3.12195-4.95135c-0.61841-3.6333,0-8.88623,0.86365-13.24323
		c0.21997,0.66998,0.46985,2.57544,0.46985,2.58545c0.36011,1.06-0.41541,3.32642-0.06543,4.38641
		c0.65002,1.92999,1.86926,4.7287,2.98914,6.4187c1.13013,1.70001,3.11768,0.91455,5.10767,1.30457l4.62012,0.41998
		c1.98999,0.03998,4.01001,0,5.8999-0.60999c3.30005-1.07001,6.32007-3.85004,9.72998-3.19
		c1.03003,0.19,1.98999,0.70996,3.03003,0.90997c1.37,0.25,2.79004-0.06,4.07007-0.59998
		c3.62988-1.52002,6.8374-3.28723,8.22742-6.96722c1.38-3.68005,1.0426-9.2428,0.60254-13.15277
		C1467.22998,625.01001,1468.07007,630.73999,1465.30005,635.20001z"/>
	<g>
		<path class="st14" d="M1425.38586,631.69244c2.41455,0.65509,4.85693,0.73224,7.14514,0.1048
			c2.29077-0.61871,4.35718-1.91986,6.11035-3.70526c-1.10852,2.27295-3.3468,3.98651-5.84839,4.66974
			C1430.28894,633.43567,1427.49292,633.09015,1425.38586,631.69244z"/>
	</g>
	<path class="st14" d="M1430.58447,593.9707c0.29041,0.1842,0.58752,0.3714,0.92188,0.45178
		c0.39648,0.09534,0.81165,0.0329,1.21521-0.02527c5.65967-0.81647,11.63696-0.6842,16.8291,1.71191
		c-0.41956-1.78711-2.00818-3.11407-3.7384-3.72723c-1.73035-0.61316-3.60608-0.63336-5.44165-0.64685
		c-1.81396-0.01331-3.62781-0.02661-5.44165-0.03992c-1.34058-0.00983-2.7522-0.17523-4.03906,0.27545
		c-0.77771,0.2724-1.56531,0.46503-2.35229,0.69507C1429.15613,593.16119,1429.91382,593.54523,1430.58447,593.9707z"/>
	<g>
		<path class="st14" d="M1415.71851,589.08551c0.31018,0.30676,0.65112,0.57184,1.02234,0.75592
			c0.3739,0.18256,0.77612,0.27252,1.19092,0.30377c0.82458,0.0766,1.71313,0.01941,2.61462,0.18359l0.14465,0.02643
			l0.10046,0.14374c1.49939,2.14563,1.84766,4.94128,1.29211,7.43842c-0.28394,1.25537-0.79138,2.4588-1.51758,3.51111
			c-0.7251,1.04889-1.67664,1.94214-2.77112,2.53558c0.92188-0.83636,1.65466-1.8175,2.21082-2.87689
			c0.5575-1.05756,0.94324-2.19513,1.14941-3.35815c0.42053-2.31732,0.15332-4.7832-1.01685-6.83197l0.245,0.16998
			c-0.79346-0.21259-1.65112-0.26233-2.5354-0.46356c-0.43799-0.10968-0.87488-0.28992-1.24219-0.55676
			C1416.2334,589.80505,1415.94434,589.45703,1415.71851,589.08551z"/>
	</g>
	<g>
		<path class="st14" d="M1211.41553,714.99377c1.37061,0.13629,2.69849,0.55035,4.005,0.94574
			c1.31348,0.3985,2.59253,0.80548,3.94885,0.97772c1.34961,0.23816,2.73474,0.61542,3.93774,1.32739
			c1.20813,0.69458,2.27075,1.63458,3.06433,2.75708c-0.95374-0.98462-2.04456-1.81506-3.24854-2.41583
			c-1.19873-0.62231-2.49487-0.96985-3.8407-1.17902c-1.35913-0.21521-2.70569-0.62854-3.9823-1.10779
			C1214.01306,715.82764,1212.74646,715.32977,1211.41553,714.99377z"/>
	</g>
	<path class="st25" d="M1258.33936,650.63885c2.427,0.55011,4.96387,0.61047,7.41431,0.17639"/>
	<g>
		<path class="st14" d="M1224.26367,639.46204c0.53528,0.59961,0.7113,1.48218,0.58911,2.28485
			c-0.12915,0.80151-0.56799,1.58807-1.2627,1.99329C1224.39441,642.39813,1224.61975,640.98657,1224.26367,639.46204z"/>
	</g>
	<g>
		<path class="st14" d="M1216.66113,636.56439c2.6073-0.90106,5.27783-1.61292,8.00635-2.0896
			c2.72705-0.41925,5.54956-0.59186,8.26526-0.03156c-2.75488-0.14392-5.48645,0.05438-8.18469,0.52448
			C1222.04028,635.3808,1219.37524,636.06213,1216.66113,636.56439z"/>
	</g>
	<g>
		<path class="st14" d="M1339.19995,692.32001c0.1405,1.77496,0.69482,3.42719,1.17371,5.13324
			c0.46082,1.68842,0.88586,3.52277,0.49634,5.28674c-0.00806-1.78308-0.50183-3.45428-0.97791-5.15326
			C1339.43555,695.8996,1338.9469,694.1048,1339.19995,692.32001z"/>
	</g>
	<g>
		<path class="st14" d="M1203.86389,634.25861c3.1554-0.88647,6.3241-1.67639,9.45825-2.5976
			c3.14941-0.86926,6.25793-1.85565,9.36816-2.88562c-1.47791,0.71021-3.00574,1.31165-4.54797,1.86731
			c-1.54321,0.55493-3.11255,1.03137-4.68347,1.49866C1210.29822,633.00867,1207.1073,633.77582,1203.86389,634.25861z"/>
	</g>
	<path class="st18" d="M1502.62,572.84998c-0.65002,0.66003-1.71008,0.66003-2.64001,0.58002h-0.05005
		c-5.64575,4.28632-11.90002,3.21484-20.65002,1.49481c-5.20996-1.02997-16.38379-5.47009-21.67383-5.89008
		c-4.78992-0.38-9.05554,1.19885-13.85559,1.06885c-4.64001-0.13-10.60291-0.18378-15.21289,0.35626
		c-2.72998,0.31995-4.23206,0.29547-6.85193,1.13544c-0.61011,0.20001-0.54578-2.35828-1.16589-2.1283l-0.78101,0.71606
		c-0.41992,0.15002-0.86877-1.59308-1.29883-1.51306c-0.63989,0.14001-1.08997-0.07001-1.46997-0.47998
		c-0.12988-0.13-0.25-0.28003-0.35999-0.45001c-1.16003-1.67999-1.91003-3.62-2.32996-5.59998
		c-0.87012-4.08002-0.43005-8.40002,0.76001-12.37006c0.28003-0.92999,0.60999-1.87994,1.19995-2.65997
		c0.57007-0.75,1.34009-1.32001,2.1001-1.87c2.98999-2.14001,6.0199-4.28998,9.42993-5.66003
		c2.30005-0.92999,4.71997-1.47998,7.13989-1.98999c8.99011-1.88,18.16016-3.07996,27.33008-2.75
		c9.16992,0.33002,18.35999,2.22003,26.59009,6.28003c2.71997,1.34998,5.31995,2.91998,7.70996,4.78998
		c1.42993,1.10999,2.80994,2.37,3.61987,3.98004c0.7301,1.44995,0.96008,3.08997,1.17017,4.68994
		c0.6499,4.94,1.22998,9.87006,1.75,14.82001c0.0199,0.23004,0.04993,0.47003,0.06995,0.70001
		C1503.25,571.06,1503.30005,572.15997,1502.62,572.84998z"/>
	<path class="st14" d="M1502.93994,592.58997c-0.16992,4.45001-0.95996,8.89001-2.47998,13.08002
		c-0.07996,0.21002-0.13989,0.42999-0.22998,0.63c-2.60999,6.82001-7.21997,11.94-12.72998,16.72998
		c-2.31006,2-5.59998,2.77002-7.78003,4.85004c-0.31006-0.28003-0.56995-0.61005-0.78003-0.98004
		c-0.40991-0.75-0.55994-1.60999-0.72998-2.44995c-0.61987-2.95001-1.37988-5.96002-2.47998-8.78003
		c-0.44995-1.14001-0.8999-2.28998-1.34998-3.42999c-0.93005-0.44-1.95007,0.38-2.96008,0.62
		c-2.15991,0.52002-3.93994-1.65997-5.09985-3.56c1.56995,1.21997,3.54993,2.5,5.3999,1.77997
		c1.28003-0.48999,2.03003-1.78998,2.68005-2.98999c1.32996-2.44995,2.67004-4.94,3.34998-7.64996
		c0.68994-2.70001,0.65991-5.70001-0.65991-8.15002c-0.39014-0.71997-0.93018-1.41998-1.69006-1.71997
		c-0.74011-0.30005-1.57996-0.17999-2.33997,0.02997c-2.94006,0.81-5.46997,2.98999-6.69006,5.78003
		c-1.88,4.31-0.70117,10.5506-1.49719,15.52625c0.88013-6.76001-1.08276-15.61627-2.00281-22.37628
		c-0.46997-3.44-1.20007-6.91998-3.01001-9.88995c-1.80994-2.96002-4.88-5.34003-8.33997-5.52002
		c-1.58008-0.09003-3.13,0.27997-4.69995,0.41998c-1.81006,0.16003-3.63013,0.02002-5.43005-0.12
		c-4.17004-0.31-8.33997-0.62-12.51001-0.92999c-3.65002-0.28003-7.15723-0.29669-10.14722,1.60333
		c-0.42993,0.27002-0.448,0.72888-0.828,1.08887c-0.91992-2.35999-1.7948-5.47223-0.93481-7.99219
		c0.38,0.40997,0.83008,0.62,1.46997,0.47998c0.43005-0.08002,0.8501-0.21997,1.27002-0.37v-0.01001
		c0.62012-0.22998,1.23999-0.48999,1.8501-0.69c2.61987-0.83997,5.31995-1.39001,8.04993-1.70996
		c4.60999-0.54004,9.27002-0.42004,13.91003-0.29004c4.80005,0.13,9.59998,0.26001,14.38989,0.64001
		c5.29004,0.41998,10.55005,1.13,15.76001,2.15997c8.75,1.72003,17.37012,4.32001,26.26001,5.03003
		c0.37012,0.57001,0.70007,1.14996,0.97009,1.76001c0.56995,1.31,0.82996,2.72998,1.06995,4.13995
		c0.18994,1.18005,0.37012,2.35004,0.53003,3.53003c0.14001,1.06,0.46997,2.29999,0.37,3.37
		c-0.09998,0.98999,0.04993,2.01001,0.07996,3.02002C1502.97998,590.35999,1502.97998,591.47998,1502.93994,592.58997z"/>
	<g>
		<path class="st14" d="M1417.94922,619.02655c0.91846,0.59015,1.77563,1.21869,2.65063,1.82867l1.30371,0.92566
			c0.43347,0.31415,0.88147,0.60406,1.31738,0.93756c-1.05432-0.29724-2.02185-0.83307-2.91016-1.45563
			C1419.43152,620.62567,1418.60522,619.9046,1417.94922,619.02655z"/>
	</g>
	<g>
		<path class="st9" d="M1462.24243,928.06183l0.58679,22.45386c0.21289,7.48297,0.40015,14.96606,0.68518,22.44574
			c0.22986,7.48157,0.54834,14.95941,0.88501,22.43658c0.18628,3.73743,0.34753,7.47723,0.58618,11.21204
			c0.17566,3.7395,0.43604,7.47327,0.67969,11.21014c-0.37891-3.72443-0.77502-7.44934-1.08643-11.18164
			c-0.32288-3.73157-0.55493-7.4693-0.81934-11.20544c-0.4696-7.47571-0.78174-14.95959-1.0769-22.44336
			c-0.21558-7.48645-0.41553-14.97321-0.49121-22.46191l-0.05994-11.23309L1462.24243,928.06183z"/>
	</g>
</g>
</svg>
