<?xml version="1.0" encoding="utf-8"?>
<!-- Generator: Adobe Illustrator 25.2.1, SVG Export Plug-In . SVG Version: 6.00 Build 0)  -->
<svg version="1.1" xmlns="http://www.w3.org/2000/svg" xmlns:xlink="http://www.w3.org/1999/xlink" x="0px" y="0px"
	 viewBox="0 0 2000 1500" style="enable-background:new 0 0 2000 1500;" xml:space="preserve">
<style type="text/css">
	.st0{fill:url(#SVGID_1_);}
	.st1{fill:#000B26;}
	.st2{clip-path:url(#SVGID_3_);fill:#3A1E13;}
	.st3{clip-path:url(#SVGID_3_);fill:#110F0F;}
	.st4{clip-path:url(#SVGID_3_);fill:#F2F2F2;}
	.st5{clip-path:url(#SVGID_3_);}
	.st6{fill:#110F0F;}
	.st7{clip-path:url(#SVGID_3_);fill:#009DD1;}
	.st8{fill:#004F69;}
	.st9{clip-path:url(#SVGID_3_);fill:#2B150E;}
	.st10{clip-path:url(#SVGID_3_);fill:#004F69;}
	.st11{fill:#009DD1;}
	.st12{fill:#3A1E13;}
	.st13{fill:#FFFFFF;stroke:#AFC5C9;stroke-width:3;stroke-miterlimit:10;}
	.st14{fill:#CAE4EA;}
	.st15{fill:#58D6C8;}
	.st16{fill:none;stroke:#009DD1;stroke-width:4;stroke-miterlimit:10;}
	.st17{fill:none;stroke:#58D6C8;stroke-width:3;stroke-linecap:round;stroke-linejoin:round;stroke-miterlimit:10;}
	.st18{fill:none;stroke:#58D6C8;stroke-width:4.63006;stroke-miterlimit:10;}
	.st19{fill:none;stroke:#58D6C8;stroke-width:4.24407;stroke-miterlimit:10;}
</style>
<g id="Calque_3">
	<linearGradient id="SVGID_1_" gradientUnits="userSpaceOnUse" x1="999.98126" y1="-251.66695" x2="981.07141" y2="1724.41626">
		<stop  offset="0" style="stop-color:#FFFFFF"/>
		<stop  offset="0.24239" style="stop-color:#F5FAFB"/>
		<stop  offset="0.64821" style="stop-color:#DBEDF1"/>
		<stop  offset="0.87455" style="stop-color:#CAE4EA"/>
	</linearGradient>
	<path class="st0" d="M694.80072,1324.96497c523.87811,343.06165,1384.64233-660.82825,651.10577-777.44153
		c-215.01489-47.20831-192.8103-332.98712-420.9342-256.57379c-152.98346,51.24399-85.8819,371.04828-318.4267,322.19171
		C248.39667,622.76648,253.38936,1065.47229,694.80072,1324.96497z"/>
</g>
<g id="Calque_2">
	<polygon class="st1" points="1053.32727,748.11816 1037.01501,748.11816 1028.5376,751.75336 1030.60535,763.33228 
		1047.76685,764.98639 1055.21045,763.12549 1058.51868,756.55225 	"/>
	<g>
		<defs>
			<path id="SVGID_2_" d="M694.80072,1324.96497c523.87811,343.06165,1384.64233-660.82825,651.10577-777.44153
				c-215.01489-47.20831-192.8103-332.98712-420.9342-256.57379c-152.98346,51.24399-85.8819,371.04828-318.4267,322.19171
				C248.39667,622.76648,253.38936,1065.47229,694.80072,1324.96497z"/>
		</defs>
		<clipPath id="SVGID_3_">
			<use xlink:href="#SVGID_2_"  style="overflow:visible;"/>
		</clipPath>
		<polygon class="st2" points="1357.62097,754.80914 1326.43555,759.32281 1288.80811,779.01892 1269.39893,804.04938 
			1266.11621,838.31305 1264.47485,886.11639 1281.29858,917.5282 1321.10107,927.1499 1391.67883,923.45691 1408.91284,909.09515 
			1427.78833,894.73346 1434.76404,873.80634 1434.76404,844.26221 1434.76404,829.49017 1423.68494,820.87311 
			1403.16821,807.11865 1401.11646,788.4566 1397.42346,772.37885 1393.73047,764.50989 		"/>
		<path class="st2" d="M920.05609,741.60876c-1.39142,3.66144-3.073,7.31927-5.83221,10.09943
			c-6.50452,6.55383-16.38031,6.43256-24.19867,10.54846c-2.5556,1.3454-4.93652,3.21033-6.30042,5.80939
			c-1.8399,3.50629-1.55579,7.74811-0.66492,11.60626c0.5556,2.40625,1.33057,4.76135,2.30835,7.02893
			c0.87445,2.02802,2.50702,3.98785,3.17059,6.05371c0.29169,0.90796,0.39935,1.87378,0.72369,2.79401
			c0.72913,2.06866,1.68677,4.05603,2.84192,5.92029c2.34326,3.78156,5.50446,7.06207,9.2337,9.49323
			c4.98126,3.24744,10.78839,4.95813,16.11523,7.60071c5.36829,2.66309,10.25677,6.2774,15.80988,8.52985
			c9.37585,3.80292,19.84772,3.43732,29.95654,3.01257c9.79822-0.41162,19.74121-0.84857,29.06226-3.89685
			c13.62012-4.45428,25.98877-9.11548,37.8764-17.11749c11.8877-8.00201,21.85388-19.51154,25.80066-33.28729
			c1.37903-4.81329,1.94153-10.2417-0.48572-14.62091c-1.66443-3.00281,0.38806,0.7627-15.3844-9.72601
			c-3.09021-2.05499-5.55481-4.91602-8.0072-7.6759c-2.97913-3.35254-5.91345-6.70135-8.01611-10.672
			c-0.7276-1.37402-1.39178-2.78137-1.99646-4.21368c-1.22473-2.90143-2.20337-5.90314-2.98749-8.95221
			c-1.85559-7.21552-2.63458-14.66351-3.05072-22.08667c-0.50226-8.96039-0.50653-18.03998,1.46832-26.79443
			c1.02081-4.52527,2.59332-8.94379,4.80969-13.02466c1.71539-3.15833,7.362-10.51581,7.8078-11.67725
			c0.85132-2.21826,2.31226-4.27472,3.62634-6.23157c2.573-3.83124,5.57495-7.3681,8.96997-10.49591
			c16.88147-15.55286,27.27905-35.78516,32.73425-58.0813c2.43262-9.94208,3.4375-21.17023-2.12537-29.7619
			c-8.54956-13.20453-22.03467-24.14905-36.16711-31.05756s-29.57837-10.68347-45.02631-13.65219
			c-21.66638-4.16376-43.61853-6.83981-65.65063-8.00314c-10.69153-0.56451-21.64502-0.74002-31.82861,2.5647
			c-7.633,2.47702-14.50989,6.80884-21.22772,11.19846c-3.7959,2.48035-7.6452,5.06216-10.39026,8.67133
			c-5.65118,7.43021-5.56812,17.62839-4.75751,26.92825c1.83026,20.99805,6.0791,41.70044,10.3197,62.34711
			c1.20227,5.85364,2.40814,11.72125,4.24396,17.40814c1.71796,5.3219,3.97894,10.45746,6.61658,15.38556
			c1.31995,2.46613,2.7337,4.88159,4.22034,7.25085c1.16406,1.85522,2.71143,3.66486,3.65021,5.63269
			c0.91602,1.92017,2.0556,3.73755,3.25067,5.51129c2.48254,3.68475,5.29468,7.13727,8.26886,10.43433
			c5.67273,6.28864,11.92432,12.01453,17.92639,17.98016c2.97845,2.96033,6.04877,6.17316,7.43219,10.22998
			c0.70294,2.06146,0.85931,4.40503,1.12762,6.56586c0.29456,2.37201,0.4975,4.75537,0.60913,7.14301
			c0.44647,9.55048-0.56757,19.17108-3.02789,28.41113C922.11212,735.74207,921.15991,738.70416,920.05609,741.60876z"/>
		<path class="st3" d="M966.38788,538.04059c6.33606-1.15234,12.83252-0.9082,19.2677-0.66003
			c3.01776,0.11639,6.08362,0.24121,8.94727,1.2005c2.86359,0.95923,5.54877,2.88531,6.70673,5.6745
			c-8.02765-1.97211-16.18225-3.42725-24.39655-4.35333c-2.97711-0.33563-5.99298-0.60144-8.96185-0.19971
			c-4.84351,0.65546-9.21881,3.04462-13.18506,5.78833c-0.39825,0.27551-1.54706,1.51361-1.90045,0.78809
			c-0.27942-0.57373,0.18542-1.5755,0.5415-2.00854c1.38989-1.69037,3.57849-2.94696,5.52142-3.87811
			C961.28632,539.26239,963.81915,538.50775,966.38788,538.04059z"/>
		<path class="st3" d="M915.37347,552.08386c-6.51123-1.34607-13.0224-2.6922-19.53357-4.03833
			c-1.47504-0.30493-2.96613-0.61139-4.47174-0.56873c-1.80963,0.05127-3.56287,0.60394-5.28839,1.15179
			c-2.58569,0.82086-5.09668,1.82202-7.61426,2.80304c-0.8761,0.34137-1.62164,0.98566-2.505,1.34564
			c-1.3587,0.55377-3.14746,1.00397-4.62305,0.73932c-0.49445-0.08868-1.05219-0.42236-1.23907-0.91504
			c-0.24225-0.63879,0.25562-0.87006,0.75189-1.12848c2.94177-1.53168,5.90607-3.03662,8.9978-4.24622
			c1.07971-0.42242,2.17389-0.80841,3.28339-1.1452c4.98688-1.51392,10.22095-2.0105,15.41541-1.99213
			c2.37823,0.00842,4.87238-0.03217,7.22412,0.36121c1.43317,0.23969,2.41864,0.94684,3.45471,1.92566
			c0.93604,0.88422,1.87738,1.76184,2.82318,2.63568c0.56696,0.52386,1.13397,1.04773,1.70093,1.57166
			c0.28351,0.2619,0.56702,0.52386,0.85046,0.78577C914.77301,551.52905,915.15131,552.03796,915.37347,552.08386z"/>
		<path class="st4" d="M917.5,633.11469c19.61682,0.99548,42.90704-5.11462,56.25354-20.13617
			c-6.33948,9.63562-7.7027,22.91278-17.27466,30.25403c-21.60669,14.43231-40.20435,3.48077-51.84003-16.88477
			C907.85443,630.1568,912.64801,632.32306,917.5,633.11469z"/>
		<g class="st5">
			<path class="st6" d="M920.28583,684.11407c4.52112,2.29706,8.98358,4.729,13.64587,6.64612
				c4.61725,1.95221,9.52313,3.39685,14.43518,3.06787c4.91113-0.28394,9.57886-2.25714,13.88202-4.73993
				c4.3338-2.5058,8.39972-5.42371,12.34937-8.60272c4.03302-3.10468,8.11609-6.07391,11.80829-9.44336
				c0.92896-0.83643,1.80835-1.70624,2.70386-2.62256c0.96344-0.85895,1.91937-1.7442,2.89441-2.55786
				c1.93121-1.67181,3.93549-3.24347,5.94128-4.802c4.00879-3.12134,8.08612-6.117,11.96613-9.35089
				c1.95325-1.60156,3.83185-3.28821,5.64563-5.04761c1.79132-1.78119,3.48883-3.65686,5.09381-5.62341
				c-2.83569,4.21838-6.37817,7.93414-10.10352,11.39789c-3.75775,3.43787-7.72888,6.6192-11.63635,9.83063
				c-1.94916,1.61237-3.88312,3.23553-5.76282,4.90741c-0.95654,0.82855-1.84424,1.68414-2.75928,2.52686
				c-0.85907,0.91266-1.76581,1.84302-2.70514,2.72034c-3.75244,3.52722-7.89124,6.52972-11.86243,9.6402
				c-1.9585,1.55682-4.03119,3.14178-6.13116,4.57941c-2.10504,1.45227-4.25739,2.85034-6.50665,4.10541
				c-2.25275,1.245-4.60016,2.3573-7.06586,3.19702c-1.22699,0.43402-2.49786,0.75293-3.77557,1.02924
				c-1.29095,0.21735-2.59131,0.40826-3.90369,0.42572c-2.62219,0.10419-5.23547-0.29138-7.72937-0.96686
				c-2.49591-0.69098-4.87469-1.67688-7.18256-2.76636C928.9422,689.41187,924.5835,686.81104,920.28583,684.11407z"/>
		</g>
		<g class="st5">
			<path class="st6" d="M915.87097,793.72162c2.57916,0.76184,5.19025,1.00629,7.70551,0.69122
				c2.50043-0.31714,4.90228-1.29803,7.51654-2.0697c2.64105-0.74164,5.40576-1.10468,8.13818-0.97729
				c2.72888,0.11139,5.43872,0.66425,7.9093,1.74359c-2.67761-0.27094-5.29852-0.36035-7.8902-0.18298
				c-2.58881,0.19049-5.13507,0.61047-7.60864,1.33868c-2.48627,0.68555-5.11414,1.672-7.95844,1.69873
				C920.88782,796.01166,918.10223,795.24133,915.87097,793.72162z"/>
		</g>
		<g class="st5">
			<path class="st6" d="M993.36212,792.72638c1.67413-0.75897,3.42548-1.26605,5.2005-1.64056
				c1.7757-0.3739,3.57886-0.61676,5.39026-0.71564c1.81104-0.1059,3.63013-0.06219,5.4364,0.11157
				c1.8056,0.17511,3.60242,0.48633,5.35004,1.0578c-1.81915,0.25818-3.6004,0.38446-5.37488,0.50269l-5.30072,0.32422
				l-5.3045,0.2616C996.98248,792.70648,995.19824,792.77917,993.36212,792.72638z"/>
		</g>
		<path class="st7" d="M1335.68848,746.72729c-19.16565-0.91595-37.90735-4.56604-56.61365-8.37262
			c-14.71399-1.22241-29.64148,0.43207-44.29053,1.95441c-20.8761,2.84332-40.90417,9.9339-60.75928,16.98157
			c-25.59131,9.0838-54.69507,8.42694-81.85071,8.47418c-14.07251,1.72064-26.4176-11.4245-38.84705-17.64667
			c-3.07666,13.90454,1.60132,31.9184-12.69055,42.59637c-31.60101,24.65436-103.74536,33.69281-136.42316,7.28571
			c-26.22131-26.83759,8.24121-55.69397-27.59735-44.91522c-6.01929,1.12677-1.18549,10.52692-5.95612,11.98956
			c-24.70703,3.01691-49.73462,1.91602-74.58893,3.03363c-33.57715-1.36639-37.2486,4.51819-58.28162,29.31519
			c-21.56738,22.54004-29.22498,53.19519-34.99292,83.03619c-3.56439,27.9906-4.61163,56.52753-10.37396,84.1532
			c0.32495,19.52881-2.56848,39.49005,1.64948,58.84631c6.58716,33.50354,6.71429,81.26855,47.6391,90.72437
			c14.63849,63.85767-31.46985,202.99023-62.93689,261.76465c42.47272,27.40735,95.38525,27.43787,145.84686,30.39111
			c77.23206,5.55005,154.30475,18.28955,231.90088,11.13184c22.46777-0.94739,44.90222-4.92761,67.27441-6.14929
			c10.76904,0.67871,22.11035-4.73499,24.81995-15.89807c6.01978-9.23694,10.10669-19.21997,3.34656-29.28931
			c-8.09753-16.6842-16.03687-33.48352-24.14917-50.14221c-9.07446-13.42358-19.17517-28.27295-19.71497-45.12732
			c-27.36316-88.22937,26.50842-147.5708,38.91248-226.46167c40.78589,7.00891,85.94946-1.55725,124.21912-16.28296
			c22.38806-9.42133,38.46338-28.29144,58.9425-40.30511c55.21204-34.22632,130.72437-79.16931,107.64929-155.60468
			c-4.2572-0.42395-8.48083-1.21021-12.75879-1.164c0.49609,17.02014-0.75732,40.15985-13.24988,53.9209
			c-20.97717,20.24115-60.70093,44.229-89.60852,28.74768c-49.07324-29.28748-25.06531-132.47009,24.91357-148.61493
			c-2.96729-5.85541-6.31787-12.11139-7.94482-18.47095"/>
		<g class="st5">
			<path class="st8" d="M894.8255,814.44379c2.37061,1.63361,4.8941,3.01086,7.44696,4.30365
				c2.55969,1.28156,5.16522,2.46368,7.83057,3.49164c5.29718,2.13403,10.77374,3.77472,16.31439,5.07379
				c11.09399,2.56708,22.50378,3.62994,33.87817,3.32819c11.38513-0.21075,22.72589-1.80292,33.88483-4.25226
				c11.16553-2.45856,22.14087-5.84766,32.9679-9.77216c-10.34076,5.07526-21.21649,9.12909-32.41913,12.04797l-4.20703,1.08008
				c-1.4115,0.32202-2.83466,0.5943-4.25208,0.89386c-2.82855,0.6366-5.70081,1.0451-8.56079,1.53082
				c-5.7475,0.77063-11.53345,1.37323-17.34686,1.46912c-5.80798,0.08051-11.6311-0.09369-17.40942-0.7688
				c-5.77039-0.70605-11.50873-1.73737-17.10858-3.2962c-5.60663-1.52191-11.08722-3.50616-16.32617-5.99109
				c-2.61823-1.242-5.18158-2.59888-7.64758-4.11224C899.40497,817.96191,897.00677,816.32916,894.8255,814.44379z"/>
		</g>
		<path class="st9" d="M1171.8136,750.55951c2.32373,4.85901,0.62708,17.05627,1.64612,21.81934l-9.07666,10.16626
			l-12.24036,4.02594l-2.10474-4.02594l1.88464-12.57593l-2.33435-4.50952l2.55444-2.46112l9.12488-5.0694L1171.8136,750.55951z"/>
		<path class="st10" d="M1025.60583,823.45807c0.47375,3.49866-1.44714,6.8277-3.30859,9.82776
			c-2.55334,4.1153-5.33411,8.40417-9.64282,10.61566c-1.40662,0.72198-2.97583,1.20007-4.55426,1.10803
			c-1.57843-0.09198-3.16315-0.8111-4.07391-2.10352c-0.83545-1.18555-1.03174-2.7016-1.06494-4.15155
			c-0.12396-5.41119,1.69525-10.7583,4.58435-15.33533c0.92505-1.46552,0.90594-3.30707,2.3175-4.31238
			c3.36859-2.39911,9.62732-1.29236,12.25439,1.90161C1023.69977,821.22113,1025.3916,821.87604,1025.60583,823.45807z"/>
		<path class="st10" d="M1035.74634,878.66644c-7.06226,4.961-11.69568,12.6109-15.85278,20.17438
			c-3.45874,6.29303-6.79651,12.89734-7.42261,20.05084c-0.19916,2.27582-0.09851,4.65588,0.90826,6.7066
			c1.47443,3.00336,4.75037,4.85065,8.07355,5.23901c3.32312,0.38831,6.68054-0.50635,9.74573-1.84747
			c6.09631-2.66724,11.2644-7.04272,16.2384-11.46295c3.88904-3.45599,7.76489-7.0307,10.57959-11.40631
			c2.06128-3.20459,3.46619-6.81555,4.1908-10.55298c0.73157-3.77368,0.77393-7.68274,0.10889-11.4693
			c-0.3335-1.89825-0.84302-3.76953-1.5376-5.56781c-0.5863-1.51782-1.40125-1.94141-2.80994-2.6463
			c-3.26587-1.63428-6.99866-2.09222-10.60291-1.6795c-3.7063,0.42444-7.31555,1.73273-10.47693,3.7052
			C1036.50122,878.15161,1036.12012,878.40387,1035.74634,878.66644z"/>
		<path class="st2" d="M1181.99316,827.47327c-8.64294,4.15601-13.3999-3.77716-12.43604-11.65765
			c-13.98779,11.95801-28.69543,23.39789-44.43909,32.96429c-20.37842,10.57697-43.01245,16.58435-64.20728,24.92413
			c-23.76892,13.76526-44.55994,69.11743-74.05518,32.76752c-17.67102-22.53705-5.42096-54.02399,16.93481-68.21259
			c29.82104-24.54663,47.57324-59.62384,70.31177-90.13629c4.79114-6.31433,9.93494-12.36432,14.56006-18.76398
			c4.20569-3.63989,10.36487-3.6864,15.38611-5.7655c19.63733-6.31488,12.84009-5.63776,31.81384-13.65601
			c25.00964-11.56433,51.72742-17.93457,78.24585-24.82312c12.13623-3.68964,21.60535-7.68329,33.57703-11.87604
			c3.46619-1.21393,7.32312-2.42285,10.70935-1.00104c5.34033,2.24237,6.16138,10.08441,2.97937,14.92407
			c-14.91492,15.07245-43.35815,16.29462-62.23633,26.44037c-10.61938,4.68622-21.00684,10.63354-32.53955,11.9458
			c-15.78687,1.81244-19.78296,12.32727-38.86462,21.85657c-2.14197,1.06964,8.00684,4.72052,5.88281,5.6275
			c21.85498-9.33282,29.73877-10.78784,34.76208-6.68823c5.93823,4.22559,4.8916,14.02277,0.61475,19.17688
			c-7.14563,7.69836-15.77527,12.62976-25.04822,17.43829c6.53955-3.39105,19.1344-9.79309,29.24414-12.73407
			c8.13867,0.84161,14.07654,12.96246,11.38428,20.3703c4.71851,2.87067,8.52795,8.52313,6.97241,14.11243
			c0.14771,8.57922-0.54236,15.85919-7.57764,22.38593"/>
		<g class="st5">
			<path class="st6" d="M1133.03809,753.03131c-2.40588,1.38794-4.9054,2.61908-7.46399,3.70886
				c-2.55432,1.10101-5.16699,2.05176-7.74878,3.06201c-2.59644,0.97235-5.15796,2.02466-7.65283,3.22174
				c-2.49353,1.19812-4.91589,2.55084-7.25366,4.05078c2.23254-1.65222,4.60205-3.12866,7.08276-4.39526
				c2.47607-1.27679,5.05774-2.33289,7.64502-3.34357c2.60266-0.97345,5.20544-1.92865,7.78149-2.94958
				C1128.0022,755.36206,1130.54578,754.25757,1133.03809,753.03131z"/>
		</g>
		<g class="st5">
			<path class="st6" d="M1151.64453,778.7851c-2.41943,1.68256-4.85303,3.26617-7.37732,4.76129
				c-2.52991,1.46356-5.16992,2.84485-8.02612,3.62317l7.52173-4.48584
				C1146.2865,781.22601,1148.8573,779.77216,1151.64453,778.7851z"/>
		</g>
		<g class="st5">
			<path class="st6" d="M1184.75732,790.90393c-1.87524-0.36682-3.78113-0.49628-5.66333-0.31329
				c-1.88293,0.13544-3.73865,0.53082-5.53479,1.09161c-3.59705,1.12531-6.96106,2.9071-10.16565,4.93115
				c-3.24023,1.97437-6.39441,4.1441-9.62756,6.1701l-4.84937,3.04633c-1.63672,0.98492-3.25439,1.9986-4.90784,2.95825
				c1.5282-1.14868,3.09216-2.24347,4.63696-3.36688l4.69531-3.27887c3.14905-2.16119,6.29028-4.31348,9.52771-6.37885
				c3.28076-1.97333,6.72424-3.81732,10.47766-4.81677c1.87134-0.48547,3.79175-0.80621,5.72388-0.8429
				C1180.99915,790.08252,1182.93604,790.31793,1184.75732,790.90393z"/>
		</g>
		<g class="st5">
			<path class="st6" d="M1188.81274,807.11865c-1.80005,0.21533-3.5354,0.63715-5.20276,1.2514
				c-1.67004,0.60486-3.27942,1.36157-4.86145,2.1875c-1.58215,0.82465-3.13489,1.72369-4.70996,2.59839
				c-0.78967,0.43585-1.58862,0.84436-2.35535,1.28723c-0.76831,0.44067-1.50208,0.9646-2.26099,1.46881
				c0.5874-0.69305,1.2146-1.35852,1.93115-1.94287c0.71619-0.58368,1.47961-1.07892,2.23657-1.56854
				c1.52783-0.96045,3.08032-1.89941,4.70886-2.71747c1.62219-0.82361,3.31604-1.54633,5.09033-2.01648
				C1185.15222,807.17145,1187.00806,806.97638,1188.81274,807.11865z"/>
		</g>
		<g class="st5">
			<path class="st8" d="M1149.9021,896.78601c-2.79358,12.14929-4.45972,24.45319-5.65161,36.80981
				c-0.57983,6.18042-1.10034,12.37073-1.57251,18.57245c-0.46899,6.2038-1.03271,12.40295-1.44995,18.59326
				c-0.92261,12.383-1.37427,24.73572-0.45593,37.09589c0.1853,3.09613,0.41187,6.18555,0.71948,9.26398
				c0.28394,3.08124,0.66382,6.15082,1.16504,9.20245c0.95618,6.11304,2.4668,12.13831,4.35474,18.07935
				c-2.54541-5.69092-4.47351-11.67603-5.85803-17.78992c-0.677-3.05981-1.23279-6.14752-1.69104-9.24567
				c-0.43823-3.10083-0.78772-6.2099-1.09839-9.31769c-0.65283-6.20026-0.93799-12.50916-0.92664-18.76434
				c0.06384-6.26422,0.35388-12.51514,0.81177-18.73987c0.48499-6.22498,1.03235-12.4245,1.63293-18.62238
				c0.62024-6.19769,1.22998-12.40527,2.08008-18.5907C1143.60144,920.96796,1145.9314,908.61346,1149.9021,896.78601z"/>
		</g>
		<g class="st5">
			<path class="st8" d="M1167.6239,955.83844c-0.82715,6.49915-1.28015,12.96906-1.22302,19.42511
				c0.05994,1.61401,0.11462,3.22461,0.13867,4.83398l0.32861,4.81824c0.18799,1.59882,0.33118,3.20026,0.49829,4.79944
				l0.71069,4.77075l0.86707,4.74469l1.07825,4.70312l1.24182,4.66687c0.49573,1.53131,0.96692,3.0722,1.42847,4.61993
				c2.02832,6.12909,4.54175,12.10754,7.41711,17.99475c-3.94458-5.23877-7.125-11.07166-9.6134-17.18433
				c-0.59399-1.53857-1.17908-3.08398-1.73877-4.63916l-1.48157-4.7323l-1.19812-4.81433l-0.95874-4.86932l-0.66101-4.91852
				c-0.13782-1.64844-0.29919-3.29474-0.41577-4.9436l-0.12402-4.95709c0.02771-1.65259,0.08704-3.30396,0.15112-4.9519
				C1164.45483,968.61658,1165.58289,962.07019,1167.6239,955.83844z"/>
		</g>
		<g class="st5">
			<path class="st8" d="M1315.18213,746.46069c-3.66187,1.97473-7.15833,4.21735-10.52222,6.63025
				c-3.35596,2.42749-6.54529,5.073-9.63635,7.82343c-3.1051,2.73511-6.10461,5.5918-9.05627,8.50201
				c-2.94714,2.91656-5.8988,5.83447-8.74585,8.83252c-5.68591,5.99548-11.1178,12.23456-15.49304,19.15051
				c-4.43774,6.86615-7.58496,14.45508-9.92334,22.34265c-2.40259,7.86365-4.15918,15.98865-6.07593,24.07275
				c-1.91528,8.07758-3.69226,16.17285-5.17688,24.31396c-1.42676,8.14728-2.52197,16.35626-2.90027,24.62
				c-0.39929,8.26233,0.05945,16.56549,1.38843,24.77942c-1.99768-8.08374-2.76367-16.45715-2.85864-24.81122
				c0.02917-8.362,0.82007-16.71039,2.06055-24.96826c1.22217-8.26477,2.95996-16.42828,4.7168-24.56348
				c1.83521-8.10785,3.56909-16.2569,5.97717-24.3147c2.43396-8.01965,5.72595-15.94574,10.41309-23.00854
				c4.66235-7.05859,10.26367-13.38068,16.20605-19.245c5.95154-5.85748,12.04346-11.53485,18.52441-16.81927
				C1300.59985,754.59662,1307.55078,749.81494,1315.18213,746.46069z"/>
		</g>
		<g class="st5">
			<path class="st8" d="M1129.3302,1104.81775c-2.75537,4.41113-5.98499,8.51208-9.48743,12.3623
				c-0.88293,0.95569-1.77039,1.90942-2.67981,2.84155l-2.78015,2.74585c-0.94812,0.89343-1.92639,1.75415-2.88855,2.63293
				l-2.96338,2.54968l-3.06982,2.42053l-3.1366,2.33191l-3.22864,2.20142c-1.0896,0.71338-2.1936,1.40454-3.30212,2.08594
				c-4.4502,2.69983-9.09558,5.08167-13.95496,6.93652c4.27441-2.95874,8.51404-5.8623,12.65735-8.88501
				c1.02148-0.77649,2.04749-1.54297,3.08777-2.28748l3.04822-2.33276l3.02344-2.35986l2.96936-2.42566l2.95129-2.44788
				c0.96655-0.83655,1.91699-1.69104,2.89758-2.51282l2.87378-2.5448c0.92981-0.87866,1.88171-1.73584,2.83801-2.59094
				C1121.94763,1112.0531,1125.6095,1108.44775,1129.3302,1104.81775z"/>
		</g>
		<g class="st5">
			<path class="st8" d="M1003.70209,1190.7876c-0.23566,4.34106-1.72028,8.59521-3.80774,12.45593
				c-2.13647,3.84912-4.8335,7.35693-7.75714,10.60376c-1.45605,1.63208-2.97052,3.20032-4.52313,4.72144
				c-1.52393,1.55383-3.12866,3.02344-4.70251,4.52759c-3.22992,2.91724-6.54248,5.74695-9.97333,8.42871
				c-6.89526,5.31494-14.16547,10.16028-21.83099,14.27295c-7.63306,4.16333-15.62781,7.65076-23.86566,10.32471
				c7.76764-3.83179,15.37366-7.8623,22.69757-12.35352c1.84375-1.09937,3.62787-2.29578,5.45349-3.42004
				c1.78198-1.1947,3.59155-2.34509,5.33472-3.59436c3.547-2.40771,6.99402-4.9585,10.37-7.59631
				c6.77802-5.23499,13.23755-10.92017,19.34491-16.91296c2.99719-3.0343,5.84326-6.21729,8.19745-9.75854
				C1000.99719,1198.95654,1002.80603,1195.03394,1003.70209,1190.7876z"/>
		</g>
		<g class="st5">
			<path class="st8" d="M1039.72949,1015.88367c-2.31433,4.30798-4.92651,8.46826-7.82861,12.42456
				c-2.92456,3.93579-6.01978,7.74951-9.24817,11.44043c-6.49255,7.34961-13.36652,14.323-19.83905,21.59021
				c-1.60675,1.82593-3.20563,3.65759-4.7392,5.53687l-2.30188,2.81616l-2.20447,2.88501
				c-0.75153,0.94995-1.43335,1.94727-2.1264,2.93652c-0.69147,0.99731-1.39056,1.95959-2.07581,2.98486l-4.12817,6.07935
				c-5.58411,8.05103-11.34229,15.98242-17.28595,23.77356c-6.00031,7.74695-12.12842,15.39575-18.466,22.8689
				c-6.38696,7.43005-12.86896,14.77905-19.59979,21.89648c-6.72534,7.12158-13.62854,14.07092-20.68835,20.85242
				c-7.13788,6.70129-14.33807,13.3302-21.79547,19.66211c6.99927-6.83472,13.98682-13.66504,20.75958-20.70605
				c6.79718-7.01489,13.44946-14.16187,20.00208-21.39429c13.03381-14.52979,25.55414-29.50903,37.40863-45.00391
				c5.96271-7.72046,11.70203-15.60999,17.34192-23.56946l4.19708-5.99365c0.68744-0.99719,1.43781-2.00366,2.15387-3.00452
				c0.72388-1.00232,1.43726-2.0127,2.21637-2.96985c2.98151-3.94226,6.28326-7.60217,9.60559-11.21838
				c6.68518-7.2002,13.77258-13.93616,20.48608-21.00854c3.37488-3.51965,6.61584-7.15942,9.70032-10.93579
				C1034.31274,1024.01526,1037.13501,1020.03284,1039.72949,1015.88367z"/>
		</g>
		<g class="st5">
			<path class="st8" d="M849.82269,885.38c-0.47528,2.98712-0.93701,5.96436-1.29694,8.95245
				c-0.34839,2.98895-0.65607,5.97943-0.84583,8.97919c-0.21338,2.99805-0.31049,6.00275-0.36584,9.01135
				c-0.02411,1.5047-0.01971,3.01019,0.00317,4.51709l0.02631,2.2627c0.0282,0.7536,0.04431,1.50879,0.05176,2.26581
				c-0.24567-1.49341-0.40204-2.99756-0.56763-4.5033c-0.12244-1.5083-0.21338-3.01959-0.28278-4.53326
				c-0.12616-3.02783-0.05493-6.0625,0.13788-9.08765c0.21649-3.02356,0.55304-6.04028,1.08545-9.02368
				C848.28925,891.23651,848.94501,888.27625,849.82269,885.38z"/>
		</g>
		<g class="st5">
			<path class="st11" d="M741.36841,1114.55005c30.87622,1.93835,61.24286-7.47253,90.50598-17.51062
				c20.13641-6.90747,42.20813-11.6217,61.24268-21.15454c6.05896-3.0343,12.01141-6.28113,17.84399-9.73071
				c11.66528-6.89917,22.85083-14.60889,33.45197-23.05237c5.30054-4.22168,10.45496-8.62683,15.45013-13.20569
				c2.49756-2.28943,4.95532-4.62231,7.37152-6.9975c4.54211-4.46472,9.19153-8.70294,13.89722-13.01416
				c7.37378-6.75568,14.66107-13.60889,21.73706-20.67694c7.04584-7.0379,13.88342-14.2901,20.36072-21.85645
				c6.44598-7.52966,12.53461-15.37256,18.08563-23.58691c1.38831-2.05432,2.7428-4.13147,4.06067-6.23169
				c1.26941-2.02313,2.35107-4.3244,3.87476-6.16571c0.49219-0.59479,1.08557-1.0777,1.62012-1.63025
				c0.84644-0.87494,1.39343-1.91089,1.93579-2.99213c5.77759-11.51788,11.07849-23.77777,11.52148-36.8493
				c0.17761-5.24365-0.88245-10.36481-5.18127-13.37262c3.60071,4.04358,3.12769,9.44019,1.67456,14.65588
				c-3.54688,12.73138-12.2655,24.91309-24.96484,28.573c-2.95117,0.85052-6.08289,1.2193-9.1084,0.69122
				c-3.7226-0.64972-7.1424-2.73688-9.53223-5.64899c-1.12378-1.36932-9.17566-12.05438-11.37439-16.64349
				c-2.13379-4.45355-3.61719-9.20929-4.54333-14.05566c-2.06738-10.81805-1.52576-21.94965-0.74835-32.93604
				c0.0174-0.24561,0.03491-0.49127,0.05273-0.73682c0.35803-4.93286,0.80768-9.8822,1.88751-14.71759
				c1.28503-5.75439,3.32043-11.60602,7.95905-15.49469c-21.94537,9.85468-42.50067,24.34052-61.87909,38.59497
				c-22.27496,16.38507-47.08026,27.91028-71.3996,41.07117c-6.8974,3.73273-13.84412,7.40277-20.39386,11.71649
				c-4.15479,2.73639-8.15149,5.7326-12.52057,8.11194c-8.64478,4.70789-18.93988,7.16394-25.44049,14.55573"/>
			<path class="st8" d="M741.36841,1114.55005c8.99841,0.45959,18.02002-0.0238,26.93463-1.19897
				c8.92365-1.14185,17.73944-3.01074,26.43628-5.29529c8.70099-2.27856,17.29169-4.96216,25.82312-7.82153l12.77289-4.39014
				c4.26996-1.46497,8.5694-2.83386,12.87811-4.15393c17.21283-5.25684,34.6438-10.09827,50.41956-18.6864
				c15.89606-8.34595,31.00385-18.17493,45.0918-29.28308c7.03247-5.56726,13.8476-11.41479,20.30579-17.6366
				c6.46021-6.185,13.14789-12.35449,19.67072-18.54596l19.51575-18.6123c6.39178-6.31232,12.55359-12.84674,18.46783-19.58905
				c5.90253-6.7514,11.52826-13.74066,16.737-21.02423c1.30164-1.82092,2.58179-3.65698,3.82666-5.51599l3.65637-5.6275
				c1.19128-1.80872,2.13647-3.85492,3.56152-5.84314c0.17847-0.24677,0.36255-0.49237,0.55847-0.73352
				c0.18665-0.2406,0.43921-0.52051,0.65527-0.73792c0.44666-0.45178,0.86816-0.81964,1.18799-1.1601
				c0.61316-0.63971,1.09253-1.49701,1.58411-2.48138c4.00037-8.00311,7.68494-16.18298,9.75598-24.76929
				c1.0083-4.27448,1.6344-8.68805,1.63281-13.00293c-0.02551-2.12842-0.29956-4.23346-1.0282-6.1048
				c-0.71472-1.87537-1.90979-3.46906-3.51489-4.60022l1.95483-2.198c1.38599,1.56696,2.37012,3.52679,2.7915,5.55536
				c0.43005,2.02808,0.3949,4.06665,0.13306,6.00238c-0.25879,1.94299-0.72742,3.80951-1.29675,5.61157
				c-0.2627,0.91095-0.56702,1.80804-0.90051,2.69537c-0.30396,0.89795-0.67737,1.76947-1.04346,2.64368
				c-2.95837,6.95453-7.47412,13.401-13.65613,18.01355c-3.08093,2.28876-6.56946,4.10034-10.31006,5.1214
				c-3.70923,1.02795-7.8302,1.34601-11.70508,0.07556c-1.9118-0.62567-3.69672-1.59125-5.27295-2.81757
				c-0.78827-0.6134-1.52496-1.29254-2.20001-2.0296c-0.69006-0.75104-1.26056-1.52325-1.8147-2.25085
				c-2.23676-2.96545-4.40295-5.96094-6.48749-9.04547c-1.03857-1.54675-2.05872-3.104-3.00751-4.75983
				c-0.97821-1.70135-1.70642-3.43024-2.4093-5.18481c-1.37805-3.51758-2.39447-7.16321-3.09344-10.85846
				c-1.38519-7.39294-1.60205-14.90784-1.34003-22.31934c0.12421-3.71082,0.36981-7.40417,0.63263-11.08728
				c0.26819-3.68451,0.57568-7.39581,1.15259-11.09918c0.58881-3.70392,1.40118-7.37994,2.75256-10.96344
				c0.69403-1.78223,1.54004-3.52917,2.60339-5.164c1.07635-1.62537,2.37653-3.12903,3.88763-4.39819l1.27783,2.0387
				c-16.91895,7.54016-32.65057,17.57513-47.87012,28.22455c-3.81073,2.66211-7.5838,5.38251-11.35162,8.11188
				c-3.74377,2.7489-7.58545,5.45624-11.47235,8.0368c-7.81055,5.13232-15.86987,9.8587-24.05585,14.32477
				c-8.17596,4.48834-16.48645,8.70312-24.75861,12.97693c-8.27094,4.26685-16.52588,8.58508-24.68036,13.05737
				c-4.06555,2.25586-8.05823,4.62982-11.9079,7.2345c-3.85925,2.58606-7.69086,5.29462-11.89166,7.3714
				c-4.1839,2.08783-8.55426,3.71613-12.75311,5.71362c-4.18396,1.98267-8.26691,4.401-11.38947,7.89044
				c3.06036-3.54388,7.12109-6.04834,11.28302-8.10919c4.17719-2.07446,8.52051-3.78735,12.64056-5.92432
				c4.13416-2.11066,7.90259-4.84753,11.73773-7.4906c3.83038-2.66492,7.81854-5.10693,11.86554-7.42145
				c8.117-4.58984,16.31079-9.01215,24.53558-13.39142c8.224-4.37128,16.45306-8.72461,24.5722-13.25751
				c8.1272-4.51788,16.10901-9.2854,23.82446-14.44324c3.85059-2.60162,7.60175-5.28888,11.34259-8.08124
				c3.75195-2.76349,7.51129-5.51959,11.31348-8.22083c15.18512-10.80383,30.93616-21.03949,48.02075-28.81842
				c0.61005-0.27777,1.32971-0.00842,1.60748,0.60162c0.22931,0.50354,0.08575,1.08179-0.31439,1.42456l-0.0152,0.01257
				c-1.30267,1.11432-2.42816,2.43274-3.37567,3.8858c-0.93494,1.46405-1.69421,3.05566-2.3241,4.71112
				c-1.22723,3.32721-2.02783,6.8858-2.57892,10.45758c-0.54901,3.58344-0.84326,7.22626-1.10016,10.89221
				c-0.25214,3.66943-0.48578,7.33319-0.59851,10.98993c-0.24005,7.30719,0.00031,14.62286,1.35229,21.73309
				c0.67993,3.54437,1.66229,7.02698,2.9823,10.37018c0.66937,1.66272,1.38654,3.33716,2.2547,4.82843
				c0.88733,1.54016,1.89044,3.06683,2.9104,4.57623c2.05042,3.01752,4.21271,5.99164,6.42224,8.90466
				c0.56305,0.73688,1.0946,1.4458,1.65558,2.04926c0.57104,0.6203,1.19531,1.19287,1.86255,1.70935
				c1.33429,1.03296,2.84204,1.84119,4.43561,2.35785c3.17944,1.04016,6.73877,0.80188,10.09009-0.13892
				c3.37866-0.93146,6.54114-2.5824,9.36316-4.68951c5.66113-4.23956,9.91089-10.28748,12.68396-16.86829
				c0.34326-0.8266,0.69507-1.64978,0.979-2.49963c0.31335-0.83905,0.59888-1.68719,0.84399-2.54871
				c0.5376-1.71039,0.95959-3.43695,1.18201-5.1485c0.22876-1.71027,0.23474-3.41272-0.10583-4.99475
				c-0.33826-1.5838-1.06812-3.01013-2.12305-4.21027c-0.54126-0.61377-0.48242-1.55005,0.13135-2.09125
				c0.52087-0.45935,1.27661-0.48425,1.82349-0.10681c2.09827,1.453,3.71118,3.61786,4.59497,5.94989
				c0.91028,2.3363,1.20911,4.77533,1.24707,7.13818c0.00061,4.698-0.68237,9.25623-1.74438,13.74109
				c-2.18762,8.95386-5.99548,17.30536-10.05432,25.37921c-0.51733,1.02039-1.12622,2.17023-2.07605,3.16534
				c-0.45557,0.47638-0.88635,0.84735-1.2301,1.19727c-0.17969,0.18292-0.30676,0.31989-0.46643,0.52325
				c-0.15979,0.19513-0.31384,0.3999-0.46582,0.60864c-1.21692,1.66876-2.19299,3.72784-3.47485,5.68341l-3.71912,5.69147
				c-1.26575,1.87946-2.56641,3.73456-3.88818,5.57367c-5.28967,7.35596-10.99121,14.40057-16.96155,21.19373
				c-5.98151,6.78333-12.20447,13.34717-18.64453,19.67444l-19.63885,18.63269c-6.5575,6.19312-13.12909,12.21838-19.69653,18.47382
				c-6.52649,6.26526-13.47314,12.07886-20.59784,17.6438c-14.28937,11.08557-29.58588,20.86511-45.65381,29.1405
				c-8.00671,4.20642-16.44373,7.66699-25.00934,10.50745c-8.56158,2.89355-17.24176,5.3407-25.86713,7.9071
				c-4.31635,1.27271-8.61993,2.57422-12.88715,3.97949l-12.83569,4.22729c-8.58307,2.75415-17.23059,5.33362-25.9856,7.5061
				C777.47516,1113.24524,759.37341,1115.78809,741.36841,1114.55005z"/>
		</g>
		<path class="st3" d="M858.46082,609.71606c-3.37787-6.69403-4.75226-14.78235-1.92456-21.72675
			c0.74951-1.84064,1.80096-3.70184,1.57019-5.67578c-0.37488-3.20734-3.97559-5.34827-4.2511-8.56567
			c-0.14032-1.63861,0.62555-3.19733,1.0993-4.77222c2.60547-8.66046-3.54169-17.26697-5.61731-26.06946
			c-3.59723-15.25531,5.19806-30.35504,8.53796-45.66879c1.72662-7.91693,2.01086-16.1756,4.71075-23.81561
			c6.96838-19.71848,27.82501-30.50073,47.3219-38.06693c20.48346-7.94907,41.51447-14.48669,62.89459-19.55121
			c4.88513-1.1572,9.82898-2.24265,14.84845-2.33356c10.41504-0.1886,20.38892,3.88394,30.66254,5.60474
			c5.49573,0.9205,11.17206,1.18686,16.37067,3.19315c15.25952,5.88907,21.45166,24.224,34.30676,34.33722
			c4.4751,3.52057,9.78003,6.04929,13.6001,10.27167c4.00269,4.42416,5.9845,10.2771,7.62866,16.01221
			c8.28113,28.8866,10.55505,59.48074,6.6355,89.27414c-2.67322,20.31842-9.55054,42.15759-26.95605,52.97571
			c-10.62598,6.60437-27.00195,19.46661-36.7688,15.8988c-7.94165-3.60321-8.61694-12.26532-5.83606-20.53088
			c1.02625-3.04993,2.8999-5.93323,2.86121-9.151c-0.01599-1.32208-0.36121-2.64349-0.18677-3.9541
			c0.43225-3.24542,3.70154-5.17261,6.37671-7.06006c13.25818-9.35376,17.40552-29.45746,8.93176-43.29456
			c-1.44983-2.36737-3.32104-4.63525-5.89172-5.68323c-2.75427-1.12286-5.8656-0.68323-8.80469-0.22577
			c-4.27283,0.6651-8.54572,1.3302-12.81854,1.9953c-1.49603-5.31366-2.06555-10.88684-1.67523-16.39325
			c0.31256-4.40961,1.15796-9.18475-1.1012-12.9845c-5.29871,0.95135-9.30054-4.36975-13.6106-7.59534
			c-9.67987-7.24445-23.45166-4.28796-34.9953-7.88336c-8.70795-2.71222-17.67841-9.24985-26.00293-5.52322
			c-3.09943,1.38754-6.38159,4.16476-9.41193,2.63211c-0.93738-0.47406-1.70239-1.33707-2.73767-1.51477
			c-1.2536-0.21518-2.40369,0.63547-3.51855,1.24771c-5.84576,3.21021-13.17657,0.24704-19.72528,1.50916
			c-4.94965,0.95392-9.12378,4.2608-13.92902,5.78348c-4.80524,1.52264-11.3877,0.22009-12.66333-4.65659
			c-4.64294,11.09824-9.28595,22.1965-13.92896,33.29471c-0.76697,1.83331-1.54144,3.69409-1.79547,5.66504
			c-0.2392,1.85608-0.00708,3.7373,0.23999,5.59235c1.80139,13.52423,4.40283,26.92236,6.69824,40.36713
			c1.14697,6.71796,2.21899,13.45044,3.07507,20.21228c0.40332,3.18567,1.34113,6.90668,1.09528,10.11182
			c-0.15326,1.99847-1.7865,1.87872-3.33075,1.2442c-2.64038-1.0849-4.39221-3.4408-6.11646-5.60052
			C862.10382,615.85559,860.06927,612.90375,858.46082,609.71606z"/>
		<g class="st5">
			<path class="st8" d="M872.03619,764.60388c-0.01093,1.77051,0.1048,3.51965,0.24097,5.26117
				c0.15961,1.73932,0.34033,3.47418,0.63953,5.19159c0.27948,1.71918,0.60895,3.43262,1.02356,5.13007
				c0.39313,1.70453,0.87573,3.388,1.34167,5.10077c-0.82538-1.56433-1.56573-3.19061-2.09277-4.8891
				c-0.57623-1.68457-0.9566-3.42944-1.25922-5.18329c-0.28558-1.75781-0.42792-3.5387-0.42944-5.31769
				C871.49402,768.12042,871.64044,766.33466,872.03619,764.60388z"/>
		</g>
	</g>
</g>
<g id="Calque_5">
	<path class="st12" d="M1646.15442,451.59708c1.87817-0.43719,4.11633-0.7211,5.49841,0.62363
		c0.97729,0.95078,1.18811,2.42307,1.29382,3.78241c1.60156,20.58722-9.52893,41.63907-27.44446,51.9072
		c-3.59106-1.51031-4.59216-6.05679-4.91626-9.93906c-0.77454-9.27991-0.45215-18.65054,0.948-27.85657
		c0.45093-2.9646,0.63892-6.93726,2.55933-9.42825c1.70142-2.20712,4.9115-3.23593,7.37146-4.2847
		C1636.21008,454.37863,1641.12988,452.76669,1646.15442,451.59708z"/>
	<path class="st12" d="M1662.1803,557.5946c0.65161,0.20422,1.33557,0.42841,1.79529,0.93347
		c0.63684,0.69958,0.67737,1.73944,0.68311,2.68549c0.14978,24.48462,0.29944,48.9693,0.44922,73.45398
		c0.00757,1.25458,0.00671,2.5528-0.5,3.70056c-1.06714,2.41742-4.03027,3.40125-6.67261,3.38348
		c-5.94092-0.03986-11.38721-3.80072-14.81934-8.65002c-3.43225-4.84924-5.14783-10.68726-6.50098-16.47211
		c-3.06592-13.1073-4.55896-26.52405-6.02087-39.90552c-0.70288-6.43506-3.4812-21.9054,4.29346-25.40509
		c3.40173-1.53125,7.53589,0.0863,10.81885,1.11334C1651.19861,554.15021,1656.68896,555.87378,1662.1803,557.5946z"/>
	<path class="st12" d="M1676.71472,761.41956c0.64941,10.97699-2.02661,10.04193-5.36389,13.22192
		c-0.68652,0.65411-1.52148,1.13202-2.39758,1.49487l-7.60767,2.83759c-2.07922,0.86127-4.4574,1.74451-6.42957-0.72809
		c-0.71509-0.89648-1.14136-1.98596-1.34851-3.11383c-1.96228-10.68347-4.21509-21.79352-3.04028-32.73474
		c1.2251-11.40942,12.38147,2.07031,15.04053,5.25574C1669.35168,752.18597,1676.36597,755.52515,1676.71472,761.41956z"/>
	<path class="st12" d="M1675.15869,687.80859c-0.62659,10.03522-4.07495,19.68927-8.25281,28.83496
		c-1.69885,3.71912-3.6543,7.53748-6.99646,9.89288c-3.34216,2.35547-8.46606,2.68225-11.20837-0.35052
		c-1.33398-1.47516-1.90698-3.47021-2.37427-5.40332c-3.12927-12.94556-3.32434-26.3949-3.50366-39.7121
		c-0.11682-8.6864-0.23376-17.3728-0.35071-26.0592c-0.04468-3.32745-2.28735-18.14221,4.06519-17.57666
		c2.5979,0.23132,6.03601,3.49884,7.99854,5.07428c2.552,2.04858,4.91467,4.33173,7.06152,6.80109
		c4.30042,4.94617,7.74011,10.64606,10.0957,16.76306C1674.34998,672.97162,1675.62012,680.41919,1675.15869,687.80859z"/>
	<path class="st12" d="M1373.1438,531.48199c-9.74731-9.73193-16.99902-23.36053-29.4054-29.79623
		c-10.8988-2.72046-27.63159-1.91785-34.72253,7.76132c-4.47693,10.05505,10.16614,26.87354,15.40698,34.9939
		c8.46265,13.5437,14.36292,28.67303,17.36536,44.35565c2.76062,16.46552,7.96497,32.68079,7.05811,49.64886
		c-1.30847,7.48944-2.65527,14.7796-2.48694,22.49371c-1.4856,20.50043-7.60901,40.4978-7.55151,61.14343
		c-0.73462,28.56757,8.75012,56.16229,27.35425,78.00922c7.05798,8.33759,13.93628,18.06049,24.15601,22.55292
		c52.01172,11.24408,111.38672-31.05914,115.10986-84.85413c-65.86145-39.97406-92.96655-99.4859-72.74597-174.58118
		C1449.25916,522.00507,1396.87744,534.4895,1373.1438,531.48199z"/>
	<path class="st13" d="M1659.42761,831.99445h-256.77991c-3.54944,0-6.48804-2.75793-6.71277-6.30023l-30.22656-476.34842
		c-0.24585-3.87457,2.83044-7.15216,6.71277-7.15216H1606.177c3.42566,0,6.30408,2.57452,6.68457,5.97894l53.25061,476.34842
		C1666.55774,828.50684,1663.43823,831.99445,1659.42761,831.99445z"/>
	<polygon class="st14" points="1430.49304,355.95398 1457.77429,376.41489 1529.38757,376.41489 1554.39539,355.95398 
		1597.5907,355.95398 1649.87964,808.78809 1415.7157,808.78809 1381.61414,355.95398 	"/>
	<path class="st15" d="M1478.52917,644.39856l-43.93872,1.03802l20.24927-19.62506
		C1461.1947,633.95142,1469.3468,640.40472,1478.52917,644.39856z M1547.06946,587.31909
		c2.69568,30.56287-18.06323,56.14825-46.48193,56.74103c-28.50708,0.59454-53.29395-24.18201-55.2561-54.92957
		c-1.93384-30.30164,19.09827-54.88031,46.87488-55.29242C1519.89893,533.42737,1544.41272,557.19696,1547.06946,587.31909z
		 M1534.2229,587.54779c-1.91833-22.53619-20.23718-40.36621-40.97742-40.04303
		c-20.78735,0.32385-36.45728,18.7583-34.94238,41.39484c1.53162,22.88452,20.00244,41.27515,41.19629,40.84967
		C1520.64417,629.32483,1536.16211,610.32983,1534.2229,587.54779z M1495.25122,606.86292l18.48193-37.38574l-21.09973,26.85492
		l-15.52527-12.24652L1495.25122,606.86292z M1598.91553,522.5556c-0.61975-1.3656-2.11707-2.04089-3.34509-1.50891
		c-0.63843,0.27655-1.07629,0.82587-1.26514,1.48071c-8.44189,0.94409-14.54785,3.99951-18.16406,9.11218
		c-0.66223,0.93628-1.20435,1.89154-1.64758,2.84247c-0.29956-0.10168-0.52295-0.17456-0.60986-0.20007
		c-1.57092-0.46106-4.71533-1.60852-8.28967-1.58655c0.17126-1.98132,0.52039-4.29529,1.19873-6.63666
		c2.13965-7.38464,6.50549-11.90393,12.99182-13.48181c0.50427,0.52277,1.18591,0.84772,1.90955,0.83777
		c1.36658-0.01886,2.35742-1.21777,2.21313-2.67694c-0.14404-1.45813-1.36719-2.62451-2.73206-2.60608
		c-1.1709,0.01581-2.06445,0.89926-2.20593,2.07043c-7.13806,1.78998-12.10327,6.92694-14.43005,15.01355
		c-0.7948,2.76215-1.16614,5.45197-1.32727,7.67889c-0.2854,0.04761-0.57178,0.10388-0.85876,0.17096
		c-13.71399,3.20654-18.46143,18.55798-13.04248,42.62201c1.01318,3.72473,1.71631,7.58746,2.07031,11.55475
		c1.38049,15.46991-2.77747,29.77386-10.76318,40.71533c-1.76624,2.48621-3.75378,4.78021-5.94385,6.83936
		c-3.64087,3.5257-7.77148,6.49426-12.297,8.78461c0.06421,0.01367,0.125,0.02173,0.18469,0.02014
		c8.04297-1.6593,15.55945-4.98804,22.4917-9.79541c19.30701-12.43762,20.76465-30.35608,24.75842-57.90948
		c1.45227-10.01935,5.72107-19.90784,13.78577-26.16199c6.27295-4.86469,2.08997-9.07092-1.17773-11.37811
		c-0.61353-0.43317-3.49341-2.03967-4.81494-2.69391c-0.20764-0.09943-0.48425-0.21594-0.79346-0.33844
		c0.35242-0.70837,0.76855-1.41553,1.2605-2.10815c3.26123-4.5907,8.86987-7.34863,16.68542-8.22424
		c0.72217,1.01898,1.99011,1.46722,3.05615,1.00439C1599.0426,525.46283,1599.53552,523.92206,1598.91553,522.5556z"/>
	<polygon class="st15" points="1748.31287,983.56195 1767.76892,985.80237 1753.27332,1017.33923 1787.10706,980.1424 
		1766.95007,975.34076 1774.42651,946.49841 	"/>
</g>
<g id="Calque_4">
	<circle class="st16" cx="1767.70996" cy="981.91882" r="63.29942"/>
	<g>
		<polygon class="st15" points="572.22485,369.0723 593.44824,347.84863 588.43506,342.83563 572.22485,359.04593 
			561.40002,348.22098 556.38684,353.23398 		"/>
	</g>
	<rect x="1345.78906" y="1156.19495" class="st16" width="262.63815" height="82.94714"/>
	<path class="st15" d="M1445.50684,1177.13965l-11.3252,40.53516h-9.58203l-7.60742-28.8623l-7.95605,28.8623l-9.52441,0.05762
		l-10.91797-40.59277h8.71094l7.14355,31.47559l8.24609-31.47559h9.05957l7.78223,31.30176l7.20117-31.30176H1445.50684z
		 M1450.64551,1192.81934c1.2959-2.5166,3.05762-4.45215,5.28418-5.80762c2.22559-1.35449,4.71289-2.03223,7.46289-2.03223
		c2.39941,0,4.5,0.48438,6.30078,1.45117c1.7998,0.96875,3.24219,2.18848,4.32617,3.65918v-4.58789h8.18848v32.17285h-8.18848
		v-4.7041c-1.04492,1.50977-2.48828,2.75879-4.32617,3.74609c-1.83887,0.9873-3.95898,1.48047-6.35938,1.48047
		c-2.70996,0-5.17871-0.69629-7.4043-2.09082c-2.22656-1.39355-3.98828-3.3584-5.28418-5.89453
		c-1.29785-2.53516-1.94629-5.44824-1.94629-8.73926C1448.69922,1198.21973,1449.34766,1195.33594,1450.64551,1192.81934z
		 M1472.8584,1196.50684c-0.77539-1.41309-1.82031-2.49707-3.13574-3.25195c-1.31738-0.75488-2.72949-1.13281-4.23926-1.13281
		c-1.51074,0-2.9043,0.36914-4.18164,1.10352c-1.27734,0.73633-2.31445,1.81055-3.10742,3.22363
		c-0.79395,1.41309-1.19043,3.08789-1.19043,5.02344s0.39648,3.62891,1.19043,5.08105
		c0.79297,1.45215,1.83887,2.56543,3.13672,3.33887c1.2959,0.77539,2.67969,1.16211,4.15234,1.16211
		c1.50977,0,2.92188-0.37793,4.23926-1.13281c1.31543-0.75488,2.36035-1.83789,3.13574-3.25195
		c0.77441-1.41309,1.16113-3.10742,1.16113-5.08203C1474.01953,1199.61426,1473.63281,1197.9209,1472.8584,1196.50684z
		 M1503.5791,1210.18359l8.13086-24.68164h8.65234l-11.9043,32.17285h-9.87305l-11.84668-32.17285h8.71094L1503.5791,1210.18359z
		 M1554.62598,1204.02734h-23.51953c0.19336,2.32324,1.00586,4.14355,2.43848,5.45898
		c1.43262,1.31641,3.19434,1.97461,5.28516,1.97461c3.01953,0,5.16895-1.29688,6.44629-3.89062h8.76953
		c-0.92969,3.09766-2.71094,5.64258-5.34277,7.63672c-2.63379,1.99414-5.86621,2.99023-9.69922,2.99023
		c-3.09766,0-5.875-0.68652-8.33301-2.06152c-2.45898-1.37402-4.37598-3.31934-5.74902-5.83594
		c-1.375-2.5166-2.0625-5.41992-2.0625-8.71191c0-3.3291,0.67773-6.25195,2.0332-8.76855
		c1.35449-2.5166,3.25195-4.45215,5.69141-5.80762c2.43848-1.35449,5.24512-2.03223,8.41992-2.03223
		c3.05859,0,5.79785,0.6582,8.21777,1.97461c2.41895,1.31641,4.29785,3.18457,5.63281,5.60352
		c1.33594,2.41992,2.00391,5.19824,2.00391,8.33398C1554.8584,1202.05273,1554.78027,1203.09863,1554.62598,1204.02734z
		 M1546.4375,1198.56836c-0.03906-2.09082-0.79395-3.76465-2.26465-5.02344c-1.47168-1.25781-3.27246-1.88672-5.40039-1.88672
		c-2.01367,0-3.70801,0.60938-5.08203,1.8291c-1.375,1.21973-2.2168,2.91309-2.52637,5.08105H1546.4375z"/>
	<rect x="217.3343" y="564.52307" class="st16" width="394.76303" height="82.94714"/>
	<path class="st15" d="M272.75732,583.79071v6.56152h-16.89941v10.39551h12.9502v6.44629h-12.9502v17.13184h-8.13086v-40.53516
		H272.75732z M290.73096,593.14032c1.68457-0.96777,3.60938-1.45215,5.77832-1.45215v8.53711h-2.14844
		c-2.55566,0-4.48145,0.60059-5.77832,1.7998c-1.29785,1.20117-1.94531,3.29199-1.94531,6.27246v16.02832h-8.13086v-32.17285
		h8.13086v4.99414C287.68213,595.44403,289.04736,594.10809,290.73096,593.14032z M331.64307,610.67841h-23.51953
		c0.19336,2.32324,1.00586,4.14355,2.43848,5.45898c1.43262,1.31641,3.19434,1.97461,5.28516,1.97461
		c3.01953,0,5.16895-1.29688,6.44629-3.89062h8.76953c-0.92969,3.09766-2.71094,5.64258-5.34277,7.63672
		c-2.63379,1.99414-5.86621,2.99023-9.69922,2.99023c-3.09766,0-5.875-0.68652-8.33301-2.06152
		c-2.45898-1.37402-4.37598-3.31934-5.74902-5.83594c-1.375-2.5166-2.0625-5.41992-2.0625-8.71191
		c0-3.3291,0.67773-6.25195,2.0332-8.76855c1.35449-2.5166,3.25195-4.45215,5.69141-5.80762
		c2.43848-1.35449,5.24512-2.03223,8.41992-2.03223c3.05859,0,5.79785,0.6582,8.21777,1.97461
		c2.41895,1.31641,4.29785,3.18457,5.63281,5.60352c1.33594,2.41992,2.00391,5.19824,2.00391,8.33398
		C331.87549,608.7038,331.79736,609.74969,331.64307,610.67841z M323.45459,605.21942
		c-0.03906-2.09082-0.79395-3.76465-2.26465-5.02344c-1.47168-1.25781-3.27246-1.88672-5.40039-1.88672
		c-2.01367,0-3.70801,0.60938-5.08203,1.8291c-1.375,1.21973-2.2168,2.91309-2.52637,5.08105H323.45459z M367.47412,610.67841
		h-23.51953c0.19336,2.32324,1.00586,4.14355,2.43848,5.45898c1.43262,1.31641,3.19434,1.97461,5.28516,1.97461
		c3.01953,0,5.16895-1.29688,6.44629-3.89062h8.76953c-0.92969,3.09766-2.71094,5.64258-5.34277,7.63672
		c-2.63379,1.99414-5.86621,2.99023-9.69922,2.99023c-3.09766,0-5.875-0.68652-8.33301-2.06152
		c-2.45898-1.37402-4.37598-3.31934-5.74902-5.83594c-1.375-2.5166-2.0625-5.41992-2.0625-8.71191
		c0-3.3291,0.67773-6.25195,2.0332-8.76855c1.35449-2.5166,3.25195-4.45215,5.69141-5.80762
		c2.43848-1.35449,5.24512-2.03223,8.41992-2.03223c3.05859,0,5.79785,0.6582,8.21777,1.97461
		c2.41895,1.31641,4.29785,3.18457,5.63281,5.60352c1.33594,2.41992,2.00391,5.19824,2.00391,8.33398
		C367.70654,608.7038,367.62842,609.74969,367.47412,610.67841z M359.28564,605.21942
		c-0.03906-2.09082-0.79395-3.76465-2.26465-5.02344c-1.47168-1.25781-3.27246-1.88672-5.40039-1.88672
		c-2.01367,0-3.70801,0.60938-5.08203,1.8291c-1.375,1.21973-2.2168,2.91309-2.52637,5.08105H359.28564z M431.64502,583.79071
		v40.53516h-8.12988v-26.36523l-10.86035,26.36523h-6.15527l-10.91797-26.36523v26.36523h-8.13086v-40.53516h9.23438
		l12.8916,30.13965l12.89258-30.13965H431.64502z M445.58154,622.7868c-2.47852-1.37402-4.42383-3.31934-5.83691-5.83594
		s-2.11914-5.41992-2.11914-8.71191c0-3.29004,0.72559-6.19336,2.17773-8.71094c1.45215-2.51562,3.43555-4.46094,5.95215-5.83594
		c2.5166-1.37402,5.32324-2.06152,8.4209-2.06152c3.09668,0,5.90332,0.6875,8.4209,2.06152
		c2.5166,1.375,4.50098,3.32031,5.95215,5.83594c1.45215,2.51758,2.17773,5.4209,2.17773,8.71094
		c0,3.29199-0.74512,6.19531-2.23535,8.71191c-1.49121,2.5166-3.50488,4.46191-6.04004,5.83594
		c-2.53613,1.375-5.37109,2.06152-8.50781,2.06152C450.84619,624.84833,448.05908,624.1618,445.58154,622.7868z
		 M458.09619,616.68915c1.29688-0.71582,2.33203-1.79004,3.10742-3.22266c0.77344-1.43262,1.16113-3.1748,1.16113-5.22754
		c0-3.05762-0.80371-5.40918-2.41016-7.05566c-1.60645-1.64453-3.57129-2.46777-5.89453-2.46777
		c-2.32227,0-4.26855,0.82324-5.83594,2.46777c-1.56836,1.64648-2.35254,3.99805-2.35254,7.05566
		c0,3.05957,0.76465,5.41113,2.29395,7.05664s3.45605,2.46777,5.77832,2.46777
		C455.41455,617.76337,456.79834,617.40594,458.09619,616.68915z M503.82959,595.31805
		c2.36035,2.41992,3.54199,5.79785,3.54199,10.13379v18.87402h-8.12988v-17.77051c0-2.55566-0.63867-4.51953-1.91699-5.89453
		c-1.27734-1.37402-3.01953-2.06152-5.22656-2.06152c-2.24609,0-4.0166,0.6875-5.31348,2.06152
		c-1.29785,1.375-1.94531,3.33887-1.94531,5.89453v17.77051h-8.13086v-32.17285h8.13086v4.00684
		c1.08301-1.39355,2.46777-2.4873,4.15234-3.28125c1.68359-0.79297,3.53223-1.19043,5.5459-1.19043
		C498.37061,591.68817,501.46729,592.89911,503.82959,595.31805z M544.77002,610.67841h-23.51953
		c0.19336,2.32324,1.00586,4.14355,2.43848,5.45898c1.43262,1.31641,3.19434,1.97461,5.28516,1.97461
		c3.01953,0,5.16895-1.29688,6.44629-3.89062h8.76953c-0.92969,3.09766-2.71094,5.64258-5.34277,7.63672
		c-2.63379,1.99414-5.86621,2.99023-9.69922,2.99023c-3.09766,0-5.875-0.68652-8.33301-2.06152
		c-2.45898-1.37402-4.37598-3.31934-5.74902-5.83594c-1.375-2.5166-2.0625-5.41992-2.0625-8.71191
		c0-3.3291,0.67773-6.25195,2.0332-8.76855c1.35449-2.5166,3.25195-4.45215,5.69141-5.80762
		c2.43848-1.35449,5.24512-2.03223,8.41992-2.03223c3.05859,0,5.79785,0.6582,8.21777,1.97461
		c2.41895,1.31641,4.29785,3.18457,5.63281,5.60352c1.33594,2.41992,2.00391,5.19824,2.00391,8.33398
		C545.00244,608.7038,544.92432,609.74969,544.77002,610.67841z M536.58154,605.21942
		c-0.03906-2.09082-0.79395-3.76465-2.26465-5.02344c-1.47168-1.25781-3.27246-1.88672-5.40039-1.88672
		c-2.01367,0-3.70801,0.60938-5.08203,1.8291c-1.375,1.21973-2.2168,2.91309-2.52637,5.08105H536.58154z M581.70459,592.15302
		l-19.91895,47.38867h-8.65332l6.96875-16.0293l-12.89258-31.35938h9.11816l8.30469,22.47461l8.41992-22.47461H581.70459z"/>
	<rect x="193.38776" y="1181.98157" class="st16" width="496.39572" height="82.94714"/>
	<path class="st15" d="M230.68262,1235.44531c-3.17578-1.78027-5.69141-4.24902-7.5498-7.4043s-2.78809-6.72656-2.78809-10.71484
		c0-3.94922,0.92969-7.50098,2.78809-10.65625s4.37402-5.62402,7.5498-7.40527c3.17383-1.78027,6.6582-2.6709,10.45312-2.6709
		c3.83301,0,7.32617,0.89062,10.48242,2.6709c3.1543,1.78125,5.65234,4.25,7.49121,7.40527
		c1.83789,3.15527,2.75879,6.70703,2.75879,10.65625c0,3.98828-0.9209,7.55957-2.75879,10.71484
		c-1.83887,3.15527-4.34668,5.62402-7.52051,7.4043c-3.1748,1.78125-6.65918,2.6709-10.45312,2.6709
		C237.34082,1238.11621,233.85645,1237.22656,230.68262,1235.44531z M247.58203,1229.20215
		c1.8584-1.10352,3.30957-2.68066,4.35547-4.7334c1.04492-2.05078,1.56738-4.43262,1.56738-7.14258
		s-0.52246-5.08203-1.56738-7.11426c-1.0459-2.03223-2.49707-3.59082-4.35547-4.6748
		c-1.8584-1.08301-4.00781-1.62598-6.44629-1.62598c-2.43945,0-4.59766,0.54297-6.47559,1.62598
		c-1.87793,1.08398-3.33887,2.64258-4.38477,4.6748c-1.04492,2.03223-1.56738,4.4043-1.56738,7.11426
		s0.52246,5.0918,1.56738,7.14258c1.0459,2.05273,2.50684,3.62988,4.38477,4.7334s4.03613,1.65527,6.47559,1.65527
		C243.57422,1230.85742,245.72363,1230.30566,247.58203,1229.20215z M280.13086,1206.52441
		c1.68457-0.96777,3.60938-1.45215,5.77832-1.45215v8.53711h-2.14844c-2.55566,0-4.48145,0.60059-5.77832,1.7998
		c-1.29785,1.20117-1.94531,3.29199-1.94531,6.27246v16.02832h-8.13086v-32.17285h8.13086v4.99414
		C277.08203,1208.82812,278.44727,1207.49219,280.13086,1206.52441z M291.22363,1212.85449
		c1.2959-2.5166,3.05762-4.45215,5.28418-5.80762c2.22559-1.35449,4.71289-2.03223,7.46289-2.03223
		c2.39941,0,4.5,0.48438,6.30078,1.45117c1.7998,0.96875,3.24219,2.18848,4.32617,3.65918v-4.58789h8.18848v32.17285h-8.18848
		v-4.7041c-1.04492,1.50977-2.48828,2.75879-4.32617,3.74609c-1.83887,0.9873-3.95898,1.48047-6.35938,1.48047
		c-2.70996,0-5.17871-0.69629-7.4043-2.09082c-2.22656-1.39355-3.98828-3.3584-5.28418-5.89453
		c-1.29785-2.53516-1.94629-5.44824-1.94629-8.73926C289.27734,1218.25488,289.92578,1215.37109,291.22363,1212.85449z
		 M313.43652,1216.54199c-0.77539-1.41309-1.82031-2.49707-3.13574-3.25195c-1.31738-0.75488-2.72949-1.13281-4.23926-1.13281
		c-1.51074,0-2.9043,0.36914-4.18164,1.10352c-1.27734,0.73633-2.31445,1.81055-3.10742,3.22363
		c-0.79395,1.41309-1.19043,3.08789-1.19043,5.02344s0.39648,3.62891,1.19043,5.08105
		c0.79297,1.45215,1.83887,2.56543,3.13672,3.33887c1.2959,0.77539,2.67969,1.16211,4.15234,1.16211
		c1.50977,0,2.92188-0.37793,4.23926-1.13281c1.31543-0.75488,2.36035-1.83789,3.13574-3.25195
		c0.77441-1.41309,1.16113-3.10742,1.16113-5.08203C314.59766,1219.64941,314.21094,1217.95605,313.43652,1216.54199z
		 M357.8623,1208.70215c2.36035,2.41992,3.54199,5.79785,3.54199,10.13379v18.87402h-8.12988v-17.77051
		c0-2.55566-0.63867-4.51953-1.91699-5.89453c-1.27734-1.37402-3.01953-2.06152-5.22656-2.06152
		c-2.24609,0-4.0166,0.6875-5.31348,2.06152c-1.29785,1.375-1.94531,3.33887-1.94531,5.89453v17.77051h-8.13086v-32.17285h8.13086
		v4.00684c1.08301-1.39355,2.46777-2.4873,4.15234-3.28125c1.68359-0.79297,3.53223-1.19043,5.5459-1.19043
		C352.40332,1205.07227,355.5,1206.2832,357.8623,1208.70215z M388.06055,1206.4375c1.81934,0.94922,3.25195,2.17773,4.29688,3.6875
		v-4.58789h8.18848v32.40527c0,2.98047-0.60059,5.64258-1.7998,7.98535c-1.20117,2.3418-3.00098,4.2002-5.40137,5.5752
		c-2.40039,1.37305-5.30469,2.06152-8.71094,2.06152c-4.56836,0-8.31445-1.06543-11.2373-3.19434
		c-2.92383-2.12988-4.5791-5.0332-4.96484-8.71094h8.07227c0.4248,1.4707,1.34473,2.64258,2.75781,3.51367
		s3.12598,1.30664,5.13965,1.30664c2.36133,0,4.27734-0.70703,5.75-2.12012c1.4707-1.41406,2.20605-3.55273,2.20605-6.41699
		v-4.99414c-1.04492,1.50977-2.48828,2.76855-4.32617,3.77441c-1.83887,1.00684-3.94043,1.50977-6.30078,1.50977
		c-2.71094,0-5.18848-0.69629-7.43359-2.09082c-2.24609-1.39355-4.01758-3.3584-5.31348-5.89453
		c-1.29785-2.53516-1.94629-5.44824-1.94629-8.73926c0-3.25293,0.64844-6.13672,1.94629-8.65332
		c1.2959-2.5166,3.05762-4.45215,5.28418-5.80762c2.22559-1.35449,4.71289-2.03223,7.46289-2.03223
		C384.12988,1205.01465,386.24023,1205.48926,388.06055,1206.4375z M391.19629,1216.54199
		c-0.77539-1.41309-1.82031-2.49707-3.13574-3.25195c-1.31738-0.75488-2.72949-1.13281-4.23926-1.13281
		c-1.51074,0-2.9043,0.36914-4.18164,1.10352c-1.27734,0.73633-2.31445,1.81055-3.10742,3.22363
		c-0.79395,1.41309-1.19043,3.08789-1.19043,5.02344s0.39648,3.62891,1.19043,5.08105
		c0.79297,1.45215,1.83887,2.56543,3.13672,3.33887c1.2959,0.77539,2.67969,1.16211,4.15234,1.16211
		c1.50977,0,2.92188-0.37793,4.23926-1.13281c1.31543-0.75488,2.36035-1.83789,3.13574-3.25195
		c0.77441-1.41309,1.16113-3.10742,1.16113-5.08203C392.35742,1219.64941,391.9707,1217.95605,391.19629,1216.54199z
		 M438.17773,1224.0625H414.6582c0.19336,2.32324,1.00586,4.14355,2.43848,5.45898c1.43262,1.31641,3.19434,1.97461,5.28516,1.97461
		c3.01953,0,5.16895-1.29688,6.44629-3.89062h8.76953c-0.92969,3.09766-2.71094,5.64258-5.34277,7.63672
		c-2.63379,1.99414-5.86621,2.99023-9.69922,2.99023c-3.09766,0-5.875-0.68652-8.33301-2.06152
		c-2.45898-1.37402-4.37598-3.31934-5.74902-5.83594c-1.375-2.5166-2.0625-5.41992-2.0625-8.71191
		c0-3.3291,0.67773-6.25195,2.0332-8.76855c1.35449-2.5166,3.25195-4.45215,5.69141-5.80762
		c2.43848-1.35449,5.24512-2.03223,8.41992-2.03223c3.05859,0,5.79785,0.6582,8.21777,1.97461
		c2.41895,1.31641,4.29785,3.18457,5.63281,5.60352c1.33594,2.41992,2.00391,5.19824,2.00391,8.33398
		C438.41016,1222.08789,438.33203,1223.13379,438.17773,1224.0625z M429.98926,1218.60352
		c-0.03906-2.09082-0.79395-3.76465-2.26465-5.02344c-1.47168-1.25781-3.27246-1.88672-5.40039-1.88672
		c-2.01367,0-3.70801,0.60938-5.08203,1.8291c-1.375,1.21973-2.2168,2.91309-2.52637,5.08105H429.98926z M502.34766,1197.1748
		v40.53516h-8.12988v-26.36523l-10.86035,26.36523h-6.15527l-10.91797-26.36523v26.36523h-8.13086v-40.53516h9.23438
		l12.8916,30.13965l12.89258-30.13965H502.34766z M516.28516,1236.1709c-2.47852-1.37402-4.42383-3.31934-5.83691-5.83594
		s-2.11914-5.41992-2.11914-8.71191c0-3.29004,0.72559-6.19336,2.17773-8.71094c1.45215-2.51562,3.43555-4.46094,5.95215-5.83594
		c2.5166-1.37402,5.32324-2.06152,8.4209-2.06152c3.09668,0,5.90332,0.6875,8.4209,2.06152
		c2.5166,1.375,4.50098,3.32031,5.95215,5.83594c1.45215,2.51758,2.17773,5.4209,2.17773,8.71094
		c0,3.29199-0.74512,6.19531-2.23535,8.71191c-1.49121,2.5166-3.50488,4.46191-6.04004,5.83594
		c-2.53613,1.375-5.37109,2.06152-8.50781,2.06152C521.5498,1238.23242,518.7627,1237.5459,516.28516,1236.1709z
		 M528.7998,1230.07324c1.29688-0.71582,2.33203-1.79004,3.10742-3.22266c0.77344-1.43262,1.16113-3.1748,1.16113-5.22754
		c0-3.05762-0.80371-5.40918-2.41016-7.05566c-1.60645-1.64453-3.57129-2.46777-5.89453-2.46777
		c-2.32227,0-4.26855,0.82324-5.83594,2.46777c-1.56836,1.64648-2.35254,3.99805-2.35254,7.05566
		c0,3.05957,0.76465,5.41113,2.29395,7.05664s3.45605,2.46777,5.77832,2.46777
		C526.11816,1231.14746,527.50195,1230.79004,528.7998,1230.07324z M574.53223,1208.70215
		c2.36035,2.41992,3.54199,5.79785,3.54199,10.13379v18.87402h-8.12988v-17.77051c0-2.55566-0.63867-4.51953-1.91699-5.89453
		c-1.27734-1.37402-3.01953-2.06152-5.22656-2.06152c-2.24609,0-4.0166,0.6875-5.31348,2.06152
		c-1.29785,1.375-1.94531,3.33887-1.94531,5.89453v17.77051h-8.13086v-32.17285h8.13086v4.00684
		c1.08301-1.39355,2.46777-2.4873,4.15234-3.28125c1.68359-0.79297,3.53223-1.19043,5.5459-1.19043
		C569.07324,1205.07227,572.16992,1206.2832,574.53223,1208.70215z M615.47363,1224.0625H591.9541
		c0.19336,2.32324,1.00586,4.14355,2.43848,5.45898c1.43262,1.31641,3.19434,1.97461,5.28516,1.97461
		c3.01953,0,5.16895-1.29688,6.44629-3.89062h8.76953c-0.92969,3.09766-2.71094,5.64258-5.34277,7.63672
		c-2.63379,1.99414-5.86621,2.99023-9.69922,2.99023c-3.09766,0-5.875-0.68652-8.33301-2.06152
		c-2.45898-1.37402-4.37598-3.31934-5.74902-5.83594c-1.375-2.5166-2.0625-5.41992-2.0625-8.71191
		c0-3.3291,0.67773-6.25195,2.0332-8.76855c1.35449-2.5166,3.25195-4.45215,5.69141-5.80762
		c2.43848-1.35449,5.24512-2.03223,8.41992-2.03223c3.05859,0,5.79785,0.6582,8.21777,1.97461
		c2.41895,1.31641,4.29785,3.18457,5.63281,5.60352c1.33594,2.41992,2.00391,5.19824,2.00391,8.33398
		C615.70605,1222.08789,615.62793,1223.13379,615.47363,1224.0625z M607.28516,1218.60352
		c-0.03906-2.09082-0.79395-3.76465-2.26465-5.02344c-1.47168-1.25781-3.27246-1.88672-5.40039-1.88672
		c-2.01367,0-3.70801,0.60938-5.08203,1.8291c-1.375,1.21973-2.2168,2.91309-2.52637,5.08105H607.28516z M652.4082,1205.53711
		l-19.91895,47.38867h-8.65332l6.96875-16.0293l-12.89258-31.35938h9.11816l8.30469,22.47461l8.41992-22.47461H652.4082z"/>
	<g>
		<path class="st17" d="M284.9957,967.65521c-1.42822,0.09924-7.59448,0.08002-9.20581-0.04907
			c-0.05078,0.65991-0.03101,6.10931-0.03369,7.38879c-0.00757,3.56219-0.00537,3.56946-3.44971,3.5697
			c-27.6443,0.00195-55.28859,0.00177-82.93288-0.00049c-3.52979-0.00024-3.53784-0.00739-3.53809-3.52008
			c-0.00195-41.38745-0.00195-82.77484,0-124.16229c0.00024-3.53174,0.00916-3.53931,3.55176-3.53961
			c27.64417-0.0022,55.28857-0.0014,82.93288-0.00092c0.47388,0,0.94849,0.0257,1.42139,0.00659
			c1.3645-0.05493,1.91675,0.53516,2.04858,1.94958c0.13062,1.39783-0.46338,25.76349-0.15942,27.0769
			c1.78003,0.10376,7.95825-0.16205,9.38574-0.0578c0.02588-0.22809,0.06213-33.52985-0.0094-38.58374
			c-0.08167-5.77283-4.30066-9.95251-10.13269-9.9585c-29.46095-0.03009-58.92189-0.0119-88.38283-0.01825
			c-1.44373-0.00031-2.82056,0.21033-4.13025,0.86053c-4.30786,2.13873-6.08191,5.73108-6.08069,10.39636
			c0.00732,27.88129,0.00366,55.76251,0.00403,83.64374c0.00037,27.96014-0.01038,55.92047,0.00818,83.88068
			c0.00452,6.90656,4.20593,11.11664,11.0437,11.11902c28.90796,0.01031,57.81616,0.01056,86.72414-0.00055
			c6.99719-0.00269,10.95728-4.00641,10.96558-11.05328c0.01233-10.42578,0.00659-20.85162-0.00098-31.27747
			C285.02426,973.90222,285.04648,968.36493,284.9957,967.65521z M230.57173,1009.69434
			c-6.36389-0.08179-11.47021-5.27197-11.50439-11.69293c-0.03503-6.58716,5.02222-11.69446,11.6106-11.72546
			c6.57336-0.03101,11.72546,4.99847,11.85315,11.57098C242.6545,1004.19244,237.01692,1009.77734,230.57173,1009.69434z
			 M206.23813,838.30121h49.10751"/>
	</g>
	<circle class="st16" cx="574.91754" cy="355.95398" r="82.5089"/>
	<path class="st15" d="M612.64423,327.73199c-0.01544-0.51077-0.19098-0.80219-0.7132-0.96429
		c-9.26575-3.3602-18.62866-6.45071-27.87415-9.8707c-3.12384-1.17365-6.28748-2.24127-9.43152-3.3613
		c-0.4552-0.16217-0.8736-0.23785-1.37427-0.05954c-11.73035,4.17761-23.46649,8.33871-35.20673,12.48849
		c-0.49921,0.17645-0.67621,0.43097-0.70544,0.9599c-1.21149,21.30188,0.92712,52.34796,36.94727,71.61002
		C605.29321,384.37241,613.73102,351.71371,612.64423,327.73199z M574.37738,392.38644
		c-30.81934-16.48083-32.64911-43.04425-31.61261-61.27042c0.02502-0.45255,0.17645-0.67029,0.60364-0.82132
		c10.04504-3.55057,20.08667-7.11087,30.12329-10.6853c0.42841-0.15256,0.78638-0.0878,1.17584,0.05096
		c2.69006,0.95828,5.39697,1.8718,8.06976,2.87595c7.91052,2.92621,15.92157,5.5705,23.84943,8.4455
		c0.44684,0.13873,0.59698,0.38806,0.61023,0.82507C608.12683,352.32596,600.90735,380.26913,574.37738,392.38644z"/>
	<rect x="1269.17847" y="172.69183" class="st16" width="321.72003" height="118.25782"/>
	<path class="st15" d="M1331.09277,212.56537V201.9726h19.78906v59.86035h-11.82422v-49.26758H1331.09277z M1367.3457,208.87006
		c3.41992-5.36426,9.09961-8.04688,17.03809-8.04688c7.93652,0,13.61621,2.68262,17.03809,8.04688
		c3.4209,5.36572,5.13281,12.78271,5.13281,22.25293c0,9.5249-1.71191,16.99707-5.13281,22.4165
		c-3.42188,5.41943-9.10156,8.12939-17.03809,8.12939c-7.93848,0-13.61816-2.70996-17.03809-8.12939
		c-3.42188-5.41943-5.13281-12.8916-5.13281-22.4165C1362.21289,221.65277,1363.92383,214.23578,1367.3457,208.87006z
		 M1394.44238,220.89984c-0.52051-2.76367-1.55957-5.02197-3.12012-6.77441c-1.56055-1.75146-3.87305-2.62744-6.93848-2.62744
		c-3.06641,0-5.37891,0.87598-6.93848,2.62744c-1.56055,1.75244-2.60059,4.01074-3.12012,6.77441
		c-0.52148,2.76465-0.78027,6.17236-0.78027,10.22314c0,4.16064,0.24609,7.65039,0.73926,10.46924
		c0.49219,2.81982,1.53125,5.09082,3.12012,6.81543c1.58691,1.72412,3.91309,2.58643,6.97949,2.58643
		c3.06543,0,5.3916-0.8623,6.97949-2.58643c1.58691-1.72461,2.62793-3.99561,3.12012-6.81543
		c0.49316-2.81885,0.73926-6.30859,0.73926-10.46924C1395.22266,227.0722,1394.96191,223.66449,1394.44238,220.89984z
		 M1420.39062,208.87006c3.41992-5.36426,9.09961-8.04688,17.03809-8.04688c7.93652,0,13.61621,2.68262,17.03809,8.04688
		c3.4209,5.36572,5.13281,12.78271,5.13281,22.25293c0,9.5249-1.71191,16.99707-5.13281,22.4165
		c-3.42188,5.41943-9.10156,8.12939-17.03809,8.12939c-7.93848,0-13.61816-2.70996-17.03809-8.12939
		c-3.42188-5.41943-5.13281-12.8916-5.13281-22.4165C1415.25781,221.65277,1416.96875,214.23578,1420.39062,208.87006z
		 M1447.4873,220.89984c-0.52051-2.76367-1.55957-5.02197-3.12012-6.77441c-1.56055-1.75146-3.87305-2.62744-6.93848-2.62744
		c-3.06641,0-5.37891,0.87598-6.93848,2.62744c-1.56055,1.75244-2.60059,4.01074-3.12012,6.77441
		c-0.52148,2.76465-0.78027,6.17236-0.78027,10.22314c0,4.16064,0.24609,7.65039,0.73926,10.46924
		c0.49219,2.81982,1.53125,5.09082,3.12012,6.81543c1.58691,1.72412,3.91309,2.58643,6.97949,2.58643
		c3.06543,0,5.3916-0.8623,6.97949-2.58643c1.58691-1.72461,2.62793-3.99561,3.12012-6.81543
		c0.49316-2.81885,0.73926-6.30859,0.73926-10.46924C1448.26758,227.0722,1448.00684,223.66449,1447.4873,220.89984z
		 M1470.64355,206.89935c2.43457-2.35303,5.56934-3.53076,9.40137-3.53076c3.83105,0,6.96582,1.17773,9.40234,3.53076
		c2.43555,2.35449,3.6543,5.61182,3.6543,9.77148c0,4.21582-1.21875,7.50049-3.6543,9.85352
		c-2.43652,2.35449-5.57129,3.53076-9.40234,3.53076c-3.83203,0-6.9668-1.17627-9.40137-3.53076
		c-2.43652-2.35303-3.6543-5.6377-3.6543-9.85352C1466.98926,212.51117,1468.20703,209.25385,1470.64355,206.89935z
		 M1475.44727,216.67084c0,4.3252,1.50488,6.48682,4.51562,6.48682c1.47852,0,2.62793-0.53369,3.44922-1.60107
		s1.23145-2.69531,1.23145-4.88574c0-4.27002-1.56055-6.40479-4.68066-6.40479
		C1476.95215,210.26605,1475.44727,212.40082,1475.44727,216.67084z M1519.70605,204.35394l-32.27051,57.479h-11.16699
		l32.1875-57.479H1519.70605z M1506.69043,239.62152c2.43555-2.32617,5.57031-3.48975,9.40234-3.48975
		c3.83105,0,6.93848,1.16357,9.31934,3.48975c2.38184,2.32715,3.57227,5.59766,3.57227,9.8125
		c0,4.21582-1.19043,7.50049-3.57227,9.85352c-2.38086,2.354-5.48828,3.53076-9.31934,3.53076
		c-3.8877,0-7.03516-1.17676-9.44336-3.53076c-2.40918-2.35303-3.6123-5.6377-3.6123-9.85352
		C1503.03711,245.21918,1504.25488,241.94867,1506.69043,239.62152z M1511.33008,249.43402
		c0,4.32471,1.56055,6.48682,4.68066,6.48682c3.06543,0,4.59863-2.16211,4.59863-6.48682c0-4.27002-1.5332-6.40479-4.59863-6.40479
		C1512.89062,243.02924,1511.33008,245.164,1511.33008,249.43402z"/>
	<g>
		<polyline class="st18" points="1053.72266,253.90732 1053.72266,327.75626 911.74176,327.75626 911.74176,253.90732 		"/>
		<polygon class="st18" points="1071.39209,253.90732 895.41461,253.90732 894.97119,225.65364 924.34711,195.90962 
			1041.11731,195.90962 1070.49329,225.65364 		"/>
		<line class="st18" x1="894.9848" y1="226.52219" x2="1070.49329" y2="225.65364"/>
		<line class="st19" x1="961.08014" y1="253.90732" x2="961.08014" y2="327.75626"/>
		<rect x="978.52618" y="269.92703" class="st18" width="58.73895" height="23.8287"/>
	</g>
	<g>
		<path class="st17" d="M235.2267,880.31464h12.25543l14.08076,48.42072l-1.31519,5.45483
			c-0.49472,2.05194,1.06018,4.02637,3.17093,4.02637h45.72546"/>
		<polyline class="st17" points="250.96843,891.95813 315.08096,891.95813 309.1441,922.05103 261.5629,928.73535 		"/>
		<line class="st17" x1="255.94611" y1="909.42047" x2="311.66647" y2="909.42047"/>
		<line class="st17" x1="293.12048" y1="891.95813" x2="293.12048" y2="923.90979"/>
		<line class="st17" x1="274.9975" y1="891.95813" x2="274.9975" y2="926.43115"/>
		<circle class="st17" cx="302.03506" cy="952.21234" r="7.05641"/>
		<circle class="st17" cx="261.60687" cy="952.21234" r="7.05641"/>
	</g>
</g>
</svg>
