<?xml version="1.0" encoding="utf-8"?>
<!-- Generator: Adobe Illustrator 25.2.1, SVG Export Plug-In . SVG Version: 6.00 Build 0)  -->
<svg version="1.1" xmlns="http://www.w3.org/2000/svg" xmlns:xlink="http://www.w3.org/1999/xlink" x="0px" y="0px"
	 viewBox="0 0 2000 1500" style="enable-background:new 0 0 2000 1500;" xml:space="preserve">
<style type="text/css">
	.st0{fill:#CAE4EA;}
	.st1{fill:#F2F2F2;stroke:#999999;stroke-width:2;stroke-miterlimit:10;}
	.st2{fill:none;stroke:#AFC5C9;stroke-width:2;stroke-miterlimit:10;}
	.st3{fill:#DFEDEF;stroke:#999999;stroke-miterlimit:10;}
	.st4{fill:#004F69;}
	.st5{fill:#85FFC2;stroke:#009DD1;stroke-width:2;stroke-miterlimit:10;}
	.st6{fill:#CAE4EA;stroke:#009DD1;stroke-width:2;stroke-miterlimit:10;}
	.st7{fill:none;stroke:#009DD1;stroke-width:1.7818;stroke-miterlimit:10;}
	.st8{fill:#009DD1;}
	.st9{fill:#000B26;}
	.st10{fill:#85FFC2;stroke:#CAE4EA;stroke-miterlimit:10;}
	.st11{fill:#2D160F;}
	.st12{fill:#3A1E13;}
	.st13{fill:#110F0F;}
	.st14{fill:none;stroke:#004F69;stroke-miterlimit:10;}
	.st15{fill:#000716;}
	.st16{fill:#160B07;}
	.st17{fill:#001235;}
	.st18{fill:#424241;}
	.st19{fill:none;stroke:#AFC5C9;stroke-width:1.04122;stroke-miterlimit:10;}
	.st20{fill:#AFC5C9;}
	.st21{fill:#CAE4EA;stroke:#009DD1;stroke-width:3;stroke-miterlimit:10;}
	.st22{display:none;fill:#CAE4EA;stroke:#009DD1;stroke-width:3;stroke-miterlimit:10;}
	.st23{fill:#58D6C8;}
</style>
<g id="Calque_2">
	<ellipse class="st0" cx="1028.46631" cy="1112.57336" rx="882.96417" ry="197.49606"/>
</g>
<g id="Calque_5">
	<path class="st1" d="M950.6662,1040.32874H462.59958c-11.37903,0-20.60352-9.22449-20.60352-20.60352V244.56882
		c0-11.379,9.22449-20.6035,20.60352-20.6035H950.6662c11.37897,0,20.60352,9.2245,20.60352,20.6035v775.15637
		C971.26971,1031.10425,962.04517,1040.32874,950.6662,1040.32874z"/>
	<circle class="st2" cx="706.63287" cy="954.354" r="41.55053"/>
	<path class="st3" d="M911.51825,881.77844H501.74753c-5.29883,0-9.59436-4.29553-9.59436-9.59436V278.68362
		c0-5.29883,4.29553-9.59436,9.59436-9.59436h409.77072c5.29883,0,9.59436,4.29553,9.59436,9.59436v593.50049
		C921.11261,877.48291,916.81708,881.77844,911.51825,881.77844z"/>
	<g>
		<path class="st4" d="M543.92236,479.20947l4.77783-13.75244h3.70605l-6.43213,16.87646h-4.16553l-6.40137-16.87646h3.73682
			L543.92236,479.20947z"/>
		<path class="st4" d="M558.0415,481.52197c-1.28662-0.72461-2.29736-1.74609-3.03223-3.06299
			c-0.73535-1.31689-1.10254-2.84326-1.10254-4.5791c0-1.71533,0.37744-3.23584,1.1333-4.56348
			c0.75488-1.32715,1.78613-2.34814,3.09326-3.06299c1.30664-0.71436,2.7666-1.07178,4.37988-1.07178
			c1.61279,0,3.07275,0.35742,4.37988,1.07178c1.30664,0.71484,2.33789,1.73584,3.09375,3.06299
			c0.75488,1.32764,1.13281,2.84814,1.13281,4.56348s-0.3877,3.23682-1.16357,4.56396
			c-0.77637,1.32715-1.83301,2.35352-3.16992,3.07812c-1.33789,0.7251-2.81348,1.0874-4.42627,1.0874
			C560.76758,482.60938,559.32764,482.24707,558.0415,481.52197z M564.88672,478.93359
			c0.78613-0.42871,1.42432-1.07178,1.91455-1.92969c0.49023-0.85742,0.73486-1.89893,0.73486-3.12402
			s-0.23486-2.26123-0.7041-3.10889c-0.47021-0.84668-1.09277-1.48535-1.86865-1.91406s-1.61328-0.64307-2.51123-0.64307
			c-0.89893,0-1.73047,0.21436-2.49658,0.64307c-0.76562,0.42871-1.37354,1.06738-1.82227,1.91406
			c-0.44922,0.84766-0.67383,1.88379-0.67383,3.10889c0,1.81787,0.46436,3.22119,1.39355,4.21143
			c0.9292,0.99072,2.09814,1.48584,3.50684,1.48584C563.2583,479.57715,564.10059,479.3623,564.88672,478.93359z"/>
		<path class="st4" d="M577.13818,481.88916c-1.05176-0.47949-1.8833-1.13281-2.49609-1.95996s-0.93945-1.75049-0.97998-2.77197
			h3.61426c0.06104,0.71484,0.40283,1.3125,1.02588,1.79199c0.62256,0.47998,1.40381,0.71973,2.34326,0.71973
			c0.97998,0,1.74023-0.18848,2.28174-0.56689c0.54053-0.37744,0.81152-0.8623,0.81152-1.45459
			c0-0.63281-0.30127-1.10254-0.90332-1.40918c-0.60254-0.30615-1.55762-0.64307-2.86377-1.01074
			c-1.2666-0.34668-2.29736-0.68359-3.09375-1.01074c-0.79639-0.32617-1.48535-0.82666-2.06738-1.50049
			s-0.87305-1.5625-0.87305-2.66504c0-0.89795,0.26514-1.71973,0.79639-2.46533c0.53076-0.74512,1.2915-1.33252,2.28174-1.76123
			s2.12891-0.64307,3.41553-0.64307c1.91895,0,3.46582,0.48486,4.64014,1.45459c1.17383,0.97021,1.80176,2.29248,1.8833,3.96631
			h-3.49121c-0.06152-0.75488-0.36768-1.35742-0.91895-1.80713c-0.55127-0.44873-1.29688-0.67383-2.23584-0.67383
			c-0.91895,0-1.62354,0.17383-2.11377,0.521c-0.48975,0.34717-0.73486,0.80664-0.73486,1.37842
			c0,0.44922,0.16309,0.82666,0.49023,1.13281c0.32617,0.30664,0.72412,0.54688,1.19434,0.72021
			c0.46924,0.17334,1.16406,0.39307,2.08252,0.6582c1.22559,0.32715,2.23096,0.65869,3.01709,0.99561
			c0.78564,0.33691,1.46484,0.83203,2.03662,1.48535c0.57178,0.65381,0.86768,1.52148,0.88867,2.60352
			c0,0.95996-0.26562,1.81738-0.79639,2.57275c-0.53125,0.75586-1.28174,1.34766-2.25146,1.77637
			c-0.97021,0.42871-2.1084,0.64355-3.41504,0.64355C579.37891,482.60938,578.18994,482.36914,577.13818,481.88916z"/>
		<path class="st4" d="M604.81104,465.97803c1.021-0.53076,2.1748-0.79639,3.46094-0.79639
			c1.47021,0,2.8125,0.36279,4.02783,1.08691c1.21436,0.7251,2.16943,1.74121,2.86377,3.04785
			c0.69385,1.30713,1.0415,2.80762,1.0415,4.50244s-0.34766,3.21094-1.0415,4.54834
			c-0.69434,1.3374-1.64941,2.37891-2.86377,3.12402c-1.21533,0.74561-2.55762,1.11816-4.02783,1.11816
			c-1.28613,0-2.43018-0.26074-3.43018-0.78125c-1.00098-0.52051-1.81787-1.16846-2.45068-1.94482v10.4751h-3.49121v-24.90137
			h3.49121v2.48096C602.9834,467.16211,603.78955,466.50879,604.81104,465.97803z M611.93213,470.80176
			c-0.47998-0.84717-1.11328-1.49023-1.89893-1.92969c-0.78613-0.43848-1.62842-0.6582-2.52686-0.6582
			c-0.87842,0-1.71045,0.22461-2.49609,0.67383c-0.78662,0.44922-1.41943,1.10254-1.89893,1.95996
			c-0.47998,0.85791-0.72021,1.86865-0.72021,3.03223c0,1.16406,0.24023,2.18018,0.72021,3.04785
			c0.47949,0.86816,1.1123,1.52637,1.89893,1.97559c0.78564,0.44922,1.61768,0.67383,2.49609,0.67383
			c0.89844,0,1.74072-0.22998,2.52686-0.68945c0.78564-0.45947,1.41895-1.12793,1.89893-2.00586
			c0.47949-0.87793,0.71973-1.89941,0.71973-3.06299C612.65186,472.65479,612.41162,471.64941,611.93213,470.80176z"/>
		<path class="st4" d="M619.55811,469.31641c0.70459-1.30664,1.66406-2.32275,2.87891-3.04785
			c1.21484-0.72412,2.55762-1.08691,4.02783-1.08691c1.32715,0,2.48584,0.26025,3.47656,0.78076
			c0.98975,0.521,1.78125,1.16943,2.37354,1.94482v-2.4502h3.52246v16.87646h-3.52246v-2.51172
			c-0.59229,0.79639-1.39893,1.46045-2.41943,1.99121c-1.02148,0.53076-2.18555,0.79639-3.4917,0.79639
			c-1.4502,0-2.77734-0.37256-3.98193-1.11816c-1.20508-0.74512-2.15918-1.78662-2.86377-3.12402s-1.05664-2.85352-1.05664-4.54834
			S618.85352,470.62354,619.55811,469.31641z M631.59521,470.84766c-0.47998-0.85742-1.10791-1.51074-1.88379-1.95996
			c-0.77637-0.44922-1.61328-0.67383-2.51123-0.67383c-0.89893,0-1.73584,0.21973-2.51172,0.6582
			c-0.77637,0.43945-1.4043,1.08252-1.88379,1.92969c-0.47998,0.84766-0.71973,1.85303-0.71973,3.01709
			c0,1.16357,0.23975,2.18506,0.71973,3.06299c0.47949,0.87793,1.11279,1.54639,1.89893,2.00586s1.61816,0.68945,2.49658,0.68945
			c0.89795,0,1.73486-0.22461,2.51123-0.67383c0.77588-0.44922,1.40381-1.10742,1.88379-1.97559
			c0.47949-0.86768,0.71973-1.88379,0.71973-3.04785C632.31494,472.71631,632.07471,471.70557,631.59521,470.84766z"/>
		<path class="st4" d="M640.61523,462.57812c-0.42871-0.42871-0.64307-0.95947-0.64307-1.59277
			c0-0.63281,0.21436-1.16406,0.64307-1.59277s0.95947-0.64307,1.59277-0.64307c0.6123,0,1.1333,0.21436,1.56201,0.64307
			s0.64307,0.95996,0.64307,1.59277c0,0.6333-0.21436,1.16406-0.64307,1.59277s-0.94971,0.64307-1.56201,0.64307
			C641.57471,463.22119,641.04395,463.00684,640.61523,462.57812z M643.92285,465.45703v16.87646h-3.49121v-16.87646H643.92285z"/>
		<path class="st4" d="M663.8623,475.19727h-12.89453c0.10205,1.34766,0.60205,2.43018,1.50049,3.24658
			c0.89844,0.81689,2.00098,1.2251,3.30811,1.2251c1.87842,0,3.20557-0.78613,3.98193-2.3584h3.76709
			c-0.51074,1.55176-1.43457,2.82275-2.77197,3.81299c-1.3374,0.99072-2.99658,1.48584-4.97705,1.48584
			c-1.61328,0-3.05811-0.3623-4.33398-1.0874c-1.27637-0.72461-2.27686-1.74609-3.00146-3.06299
			c-0.7251-1.31689-1.0874-2.84326-1.0874-4.5791c0-1.73535,0.35205-3.26172,1.05664-4.5791
			c0.70459-1.31689,1.69482-2.33252,2.97119-3.04736c1.27588-0.71436,2.74121-1.07178,4.39502-1.07178
			c1.59277,0,3.01172,0.34717,4.25732,1.04102c1.24512,0.69482,2.21533,1.66943,2.90967,2.92529
			c0.69385,1.25586,1.0415,2.70068,1.0415,4.33398C663.98486,474.11475,663.94385,474.68701,663.8623,475.19727z
			 M660.33984,472.37939c-0.02051-1.28662-0.47998-2.31738-1.37793-3.09375c-0.89893-0.77588-2.01172-1.16406-3.33887-1.16406
			c-1.20508,0-2.23584,0.3833-3.09326,1.14893c-0.85791,0.76562-1.36816,1.80225-1.53174,3.10889H660.33984z"/>
		<path class="st4" d="M691.4126,466.0083c1.05127,0.55127,1.87793,1.36816,2.48047,2.4502
			c0.60205,1.08252,0.90381,2.38916,0.90381,3.9209v9.9541h-3.46094v-9.43359c0-1.51074-0.37842-2.66943-1.1333-3.47656
			c-0.75586-0.80615-1.78711-1.20947-3.09375-1.20947s-2.34277,0.40332-3.10889,1.20947
			c-0.76562,0.80713-1.14844,1.96582-1.14844,3.47656v9.43359h-3.46094v-9.43359c0-1.51074-0.37793-2.66943-1.1333-3.47656
			c-0.75586-0.80615-1.78711-1.20947-3.09326-1.20947c-1.30713,0-2.34326,0.40332-3.10889,1.20947
			c-0.76562,0.80713-1.14893,1.96582-1.14893,3.47656v9.43359h-3.49121v-16.87646h3.49121v1.92969
			c0.57178-0.69385,1.29688-1.23535,2.1748-1.62354c0.87793-0.38721,1.81738-0.58154,2.81787-0.58154
			c1.34766,0,2.55225,0.28613,3.61426,0.85742c1.06152,0.57178,1.87842,1.39893,2.4502,2.48096
			c0.51025-1.021,1.30664-1.83252,2.38916-2.43506c1.08203-0.60205,2.24609-0.90332,3.4917-0.90332
			C689.17139,465.18164,690.36035,465.45703,691.4126,466.0083z"/>
		<path class="st4" d="M714.58252,475.19727h-12.89453c0.10205,1.34766,0.60205,2.43018,1.50049,3.24658
			c0.89844,0.81689,2.00098,1.2251,3.30811,1.2251c1.87842,0,3.20557-0.78613,3.98193-2.3584h3.76709
			c-0.51074,1.55176-1.43457,2.82275-2.77197,3.81299c-1.3374,0.99072-2.99658,1.48584-4.97705,1.48584
			c-1.61328,0-3.05811-0.3623-4.33398-1.0874c-1.27637-0.72461-2.27686-1.74609-3.00146-3.06299
			c-0.7251-1.31689-1.0874-2.84326-1.0874-4.5791c0-1.73535,0.35205-3.26172,1.05664-4.5791
			c0.70459-1.31689,1.69482-2.33252,2.97119-3.04736c1.27588-0.71436,2.74121-1.07178,4.39502-1.07178
			c1.59277,0,3.01172,0.34717,4.25732,1.04102c1.24512,0.69482,2.21533,1.66943,2.90967,2.92529
			c0.69385,1.25586,1.0415,2.70068,1.0415,4.33398C714.70508,474.11475,714.66406,474.68701,714.58252,475.19727z
			 M711.06006,472.37939c-0.02051-1.28662-0.47998-2.31738-1.37793-3.09375c-0.89893-0.77588-2.01172-1.16406-3.33887-1.16406
			c-1.20508,0-2.23584,0.3833-3.09326,1.14893c-0.85791,0.76562-1.36816,1.80225-1.53174,3.10889H711.06006z"/>
		<path class="st4" d="M730.21826,466.0083c1.05127,0.55127,1.87305,1.36816,2.46533,2.4502
			c0.59229,1.08252,0.88818,2.38916,0.88818,3.9209v9.9541h-3.46094v-9.43359c0-1.51074-0.37793-2.66943-1.1333-3.47656
			c-0.75586-0.80615-1.78711-1.20947-3.09326-1.20947c-1.30713,0-2.34326,0.40332-3.10889,1.20947
			c-0.76562,0.80713-1.14893,1.96582-1.14893,3.47656v9.43359h-3.49121v-16.87646h3.49121v1.92969
			c0.57178-0.69385,1.30176-1.23535,2.19043-1.62354c0.88818-0.38721,1.83203-0.58154,2.83301-0.58154
			C727.97705,465.18164,729.16602,465.45703,730.21826,466.0083z"/>
		<path class="st4" d="M742.08594,468.30566v9.3418c0,0.63281,0.14795,1.0874,0.44434,1.36279
			c0.2959,0.27588,0.80127,0.41357,1.51611,0.41357h2.14404v2.90967h-2.75684c-1.57227,0-2.77686-0.36768-3.61426-1.10254
			c-0.8374-0.73535-1.25537-1.92969-1.25537-3.5835v-9.3418h-1.99121v-2.84863h1.99121v-4.1958h3.52197v4.1958h4.10449v2.84863
			H742.08594z"/>
		<path class="st4" d="M751.96338,481.88916c-1.05176-0.47949-1.8833-1.13281-2.49609-1.95996s-0.93945-1.75049-0.97998-2.77197
			h3.61426c0.06104,0.71484,0.40283,1.3125,1.02588,1.79199c0.62256,0.47998,1.40381,0.71973,2.34326,0.71973
			c0.97998,0,1.74023-0.18848,2.28174-0.56689c0.54053-0.37744,0.81152-0.8623,0.81152-1.45459
			c0-0.63281-0.30127-1.10254-0.90332-1.40918c-0.60254-0.30615-1.55762-0.64307-2.86377-1.01074
			c-1.2666-0.34668-2.29736-0.68359-3.09375-1.01074c-0.79639-0.32617-1.48535-0.82666-2.06738-1.50049
			s-0.87305-1.5625-0.87305-2.66504c0-0.89795,0.26514-1.71973,0.79639-2.46533c0.53076-0.74512,1.2915-1.33252,2.28174-1.76123
			s2.12891-0.64307,3.41553-0.64307c1.91895,0,3.46582,0.48486,4.64014,1.45459c1.17383,0.97021,1.80176,2.29248,1.8833,3.96631
			h-3.49121c-0.06152-0.75488-0.36768-1.35742-0.91895-1.80713c-0.55127-0.44873-1.29688-0.67383-2.23584-0.67383
			c-0.91895,0-1.62354,0.17383-2.11377,0.521c-0.48975,0.34717-0.73486,0.80664-0.73486,1.37842
			c0,0.44922,0.16309,0.82666,0.49023,1.13281c0.32617,0.30664,0.72412,0.54688,1.19434,0.72021
			c0.46924,0.17334,1.16406,0.39307,2.08252,0.6582c1.22559,0.32715,2.23096,0.65869,3.01709,0.99561
			c0.78564,0.33691,1.46484,0.83203,2.03662,1.48535c0.57178,0.65381,0.86768,1.52148,0.88867,2.60352
			c0,0.95996-0.26562,1.81738-0.79639,2.57275c-0.53125,0.75586-1.28174,1.34766-2.25146,1.77637
			c-0.97021,0.42871-2.1084,0.64355-3.41504,0.64355C754.2041,482.60938,753.01514,482.36914,751.96338,481.88916z"/>
	</g>
	<path class="st5" d="M795.32599,602.91302H536.45172c-3.49872,0-6.33496-2.83624-6.33496-6.3349v-69.39484
		c0-3.49872,2.83624-6.33496,6.33496-6.33496h258.87427c3.49872,0,6.33496,2.83624,6.33496,6.33496v69.39484
		C801.66095,600.07678,798.82471,602.91302,795.32599,602.91302z"/>
	<path class="st5" d="M795.32599,710.2049H536.45172c-3.49872,0-6.33496-2.8363-6.33496-6.33496V634.4751
		c0-3.49872,2.83624-6.33496,6.33496-6.33496h258.87427c3.49872,0,6.33496,2.83624,6.33496,6.33496v69.39484
		C801.66095,707.36859,798.82471,710.2049,795.32599,710.2049z"/>
	<path class="st6" d="M795.32599,817.4967H536.45172c-3.49872,0-6.33496-2.83624-6.33496-6.33496v-69.39484
		c0-3.49866,2.83624-6.33496,6.33496-6.33496h258.87427c3.49872,0,6.33496,2.8363,6.33496,6.33496v69.39484
		C801.66095,814.66046,798.82471,817.4967,795.32599,817.4967z"/>
	<circle class="st7" cx="836.39697" cy="561.88068" r="20.48771"/>
	<circle class="st7" cx="836.39697" cy="666.64648" r="20.48771"/>
	<circle class="st7" cx="836.39697" cy="776.46436" r="20.48771"/>
	<g>
		<path class="st8" d="M548.67761,388.18594l-23.27545,0.05878l11.37592-9.31247
			C539.86597,382.9527,543.9574,386.16183,548.67761,388.18594z M587.82391,360.81857
			c0,15.14703-12.27911,27.42612-27.42615,27.42612c-15.14709,0-27.42621-12.27908-27.42621-27.42612
			c0-15.14709,12.27911-27.42624,27.42621-27.42624C575.5448,333.39233,587.82391,345.67148,587.82391,360.81857z
			 M580.86401,360.81857c0-11.30322-9.16309-20.46628-20.46625-20.46628c-11.30322,0-20.46625,9.16306-20.46625,20.46628
			c0,11.30316,9.16302,20.46619,20.46625,20.46619C571.70093,381.28476,580.86401,372.12173,580.86401,360.81857z
			 M559.05365,370.03226l11.53094-18.42743l-12.51044,13.2034l-7.86328-6.21625L559.05365,370.03226z M619.56451,328.40094
			c-0.26562-0.70923-1.05591-1.06885-1.76514-0.80322c-0.36859,0.13806-0.64148,0.41827-0.78253,0.75467
			c-4.71643,0.42438-8.25146,1.95203-10.51703,4.55103c-0.41418,0.47516-0.76306,0.96066-1.05713,1.44449
			c-0.15942-0.05441-0.27844-0.09344-0.32489-0.10718c-0.83978-0.2482-2.50922-0.86014-4.47583-0.87604
			c0.19653-1.01453,0.50836-2.19955,1.00323-3.39761c1.56506-3.78833,4.21521-6.09213,7.88739-6.86264
			c0.25079,0.27432,0.61041,0.44745,1.01129,0.44745c0.75739,0,1.37134-0.61395,1.37134-1.37131s-0.61395-1.37131-1.37134-1.37131
			c-0.6496,0-1.19244,0.45221-1.33411,1.05869c-4.04572,0.87704-7.05927,3.4982-8.76208,7.64883
			c-0.58002,1.41373-0.92255,2.79147-1.12537,3.93182c-0.1593,0.02222-0.31958,0.04886-0.48077,0.08109
			c-7.68909,1.53598-11.03363,9.31476-9.24384,21.49396c0.36987,1.87445,0.56433,3.81192,0.56433,5.79489
			c0,7.6965-2.92133,14.71063-7.71558,19.99429c-1.05945,1.19659-2.22705,2.29565-3.49072,3.27698
			c-2.10211,1.67856-4.43646,3.07846-6.94745,4.14325c0.03357,0.00729,0.06561,0.01181,0.09753,0.01163
			c4.35846-0.72324,8.51868-2.26398,12.44476-4.53445c10.95026-5.89264,12.62396-14.7092,16.17999-28.40488
			c1.3053-5.02753,4.15131-9.99124,8.90057-13.10123c3.70691-2.4274,1.63666-4.6073-0.03558-5.8121
			c-0.31415-0.22629-1.81207-1.07053-2.50409-1.41562c-0.10895-0.05249-0.25488-0.11429-0.41846-0.17938
			c0.23151-0.36011,0.49805-0.71921,0.80573-1.07043c2.04242-2.33145,5.28601-3.70786,9.65027-4.10052
			c0.34198,0.53012,1.01733,0.77036,1.63232,0.54004C619.47058,329.90048,619.83014,329.11017,619.56451,328.40094z"/>
		<g>
			<path class="st8" d="M635.61835,353.69852v4.04044h-5.4856v16.66296h-5.04303v-16.66296h-5.4856v-4.04044H635.61835z
				 M645.40918,358.54993c0.88477-0.52069,1.86768-0.78149,2.94922-0.78149v5.33801h-1.38605
				c-1.25848,0-2.20233,0.27054-2.83136,0.81107c-0.62933,0.54102-0.94366,1.48938-0.94366,2.84595v7.63846h-5.04309v-16.45654
				h5.04309v2.74274C643.78711,359.78406,644.52441,359.07117,645.40918,358.54993z M650.73236,361.69086
				c0.63873-1.2778,1.50879-2.26071,2.61017-2.94922c1.10077-0.68802,2.3299-1.03223,3.6864-1.03223
				c1.15985,0,2.17749,0.23596,3.05255,0.70779c0.87457,0.47192,1.54828,1.09125,2.0202,1.85806v-2.3299h5.04309v16.45654h-5.04309
				v-2.32986c-0.49176,0.76678-1.17517,1.38611-2.04974,1.85803c-0.87506,0.47183-1.89252,0.70779-3.05237,0.70779
				c-1.33734,0-2.55627-0.34888-3.65704-1.047c-1.10138-0.69763-1.97144-1.6907-2.61017-2.97867
				c-0.63904-1.28751-0.95837-2.77689-0.95837-4.46808C649.77399,364.45343,650.09332,362.96915,650.73236,361.69086z
				 M661.05469,363.19495c-0.69812-0.72717-1.54828-1.09119-2.55109-1.09119c-1.00275,0-1.85345,0.35901-2.55109,1.07648
				c-0.69806,0.7179-1.047,1.7059-1.047,2.9639c0,1.25851,0.34894,2.2562,1.047,2.99347
				c0.69763,0.73734,1.54834,1.10593,2.55109,1.10593c1.00281,0,1.85297-0.36359,2.55109-1.09116
				c0.69763-0.72717,1.047-1.72025,1.047-2.97876C662.10168,364.91568,661.75232,363.92258,661.05469,363.19495z
				 M685.44421,359.64117c1.15015,1.24881,1.72522,2.9639,1.72522,5.14639v9.61435h-5.01367v-8.9361
				c0-1.10086-0.28528-1.95615-0.85516-2.56577c-0.57062-0.60925-1.33734-0.91431-2.30035-0.91431
				c-0.96375,0-1.73047,0.30505-2.30054,0.91431c-0.57037,0.60962-0.85516,1.4649-0.85516,2.56577v8.9361h-5.04309v-16.45654
				h5.04309v2.1824c0.51099-0.72717,1.19904-1.30225,2.06445-1.72525c0.86487-0.42261,1.83807-0.63409,2.91968-0.63409
				C682.75537,357.76843,684.29401,358.39282,685.44421,359.64117z M690.72314,361.69086
				c0.69763-1.2778,1.67084-2.26071,2.91968-2.94922c1.24829-0.68802,2.67859-1.03223,4.29102-1.03223
				c2.06445,0,3.78973,0.54102,5.1759,1.6221c1.38605,1.08154,2.29523,2.60541,2.72803,4.57123h-5.36755
				c-0.45258-1.25803-1.32715-1.88745-2.62488-1.88745c-0.92426,0-1.66162,0.35901-2.21185,1.07648
				c-0.55072,0.7179-0.82581,1.74503-0.82581,3.08185c0,1.33728,0.27509,2.36444,0.82581,3.08191
				c0.55023,0.71799,1.2876,1.07648,2.21185,1.07648c1.29773,0,2.1723-0.629,2.62488-1.88742h5.36755
				c-0.4328,1.92706-1.34698,3.44083-2.74286,4.54175c-1.39624,1.10135-3.11646,1.65155-5.16107,1.65155
				c-1.61243,0-3.04272-0.34381-4.29102-1.03223c-1.24884-0.68802-2.22205-1.67093-2.91968-2.94922
				c-0.6983-1.2778-1.047-2.77225-1.047-4.48282C689.67615,364.46313,690.02484,362.96915,690.72314,361.69086z
				 M723.17883,359.64117c1.14001,1.24881,1.71057,2.9639,1.71057,5.14639v9.61435h-5.01367v-8.9361
				c0-1.10086-0.28528-1.95615-0.85522-2.56577c-0.57056-0.60925-1.33728-0.91431-2.30029-0.91431
				c-0.96375,0-1.73047,0.30505-2.30054,0.91431c-0.57037,0.60962-0.85522,1.4649-0.85522,2.56577v8.9361h-5.04303v-21.82413
				h5.04303v7.57947c0.51105-0.72711,1.20911-1.30728,2.09387-1.74005c0.88489-0.43219,1.8775-0.64877,2.97876-0.64877
				C720.5246,357.76843,722.03839,358.39282,723.17883,359.64117z M743.82336,367.38278h-11.41345
				c0.07831,1.02255,0.40784,1.80414,0.98792,2.34467c0.57977,0.54095,1.2926,0.81107,2.13812,0.81107
				c1.258,0,2.13324-0.53085,2.62482-1.59262h5.36761c-0.27557,1.08154-0.77191,2.05475-1.48938,2.91974
				c-0.71796,0.86536-1.61743,1.5437-2.69849,2.03491c-1.08154,0.4917-2.29065,0.73734-3.62744,0.73734
				c-1.61243,0-3.04791-0.34381-4.30591-1.03223c-1.25848-0.68802-2.24139-1.67093-2.94922-2.94922
				c-0.70776-1.2778-1.06171-2.77225-1.06171-4.48282c0-1.71048,0.34875-3.20447,1.047-4.48276
				c0.69763-1.2778,1.6759-2.26071,2.93439-2.94922c1.258-0.68802,2.70319-1.03223,4.33545-1.03223
				c1.59253,0,3.00812,0.33463,4.24677,1.00278c1.23865,0.66864,2.20685,1.62201,2.90497,2.86075
				c0.69763,1.23865,1.047,2.68369,1.047,4.33527C743.9118,366.3801,743.88226,366.8718,743.82336,367.38278z M738.75055,364.58105
				c0-0.86487-0.2948-1.55289-0.8847-2.06445c-0.58978-0.51099-1.32715-0.76672-2.21191-0.76672
				c-0.84546,0-1.55847,0.24603-2.13806,0.73727c-0.58026,0.49167-0.93915,1.18979-1.07654,2.0939H738.75055z M767.77045,363.65207
				c-0.55066,0.9931-1.39618,1.79446-2.53638,2.40359c-1.1405,0.60965-2.55609,0.91431-4.24677,0.91431h-3.12616v7.43195h-5.04309
				v-20.7034h8.16925c1.65149,0,3.04736,0.28528,4.18787,0.85529c1.13995,0.57047,1.99536,1.35666,2.56573,2.35934
				c0.57007,1.00278,0.85541,2.15292,0.85541,3.45059C768.59631,361.56323,768.32068,362.65948,767.77045,363.65207z
				 M762.75677,362.28073c0.47192-0.45206,0.70782-1.09125,0.70782-1.91699c0-0.82581-0.2359-1.46451-0.70782-1.91699
				c-0.47192-0.45206-1.1897-0.67831-2.15295-0.67831h-2.74268v5.19061h2.74268
				C761.56708,362.95905,762.28485,362.73318,762.75677,362.28073z M771.17645,361.69086
				c0.63867-1.2778,1.50873-2.26071,2.61011-2.94922c1.10077-0.68802,2.3299-1.03223,3.6864-1.03223
				c1.15991,0,2.17749,0.23596,3.05255,0.70779c0.87457,0.47192,1.54834,1.09125,2.02026,1.85806v-2.3299h5.04303v16.45654h-5.04303
				v-2.32986c-0.49182,0.76678-1.17523,1.38611-2.0498,1.85803c-0.87506,0.47183-1.89252,0.70779-3.05237,0.70779
				c-1.33728,0-2.55627-0.34888-3.65704-1.047c-1.10138-0.69763-1.97144-1.6907-2.61011-2.97867
				c-0.63904-1.28751-0.95837-2.77689-0.95837-4.46808C770.21808,364.45343,770.53741,362.96915,771.17645,361.69086z
				 M781.49878,363.19495c-0.69812-0.72717-1.54834-1.09119-2.55109-1.09119c-1.00281,0-1.85345,0.35901-2.55109,1.07648
				c-0.69812,0.7179-1.047,1.7059-1.047,2.9639c0,1.25851,0.34888,2.2562,1.047,2.99347
				c0.69763,0.73734,1.54828,1.10593,2.55109,1.10593c1.00275,0,1.85297-0.36359,2.55109-1.09116
				c0.69757-0.72717,1.047-1.72025,1.047-2.97876C782.54578,364.91568,782.19635,363.92258,781.49878,363.19495z
				 M808.05585,357.94537l-10.32214,24.27188h-5.42651l3.7749-8.37564l-6.6947-15.89624h5.633l3.80457,10.29269l3.7749-10.29269
				H808.05585z"/>
		</g>
	</g>
	<g>
		<polygon class="st8" points="832.97028,570.86151 847.49988,556.33173 844.06787,552.89984 832.97028,563.99744 
			825.55957,556.58667 822.1275,560.01855 		"/>
	</g>
	<g>
		<polygon class="st8" points="834.55353,675.62738 849.08313,661.09753 845.65112,657.66565 834.55353,668.76324 
			827.14282,661.35248 823.71075,664.78436 		"/>
	</g>
</g>
<g id="Calque_4">
	<path class="st9" d="M750.03119,1138.10022c-3.69,0.98474-5.2998,5.78601-3.97119,9.36658
		c6.89392,12.547,24.52631,11.08484,37.07562,11.01147c33.60303-0.99878,67.11145-2.04785,100.73022-3.63574
		c11.0708-0.43237,22.19275-0.87451,33.07239-3.12415c5.82629-0.65686,3.96252-8.28125,2.83929-12.18018
		c-1.5625-6.57788-16.64453-2.42639-22.20648-3.61243C848.41174,1135.9458,798.97272,1133.55884,750.03119,1138.10022z"/>
	<polygon class="st4" points="1097.52466,988.46942 1366.50452,988.46942 1357.62158,1069.62939 1387.97156,1069.62939 
		1403.5166,963.77472 1234.00122,948.96991 1152.57458,948.96991 1117.04297,948.96991 1094.05408,962.29425 	"/>
	<polygon class="st4" points="1011.72449,1074.91541 1048.27661,1074.91541 1110.92676,964.94446 1090.12366,953.42474 
		1079.18359,953.42474 1046.96155,979.71741 1027.60168,1043.66248 	"/>
	<path class="st8" d="M1014.84698,985.9306l-111.69427,189.15643c-1.7066,2.89026,0.37689,6.54028,3.73346,6.54028h39.33173
		c1.5033,0,2.89935-0.77869,3.68915-2.05786l129.27655-209.37115l-47.47168,3.96191L1014.84698,985.9306z"/>
	<path class="st8" d="M1419.73083,1176.3468h23.85107c2.3313,0,4.25562-1.82275,4.38196-4.15063l11.7616-216.75073l-29.68176,2.854
		l-8.02722,0.76453l-6.67175,212.75696C1415.26697,1174.29724,1417.2533,1176.3468,1419.73083,1176.3468z"/>
	<path class="st10" d="M1567.39758,565.22791c0,0,33.03259,1.90057,28.93152,19.67175
		c-3.67798,15.93805-111.13513,312.53906-133.2655,373.56128c-2.38428,6.5741-8.59326,10.97101-15.58594,11.04663
		l-430.02234,4.65265l27.74146-41.8736l452.56189-195.4184l60.54138-159.58569L1567.39758,565.22791z"/>
	<path class="st8" d="M1046.96155,898.64197l4.26929,32.97278l204.39661,3.81323l166.90906-3.17767
		c0,0,11.69568,3.89941,16.88916-22.78229s-38.67139-32.96082-38.67139-32.96082l-28.07996-9.90906l-62.28796-14.96802
		l-89.63208-3.59998l-45.35999,5.03998L1046.96155,898.64197z"/>
	<path class="st4" d="M1515.48621,556.76434c0,0,39.54138,5.80261,47.20312,6.98199
		c7.66162,1.17932,8.84094,5.19977,6.71814,11.32709s-125.93811,334.97571-136.56482,348.83667l-122.4563-88.77826
		L1515.48621,556.76434z"/>
</g>
<g id="Calque_3">
	<path class="st9" d="M866.29279,1081.724c0,0,7.56915-0.27808,16.26556,1.03955c8.69647,1.31763,0.65881,7.5105,0.65881,7.5105
		h-11.33173l-4.87524-4.28723L866.29279,1081.724z"/>
	<path class="st11" d="M874.67126,1085.89868c-0.46924,0.57471-0.97821,1.25342-0.83459,1.98132
		c0.19647,0.99561,1.41724,1.34558,2.42096,1.495c8.85504,1.31848,17.75928,2.30615,26.68793,2.96057
		c3.79034,0.27783,7.67224,0.48669,11.32544-0.56104c1.39362-0.39966,2.76019-0.99487,3.83881-1.9635
		c0.76837-2.77319,3.24677-9.0459,4.08813-11.48755c2.24036-6.50159,5.13336-7.89221,9.58813-13.13098
		c0.64337-0.75659,1.33356-1.54919,1.5058-2.52722c0.24158-1.37146-0.64685-2.74634-1.82611-3.48694
		c-1.1792-0.7406-2.59821-0.97522-3.97833-1.16028c-4.62463-0.62024-9.30054-0.85327-13.96405-0.70569
		c-4.70502,0.14893-9.39783,0.68518-14.01514,1.60181c-2.30853,0.45825-4.59821,1.0116-6.8609,1.65918
		c-1.48157,0.42407-3.92395,0.72339-4.98291,1.97693c-0.42242,0.49988-0.61194,1.18359-0.83057,1.78699
		c-0.37433,1.03296-0.76202,2.0603-1.17804,3.07739c-0.83911,2.05139-1.77203,4.06433-2.79431,6.03088
		c-2.04462,3.93298-4.44696,7.68018-7.17181,11.17651C875.35504,1085.05151,875.01556,1085.47705,874.67126,1085.89868z"/>
	<path class="st11" d="M1348.66479,738.04633c0.85229,1.4621,1.80579,3.0163,3.36194,3.6814
		c1.22961,0.52545,2.63818,0.39893,3.94446,0.11292c1.62634-0.35608,3.28381-1.00317,4.31567-2.30975
		c1.30811-1.65643,1.323-3.97028,1.10864-6.07013c-0.27808-2.72388-0.86023-5.47302-2.24512-7.83508
		c-1.38489-2.362-3.67078-4.30457-6.36926-4.76825c-2.97205-0.51068-5.91516,0.94482-7.87134,3.12592
		c-0.8103,0.9035-2.15369,2.39697-1.6167,3.68463c0.67212,1.61157,1.44006,3.21979,2.23816,4.7746
		C1346.50879,734.34705,1347.58704,736.19745,1348.66479,738.04633z"/>
	<path class="st9" d="M1396.16345,836.70544c-9.64124-5.53882-20.63147-9.24561-28.4209-17.17993
		c-6.56409-6.6861-10.12915-15.65552-14.71204-23.82782s-12.34424-12.51843-20.11914-17.74725
		c-10.23901-6.88599-21.98486-11.12762-33.59619-15.30225c-6.19751-2.22809-12.3949-4.45624-18.59229-6.68433
		c-24.28052-8.72943-48.58862-17.46765-73.45496-24.35278c-14.0885-3.901-28.36816-7.20734-42.86194-9.1142
		c-2.7168-0.35742-5.474-0.66547-8.19019-0.30383c-3.30713,0.44025-6.40747,1.85529-9.31055,3.4989
		c-11.54468,6.53571-20.4873,16.76147-27.43665,27.91235c-1.29602,2.07971-3.21814,3.4411-4.53992,5.48328
		c-3.42871,5.29755-6.85522,10.59332-10.38086,15.82739c-6.69714,9.94287-13.62598,19.72961-20.7793,29.34955
		c-4.22424,5.68073-8.58716,11.41241-11.02759,18.05762c-3.57959,1.02875-7.11157,2.21716-10.61255,3.48608
		c-3.29968,1.19586-6.81921,2.2793-9.95605,3.84607c-1.1543,0.5766-2.32593,1.12561-3.53662,1.60773
		c-2.52124,1.00403-5.10205,1.85028-7.69653,2.64301c-5.18152,1.58319-10.44263,2.9447-15.49487,4.92169
		c-3.34149,1.30762-6.58691,2.89386-9.53809,4.94635c-3.95435,2.75012-7.30164,6.27692-10.46777,9.90668
		c-3.39417,3.89117-6.61462,7.92993-9.83374,11.9671c-22.92517,28.75098-39.20221,61.5755-61.9632,90.45654
		c-24.84387,31.52399-43.5542,65.70776-62.50854,101.08728c6.78717,5.53491,15.33051,8.34998,23.89685,10.172
		c5.57031,1.18481,11.14062,2.36963,16.711,3.55444c5.39081,1.14648,10.83313,2.29858,16.34436,2.25806
		s11.17365-1.3717,15.53424-4.74304c6.54016-5.0564,11.00195-13.02515,15.06555-20.08325
		c0.75153-1.30542,1.08008-2.69092,1.91547-3.96924c2.2146-3.38904,4.43152-6.7749,6.59283-10.19824
		c4.32196-6.84595,8.49677-13.78461,12.52069-20.80981c4.38599-7.65753,8.59271-15.41772,12.61517-23.27228
		c9.75598-19.05023,21.86432-33.34021,35.20551-50.07654c6.40771-8.03827,13.61792-16.34692,23.51221-19.13531
		c16.52112-4.65607,33.89941-6.62476,51.04626-5.84534c18.68469,0.8493,37.36926,1.69867,56.05383,2.54797
		c23.59241,1.07245,46.1311,0.27429,69.74695,0.47729c10.44714,0.08984,20.89417,0.17963,31.34131,0.26947
		c20.18372,0.17352,39.15149-3.06708,59.31287-2.10199c8.70117,0.4165,17.29639,2.08118,25.98047,2.7674
		c5.20679,0.41144,10.44141,0.46332,15.65576,0.16327c2.73804-0.15753,5.51733-0.724,8.26196-0.65271
		c1.24438,0.03235,2.38184,0.42047,3.59595,0.62622c3.35107,0.56799,7.17383-0.24579,10.4646-0.91711
		c6.9397-1.41583,13.76306-4.19794,19.1167-8.92822c1.58679-1.40192,3.03027-2.96539,4.28711-4.6698
		c1.79163-2.42987,3.19238-5.12067,4.58545-7.79901c2.53101-4.86603,5.06201-9.73199,7.59302-14.59802
		c2.91931-5.61261,5.86707-11.30084,7.28931-17.46533C1418.42261,854.07715,1407.21802,843.05634,1396.16345,836.70544z
		 M1179.71802,816.2287c-5.56592,0.66876-11.10559,1.55518-16.60193,2.65771c-1.20178,0.24109-2.89392,0.95819-4.10388,0.86523
		c-0.80762-0.06207-0.53491-0.41681-0.10767-1.02448c1.41284-2.00946,3.21484-3.81952,4.80347-5.69098
		c3.72107-4.38391,7.44226-8.76788,11.16345-13.15186c1.8606-2.19196,3.72107-4.38391,5.58167-6.57587
		c0.93042-1.09601,1.8606-2.19202,2.79102-3.28796c0.60681-0.71497,1.67114-2.65277,2.67554-2.69177
		c1.12402-0.04358,2.16748,1.17029,2.91577,1.86346c0.88745,0.8222,1.73657,1.68518,2.55566,2.5752
		c3.34839,3.63794,6.18005,7.70416,9.20508,11.60468c2.97974,3.84198,6.18921,7.59369,10.17627,10.42908
		c0.49268,0.35034,0.99585,0.68597,1.50928,1.00507C1201.41187,814.45325,1190.51562,814.93134,1179.71802,816.2287z"/>
	<path class="st11" d="M1265.6322,487.73022c-8.47278,9.17181,19.76868,4.8898,23.62866,5.62518
		c5.01941,0.51355,8.15967,1.88361,13.19922,1.64737c1.04309,1.64932,3.28857,2.97934,4.33167,4.62863
		c-3.2926,1.13766-10.39404,0.58444-12.20886,3.91714c-2.9469,7.6958-3.20801,10.88235,4.96777,14.41898
		c3.57019,1.51544-0.09766,9.24988,4.55566,11.8335c2.60535,1.8421,4.11365,4.04779,7.24817,4.64636
		c13.80896,1.15112,12.38098,20.2558,22.97217,26.85126c0.47351,30.59375-2.07605,61.1637-1.77856,91.78876
		c-0.58618,5.54047,1.26917,10.3382,6.51892,12.55157c6.76978,3.89044,14.82312,9.19305,22.21399,3.84454
		c6.85339-4.31525,15.50854-8.1228,20.45129-14.42438c-0.49805-1.74023-3.33923-2.37402-3.30896-4.67944
		c-4.63123-23.9256-14.34814-46.7439-19.03748-70.58801c-1.6167-8.90625-6.67334-17.93524-6.20764-27.8443
		c-0.03455-2.89606-0.43042-5.88672-1.49915-8.58771c-6.4823-11.3009-14.53503-41.84677-25.99683-46.43448
		c-7.53003-2.97134-14.42456-7.64392-20.86353-12.54169C1300.22876,480.53143,1270.11438,484.44556,1265.6322,487.73022z"/>
	<path class="st12" d="M1458.60327,446.67654c-0.48755,3.79044-0.73694,7.60614-0.97424,11.41882
		c-0.4696,7.54239-7.56238,12.48001-12.86743,17.86185c-2.7782,2.81836-6.04712,5.98392-5.77234,9.93182
		c0.16406,2.35822,1.66162,4.47867,3.58508,5.85291c1.92334,1.37427,4.23792,2.09125,6.55042,2.58127
		c0.93579,0.1983,1.49036,1.08722,1.7428,2.00986s0.08569,1.90179-0.08228,2.84348
		c-1.03088,5.77777-2.08301,11.62531-4.50842,16.9697c-0.46582,1.02655-0.98816,2.05487-1.12549,3.17377
		c-0.30432,2.48132,1.30994,4.74634,2.83936,6.72382c1.80847,2.33838,3.65552,3.81293,6.36401,4.99701
		c4.89783,2.14124,10.41956,2.18298,15.76489,2.18958c0.03198,5.6059,0.31189,11.11029,0.34387,16.71613
		c0.02478,4.34253,0.0459,8.72272-0.83008,12.97601c-0.8761,4.2533-2.72925,8.42621-5.93274,11.35803
		c9.56567,1.92432,19.13928,0.03943,28.59045-2.38593c9.45105-2.42535,18.86255-5.44885,28.60925-5.90601
		c-0.38708-2.33527-0.62524-4.69501-0.71375-7.06042c-0.06213-1.66205-0.24841-3.53925,0.08313-5.17896
		c0.15015-0.74255,0.15332-1.39478,0.15454-2.1618c0.00293-1.76923,0.1842-3.53632,0.51855-5.27319
		c0.67505-3.50641,1.96716-6.87701,3.65027-10.01959c1.34082-2.50354,2.93262-4.87067,4.70776-7.0863
		c5.51099-6.87848,12.54773-12.33844,19.31592-17.98444c4.37915-3.65314,8.95532-7.90707,9.7749-13.55075
		c1.56274-10.76288,4.71484-20.09183,4.25159-30.9577s-3.71411-21.88306-10.7511-30.17538
		c-2.18506-2.5744-4.70679-4.832-7.44604-6.80124c-0.77795-0.55923-1.29321-1.32382-2.08936-1.87979
		c-1.00366-0.70087-2.02649-1.37445-3.06787-2.01801c-2.08252-1.28693-4.23975-2.45407-6.46399-3.47723
		c-4.10815-1.88977-8.46106-3.29141-12.94128-3.94992c-2.21387-0.32541-4.45581-0.46738-6.69287-0.39716
		c-1.12305,0.03525-2.24438,0.12378-3.35876,0.26764c-0.27588,0.03561-0.59082,0.13132-0.8678,0.12119
		c-0.38672-0.01416-0.81067-0.1629-1.19153-0.224c-3.0271-0.4856-6.09363-0.72397-9.1593-0.71899
		c-4.78259,0.00775-9.5647,0.60831-14.19824,1.79413c-2.3158,0.59262-4.59424,1.33154-6.81531,2.21524
		c-0.97852,0.38928-1.99353,1.01016-3.05432,1.11172c-0.36743,0.03519-0.73413,0.0166-1.09949,0.0824
		c-1.65808,0.2988-3.3241,1.25653-4.69592,2.18521c-0.31995,0.21655-0.63184,0.44482-0.9353,0.6839
		c-2.24658,1.77017-3.97864,4.10898-5.28357,6.63861c-1.66272,3.22351-2.59595,6.66986-3.25879,10.21399
		C1459.00647,443.81024,1458.78784,445.24133,1458.60327,446.67654z"/>
	<g>
		<path class="st13" d="M1452.91833,503.07623c1.78235,1.83307,3.99036,2.94299,6.30029,3.52469
			c2.31494,0.56213,4.73999,0.65884,7.07678,0.27908c2.37097-0.35104,4.6886-1.12451,6.99231-2.01764
			c2.30225-0.90485,4.58423-1.97031,6.97009-2.87509c-1.96472,1.62213-4.04724,3.07861-6.31409,4.29123
			c-2.25635,1.22141-4.72937,2.15253-7.33997,2.57639c-2.63367,0.38702-5.36584,0.17941-7.85535-0.77206
			C1456.27429,507.16495,1454.01526,505.40955,1452.91833,503.07623z"/>
	</g>
	<g>
		<path class="st13" d="M1469.71777,533.52747c1.98157-0.77429,4.0481-1.32202,6.12598-1.79517
			c2.08569-0.4425,4.19287-0.77142,6.29944-1.06958c4.21423-0.58423,8.44531-0.93817,12.57776-1.77094
			c2.0686-0.38904,4.13196-0.82947,6.07849-1.56586c1.95081-0.71643,3.77917-1.75134,5.24963-3.18207
			c1.48352-1.42438,2.40259-3.35468,3.34741-5.2486c0.97791-1.88623,1.92468-3.78711,2.93005-5.66046
			c-0.80017,1.96979-1.65881,3.91205-2.48633,5.8689c-0.85413,1.92493-1.70691,3.96002-3.23926,5.57593
			c-1.49585,1.6308-3.47046,2.7099-5.47644,3.49634c-2.02026,0.7951-4.12183,1.27631-6.21655,1.69696
			c-4.21423,0.76257-8.45898,1.13092-12.67432,1.55011C1478.01953,531.84515,1473.81702,532.38861,1469.71777,533.52747z"/>
	</g>
	<path class="st13" d="M1464.1344,424.67081c1.05688,2.41644,3.79333,3.69739,6.41626,3.97446s5.25854-0.23346,7.89404-0.33368
		c10.28723-0.39117,19.89624,5.42188,30.17493,5.9946c0.75415,0.04202,1.5835,0.08487,2.13159,0.6044
		c0.35278,0.33438,0.52527,0.81387,0.65283,1.28293c0.67249,2.4751,0.38599,5.19778-0.78687,7.47873
		c-0.74536,1.44952-1.83447,2.73129-2.3446,4.27933c-0.8645,2.62302,0.07812,5.46222,1.01355,8.06079
		c3.67212,10.2002,1.59583,21.4006,0.33533,32.16812c3.23291-7.01624,6.46594-14.03247,9.69885-21.04868
		c0.54468-1.18192,1.1156-2.40002,2.09106-3.26132c1.55347-1.37149,3.80579-1.56638,5.87671-1.49237
		c3.03833,0.10858,6.25354,0.74615,8.44727,2.85114c2.09998,2.01498,2.91138,5.08691,2.80554,7.99533
		c-0.10583,2.90839-1.02185,5.7186-1.92944,8.48373c-1.77954,5.42111-4.14661,11.48853-9.46631,13.55136
		c-1.4613,0.56665-3.27246,0.96033-3.85706,2.41449c2.21338-1.01361,4.60181-1.6434,7.0271-1.85287
		c-1.28235,2.2691-1.7821,4.97095-1.39648,7.54861c0.78052,5.21628,1.75085,9.91544,4.68005,14.30161
		c1.27979,1.91644,2.94055,3.81348,5.19604,4.28601c1.99512,0.41797,4.02942-0.36829,5.88428-1.21344
		c12.15784-5.53943,22.80225-14.35873,30.50525-25.27472c5.76318-8.16687,9.76868-18.10767,9.31738-28.09302
		c-0.09717-2.15073-0.36963-4.35165,0.2168-6.42322c0.47363-1.67334,1.50269-3.25858,1.36414-4.99216
		c-0.11121-1.3913-0.96033-2.59827-1.45312-3.90411c-0.91882-2.43488-0.57739-5.13925-0.8418-7.7283
		c-0.26611-2.60583-1.16895-5.14435-2.60828-7.33289c0.21277-5.43472-1.98718-11.08826-3.81287-16.21158
		c-0.50537-1.41833-1.02393-2.86139-1.93213-4.06235c-0.89832-1.1879-2.13074-2.07587-3.14526-3.16629
		c-1.49036-1.60208-2.5011-3.63083-4.14246-5.07788c-2.4281-2.14056-5.84631-2.69299-8.67737-4.26233
		c-2.90393-1.60983-5.11682-4.24982-7.96252-5.96057c-3.87903-2.33209-8.60083-2.74976-13.12671-2.69809
		c-4.2749,0.0488-7.63977-2.23602-11.68286-3.62561c-1.57117-0.53995-3.21228-0.85147-4.85913-1.06995
		c-6.2594-0.83047-12.60999-0.33545-18.90479,0.1608c-2.14343,0.16898-4.3075,0.3418-6.36169,0.97653
		c-1.88306,0.58179-3.62549,1.53705-5.34741,2.49567c-5.47083,3.04562-10.88611,6.19073-16.24243,9.43329
		c-1.99365,1.20691-4.0387,2.4826-5.36011,4.40231c-0.95642,1.3894-1.47009,3.02789-1.97046,4.63873
		C1466.40063,416.99384,1465.38501,420.64532,1464.1344,424.67081z"/>
	<path class="st13" d="M1477.38477,449.24774c0.88025,0.3187,1.67151,0.83774,2.45374,1.35211
		c3.59448,2.36371,7.18884,4.72739,10.78333,7.09109c-0.7262-2.68613-1.71338-5.6954-4.23743-6.86658
		c-0.71484-0.33167-1.50281-0.48309-2.21655-0.81699c-0.91089-0.42615-1.6582-1.12775-2.47229-1.71808
		c-1.8938-1.37329-4.16589-2.13489-6.46899-2.4512c-2.31555-0.31796-4.87-0.31039-7.15356,0.22229
		c-0.85535,0.19955-1.6969,0.4921-2.49109,0.86737c-0.50305,0.23773-1.28333,0.5672-1.56995,1.0853
		c-0.64453,1.16525,4.11731,1.21603,4.71216,1.22052c2.57031,0.01944,5.20996-0.76834,7.76184-0.23862
		C1476.79089,449.05829,1477.0918,449.14166,1477.38477,449.24774z"/>
	<path class="st8" d="M1464.11426,573.93524c-14.52612,2.19336-18.1582,15.67889-25.14124,28.56934
		c-3.91272,6.75745-7.73303,11.96918-17.3501,17.95135c-11.22156,6.98029-24.37378,11.71045-35.89685,18.18109
		c-0.98877,0.45685-1.49414,1.3205-1.12512,2.37634c4.17566,18.91229,8.5,24.80792-7.65234,39.89819
		c-7.56384,7.59949-13.69275,16.13806-14.27527,27.05157c-2.21265,9.64893-6.00061,18.88098-8.9541,28.32294
		c-8.76733,26.65204-35.04285,46.32166-40.31299,74.13477c-0.80066,17.53845,17.86975,31.45825,31.19592,40.92493
		c13.44202,9.37616,31.29529,6.62714,46.79675,9.1723c9.0166,0.99744,16.25171,7.29028,25.00732,9.50787
		c7.69531,2.7298,13.57214,7.71088,21.5968,6.20282c9.95667-24.96344,14.2948-52.15894,20.72888-78.2265
		c2.05469-7.79681,4.85352-15.59973,9.979-21.82397c11.38721-13.82825,12.39307-32.1037,21.099-47.75916
		c16.75635-33.69733,36.36987-67.20923,41.28491-105.09259c3.85925-13.61896,5.60425-42.05798-3.3175-53.52252
		C1508.81738,550.75562,1486.24573,579.03235,1464.11426,573.93524z"/>
	<path class="st14" d="M1422.5365,741.04932c-5.70752,30.46149-16.04126,60.05182-30.53784,87.44391"/>
	<g>
		<path class="st4" d="M1244.18884,879.50879c5.28223-2.5575,10.61646-5.01532,16.09546-7.15778
			c5.47473-2.14337,11.12427-3.89972,16.91772-5.04736c5.80383-1.06543,11.76343-1.4765,17.64575-0.8418
			c2.9364,0.32544,5.84766,0.89221,8.67163,1.74805c2.81226,0.88629,5.54883,2.02606,8.08044,3.51648
			c-5.26831-2.60016-11.02478-4.03217-16.82471-4.49878c-5.80688-0.46759-11.67102-0.07019-17.38586,1.05719
			c-5.73865,1.05219-11.33203,2.80444-16.83594,4.78308C1255.04578,875.04993,1249.63818,877.32819,1244.18884,879.50879z"/>
	</g>
	<g>
		<path class="st4" d="M1260.90723,889.31799c3.35657-0.38995,6.71277-0.7124,10.06567-1.06012l10.05432-1.04602l10.052-1.06659
			l5.02795-0.54651c1.68005-0.1582,3.35449-0.35925,5.03857-0.50519c-1.64929,0.37006-3.31079,0.66754-4.96924,0.99048
			l-4.99792,0.82397c-3.3363,0.52618-6.68958,0.93402-10.04712,1.29779c-3.35986,0.34009-6.72473,0.638-10.09766,0.81537
			C1267.66199,889.2099,1264.28674,889.33984,1260.90723,889.31799z"/>
	</g>
	<g>
		<path class="st4" d="M1314.70154,805.62335c-8.48181,2.56213-17.22302,4.30347-26.05505,5.22321
			c-4.41345,0.49438-8.85559,0.70032-13.29614,0.76624c-4.44214,0.0545-8.87-0.10132-13.27771,0.01306
			c-2.20386,0.0401-4.40271,0.15167-6.58765,0.37964c-2.16162,0.21155-4.2937,0.79028-6.51001,1.1579
			c-2.22729,0.32581-4.41809,0.49298-6.62866,0.74713c-2.20398,0.25159-4.41309,0.45276-6.62756,0.5849
			c-4.42603,0.29291-8.85864,0.46942-13.29175,0.51929l-13.29102-0.30786l13.28003-0.18225
			c4.42188-0.14899,8.83875-0.41113,13.2439-0.79614c2.20337-0.1842,4.40112-0.4231,6.59692-0.67792
			c2.18665-0.26624,4.41467-0.45459,6.56677-0.78461c2.14929-0.36932,4.3064-0.97205,6.55774-1.21045
			c2.21863-0.24585,4.4458-0.37714,6.66919-0.42822c4.44873-0.08472,8.87769,0.10168,13.29248,0.07721
			c4.41565-0.02106,8.82861-0.24762,13.2301-0.62012c4.40234-0.37146,8.78772-0.95117,13.14404-1.70825
			C1306.08191,807.65912,1310.40222,806.68903,1314.70154,805.62335z"/>
	</g>
	<path class="st4" d="M1025.25,899.13214c0.60193,1.6615,1.53491,3.26886,2.98438,4.27979
		c2.5199,1.75751,5.94031,1.33154,8.89246,0.48102c3.60657-1.03912,7.12915-2.64948,9.83472-5.25098
		s4.51123-6.29865,4.24292-10.04236c-0.26843-3.74377-2.89575-7.37207-6.54907-8.23273
		c-1.74683-0.41156-3.57434-0.20129-5.3512,0.05176c-2.27368,0.32373-4.53796,0.71442-6.78882,1.17108
		c-1.64941,0.33472-2.8606,0.40283-4.03394,1.69342c-2.42566,2.66791-3.85046,6.21124-4.07202,9.80048
		C1024.2832,895.12921,1024.55078,897.2027,1025.25,899.13214z"/>
	<path class="st4" d="M1083.82544,916.3656c-2.0072,1.24969-4.15808,2.495-6.52148,2.56036
		c-3.67908,0.10187-6.98975-2.91479-7.91333-6.47748s0.2157-7.42859,2.3291-10.44177
		c2.14685-3.06073,5.19275-5.35547,8.30896-7.35291c1.60376-1.02795,3.36389-2.05182,5.32117-2.10248
		c1.87415-0.04852,3.17639,0.90808,4.54871,2.05768c1.81519,1.52063,3.5238,3.33618,3.99146,5.73682
		c0.49768,2.55463-0.22888,5.36438-0.94934,7.80634C1091.76257,912.14526,1087.09558,914.32953,1083.82544,916.3656z"/>
	<path class="st11" d="M1010.52661,920.78717c-0.98077,0.57819-2.00275,1.16174-2.6814,2.07587
		c-0.87726,1.18158-1.04779,2.72717-1.18842,4.19202c-0.44208,4.60352-0.58661,9.99072,2.94104,12.98132
		c1.94135,1.64575,4.57782,2.14258,7.08484,2.58081c13.91486,2.43213,29.00092,4.70331,41.54791-1.78595
		c1.93604-1.00134,3.79907-2.2218,5.20471-3.88763c2.27869-2.70062,3.14014-6.27649,4.2356-9.63593
		c2.50293-7.67578,6.5708-14.83752,11.88184-20.91827c4.71582-5.39935,10.80212-10.90778,10.56421-18.07263
		c-0.14929-4.49371-2.85217-8.45306-5.52295-12.07001c-3.2489-4.39972-6.79614-8.88074-11.75305-11.19214
		c-5.3407-2.49036-11.85681-2.03192-17.01123,0.82391c-4.15002,2.29938-7.39722,6.052-9.35901,10.34747
		c-0.87756,1.92133-1.05762,3.9967-1.89709,5.93707c-0.96411,2.22827-2.0282,4.41327-3.18628,6.54718
		c-2.28979,4.21924-4.94678,8.23865-7.92432,12.00403c-2.97791,3.76581-6.27686,7.27795-9.85181,10.48254
		c-3.58801,3.21625-7.45453,6.12286-11.54993,8.66223C1011.55322,920.17413,1011.04163,920.48352,1010.52661,920.78717z"/>
	<path class="st15" d="M1051.75916,992.12048c5.67896,0.02271,11.35986-1.12988,16.58081-3.36414
		c2.62927,0.87616,5.09814-1.94086,4.84314-4.7005c-0.13257-1.435-0.98718-2.6955-1.90137-3.80945
		c-4.92358-5.9989-12.24597-9.65924-19.79517-11.45831c-7.54932-1.79901-15.39075-1.88953-23.151-1.80969
		c-21.88373,0.22516-43.75415,1.73389-65.46149,4.51575c-14.25568,1.8269-29.02216-0.10052-43.38715-0.55725
		c-3.07172-0.09766-6.19189-0.20923-9.17352,0.54272c-1.62213,0.4093-4.02136,1.65918-3.52435,3.69287
		c0.16223,0.66388,0.31427,1.25903,0.4071,1.94672c0.20746,1.53564,0.74078,3.01562,1.4975,4.3645
		c1.53143,2.72998,3.95166,4.95374,6.7124,6.40472c4.70361,2.47211,10.17212,2.99017,15.48376,3.13654
		c7.10376,0.19574,12.98688,1.09167,20.09198,0.95636c24.17749-0.46039,48.35498-0.92078,72.53253-1.3811
		c11.74725-0.22369,22.3537,2.63226,34.06451,1.68073"/>
	<g>
		<path class="st16" d="M1036.58936,915.07733c2.94678,0.76813,5.92346,0.9834,8.84546,0.57581
			c2.92432-0.39081,5.73376-1.3941,8.36926-2.92029c-2.16345,2.17383-5.16614,3.48663-8.23438,3.91058
			C1042.49951,917.05328,1039.25635,916.59113,1036.58936,915.07733z"/>
	</g>
	<path class="st17" d="M912.32898,965.10577c-2.43597,0.43805-4.6275,2.07153-5.74329,4.28082
		c-0.59534,1.17877-0.86566,2.67639-0.13202,3.77441c0.68079,1.01892,2.02313,1.38257,3.24847,1.36591
		c1.22528-0.01666,2.4339-0.33148,3.6593-0.32361c26.42023,0.17065,52.79437,1.87598,79.19098,0.74652
		c8.89661-0.38068,16.07788,0.39941,24.90289-0.78961c8.09961-1.09137,16.15625-2.81958,24.32898-2.85376
		c8.17273-0.03424,16.68689,1.81573,22.9491,7.06744c3.26965,2.742,6.7417,3.92401,8.98071,7.5567
		c1.60962-2.38934,2.2948-5.38495,1.88367-8.23639c-0.22778-1.58057-0.77551-3.0979-1.4071-4.56451
		c-0.25903-0.6015-0.53772-1.20459-0.95667-1.70795c-1.07104-1.28687-2.91931-1.76611-3.89172-3.12909
		c-27.58582-11.67474-61.25934-12.00635-90.96869-8.18042C954.72394,963.15778,935.79749,960.88538,912.32898,965.10577z"/>
	<path class="st12" d="M1222.61548,483.13229c3.95972-1.27975,6.84778,4.20178,3.55615,6.74472
		c5.12573-2.52942,16.84216-0.36179,9.79688,6.75845c-4.38428,3.37006-14.92407,6.92056-10.77197,14.04349
		c3.66223-1.75931,8.2749-8.15402,12.44727-5.65683c1.42773,1.47021,0.23108,3.91949-1.14331,5.4386
		c-2.79053,4.21359-13.09424,7.01004-9.19141,13.23868c8.26794-4.15533,11.62415,2.40076,3.49011,6.51965
		c-7.55542,3.54944-0.92676,10.98877,1.44275,15.90363c6.66833,6.49738,10.90698,18.21796,9.64246,27.50378
		c17.80408,18.96851,40.97034,36.63599,60.97632,55.09229c10.38696,11.50537,39.24976,30.55536,47.60718,38.36853
		c3.85181-4.92316,32.25732-14.33038,39.78699-17.82812c10.85205-8.71497,9.91479,10.59705,14.13489,18.75146
		c3.02893,7.52386,2.85486,16.63861,8.35803,22.59631c2.70801,3.60217,5.00171,11.63373,1.6106,15.33228
		c-7.71289,7.88989-11.28149,8.66858-28.49707,14.76605c-11.53003,4.08368-23.79492,6.92493-36.16724,6.33459
		c-3.70874-0.08142-6.89844,0.70319-10.21069,1.51245c-3.32617,0.81268-6.83557,0.33521-9.83594-1.31458
		c-2.0321-1.11743-3.97522-2.38745-5.37317-3.9566c-0.40491-1.41052-1.1947-2.49933-2.01025-3.72797
		c-9.32532-15.12616-22.24182-27.36316-33.44495-40.93427c-26.328-35.59625-52.64832-71.41553-74.39685-110.02686
		c-4.81116-13.2301-11.1958-27.60309-9.1123-41.94952C1207.36023,511.73166,1206.32593,489.89679,1222.61548,483.13229z"/>
	<g>
		<path class="st13" d="M1350.4679,668.0838c-1.3512,2.91003-2.5614,5.81244-3.46887,8.82874
			c-0.93298,3.00854-1.55298,6.09076-2.06311,9.25879c-0.28259-3.2049,0.17542-6.46234,1.10742-9.55109
			C1347.00061,673.53925,1348.44299,670.5835,1350.4679,668.0838z"/>
	</g>
	<g>
		<path class="st13" d="M1300.0741,518.34265c0.09888-1.43561,0.25293-2.87177,0.41577-4.30835
			c0.05249-0.72412,0.21692-1.42682,0.35437-2.13452l0.21021-1.06107c0.08997-0.33975,0.05701-0.64417,0.08789-1.04712
			c0.15918-1.48657,0.76501-2.89612,1.65979-4.06018c0.89575-1.16211,2.07031-2.11636,3.41455-2.65601
			c-1.24646,0.72433-2.30518,1.7204-3.10364,2.88242c-0.79395,1.15961-1.36218,2.49158-1.47339,3.87967
			c-0.03259,0.31229-0.01367,0.73785-0.11829,1.09784l-0.23157,1.05252c-0.15894,0.70099-0.31189,1.40332-0.42261,2.11127
			C1300.62708,515.51318,1300.37817,516.92767,1300.0741,518.34265z"/>
	</g>
	<g>
		<path class="st13" d="M1300.88293,520.5531c0.82825-1.48553,1.35315-3.13647,2.44177-4.50446
			c1.08423-1.38745,2.84143-2.12024,4.56726-2.24249c1.74524-0.1441,3.49744,0.31427,5.04626,1.07013
			c1.5625,0.75177,2.9668,1.76276,4.32776,2.78992l8.07458,6.2702c2.68213,2.10168,5.34448,4.22919,7.99084,6.37762
			c-2.75903-2.00165-5.50195-4.02423-8.2251-6.07257l-8.14294-6.17792c-1.34546-1.03485-2.71619-2.03735-4.22339-2.77863
			c-1.49756-0.75311-3.15503-1.17383-4.82385-1.09668c-1.65271,0.0752-3.32495,0.72003-4.40564,2.01721
			C1302.39575,517.4715,1301.77905,519.10828,1300.88293,520.5531z"/>
	</g>
	<g>
		<path class="st13" d="M1314.97876,521.07184c0.11267,1.87006-0.50037,3.76837-1.52759,5.35596
			c-1.03796,1.58044-2.52917,2.90686-4.28711,3.55536c1.45068-1.16357,2.68701-2.4635,3.65942-3.96497
			C1313.8075,524.52435,1314.49988,522.86847,1314.97876,521.07184z"/>
	</g>
	<g>
		<path class="st13" d="M1306.79175,499.63141c1.45435,1.70599,2.88843,3.42752,4.36072,5.10898
			c1.47314,1.68372,2.99573,3.3075,4.62366,4.84427c1.58569,1.57535,3.21936,3.14453,4.55359,4.97565
			c0.67139,0.91394,1.20972,1.90924,1.81006,2.84149c0.58728,0.93225,1.3092,1.83295,2.34387,2.30243
			c-1.06726-0.39069-1.88342-1.2619-2.54553-2.16394c-0.6543-0.92267-1.22156-1.883-1.91553-2.74847
			c-1.37134-1.74841-2.97888-3.29947-4.59546-4.84991c-1.6012-1.56873-3.15222-3.21152-4.56641-4.95367
			C1309.43225,503.25534,1308.10181,501.4502,1306.79175,499.63141z"/>
	</g>
	<path class="st4" d="M1330.35315,575.65027c-1.0177,0.99591-1.71863,2.42578-1.4845,3.83026
		c0.2865,1.71857,1.85596,2.93744,3.46069,3.61578c3.89783,1.64746,8.33606,1.09412,12.51355,0.41895
		c5.62964-0.90991,11.31812-2.01819,16.40723-4.59155c1.57336-0.79565,3.2063-1.89056,3.65454-3.59583
		c0.29163-1.10974,0.01599-2.30188-0.4801-3.33655c-1.35425-2.82422-5.37341-4.46704-8.50488-4.40015
		c0.27124,0.83258,0.59509,2.56641,0.96301,3.38544c0.31702,0.27649,1.84082,0.95239,1.97009,1.35278
		c0.14868,0.46033-0.07788,0.95758-0.36133,1.34949c-0.77039,1.065-0.8949,1.06195-2.06934,1.6521
		c-6.3103,3.17102-13.39099,4.79559-20.45251,4.6925c-0.76978-0.01123-1.67346-0.11902-2.05652-0.7868
		c-0.2052-0.35767,0.40234-1.06604,0.4104-1.47827c0.01562-0.78784,0.01086-1.36414,0.02637-2.15198
		c0.00671-0.33484,0.06201-1.68372,0.01978-2.19073c-0.41406,0.09131-2.08679,0.82837-2.34998,0.9856
		C1331.42261,574.758,1330.85132,575.16284,1330.35315,575.65027z"/>
	<path class="st9" d="M1247.29614,582.49292l-19.58948,11.31l-5.55725-9.62543l19.58948-11.31
		c1.11475-0.64362,2.54028-0.26166,3.18396,0.85315l3.22644,5.58826C1248.79297,580.42377,1248.41089,581.8493,1247.29614,582.49292
		z"/>
	<path class="st4" d="M1229.89331,598.39148L1229.89331,598.39148c-1.31201,0.84271-3.05884,0.46228-3.90149-0.84979
		l-7.79028-12.12903c-0.84277-1.31207-0.46228-3.0589,0.84973-3.90161l0,0c1.31213-0.84271,3.05884-0.46222,3.90161,0.84985
		l7.79028,12.12903C1231.58594,595.802,1231.20544,597.54877,1229.89331,598.39148z"/>
	<path class="st18" d="M866.29279,1081.724c-30.45886,32.82422-78.66608,37.96045-117.5929,56.47473
		c1.70111,1.47559,4.09082,3.68982,6.45728,4.33325c6.02026,0.13806,11.76923,2.5199,17.78876,3.38354
		c10.74127,2.04602,21.40399-0.41809,32.11432,0.05725c30.84369,0.07532,61.53717-1.86621,92.35449-3.44922
		c22.66571-1.00208,29.28339-7.95203,18.55676-29.48816c-2.07837-8.06213-0.57373-16.92969,2.87903-24.27942
		C901.55823,1086.01147,883.43024,1086.41589,866.29279,1081.724z"/>
	<ellipse class="st19" cx="882.53528" cy="1116.74963" rx="11.40226" ry="9.98959"/>
	<circle class="st20" cx="882.47809" cy="1116.89429" r="4.49696"/>
	<path class="st0" d="M1223.74622,523.75098h-10.4729v-47.68982c0-2.892,2.34436-5.23645,5.23645-5.23645l0,0
		c2.89197,0,5.23645,2.34445,5.23645,5.23645V523.75098z"/>
	<g>
		<path class="st12" d="M1213.94934,567.43787c-2.0769-9.59863,3.06384-17.87689,0.86731-27.44879
			c-0.4762-2.07495-1.61523-3.94257-2.18469-5.99396c-0.7417-2.67224-0.4823-5.50684-0.21704-8.26746
			c0.20276-2.11115,0.41711-4.26672,1.29175-6.19885s2.54504-3.63501,4.63953-3.96838
			c2.79724-0.44525,5.53723-0.60071,7.32031,1.59991c0.88635,1.09381,1.25879,2.50952,1.5177,3.89331
			c0.57263,3.06006,0.74902,6.32239,0.42603,9.41516c-0.09546,0.91431-0.2572,1.80438-0.28247,2.72815
			c-0.0498,1.8291,0.17603,3.66608,0.67432,5.42694"/>
		<path class="st13" d="M1213.94934,567.43787c-0.828-3.45459-0.68372-7.07227-0.21838-10.57697
			c0.47766-3.5108,1.20605-6.98431,1.32129-10.49225c0.05664-1.75006-0.03418-3.50116-0.33691-5.21661
			c-0.24817-1.73663-0.94934-3.30206-1.65491-4.94635c-0.34387-0.81989-0.66663-1.66986-0.87866-2.55786
			c-0.21411-0.88507-0.32275-1.78857-0.3728-2.68854c-0.08728-1.80316,0.07324-3.58765,0.24146-5.34711
			c0.17712-1.75659,0.35986-3.56134,0.96057-5.29053c0.58044-1.72418,1.67773-3.34521,3.27515-4.33698
			c0.77869-0.50122,1.76794-0.76221,2.63403-0.84521c0.88647-0.11646,1.78748-0.20996,2.70374-0.16211
			c0.91162,0.03809,1.84827,0.22797,2.68665,0.6673c0.82715,0.45612,1.52576,1.13086,1.99756,1.93372
			c0.94409,1.62732,1.13342,3.4519,1.39026,5.19684c0.2168,1.76678,0.30762,3.54919,0.24377,5.3269
			c-0.0365,0.88879-0.11328,1.7749-0.22754,2.65674c-0.11877,0.88068-0.27856,1.74622-0.29944,2.62421
			c-0.0603,1.75861,0.13501,3.53082,0.58691,5.24084c-0.51013-1.6936-0.76843-3.46667-0.76819-5.24396
			c-0.00916-0.89319,0.12317-1.77863,0.21057-2.65271c0.08301-0.87531,0.12903-1.75494,0.13501-2.63397
			c0.01868-1.75812-0.09729-3.51691-0.34705-5.25549c-0.28101-1.72101-0.52673-3.51819-1.41235-4.96094
			c-0.4386-0.71503-1.07092-1.29541-1.79822-1.68005c-0.74121-0.36737-1.57446-0.5462-2.42712-0.57361
			c-0.85193-0.03986-1.71875,0.05377-2.58252,0.17322c-0.89111,0.09875-1.64746,0.31372-2.36926,0.7674
			c-1.41895,0.8941-2.42664,2.37427-2.95703,3.99042c-0.55481,1.62592-0.72705,3.37512-0.89124,5.12976
			c-0.17041,1.75787-0.34326,3.50677-0.2677,5.24091c0.05896,1.74261,0.46387,3.40778,1.16675,5.01904
			c0.67737,1.60004,1.42273,3.30798,1.66345,5.09631c0.30603,1.76978,0.38037,3.57208,0.27881,5.35364
			c-0.19006,3.57214-0.99109,7.03857-1.5354,10.52094C1213.51648,560.38275,1213.24487,563.95477,1213.94934,567.43787z"/>
	</g>
	<g>
		<path class="st13" d="M1215.18201,526.75879c0.99133,0.20087,1.88208,0.42133,2.80615,0.55829
			c0.92126,0.15485,1.83582,0.22131,2.84094,0.3396c-0.90588,0.46985-1.96179,0.55084-2.95862,0.40063
			C1216.87634,527.88934,1215.89832,527.48486,1215.18201,526.75879z"/>
	</g>
	<path class="st4" d="M1218.93408,512.94672h-0.84863c-0.33679,0-0.60986-0.27307-0.60986-0.60986v-12.12677
		c0-0.33679,0.27307-0.60986,0.60986-0.60986h0.84863c0.33679,0,0.60986,0.27307,0.60986,0.60986v12.12677
		C1219.54395,512.67365,1219.27087,512.94672,1218.93408,512.94672z"/>
	<g>
		<path class="st9" d="M1194.25171,776.07501c-35.00452,42.76581-70.08191,85.63031-100.39575,131.83972
			c0.78369-6.01825-2.81287-11.90033-6.60852-16.63605c-4.35901-5.43884-10.97986-8.56982-17.62952-10.659
			c-13.91504-4.37164-30.14893-4.58215-42.01624,3.89746c19.30188-19.9389,34.98108-41.76837,47.66223-66.45264"/>
		<path class="st4" d="M1194.25171,776.07501c-8.68823,10.74286-17.37622,21.48602-25.99268,32.28528
			c-8.65125,10.77094-17.2428,21.58954-25.6842,32.52374c-16.88403,21.86334-33.19897,44.18085-48.30103,67.30469l-1.18982,1.82178
			l0.27649-2.1604c0.42468-3.31842-0.53894-6.69745-2.09485-9.69928c-0.77844-1.51105-1.69568-2.95581-2.69006-4.34814
			c-1.00525-1.38928-2.04114-2.75983-3.22668-3.96362c-2.375-2.43079-5.2616-4.33521-8.32581-5.84656
			c-3.07166-1.50922-6.32483-2.66449-9.63354-3.59076c-6.61304-1.84546-13.53491-2.73193-20.38354-2.20087
			c-6.82483,0.52087-13.61353,2.59753-19.21167,6.58569l-0.43054-0.49982c9.52649-9.79608,18.3573-20.2724,26.35413-31.35736
			c8.03564-11.05713,15.22412-22.7334,21.54602-34.86487c-6.17786,12.20526-13.23291,23.97644-21.15149,35.14795
			c-7.95068,11.14874-16.76843,21.67554-26.27271,31.53497l-0.43054-0.49982c5.69568-4.09326,12.60889-6.23462,19.53613-6.7912
			c6.95325-0.56732,13.96545,0.30377,20.6676,2.14435c3.35205,0.92419,6.65063,2.07861,9.79541,3.60742
			c3.13477,1.53058,6.11682,3.47461,8.59424,5.98901c1.24707,1.25824,2.30847,2.65332,3.33447,4.0589
			c1.02051,1.41687,1.96838,2.8949,2.78052,4.45557c1.61841,3.09454,2.68152,6.66852,2.23389,10.26746l-0.91321-0.33856
			c15.21497-23.09174,31.63281-45.35913,48.61218-67.16315c8.49207-10.90216,17.12036-21.69629,25.82947-32.42328
			C1176.62402,797.35529,1185.43787,786.71497,1194.25171,776.07501z"/>
	</g>
	<g>
		<path class="st8" d="M1456.79651,603.73413c-20.75793,7.50732-40.3374,17.88818-59.83691,28.23328
			c-3.61609,1.91846-7.23218,3.83691-10.84827,5.75537c-0.61597,0.32678-1.27478,0.69824-1.55505,1.33679
			c-0.2627,0.59869-0.12805,1.28857,0.01208,1.92725c5.00867,22.83368,11.54333,45.58533,22.43298,66.37616
			c1.15869,2.21216,2.67676,4.35059,3.52075,6.71594c0.21741,0.60938,0.34766,1.24915,0.59509,1.8479
			c0.79919,1.93451,2.60364,3.50458,3.95361,5.05884c0.50183,0.5777,1.00366,1.1554,1.50537,1.73309
			c0.40759,0.46918,0.83899,0.95557,1.4187,1.17963c1.2749,0.4928,2.60986-0.44318,3.71387-1.24908
			c5.38269-3.92914,11.91638-5.86145,18.03979-8.49109c18.54968-7.96582,33.42993-22.3952,47.85742-36.51575"/>
		<path class="st4" d="M1456.79651,603.73413c-10.06799,3.72992-19.86414,8.14185-29.48438,12.88684
			c-9.64185,4.7063-19.12378,9.73407-28.59241,14.78821l-7.10205,3.79114l-3.5509,1.89575l-1.77551,0.94788
			c-0.58032,0.30621-1.13306,0.63635-1.36365,1.10571c-0.23755,0.45935-0.14221,1.08398,0.00317,1.72247l0.44397,1.96106
			l0.90283,3.91937c0.60876,2.61127,1.25024,5.21448,1.90967,7.81268c2.64038,10.39075,5.7395,20.66895,9.53723,30.68494
			c1.87732,5.01501,3.92505,9.96643,6.18359,14.82074c1.12622,2.42816,2.32373,4.82471,3.54285,7.20435
			c1.22144,2.33716,2.84241,4.56403,3.65088,7.24847c0.52051,2.60522,2.66809,4.32892,4.42859,6.38757l1.31592,1.52295
			c0.43237,0.50464,0.85571,0.97357,1.37317,1.13129c0.51514,0.1767,1.10815,0.05426,1.66785-0.21045
			c0.56384-0.26331,1.09619-0.64368,1.63794-1.03455c4.43225-3.19519,9.56836-5.06122,14.54175-7.01581
			c10.03442-3.77667,19.19897-9.53528,27.59753-16.17352c8.45129-6.60181,16.21558-14.0437,23.94141-21.48877
			c-7.61206,7.56146-15.2616,15.1214-23.63721,21.87219c-8.37622,6.71155-17.58228,12.55316-27.65723,16.40839
			c-4.97473,1.98248-10.04468,3.8653-14.34534,7.00336c-0.54321,0.39478-1.10437,0.8067-1.75647,1.11676
			c-0.63611,0.30707-1.45068,0.51282-2.22839,0.255c-0.7876-0.25232-1.28845-0.85974-1.72461-1.35181l-1.32373-1.51605
			c-0.86011-1.00378-1.83606-1.92682-2.71082-2.99152c-0.43445-0.53259-0.85046-1.09485-1.18286-1.72192
			c-0.34656-0.61945-0.56152-1.3313-0.73694-1.95715c-0.7561-2.48846-2.34888-4.67963-3.62537-7.07465
			c-1.24084-2.39075-2.45471-4.789-3.59985-7.22437c-2.29346-4.86688-4.38269-9.82867-6.2865-14.85907
			c-3.76208-10.07996-6.81665-20.40656-9.40845-30.83319c-0.64734-2.60724-1.27649-5.21881-1.87268-7.83759l-0.88391-3.93036
			l-0.43457-1.96722c-0.13318-0.64606-0.31152-1.44617,0.06995-2.21967c0.39673-0.75153,1.10303-1.10376,1.6853-1.41992
			l1.7804-0.9386l3.56079-1.87726l7.1217-3.75421c9.49744-5.00159,19.00671-9.99548,28.69116-14.64038
			C1436.80139,611.5791,1446.67334,607.31152,1456.79651,603.73413z"/>
	</g>
	<g>
		<path class="st4" d="M1404.4519,637.97394c1.4585,5.35925,3.02551,10.68018,4.78613,15.93488
			c1.76257,5.25311,3.64966,10.46387,5.78723,15.57385c2.06262,5.1405,4.36865,10.17993,6.79895,15.15942l1.85229,3.72131
			l1.92554,3.68567l1.96362,3.66858l2.02112,3.64069l-2.25-3.50702l-2.16296-3.5636l-2.05505-3.62793l-1.98096-3.67041
			c-2.58215-4.92694-4.89258-9.99438-7.03699-15.12823c-2.06946-5.16443-3.97998-10.39569-5.59229-15.71954
			C1406.89417,648.81934,1405.50903,643.42828,1404.4519,637.97394z"/>
	</g>
	<path class="st18" d="M1002.19055,921.56226c14.30261,12.90344,35.21118,18.05389,53.87073,13.27014
		c4.52258-1.15948,7.59497-2.70898,11.3186-5.52539c2.56665,2.4483,3.66614,6.32983,2.76501,9.7605
		c-0.36829,1.40179-1.03711,2.70776-1.44824,4.0976c-0.52759,1.78302-0.62,3.66418-0.62537,5.52362
		c-0.02124,7.3175,1.26392,14.63696,3.77661,21.50958c-9.46033-7.30206-22.3385-6.92773-34.28735-6.72528
		c-39.19348,0.664-78.3869-0.21118-117.58032,0.45282c16.95624-9.12524,34.31982-15.95441,52.02167-23.53265
		c3.91565-1.67633,7.86768-3.32422,11.47729-5.58527C989.77826,930.86218,995.8822,925.4931,1002.19055,921.56226z"/>
	<g>
		<path class="st13" d="M1310.48047,507.16696c-0.6709,1.03015-1.17883,2.11703-1.40662,3.27036
			c-0.12695,0.57211-0.17224,1.15997-0.14978,1.75055c0.00122,0.59576,0.13293,1.1803,0.23999,1.79163
			c-0.30103-0.53625-0.53796-1.12781-0.6228-1.75421c-0.11694-0.62213-0.08289-1.26892,0.04333-1.88934
			c0.13293-0.61963,0.35547-1.22119,0.68457-1.75729C1309.59424,508.04303,1309.98792,507.54633,1310.48047,507.16696z"/>
	</g>
	<circle class="st21" cx="303.82748" cy="873.05347" r="54.33244"/>
	<circle class="st22" cx="1328.82336" cy="1275.17493" r="54.33244"/>
	<circle class="st21" cx="1165.25916" cy="390.41565" r="54.33244"/>
	<path class="st23" d="M1192.49341,370.04263c-0.01111-0.36871-0.13782-0.57907-0.51477-0.69611
		c-6.68884-2.42566-13.44775-4.65668-20.12195-7.12552c-2.255-0.84723-4.53882-1.61792-6.80847-2.42645
		c-0.32861-0.11707-0.63062-0.17172-0.99207-0.043c-8.4679,3.01575-16.94006,6.01962-25.41516,9.01526
		c-0.36035,0.12738-0.48816,0.31113-0.50928,0.69293c-0.87451,15.3775,0.66931,37.78918,26.67163,51.69418
		C1187.18689,410.93045,1193.27795,387.35468,1192.49341,370.04263z M1164.86926,416.7157
		c-22.24805-11.89728-23.56897-31.073-22.82068-44.23019c0.01807-0.32669,0.12732-0.48386,0.43579-0.5929
		c7.25134-2.56308,14.50024-5.13321,21.74548-7.71353c0.3092-0.11014,0.56763-0.06339,0.84888,0.03677
		c1.94189,0.69177,3.89587,1.35123,5.82532,2.07611c5.71057,2.11237,11.49365,4.02124,17.21655,6.09668
		c0.32263,0.10013,0.43103,0.28012,0.44055,0.59561C1189.23242,387.79663,1184.02075,407.96838,1164.86926,416.7157z"/>
	<path class="st23" d="M331.0618,852.68048c-0.01117-0.36871-0.13785-0.5791-0.51483-0.69611
		c-6.68878-2.42572-13.44775-4.65668-20.12189-7.12555c-2.25507-0.84723-4.53888-1.61792-6.8085-2.42645
		c-0.32861-0.11707-0.63062-0.17169-0.99207-0.04297c-8.46796,3.01575-16.94009,6.01959-25.41519,9.01526
		c-0.36038,0.12738-0.48816,0.3111-0.50925,0.69293c-0.87454,15.3775,0.66928,37.78918,26.67166,51.69415
		C325.75522,893.5683,331.84634,869.99249,331.0618,852.68048z M303.43756,899.35352
		c-22.24799-11.89728-23.56891-31.073-22.82065-44.23016c0.01807-0.32672,0.12738-0.48389,0.43576-0.5929
		c7.25137-2.56311,14.50024-5.13324,21.74551-7.71356c0.30927-0.11011,0.56769-0.06335,0.84885,0.0368
		c1.94193,0.69177,3.89597,1.3512,5.82541,2.07611c5.71051,2.11237,11.49356,4.02124,17.21655,6.09668
		c0.32254,0.1001,0.43097,0.28009,0.44052,0.59558C327.80078,870.43445,322.58914,890.6062,303.43756,899.35352z"/>
	<rect x="132.83727" y="1102.31348" class="st21" width="396.04578" height="88.8539"/>
	<g>
		<path class="st4" d="M176.58838,1156.05762c-2.38184-1.32715-4.27246-3.18262-5.67236-5.56445
			c-1.40039-2.38086-2.1001-5.05859-2.1001-8.03125s0.69971-5.64355,2.1001-8.01074c1.3999-2.36621,3.29053-4.21387,5.67236-5.54199
			c2.38135-1.32715,5.00098-1.99219,7.8584-1.99219c2.85791,0,5.47754,0.66504,7.85889,1.99219
			c2.38135,1.32812,4.25732,3.17578,5.62891,5.54199c1.37061,2.36719,2.05664,5.03809,2.05664,8.01074
			s-0.69287,5.65039-2.07861,8.03125c-1.38525,2.38184-3.26221,4.2373-5.62842,5.56445
			c-2.36719,1.32812-4.97949,1.99121-7.8374,1.99121C181.58936,1158.04883,178.96973,1157.38574,176.58838,1156.05762z
			 M190.27051,1148.87012c1.45752-1.61621,2.18652-3.75195,2.18652-6.4082c0-2.68457-0.729-4.82812-2.18652-6.42969
			c-1.45801-1.60254-3.39893-2.40332-5.82373-2.40332c-2.45361,0-4.40967,0.79395-5.8667,2.38086
			c-1.45801,1.58789-2.18652,3.73926-2.18652,6.45215c0,2.68457,0.72852,4.82715,2.18652,6.42969
			c1.45703,1.60156,3.41309,2.40332,5.8667,2.40332C186.87158,1151.29492,188.8125,1150.48633,190.27051,1148.87012z"/>
		<path class="st4" d="M214.75586,1134.47266c1.29883-0.76367,2.74219-1.14746,4.33008-1.14746v7.83789h-2.03516
			c-1.84766,0-3.2334,0.39648-4.15674,1.19043c-0.92432,0.79395-1.38574,2.18652-1.38574,4.17773v11.21484h-7.40381v-24.16113
			h7.40381v4.02734C212.37451,1136.28516,213.45703,1135.23828,214.75586,1134.47266z"/>
		<path class="st4" d="M222.5708,1139.08398c0.9375-1.87598,2.21484-3.31836,3.83203-4.3291
			c1.61621-1.01074,3.42041-1.51562,5.41211-1.51562c1.70312,0,3.19678,0.3457,4.48145,1.03906
			c1.28418,0.69238,2.27344,1.60156,2.96582,2.72754v-3.4209h7.4043v24.16113h-7.4043v-3.4209
			c-0.72168,1.12598-1.7251,2.03516-3.00928,2.72852c-1.28467,0.69238-2.77832,1.03906-4.48145,1.03906
			c-1.96289,0-3.75244-0.5127-5.36865-1.53711c-1.61719-1.02441-2.89453-2.48242-3.83203-4.37305
			c-0.93848-1.89062-1.40723-4.07715-1.40723-6.56055C221.16357,1143.14062,221.63232,1140.96094,222.5708,1139.08398z
			 M237.7251,1141.29297c-1.0249-1.06836-2.27295-1.60254-3.74512-1.60254s-2.72119,0.52734-3.74512,1.58008
			c-1.02539,1.05469-1.53711,2.50488-1.53711,4.35156c0,1.84766,0.51172,3.3125,1.53711,4.39551
			c1.02393,1.08203,2.27295,1.62305,3.74512,1.62305s2.72021-0.5332,3.74512-1.60156
			c1.02441-1.06738,1.53711-2.52539,1.53711-4.37305S238.74951,1142.36035,237.7251,1141.29297z"/>
		<path class="st4" d="M273.53271,1136.0752c1.68896,1.83301,2.5332,4.35156,2.5332,7.55566v14.11523h-7.36084v-13.11914
			c0-1.61621-0.41895-2.87207-1.25586-3.76758c-0.8374-0.89453-1.96289-1.3418-3.37695-1.3418
			c-1.41455,0-2.54053,0.44727-3.37744,1.3418c-0.8374,0.89551-1.25586,2.15137-1.25586,3.76758v13.11914h-7.40381v-24.16113
			h7.40381v3.2041c0.75049-1.06738,1.76074-1.91113,3.03125-2.53223c1.26953-0.62109,2.69873-0.93164,4.28662-0.93164
			C269.58545,1133.3252,271.84424,1134.24219,273.53271,1136.0752z"/>
		<path class="st4" d="M294.87891,1134.27832c1.28418,0.69238,2.27344,1.60156,2.96582,2.72754v-3.4209h7.4043v24.11816
			c0,2.22168-0.44043,4.23535-1.3208,6.04004c-0.88086,1.80371-2.22314,3.24023-4.02637,4.30762
			c-1.80469,1.06836-4.04883,1.60254-6.7334,1.60254c-3.57959,0-6.48047-0.84473-8.70264-2.5332
			c-2.22314-1.68848-3.49316-3.97656-3.81055-6.8623h7.31738c0.23096,0.92285,0.7793,1.65137,1.64551,2.18652
			c0.86621,0.5332,1.93359,0.80078,3.2041,0.80078c1.52979,0,2.74951-0.44043,3.65869-1.32031
			c0.90918-0.88086,1.36377-2.28809,1.36377-4.22168v-3.4209c-0.72168,1.12598-1.71777,2.04199-2.9873,2.74902
			c-1.27051,0.70801-2.75684,1.06152-4.45996,1.06152c-1.9917,0-3.7959-0.5127-5.41211-1.53711
			c-1.61719-1.02441-2.89453-2.48242-3.83203-4.37305c-0.93848-1.89062-1.40723-4.07715-1.40723-6.56055
			c0-2.48145,0.46875-4.66113,1.40723-6.53809c0.9375-1.87598,2.21484-3.31836,3.83203-4.3291
			c1.61621-1.01074,3.42041-1.51562,5.41211-1.51562C292.10059,1133.23926,293.59424,1133.58496,294.87891,1134.27832z
			 M296.30762,1141.29297c-1.0249-1.06836-2.27295-1.60254-3.74512-1.60254s-2.72119,0.52734-3.74512,1.58008
			c-1.02539,1.05469-1.53711,2.50488-1.53711,4.35156c0,1.84766,0.51172,3.3125,1.53711,4.39551
			c1.02393,1.08203,2.27295,1.62305,3.74512,1.62305s2.72021-0.5332,3.74512-1.60156
			c1.02441-1.06738,1.53711-2.52539,1.53711-4.37305S297.33203,1142.36035,296.30762,1141.29297z"/>
		<path class="st4" d="M333.2627,1147.44141h-16.75635c0.11475,1.50098,0.59863,2.64844,1.4502,3.44141
			c0.85107,0.79492,1.89795,1.19141,3.13916,1.19141c1.84717,0,3.13184-0.7793,3.854-2.33887h7.88037
			c-0.40479,1.58789-1.1333,3.01758-2.18701,4.28711c-1.05371,1.27051-2.37451,2.2666-3.96143,2.9873
			c-1.58789,0.72168-3.36328,1.08301-5.32568,1.08301c-2.36768,0-4.4751-0.50488-6.32178-1.51562
			c-1.84766-1.00977-3.29102-2.45312-4.33008-4.33008c-1.03906-1.87598-1.55859-4.07031-1.55859-6.58105
			c0-2.51172,0.51221-4.70508,1.53711-6.58203c1.02441-1.87598,2.46045-3.31836,4.30811-4.3291
			c1.84717-1.01074,3.96875-1.51562,6.36523-1.51562c2.33789,0,4.41602,0.49121,6.23486,1.47168
			c1.81836,0.98145,3.23975,2.38184,4.26465,4.2002c1.02441,1.81836,1.53711,3.94043,1.53711,6.36523
			C333.39258,1145.96875,333.34961,1146.69043,333.2627,1147.44141z M325.81543,1143.32715
			c0-1.26953-0.43311-2.2793-1.29883-3.03027c-0.86621-0.75-1.94873-1.12598-3.24756-1.12598
			c-1.24121,0-2.28809,0.36133-3.13916,1.08203c-0.85156,0.72266-1.37891,1.74707-1.58057,3.07422H325.81543z"/>
		<path class="st4" d="M380.89062,1127.35059v30.39551h-7.40381v-18.22852l-6.79785,18.22852h-5.97559l-6.84131-18.27246v18.27246
			h-7.40381v-30.39551h8.74609l8.53027,21.04297l8.44287-21.04297H380.89062z"/>
		<path class="st4" d="M390.82812,1156.57715c-1.89111-1.00977-3.37744-2.45312-4.45996-4.33008
			c-1.08252-1.87598-1.62354-4.07031-1.62354-6.58105c0-2.48242,0.54785-4.66895,1.64551-6.55957
			c1.09668-1.89062,2.59766-3.34082,4.50293-4.35156s4.04102-1.51562,6.4082-1.51562c2.3667,0,4.50293,0.50488,6.4082,1.51562
			s3.40576,2.46094,4.50293,4.35156c1.09668,1.89062,1.64551,4.07715,1.64551,6.55957s-0.55615,4.66895-1.66699,6.55957
			c-1.11182,1.89062-2.62695,3.3418-4.54639,4.35156c-1.91992,1.01074-4.06348,1.51562-6.42969,1.51562
			C394.84717,1158.09277,392.71826,1157.58789,390.82812,1156.57715z M400.83008,1150.12598
			c0.99609-1.04004,1.49365-2.52637,1.49365-4.45996s-0.4834-3.4209-1.4502-4.45996
			c-0.96777-1.03906-2.1582-1.55859-3.57227-1.55859c-1.44385,0-2.64111,0.5127-3.59375,1.53711s-1.42871,2.51855-1.42871,4.48145
			c0,1.93359,0.46875,3.41992,1.40674,4.45996c0.93799,1.03906,2.11426,1.55859,3.5293,1.55859
			C398.62842,1151.68457,399.83398,1151.16504,400.83008,1150.12598z"/>
		<path class="st4" d="M435.29492,1136.0752c1.68896,1.83301,2.5332,4.35156,2.5332,7.55566v14.11523h-7.36084v-13.11914
			c0-1.61621-0.41895-2.87207-1.25586-3.76758c-0.8374-0.89453-1.96289-1.3418-3.37695-1.3418
			c-1.41455,0-2.54053,0.44727-3.37744,1.3418c-0.8374,0.89551-1.25586,2.15137-1.25586,3.76758v13.11914h-7.40381v-24.16113
			h7.40381v3.2041c0.75049-1.06738,1.76074-1.91113,3.03125-2.53223c1.26953-0.62109,2.69873-0.93164,4.28662-0.93164
			C431.34766,1133.3252,433.60645,1134.24219,435.29492,1136.0752z"/>
		<path class="st4" d="M465.62598,1147.44141h-16.75635c0.11475,1.50098,0.59863,2.64844,1.4502,3.44141
			c0.85107,0.79492,1.89795,1.19141,3.13916,1.19141c1.84717,0,3.13184-0.7793,3.854-2.33887h7.88037
			c-0.40479,1.58789-1.1333,3.01758-2.18701,4.28711c-1.05371,1.27051-2.37451,2.2666-3.96143,2.9873
			c-1.58789,0.72168-3.36328,1.08301-5.32568,1.08301c-2.36768,0-4.4751-0.50488-6.32178-1.51562
			c-1.84766-1.00977-3.29102-2.45312-4.33008-4.33008c-1.03906-1.87598-1.55859-4.07031-1.55859-6.58105
			c0-2.51172,0.51221-4.70508,1.53711-6.58203c1.02441-1.87598,2.46045-3.31836,4.30811-4.3291
			c1.84717-1.01074,3.96875-1.51562,6.36523-1.51562c2.33789,0,4.41602,0.49121,6.23486,1.47168
			c1.81836,0.98145,3.23975,2.38184,4.26465,4.2002c1.02441,1.81836,1.53711,3.94043,1.53711,6.36523
			C465.75586,1145.96875,465.71289,1146.69043,465.62598,1147.44141z M458.17871,1143.32715
			c0-1.26953-0.43311-2.2793-1.29883-3.03027c-0.86621-0.75-1.94873-1.12598-3.24756-1.12598
			c-1.24121,0-2.28809,0.36133-3.13916,1.08203c-0.85156,0.72266-1.37891,1.74707-1.58057,3.07422H458.17871z"/>
		<path class="st4" d="M494.33301,1133.58496l-15.1543,35.63574h-7.96729l5.54248-12.29688l-9.8291-23.33887h8.27002
			l5.58594,15.11133l5.54199-15.11133H494.33301z"/>
	</g>
	<rect x="1344.93591" y="1062.13696" class="st21" width="330.04581" height="89.24614"/>
	<g>
		<path class="st4" d="M1404.78711,1088.50391v5.93164h-12.38379v6.4082h9.2666v5.75879h-9.2666v12.29688H1385v-30.39551H1404.78711
			z"/>
		<path class="st4" d="M1419.33496,1095.62598c1.29883-0.76367,2.74219-1.14746,4.33008-1.14746v7.83789h-2.03516
			c-1.84766,0-3.2334,0.39648-4.15625,1.19043c-0.9248,0.79395-1.38574,2.18652-1.38574,4.17773v11.21484h-7.4043v-24.16113h7.4043
			v4.02734C1416.9541,1097.43848,1418.03613,1096.3916,1419.33496,1095.62598z"/>
		<path class="st4" d="M1449.86035,1108.59473h-16.75586c0.11426,1.50098,0.59863,2.64844,1.4502,3.44141
			c0.85059,0.79492,1.89746,1.19141,3.13867,1.19141c1.84766,0,3.13184-0.7793,3.85449-2.33887h7.87988
			c-0.4043,1.58789-1.13281,3.01758-2.18652,4.28711c-1.05371,1.27051-2.375,2.2666-3.96191,2.9873
			c-1.58789,0.72168-3.36328,1.08301-5.3252,1.08301c-2.36816,0-4.47559-0.50488-6.32227-1.51562
			c-1.84766-1.00977-3.29102-2.45312-4.33008-4.33008c-1.03906-1.87598-1.55859-4.07031-1.55859-6.58105
			c0-2.51172,0.5127-4.70508,1.53711-6.58203c1.02441-1.87598,2.46094-3.31836,4.30859-4.3291
			c1.84668-1.01074,3.96875-1.51562,6.36523-1.51562c2.33789,0,4.41602,0.49121,6.23438,1.47168
			c1.81836,0.98145,3.24023,2.38184,4.26465,4.2002s1.53711,3.94043,1.53711,6.36523
			C1449.99023,1107.12207,1449.94727,1107.84375,1449.86035,1108.59473z M1442.41309,1104.48047
			c0-1.26953-0.43262-2.2793-1.29883-3.03027c-0.86621-0.75-1.94824-1.12598-3.24707-1.12598
			c-1.24121,0-2.28809,0.36133-3.13965,1.08203c-0.85156,0.72266-1.37891,1.74707-1.58008,3.07422H1442.41309z"/>
		<path class="st4" d="M1476.53223,1108.59473h-16.75586c0.11426,1.50098,0.59863,2.64844,1.4502,3.44141
			c0.85059,0.79492,1.89746,1.19141,3.13867,1.19141c1.84766,0,3.13184-0.7793,3.85449-2.33887h7.87988
			c-0.4043,1.58789-1.13281,3.01758-2.18652,4.28711c-1.05371,1.27051-2.375,2.2666-3.96191,2.9873
			c-1.58789,0.72168-3.36328,1.08301-5.3252,1.08301c-2.36816,0-4.47559-0.50488-6.32227-1.51562
			c-1.84766-1.00977-3.29102-2.45312-4.33008-4.33008c-1.03906-1.87598-1.55859-4.07031-1.55859-6.58105
			c0-2.51172,0.5127-4.70508,1.53711-6.58203c1.02441-1.87598,2.46094-3.31836,4.30859-4.3291
			c1.84668-1.01074,3.96875-1.51562,6.36523-1.51562c2.33789,0,4.41602,0.49121,6.23438,1.47168
			c1.81836,0.98145,3.24023,2.38184,4.26465,4.2002s1.53711,3.94043,1.53711,6.36523
			C1476.66211,1107.12207,1476.61914,1107.84375,1476.53223,1108.59473z M1469.08496,1104.48047
			c0-1.26953-0.43262-2.2793-1.29883-3.03027c-0.86621-0.75-1.94824-1.12598-3.24707-1.12598
			c-1.24121,0-2.28809,0.36133-3.13965,1.08203c-0.85156,0.72266-1.37891,1.74707-1.58008,3.07422H1469.08496z"/>
		<path class="st4" d="M1524.16113,1088.50391v30.39551h-7.4043v-18.22852l-6.79785,18.22852h-5.97559l-6.84082-18.27246v18.27246
			h-7.4043v-30.39551h8.74609l8.53027,21.04297l8.44336-21.04297H1524.16113z"/>
		<path class="st4" d="M1534.09766,1117.73047c-1.89062-1.00977-3.37695-2.45312-4.45996-4.33008
			c-1.08203-1.87598-1.62305-4.07031-1.62305-6.58105c0-2.48242,0.54785-4.66895,1.64551-6.55957
			c1.09668-1.89062,2.59766-3.34082,4.50293-4.35156s4.04102-1.51562,6.4082-1.51562c2.36621,0,4.50293,0.50488,6.4082,1.51562
			s3.40527,2.46094,4.50293,4.35156c1.09668,1.89062,1.64551,4.07715,1.64551,6.55957s-0.55664,4.66895-1.66699,6.55957
			c-1.1123,1.89062-2.62695,3.3418-4.54688,4.35156c-1.91992,1.01074-4.06348,1.51562-6.42969,1.51562
			C1538.11719,1119.24609,1535.98828,1118.74121,1534.09766,1117.73047z M1544.09961,1111.2793
			c0.99609-1.04004,1.49414-2.52637,1.49414-4.45996s-0.4834-3.4209-1.4502-4.45996
			c-0.96777-1.03906-2.1582-1.55859-3.57227-1.55859c-1.44434,0-2.6416,0.5127-3.59375,1.53711
			c-0.95312,1.02441-1.42871,2.51855-1.42871,4.48145c0,1.93359,0.46875,3.41992,1.40625,4.45996
			c0.93848,1.03906,2.11426,1.55859,3.5293,1.55859C1541.89844,1112.83789,1543.10352,1112.31836,1544.09961,1111.2793z"/>
		<path class="st4" d="M1578.56543,1097.22852c1.68848,1.83301,2.5332,4.35156,2.5332,7.55566v14.11523h-7.36133v-13.11914
			c0-1.61621-0.41895-2.87207-1.25586-3.76758c-0.83691-0.89453-1.96289-1.3418-3.37695-1.3418s-2.54004,0.44727-3.37695,1.3418
			c-0.83789,0.89551-1.25586,2.15137-1.25586,3.76758v13.11914h-7.4043v-24.16113h7.4043v3.2041
			c0.75-1.06738,1.76074-1.91113,3.03125-2.53223c1.26953-0.62109,2.69824-0.93164,4.28613-0.93164
			C1574.61816,1094.47852,1576.87695,1095.39551,1578.56543,1097.22852z"/>
		<path class="st4" d="M1608.89551,1108.59473h-16.75586c0.11426,1.50098,0.59863,2.64844,1.4502,3.44141
			c0.85059,0.79492,1.89746,1.19141,3.13867,1.19141c1.84766,0,3.13184-0.7793,3.85449-2.33887h7.87988
			c-0.4043,1.58789-1.13281,3.01758-2.18652,4.28711c-1.05371,1.27051-2.375,2.2666-3.96191,2.9873
			c-1.58789,0.72168-3.36328,1.08301-5.3252,1.08301c-2.36816,0-4.47559-0.50488-6.32227-1.51562
			c-1.84766-1.00977-3.29102-2.45312-4.33008-4.33008c-1.03906-1.87598-1.55859-4.07031-1.55859-6.58105
			c0-2.51172,0.5127-4.70508,1.53711-6.58203c1.02441-1.87598,2.46094-3.31836,4.30859-4.3291
			c1.84668-1.01074,3.96875-1.51562,6.36523-1.51562c2.33789,0,4.41602,0.49121,6.23438,1.47168
			c1.81836,0.98145,3.24023,2.38184,4.26465,4.2002s1.53711,3.94043,1.53711,6.36523
			C1609.02539,1107.12207,1608.98242,1107.84375,1608.89551,1108.59473z M1601.44824,1104.48047
			c0-1.26953-0.43262-2.2793-1.29883-3.03027c-0.86621-0.75-1.94824-1.12598-3.24707-1.12598
			c-1.24121,0-2.28809,0.36133-3.13965,1.08203c-0.85156,0.72266-1.37891,1.74707-1.58008,3.07422H1601.44824z"/>
		<path class="st4" d="M1637.60254,1094.73828l-15.1543,35.63574h-7.9668l5.54199-12.29688l-9.8291-23.33887h8.27051
			l5.58594,15.11133l5.54199-15.11133H1637.60254z"/>
	</g>
	<rect x="717.4552" y="1243.91089" class="st21" width="397.99164" height="89.24614"/>
	<g>
		<path class="st4" d="M751.875,1278.53418c1.29883-2.35156,3.10986-4.18457,5.43408-5.49902
			c2.32324-1.3125,4.95752-1.96973,7.90186-1.96973c3.60791,0,6.69629,0.95312,9.26562,2.85742
			c2.56885,1.90527,4.28662,4.50391,5.15283,7.79395h-8.14014c-0.60645-1.26953-1.46533-2.23633-2.57617-2.90039
			c-1.11182-0.66406-2.375-0.99609-3.78857-0.99609c-2.28076,0-4.12842,0.79395-5.54248,2.38086
			c-1.41455,1.58789-2.12158,3.70996-2.12158,6.36523c0,2.65625,0.70703,4.77734,2.12158,6.36523
			c1.41406,1.58789,3.26172,2.38086,5.54248,2.38086c1.41357,0,2.67676-0.33105,3.78857-0.99512
			c1.11084-0.66406,1.96973-1.63086,2.57617-2.90137h8.14014c-0.86621,3.29102-2.58398,5.88184-5.15283,7.77246
			c-2.56934,1.89062-5.65771,2.83594-9.26562,2.83594c-2.94434,0-5.57861-0.65625-7.90186-1.9707
			c-2.32422-1.3125-4.13525-3.13867-5.43408-5.47656c-1.29932-2.33887-1.94873-5.00781-1.94873-8.01074
			C749.92627,1283.56445,750.57568,1280.8877,751.875,1278.53418z"/>
		<path class="st4" d="M784.11035,1283.14551c0.9375-1.87598,2.21484-3.31836,3.83203-4.3291
			c1.61621-1.01074,3.42041-1.51562,5.41211-1.51562c1.70312,0,3.19678,0.3457,4.48145,1.03906
			c1.28418,0.69238,2.27344,1.60156,2.96582,2.72754v-3.4209h7.4043v24.16113h-7.4043v-3.4209
			c-0.72168,1.12598-1.7251,2.03516-3.00928,2.72852c-1.28467,0.69238-2.77832,1.03906-4.48145,1.03906
			c-1.96289,0-3.75244-0.5127-5.36865-1.53711c-1.61719-1.02441-2.89453-2.48242-3.83203-4.37305
			c-0.93848-1.89062-1.40723-4.07715-1.40723-6.56055C782.70312,1287.20215,783.17188,1285.02246,784.11035,1283.14551z
			 M799.26465,1285.35449c-1.0249-1.06836-2.27295-1.60254-3.74512-1.60254s-2.72119,0.52734-3.74512,1.58008
			c-1.02539,1.05469-1.53711,2.50488-1.53711,4.35156c0,1.84766,0.51172,3.3125,1.53711,4.39551
			c1.02393,1.08203,2.27295,1.62305,3.74512,1.62305s2.72021-0.5332,3.74512-1.60156
			c1.02441-1.06738,1.53711-2.52539,1.53711-4.37305S800.28906,1286.42188,799.26465,1285.35449z"/>
		<path class="st4" d="M824.22607,1278.53418c1.29883-0.76367,2.74219-1.14746,4.33008-1.14746v7.83789H826.521
			c-1.84766,0-3.2334,0.39648-4.15674,1.19043c-0.92432,0.79395-1.38574,2.18652-1.38574,4.17773v11.21484h-7.40381v-24.16113
			h7.40381v4.02734C821.84473,1280.34668,822.92725,1279.2998,824.22607,1278.53418z"/>
		<path class="st4" d="M845.57227,1295.5293v6.27832h-3.76709c-2.68457,0-4.77783-0.65625-6.27832-1.96973
			c-1.50098-1.31348-2.25146-3.45703-2.25146-6.43066v-9.6123h-2.94434v-6.14844h2.94434v-5.88867h7.4043v5.88867h4.84912v6.14844
			h-4.84912v9.69922c0,0.72168,0.17285,1.24121,0.51953,1.55859c0.34619,0.31836,0.92334,0.47656,1.73193,0.47656H845.57227z"/>
		<path class="st4" d="M872.33008,1291.50293h-16.75635c0.11475,1.50098,0.59863,2.64844,1.4502,3.44141
			c0.85107,0.79492,1.89795,1.19141,3.13916,1.19141c1.84717,0,3.13184-0.7793,3.854-2.33887h7.88037
			c-0.40479,1.58789-1.1333,3.01758-2.18701,4.28711c-1.05371,1.27051-2.37451,2.2666-3.96143,2.9873
			c-1.58789,0.72168-3.36328,1.08301-5.32568,1.08301c-2.36768,0-4.4751-0.50488-6.32178-1.51562
			c-1.84766-1.00977-3.29102-2.45312-4.33008-4.33008c-1.03906-1.87598-1.55859-4.07031-1.55859-6.58105
			c0-2.51172,0.51221-4.70508,1.53711-6.58203c1.02441-1.87598,2.46045-3.31836,4.30811-4.3291
			c1.84717-1.01074,3.96875-1.51562,6.36523-1.51562c2.33789,0,4.41602,0.49121,6.23486,1.47168
			c1.81836,0.98145,3.23975,2.38184,4.26465,4.2002c1.02441,1.81836,1.53711,3.94043,1.53711,6.36523
			C872.45996,1290.03027,872.41699,1290.75195,872.33008,1291.50293z M864.88281,1287.38867
			c0-1.26953-0.43311-2.2793-1.29883-3.03027c-0.86621-0.75-1.94873-1.12598-3.24756-1.12598
			c-1.24121,0-2.28809,0.36133-3.13916,1.08203c-0.85156,0.72266-1.37891,1.74707-1.58057,3.07422H864.88281z"/>
		<path class="st4" d="M895.92773,1278.33984c1.29883-0.69336,2.78516-1.03906,4.45996-1.03906
			c1.9917,0,3.79541,0.50488,5.41211,1.51562c1.61621,1.01074,2.89355,2.45312,3.83203,4.3291
			c0.9375,1.87695,1.40723,4.05664,1.40723,6.53809c0,2.4834-0.46973,4.66992-1.40723,6.56055
			c-0.93848,1.89062-2.21582,3.34863-3.83203,4.37305c-1.6167,1.02441-3.42041,1.53711-5.41211,1.53711
			c-1.70361,0-3.18994-0.33984-4.45996-1.01758c-1.27051-0.67773-2.2666-1.58105-2.98779-2.70605v3.37695h-7.40381v-32.04102
			h7.40381v11.30078C893.63281,1279.94141,894.62891,1279.03223,895.92773,1278.33984z M901.96777,1285.33203
			c-1.0249-1.05273-2.28809-1.58008-3.78857-1.58008c-1.47217,0-2.7207,0.53418-3.74512,1.60254
			c-1.0249,1.06738-1.53711,2.52539-1.53711,4.37305s0.51221,3.30566,1.53711,4.37305
			c1.02441,1.06836,2.27295,1.60156,3.74512,1.60156s2.72803-0.54102,3.76709-1.62305
			c1.03906-1.08301,1.55859-2.54785,1.55859-4.39551C903.50488,1287.83691,902.99219,1286.38672,901.96777,1285.33203z"/>
		<path class="st4" d="M914.87012,1283.14551c0.9375-1.87598,2.21484-3.31836,3.83203-4.3291
			c1.61621-1.01074,3.42041-1.51562,5.41211-1.51562c1.70312,0,3.19678,0.3457,4.48145,1.03906
			c1.28418,0.69238,2.27344,1.60156,2.96582,2.72754v-3.4209h7.4043v24.16113h-7.4043v-3.4209
			c-0.72168,1.12598-1.7251,2.03516-3.00928,2.72852c-1.28467,0.69238-2.77832,1.03906-4.48145,1.03906
			c-1.96289,0-3.75244-0.5127-5.36865-1.53711c-1.61719-1.02441-2.89453-2.48242-3.83203-4.37305
			c-0.93848-1.89062-1.40723-4.07715-1.40723-6.56055C913.46289,1287.20215,913.93164,1285.02246,914.87012,1283.14551z
			 M930.02441,1285.35449c-1.0249-1.06836-2.27295-1.60254-3.74512-1.60254s-2.72119,0.52734-3.74512,1.58008
			c-1.02539,1.05469-1.53711,2.50488-1.53711,4.35156c0,1.84766,0.51172,3.3125,1.53711,4.39551
			c1.02393,1.08203,2.27295,1.62305,3.74512,1.62305s2.72021-0.5332,3.74512-1.60156
			c1.02441-1.06738,1.53711-2.52539,1.53711-4.37305S931.04883,1286.42188,930.02441,1285.35449z"/>
		<path class="st4" d="M965.83203,1280.13672c1.68896,1.83301,2.5332,4.35156,2.5332,7.55566v14.11523h-7.36084v-13.11914
			c0-1.61621-0.41895-2.87207-1.25586-3.76758c-0.8374-0.89453-1.96289-1.3418-3.37695-1.3418
			c-1.41455,0-2.54053,0.44727-3.37744,1.3418c-0.8374,0.89551-1.25586,2.15137-1.25586,3.76758v13.11914h-7.40381v-24.16113
			h7.40381v3.2041c0.75049-1.06738,1.76074-1.91113,3.03125-2.53223c1.26953-0.62109,2.69873-0.93164,4.28662-0.93164
			C961.88477,1277.38672,964.14355,1278.30371,965.83203,1280.13672z"/>
		<path class="st4" d="M973.58252,1283.14551c1.02441-1.87598,2.45312-3.31836,4.28662-4.3291
			c1.83252-1.01074,3.93262-1.51562,6.2998-1.51562c3.03076,0,5.56396,0.79395,7.59912,2.38086
			c2.03516,1.58789,3.36963,3.8252,4.00488,6.71191h-7.88037c-0.66406-1.84766-1.94824-2.77148-3.85352-2.77148
			c-1.35693,0-2.43945,0.52734-3.24756,1.58008c-0.80811,1.05469-1.21191,2.5625-1.21191,4.52539s0.40381,3.4707,1.21191,4.52441
			s1.89062,1.58008,3.24756,1.58008c1.90527,0,3.18945-0.92285,3.85352-2.77051h7.88037
			c-0.63525,2.8291-1.97754,5.05176-4.02686,6.66797c-2.0498,1.61719-4.5752,2.4248-7.57715,2.4248
			c-2.36719,0-4.46729-0.50488-6.2998-1.51562c-1.8335-1.00977-3.26221-2.45312-4.28662-4.33008
			c-1.0249-1.87598-1.53711-4.07031-1.53711-6.58105C972.04541,1287.21582,972.55762,1285.02246,973.58252,1283.14551z"/>
		<path class="st4" d="M999.64795,1283.14551c0.9375-1.87598,2.21533-3.31836,3.83252-4.3291
			c1.61621-1.01074,3.41992-1.51562,5.41211-1.51562c1.70312,0,3.19629,0.3457,4.48145,1.03906
			c1.28418,0.69238,2.27344,1.60156,2.96582,2.72754v-3.4209h7.4043v24.16113h-7.4043v-3.4209
			c-0.72168,1.12598-1.72559,2.03516-3.00977,2.72852c-1.28418,0.69238-2.77832,1.03906-4.48145,1.03906
			c-1.96289,0-3.75195-0.5127-5.36816-1.53711c-1.61719-1.02441-2.89502-2.48242-3.83252-4.37305
			c-0.93848-1.89062-1.40723-4.07715-1.40723-6.56055C998.24072,1287.20215,998.70947,1285.02246,999.64795,1283.14551z
			 M1014.80273,1285.35449c-1.02539-1.06836-2.27344-1.60254-3.74512-1.60254c-1.47266,0-2.72168,0.52734-3.74512,1.58008
			c-1.02539,1.05469-1.53711,2.50488-1.53711,4.35156c0,1.84766,0.51172,3.3125,1.53711,4.39551
			c1.02344,1.08203,2.27246,1.62305,3.74512,1.62305c1.47168,0,2.71973-0.5332,3.74512-1.60156
			c1.02441-1.06738,1.53711-2.52539,1.53711-4.37305S1015.82715,1286.42188,1014.80273,1285.35449z"/>
		<path class="st4" d="M1029.65332,1273.98828c-0.82227-0.76465-1.2334-1.70996-1.2334-2.83594
			c0-1.1543,0.41113-2.11426,1.2334-2.87988c0.82324-0.76465,1.88379-1.14746,3.18262-1.14746
			c1.27051,0,2.31641,0.38281,3.13965,1.14746c0.82227,0.76562,1.2334,1.72559,1.2334,2.87988
			c0,1.12598-0.41113,2.07129-1.2334,2.83594c-0.82324,0.76465-1.86914,1.14746-3.13965,1.14746
			C1031.53711,1275.13574,1030.47656,1274.75293,1029.65332,1273.98828z M1036.5166,1277.64648v24.16113h-7.4043v-24.16113
			H1036.5166z"/>
		<path class="st4" d="M1052.53711,1278.53418c1.29883-0.76367,2.74219-1.14746,4.33008-1.14746v7.83789h-2.03516
			c-1.84766,0-3.2334,0.39648-4.15723,1.19043s-1.38574,2.18652-1.38574,4.17773v11.21484h-7.40332v-24.16113h7.40332v4.02734
			C1050.15527,1280.34668,1051.23828,1279.2998,1052.53711,1278.53418z"/>
		<path class="st4" d="M1083.0625,1291.50293h-16.75684c0.11523,1.50098,0.59863,2.64844,1.4502,3.44141
			c0.85156,0.79492,1.89844,1.19141,3.13965,1.19141c1.84668,0,3.13184-0.7793,3.85352-2.33887h7.88086
			c-0.40527,1.58789-1.13379,3.01758-2.1875,4.28711c-1.05371,1.27051-2.37402,2.2666-3.96094,2.9873
			c-1.58789,0.72168-3.36328,1.08301-5.32617,1.08301c-2.36719,0-4.47461-0.50488-6.32129-1.51562
			c-1.84766-1.00977-3.29102-2.45312-4.33008-4.33008c-1.03906-1.87598-1.55859-4.07031-1.55859-6.58105
			c0-2.51172,0.51172-4.70508,1.53711-6.58203c1.02441-1.87598,2.45996-3.31836,4.30762-4.3291s3.96875-1.51562,6.36523-1.51562
			c2.33789,0,4.41602,0.49121,6.23535,1.47168c1.81836,0.98145,3.23926,2.38184,4.26465,4.2002
			c1.02441,1.81836,1.53711,3.94043,1.53711,6.36523C1083.19238,1290.03027,1083.14941,1290.75195,1083.0625,1291.50293z
			 M1075.61523,1287.38867c0-1.26953-0.43359-2.2793-1.29883-3.03027c-0.86621-0.75-1.94922-1.12598-3.24805-1.12598
			c-1.24121,0-2.28809,0.36133-3.13867,1.08203c-0.85156,0.72266-1.37891,1.74707-1.58105,3.07422H1075.61523z"/>
	</g>
	<rect x="1663.66455" y="630.52832" class="st21" width="196.0802" height="75.11092"/>
	<g>
		<path class="st4" d="M1741.85254,649.82812l-7.92383,30.39551h-8.96289l-4.84961-20.00391l-5.02246,20.00391h-8.96289
			l-7.70703-30.39551h7.92383l4.37305,22.125l5.41211-22.125h8.14062l5.19531,22.125l4.41699-22.125H1741.85254z"/>
		<path class="st4" d="M1745.51074,661.56152c0.9375-1.87598,2.21484-3.31836,3.83203-4.3291
			c1.61621-1.01074,3.4209-1.51562,5.41211-1.51562c1.70312,0,3.19727,0.3457,4.48145,1.03906
			c1.28418,0.69238,2.27344,1.60156,2.96582,2.72754v-3.4209h7.4043v24.16113h-7.4043v-3.4209
			c-0.72168,1.12598-1.72461,2.03516-3.00879,2.72852c-1.28516,0.69238-2.77832,1.03906-4.48145,1.03906
			c-1.96289,0-3.75293-0.5127-5.36914-1.53711c-1.61719-1.02441-2.89453-2.48242-3.83203-4.37305
			c-0.93848-1.89062-1.40723-4.07715-1.40723-6.56055C1744.10352,665.61816,1744.57227,663.43848,1745.51074,661.56152z
			 M1760.66504,663.77051c-1.02441-1.06836-2.27246-1.60254-3.74512-1.60254c-1.47168,0-2.7207,0.52734-3.74512,1.58008
			c-1.02539,1.05469-1.53711,2.50488-1.53711,4.35156c0,1.84766,0.51172,3.3125,1.53711,4.39551
			c1.02441,1.08203,2.27344,1.62305,3.74512,1.62305c1.47266,0,2.7207-0.5332,3.74512-1.60156
			c1.02441-1.06738,1.53711-2.52539,1.53711-4.37305S1761.68945,664.83789,1760.66504,663.77051z"/>
		<path class="st4" d="M1785.84277,673.2959l5.23926-17.2334h7.87988l-8.57324,24.16113h-9.13574l-8.57324-24.16113h7.92383
			L1785.84277,673.2959z"/>
		<path class="st4" d="M1824.72461,669.91895h-16.75586c0.11426,1.50098,0.59863,2.64844,1.4502,3.44141
			c0.85059,0.79492,1.89746,1.19141,3.13867,1.19141c1.84766,0,3.13184-0.7793,3.85449-2.33887h7.87988
			c-0.4043,1.58789-1.13281,3.01758-2.18652,4.28711c-1.05371,1.27051-2.375,2.2666-3.96191,2.9873
			c-1.58789,0.72168-3.36328,1.08301-5.3252,1.08301c-2.36816,0-4.47559-0.50488-6.32227-1.51562
			c-1.84766-1.00977-3.29102-2.45312-4.33008-4.33008c-1.03906-1.87598-1.55859-4.07031-1.55859-6.58105
			c0-2.51172,0.5127-4.70508,1.53711-6.58203c1.02441-1.87598,2.46094-3.31836,4.30859-4.3291
			c1.84668-1.01074,3.96875-1.51562,6.36523-1.51562c2.33789,0,4.41602,0.49121,6.23438,1.47168
			c1.81836,0.98145,3.24023,2.38184,4.26465,4.2002s1.53711,3.94043,1.53711,6.36523
			C1824.85449,668.44629,1824.81152,669.16797,1824.72461,669.91895z M1817.27734,665.80469
			c0-1.26953-0.43262-2.2793-1.29883-3.03027c-0.86621-0.75-1.94824-1.12598-3.24707-1.12598
			c-1.24121,0-2.28809,0.36133-3.13965,1.08203c-0.85156,0.72266-1.37891,1.74707-1.58008,3.07422H1817.27734z"/>
	</g>
</g>
</svg>
