<?xml version="1.0" encoding="utf-8"?>
<!-- Generator: Adobe Illustrator 25.2.1, SVG Export Plug-In . SVG Version: 6.00 Build 0)  -->
<svg version="1.1" xmlns="http://www.w3.org/2000/svg" xmlns:xlink="http://www.w3.org/1999/xlink" x="0px" y="0px"
	 viewBox="0 0 2000 1500" style="enable-background:new 0 0 2000 1500;" xml:space="preserve">
<style type="text/css">
	.st0{fill:url(#SVGID_1_);}
	.st1{fill:url(#SVGID_2_);fill-opacity:0.71;}
	.st2{fill:#F2F2F2;stroke:#58D6C8;stroke-width:5;stroke-linecap:round;stroke-linejoin:round;stroke-miterlimit:10;}
	.st3{fill:none;stroke:#58D6C8;stroke-width:5;stroke-linecap:round;stroke-linejoin:round;stroke-miterlimit:10;}
	.st4{fill:#CAE4EA;}
	.st5{fill:none;stroke:#009DD1;stroke-width:5;stroke-linecap:round;stroke-linejoin:round;stroke-miterlimit:10;}
	.st6{fill:#58D6C8;}
	.st7{fill:#CAE4EA;stroke:#58D6C8;stroke-width:5;stroke-linecap:round;stroke-linejoin:round;stroke-miterlimit:10;}
	.st8{fill:none;stroke:#009DD1;stroke-width:2.8699;stroke-linecap:round;stroke-linejoin:round;stroke-miterlimit:10;}
	.st9{fill:#AFC5C9;}
	.st10{fill:#E4ECED;stroke:#58D6C8;stroke-width:5;stroke-linecap:round;stroke-linejoin:round;stroke-miterlimit:10;}
	.st11{fill:none;stroke:#58D6C8;stroke-width:2.587;stroke-linecap:round;stroke-linejoin:round;stroke-miterlimit:10;}
	.st12{fill:#AFC5C9;stroke:#58D6C8;stroke-width:2.4429;stroke-linecap:round;stroke-linejoin:round;stroke-miterlimit:10;}
	.st13{clip-path:url(#SVGID_4_);fill:#3A1E13;}
	.st14{clip-path:url(#SVGID_4_);}
	.st15{fill:#110F0F;}
	.st16{clip-path:url(#SVGID_4_);fill:#000B26;}
	.st17{clip-path:url(#SVGID_4_);fill:#110F0F;}
	.st18{clip-path:url(#SVGID_4_);fill:#004F69;}
	.st19{fill:#000B26;}
	.st20{clip-path:url(#SVGID_4_);fill:none;stroke:#110F0F;stroke-width:0.8373;stroke-miterlimit:10;}
	.st21{clip-path:url(#SVGID_4_);fill:none;stroke:#009DD1;stroke-width:2;stroke-miterlimit:10;}
	.st22{clip-path:url(#SVGID_4_);fill:#009DD1;}
	.st23{fill:#004F69;}
	.st24{display:none;}
	.st25{display:inline;fill:#009DD1;}
	.st26{display:inline;fill:#004F69;}
	.st27{display:inline;fill:#000B26;}
	.st28{display:inline;fill:#3A1E13;}
	.st29{display:inline;fill:#110F0F;}
	.st30{display:inline;fill:#8E4332;}
	.st31{display:inline;fill:#85FFC2;}
	.st32{display:inline;fill:#F2F2F2;}
	.st33{display:inline;fill:#999999;}
	.st34{display:inline;fill:#727271;}
	.st35{display:inline;fill:#CAE4EA;}
	.st36{display:inline;fill:#AFC5C9;}
	.st37{display:inline;fill:#424241;}
</style>
<g id="Calque_4">
	<linearGradient id="SVGID_1_" gradientUnits="userSpaceOnUse" x1="986.3687" y1="68.5623" x2="986.3687" y2="1374.8597">
		<stop  offset="0" style="stop-color:#FFFFFF;stop-opacity:0"/>
		<stop  offset="1" style="stop-color:#CAE4EA"/>
	</linearGradient>
	<polygon class="st0" points="86.1273,877.5131 522.7167,1387.6799 1886.61,918.3196 1886.61,95.9377 90.085,95.9377 	"/>
	<linearGradient id="SVGID_2_" gradientUnits="userSpaceOnUse" x1="23.5385" y1="962.3408" x2="1826.6727" y2="962.3408">
		<stop  offset="0.0448" style="stop-color:#AFC5C9;stop-opacity:0"/>
		<stop  offset="0.1113" style="stop-color:#A3B6B9;stop-opacity:0.073"/>
		<stop  offset="0.2017" style="stop-color:#98A8AB;stop-opacity:0.1723"/>
		<stop  offset="0.3123" style="stop-color:#92A0A2;stop-opacity:0.2938"/>
		<stop  offset="0.5" style="stop-color:#909EA0;stop-opacity:0.5"/>
		<stop  offset="0.6455" style="stop-color:#94A3A5;stop-opacity:0.3521"/>
		<stop  offset="0.8267" style="stop-color:#A0B2B5;stop-opacity:0.1679"/>
		<stop  offset="0.9919" style="stop-color:#AFC5C9;stop-opacity:0"/>
	</linearGradient>
	<ellipse class="st1" cx="925.1057" cy="962.3408" rx="901.5671" ry="73.3521"/>
	<path class="st2" d="M782.9354,919.79H407.202c-6.7991,0-12.3109-5.5118-12.3109-12.3109V299.9092
		c0-6.7991,5.5117-12.3109,12.3109-12.3109h375.7333c6.7991,0,12.3109,5.5117,12.3109,12.3109v607.5699
		C795.2462,914.2782,789.7345,919.79,782.9354,919.79z"/>
	<line class="st3" x1="395.8629" y1="558.3382" x2="795.2462" y2="558.3382"/>
	<line class="st3" x1="436.653" y1="396.692" x2="436.653" y2="514.106"/>
	<line class="st3" x1="436.653" y1="599.4228" x2="436.653" y2="716.8369"/>
	<line class="st4" x1="380.5183" y1="636.511" x2="457.2351" y2="636.511"/>
	<g>
		<polygon class="st5" points="1231.6426,358.707 1171.5225,358.707 1171.5225,525.207 1036.6326,525.207 1036.6326,358.707 
			976.5024,358.707 1040.2925,272.377 1104.0725,186.047 1167.8625,272.377 		"/>
		<path class="st6" d="M1137.3116,352.1787c-0.7059-0.2554-1.337-0.4957-1.983-0.4807c-3.3652,0.0451-6.8055,0.2254-10.1256,0.3906
			l-1.7876,0.0901c-2.0431,0.1052-3.1099-0.7962-3.5754-2.9145c-0.5107-2.3135-1.2318-5.3332-2.3586-8.1725
			c-2.5089-6.3547-6.52-10.5912-11.5677-12.2287c-5.0477-1.6375-10.7866-0.5558-16.5853,3.1247
			c-5.4536,3.4554-10.0806,8.2777-14.9929,15.5939c-0.9918,1.4723-2.6742,2.8544-4.4771,3.6957
			c-2.3585,1.0966-4.8075,2.1033-7.1659,3.0647c-2.1785,0.8864-4.4169,1.8028-6.5802,2.7943
			c-1.2019,0.5408-2.3136,1.5774-2.7042,2.5088c-0.7512,1.8177,1.2921,5.5735,3.9813,7.3313
			c2.0428,1.337,3.6956,1.0816,5.7086-0.9015c1.8179-1.7577,3.6958-3.4703,5.6787-5.2731c0.8864-0.8112,1.7878-1.6375,2.7341-2.4938
			l0.8263-0.7662l0.3906,1.0667c0.4658,1.2769,0.9164,2.5239,1.3671,3.7257c1.0066,2.7342,1.968,5.3182,2.7944,7.9473
			c0.6309,2.028,1.7274,2.7491,3.5454,2.3736c1.6675-0.3455,3.5604-0.7811,4.9875-1.7276c1.5624-1.0215,2.4038-1.9981,2.5538-2.9897
			c0.1654-1.0215-0.3606-2.2384-1.6222-3.8008c-2.8998-3.5755-5.5437-6.7003-8.0826-9.5697
			c-1.5474-1.7427-1.5923-3.3351-0.1201-4.8975c0.9314-0.9615,1.8179-1.968,2.7191-2.9745
			c2.0734-2.3286,4.2216-4.7323,6.6853-6.6853c2.4939-1.968,5.9042-3.5905,9.5697-4.567c2.2384-0.5859,4.4316-0.1953,6.1744,1.1117
			c1.8478,1.3671,2.9597,3.5755,3.0497,6.0392l0.0299,0.7212l-0.7211,0.0601c-2.043,0.1652-3.2899,0.2704-3.6805,0.7361
			c-0.4208,0.4807-0.4208,1.8329-0.4056,4.0863v0.1953c0.1654,1.292-0.0452,2.2534-0.661,2.8994
			c-0.646,0.6761-1.6376,0.9615-3.0497,0.8712c-4.4016-0.3004-7.9923-0.4807-11.3124-0.5558
			c-0.8562-0.03-1.7275,0.1052-2.8392,0.2555c-0.2256,0.045-0.4658,0.0751-0.7212,0.1052c0.1051,0.1952,0.2103,0.3605,0.3156,0.5258
			c0.4807,0.8112,0.8562,1.4422,1.2767,1.9981c1.3073,1.7577,2.629,3.5154,3.9513,5.2731
			c2.6591,3.5154,5.3932,7.1509,8.0222,10.7865c0.6912,0.9465,0.7662,2.8694,0.1653,3.7857
			c-1.322,2.0432-1.6826,4.0412-1.0065,5.6487c0.676,1.5924,2.3435,2.7342,4.717,3.1999c1.0967,0.2254,2.3888,1.322,2.8545,2.4638
			c0.5107,1.2469,0.7361,2.5989,0.9614,3.9059c0.0602,0.3906,0.1354,0.7812,0.2103,1.1718
			c0.1953,1.0065,0.0751,1.8028-0.3755,2.4187c-0.4657,0.661-1.262,1.0516-2.4489,1.2169
			c-3.6956,0.5258-7.2261,1.1418-10.5161,1.8478c-0.6309,0.1353-1.2621,0.5409-1.923,0.9615c-0.015,0-0.03,0.015-0.0602,0.0301
			l2.3738-0.015c2.599,0,5.1829-0.015,7.7668,0.015c5.0328,0.0751,6.2797,2.659,6.9408,7.6918c0.1801,1.4572,0,2.5239-0.6012,3.26
			c-0.796,0.9916-2.103,1.0966-3.2448,1.2018c-0.5409,0.0301-1.0365,0.0752-1.4723,0.1953l-0.8865,0.2254
			c-1.2018,0.3155-2.4486,0.6309-3.5603,1.1117c-0.3304,0.1352-0.631,0.3906-0.9467,0.6911
			c2.1785,0.3154,4.2216,0.3305,6.2047,0.3605h0.5406c2.8696,0.0301,4.4169,1.5023,4.7325,4.522
			c0.2251,2.1031-0.0151,4.3266-3.5757,4.8674c-1.908,0.3005-3.7257,0.5859-4.9276,2.4037h0.6761
			c1.2919-0.015,2.4788-0.015,3.6506,0c1.9679,0.0301,3.4702,0.7361,4.2365,1.9981c0.5708,0.9465,0.6912,2.1332,0.3457,3.3952
			l3.0344,1.0065c0-0.0751,0.015-0.1351,0.015-0.2103c0.0601-0.676,0.1201-1.2769,0.1201-1.8779c0-3.5454,0-7.0908-0.015-10.6213
			c0-9.164-0.015-18.6135,0.0602-27.9278c0.015-1.5173,0.7963-3.3651,1.923-4.582c5.3333-5.7388,6.9707-17.8323,3.29-24.4275
			c-0.5708-1.0065-1.5774-2.2685-2.7041-2.7793c-2.1785-0.9614-3.0497-2.3886-2.8394-4.627
			c0.0602-0.5108,0.1501-1.4573-0.1052-1.8628c-0.2704-0.4357-0.9614-0.8714-1.5924-1.0216c-0.1653,0-0.6761,0.3005-0.7963,0.5108
			c-0.4506,0.7512-0.4506,2.5839,0.015,4.2365c0.3307,1.2018,0.8563,2.1332,1.3822,2.4187
			c3.0497,1.6826,3.2749,4.3417,3.2299,6.7003c0,0.1201,0.015,0.2403,0.015,0.3605l0.015,0.1953
			c0.1204,3.6055,0.1204,3.6055,3.7407,4.1163l-0.1951,1.4873c-1.2471-0.1352-2.1334,0.0301-2.6892,0.5108
			c-0.6459,0.5558-0.9615,1.6224-1.0215,3.4553c-0.0602,2.013-0.2706,3.9811-0.4958,6.0693
			c-0.1053,0.9314-0.1953,1.8628-0.2854,2.8394l-0.1654,1.7426l-1.1567-1.322c-0.0901-0.1052-0.1802-0.1804-0.2554-0.2554
			c-0.2103-0.2103-0.4808-0.4657-0.4958-0.8863c-0.1051-2.4638-0.1951-4.9276-0.2853-7.3914
			c-0.1503-3.8608-0.3004-7.7067-0.4658-11.5677c-0.0601-1.1718-0.2554-1.6526-0.3154-1.7277
			c-3.6805-1.7727-4.1615-5.1079-4.3267-8.3678c-0.0149-0.1953-0.0299-0.3906-0.0449-0.5859s-0.0302-0.4055-0.0452-0.6009
			c-0.1804-3.0347-0.2554-4.4168,0.6309-5.2581c0.8564-0.8263,2.2686-0.6761,5.078-0.3906c0.1049,0.015,0.2402-0.015,0.4506-0.0451
			c0.015,0,0.015,0,0.0299-0.015c0.1354-3.4854-1.0065-6.6402-3.41-9.3894c-2.7793-3.1849-6.2496-4.2816-10.2908-3.26
			c-5.4834,1.3822-9.5698,4.9276-12.8297,8.2176c-0.8715,0.8714-1.6976,1.7577-2.5238,2.659
			c-1.7279,1.8479-3.5155,3.7708-5.5887,5.4534l-4.8223,3.906l3.7407-4.9426c0.5258-0.676,1.0366-1.3821,1.5472-2.0731
			c1.0968-1.5023,2.2385-3.0497,3.4703-4.5069c4.2216-4.9276,9.5847-10.2457,17.3667-12.364
			c5.799-1.5924,10.9519,0.1803,14.5122,4.9576l0.1202,0.1503c0.4508,0.6009,0.9314,1.2319,1.277,1.953
			c1.307,2.6591,2.3885,5.4534,3.4253,8.1575c1.3521,3.5305,2.7491,7.1811,4.6871,10.5312
			c2.7042,4.6721,1.1719,9.9603-0.1654,14.6324l-0.15,0.5558c-2.8546,9.9603-4.3717,20.1909-5.2881,30.4216
			c0.1652-0.3756,0.3755-0.7512,0.6007-1.0816c1.3672-2.0131,3.7407-3.1849,6.5201-3.1999c2.4636-0.0301,4.9426-0.015,7.4213-0.015
			h2.2836c-0.6007-0.3906-1.1869-0.7662-1.7726-0.9164c-3.1099-0.7963-5.5286-1.277-7.7971-1.5624
			c-0.5858-0.0751-1.0966-0.1352-1.5623-0.1953c-2.0884-0.2253-3.2301-0.3605-3.861-1.2169
			c-0.7061-0.9614-0.4508-2.2985,0.1652-5.5134l0.0601-0.2855c0.4357-2.2985,1.0968-4.2515,4.6122-4.7022
			c1.6376-0.2103,2.9895-1.2468,3.6206-2.7792c0.661-1.6075,0.4054-3.3952-0.6611-4.7924
			c-1.8629-2.4037-0.9613-3.9811,0.2104-5.5134c4.7172-6.1595,8.3378-10.9368,11.7029-15.4887
			c0.3455-0.4657,0.5708-1.0817,0.796-1.7427c0.0302-0.0601,0.0452-0.1352,0.0752-0.1953
			C1137.5221,352.2389,1137.417,352.2088,1137.3116,352.1787z M1100.415,381.8793c-2.1632-0.7361-3.3201-1.6375-3.6505-2.8394
			c-0.3154-1.1718,0.2102-2.4938,1.6676-4.1764l0.9014-1.0366l2.4487,8.503L1100.415,381.8793z M1104.5164,378.2588l0.1654,1.2018
			c0.2552,1.8328,0.5408,3.6506,0.8263,5.4684l0.3304,2.0431l-1.4872,0.2704c-0.541-2.6742-1.2471-5.3933-1.9381-8.0374
			c-1.8328-7.0457-3.7407-14.347-2.9745-22.2791l0.1801-1.8479l1.1569,1.4573c2.7643,3.4553,2.8844,6.4599,2.7643,9.4645
			C1103.3745,370.0411,1103.9607,374.2325,1104.5164,378.2588z M1124.377,378.9799c-0.3157,1.2018-1.4424,2.0882-3.4854,2.7191
			l-1.2621,0.3906l1.9832-8.1575l0.9463,0.9614C1124.0763,376.4409,1124.6772,377.778,1124.377,378.9799z M1098.6875,377.0118
			l0.8262,2.8694c-0.7511-0.3906-1.1716-0.7962-1.2919-1.2319C1098.1014,378.2287,1098.2668,377.6879,1098.6875,377.0118z
			 M1122.4089,377.0269c0.4355,0.631,0.6008,1.1718,0.5106,1.5924c-0.1051,0.4056-0.5106,0.7962-1.1716,1.1418L1122.4089,377.0269z
			 M1111.7729,353.2255c0.0968-0.9932,0.1508-2.0277-0.3367-2.8075c-0.5535-0.8808-1.6608-1.4785-2.5128-1.6807
			c-0.8339-0.2037-2.0277,0.4951-2.4464,1.2052c-0.7635,1.2969-0.621,3.6429-0.1409,5.3931
			c0.2643,0.9618,0.8885,2.6754,2.1058,3.3443c2.1193,1.1649,2.5009,2.7801,2.4642,5.3534
			c-0.0029,0.1558,0.0044,0.3115,0.0117,0.4673l0.0073,0.1681c0.1071,2.9452,0.2628,4.1277,1.5731,4.7707
			c-0.0632,0.0481-0.1266,0.0986-0.1866,0.1507c-1.2823,1.1082-1.4996,3.0183-1.5453,4.5593
			c-0.0176,0.6312-0.0525,1.2614-0.0983,1.8957c-0.0146-0.3723-0.0277-0.7436-0.0422-1.1159
			c-0.147-3.8616-0.2922-7.7226-0.4642-11.5826c-0.0988-2.2319-0.6698-2.7615-1.0896-2.9658
			c-3.0121-1.4641-3.3911-4.0982-3.551-7.1378c-0.012-0.2125-0.0294-0.4249-0.0486-0.6374l-0.0426-0.5549
			c-0.123-2.1618-0.2128-3.7233,0.1643-4.0827c0.1561-0.1501,0.5172-0.2069,1.04-0.2069c0.6974,0,1.6858,0.1027,2.8608,0.2244
			c0.2789,0.0252,0.5314-0.015,0.8529-0.0686c0.156-0.0258,0.3436-0.0588,0.5817-0.0898l0.6023-0.0794l0.0483-0.6055
			c0.3364-4.1441-0.9194-7.8763-3.7345-11.0921c-3.1472-3.5991-7.2267-4.8898-11.7996-3.7352
			c-2.7257,0.689-5.1431,1.8994-7.274,3.3217c2.4482-1.7478,5.2161-3.1958,8.3972-4.0643
			c5.2397-1.4284,9.7059,0.0919,12.9233,4.4026l0.1144,0.1542c0.4348,0.5796,0.8447,1.1267,1.1337,1.7147
			c1.2792,2.6007,2.3397,5.3622,3.3663,8.0331c1.377,3.5851,2.8018,7.2935,4.7988,10.7549
			c2.2997,3.9868,1.0897,8.574-0.1893,13.0379c0.0321-3.662-0.6682-7.1832-2.191-9.9107c-0.8842-1.5879-2.1573-2.8668-3.4041-3.4206
			C1112.1267,355.6302,1111.6171,354.8149,1111.7729,353.2255z M1102.0376,365.9398c-0.0902,2.1333,0.0151,4.2816,0.2252,6.4298
			c-0.9463-4.2514-1.6224-8.5931-1.4722-13.1151C1102.0677,361.5681,1102.1279,363.6864,1102.0376,365.9398z M1112.5732,433.7735
			l0.3345,0.016c-1.3684,0.178-2.7987,0.2016-4.1442,0.0727c-0.6034-0.0588-2.4365-0.2372-2.7079-0.725
			c-0.2714-0.4889,0.5612-2.1742,0.8357-2.7275c0.1702-0.344,0.3081-0.6838,0.4154-1.0175v0.7499
			c0,0.3548-0.0101,0.7565-0.0188,1.1335c-0.037,1.5533-0.0502,2.0772,0.6899,2.1669
			C1109.5273,433.6357,1111.0753,433.7054,1112.5732,433.7735z M1114.4937,430.8278c0.8021,1.4269,0.8433,1.9844,0.7361,2.1989
			c-0.072,0.1454-0.3026,0.328-0.9224,0.4992l-0.0602-0.5446c-0.0895-0.8065-0.1952-1.5233-0.2909-2.1804
			c-0.0997-0.6827-0.1877-1.2861-0.2391-1.8498C1113.8711,429.553,1114.1312,430.1832,1114.4937,430.8278z M1126.1204,411.7924
			c0.0562,0.0427,0.1102,0.0855,0.1647,0.1278l-1.4891-0.0061c-1.8273-0.0103-3.6525-0.0206-5.4733,0.0237
			c-3.0648,0.0763-4.5953,1.316-5.118,4.2307c0.1705-3.3273,0.3657-6.6659,0.6139-10.0076
			c0.0972,0.4301,0.2275,0.8622,0.3933,1.2923c0.3776,0.9787,1.7744,1.4867,2.5717,1.7028c0.9795,0.264,1.9723,0.4744,2.9666,0.6838
			c1.2174,0.2579,2.4758,0.524,3.6642,0.8912C1124.9871,410.9073,1125.5376,411.3375,1126.1204,411.7924z M1111.9358,430.0646
			c0.066-0.7261,0.1232-1.3707,0.1232-2.0143c0-3.5449-0.0042-7.0898-0.0085-10.6348c-0.0134-9.1474-0.0266-18.6053,0.057-27.9049
			c0.0103-1.134,0.6506-2.6357,1.5216-3.5723c1.0337-1.1128,1.9381-2.431,2.7035-3.8842
			c-2.7949,14.4803-3.4435,29.2556-4.0751,43.6415l-0.084,1.8947c-0.0468,1.0892,0.1115,2.1732,0.2952,3.4279
			c0.0575,0.3935,0.1176,0.8091,0.1765,1.2536h-0.0048c-1.2656-0.0577-2.5697-0.1165-3.8633-0.2516
			c0.0026-0.2248,0.0084-0.4868,0.0146-0.7091c0.0011-0.0438,0.0011-0.0892,0.0026-0.1336l2.9755,0.985l0.0704-0.9633
			C1111.8698,430.7938,1111.9034,430.4193,1111.9358,430.0646z M1122.6619,423.7504h-0.5312
			c-1.1986,0.002-2.2836,0.0041-3.3705-0.0031c-2.2219-0.0093-3.9373,0.7169-4.729,2.0602c-0.1245,0.214-0.2261,0.4388-0.3022,0.675
			l0.0309-0.72c0.1071-2.4237,0.2129-4.8558,0.3302-7.2976c0.2233,1.5445,1.238,2.3944,3.2032,2.7584l0.2931,0.0536
			C1119.4973,421.6267,1121.3182,421.9594,1122.6619,423.7504z"/>
	</g>
	<g>
		<rect x="201.7559" y="649.4734" class="st7" width="469.7942" height="270.8608"/>
		<polyline class="st3" points="426.9022,923.8527 426.9022,976.0488 324.8362,976.0488 		"/>
		<line class="st2" x1="523.5876" y1="976.0488" x2="426.9022" y2="976.0488"/>
	</g>
	<g>
		<path class="st8" d="M693.7687,740.7614h-72.3542l8.1443-37.2111c2.543-13.4778,14.3172-23.2382,28.0328-23.2382h0.0001
			c13.7156,0,25.4898,9.7604,28.0328,23.2382L693.7687,740.7614z"/>
		<path class="st9" d="M787.1301,1005.2044H530.4996c-4.983,0-8.7888-4.2349-8.0162-8.9201l42.0219-254.8548
			c0.6195-3.757,4.0205-6.5256,8.0162-6.5256h172.5867c3.9957,0,7.3967,2.7686,8.0162,6.5256l42.0219,254.8548
			C795.9189,1000.9695,792.1131,1005.2044,787.1301,1005.2044z"/>
	</g>
	<g>
		<path class="st3" d="M1548.4154,573.1891h-56.0504l-64.3987,221.453l6.015,24.9478c2.2627,9.3846-4.8488,18.4145-14.5023,18.4145
			h-209.1261"/>
		<polygon class="st10" points="1427.9663,794.6421 1210.3529,764.0712 1183.2006,626.4408 1476.4203,626.4408 		"/>
		<line class="st3" x1="1453.6548" y1="706.3051" x2="1198.8168" y2="706.3051"/>
		<line class="st3" x1="1283.6371" y1="626.4408" x2="1283.6371" y2="772.5723"/>
		<line class="st3" x1="1366.5228" y1="626.4408" x2="1366.5228" y2="784.1038"/>
		<circle class="st3" cx="1242.8661" cy="902.0145" r="32.2726"/>
		<circle class="st3" cx="1427.7651" cy="902.0145" r="32.2726"/>
	</g>
	<g>
		<path class="st9" d="M976.5024,700.4458v208.1741h340.5291V700.4458c0-4.9019-3.9738-8.8755-8.8756-8.8755H985.378
			C980.4761,691.5703,976.5024,695.5439,976.5024,700.4458z M1288.3032,871.3905h-290.222V709.4684h290.222V871.3905z"/>
		<path class="st4" d="M1288.3032,713.1379v158.2526h-290.222V713.1379c0-2.0267,1.6429-3.6696,3.6695-3.6696h282.883
			C1286.6603,709.4684,1288.3032,711.1113,1288.3032,713.1379z"/>
		<path class="st11" d="M1399.3796,950.4507v21.028l-474.4025,1.1531l0.1285-22.2498l474.1968-0.0002
			C1399.3451,950.3818,1399.3796,950.4127,1399.3796,950.4507z"/>
		<path class="st12" d="M1317.0276,908.6166l82.3259,41.6423c0.0511,0.0406,0.0223,0.123-0.043,0.123H925.1057l47.0924-41.7653
			H1317.0276z"/>
	</g>
</g>
<g id="perso">
	<g>
		<defs>
			<polygon id="SVGID_3_" points="86.1273,877.5131 522.7167,1387.6799 1886.61,918.3196 1886.61,95.9377 85.1608,109.1559 			"/>
		</defs>
		<clipPath id="SVGID_4_">
			<use xlink:href="#SVGID_3_"  style="overflow:visible;"/>
		</clipPath>
		<path class="st13" d="M773.441,546.9531c-0.9514-2.7985-3.0774-4.8324-6.0099-4.8281c-1.4199,0.002-2.887,0.1608-4.1408,0.8793
			c-1.0587,0.6068-1.8723,1.558-2.6142,2.5268c-2.4743,3.231-4.3914,6.8836-5.671,10.7457
			c-1.0894,3.288-1.8134,6.4328-0.9787,9.8289c0.7356,2.9932,0.0687,6.243,1.2532,9.1163c0.3036,0.7364,0.5894,1.311,0.7497,2.1132
			c0.3389,1.6955,0.8048,3.3652,1.3867,4.9933c1.1645,3.2585,2.7925,6.348,4.7952,9.1686
			c4.0041,5.6393,9.5255,10.2305,15.8961,12.955c0.9233,0.3949,1.8635,0.7501,2.8175,1.0633"/>
		<g class="st14">
			<path class="st15" d="M765.5841,550.7961c-1.4037,3.225-1.8161,6.7347-1.7514,10.1889
				c0.0913,3.4662,0.5778,6.9174,1.0775,10.3745c0.5094,3.4479,1.074,6.8826,2.1872,10.1567
				c1.0756,3.2887,2.7631,6.3586,4.5599,9.3647c-1.0874-1.3755-2.0836-2.824-2.9999-4.3294
				c-0.8913-1.5191-1.6794-3.1085-2.3265-4.7592c-1.2798-3.3166-1.9147-6.8237-2.3947-10.2935
				c-0.4705-3.4677-0.9263-6.9762-0.8214-10.5161C763.1882,557.4654,763.8407,553.8617,765.5841,550.7961z"/>
		</g>
		<path class="st16" d="M1051.8954,589.2828c0,0,6.9316-5.3917,12.7444-2.9221c5.8127,2.4695,4.6482,8.0175,4.6482,8.0175
			l-8.6487,5.8856l-7.452-2.5953L1051.8954,589.2828z"/>
		<path class="st16" d="M1032.8986,650.6038c-1.4718,2.6086-1.1941,5.873-0.2786,8.7249c0.3201,0.9971,0.7202,1.9858,1.3644,2.8115
			c0.6443,0.8257,1.7332,1.77,2.7701,1.9163c0,0,4.7692-1.8654,5.7288-8.7251s-2.2638-7.5676-2.2638-7.5676h-3.9454
			L1032.8986,650.6038z"/>
		<path class="st13" d="M806.9219,771.5046c10.6824-22.2729,11.3161-47.8566,11.7498-72.5549
			c0.1242-7.0721,0.6894-23.7219-0.2081-30.7379c22.4507-2.0443,43.4961,4.4946,65.9468,2.4503
			c7.1954-0.6552,14.3953-1.3107,21.616-1.5634c7.2578-0.2539,14.5229-0.1005,21.7835,0.053
			c8.7303,0.1846,17.4607,0.3691,26.191,0.5538c-3.338,14.6503-4.8936,29.8675-2.7366,44.7377
			c2.1569,14.8701,8.217,29.416,18.6214,40.2567c-6.113-0.1346-12.2272,0.1375-18.3335,0.4532
			C902.4886,757.6897,855.3724,763.3672,806.9219,771.5046z"/>
		<path class="st17" d="M819.7464,429.123c-0.0576,0.0438-0.1138,0.0898-0.1685,0.1381c-2.2722,2.0069-5.1072,3.5365-7.606,5.2627
			c-3.6678,2.5337-7.2886,5.1393-10.7848,7.9062c-6.9215,5.4777-13.3867,11.6367-18.4476,18.9061
			c-5.7676,8.2845-9.5333,17.7732-12.0143,27.5168c-1.5989,6.2792-3.029,12.8033-3.3445,19.2958
			c-0.2297,4.7272,0.0411,9.4592,0.3112,14.1786c0.7355,12.8541,1.4711,25.7083,2.2067,38.5623
			c0.514,8.9823,1.0399,17.99,2.5294,26.8741c0.7357,4.3875,1.7087,8.7398,3.0304,12.9896c0.5939,1.9099,1.2756,3.7557,1.715,5.6857
			c0.5316,2.3344,1.4849,4.6342,2.2,6.9201c0.1537,0.4915,0.2912,0.9773,0.3574,1.4893c0.0851,0.6583,0.0615,1.3116,0.2499,1.9552
			c0.3009,1.0281,0.9037,1.9917,1.3894,2.9408c2.1239,4.15,4.3482,8.2485,6.67,12.291c4.6437,8.085,9.6777,15.9459,15.0793,23.5456
			c1.2153,1.7099,2.4493,3.4066,3.7017,5.0897c2.5533,3.4316,5.1967,6.813,8.1805,9.8848c1.4955,1.5396,3.0758,2.9995,4.7614,4.3295
			c1.6298,1.2861,3.2898,2.1649,5.0793,3.1494c3.8572,2.1221,7.9434,3.8029,12.1442,5.1124
			c13.2354,4.126,27.2071,5.1514,41.0347,6.1503c6.1161,0.4418,12.2428,0.8825,18.3791,0.8094
			c4.1833-0.0499,8.3866-0.3248,12.5136-1.0345c1.3713-0.2358,2.4724-0.7418,3.7083-1.3323
			c1.4972-0.7155,3.1557-0.7996,4.7757-1.0278c8.0759-1.1373,16.0509-2.9907,23.7998-5.5338
			c5.7698-1.8936,11.4746-4.2009,16.4247-7.7184c0.1109-0.0789,0.2214-0.1583,0.3315-0.2384
			c2.754-2.0039,5.2437-4.4015,7.2332-7.1722c0.9873-1.3749,1.8491-2.8417,2.5453-4.3852c0.3422-0.7587,0.5709-1.5515,0.8712-2.3184
			c0.2463-0.6292,0.7325-1.1909,1.1013-1.7635c0.6478-1.0057,1.265-2.031,1.8597-3.0688c1.1915-2.0795,2.2903-4.2105,3.3553-6.3571
			c3.1608-6.371,6.0393-12.882,8.6305-19.5051c2.6573-6.7924,5.0126-13.7028,7.0615-20.7028
			c2.0491-7.001,3.7919-14.0916,5.2243-21.2442c1.4326-7.1533,2.5548-14.3688,3.3629-21.6192
			c0.8079-7.25,1.3016-14.5351,1.477-21.8279c0.0572-2.3785,0.0358-4.7586-0.048-7.1362c-0.0419-1.1906-0.0995-2.3807-0.1708-3.5699
			c-0.1019-1.701-0.4122-3.3213,0.156-4.9578c0.2439-0.7025,0.2661-1.3486,0.2645-2.0927
			c-0.0042-1.9619-0.0639-3.9235-0.1703-5.8826c-0.213-3.921-0.613-7.83-1.1255-11.7226c-0.8116-6.165-1.905-12.2881-2.9996-18.4077
			c-0.309-1.7271-0.6378-3.2963-0.4228-5.0438c0.1916-1.557-0.2511-3.1209-0.5682-4.6362
			c-0.3785-1.8088-0.8056-3.6078-1.2972-5.3893c-0.9805-3.5531-2.2197-7.0416-3.8273-10.3615
			c-0.7964-1.6447-1.6861-3.2448-2.6721-4.7836c-1.7561-2.7404-3.8211-5.2917-6.2048-7.5117
			c-1.1865-1.1049-2.451-2.129-3.7897-3.0444c-0.5342-0.3653-1.1045-0.5252-1.6544-0.8344
			c-1.1055-0.6217-2.0184-1.7601-2.969-2.5878c-1.5359-1.3374-3.1019-2.6401-4.6904-3.9146
			c-0.0884-0.0709-0.1768-0.1418-0.2654-0.2125c-3.0722-2.4551-6.2263-4.8062-9.4159-7.106
			c-1.5962-1.1509-3.2016-2.2891-4.811-3.4215c-0.8043-0.5659-1.6096-1.1304-2.4153-1.6943
			c-1.4789-1.0351-2.9425-1.6462-4.6408-2.347c-6.7251-2.775-13.4659-5.5538-20.4323-7.6751
			c-7.4338-2.2635-14.9791-4.2608-22.6793-5.4106c-7.7113-1.1515-15.5323-1.5658-23.3221-1.2381
			c-7.7502,0.3261-15.4705,1.3873-23.0161,3.1881c-1.5607,0.3724-3.1139,0.7757-4.6596,1.206
			c-7.7349,2.153-15.2637,4.9767-22.6944,8.0026c-1.8611,0.7579-3.7167,1.5288-5.5699,2.306
			c-0.9261,0.3884-1.8517,0.7784-2.777,1.1692C821.0927,428.4399,820.3449,428.6678,819.7464,429.123z"/>
		<path class="st13" d="M1042.0618,655.4658c-3.989-1.9398-14.2107-7.2645-18.613-7.8074
			c-24.5734,0.9634-48.24,17.7086-73.566,11.682c-20.8787-1.1035-42.1505-5.9831-61.1679-15.0941
			c-1.0505-0.3732-1.7668-1.2941-1.4993-2.4398c4.2285-15.5817,29.3486-18.0624,40.4449-8.7295
			c11.6615,0.7886,23.1094-6.6139,34.5776-4.3574c-1.7764-2.1672-1.1667-5.1257-2.1509-7.7494
			c-5.19-9.1763-13.4039-16.3093-22.2267-21.9451c-17.1136-13.3779-38.4862-14.5325-59.6061-15.9244
			c-28.752-2.0554-22.475-28.5605,1.6414-21.3882c-7.0317-4.4763-9.4824-12.3328-0.5516-16.2705
			c6.3026-1.6348,13.1605,0.5427,19.2928,2.1994c0.4622-20.6889,26.7703-7.2676,39.0629-7.3643
			c1.5732,0.4186,1.8564-0.1436,0.2942-0.8374c-13.3779-8.4313,4.3234-12.1624,12.0054-11.2773
			c5.7458,0.2079,11.4919,0.4163,17.2381,0.6246c4.6393,0.1683,8.5121,3.9272,12.6925,5.9464
			c6.809,3.6479,13.4551,7.6945,20.1584,11.7087c19.46,11.6535,24.8719,19.1003,42.5787,31.0936
			c6.5643,4.9378,14.7982,10.1478,21.9183,14.296c12.9252,7.0185,5.7478,18.4414,2.9773,26.4747
			c-4.3721,12.6771-12.4998,22.9822-20.7887,33.5234C1045.8977,652.9441,1043.3368,656.0858,1042.0618,655.4658z"/>
		<path class="st18" d="M1157.4939,1450.0742c-2.0199-13.8135-3.6854-135.5365-5.5719-149.3688
			c-2.8801-21.118-5.6046-42.2573-8.1732-63.4156c-2.5685-21.1582-4.9812-42.3353-7.2375-63.5292
			c-1.1283-10.5968-2.2174-21.1979-3.2675-31.8029c-0.2626-2.6511-0.5262-5.3024-0.7803-7.9543
			c-0.1831-1.912,0.1707-3.3625,0.3494-5.2131c0.5269-5.4575-0.2642-11.3334-0.3329-16.8246
			c-0.0803-6.4182-0.0985-12.8372-0.0754-19.2559c0.046-12.8396,0.2577-25.6779,0.4692-38.5156
			c0.0934-5.6624,0.2008-11.4167,1.8927-16.8213c1.8633-5.9517,5.5364-11.1353,8.5603-16.5896
			c8.3182-15.0041,5.0005-36.0259,18.688-46.3685c37.3934-28.2552,72.0482-60.1331,103.3213-95.0418
			c4.5664-5.0973,9.0645-10.2627,13.8958-15.1097c1.4456-1.4503,2.9205-2.8714,4.4219-4.264
			c5.3635-4.975,11.0618-9.5829,16.9834-13.8762c2.519-1.8264,5.2966-3.335,7.2147-5.8058
			c0.6271-0.8077,1.3553-1.4312,2.1278-2.1048c3.2205-2.8082,6.2454-5.8286,9.1588-8.9521
			c6.0911-6.5302,11.7034-13.4882,17.7954-20.0176c4.9061-5.2585,10.1337-10.2346,14.6309-15.8469
			c2.9678-3.7037,5.6007-7.6642,8.5184-11.4075c3.0375-3.8971,6.3812-7.5557,9.2617-11.5702
			c2.8721-4.0029,5.2611-8.3323,7.3314-12.7976c1.7939-3.869,3.3529-7.8422,4.8119-11.848c0.6886-1.8905,1.1993-3.9631,2.132-5.7462
			c0.7069-1.3516,0.5051-2.7328,0.4779-4.267c-0.0905-5.0963-0.6914-10.3022-2.9243-14.9474
			c-1.4567-3.0303-3.5482-5.7028-5.6229-8.3486c-2.2589-2.8807-4.5428-5.7871-7.3801-8.1002
			c-3.0775-2.5089-6.7034-4.2365-10.293-5.9334c-24.8422-11.7435-49.8256-23.1851-74.8083-34.6264
			c-4.4689-2.0466-8.9391-4.0927-13.4673-6.0058c-4.6588-1.9683-9.3809-3.7973-14.2029-5.3281
			c-2.0699-0.6571-4.3209-1.0602-6.2003-2.189c-2.7501-1.6518-5.4329-2.2858-8.5938-3.1632
			c-9.5901-2.6622-19.1439-5.4705-28.5684-8.6752c-4.713-1.6027-9.3527-3.3761-14.0103-5.129
			c-0.8494-0.3196-1.5618-0.36-2.4454-0.4276c-0.9551-0.073-1.8607-0.4189-2.7712-0.6928c-3.0448-0.916-6.0898-1.8315-9.1348-2.7472
			c-12.6705-3.8104-25.3409-7.6208-38.0115-11.4313c-8.9413-2.6889-17.8933-5.3815-26.5979-8.759
			c-5.0702-1.9673-10.047-4.1633-15.0326-6.3331c-3.8639-1.6816-7.7354-3.3489-11.6611-4.8823
			c-0.9812-0.3832-1.9739-0.7379-2.9542-1.1226c-0.6421-0.252-1.1659-0.6967-1.8099-0.9285
			c-1.9324-0.6954-18.3655-7.6655-22.968-9.6282c7.0679,18.4053-5.3573,38.7062-14.2095,57.3678
			c-2.3168,4.884-8.5604,10.9608-10.9528,15.8113c-0.8671,1.7579-0.8094,2.864-2.723,4.5165
			c19.5592,8.7122,39.1427,17.434,59.3214,24.5952c16.6754,5.918,32.7979,12.8796,49.1886,19.5458
			c8.963,3.6453,17.926,7.2906,26.8889,10.9359c8.1033,3.2956,16.3499,6.2326,24.6704,8.9294
			c2.0137,0.6526,4.032,1.2911,6.0542,1.9166c1.2911,0.3994,2.6139,0.9277,3.9451,1.1277c0.7355,0.1105,1.457,0.3635,2.1726,0.5778
			c3.0092,0.9012,6.02,1.9371,8.7096,3.5906c0.5344,0.3286,1.0546,0.6807,1.5558,1.0582c1.6079,1.2111,3.0068,2.6733,4.3978,4.1285
			c0.3092,0.3234,0.6371,0.6885,0.6567,1.1356c0.0154,0.3526-0.1666,0.6803-0.3463,0.9839c-1.3793,2.3302-3.072,4.3556-4.651,6.537
			c-0.5363,0.7407-0.7766,1.4771-1.4957,2.0938c-1.0648,0.913-2.2106,1.7426-3.3817,2.5128
			c-6.0164,3.957-12.938,6.2747-19.7887,8.4936c-16.2373,5.2591-32.5773,10.2015-49.0073,14.8234
			c-6.0057,1.6895-12.1481,3.3508-18.3795,3.0475c-4.8578-0.2365-9.5698-1.6599-14.3641-2.4775
			c-15.2937-2.6082-30.8636,0.9848-46.1332,3.7307c-2.2267,0.4005-4.4576,0.7783-6.6949,1.1152
			c-6.8057,1.0246-13.6979,1.6994-20.5864,1.3984c-1.061-0.0464-1.938-0.157-2.9387,0.0621
			c-0.5641,0.1235-1.1962,0.0714-1.7678,0.0307c-2.5782-0.1833-5.0288-1.1277-7.4155-2.0546
			c-0.1243-0.0482-0.2484-0.0965-0.3727-0.1447c-1.5526-0.603-3.1053-1.2061-4.658-1.809
			c-2.0352-0.7905-4.1327-1.3812-6.1208-2.2642c-11.8727-5.2734-20.5146-15.9205-32.739-20.5567
			c-5.4609-2.0711-11.3285-2.7753-17.1283-3.4633c-13.4573-1.5965-25.6924-1.8901-39.2421-1.6565
			c-13.674,0.2357-27.3459,0.5913-41.0137,1.0668c-6.9379,0.2413-13.8748,0.5135-20.8104,0.8167
			c-8.5377,0.3731-17.3318,0.2965-25.7401,1.8065c-6.1924,1.112-12.2676,2.8757-18.0927,5.2529
			c-2.472,1.0089-5.8277,1.9901-7.71,3.9642c-0.6152,0.6452-6.8245,5.8003-9.345,7.5911
			c-20.4468,14.5278-29.7555,41.15-50.4398,55.3376c-3.98,2.73-8.2936,4.93-12.5813,7.1458
			c-3.3917,1.7528-6.7756,3.5205-10.1506,5.3053c-1.6876,0.8925-3.3729,1.7892-5.0557,2.6904
			c-1.1915,0.638-2.4661,1.6005-3.7648,1.9905c-1.2194,0.3661-2.3904,0.7193-3.59,1.1996
			c-2.8904,1.1571-5.7708,2.3395-8.6415,3.5446c-5.7406,2.4099-11.4429,4.9108-17.1125,7.483
			c-11.3453,5.1472-22.559,10.5796-33.7037,16.1465c-10.4241,5.2071-20.7884,10.5325-31.1523,15.858
			c-8.4496,4.3419-16.9465,8.7132-24.532,14.4322c-4.5155,3.4044-8.7042,7.2952-12.0623,11.8453
			c-1.8766,2.5428-3.4827,5.2771-4.8702,8.1146c-0.9777,1.9993-2.097,4.1091-2.5949,6.2878
			c-0.3545,1.5513-0.594,3.1392-0.8854,4.7036c-0.5841,3.1359-1.1562,6.2742-1.7163,9.4145
			c-1.1202,6.2807-2.1923,12.5699-3.2164,18.867c-2.048,12.5942-3.9033,25.2197-5.5652,37.8705
			c-1.662,12.6509-3.1305,25.3271-4.4047,38.0229c-0.2023,2.0161-0.3998,4.0326-0.5923,6.0496
			c-0.0963,1.0081-0.1913,2.0162-0.285,3.0244c-0.0552,0.5938-0.0248,1.2638-0.192,1.8418c-0.1807,0.6249-0.3792,1.176-0.488,1.8331
			c-0.2839,1.7139-0.5609,3.4288-0.8315,5.1448c-0.5412,3.4318-1.057,6.8674-1.5517,10.3062
			c-1.6848,11.7106-2.0378,23.587-2.7402,35.4209c-0.5698,9.5997-1.1395,19.1993-1.7092,28.7991
			c-1.0199,17.1833-2.0397,34.3667-3.0596,51.5502c-0.9057,15.2594-1.8069,30.5376-1.6199,45.8312
			c0.0914,7.4794,0.1689,15.168,1.2082,22.5869c0.1351,0.9641,0.4728,1.7666,0.8022,2.6674
			c0.8798,2.4061,0.296,5.4562,0.0353,7.9417c-0.3235,3.0847-0.8387,6.1458-1.4163,9.192
			c-0.4745,2.5026-0.9931,4.9965-1.4879,7.4951c-6.9106,34.8928-9.0043,70.7362-6.2032,106.1964
			c30.136,8.8969,60.652-4.3866,91.9357-1.4432c4.958-45.9637,12.329-91.6671,22.0724-136.859
			c2.1747-10.0865,4.4711-20.1687,5.6876-30.4149c1.3125-11.0541,1.3582-22.2147,1.4021-33.3464
			c0.0885-22.4066,0.177-44.8132,0.2655-67.22c3.1353,22.166,2.3163,44.6768,3.3925,67.0375
			c1.0019,20.8185,3.6486,41.5186,6.2928,62.1926c5.1108,39.958,9.9338,187.8157,15.0446,227.7736
			c54.1841,12.8718,111.0834-0.8232,166.554-5.7842C961.5189,1457.5731,1060.0653,1476.892,1157.4939,1450.0742z"/>
		<g class="st14">
			<path class="st19" d="M657.7919,955.4523c-1.0845,6.8187-1.4103,13.7281-1.1902,20.6077
				c0.194,6.8829,0.8851,13.7469,1.9138,20.5583c1.993,13.6354,4.9337,27.1271,6.9485,40.8034
				c0.9657,6.8395,1.7274,13.7279,1.9625,20.6414c0.2593,6.9093,0.227,13.8185,0.1066,20.7153
				c-0.1886,13.7734-0.3899,27.6339,2.1156,41.2369c-1.4128-6.7557-2.1617-13.6418-2.5538-20.5363
				c-0.3502-6.8998-0.3345-13.8085-0.331-20.7068c-0.001-6.8988,0.0589-13.793-0.2467-20.6713
				c-0.2632-6.8794-1.054-13.722-2.0417-20.5363c-1.9244-13.6404-4.8822-27.1419-6.7184-40.8405
				c-0.9384-6.8428-1.5504-13.7433-1.6416-20.6543C656.0568,969.1611,656.5475,962.2424,657.7919,955.4523z"/>
		</g>
		<g class="st14">
			<path class="st19" d="M1127.4015,960.5379c1.0514,6.7502,1.9138,13.5279,2.679,20.3166
				c0.7673,6.7888,1.3646,13.5955,1.9299,20.4041c0.4846,6.8149,0.9313,13.6331,1.2131,20.4592
				c0.1307,3.4135,0.248,6.8272,0.3419,10.2413c0.0537,3.4158,0.1249,6.8302,0.1143,10.2461l-1.2242-20.4467
				c-0.4407-6.8113-0.8789-13.6219-1.441-20.4234c-0.4813-6.8077-1.0929-13.605-1.6959-20.4038L1127.4015,960.5379z"/>
		</g>
		<g class="st14">
			<path class="st19" d="M1188.4849,922.9709c-2.9734,4.5184-5.6688,9.1964-8.1847,13.9688
				c-2.5138,4.7737-4.9144,9.6088-7.2627,14.4766c-2.4204,4.8314-4.795,9.6959-7.4174,14.4348l-2.009,3.5297l-2.0908,3.482
				l-2.2212,3.3997l-2.3453,3.312l2.1217-3.4542l2.0234-3.5079l1.9613-3.5405l1.8816-3.5833
				c2.4724-4.7966,4.8483-9.6451,7.1995-14.5131c2.4235-4.8313,4.818-9.6884,7.4869-14.4028
				C1182.2932,931.86,1185.1735,927.2525,1188.4849,922.9709z"/>
		</g>
		<g class="st14">
			<path class="st19" d="M1223.8646,904.9556l-1.7583,4.0438l-1.9922,3.9399l-2.2195,3.8194l-2.3883,3.7178
				c-3.2943,4.8895-7.0326,9.4581-10.8861,13.9019c-3.9164,4.3922-7.9573,8.6616-12.0527,12.8699l-6.1365,6.3163l-3.0619,3.1644
				l-3.0325,3.195c1.8608-2.2737,3.7977-4.4835,5.7354-6.6932l5.937-6.5115c3.98-4.3179,8.0195-8.5748,11.8613-13.0007
				c3.9015-4.3721,7.6016-8.9181,11.0068-13.6787C1218.2805,915.2798,1221.3256,910.2552,1223.8646,904.9556z"/>
		</g>
		<g class="st14">
			<path class="st19" d="M766.4204,817.9105c10.02-5.4756,18.3862-13.3322,27.8359-19.7038
				c4.7479-3.1376,9.7988-5.9359,15.2734-7.6458c5.4586-1.7385,11.1782-2.4921,16.8714-2.7389
				c5.702-0.2635,11.4017-0.0635,17.0837,0.089c5.6821,0.168,11.3612,0.1901,17.04,0.043
				c11.3561-0.2993,22.6904-1.2635,33.934-2.8699c11.2557-1.5432,22.4518-3.596,33.7395-5.1174
				c11.2886-1.5258,22.6619-2.3903,34.0446-2.6893c11.3843-0.2399,22.7828,0.0685,34.1236,1.078
				c11.3413,1.002,22.6102,2.7099,33.763,4.9436c-11.1843-2.0737-22.4667-3.6179-33.8038-4.4559
				c-11.3285-0.9382-22.7067-1.1995-34.0653-0.9009c-11.3571,0.3546-22.6976,1.273-33.9489,2.8505
				c-11.2542,1.5713-22.4355,3.685-33.715,5.2798c-11.2863,1.5562-22.6631,2.4677-34.0519,2.7117
				c-5.6938,0.1196-11.3939,0.0694-17.0815-0.1268c-5.6854-0.1807-11.366-0.4072-17.0331-0.173
				c-5.6591,0.2174-11.3247,0.9378-16.7263,2.629c-5.4165,1.6581-10.4292,4.415-15.1791,7.4991
				C785.0294,804.8177,776.5173,812.5789,766.4204,817.9105z"/>
		</g>
		<g class="st14">
			<path class="st19" d="M1224.3157,741.5977c1.991-2.6465,4.4719-4.9161,7.1884-6.832c2.7371-1.8954,5.7241-3.4144,8.8113-4.6545
				c6.198-2.4658,12.7717-3.7616,19.3284-4.6973c6.5812-0.8458,13.1926-1.3029,19.7976-1.6328l9.9048-0.4865
				c3.3018-0.149,6.5979-0.3699,9.8945-0.6415c-6.548,0.9685-13.1621,1.4027-19.7518,1.8958
				c-6.5911,0.4884-13.1837,0.9371-19.7113,1.8549c-6.5283,0.8477-13.0217,2.1447-19.1868,4.4219
				C1234.4518,733.0908,1228.6373,736.5525,1224.3157,741.5977z"/>
		</g>
		<g class="st14">
			<path class="st19" d="M557.881,1258.0862c0.0549,4.5449,0.2715,9.076,0.7344,13.5802c0.4652,4.5026,1.1044,8.9868,2.0496,13.4109
				c0.866,4.4401,2.0311,8.8173,3.3693,13.1414l1.0431,3.2324l1.1365,3.203l1.1927,3.1865c0.433,1.0481,0.8552,2.1021,1.2701,3.1611
				c-0.5129-1.0134-1.0187-2.032-1.5135-3.0564l-1.4052-3.111l-1.2745-3.1685l-1.1798-3.2069
				c-1.4996-4.3047-2.6675-8.7222-3.6172-13.1821c-0.8706-4.476-1.53-8.9973-1.8339-13.5457
				C557.5463,1267.1847,557.5234,1262.6198,557.881,1258.0862z"/>
		</g>
		<g class="st14">
			<path class="st19" d="M657.4009,1268.7419c-0.8508,3.8416-1.9946,7.6176-3.3315,11.3246
				c-1.3351,3.7091-2.9306,7.3212-4.649,10.8701c-1.7908,3.5131-3.7117,6.9631-5.8615,10.2672l-1.6487,2.4526l-1.7076,2.4099
				c-1.193,1.5675-2.3887,3.1298-3.6656,4.6265c0.5439-0.8202,1.094-1.634,1.6535-2.4399l1.6088-2.4651l1.5828-2.4778l1.5237-2.5126
				c2.0009-3.3662,3.9127-6.7843,5.6203-10.3057c1.78-3.4854,3.3489-7.0737,4.8285-10.6996
				C654.8322,1276.1646,656.1531,1272.4713,657.4009,1268.7419z"/>
		</g>
		<path class="st20" d="M912.4923,641.8028c-0.1724-0.2914-0.5573-0.5273-0.9053-0.7412c-1.2242-0.7529-2.8318-1.1716-4.4369-1.2988
			c-1.6708-0.1323-8.8497-0.5693-8.7504-0.0494c0.3522,1.8442-0.3367,4.1621-0.9888,5.121
			c3.5705,1.1181,7.4515,1.7462,11.3598,1.8386c0.1815,0.0043,0.6075-0.2727,0.7505-0.3448
			c0.3716-0.1874,0.7258-0.3927,1.0488-0.6204c0.5954-0.4196,1.0764-0.9116,1.3976-1.4597c0.3787-0.646,0.4808-1.3382,0.6072-2.024
			C912.6031,642.071,912.5685,641.9315,912.4923,641.8028z"/>
		<g class="st14">
			<path class="st15" d="M879.9645,567.991c-0.5359,1.4155-1.3197,2.652-2.1616,3.8464c-0.8674,1.1761-1.7948,2.3088-2.9717,3.2613
				c0.5341-1.4167,1.3178-2.6533,2.1616-3.8464C877.8619,570.0776,878.7892,568.9448,879.9645,567.991z"/>
		</g>
		<g class="st14">
			<path class="st15" d="M897.7364,552.5957c-0.7369,1.3274-1.6934,2.442-2.7014,3.5067c-1.0306,1.0428-2.1143,2.0341-3.4192,2.8113
				c0.7354-1.3289,1.6918-2.4435,2.7014-3.5067C895.3494,554.3657,896.433,553.3743,897.7364,552.5957z"/>
		</g>
		<g class="st14">
			<path class="st15" d="M916.95,542.8228c-0.3315,0.4395-0.6742,0.8081-1.0143,1.173c-0.3361,0.3685-0.6851,0.716-1.0526,1.0696
				c-0.7456,0.686-1.6603,1.3354-2.7452,1.5087c0.3309-0.4406,0.6732-0.8095,1.0134-1.1741
				c0.3362-0.3682,0.6852-0.7157,1.0535-1.0685C914.952,543.647,915.8661,542.9979,916.95,542.8228z"/>
		</g>
		<g class="st14">
			<path class="st15" d="M944.244,530.7341c-0.1975,0.9214-0.7029,1.6692-1.2917,2.3108c-0.6136,0.6215-1.2385,1.1472-2.0834,1.5707
				c0.2245-0.9194,0.7844-1.6374,1.3558-2.2558C942.8197,531.7592,943.4122,531.1852,944.244,530.7341z"/>
		</g>
		<g class="st14">
			<path class="st15" d="M898.1904,547.6476c7.0347,1.6789,14.1107,3.15,21.2345,4.3223
				c7.1257,1.1797,14.2778,2.0907,21.4826,2.7102c7.3113,0.7671,14.2079,3.5931,20.5173,7.1294
				c6.3397,3.5469,12.2402,7.739,18.2799,11.7124c-3.1359-1.8031-6.1913-3.7416-9.2869-5.6061
				c-3.0775-1.8924-6.1753-3.7493-9.3609-5.4308c-6.3366-3.3708-13.1111-6.1401-20.2505-6.8112
				c-7.1937-0.7021-14.4004-1.6044-21.5143-2.9498C912.1744,551.3904,905.1196,549.7253,898.1904,547.6476z"/>
		</g>
		<g class="st14">
			<path class="st15" d="M879.8956,561.7124c7.2983,0.3358,14.5513,1.3064,21.8079,1.9584
				c7.2494,0.6075,14.5643,0.9575,21.83,1.8289c1.816,0.2244,3.6284,0.4845,5.436,0.7773c0.9039,0.1439,1.8134,0.3556,2.7191,0.5308
				c0.8906,0.2447,1.7902,0.4641,2.6682,0.7479c3.5138,1.1375,6.8624,2.7162,10.0214,4.5781
				c6.3421,3.7071,12.0692,8.2534,18.0954,12.3691c-3.1324-1.8777-6.1483-3.9432-9.2041-5.9352
				c-3.0378-2.0168-6.0884-4.0158-9.2725-5.7639c-3.1851-1.7363-6.4627-3.3121-9.9124-4.3787
				c-3.4274-1.112-7.0604-1.4614-10.6716-1.9348c-3.6107-0.4556-7.2385-0.7983-10.8717-1.1026
				c-3.6292-0.3179-7.2799-0.5222-10.9142-0.9586C894.3604,563.6162,887.1593,562.4561,879.8956,561.7124z"/>
		</g>
		<g class="st14">
			<path class="st15" d="M939.1,540.1904c2.3533,0.5058,4.7327,0.743,7.122,0.744l3.6038,0.0278
				c1.2006,0.0456,2.371,0.0184,3.5688-0.0478c1.1936-0.0488,2.3962-0.1212,3.6111-0.1338c1.2188-0.015,2.4286,0.0526,3.6254,0.1127
				l1.7881,0.0763l0.8825,0.0145c0.2816-0.0003,0.6018-0.0264,0.9701,0.0229c0.3649,0.0395,0.7563,0.2274,1.0032,0.3704
				c0.2773,0.1512,0.5427,0.3135,0.8016,0.4789l1.4955,0.9991c4.0208,2.6359,8.0157,5.3151,11.8744,8.1833
				c3.8708,2.8499,7.6578,5.813,11.3098,8.9352c-3.8936-2.8141-7.7908-5.6115-11.7405-8.3306
				c-3.9603-2.7032-7.9189-5.4065-11.9752-7.9606l-1.5045-0.9911c-0.4879-0.3018-1.0065-0.6724-1.405-0.7214
				c-0.4516-0.0486-1.1666-0.007-1.7448-0.0493l-1.8079-0.0987c-1.199-0.0748-2.3868-0.1548-3.5689-0.1542
				c-1.1855-0.002-2.3806,0.0553-3.5856,0.0903c-1.2004,0.0246-2.4328,0.0123-3.6289-0.0854l-3.5934-0.1917
				C943.7927,541.3438,941.3847,540.9332,939.1,540.1904z"/>
		</g>
		
			<ellipse transform="matrix(0.3018 -0.9534 0.9534 0.3018 182.7357 1471.4083)" class="st21" cx="1095.979" cy="610.9405" rx="6.8717" ry="10.6351"/>
		
			<ellipse transform="matrix(0.3018 -0.9534 0.9534 0.3018 182.7357 1471.4083)" class="st22" cx="1095.979" cy="610.9405" rx="3.8678" ry="5.9861"/>
		<g class="st14">
			<path class="st19" d="M1079.9985,597.6685c-0.2728,5.7888-1.0132,11.5496-1.9714,17.2682
				c-0.9841,5.7153-2.2559,11.3859-3.8617,16.9667c-1.7024,5.5487-3.632,11.044-6.1494,16.2867
				c-2.5732,5.2067-5.6227,10.2008-9.4386,14.5737c3.5503-4.5884,6.4288-9.6146,8.8673-14.8417
				c2.3807-5.259,4.3022-10.7124,5.9343-16.2488c1.6626-5.5314,2.9167-11.1782,4.03-16.8486
				c0.2799-1.4179,0.5526-2.8376,0.7814-4.2651c0.25-1.4241,0.4792-2.8516,0.6843-4.2831
				C1079.3307,603.4194,1079.6936,600.5483,1079.9985,597.6685z"/>
		</g>
	</g>
	<path class="st23" d="M930.9163,391.66c0.9296-4.3859,4.5314-6.8751,8.679-6.0056c4.2314,0.8965,6.3448,4.6065,5.4428,8.9988
		c-0.8767,4.1358-4.3364,6.8196-8.657,5.9045C932.1912,399.6697,929.9772,395.7831,930.9163,391.66z M937.0719,375.5395
		l0.3463-3.1605c0.6395-6.5751,4.3546-13.155,11.7797-19.0419c6.7103-5.2455,10.6611-9.2258,11.7897-14.5518
		c1.2957-6.1157-1.6144-11.0169-9.1858-12.6784c-4.2395-0.8981-9.3063-0.5257-12.8183,1.1378l-1.2746-8.125
		c4.656-2.0158,11.8007-2.5181,18.1138-1.1801c13.6686,2.8968,18.1384,12.7157,16.2112,21.8084
		c-1.7034,8.0375-7.5092,12.9768-14.6636,18.4614c-6.5731,5.1782-9.604,10.0435-10.4951,16.2154l-0.4895,3.088L937.0719,375.5395z"
		/>
	<path class="st23" d="M825.0693,309.1833l22.6514,64.6406l-9.7451,3.6572l-25.4727-63.582L825.0693,309.1833z M846.622,401.2986
		c-2.1162-0.9619-3.5908-2.5518-4.4258-4.7754c-0.834-2.2227-0.7705-4.3926,0.1904-6.5088
		c0.9619-2.1162,2.5518-3.5898,4.7764-4.4248c2.1348-0.8018,4.2412-0.7148,6.3154,0.2627c2.0723,0.9775,3.5273,2.5771,4.3613,4.7998
		c0.834,2.2236,0.79,4.3838-0.126,6.4834c-0.9199,2.1006-2.4482,3.5518-4.584,4.3535
		C850.9062,402.3239,848.7382,402.2595,846.622,401.2986z"/>
	<g>
		<path class="st23" d="M747.1504,391.5303l28.6055,26.5293l-3.9351,4.4346l-29.7441-25.2456L747.1504,391.5303z M782.5122,432.1895
			c-1.3218,0.0791-2.4878-0.3296-3.4995-1.2271c-1.0107-0.8979-1.5566-2.0078-1.6353-3.3286
			c-0.0791-1.3218,0.3301-2.4878,1.228-3.4995c0.8628-0.9722,1.9458-1.4883,3.2505-1.5479
			c1.3037-0.0596,2.4629,0.3589,3.4736,1.2573c1.0117,0.8975,1.5645,1.9971,1.6611,3.2983
			c0.0957,1.3027-0.2871,2.4399-1.1499,3.4121C784.9429,431.5659,783.8335,432.1108,782.5122,432.1895z"/>
	</g>
</g>
<g id="Calque_3" class="st24">
	<rect x="615.964" y="-358.1243" class="st25" width="225.0112" height="119.1236"/>
	<rect x="354.8973" y="-358.1243" class="st26" width="225.0112" height="119.1236"/>
	<rect x="93.8306" y="-358.1243" class="st27" width="225.0112" height="119.1236"/>
	<rect x="354.8973" y="-178.685" class="st28" width="225.0112" height="119.1236"/>
	<rect x="93.8306" y="-178.685" class="st29" width="225.0112" height="119.1236"/>
	<rect x="652.0195" y="-178.685" class="st30" width="225.0112" height="119.1236"/>
	<rect x="877.0307" y="-358.1243" class="st31" width="225.0112" height="119.1236"/>
	<rect x="1138.0974" y="-358.1243" class="st32" width="225.0112" height="119.1236"/>
	<rect x="1399.1641" y="-358.1243" class="st33" width="225.0112" height="119.1236"/>
	<rect x="1660.2307" y="-358.1243" class="st34" width="225.0112" height="119.1236"/>
	<rect x="354.8973" y="-552.3181" class="st32" width="225.0112" height="119.1236"/>
	<rect x="615.964" y="-552.3181" class="st35" width="225.0112" height="119.1236"/>
	<rect x="877.0307" y="-552.3181" class="st36" width="225.0112" height="119.1236"/>
	<rect x="1921.2974" y="-358.1243" class="st37" width="225.0112" height="119.1236"/>
</g>
</svg>
