<?xml version="1.0" encoding="utf-8"?>
<!-- Generator: Adobe Illustrator 25.2.1, SVG Export Plug-In . SVG Version: 6.00 Build 0)  -->
<svg version="1.1" xmlns="http://www.w3.org/2000/svg" xmlns:xlink="http://www.w3.org/1999/xlink" x="0px" y="0px"
	 viewBox="0 0 2000 1500" style="enable-background:new 0 0 2000 1500;" xml:space="preserve">
<style type="text/css">
	.st0{fill:#F2F2F2;}
	.st1{fill:#CAE4EA;}
	.st2{display:none;fill:#D4E5E8;}
	.st3{fill:none;stroke:#58D6C8;stroke-width:5;stroke-linecap:round;stroke-linejoin:round;stroke-miterlimit:10;}
	.st4{fill:#E9F2F2;stroke:#58D6C8;stroke-width:5;stroke-linecap:round;stroke-linejoin:round;stroke-miterlimit:10;}
	.st5{fill:#F2F2F2;stroke:#999999;stroke-width:3;stroke-miterlimit:10;}
	.st6{fill:#DFEDEF;stroke:#999999;stroke-width:0.87574;stroke-miterlimit:10;}
	.st7{fill:#CAE4EA;stroke:#424241;stroke-width:2;stroke-miterlimit:10;}
	.st8{fill:#F2F2F2;stroke:#424241;stroke-width:2;stroke-miterlimit:10;}
	.st9{fill:none;stroke:#424241;stroke-width:2;stroke-miterlimit:10;}
	.st10{fill:none;stroke:#009DD1;stroke-width:3.31484;stroke-linecap:round;stroke-linejoin:round;stroke-miterlimit:10;}
	.st11{fill:#AFC5C9;}
	.st12{fill:#009DD1;}
	.st13{fill:#004F69;}
	.st14{fill:#060A11;}
	.st15{fill:#333333;}
	.st16{fill:#000716;}
	.st17{fill:#424241;}
	.st18{fill:#3A1E13;}
	.st19{fill:#2D150E;}
	.st20{fill:none;stroke:#000B26;stroke-miterlimit:10;}
	.st21{fill:#000B26;}
	.st22{fill:#009DD1;stroke:#000B26;stroke-miterlimit:10;}
	.st23{fill:#009DD1;stroke:#000B26;stroke-width:0.73661;stroke-miterlimit:10;}
	.st24{fill:none;stroke:#000B26;stroke-width:0.73661;stroke-miterlimit:10;}
	.st25{fill:#110F0F;}
	.st26{opacity:0.35;}
	.st27{fill:none;}
	.st28{opacity:0.43;}
	.st29{fill:none;stroke:#999999;stroke-width:3;stroke-miterlimit:10;}
	.st30{display:none;}
	.st31{display:inline;fill:#009DD1;}
	.st32{display:inline;fill:#004F69;}
	.st33{display:inline;fill:#000B26;}
	.st34{display:inline;fill:#3A1E13;}
	.st35{display:inline;fill:#110F0F;}
	.st36{display:inline;fill:#8E4332;}
	.st37{display:inline;fill:#85FFC2;}
	.st38{display:inline;fill:#F2F2F2;}
	.st39{display:inline;fill:#999999;}
	.st40{display:inline;fill:#727271;}
	.st41{display:inline;fill:#CAE4EA;}
	.st42{display:inline;fill:#AFC5C9;}
	.st43{display:inline;fill:#424241;}
</style>
<g id="bg">
	<ellipse class="st0" cx="976.34308" cy="1270.57996" rx="785.95953" ry="67.06779"/>
</g>
<g id="Calque_4">
	<path class="st1" d="M913.42072,452.94385c-0.13788-4.55539-1.70312-7.15433-6.3606-8.60016
		c-82.63696-29.96814-166.14148-57.53128-248.59784-88.03278c-27.86023-10.46716-56.07568-19.98892-84.11609-29.97794
		c-4.05969-1.44626-7.79108-2.12146-12.25659-0.5311c-104.61792,37.25839-209.28806,74.36975-313.99426,111.3797
		c-4.45241,1.57391-6.03099,3.84372-6.29164,8.561c-10.80455,189.98276,8.26877,466.8699,329.51764,638.66028
		C847.85992,958.09625,923.11371,666.82684,913.42072,452.94385z M572.13422,1029.57056
		C297.26981,882.58447,280.95044,645.67633,290.19489,483.12482c0.22305-4.03607,1.57367-5.97827,5.38315-7.32489
		c89.58798-31.66617,179.14508-63.41907,268.6575-95.29785c3.8208-1.36087,7.01331-0.78308,10.48669,0.45435
		c23.99188,8.54678,48.13324,16.69366,71.97095,25.64963c70.55072,26.09732,141.99774,49.68066,212.70343,75.32184
		c3.98499,1.23697,5.32422,3.46072,5.44208,7.35849C873.13196,672.28717,808.74408,921.50104,572.13422,1029.57056z"/>
	<path class="st2" d="M556.67529,363.86871v-0.08182c-1.11322,0-2.22668,0.03055-3.3399,0.03983
		c-1.06055-0.0083-2.11542-0.03983-3.1778-0.03983v0.07788c-23.36316,0.37973-46.70715,2.77399-69.48608,7.1843l21.84967,112.86993
		c16.63232-3.21979,33.71143-4.88904,50.81873-5.08798c151.94446,1.69153,275.03961,123.71744,275.03961,273.54288
		c0,149.82758-123.09357,271.85339-275.0368,273.5459c-17.11029-0.19922-34.18726-1.87085-50.80576-5.091l-21.88123,112.86359
		c22.7746,4.41663,46.12253,6.81384,69.50186,7.1936v0.07812c1.06293,0,2.11859-0.03162,3.17957-0.03979
		c1.11285,0.00903,2.22528,0.03979,3.33813,0.03979v-0.08203c213.80865-3.4552,386.66895-176.3924,386.66895-388.50818
		S770.48395,367.32413,556.67529,363.86871z M402.56671,524.52039l-63.05045-96.13724
		c-43.20401,28.33578-79.83044,64.2366-108.8571,106.7056l94.91319,64.87384
		C346.08127,569.95795,371.98633,544.57501,402.56671,524.52039z M325.57394,904.78204l-94.91951,64.86755
		c29.02351,42.46899,65.64677,78.36981,108.85237,106.7088l63.05676-96.13098
		C371.98001,960.1665,346.07812,934.78357,325.57394,904.78204z M278.45648,752.3739c0-18.0766,1.79504-36.1311,5.33621-53.66193
		l-112.69011-22.76459c-5.05229,25.01074-7.61394,50.7218-7.61394,76.42651c0,25.7016,2.56165,51.41266,7.61394,76.42334
		l112.69011-22.76453C280.25153,788.50189,278.45648,770.44733,278.45648,752.3739z"/>
	<g>
		<polygon class="st1" points="1431.6178,912.8974 1781.38025,563.13019 1698.76282,480.51596 1431.6178,747.66254 
			1253.22363,569.26666 1170.6062,651.88092 		"/>
	</g>
	<g>
		<path class="st3" d="M783.59521,136.72899h59.39551l68.24194,234.66936l-6.37402,26.43665
			c-2.39771,9.9447,5.13818,19.51346,15.36786,19.51346h221.60675"/>
		<polygon class="st4" points="911.23267,371.39835 1141.83325,339.00296 1170.6062,193.15874 859.88696,193.15874 		"/>
		<line class="st3" x1="884.01111" y1="277.78937" x2="1154.05786" y2="277.78937"/>
		<line class="st3" x1="1064.17554" y1="193.15874" x2="1064.17554" y2="348.01141"/>
		<line class="st3" x1="976.34308" y1="193.15874" x2="976.34308" y2="360.23111"/>
		<circle class="st3" cx="1107.37964" cy="485.17877" r="34.19865"/>
		<circle class="st3" cx="911.4458" cy="485.17877" r="34.19865"/>
	</g>
	<path class="st5" d="M1345.27771,1257.14148H792.39722c-11.37897,0-20.60352-9.22449-20.60352-20.60352V361.41132
		c0-11.379,9.22455-20.60352,20.60352-20.60352h552.88049c11.37891,0,20.60352,9.22452,20.60352,20.60352v875.12665
		C1365.88123,1247.91699,1356.65662,1257.14148,1345.27771,1257.14148z"/>
	<path class="st6" d="M1321.19385,1082.41577H816.48102c-4.6452,0-8.41089-3.76562-8.41089-8.41089V385.09674
		c0-4.6452,3.76569-8.41089,8.41089-8.41089h504.71283c4.64526,0,8.41089,3.76569,8.41089,8.41089v688.90814
		C1329.60474,1078.65015,1325.83911,1082.41577,1321.19385,1082.41577z"/>
	<rect x="855.96997" y="473.4281" class="st7" width="227.73108" height="61.76468"/>
	<rect x="855.96997" y="557.19385" class="st8" width="227.73108" height="61.76468"/>
	<rect x="855.96997" y="640.95966" class="st8" width="227.73108" height="61.76468"/>
	<polyline class="st9" points="874.35333,944.16577 958.6825,802.91443 1031.41638,891.46002 1106.25854,766.02045 
		1191.64172,826.10498 1263.32153,704.64398 	"/>
	<line class="st9" x1="861.84955" y1="964.55969" x2="1286.06348" y2="964.55969"/>
	<line class="st9" x1="861.84955" y1="1002.76965" x2="1286.06348" y2="1002.76965"/>
	<line class="st9" x1="861.84955" y1="1035.78101" x2="1097.87903" y2="1035.78101"/>
	<circle class="st9" cx="1068.8374" cy="1160.63855" r="46.63873"/>
	<g>
		<path class="st10" d="M1430.91235,965.51068h-83.57263l9.40698-42.98065c2.93726-15.5675,16.53711-26.84131,32.37927-26.84131
			h0.00012c15.84216,0,29.44202,11.2738,32.37927,26.84131L1430.91235,965.51068z"/>
		<path class="st11" d="M1538.74951,1286.78333h-296.42114c-5.75562,0-10.59021-4.46643-10.18152-9.42969l25.48572-309.5105
			c0.43066-5.22992,4.6709-9.09814,9.99268-9.09814h229.86243c5.32178,0,9.75024,3.86823,10.43542,9.09814l40.54895,309.5105
			C1549.12231,1282.31689,1544.50513,1286.78333,1538.74951,1286.78333z"/>
	</g>
	<circle class="st12" cx="1117.11755" cy="504.31042" r="18.6586"/>
	<g>
		<polygon class="st0" points="1115.52002,510.98627 1128.11169,498.39447 1125.13745,495.42032 1115.52002,505.03775 
			1109.09778,498.61539 1106.12354,501.58954 		"/>
	</g>
	<circle class="st8" cx="1117.11755" cy="585.43463" r="18.6586"/>
	<g>
		<polygon class="st11" points="1115.52002,592.11041 1128.11169,579.51868 1125.13745,576.54449 1115.52002,586.16193 
			1109.09778,579.73956 1106.12354,582.71375 		"/>
	</g>
	<circle class="st8" cx="1117.11755" cy="671.84198" r="18.6586"/>
	<g>
		<polygon class="st11" points="1115.52002,678.51782 1128.11169,665.92603 1125.13745,662.9519 1115.52002,672.56927 
			1109.09778,666.14697 1106.12354,669.12109 		"/>
	</g>
	<path class="st12" d="M1230.71558,446.41547l-21.36133,0.05396l10.44043-8.5466
		C1222.62854,441.61264,1226.38354,444.55783,1230.71558,446.41547z M1266.64233,421.2988
		c0,13.90137-11.26929,25.17062-25.17053,25.17062c-13.90137,0-25.17065-11.26926-25.17065-25.17062
		c0-13.90134,11.26929-25.17059,25.17065-25.17059C1255.37305,396.1282,1266.64233,407.39746,1266.64233,421.2988z
		 M1260.25488,421.2988c0-10.3736-8.40955-18.78305-18.78308-18.78305c-10.37366,0-18.78308,8.40945-18.78308,18.78305
		s8.40942,18.78305,18.78308,18.78305C1251.84534,440.08185,1260.25488,431.67239,1260.25488,421.2988z M1240.23816,429.75476
		l10.58264-16.91193l-11.48157,12.11752l-7.21655-5.70499L1240.23816,429.75476z M1295.77258,391.54727
		c-0.24377-0.65091-0.96912-0.98093-1.62-0.73715c-0.33826,0.12671-0.58875,0.38388-0.71814,0.6926
		c-4.32861,0.38947-7.57288,1.7915-9.6521,4.17676c-0.38013,0.43607-0.70032,0.88165-0.97021,1.32568
		c-0.14636-0.04993-0.25549-0.08575-0.29822-0.09836c-0.77063-0.22778-2.30286-0.7894-4.10767-0.80402
		c0.1803-0.93106,0.46655-2.01865,0.92078-3.11816c1.43628-3.47678,3.86853-5.59113,7.23865-6.29825
		c0.2301,0.25174,0.56018,0.41064,0.9281,0.41064c0.69507,0,1.25854-0.56345,1.25854-1.25851s-0.56348-1.25854-1.25854-1.25854
		c-0.59619,0-1.09436,0.41504-1.22437,0.97162c-3.71301,0.80493-6.47864,3.21051-8.0415,7.01981
		c-0.53223,1.29745-0.84668,2.56189-1.03284,3.60843c-0.14612,0.02042-0.29321,0.04486-0.44116,0.07443
		c-7.05676,1.40964-10.12622,8.54868-8.48364,19.72626c0.33948,1.72031,0.51794,3.49841,0.51794,5.3183
		c0,7.06354-2.68115,13.50082-7.08105,18.34995c-0.97229,1.09818-2.04395,2.10684-3.20361,3.00748
		c-1.9292,1.5405-4.07166,2.82529-6.3761,3.80249c0.03088,0.00668,0.06018,0.01083,0.08948,0.01068
		c4.00012-0.66376,7.81812-2.07779,11.42126-4.16153c10.0498-5.40802,11.58582-13.49951,14.84937-26.06882
		c1.198-4.61404,3.80994-9.16956,8.16858-12.02374c3.4021-2.22781,1.50208-4.22842-0.03271-5.33411
		c-0.28821-0.2077-1.66296-0.98251-2.2981-1.29919c-0.09998-0.04819-0.23389-0.10489-0.38403-0.16464
		c0.21252-0.33051,0.45703-0.66006,0.7395-0.98242c1.87439-2.13971,4.8512-3.40289,8.85657-3.76328
		c0.31384,0.48654,0.93372,0.707,1.49805,0.49564C1295.68628,392.92349,1296.01636,392.19818,1295.77258,391.54727z"/>
</g>
<g id="Calque_3">
	<path class="st13" d="M864.79712,382.84528c-2.53998,2.92999-10.11713,4.64471-13.4071,7.47473
		c-0.37-0.76001-0.59003-1.59003-0.63-2.44c-0.04999-1.13,0.20996-2.28003,0.72998-3.28003
		c0-0.01001,0.01001-0.01001,0.01001-0.02002c1.96997-1.95996,4.77002-2.96997,7.53998-3.15997
		c0.42999-0.02997,4.64093-1.70236,5.03094-1.70236L864.79712,382.84528z"/>
	<path class="st14" d="M550.97998,1176.10999c-0.29999,0.05994-0.48285,0.97278-0.80286,0.93286
		c-0.96997-0.12-2.0824,1.26477-2.91241,0.76477c-1.90997-1.13013-3.78998-2.39014-5.91998-3.04004
		c-1.78998-0.54004-3.75281,2.75256-5.6228,2.79248c-3.94,0.07007-7.87,0.7301-11.63,1.91016
		c-1.90002,0.59985-3.49005-2.20203-5.29004-1.34192c-0.90002,0.42993-1.35498,0.92688-2.21497,1.42688
		c-0.37,0.21008-1.2569-2.21521-1.61694-1.99512c-0.38995-0.77002-0.40997-1.69006-0.41998-2.56006
		c-0.10999-7.8501-0.21997-15.71997-0.33002-23.57007c0.56006-0.11987,1.05115-3.17114,1.61115-3.27112
		c10.83997-2.02002,21.79889-0.77881,32.72888-2.16882c0.09998,9.75,1.97998,19.59998,2.40002,29.40991
		C550.96997,1175.64001,550.97998,1175.87,550.97998,1176.10999z"/>
	<path class="st15" d="M567.57001,1016.59003l0.02997,0.45996c0.57001,7.49005,1.32001,14.77997,1.90002,22.26996
		c0.56,7.37,1.13,14.7301,1.70001,22.1001c1.5,19.57996,3.01996,39.20996,6.64996,58.51001
		c1.51001,8.00989,4.48004,14.83997,3.05005,22.87c-10.81,0.75-21.59003,1.81995-32.34003,3.18994
		c-10.92999,1.39001-21.82001,3.08997-32.65997,5.10999c-0.56,0.09998-1.12,0.21008-1.68005,0.33008
		c-4.03998,0.80994-8.09998,1.73999-12.11996,0.94995c-1.09-8.51001-2.07001-17.04004-3.05002-25.56006
		c-2.03-17.55994-3.89999-34.7699-5.91998-52.32996C501.24423,1058.67273,567.57001,1016.59003,567.57001,1016.59003z"/>
	<path class="st16" d="M412.18185,1062.24866c-1.06802-2.00427-3.0723-3.48364-5.30231-3.91382
		c-0.62454-0.12036-1.26743-0.16248-1.89838-0.08215c-2.57794,0.328-4.77847,3.25073-6.36847,5.30627l-2.42188,4.13428
		l-0.48499,2.10156l0.64664,1.41455l4.28397,0.48499l3.59692-1.13171l2.74823-1.61658l1.93991-1.53577l1.09122-1.41455
		l0.88913-1.04285l0.68704-0.73535L412.18185,1062.24866z"/>
	<path class="st17" d="M682.73999,806.51001c0,6.65997-0.20001,13.32996-0.70001,19.96997
		c-0.73999,9.87-2.14996,19.67999-3.82996,29.44c-0.95001,5.51001-2.04004,11-3.05005,16.51001
		c-0.32996,1.79999-0.26996,3.40997,0,5.21002c0.13,0.87,0.21002,1.72998,0.19,2.59998c-0.08997,4.54999-0.56,9.15002-0.89996,13.69
		c-0.21002,2.64001-0.48004,5.27997-0.96002,7.89001c-0.42999,2.35999-1.27997,4.65997-1.5,7.04999
		c-0.14001,1.45001,0.06,2.94-0.20001,4.39001c-0.15997,0.87-0.47998,1.69995-0.87,2.48999
		c-1.88,3.79999-5.01001,6.95996-8.07996,9.81c-5.12006,4.73999-10.40002,9.32001-15.82001,13.72998
		c-3.97003,3.22003-8.04004,6.38-11.40002,10.22998c-3.21997,3.68005-5.73999,7.92004-8.95001,11.61005
		c-8.70001,10-21.84998,15.22998-30.69,25.10999c-5.47998,6.10999-9.91998,12.65002-15.47998,18.69
		c-4.40997,4.77997-7.01001,8.98999-12.92999,11.65997c-27.51001,17.68005-48.66998,37.77002-74.44,57.90002
		c-9,7.23999-18.01001,14.48999-27.01001,21.72998c-3.02997,2.43994-6.21997,4.85999-9.88,6.29004
		c-5.98999,2.34998-12.33002,0.3999-16.46997-4.75c-0.56-0.68994-1.04004-1.43005-1.47003-2.20996
		c-0.60999-1.07007-24.44302,7.19141-24.923,6.05139c-1.47003-3.44995,0.29517-5.56372-0.71484-9.17371
		c-1.42999-5.07996,1.57224-14.646,1.07224-19.896c-0.22998-2.46008,7.7514-8.3916,8.10138-10.84155
		c0.10004-0.75,6.50702-4.14392,6.65704-4.8739c0.09998-0.5,0.12-1,0.12-1.5c-0.01001-1.45996,1.77722-3.52625,1.71722-4.98633
		c-0.07001-1.40002-0.13-2.78992-0.15002-4.18994c-0.04999-3.65002,0.15002-7.71008,2.75-10.27002
		c1.44-1.41003,3.41003-2.12,5.17999-3.08997c3.04999-1.66003,5.59003-4.12012,8.08002-6.55005
		c13.63-13.27997,27.44-26.22998,39.73999-40.73999c-2.02002-21.71002-3.45001-43.47998-4.27002-65.27002
		c-0.21997-5.89996-0.39996-11.78998-0.62994-17.67999c-0.51001-13.07001-1.28003-26.15997-3.35004-39.08002
		c-0.46997-2.94-1.38-5.96997-1.40997-8.94c-0.02002-1.91998,0.44-3.75,0.23999-5.67999
		c-0.63-6.01001-2.13-12.02997-3.16003-17.98999c-1.41998-8.14001-2.76996-16.29999-4.01996-24.46997
		c-2.5-16.34003-4.59003-32.73999-5.91003-49.22003c-0.82996-10.45996-1.56-24.03998-1.32996-35
		c6.83997-2.23999,13.59998-4.82001,20.64996-6.32001c2.42999-0.51001,5.03003-1.10999,7.51001-0.95996
		c0.82001,0.04999,1.64001,0.04999,2.46002,0.09998c3.28998,0.19,6.57001,0.59998,9.82996,1.08002
		c6.52002,0.97998,13,2.27997,19.57001,2.81c4,0.33002,8.03003,0.34998,12.01001-0.17999
		c1.29999-0.17999,2.59003-0.39001,3.89001-0.58002c1.66998-0.23999,3.33002-0.47998,5-0.72998
		c3.33002-0.48999,6.65997-1.02002,9.96997-1.62c6.61005-1.20001,13.17999-2.70001,19.56-4.82001
		c0.86005-0.29004,1.72003-0.59003,2.57001-0.90002c2.5-6.47998,1.37-13.33002,1.17004-20.27002
		c-0.02002-0.40997-0.02002-0.81-0.03003-1.21997c-0.04999-5.15002,0.53998-10.28003,1.14001-15.39001
		c0.48999,5.58002,1.33997,11.13,2.54999,16.60999C581.37,696.31,583.31,702.75,585.72998,709
		c0.15002,0.39001,0.33002,0.81,0.71002,1c0.31,0.14996,0.67999,0.09998,1.02997,0.03998
		c4.20001-0.69,8.40002-1.46002,12.62006-2.07001c0.58997-0.08997,1.12-0.06,1.71997-0.01001
		c1.37,0.12,2.83002-0.48999,4.14001-0.84998c3.13-0.85999,6.22998-1.81,9.31-2.81c6.17999-1.97998,12.31-4.14001,18.5-6.10999
		c6.13-1.95001,12.33997-3.73004,18.66998-4.95001c4.10004-0.78998,8.25-1.34003,12.41998-1.56
		c3.71002-0.19,7.42004-0.25,11.09003-0.16003c-0.06,2.99005-0.15997,6.62006-0.22003,8.65002v0.07001
		c-0.06,2.56,0.46002,5.02002,0.68005,7.58002c0.73999,8.39996,1.39996,16.81,1.98999,25.21997
		c0.77997,11.31,1.44,22.62,1.95996,33.94c0.13,2.83002,0.25,5.66003,0.36005,8.48999c0.10999,2.67999-0.04004,5.51001,0.38,8.17004
		c0.25995,1.63995,1.08997,3.07996,1.22998,4.75995C682.84003,794.38,682.73999,800.51001,682.73999,806.51001z"/>
	<path class="st18" d="M664.3595,277.89423c-4.21466,7.2319-11.0274,12.91922-18.89392,15.78079
		c-4.03497,1.47275-8.30945,2.21509-12.55994,2.80176c-7.39948,1.04169-15.09833,1.64035-22.19843-0.69446
		c-0.89801-0.29932-1.78406-0.64651-2.51447-1.24521c-0.94586-0.79019-1.49664-1.93967-2.16718-2.98132
		c-2.37067-3.74765-6.21411-6.29797-9.14752-9.62656c-2.94543-3.32855-4.96893-8.27353-2.82574-12.15286
		c1.19733-2.17914,3.47229-3.55609,5.78314-4.466c1.89178-0.75433,3.8913-1.25726,5.91479-1.50864
		c2.78979-0.35928,5.41193-0.09583,8.15381,0.33521c3.30463,0.51483,6.76489,0.15564,10.08148,0.09579
		c8.75244-0.16763,17.52887-0.33527,26.14966-1.81995c2.63416-0.44302,5.28021-1.02969,7.96222-0.89801
		c2.6701,0.13168,5.43591,1.07764,7.11212,3.16098C668.17896,268.32758,666.74219,273.83533,664.3595,277.89423z"/>
	<path class="st19" d="M565.16998,252.37c-0.84998-0.2-1.64996-0.53999-2.35999-1.06c-0.73999-0.53999-1.35999-1.23999-1.92999-1.97
		c-3.79999-4.89-5.72003-11.20999-5.26001-17.39c0.19-2.58,0.77002-5.17,0.34003-7.70999
		c-0.39001-2.29001-1.57001-4.37001-2.15002-6.63c-0.98999-3.89999-0.03998-8.14999,2.03998-11.60001
		c0.98004-1.62,2.21002-3.09,3.58002-4.39999c0.54999-0.53999,1.13-1.14999,1.83002-1.50999c0.60999-0.31001,1.12-0.58,1.66998-1
		c0.85999-0.67001,1.81-1.23001,2.82001-1.67001"/>
	<path class="st19" d="M687.97839,217.08496c-0.01996,0.5-5.13007,2.07596-5.16003,2.58597
		c-0.31,5.94995-0.99493,6.96982-1.30493,12.92984c-0.02002,0.51001,0.67645,5.1468,0.64648,5.65681
		c-0.21002,3.92004-4.75354,6.61554-5.33356,10.50549c-0.19995,1.35004,19.39362,4.45689,19.09363,5.78691
		c2.22003-1.34003,4.37-2.78998,6.45001-4.34998c0.79999-0.60004,1.59998-1.22003,2.23999-2
		c0.70001-0.85004,1.19-1.86005,1.59003-2.90002c3.38-8.65002,1.02997-18.32001,0.15997-27.57001
		c-0.23999-2.51001-0.35999-5.02002-0.37-7.53998c-0.01001-1.52002-0.07001-3.27002-1.26001-4.23004
		c-0.5-0.39996-1.13-0.59998-1.75-0.75995c-1.13995-0.30005-2.28998-0.53003-3.44995-0.69
		c-0.05005,0.70996-9.24896,4.12704-9.28894,4.81705c-0.19,3.67999,0.20001,3.59299,0,7.27304"/>
	<path class="st18" d="M699.46997,201.76996c0.18787,5.27686,0.01874,10.62674-0.66998,15.87006
		c-0.14453,1.10037-0.59686,1.99838-0.73425,1.54265c-2.10468,11.14189-2.88129,24.30722-11.63092,32.18393
		c-5.21753,3.30846-13.49438,5.76588-18.90405,8.84425c-9.49774-0.2016-20.01624-5.66737-29.73932-5.66086
		c-13.51978-0.99126-25.57684,0.73489-38.55682,4.65488c-6.9668,3.02664-18.65277-0.08563-23.3913-6.30579
		c-9.02466-11.30452-10.09332-25.19073-10.96332-40.82907c1.43152-28.06279-0.87469-63.35498,27.41138-79.43954
		c20.37463-13.40176,48.58826-20.72147,71.63849-10.12154c10.73834,5.60983,23.04578,11.18365,28.3302,22.79082
		C701.22919,162.5865,698.97461,183.00237,699.46997,201.76996z"/>
	<path class="st20" d="M704.10999,591.51001c-0.01001,0.5-0.01996,1-0.02997,1.5"/>
	<path class="st20" d="M704.90002,578.35999c-0.03003,0.29004-0.05005,0.57001-0.07001,0.85999"/>
	<path class="st11" d="M939.78003,347.22998c-1-3.62-2.17004-7.25-4.01001-10.53998c-0.90002-1.61005-1.97003-3.13-3.23999-4.47003
		c-0.32001-0.33997-0.53003-0.56-0.72003-0.95996c-0.62-1.33002-1.51001-2.5-2.52002-3.58002
		c-2.12-2.26001-4.75-3.98999-7.46997-5.44c-0.14001-0.07001-0.28003-0.14001-0.41003-0.21002
		c-6.25995-3.22998-13.23999-5.16998-20.27997-5.13995c-7.03998,0.01996-14.14001,2.08997-19.82001,6.25
		c-0.70001,0.50995-1.41998,0.78998-2.15997,0.89996c-3.01001,0.44-6.35004-1.79999-9.85004-1.79999
		c-3.62-0.01001-7.20001,0.69-10.81,0.78998c-3.79999,0.11005-7.58002-0.44-11.38-0.58997
		c-9.39996-0.39001-18.71997,1.59998-27.90997,3.57996c-18.04999,3.89001-36.41998,3.27002-54.88,2.91003
		c-4.79999-0.09003-9.62-0.26001-14.41003,0.09998c-4.31,0.33002-8.56995,1.09003-12.84998,1.63
		c-3.31,0.41998-6.64001,0.71002-9.96997,1c-1.89001,0.16003-3.77002,0.33002-5.66003,0.48999
		c-1.58997,0.14001-25.72565,2.29755-27.31567,2.29755c-0.5,0-0.90002-0.13-1.37-0.23999c-1.37-0.30005-3.01001,0.10999-4.33002,0.5
		c-0.21997,0.23999-0.45001,0.47998-0.67999,0.71997c1.06,1.33002,3.22229,9.26752,3.25226,10.94751
		c0.02002,1.22998-3.88519,4.52179-4.2652,5.70178c-5.15002,16.13-5.43011,18.49506-15.07013,32.4151
		c-5.60999,8.10999-6.05768,9.871-9.66766,19.05099c-0.33002,0.83002,10.65643,10.41708,9.79645,10.67709
		c-0.53003,0.17004-1.10004,0.01001-1.63-0.14996c-12.18005-3.65002-23.07001-10.84003-35.27002-14.45001
		c-1.5-0.45001-3.06-0.87-4.54999-1.41998c-0.06,0.02997-0.13,0.04999-0.19,0.06995c-2.98004,1-6.10999,1.80005-9.23004,1.98004
		h-0.00995c-0.08002,0.06-0.17004,0.10999-0.26001,0.15997c-0.10004,0.06-0.21002,0.12-0.31,0.16998
		c-13.73999,7.26001-14.58002-8.70477-28.32001-1.45477c-0.16998-5.37-15.85999,12.89478-19.22998,8.70477
		c-1.79004-2.23999,0.46393-14.49142-1.47607-16.5914c-1.06-1.14001-7.74219-10.54691-10.18219-13.68692
		c-3.58002-4.60999-5.10626-6.72333-8.48627-11.48334c-0.96997-0.67999-1.94-1.37-2.89001-2.07001
		c-10.66998,3.32001-31.40546,9.8017-42.06549,13.1217c-12.16998,3.78998-24.45001,7.64001-35.46997,14.02997
		c-2.61005,1.52002-5.15002,3.17004-7.89001,4.44c-3.12,1.44-6.47003,2.37-9.45001,4.08002
		c-3.90002,2.23999-6.35999,6.48999-8.37,10.41998c-1.52002,2.95001-2.76001,6.04004-3.85999,9.17004
		c-2.56,7.25-4.37,14.73999-6.19,22.20996c-2.54999,10.52002-4.91998,21.10999-7.65002,31.58002
		c-0.19,0.71997-0.56,1.22998-0.89001,1.88c-0.42999,0.87-0.60999,1.91998-0.87,2.85999
		c-1.13995,4.10999-2.21997,8.23999-3.25995,12.38c-2.07001,8.28003-3.93005,16.62-5.58002,25
		c-1.65002,8.38-3.08002,16.79999-4.31,25.25c-0.33002,2.29999-0.54004,4.64001-0.95001,6.92999
		c-0.07001,0.37-0.15997,0.72003-0.31,1.07001c-0.28998,0.72003-0.48999,1.33002-0.59003,2.10999
		c-0.26996,2.23999-0.52997,4.48004-0.78998,6.71002c-0.53003,4.46997-1.04999,8.94-1.58002,13.40997
		c-0.57996,4.92004-1.15997,9.84003-1.73999,14.76001c-0.46997,4-0.95001,8.01001-1.10999,12.04004
		c-0.41998,10.03998,1.08002,20.03998,2.83997,29.89996c0.32001,1.79999,0.06,3.34003,1.16003,4.85004
		c1.91998,2.64996,4.89996,4.41998,7.98999,5.33997c3.87,1.15002,7.97998,1.13,12.02002,1.06c6.33997-0.13,12.66998-0.38,19-0.76001
		c1.12-0.07001,2.19,0.16003,3.32996,0.13c2.64001-0.07001,5.29004,0.04004,7.92004,0.32001c0.03998,0,0.04999,0.28003,0.04999,0.75
		c2.77002-0.32001,5.53998-0.64001,8.31-0.96997c11.51001-1.36005,23.01001-2.81,34.5-4.33002
		c11.48999-1.53003,22.96997-3.14001,34.42999-4.83002c5.72998-0.83997,11.46002-1.70996,17.19-2.59998
		c1.42999-0.22003,2.85999-0.52002,4.29999-0.66003c1.20001-0.13,2.45001-0.02997,3.67004-0.07001
		c3.38995-0.12,6.76996-0.28998,10.14996-0.50995c14.10004-0.94,28.12-2.84003,41.96002-5.69
		c-0.17999-2.37-0.33002-4.73004-0.45001-7.08002c-0.84998-15.53003-0.73999-30.66998-1.59998-46.21002
		c0.31995,0,0.63995-0.02997,0.95996-0.07996c1.29004-0.20001,2.44-0.26001,3.76001-0.20001
		c3.48999,0.14996,7.03003-0.17999,10.38-1.23999c4.34003-1.38,8.34998-4.07001,10.84003-7.88
		c3.29999-5.04999,3.69995-11.54004,6.81995-16.69c1.55005-2.56,3.38-5.19,4.01001-8.17004
		c0.42999-2,0.79004-4.01996,1.09003-6.03998c0.60999-4.04999,0.95996-8.13,1.07001-12.21997
		c0.02997-1.17999,0.03998-2.35004,0.01996-3.53003c0-0.75-0.12-1.54999-0.02997-2.28998c0.02997-0.25,0.12-0.46002,0.33997-0.60004
		c0.5-0.33997,1.35004-0.26996,1.92004-0.25c1.5,0.07001,2.95996,0.54004,4.25,1.29004
		c1.57996,0.91998,2.94,2.26001,3.85999,3.84998c1.70001,2.95001,2.02002,6.51001,1.48999,9.83002
		c-0.12,0.69-0.22998,1.33002-0.56,1.94c-0.37,0.70996-0.45001,1.63-0.65002,2.39996c-0.45996,1.73004-0.98999,3.44-1.37994,5.19
		c-1.03003,4.65002-0.96002,9.52002,0.14996,14.15002c0.22998,0.95001,0.54999,1.88,0.78003,2.84003
		c0.04999,0.25,0.07996,0.51996,0.19,0.75c0.57996,1.17999,2.77997,1.83997,3.91998,2.29999
		c3.28998,1.32001,6.82001,1.94,10.33997,2.21997c3.75,0.29004,7.52002,0.20001,11.27002,0.07001
		c0.66003-0.02002,1.34003-0.04999,1.91998-0.35999c0.64001-0.34003,1.06-0.98999,1.49005-1.59003
		c1.19-1.67999,2.59998-3.21997,4.17999-4.53998c0.64996-0.53998,1.34998-1.04999,2.17999-1.17999
		c1-0.16003,2,0.27997,2.91998,0.70996c2.22998,1.04004,4.63,2.26001,6.04999,4.17004
		c0.31-4.97003,0.61005-9.92999,0.91003-14.90002c0.57996-9.51001,1.15997-19.03998,2.52997-28.46997
		c1.25-8.65002,3.29999-17.11005,5.25-25.62c0.28003-1.20001,0.41003-2.38,0.53003-3.60004
		c0.16998-1.81,1.01996-3.22998,1.97998-4.64001c0.02002-0.00995,0.02002-0.01996,0.02002-0.02997
		c0.39001-0.54999,0.78998-1.10999,1.17999-1.67999c3.47998-5.17004,6.58002-10.57001,9.71002-15.96002
		c5.48999-9.45001,11.12-18.98999,18.90997-26.76001c6.17999-6.15997,13.51001-11.01001,20.78998-15.81
		c27.45001-18.13,59.15002-30.38,89.98999-41.81c-2.60999,4.32001-5.35999,8.76001-7.75,13.21002
		c0.09003-0.10004,0.17004-0.17999,0.27002-0.27002c0-0.01001,0.01001-0.01001,0.01001-0.02002
		c1.96997-1.95996,4.77002-2.96997,7.53998-3.15997c0.42999-0.02997,0.83002-0.04999,1.22003-0.04999H860.5
		c1.13,0.02002,2.12,0.20996,3.15002,0.87c1.02997,0.65002,2.22998,1.02997,3.31995,1.58997
		c2.33002,1.20001,4.48004,2.73004,6.43005,4.48004c0.89996,0.79999,1.75995,1.64996,2.57996,2.52997
		c1.58002,1.71002,3,3.55005,4.31,5.47003c1.35004,1.98999,4.82001,7.48999,5.32001,8.13c1.12,1.40997,1.87,3.07996,2.57001,4.73999
		c0.82001,1.92999,1.59003,3.91998,2.13,5.95001c0,0.01001,0.01001,0.01996,0.01001,0.02997
		c0.45001,1.73004,0.72998,3.5,0.70001,5.29004c-0.06,3.90997-1.86005,8-5.31,9.81h0.02997c0,0,0.01001,0,0.02002-0.01001
		c4.31-0.32001,8.27002-3.79004,11.33997-6.85004c5.47003-5.45996,10.93005-10.91998,16.40002-16.37
		c1.37-1.37,2.65997-2.91998,4.22998-4.04999c0.47003-0.34998,0.81-0.90002,1.17999-1.35999
		c1.66003-2.07001,3.30005-4.16003,4.90002-6.28003c3.20001-4.21997,6.23999-8.57001,8.79999-13.20996
		c2.52002-4.56,4.58002-9.41003,5.76001-14.5c0.16003-0.66003,0.29999-1.33002,0.42999-2
		c0.76001-4.07001,2.46002-7.54004,2.27002-11.67999C940.96002,351.66998,940.39001,349.42999,939.78003,347.22998z
		 M583.37,610.66998c-2.41998,0-4.44-1.67999-4.95001-3.94c-0.08997-0.37-0.13-0.75-0.13-1.14001
		c0-2.79999,2.27002-5.07001,5.08002-5.07001c2.79999,0,5.08002,2.27002,5.08002,5.07001
		C588.45001,608.39996,586.16998,610.66998,583.37,610.66998z M615.64001,538.76001c-3.81,0-6.90002-3.09003-6.90002-6.90002
		c0-3.79999,3.09003-6.89001,6.90002-6.89001s6.89001,3.09003,6.89001,6.89001
		C622.53003,535.66998,619.45001,538.76001,615.64001,538.76001z M628.64001,421.16998c-3.81,0-6.90002-3.08002-6.90002-6.89001
		s3.09003-6.89996,6.90002-6.89996c3.79999,0,6.89001,3.08997,6.89001,6.89996S632.44,421.16998,628.64001,421.16998z"/>
	<g>
		<path class="st21" d="M527.96649,453.6925c-3.21851,3.79257-5.8844,8.02731-7.90222,12.55399
			c-2.05994,4.50806-3.64087,9.22113-4.92645,14.01025c-1.28973,4.78934-2.39722,9.63028-3.47366,14.48593
			c-1.08722,4.85431-2.20779,9.70432-3.38638,14.539c-2.43103,9.65118-5.00247,19.26868-7.86609,28.80005
			c-2.85229,9.53418-5.93387,18.99902-9.2933,28.36316c1.47461-4.75079,2.96393-9.49487,4.37384-14.263
			c1.44467-4.75714,2.83627-9.52985,4.18091-14.31519c2.70752-9.56512,5.28299-19.16699,7.63492-28.82449
			c1.20639-4.82147,2.35428-9.65588,3.47028-14.50067c1.11972-4.8439,2.20947-9.70837,3.62256-14.49265
			c1.38232-4.78879,3.0553-9.51163,5.22278-14.01068C521.80353,461.55154,524.578,457.33615,527.96649,453.6925z"/>
	</g>
	<g>
		<path class="st21" d="M598.06213,565.04614c-0.1153,2.354-0.23511,4.70355-0.26239,7.05536
			c-0.06061,2.34991-0.06525,4.70001-0.00641,7.04755c0.10187,4.69531,0.36548,9.38226,0.89893,14.04865
			c0.44598,4.67554,1.11005,9.33508,1.66266,14.01263l0.81403,7.0174c0.23511,2.34406,0.50427,4.68347,0.70935,7.03156
			c-0.42975-2.31757-0.79541-4.64386-1.19513-6.96545l-1.09045-6.9798c-0.71014-4.65417-1.36743-9.32104-1.89398-14.01337
			c-0.45306-4.69904-0.73395-9.42542-0.67108-14.14783C597.0802,574.43097,597.40356,569.71375,598.06213,565.04614z"/>
	</g>
	<g>
		<path class="st21" d="M469.07999,571.5c5.95755-0.9549,11.94412-1.73846,17.94382-2.40179
			c6.00159-0.64667,12.01675-1.15637,18.03223-1.63672c12.03223-0.94403,24.07031-1.73541,36.10516-2.61127l18.04156-1.23218
			c1.48596-0.14612,3.00952-0.36523,4.57965-0.28741c0.39178,0.02527,0.78534,0.0567,1.17688,0.12988
			c0.40082,0.06476,0.77753,0.17548,1.11548,0.23895c0.70355,0.13934,1.42285,0.18091,2.15717,0.16553
			c3.00555-0.07489,6.01837-0.20056,9.02399-0.37695c12.03217-0.64807,24.01886-2.09741,35.89758-4.1933l0.09833-0.0174
			l0.00476,0.09619l0.33344,6.71649l-0.50665-6.70337l0.10291,0.07867c-11.81915,2.46228-23.82495,4.02936-35.87897,4.86365
			c-3.01605,0.19318-6.03125,0.3324-9.0564,0.42261c-0.77258,0.02026-1.56818-0.02014-2.34607-0.17065
			c-0.4032-0.07587-0.7525-0.17792-1.09711-0.23004c-0.35046-0.06445-0.71057-0.09106-1.07092-0.11279
			c-1.44995-0.06665-2.92944,0.14764-4.44037,0.30554c-6.04547,0.46088-12.04193,0.88446-18.06812,1.28711l-36.1189,2.37024
			c-6.0191,0.38641-12.03317,0.83105-18.04034,1.35968C481.06009,570.06934,475.06024,570.69836,469.07999,571.5z"/>
	</g>
	<path class="st22" d="M635.53003,414.27997c0,3.81-3.09003,6.89001-6.89001,6.89001c-3.81,0-6.90002-3.08002-6.90002-6.89001
		s3.09003-6.89996,6.90002-6.89996C632.44,407.38,635.53003,410.46997,635.53003,414.27997z"/>
	<path class="st22" d="M622.53003,531.85999c0,3.81-3.08002,6.90002-6.89001,6.90002s-6.90002-3.09003-6.90002-6.90002
		c0-3.79999,3.09003-6.89001,6.90002-6.89001S622.53003,528.06,622.53003,531.85999z"/>
	<path class="st22" d="M606.53998,653.5c0,3.79999-3.08997,6.89001-6.89996,6.89001c-3.79999,0-6.89001-3.09003-6.89001-6.89001
		c0-3.81,3.09003-6.90002,6.89001-6.90002C603.45001,646.59998,606.53998,649.69,606.53998,653.5z"/>
	<path class="st23" d="M588.45001,605.58997c0,2.81-2.28003,5.08002-5.08002,5.08002c-2.41998,0-4.44-1.67999-4.95001-3.94
		c-0.08997-0.37-0.13-0.75-0.13-1.14001c0-2.79999,2.27002-5.07001,5.08002-5.07001
		C586.16998,600.51996,588.45001,602.78998,588.45001,605.58997z"/>
	<path class="st20" d="M588.46167,605.47522c1.61035-0.11517,3.2207-0.23029,4.83105-0.34546"/>
	<line class="st20" x1="572.5249" y1="606.72711" x2="578.28998" y2="606.24261"/>
	<path class="st24" d="M592.01001,561.59998c2-6.22998,3.84998-12.51996,5.53998-18.83997c2.63-9.81,4.87-19.72003,6.73004-29.71002
		c0.92999-4.98999,1.75995-10,2.48999-15.01999c0.34998-2.35001,0.97998-4.88998,0.90997-7.26999
		c-0.02002-0.71002-0.21997-1.37-0.32001-2.06c-0.32996-2.40002,0.31-4.99002,0.57001-7.35001
		c0.97998-9.05002,2.22003-18.07001,3.47003-27.08002c1.00995-7.31998,2.01996-14.62997,3.02997-21.94998
		c1.47998-10.75,3.34436-22.84482,6.56433-33.19482"/>
	<path class="st13" d="M885.71002,430.26001h0.02997c-0.78998,0.38995-1.63,0.62-2.5,0.48999
		c-0.71997-0.10004-1.38-0.45001-2-0.82001c-2.08997-1.23999-3.95001-2.85999-5.45996-4.76001
		c-0.74005-0.94-1.38-1.68231-2.28644-3.07254c0.90643-7.50183,5.00714-8.64783,9.40717-11.61786
		c0.27997-0.19,6.93927,5.04037,7.40924,4.65042c0,0.01001,0.01001,0.01996,0.01001,0.02997
		c0.45001,1.73004,0.72998,3.5,0.70001,5.29004C890.96002,424.35999,889.15997,428.45001,885.71002,430.26001z"/>
	<path class="st24" d="M874.40002,421.79999c-0.01001,0.05002-0.01001,0.10001-0.01001,0.15002"/>
	<g>
		<path class="st21" d="M859.52728,370.91171c2.67847-0.3945,5.32935,0.55423,7.78381,1.52231
			c2.47101,1.0033,4.9201,2.06805,7.31757,3.2514c4.77972,2.36993,9.37219,5.28781,13.16058,9.13098
			c1.87482,1.93188,3.50427,4.10831,4.81372,6.46381c1.29877,2.36148,2.26599,4.89108,2.96997,7.47659
			c0.69592,2.59,1.16235,5.22836,1.5141,7.87366c0.31897,2.65094,0.5274,5.30829,0.72607,7.96515
			c-0.65045-5.28314-1.29742-10.59531-2.78516-15.68378c-0.78003-2.52597-1.71045-5.01276-3.01117-7.30627
			c-1.2984-2.29056-2.9068-4.39841-4.75476-6.27594c-3.66614-3.80643-8.19867-6.68201-12.88922-9.14154
			c-2.34961-1.2366-4.76508-2.35315-7.20081-3.42398C864.77032,371.69263,862.21881,370.64148,859.52728,370.91171z"/>
	</g>
	<path class="st18" d="M890.31,415.13c-0.46997,0.38995-1.02002,0.82996-1.29999,1.01996
		c-4.40002,2.97003-9.41003,4.89001-14.62,5.80005c-3.40002,0.59998-6.90002,0.77997-10.35999,0.52997
		c-0.10004,1.77002,0.64996,3.47003,0.89996,5.22003c0.56,4.07996-1.34998,7.98999-3.75,11.32996
		c0.54999,2.29999,0.20001,4.70001-0.15997,7.04004c-0.38,2.50995-0.76001,5.01996-1.15002,7.52997
		c-1.02997,6.76001-2.52997,13.87,0.28998,20.10999c0,0,1.32001,4.55005,0.82001,6.10004
		c-0.39996,1.21997-1.40997,2.32001-2.33997,2.96997c-0.34003,0.23999-2.44,0.67999-2.71002,0.36005l-0.01001-0.01001V483.12
		c0.01001-0.01001,0.01001-0.02002,0.01001-0.03003c-0.01001,0-0.01001,0-0.01001,0.01001
		c-0.03998,0.04999-0.09998,0.17999-0.12,0.22998c0.02002-0.01996,0.04004-0.04999,0.07001-0.08997
		c0,0.02002-0.01001,0.03998-0.02002,0.06c-0.12,0.27997-0.10999,0.41998-0.03998,0.71002c0.28003,1.01996,0.62,2.02997,0.88,3.06
		c0.64001,2.50995,1.02997,5.5-0.72003,7.39996c-2.00995,2.17999-5.81,1.52002-7.93994-0.52997
		c-2.14001-2.04999-3.05005-5.02002-3.98004-7.82001c-2.59998-7.79999-6.14996-15.42999-9.51001-22.92999
		c0.65002,4.95996,1.31,9.90997,1.96002,14.85999c0.27002,2.07001,0.54999,4.15002,1.17999,6.13
		c0.56,1.77002,1.40002,3.41998,2.16003,5.10999c1.12994,2.47998,2.10999,5.03003,2.94,7.62
		c0.60999,1.90002,1.13995,3.91998,0.69995,5.87c-0.57001,2.51001-2.89996,4.52002-5.46997,4.72003
		s-4.16998-0.41003-5.23999-2.76001c-1.37-3.03003-3.12-5.85999-4.69-8.78998c-4.88-9.07001-8.07001-19.60004-11.17999-29.42004
		c-0.49005,5.17004-1.21002,10.32001-2.15002,15.42999c-0.12,0.67004-0.25,1.35004-0.17999,2.02002
		c0.06,0.62,0.27997,1.22003,0.46997,1.82001c0.52002,1.59998,0.51001,3.34998,1.08002,4.91998
		c0.17999,0.48999,0.44,0.92999,0.64001,1.40002c0.14001,0.33997,0.25,0.67999,0.35999,1.02997
		c0.54999,1.87,1.07001,3.73004,1.90002,5.51001c0.51996,1.13,1.14996,2.22003,1.90997,3.21002
		c0.33002,0.44,0.69,0.79999,1.09003,1.17999c0.15997,0.15002,0.26001,0.27997,0.35999,0.48999
		c0.57001,1.19,0.77997,2.78003,0.77002,4.09003c-0.02002,1.67999-0.57001,3.40997-1.77002,4.58997
		s-3.09003,1.71002-4.64001,1.04999c-1.10999-0.46997-1.89996-1.44-2.65997-2.37994c-1.41003-1.77002-2.46002-4.42004-3.67999-6.38
		c-0.95001,2.44-2.93005,6.10999-4.77002,7.95996c-1.84003,1.85999-4.77002,2.90002-7.13,1.79999
		c-1.51001-0.70996-2.5-2.14996-2.96997-3.70996c-0.21002-0.69-0.48004-1.64001-0.28003-2.35999
		c0.09003-0.29004,0.27002-0.55005,0.35999-0.84003c0.72003-2.28003,1.07001-4.75,1.60004-7.09003
		c0.28998-1.31,0.58997-2.63995,0.50995-3.97998c-0.06995-1.12-0.39996-2.21002-0.45996-3.33002
		c-0.10004-1.94,0.64996-3.91998,2.02002-5.31c0.56995-0.57001,1.25-1.04999,1.68994-1.72998
		c0.90002-1.38,0.62006-3.19,0.32001-4.82001c-1.63-8.95001-2.23999-18.57001-2.52997-27.65997
		c6.64996-10.79999,14.20996-21.04004,22.57001-30.58002c2.56-2.91998,5.20996-5.78998,7.31-9.04999
		c2.03998-3.16003,3.54999-6.66998,5.87-9.63c2.88-3.66998,6.83997-6.31,10.65997-8.98999
		c1.95001-1.37,4.09003-3.04004,6.22003-4.87c3.28998-2.83002,6.57001-6.02002,9.10999-8.95001
		c1.13,0.02002,2.12,0.20996,3.15002,0.87c1.02997,0.65002,2.22998,1.02997,3.31995,1.58997
		c2.33002,1.20001,4.48004,2.73004,6.43005,4.48004c0.89996,0.79999,1.75995,1.64996,2.57996,2.52997
		c1.58002,1.71002,3,3.55005,4.31,5.47003c1.35004,1.98999,7.19,11.20996,7.89001,12.87
		C889,411.10999,889.77002,413.09998,890.31,415.13z"/>
	<path class="st24" d="M855.91998,483.13c0,0.01001-0.01001,0.01999-0.01001,0.03s-0.00995,0.03-0.01996,0.04001
		c0,0.00998,0,0.00998-0.01001,0.01999c0,0.01001,0,0.01001-0.01001,0.01999"/>
	<path class="st24" d="M855.92999,483.09v-0.01001c0.01001-0.00998,0.01001-0.00998,0.01001-0.00998"/>
	<path class="st24" d="M855.79999,483.32999c0,0.01001,0,0.01001,0,0.01001c0,0.01001-0.01001,0.01001-0.01001,0.01001"/>
	<path class="st24" d="M855.87,483.23999c0.01001-0.00998,0.01001-0.00998,0.01001-0.01999
		c0.01001-0.01001,0.01001-0.01001,0.01001-0.01999c0.01001-0.01001,0.01996-0.03,0.01996-0.04001
		c0.01001-0.01001,0.02002-0.01001,0.02002-0.01999"/>
	<g>
		<path class="st25" d="M803.61475,458.14804c1.38635-0.8381,2.89996-1.40295,4.44305-1.83832
			c1.54889-0.41425,3.13898-0.70087,4.75922-0.68558c-1.51868,0.55881-3.0412,0.96719-4.56451,1.39554
			C806.72345,457.42691,805.20538,457.85226,803.61475,458.14804z"/>
	</g>
	<g>
		<path class="st25" d="M822.20367,455.99252c0.922-0.67432,1.95245-1.11288,3.00696-1.46368
			c1.06122-0.32974,2.15448-0.57291,3.29712-0.55933c-0.99933,0.55142-2.03064,0.91525-3.0722,1.26031
			C824.38721,455.55383,823.33661,455.85785,822.20367,455.99252z"/>
	</g>
	<g>
		<path class="st25" d="M836.99438,449.8439c0.82544-0.52383,1.70923-0.83237,2.6073-1.08813
			c0.90387-0.23428,1.82239-0.41455,2.7998-0.37759c-0.82489,0.52551-1.70874,0.83383-2.60724,1.08813
			C838.88995,449.6991,837.97137,449.87915,836.99438,449.8439z"/>
	</g>
	<g>
		<path class="st25" d="M847.82123,445.33493c0.76941-0.60159,1.61792-0.99463,2.48578-1.33655
			c0.87579-0.32114,1.77142-0.5899,2.74689-0.64825c-0.76874,0.60324-1.61737,0.99606-2.48578,1.33658
			C849.69177,445.00638,848.79608,445.27496,847.82123,445.33493z"/>
	</g>
	<g>
		<path class="st25" d="M801.67145,484.3812c0.07172,2.43945,0.87305,4.746,1.91602,6.90356
			c1.05548,2.15771,2.2818,4.25372,3.46362,6.37384c1.14294,2.14029,2.31372,4.26526,3.43054,6.41992
			c1.11615,2.15497,2.22229,4.31549,3.25629,6.51559c-1.30237-2.0527-2.53265-4.14496-3.75293-6.24277
			c-1.2196-2.09814-2.38525-4.22595-3.57874-6.33847c-1.12567-2.14658-2.36462-4.2395-3.33252-6.49533
			c-0.47272-1.12943-0.88068-2.29242-1.15479-3.48926C801.67517,486.82635,801.55328,485.59293,801.67145,484.3812z"/>
	</g>
	<g>
		<path class="st25" d="M834.3175,500.12946c0.7312-0.65341,1.5274-1.12695,2.33826-1.58255
			c0.82135-0.43622,1.65045-0.84924,2.59668-1.10849c-0.63342,0.75113-1.41937,1.2933-2.24426,1.75482
			C836.17267,499.63538,835.29132,500.00217,834.3175,500.12946z"/>
	</g>
	<g>
		<path class="st25" d="M849.03491,488.19589c0.56152-0.49808,1.19525-0.78506,1.84668-1.02032
			c0.65857-0.2142,1.33533-0.37543,2.08484-0.32373c-0.56104,0.49976-1.19482,0.78653-1.84674,1.02032
			C850.46063,488.08493,849.78381,488.24594,849.03491,488.19589z"/>
	</g>
	<g>
		<path class="st25" d="M814.68774,506.47314c0.51324-0.57263,1.10284-0.95773,1.70758-1.31821
			c0.61694-0.34402,1.2356-0.64819,1.97644-0.84451c-0.39539,0.66644-0.99158,1.11523-1.60974,1.48285
			C816.12976,506.14227,815.45618,506.42059,814.68774,506.47314z"/>
	</g>
	<g>
		<path class="st25" d="M855.91998,483.12l-0.00128-0.0199l0.00006,0.00024c-0.93384-2.08444-1.70966-4.23328-2.57452-6.3306
			c-0.83844-2.10992-1.86566-4.1156-2.78552-6.23477c-0.88916-2.13632-1.34125-4.4595-1.51202-6.73206
			c-0.19214-2.28122-0.25238-4.5466-0.60669-6.80292c0.65491,2.19501,0.86243,4.49701,1.16956,6.74045
			c0.29041,2.25354,0.71271,4.4549,1.63031,6.51581c0.83765,2.08395,1.89856,4.1398,2.63196,6.31149
			c0.76227,2.159,1.40015,4.34369,2.04938,6.53171l0.00006,0.00064L855.91998,483.12z"/>
	</g>
	<g>
		<path class="st25" d="M861.24451,416.83667c0.97748,1.30829,1.65125,2.80942,2.1405,4.35706
			c0.46906,1.55383,0.7583,3.17389,0.68591,4.80576c-0.50525-1.54947-0.91205-3.07471-1.38934-4.58878
			C862.22449,419.89041,861.70148,418.40073,861.24451,416.83667z"/>
	</g>
	<g class="st26">
		<path class="st21" d="M716.45319,477.06149c0.88257-1.83893,1.60266-3.72559,2.17242-5.64584
			c0.26447-0.96576,0.54102-1.92844,0.69073-2.91718l0.2677-1.47226c0.05225-0.24518,0.05652-0.4545,0.08502-0.73145
			c0.01312-0.13358,0.02966-0.27457,0.05835-0.42291c0.01105-0.13013,0.11676-0.34616,0.12659-0.40454
			c0.34821-1.88824,0.71838-3.97571,1.25391-5.92648c0.52319-1.97598,1.22327-3.92276,2.19208-5.72083
			c-0.60889,1.94736-1.04108,3.91754-1.43182,5.89661c-0.17981,0.99332-0.37891,1.98206-0.52673,2.98563l-0.52905,3.04846
			c-0.05328,0.18811-0.0918,0.19113-0.11084,0.31686c-0.02124,0.10062-0.03674,0.21173-0.05017,0.33054
			c-0.02704,0.2272-0.04492,0.52759-0.10297,0.77899l-0.30878,1.51883c-0.20978,1.01071-0.5152,2.00046-0.87634,2.96494
			C718.65112,473.5943,717.6676,475.42188,716.45319,477.06149z"/>
	</g>
	<path class="st18" d="M704.90002,578.35999c-0.12,0.10999-0.19,0.23999-0.20001,0.40002
		c-0.01001,0.16998,0.03998,0.31995,0.13,0.45996v0.01001c0.09998,0.16003,0.23999,0.29999,0.37,0.44
		c3.12,3.23999,2.44,9.17999-1.09003,11.84003c-0.27997,0.20996-0.57001,0.39996-0.88,0.56
		c0.28003,0.29999,0.57001,0.60999,0.85004,0.94c1.21997,1.42999,2.32996,3.12,2.51001,4.88995
		c0.08997,0.84003-0.05005,1.70001-0.18005,2.54004c-0.21997,1.40997-0.44,2.82001-0.65997,4.22998
		c-0.08002,0.54999-0.19,1.15002-0.58002,1.54999c-0.17999,0.17999-0.38995,0.31-0.62,0.40002c-0.12,0.06-0.25,0.10999-0.37,0.15997
		c-3.21997,1.22003-6.64001,1.94-10.08002,2.12c-1.04999,0.06-2.12,0.20001-3.14996,0.04004
		c-1.53003-0.23004-3.08002-0.29004-4.63-0.23004c-3.13,0.11005-6.22003,0.67004-9.31,1.07001
		c-18.23999,2.38-36.89001-0.64996-55.09003,2.02002c-2.22998,0.32001-4.51001,0.72998-6.72998,0.5
		c-0.84998-15.53003-0.73999-30.66998-1.59998-46.21002c0.31995,0,0.63995-0.02997,0.95996-0.07996
		c1.29004-0.20001,2.44-0.26001,3.76001-0.20001c3.48999,0.14996,7.03003-0.17999,10.38-1.23999
		c4.34003-1.38,8.34998-4.07001,10.84003-7.88c3.29999-5.04999,3.69995-11.54004,6.81995-16.69
		c1.55005-2.56,3.38-5.19,4.01001-8.17004c0.42999-2,0.79004-4.01996,1.09003-6.03998
		c0.60999-4.04999,0.95996-8.13,1.07001-12.21997c0.02997-1.17999,0.03998-2.35004,0.01996-3.53003
		c0-0.75-0.12-1.54999-0.02997-2.28998c0.02997-0.25,0.12-0.46002,0.33997-0.60004c0.5-0.33997,1.35004-0.26996,1.92004-0.25
		c1.5,0.07001,2.95996,0.54004,4.25,1.29004c1.57996,0.91998,2.94,2.26001,3.85999,3.84998
		c1.70001,2.95001,2.02002,6.51001,1.48999,9.83002c-0.12,0.69-0.22998,1.33002-0.56,1.94
		c-0.37,0.70996-0.45001,1.63-0.65002,2.39996c-0.45996,1.73004-0.98999,3.44-1.37994,5.19
		c-1.03003,4.65002-0.96002,9.52002,0.14996,14.15002c0.22998,0.95001,0.54999,1.88,0.78003,2.84003
		c0.04999,0.25,0.07996,0.51996,0.19,0.75c0.57996,1.17999,2.77997,1.83997,3.91998,2.29999
		c3.28998,1.32001,6.82001,1.94,10.33997,2.21997c3.75,0.29004,7.52002,0.20001,11.27002,0.07001
		c0.66003-0.02002,1.34003-0.04999,1.91998-0.35999c0.64001-0.34003,1.06-0.98999,1.49005-1.59003
		c1.19-1.67999,2.59998-3.21997,4.17999-4.53998c0.64996-0.53998,1.34998-1.04999,2.17999-1.17999
		c1-0.16003,2,0.27997,2.91998,0.70996c2.22998,1.04004,4.63,2.26001,6.04999,4.17004c0,0.01001,0,0.01001,0,0.01001
		c0.41003,0.52997,0.72003,1.12,0.94,1.76996c0.87,2.63-1.9671,6.68933-2.05707,9.45935
		c-0.10004,3.04999,2.7771,4.77069,3.04706,7.81067c0.27002,3.03998-0.63995,6.58997-3.40997,7.88
		c-0.27002,0.13-0.59003,0.27002-0.78998,0.47998C704.89001,578.34998,704.89001,578.34998,704.90002,578.35999z"/>
	<path class="st24" d="M579.42224,625.51544c-1.88477,15.95837-2.69305,32.04382-2.41766,48.11078"/>
	<path class="st21" d="M700.78998,694.67999c-1.88995,1.5-3.97998,2.53998-6.22998,3.40997c-0.38,0.15002-0.71997,0.34003-1.06,0.56
		c-0.83002,0.55005-1.78998,0.70001-2.75,0.90002c-2.39001,0.48999-4.83002,0.79999-7.27002,0.91998
		c-2.57996,0.13-5.19,0.06-7.76001-0.22998v-0.07001c0.06006-2.02997,0.16003-5.65997,0.22003-8.65002
		c0.09003,0.01001,0.16998,0.01001,0.26001,0.01001C684.46997,691.76001,692.65997,692.76001,700.78998,694.67999z"/>
	<path class="st24" d="M701.12,694.41998c-0.10999,0.09003-0.21997,0.17999-0.33002,0.26001"/>
	<path class="st24" d="M483.87845,988.24384c15.23282-16.58734,30.47763-33.18848,44.62296-50.71234
		c10.88397-13.48346,21.10034-27.4928,31.88031-41.05951c1.7334-2.18152,1.69989-4.79596,1.3186-7.41785
		c-0.47571-3.27118-0.81409-6.17181-0.28912-9.47394c0.32452-2.0415,0.77106-4.10736,1.61786-6.00555
		c0.63129-1.41504,1.58789-2.65552,2.20831-4.07172c0.81671-1.86444,0.72101-3.84015,0.63104-5.82898
		c-0.11951-2.64398-0.12103-5.29333-0.00641-7.93756c0.14117-3.25836,0.45856-6.50885,0.94958-9.73309
		c0.43256-2.84009,1.23712-5.61304,1.68384-8.44037c0.13428-0.84985-0.03796-1.64581-0.01166-2.4939
		c0.08545-2.75305,0.78857-5.58008,1.08801-8.32581c0.62097-5.69397,0.96063-11.41388,1.25-17.13287
		c0.06366-1.25836,0.12476-2.51685,0.18585-3.77539c0.2934-6.04224,0.58685-12.08447,0.88025-18.12671"/>
	<path class="st24" d="M566.27802,720.19263c-1.09467,16.31335-0.70526,32.72595,1.1618,48.96906"/>
	<path class="st24" d="M576.83496,724.74402c-0.12341,9.22418-0.59918,18.4436-1.42603,27.63147"/>
	<path class="st24" d="M559.95966,896.62323c-0.84607,5.50824,0.80377,11.06024,2.435,16.38898
		c1.1698,3.82141,2.40375,7.76202,5.00708,10.79425"/>
	<path class="st24" d="M565.59369,891.77826c-0.26154,10.45459,2.73981,20.96759,8.48132,29.70837"/>
	<path class="st24" d="M571.16504,891.54645c0.05487,3.44647,0.12451,6.90955,0.72662,10.30347
		c0.60217,3.39392,1.76373,6.74274,3.82031,9.50891"/>
	<path class="st13" d="M630.33002,398.20001c-3.03644,1.04614-6.78955,0.25244-9.42999,2.04999
		c-11.7403,7.99249-19.07379,20.91998-26.81677,35.16504c-4.89404-6.12122-23.95123-30.28168-30.12329-37.47501
		c-6.41589-10.0105-7.96466-14.97583-14.60327-24.92838c-0.73334-1.89999-4.58582-4.42136-3.11139-6.25961
		c15.58832-11.90982,28.0058-35.23755,43.31848-47.06381c1.17999,1.76996,11.9411,8.73914,11.51111,10.81915
		c-1.55286,9.15439-0.62634,14.11099-1.84027,23.10538c7.59998,3.72003,15.38971,2.53815,21.7597,8.1181
		c7.01721,6.17139-2.61719,24.82104,2.39709,32.74219c-0.02002,0.04004,3.86859-1.54468,1.09485,1.00357L630.33002,398.20001z"/>
	<path class="st13" d="M696.64093,346.375c-6.06927,28.61035-15.4187,60.25998-29.10364,84.94867
		c-10.20099-10.15369-19.91284-28.22852-32.65747-31.70312c-3.52789-1.07159-7.53522-1.93506-9.95984-4.95056
		c16.1084-15.41406-4.51697-24.14941,2.95374-46.98969c2.42999-9.06995,37.39038-16.2644,37.7204-25.6344
		c0.02002-0.58002,0.3205-5.36536,0.19421-5.92346c-2.24518-9.92517,5.59235-2.62845,6.23236-2.81845
		C681.81903,324.25378,692.39569,329.58929,696.64093,346.375z"/>
	<path class="st18" d="M673.47998,348.64001c-1.10095,4.13196-3.47711,7.79428-5.93311,11.20398
		c-0.63782,0.88541-1.31024,1.74527-2.04828,2.54907c-0.30304,0.33011-0.59796,0.66815-0.89862,1.08691
		c-2.28998,3.16003-5.14996,5.87-8.20996,8.26001c-5.06,3.94-10.69,7.06-15.97003,10.69
		c-5.42999,3.72998-10.46997,7.98999-15.5,12.23999c0.60004,0.73999,1.29004,1.35999,2.06,1.88
		c1.01001,0.69,2.16003,1.21997,3.35004,1.65002l-8.79999-0.54004c0.00995-0.03998,0.01996-0.08997,0.03998-0.13
		c-0.10004-0.17999-0.21002-0.35999-0.32001-0.51996c-5.09003-7.60004-13.28998-12.40002-20.16998-18.43005
		c-6.37-5.57996-11.86005-12.43994-19.46002-16.15997c-0.63-2,0.59998-3.27997,1.02002-5.33002
		c1.53998-7.40997,2.0235-14.54898,3.56348-21.94894c0.42999-2.08002,0.62219-5.77637,0.77649-6.39102
		c2.01001-8.06,2.22003-16.48999,2.05005-24.76001c-0.02002-1.16003-0.05005-2.32001-0.09003-3.47998
		c-0.03003-0.82001-0.34998-2.25-0.17999-3.11005c0.38324-9.32718,7.20874-9.00555,11.02875-5.74554
		c3.41003,2.91003,4.53632,11.94131,8.66632,13.6813c1.34998,0.57996-0.77148-2.27155,0.63849-1.8515
		c0.88,0.26996,3.66675,2.55762,4.59674,2.61761c0.51001,0.02002,0.68976-6.41223,1.18976-6.24225
		c1.22998,0.41003,2.26825,3.2883,3.53827,3.5383c2.56,0.5,6.86542-6.23624,9.45538-6.31625
		c4.44-0.15002,8.3327,2.95428,12.53271,1.51428c5.59003-1.91003,4.7085,0.82715,9.09851-3.03284
		c0.31-0.27002,21.17255-11.85132,21.48254-12.13135c4.57001-4.01996,1.51642,6.57114,0.91254,11.11826
		c0.01996,0.40997,0.00995,0.83002-0.02002,1.21997c-0.47003,6.08002-0.92999,12.15002-1.40002,18.23004
		c0.69934,2.23819,0.83466,6.84125,0.90466,6.89124C672.27606,329.99164,675.90997,339.57001,673.47998,348.64001z"/>
	<path class="st25" d="M588.60889,194.59906c-2.94427,0.71974-6.45001,1.45407-8.68457-0.59384
		c4.63953-3.04108,10.00238-4.97054,15.51587-5.58235c2.16132-0.23982,4.38391-0.27527,6.4729,0.3288
		c1.39508,0.40341,2.69342,1.08098,4.05139,1.59567c2.10809,0.799,4.34204,1.19939,6.52069,1.77895
		c2.64978,0.7049,5.22778,1.6794,7.68176,2.9025c0.30029,0.14967,0.83459,0.3063,1.03033,0.59779
		c-0.36041,0.13812-1.01215-0.14586-1.36816-0.2424c-0.7912-0.21457-1.56647-0.47264-2.3421-0.73662
		c-2.22198-0.75624-4.51794-1.28624-6.84058-1.619c-4.68054-0.67059-9.45117-0.54828-14.13025,0.06903
		C593.85492,193.44868,591.216,193.96175,588.60889,194.59906z"/>
	<path class="st25" d="M661.44171,191.31766c1.85382-0.04503,3.70526,0.12747,5.55164,0.29979
		c3.12122,0.29129,6.24237,0.58258,9.36359,0.87387c2.15704,0.20131,4.31494,0.40271,6.46143,0.69598
		c-0.77148,2.1627-3.38892,2.99622-5.67944,3.1571c-5.6452,0.39655-11.27478-1.48138-16.9151-1.0206
		c-4.92535,0.40239-9.48596,2.53206-14.33795,3.31741c-0.30688,0.04968-0.69147,0.17334-0.83472-0.18752
		c-0.11279-0.28416,0.09131-0.69624,0.23108-0.93268c0.49579-0.8385,1.62982-1.37206,2.43243-1.87099
		c1.95795-1.21707,4.04785-2.22766,6.23218-2.96797C656.36072,191.86395,658.89142,191.37959,661.44171,191.31766z"/>
	<path class="st25" d="M698.92999,217.53664c-0.15997,0.06995-0.46997,0.20335-0.64001,0.16338
		c-0.26996-0.07001-0.47998-0.29004-0.57001-0.56c-1.06995,7.62994-3.20996,15.10999-6.31995,22.15997
		c-1.66003,3.75-3.71002,7.51001-7.02002,9.92999c-4,2.92999-9.26001,3.47998-13.63,5.83002
		c-1.14001,0.62-2.23999,1.35999-3.48999,1.69c-1.98999,0.52997-4.08002-0.04999-6.07001-0.58002
		c-7.39001-1.95001-14.96002-3.21997-22.58002-3.78998c-13.51996-0.98999-27.26001,0.26001-40.23999,4.17999
		c-2.39001,0.71997-4.78998,1.52997-7.27997,1.59998c-4.81,0.13-9.35004-2.63-12.42004-6.33997
		c-3.07001-3.71002-4.87-8.29004-6.39996-12.85004c-1.72003-5.15997-6.84003-26.19-7.39001-26.89996
		c-0.54999,5.21997-1.14001,10.44-1.15002,15.69995c0,3.25,0.22003,6.49005,0.42999,9.73004
		c0.25,3.58997,0.49005,7.17999,0.73004,10.76996c0.09998,1.36005,0.17999,2.73004,0.27997,4.10004
		c0.02002,0.35999,0.04999,0.70996,0.07001,1.07001c0.07001,1.01001,2.25,11.21997,3.17999,13.76996
		c0.46002,1.24005,2.63,7.16003,3.23004,8.15002c1.31995,2.15997,2.78998,4.21997,4.32996,6.21997
		c3.11005,4.03003,6.51001,7.82001,9.69,11.79004c0.29999,0.38,0.60004,0.75,0.89001,1.13
		c0.75,0.95996,1.47998,1.92999,2.20001,2.89996c2.98999,3.97003,5.90997,7.94,9.72998,11.20001
		c3.41003,2.91003,7.28003,5.29004,11.41003,7.03003c1.34998,0.57996,2.73999,1.07996,4.14996,1.5
		c0.88,0.26996,1.83002,0.64996,2.76001,0.70996c0.51001,0.02002,0.89001,0.07001,1.39001,0.23999
		c1.22998,0.41003,2.48999,0.74005,3.76001,0.99005c2.56,0.5,5.16998,0.67999,7.75995,0.59998
		c4.44-0.15002,8.83002-1.04999,13.03003-2.48999c5.59003-1.91003,10.23999-5.72003,14.63-9.58002
		c0.31-0.27002,0.62-0.53998,0.92999-0.82001c4.57001-4.01996,9.14001-8.04999,13.59003-12.22998
		c0.5-0.46002,1.00995-0.92999,1.50995-1.40997c1.78003-1.69,3.80005-3.34003,5.32001-5.27002
		c0.31-0.39001,0.73999-0.66003,1.15002-0.97003c1.78998-1.35999,3.46997-2.87,5.02002-4.5
		c2.00995-2.10999,3.94995-4.45996,5.40997-6.97998c0.22003-0.39001,0.34998-0.77002,0.45001-1.20001
		c0.25-1.03998,0.83997-1.97998,1.20996-2.98999c0.83002-2.21002,1.29004-4.53998,1.78003-6.83997
		c0.37-1.71002,0.88-3.36005,1.29999-5.05005c0.09003-0.32996,0.14001-0.64996,0.15002-0.97998
		c0.04999-0.71997,0.14001-1.35999,0.32001-2.07001c0.14996-0.58002,0.27997-1.15997,0.39996-1.73999
		c0.29999-1.33002,0.54004-2.66998,0.73999-4.02002c0.58002-3.88995,0.83002-7.82996,1.04004-11.75
		c0.02997-0.51001,0.06-1.01996,0.08002-1.52997c0.31-5.96002,0.62-11.92004,0.92999-17.87
		C698.72333,219.15335,698.92999,217.60658,698.92999,217.53664z M658.70001,278.14996
		c-3.52002,6.04004-9.21002,10.79004-15.78003,13.17999c-3.37,1.23004-6.94,1.85004-10.48999,2.34003
		c-6.17999,0.87-12.60999,1.37-18.53998-0.58002c-0.75-0.25-1.48999-0.53998-2.10004-1.03998
		c-0.78998-0.65997-1.25-1.62-1.81-2.48999c-1.97998-3.13-5.19-5.26001-7.63995-8.04004
		c-2.46002-2.77997-4.15002-6.90997-2.36005-10.14996c1-1.82001,2.90002-2.97003,4.83002-3.72998
		c1.58002-0.63,3.25-1.05005,4.94-1.26001c2.33002-0.30005,4.52002-0.08002,6.81,0.27997
		c2.76001,0.42999,5.65002,0.13,8.41998,0.08002c7.31-0.14001,14.64001-0.28003,21.84003-1.52002
		c2.20001-0.37,4.40997-0.85999,6.64996-0.75c2.23004,0.10999,4.54004,0.90002,5.94,2.64001
		C661.89001,270.15997,660.69,274.76001,658.70001,278.14996z"/>
	<path class="st27" d="M658.70001,278.14996c-3.52002,6.04004-9.21002,10.79004-15.78003,13.17999
		c-3.37,1.23004-6.94,1.85004-10.48999,2.34003c-6.17999,0.87-12.60999,1.37-18.53998-0.58002
		c-0.75-0.25-1.48999-0.53998-2.10004-1.03998c-0.78998-0.65997-1.25-1.62-1.81-2.48999c-1.97998-3.13-5.19-5.26001-7.63995-8.04004
		c-2.46002-2.77997-4.15002-6.90997-2.36005-10.14996c1-1.82001,2.90002-2.97003,4.83002-3.72998
		c1.58002-0.63,3.25-1.05005,4.94-1.26001c2.33002-0.30005,4.52002-0.08002,6.81,0.27997
		c2.76001,0.42999,5.65002,0.13,8.41998,0.08002c7.31-0.14001,14.64001-0.28003,21.84003-1.52002
		c2.20001-0.37,4.40997-0.85999,6.64996-0.75c2.23004,0.10999,4.54004,0.90002,5.94,2.64001
		C661.89001,270.15997,660.69,274.76001,658.70001,278.14996z"/>
	<g>
		<path class="st25" d="M605.55682,270.47229c3.07397,3.64243,7.36719,5.81522,11.81097,6.88266
			c4.46912,1.05164,9.14612,0.95602,13.75842,0.42609c2.31567-0.2424,4.63159-0.6113,6.95343-0.99133
			c2.31989-0.35812,4.61542-0.78958,6.87347-1.33408c4.49402-1.09436,8.90692-2.85916,12.31128-6.20972
			c-1.37463,1.93268-3.21588,3.57108-5.28143,4.81458c-2.06537,1.25644-4.31384,2.18747-6.60779,2.89771
			c-2.2887,0.74612-4.6369,1.22336-6.96631,1.69644c-2.33057,0.43967-4.6806,0.83032-7.06091,1.11288
			c-4.7467,0.50613-9.70306,0.52835-14.388-0.91229c-2.3241-0.71237-4.55688-1.74744-6.53308-3.15091
			C608.4516,274.3093,606.74536,272.52786,605.55682,270.47229z"/>
	</g>
	<path class="st14" d="M438.29999,1095.55005c-5.12561,3.71936-10.17456,7.54468-15.10999,11.52002
		c-0.04999-0.21008-0.09998-0.42017-0.15997-0.64014c-9.35324,10.03918-18.94614,10.1936-23.19,2.75232
		c-2.98801-5.23926-6.7525-14.86377-7.40097-22.0481c-0.54218-6.00659,4.60031-12.53137,5.59097-16.33411
		c11.11221-6.17981,21.54489-13.70898,32.29999-20.47009C429.00388,1065.70337,431.1561,1081.57263,438.29999,1095.55005z"/>
	<path class="st21" d="M428.06,1165.43994c0.04999,6.95007-0.35999,13.89001-0.40997,20.83008
		c-0.04004,5.76001-0.09003,11.52002-0.44,17.27002c-0.17004,2.8999-0.42999,5.78992-0.80005,8.66992
		c-0.16998,1.36011-0.21997,2.93994-0.64996,4.23999c-0.07001,0.19995-0.19,0.37012-0.27002,0.56006
		c-0.35999,0.84998-0.45001,1.85999-0.66998,2.76001c-0.79999,3.27002-1.78998,6.51001-3.22003,9.56995
		c-0.71997,1.55005-1.56,3.05994-2.51996,4.4801c-1.34003,1.97998-2.94,3.80994-4.79004,5.33984
		c-0.75,0.62012-1.73999,1.59009-2.72998,1.75c-2.13,0.36011-4.16998,0.20007-6.23999-0.25
		c-0.59003-0.11987-1.20001-0.04993-1.79999-0.18994c-1.19-0.28003-2.30005-0.8999-3.23999-1.67993
		c-0.15002-0.13013-0.30005-0.26001-0.44-0.39014c-1.23004-1.15991-2.19-2.59985-3.09003-4.02991
		c-1.21002-1.94006-5.30634-3.91895-6.2663-5.98889c-3.29004-7.14001-9.20834-11.23389-12.0383-18.57385
		c-0.95001-2.47998-1.37692-5.40527-2.1669-7.94531c-0.82001-2.65002-1.90689-5.17517-2.1669-7.94519
		c-0.13995-1.56995-0.28079-5.41223-0.24075-6.9823c0.17999-7.28003,0.06076-13.42578,0.24075-20.70581
		c0.07001-3.03992,0.50156-7.76343,0.48154-10.80347c-0.02002-2.92993,0.75156-5.78857,0.48154-8.69861
		c-0.10999-1.17993,0.31155-2.68237,0.48154-3.85229c0.16003-1.09009-1.31467-3.02295-1.44461-4.09302
		c-0.46002-3.51001-2.1886-5.20764-2.94861-8.6676c-1.25-5.66992,1.42047-11.76514-0.19952-17.33508
		c-0.53003-1.83008-4.89868-4.14917-5.27869-6.01917c-0.56-2.78003-0.09695-6.80078-0.03696-9.63074
		c0.02002-1.18005,2.17502-1.0072,2.51505-2.12732c0.07001-0.21997-1.53503-1.73572-1.51501-1.9657
		c0.07001-1.11011-1.22675-2.25073-1.23676-3.37073c-0.01996-3.56995,3.48175-6.6803,3.78174-10.25037
		c0.14001-1.62988,0.70923-3.42651,1.57928-4.80652c0.56-0.8999,3.9379-0.48804,4.83786-1.078
		c0.62-0.42004,1.29999-0.78003,1.96002-1.13013c3.66998-1.92993,7.40997-3.73999,11.21002-5.40991
		c1.88995-0.84009,3.81-1.65002,5.72998-2.41992c0.92999-0.37012,1.84998-0.74011,2.78998-1.09009
		c0.44-0.17993,0.94-0.45996,1.41998-0.51001c0.30005-0.03003,0.45001,0.08008,0.43005,0.38
		c-0.03003,0.43005-0.13,0.87-0.20001,1.29993c-0.13,0.86011-0.26001,1.72009-0.39001,2.59009
		c-0.17999,1.17993-0.35999,2.37-0.52997,3.56006c-0.06006,0.35986-0.12006,0.72998-0.17004,1.09985
		c-0.10999,0.77002-0.22998,1.55005-0.33997,2.33008c-0.10004,0.70996-0.30005,1.37-0.42004,2.08008
		c-0.46997,2.61987-0.48999,5.31995-0.20996,7.96997c0.01001,0.16992,0.02997,0.32996,0.04999,0.5
		c0.32001,2.72998,0.94,5.41992,1.64001,8.07996v0.01001c0.04999,0.20996,0.09998,0.42004,0.16998,0.63
		c0.27002,1.03003,0.54999,2.06006,0.83002,3.08997c0.26001,0.92004,0.51001,1.84998,0.75,2.78003
		c0.65997,2.54993,1.26001,5.14001,2.42999,7.5c1.16998,2.34998,3,4.5,5.45001,5.46997
		c2.63,1.03003,5.66998,0.56995,8.20996-0.67004c2.54004-1.23999,4.65002-3.19995,6.61005-5.23999
		c0.06,0.21997,0.10999,0.43005,0.15997,0.64014c0.71997,3.18994,0.59998,5.95996,0.90002,9.29993
		c0.32996,3.62,0.54999,6.52991,0.94,10.14001c0.54999,4.94995,1.00995,9.8999,1.39996,14.85999
		c0.22998,2.94006,0.41998,5.87,0.60004,8.80994c0.08997,1.59009,0.32996,3.15002,0.48999,4.72998
		C427.89001,1158.40991,428.03003,1161.92993,428.06,1165.43994z"/>
	<path class="st13" d="M399.84003,1238.3999c-1.75,0.02002-3.51001-0.40991-5.06-1.23999
		c-1.92004-1.02991-3.46002-2.62988-4.97003-4.19995c-1.5-1.56006-2.98999-3.12-4.48999-4.67993
		c-0.72003-0.75-1.40002-1.63013-2.21002-2.27002c-0.21997-0.18994-0.48999-0.30005-0.70996-0.5
		c-0.41003-0.39001-0.71002-0.93994-1.01001-1.42004c-0.66003-1.01001-1.25-2.06995-1.82001-3.14001
		c-1.51001-2.81995-3.16998-5.75-4.23999-8.78003c-0.34003-0.96997-0.29999-1.93994-0.46002-2.93994
		c-0.14001-0.90002-0.52002-1.72998-0.87-2.57007c-1.45001-3.41992-2.96997-6.84985-3.67999-10.51001
		c-0.60999-3.16992-0.59003-6.40991-0.57001-9.62988c0.01001-2.29004,0.03003-4.58008,0.03998-6.87012
		c0.02002-3.40991,0.04004-6.81995,0.06-10.23999c0.01001-1.69995,0.02002-3.40991,0.03003-5.11987
		c0.02997-4.89014,0.71997-9.76001,0.83002-14.67004c0.13995-5.98999-0.15002-12-1.11005-17.91003
		c-0.51996-3.16992-2.75995-14.08997-2.81-14.6499c-0.35999-3.90015-1.51996-7.73999-2.58997-11.48999
		c-1.52002-5.28003-3.08002-10.64014-3.04999-16.12012c0.02997-5.48999,1.88995-11.23999,6.14996-14.69995
		c1.85999-1.51001,5.88-3.41003,8.01001-1.48999c0.09998,0.08997,0.20001,0.17993,0.29999,0.27002
		c-0.89996,0.58997-1.70996,1.28003-2.26996,2.17993c-0.87006,1.38-1.06,3.07007-1.20001,4.69995
		c-0.29999,3.57007-0.44,7.15015-0.42004,10.72009c0.01001,1.12,0.12006,2.2699,0.05005,3.38
		c-0.02002,0.22998-0.06,0.44995-0.13,0.66992c-0.34003,1.12012-0.45001,2.17004-0.47003,3.3501
		c-0.06,2.82996,0.27002,5.66992,0.83002,8.44995c0.38,1.87,0.85999,3.71997,1.39001,5.55005
		c1.62,5.56995,3.72998,11.01001,4.97998,16.67993c0.76001,3.45996,1.20001,6.98999,1.66003,10.5
		c0.12994,1.07007,0.42999,2.19995,0.26996,3.29004c-0.16998,1.16992,0.02002,2.27002,0.13,3.44995
		c0.27002,2.91003,0.37,5.83008,0.39001,8.76001c0.02002,3.04004-0.06,6.09009-0.13,9.13
		c-0.17999,7.28003-0.37,14.56995-0.54999,21.84998c-0.04004,1.57007-0.10999,3.09009,0.02997,4.66003
		c0.26001,2.77002,0.91003,5.47998,1.73004,8.13c0.78998,2.54004,1.73999,5.03003,2.69,7.51001
		c2.82996,7.33997,5.57996,14.75,8.87,21.89001c0.95996,2.06995,2.07996,4.04993,3.28998,5.98999
		C397.65002,1235.80005,398.60999,1237.23999,399.84003,1238.3999z"/>
	<path class="st21" d="M560.82001,1271v0.01001c-1.79932,7.95947-8.09399,16.88745-15.84802,18.08447
		c-11.22845,2.14758-21.54266,2.15466-32.70251-0.85388c-1.16644-0.35962-3.34912-1.49841-4.58087-1.27246
		c-1.63-0.04016-2.70917-3.58923-4.19916-4.19922c-6.19217-2.41809-7.62161-8.99487-6.78906-15.01904
		c1.08762-14.5155,4.42441-28.75049,7.85962-42.85986c0.82755-3.62976,1.64706-7.24646,2.79037-10.82983
		c2.13962-9.39026,0.57962-19.17017,0.88962-28.79016c0.02179-2.99573,0.91055-6.53857,4.19012-6.99988
		c0.8988-0.08655,1.81274-0.10986,2.53986-0.71008c7.77332-4.62268,17.45575-7.44092,26.46002-5.56042
		c3.11938,0.80493,5.48724,3.44946,8.61993,4.13062c0.95581,0.19617,1.77606-0.58545,2.57001,0.24976
		c2.20007,1.60999,3.94006,3.63,3.84009,6.34998c2.90997,5.41992-0.06,12.33008,1.83997,18.17993
		c0.54999,1.67004,1.70001,3.02002,1.96002,4.73999c0.77393,3.23145,0.0321,6.47876-0.43011,9.69006
		c-0.93164,7.12683,0.56641,14.37231-0.44983,21.48999c-1.1557,5.38-0.34595,11.14941,1.40997,16.31006
		C562.44,1258.94995,562.45001,1265.18994,560.82001,1271z"/>
	<path class="st13" d="M566.51001,1233.79004c-0.66998,3.86987-2.23999,7.53003-3.10004,11.36987
		c-0.60999,2.70007-1.08997,5.81006-2.62,7.9801c-0.13995-0.53003-0.29999-1.04004-0.46997-1.56006
		c-0.44-1.30994-0.77002-2.66003-1-4.02991c-0.57001-3.44006-0.70001-7.31006,0.06-10.72009
		c0.21997-0.97998,0.22998-2.06995,0.28998-3.06995c0.11005-2.06006,0.08002-4.12,0.01001-6.18005
		c-0.12-4.07996-0.37-8.18005,0.15002-12.23999c0.27997-2.19995,0.77997-4.38,0.78998-6.60999
		c0.01001-0.58997-0.06-1.15002-0.14001-1.70996C564.64001,1215.18994,568.03998,1224.87,566.51001,1233.79004z"/>
	<path class="st13" d="M559.12,1285.41992c-2.13,3.21008-5.77997,5.01001-9.25,6.67004
		c-4.03998,1.93005-8.15997,3.85999-12.58002,4.7301c-1.85999,0.36987-3.78998,0.16992-5.60999,0.63989
		c-1.64001,0.43005-3.54999,0.13-5.21997,0.03003c-3.94-0.25-7.86005-0.79004-11.73004-1.55005
		c-1.34998-0.27002-2.69995-0.55994-4.03998-0.88989c-4.85999-1.16003-10.09998-3-12.54999-7.36011
		c-1.67999-2.98999-1.67999-6.68994-0.77002-10c0.08002-0.29004,0.16998-0.56995,0.26001-0.84998
		c1.17999,2.14001,3.27997,3.7301,5.56,4.67004c1.48999,0.60999,3.31,1.19995,4.94,1.23999
		c0.29999,0,0.59998-0.07007,0.90997-0.05005c0.88,0.07007,1.83002,0.52002,2.69,0.76001c1.89001,0.51001,3.81,0.91003,5.75,1.20996
		c3.90002,0.59009,7.84003,0.77002,11.78003,0.66003c5.58997-0.16003,11.15997-0.92004,16.64996-1.96997
		c4.05005-0.78003,8.33002-1.84998,11.16003-4.84998c1.59998-1.68994,2.59998-3.88,3.33002-6.09009
		c0.14996-0.46997,0.29999-0.93994,0.41998-1.40991C561.44,1275.94995,561.85999,1281.30005,559.12,1285.41992z"/>
	<path class="st11" d="M704.54999,606.62c-0.12,0.06-0.25,0.10999-0.37,0.15997c-3.21997,1.22003-6.64001,1.94-10.08002,2.12
		c-1.04999,0.06-2.12,0.20001-3.14996,0.04004c-1.53003-0.23004-3.08002-0.29004-4.63-0.23004
		c-3.13,0.11005-6.22003,0.67004-9.31,1.07001c-18.23999,2.38-36.89001-0.64996-55.09003,2.02002
		c-2.22998,0.32001-4.51001,0.72998-6.72998,0.5c0.12,2.34998,0.27002,4.71002,0.45001,7.08002
		c-13.84003,2.84998-27.85999,4.75-41.96002,5.69c-3.38,0.21997-6.76001,0.38995-10.14996,0.50995
		c-1.22003,0.04004-2.47003-0.06-3.67004,0.07001c-1.44,0.14001-2.87,0.44-4.29999,0.66003
		c-5.72998,0.89001-11.46002,1.76001-17.19,2.59998c-11.46002,1.69-22.94,3.29999-34.42999,4.83002
		c-11.48999,1.52002-22.98999,2.96997-34.5,4.33002c-2.77002,0.32996-5.53998,0.64996-8.31,0.96997
		c-0.06,3.35004-1.16998,16.72998-1.81,18.92999c-0.35004,1.19-0.95001,2.29004-1.28003,3.48004
		c-0.52997,1.89996-0.42999,3.91998-0.47998,5.85999c-0.07001,2.38-0.15002,4.75-0.25,7.12
		c-0.40002,9.48999-1.04999,18.96997-1.94,28.41998c-0.32001,3.35999-0.66998,6.71002-1.04999,10.06
		c-0.37,3.25-0.75,6.53003-0.26001,9.79004c0.09003,0.63995,0.5,0.73999,1.12,0.84998c1.5,0.27002,3.04999-0.15997,4.47003-0.59998
		c0.81995-0.26001,1.63-0.52002,2.44-0.79004c6.83997-2.23999,13.59998-4.82001,20.64996-6.32001
		c2.42999-0.51001,5.03003-1.10999,7.51001-0.95996c0.82001,0.04999,1.64001,0.04999,2.46002,0.09998
		c3.28998,0.19,6.57001,0.59998,9.82996,1.08002c6.52002,0.97998,13,2.27997,19.57001,2.81
		c4,0.33002,8.03003,0.34998,12.01001-0.17999c1.29999-0.17999,2.59003-0.39001,3.89001-0.58002
		c1.66998-0.23999,3.33002-0.47998,5-0.72998c3.33002-0.48999,6.65997-1.02002,9.96997-1.62
		c6.61005-1.20001,13.17999-2.70001,19.56-4.82001c0.86005-0.29004,1.72003-0.59003,2.57001-0.90002
		c2.5-6.47998,1.37-13.33002,1.17004-20.27002c-0.02002-0.40997-0.02002-0.81-0.03003-1.21997
		c-0.04999-5.15002,0.53998-10.28003,1.14001-15.39001c0.48999,5.58002,1.33997,11.13,2.54999,16.60999
		C581.37,696.31,583.31,702.75,585.72998,709c0.15002,0.39001,0.33002,0.81,0.71002,1c0.31,0.14996,0.67999,0.09998,1.02997,0.03998
		c4.20001-0.69,8.40002-1.46002,12.62006-2.07001c0.58997-0.08997,1.12-0.06,1.71997-0.01001
		c1.37,0.12,2.83002-0.48999,4.14001-0.84998c3.13-0.85999,6.22998-1.81,9.31-2.81c6.17999-1.97998,12.31-4.14001,18.5-6.10999
		c6.13-1.95001,12.33997-3.73004,18.66998-4.95001c4.10004-0.78998,8.25-1.34003,12.41998-1.56
		c3.71002-0.19,7.42004-0.25,11.09003-0.16003c0.09003,0.01001,0.16998,0.01001,0.26001,0.01001
		c8.26996,0.23004,16.45996,1.23004,24.58997,3.15002c0.55005,0.13,1.10004,0.26001,1.65002,0.39996
		c0.52002,0.13,1.13,0.23004,1.51001-0.13995c0.28998-0.27002,0.32001-0.72003,0.33002-1.12
		c0.14996-6.69-0.09003-13.39001-0.74005-20.05005C702.69,665,702.70001,656.15997,703.26001,647.37
		c0.27997-4.37,0.77997-8.70001,1.20996-13.04004c0.07001-0.70996,0.08002-1.35999,0.01001-2.06
		c-0.27997-3.02997,0.60004-6.10999,0.73999-9.15997C705.46997,617.59998,704.96002,612.10999,704.54999,606.62z
		 M599.64001,660.39001c-3.79999,0-6.89001-3.09003-6.89001-6.89001c0-3.81,3.09003-6.90002,6.89001-6.90002
		c3.81,0,6.89996,3.09003,6.89996,6.90002C606.53998,657.29999,603.45001,660.39001,599.64001,660.39001z"/>
	<g class="st28">
		<polygon class="st21" points="461.13,639.03998 480.41306,636.34131 499.70917,633.74518 538.32196,628.71454 
			576.96399,623.91345 596.29535,621.59479 615.64001,619.38 596.35718,622.0802 577.06104,624.67651 538.44806,629.70544 
			499.80585,634.50476 480.47446,636.82367 		"/>
	</g>
	<path class="st24" d="M580.02777,623.91132c0,0-1.31897,29.58368-2.63776,49.24866"/>
</g>
<g id="Calque_5">
	<path class="st0" d="M771.7937,448.0448v-86.63348c0-11.379,9.22455-20.60352,20.60352-20.60352h76.28235
		c0,0-2.23907,1.31842-3.92444,10.67581c-1.68536,9.35742-3.99384,18.64709-8.60419,25.20224l-7.23053,4.68414l-11.09052,7.87823
		l-17.59326,12.09442"/>
	<path class="st29" d="M771.7937,448.0448v-86.63348c0-11.379,9.22455-20.60352,20.60352-20.60352h76.28235"/>
	<path class="st6" d="M808.07013,425.99948v-40.90274c0-4.6452,3.76569-8.41089,8.41089-8.41089h39.66992"/>
	<g>
		<path class="st21" d="M879.46429,323.57022l-4.54358,7.1684l-4.59583,7.12656c-1.51135,2.37421-2.88916,4.83582-3.74554,7.4949
			c-0.86707,2.65747-1.36896,5.43057-1.8139,8.21652c-0.42981,2.77768-0.8241,5.62787-1.69238,8.34909
			c-0.836,2.72388-1.93384,5.35153-3.14502,7.91519c-2.41382,5.13968-5.41565,9.95551-8.42804,14.73907
			c2.8595-4.87979,5.65967-9.8031,7.99475-14.93961c1.16046-2.56921,2.18677-5.19955,2.97839-7.89407
			c0.8399-2.68436,1.20459-5.46347,1.61005-8.27484c0.41516-2.79858,0.89423-5.62286,1.82843-8.33524
			c0.90729-2.72903,2.34332-5.2337,3.88635-7.60883C872.96252,332.82535,876.19598,328.19254,879.46429,323.57022z"/>
	</g>
</g>
<g id="Calque_1" class="st30">
	<rect x="692.06683" y="-397.40414" class="st31" width="167.77022" height="88.81953"/>
	<rect x="497.41336" y="-397.40414" class="st32" width="167.77022" height="88.81953"/>
	<rect x="302.75989" y="-397.40414" class="st33" width="167.77022" height="88.81953"/>
	<rect x="497.41336" y="-263.61273" class="st34" width="167.77022" height="88.81953"/>
	<rect x="302.75989" y="-263.61273" class="st35" width="167.77022" height="88.81953"/>
	<rect x="718.95007" y="-263.61273" class="st36" width="167.77022" height="88.81953"/>
	<rect x="886.72034" y="-397.40414" class="st37" width="167.77022" height="88.81953"/>
	<rect x="1081.37378" y="-397.40414" class="st38" width="167.77022" height="88.81953"/>
	<rect x="1276.02734" y="-397.40414" class="st39" width="167.77022" height="88.81953"/>
	<rect x="1470.68079" y="-397.40414" class="st40" width="167.77022" height="88.81953"/>
	<rect x="497.41336" y="-542.19659" class="st38" width="167.77022" height="88.81953"/>
	<rect x="692.06683" y="-542.19659" class="st41" width="167.77022" height="88.81953"/>
	<rect x="886.72034" y="-542.19659" class="st42" width="167.77022" height="88.81953"/>
	<rect x="1665.33423" y="-397.40414" class="st43" width="167.77022" height="88.81953"/>
</g>
</svg>
