<?xml version="1.0" encoding="utf-8"?>
<!-- Generator: Adobe Illustrator 25.2.1, SVG Export Plug-In . SVG Version: 6.00 Build 0)  -->
<svg version="1.1" xmlns="http://www.w3.org/2000/svg" xmlns:xlink="http://www.w3.org/1999/xlink" x="0px" y="0px"
	 viewBox="0 0 2000 1500" style="enable-background:new 0 0 2000 1500;" xml:space="preserve">
<style type="text/css">
	.st0{display:none;}
	.st1{display:inline;fill:#F4F9F9;}
	.st2{display:inline;}
	.st3{fill:#CAE4EA;}
	.st4{fill:#51281B;}
	.st5{fill:#004F69;}
	.st6{fill:#3A1E13;}
	.st7{fill:none;stroke:#110F0F;stroke-width:0.25;stroke-miterlimit:10;}
	.st8{fill:#110F0F;}
	.st9{fill:#606060;}
	.st10{fill:#727271;}
	.st11{fill:#424241;}
	.st12{fill:#AFC5C9;}
	.st13{fill:#1E1E1E;}
	.st14{fill:#F2F2F2;}
	.st15{fill:#474747;}
	.st16{fill:#85FFC2;}
	.st17{fill:#009DD1;}
	.st18{fill:#1E0F0A;}
	.st19{fill:none;stroke:#727271;stroke-width:0.5;stroke-miterlimit:10;}
	.st20{fill:#4EB7A8;}
	.st21{fill:#9FB3B7;}
	.st22{fill:#51281B;stroke:#CAE4EA;stroke-width:0.5;stroke-miterlimit:10;}
	.st23{fill:#28140D;}
	.st24{fill:none;stroke:#CAE4EA;stroke-width:0.5;stroke-miterlimit:10;}
	.st25{fill:#4C0F0D;}
	.st26{fill:#2B150E;}
	.st27{fill:none;stroke:#009DD1;stroke-width:4;stroke-miterlimit:10;}
	.st28{fill:#58D6C8;}
	.st29{fill:none;stroke:#004F69;stroke-width:3;stroke-miterlimit:10;}
	.st30{fill:none;stroke:#004F69;stroke-width:3;stroke-linecap:round;stroke-linejoin:round;stroke-miterlimit:10;}
	.st31{fill:none;stroke:#007999;stroke-width:4;stroke-miterlimit:10;}
</style>
<g id="Calque_7" class="st0">
	<rect x="1070.31299" y="136.19267" class="st1" width="607.36328" height="183.56738"/>
	<rect x="766.63086" y="516.47931" class="st1" width="607.36377" height="183.56738"/>
	<rect x="462.94922" y="919.41437" class="st1" width="607.36377" height="183.56641"/>
	<g class="st2">
		<g>
			<path class="st3" d="M496.20813,1318.62195c1.93036,0,1.93356-3,0-3
				C494.2778,1315.62195,494.2746,1318.62195,496.20813,1318.62195L496.20813,1318.62195z"/>
		</g>
	</g>
</g>
<g id="Calque_8" class="st0">
	<rect x="482.37616" y="406.74323" class="st1" width="1050.82935" height="361.60211"/>
	<rect x="826.98401" y="62.13942" class="st1" width="361.60324" height="1050.82935"/>
</g>
<g id="Calque_6">
	<ellipse class="st3" cx="974.75848" cy="1117.57532" rx="821.30493" ry="9.89245"/>
</g>
<g id="Calque_3">
	<path class="st4" d="M770.65009,523.78949c0.31677,0.71631,0.79187,1.38654,1.25549,2.02362
		c0.44476,0.61121,0.99365,1.20575,1.31274,1.89905c0.08594,0.18671,0.15198,0.37543,0.27368,0.5437
		c0.39783,0.54987,1.005,0.99622,1.47955,1.48224c1.02167,1.04657,1.98267,2.15125,2.89557,3.29364
		c1.20752,1.51099,2.33081,3.08759,3.40637,4.69464c0.83826,1.25238,1.68195,2.77142,1.16736,4.18787
		c-0.25018,0.68866-0.79083,1.23059-1.12427,1.88306c-0.99762,1.95239,0.0415,4.35083-0.41418,6.49554
		c-0.08087,0.38068-0.22656,0.7757-0.54205,1.0036c-0.67029,0.48425-1.58887-0.04999-2.20557-0.60089
		c-3.19244-2.85193-5.50244-6.53668-7.76849-10.16852c-2.3421-3.75391-4.89563-7.02594-7.42535-10.65607
		c-0.4101-0.58844-0.86438-1.14417-1.34485-1.67639c-0.12183-0.13501-0.23889-0.26147-0.33783-0.41333
		c-0.12384-0.19012-0.22217-0.33051-0.40881-0.46906c-0.56006-0.41571-1.14301-0.80212-1.70569-1.2149
		c-1.12598-0.82599-2.22882-1.68353-3.30676-2.57129c-0.64832-0.53387-1.29144-1.08258-1.82526-1.73102
		c-0.93005-1.12988-1.50055-2.52881-2.48157-3.61481c-0.51025-0.56482-0.94849-1.1488-1.65179-1.44006
		c-0.37555-0.15552-0.78625-0.19818-1.18854-0.25677c-1.71118-0.24933-3.37537-0.81824-4.88104-1.6687
		c-0.47034-0.26569-0.72491-0.29358-1.224-0.50018s-1.01849-0.60889-0.99237-1.14844
		c0.02582-0.53302,0.60504-0.89685,1.13867-0.89746c0.53369-0.00055,1.02856,0.25555,1.51288,0.47961
		c2.04187,0.9447,4.3031,1.41138,6.55219,1.35211c-2.19147-3.04538-6.22308-4.22397-8.72272-7.02191
		c-0.18707-0.20938-0.37659-0.48221-0.28802-0.74866c0.0675-0.20297,0.276-0.3226,0.4776-0.39426
		c0.98413-0.34982,2.07257,0.01495,3.01251,0.47046c0.44141,0.21393,0.94653,0.45328,1.3999,0.26596
		c0.32208-0.13309,0.52734-0.45169,0.82031-0.64047c0.74371-0.47925,1.71149,0.00763,2.45447,0.4881
		c1.83026,1.18369,3.66052,2.36737,5.49078,3.55106c1.10529,0.71484,2.51263,0.14017,3.81024-0.08081
		c0.2915-0.04965,0.63605-0.16656,0.69635-0.45605c0.04755-0.22855-0.11273-0.44312-0.26196-0.62262
		c-1.23523-1.4855-2.39282-3.03555-3.46649-4.64169c-0.06293-0.09412-0.12817-0.19815-0.11877-0.31097
		c0.01392-0.16656,0.18091-0.27426,0.33667-0.3349c0.69678-0.27112,1.50128-0.11948,2.16205,0.23019
		c0.66083,0.3497,1.20599,0.87885,1.74133,1.40073c0.6748,0.65787,1.34967,1.31577,2.02454,1.97363
		c0.42682,0.41611,0.90601,0.81583,1.2746,1.28088c0.20374,0.25705,0.44983,0.47211,0.71136,0.67422
		c0.53253,0.41153,1.12842,0.74127,1.76086,0.97174c0.38446,0.14011,0.78961,0.24484,1.19836,0.22543
		c0.64343-0.03055,1.24292-0.37073,1.69824-0.82642c0.24194-0.24216,0.44855-0.51685,0.63269-0.80478
		c0.15674-0.24509,0.27014-0.52731,0.49536-0.7182c0.46606-0.39508,0.90796-0.82361,1.38562-1.20828
		c1.05408-0.84885,2.24341-1.53021,3.5105-2.0062c0.31671-0.11899,0.63831-0.2251,0.96375-0.31778
		c0.40515-0.11539,0.84338-0.2095,1.24115-0.07077c0.73035,0.25473,0.99713,1.21652,0.75702,1.95187
		c-0.24005,0.73535-0.8349,1.29019-1.40698,1.81082c-0.89014,0.81-1.78021,1.62003-2.67035,2.43005
		c-0.4267,0.38831-0.86115,0.78629-1.13965,1.29156c-0.36249,0.65778-0.42664,1.43188-0.51801,2.17737
		c-0.22913,1.86932-0.67596,3.71185-1.32867,5.47852c-0.40887,1.10657-0.73492,2.07153-0.61383,3.26263
		c0.01837,0.18073,0.03571,0.36273,0.01166,0.54407L770.65009,523.78949z"/>
	<path class="st4" d="M989.56976,542.70978c2.98059-0.85199,5.84735-2.10107,8.50085-3.70374
		c0.69562-0.42017,1.39563-0.88269,1.85205-1.55511c0.63281-0.93243,0.70496-2.16467,0.40289-3.25043
		c-0.302-1.08569-0.94049-2.04718-1.64496-2.92676c-0.43573-0.54413-0.90863-1.07855-1.16187-1.72797
		c-0.25323-0.64948-0.23859-1.4585,0.23724-1.9679c1.23199,1.0968,2.46393,2.1936,3.69586,3.29041
		c-0.04822-1.6297,0.77655-3.59558,0.47015-5.19696c-0.3371-1.76196-1.93219-2.9527-2.97205-4.41449
		c-0.35101-0.49353-0.65051-1.05225-0.68347-1.65698s0.26001-1.25861,0.81635-1.49811
		c0.89209-0.38403,1.83142,0.41028,2.42896,1.17596c1.33917,1.71606,2.38757,3.65845,3.08716,5.71967
		c1.1228,3.30835,3.52301,5.66321,3.21301,9.14313c0.74084-0.06494,1.45404,0.41119,1.84106,1.0462s0.49628,1.40179,0.50317,2.14545
		c0.02069,2.23163-0.96027,4.60309-2.84052,5.88831c-0.57239,0.39124-1.2218,0.65387-1.84943,0.94983
		c-1.15924,0.54645-2.31842,1.09296-3.4776,1.63947c-1.02832,0.4848-2.06525,0.97479-2.96985,1.66333
		c-1.92194,1.46301-3.15369,3.75012-5.23779,4.97101c-2.11151-1.32983-3.51556-3.56689-3.87451-6.03632
		C989.71338,545.07916,989.94684,543.99829,989.56976,542.70978z"/>
	<path class="st5" d="M856.94922,656.98627c-0.05994,2.8288-1.35913,5.50745-3.05731,7.77051
		c-1.69824,2.26312-3.79614,4.18884-5.74756,6.23761c-4.89771,5.14185-8.97009,11.24854-10.76501,18.11908
		c-1.01306,3.87762-1.2821,7.90576-1.5141,11.9068c-0.27814,4.79596-0.46948,9.81519,1.55096,14.17365
		c24.19745,1.64667,48.68445,3.84692,72.55511-0.4447c0.26349-0.04742,0.53564-0.099,0.75653-0.25031
		c0.65417-0.44812,0.51398-1.43353,0.31549-2.20117c-2.7431-10.60907-2.54681-22.15869-7.7439-31.80579
		c1.17694-4.72498,2.07965-8.53662,2.46478-13.39075c0.09644-1.21576,0.15826-2.48969-0.34082-3.60248
		c-0.56879-1.26831-1.76892-2.11877-2.92383-2.89233c-4.07825-2.73151-8.30731-5.30994-12.91992-6.98846
		c-4.61261-1.67847-9.66302-2.422-14.4668-1.41345c-2.70392,0.56769-5.27277,1.67316-7.97864,2.2312
		C863.57416,655.16986,860.04089,655.07458,856.94922,656.98627z"/>
	<path class="st4" d="M868.28656,542.43286c3.18872-1.33484,6.51593-2.51031,9.97052-2.63416
		c3.09314-0.1109,6.14691,0.62555,9.15442,1.35699c1.388,0.33759,2.80487,0.68732,4.00726,1.4585
		c1.56238,1.00201,2.61121,2.6142,3.61206,4.17737c2.89044,4.51434,5.22095,9.26642,6.31573,14.51385
		c1.61023,7.71796-3.15277,15.63251-1.86993,23.41156c2.84009-0.0835,5.61871,1.8855,6.4812,4.59271
		c0.81018,2.54309,0.02393,5.28888-0.76044,7.83997c-0.82434,2.68091-1.67371,5.41357-3.30109,7.69794
		s-4.19678,4.08459-7.0014,4.0556c-2.38171-0.0246-4.55591-1.32971-6.44189-2.78455c-2.38037-1.83624-4.5127-3.9696-6.63757-6.09631
		c-2.1333-2.13519-4.30225-4.31879-5.6662-7.01135c-1.96045-3.87-2.0766-8.4231-3.68372-12.4527
		c-1.83325-4.59674-5.45825-8.19293-8.52612-12.07605c-3.06793-3.88312-5.74371-8.60345-5.10754-13.51123
		C859.52338,549.63641,863.32452,544.51001,868.28656,542.43286z"/>
	<polygon class="st6" points="614.11847,590.06024 614.92676,594.25842 611.88177,597.81494 604.07898,599.216 599.4613,597.70715 
		598.65302,593.98901 599.73938,590.26959 601.33624,587.44067 601.93933,584.48279 601.88623,583.42725 604.07898,582.40338 
		606.78986,581.81067 608.08813,581.81067 608.89307,582.70044 608.89307,583.64276 	"/>
	<path class="st6" d="M497.52344,545.71857c0.4888-0.11987,0.96661-0.28461,1.42548-0.49133
		c0.60516-0.27277,1.24918-0.73352,1.26398-1.39709c0.00491-0.22028-0.06326-0.43488-0.13177-0.64423
		c-0.16779-0.51288-0.34195-1.02368-0.52246-1.53223c-0.0437-0.12317-0.09598-0.25623-0.2095-0.32086
		c-0.10339-0.0589-0.23108-0.04547-0.34909-0.03021c-1.30273,0.16785-2.60544,0.33575-3.90814,0.50366
		c-0.82864-0.18689-1.38684,0.39679-1.8833,1.08606c-0.49643,0.68927-0.65836,1.57001-0.65128,2.41943
		c0.00146,0.17426,0.01022,0.35236,0.07428,0.5144c0.06296,0.15924,0.17532,0.29315,0.28583,0.42395
		c1.09583,1.29718,2.19165,2.59436,3.28748,3.8916c0.17218,0.2038,0.35242,0.41388,0.59485,0.52539
		c0.45047,0.20715,1.03012,0.16199,1.51544,0.22357c0.46759,0.05933,0.93246,0.13989,1.39322,0.2392
		c0.92413,0.19916,1.83127,0.47363,2.71667,0.8042c0.83411,0.31146,1.64923,0.67279,2.44537,1.07111
		c0.66028,0.33032,1.3107,0.68713,1.90131,1.13013c1.31339,0.98505,2.27838,2.35297,3.22079,3.69733
		c2.14505,0.37634,4.19394-0.50781,6.25345-1.21588c0.80286-0.27606,1.62726-0.56427,2.26892-1.12012
		c1.08405-0.93915,1.45184-2.51367,1.23962-3.93213s-0.92352-2.7113-1.70746-3.91235s-1.65765-2.35443-2.25867-3.65668
		c-1.05859-2.29388-2.59723-4.18188-4.04889-6.24957c-0.69901-0.99561-1.43375-1.99402-2.41367-2.71484
		c-0.78708-0.57892-1.87079-0.95703-2.7309-0.49341c-1.01291-0.21112-1.62094-0.68152-2.63385-0.89264
		c-0.24353-0.05078-0.49796-0.10132-0.7381-0.03638c-0.44135,0.11932-0.72815,0.59869-1.17896,0.67493
		c-0.24396,0.04126-0.48859-0.04517-0.72977-0.1004c-1.18677-0.27167-2.51721,0.28815-3.15271,1.3266
		c-0.17197,0.28107-0.33823,0.62469-0.66019,0.69464c-0.17899,0.03894-0.36307-0.021-0.53625-0.08057
		c-0.80783-0.27783-1.74347-0.55414-2.47351-0.11047c-0.98737,0.60004-0.90732,2.0343-0.70352,3.17163
		c0.14783,0.82489,0.29565,1.64978,0.44348,2.47467"/>
	<path class="st7" d="M507.15909,535.19672c-0.23563,0.67621-0.47275,1.35864-0.56052,2.06927
		c-0.08777,0.71069-0.01562,1.46136,0.33667,2.08478c0.28061,0.49658,0.73828,0.92297,0.81064,1.48877
		c0.02808,0.21948-0.01346,0.45953-0.16504,0.62079c-0.08755,0.09308-0.20465,0.15308-0.32407,0.19861
		c-0.89035,0.33948-2.00922-0.16003-2.35092-1.0495c0.25989,0.51355,0.43387,1.1452,0.65073,1.67834
		c0.21689,0.53314,0.22607,1.21747-0.19357,1.61139c-0.23486,0.22052-0.56137,0.31122-0.87799,0.37067
		c-0.53909,0.1012-0.83478-0.64911-0.81601-0.79364c0.0741,0.44916-0.254,1.66553-0.48389,2.11237
		c-0.384,0.74622-0.9595,1.02393-2.37918,0.61279c-0.54987-0.30505-1.17746-0.70203-1.35071-1.12109"/>
	<path class="st7" d="M498.04089,536.37097c-0.18213,0.86224-0.36484,1.72858-0.41278,2.60852
		c-0.04495,0.82452,0.07129,1.74329,0.69028,2.28979"/>
	<path class="st7" d="M501.98474,534.59369c-0.3808,1.57928-0.57791,3.20282-0.58615,4.82733
		c-0.00137,0.26813,0.00354,0.54272,0.0983,0.79352c0.06976,0.18475,0.18524,0.34808,0.2995,0.50922
		c0.67694,0.95453,1.35388,1.90912,2.03082,2.86371"/>
	<path class="st7" d="M504.69205,534.31189c-0.30963,1.26355-0.49084,2.55859-0.53986,3.85864
		c-0.01639,0.43445-0.01755,0.87433,0.08093,1.29779c0.16711,0.71844,0.60696,1.33826,1.03717,1.93738"/>
	<path class="st7" d="M494.72174,541.86597c0,0,3.38815-0.61249,4.31219-0.55652c0.92404,0.05603,3.11627,1.65442,0.85675,3.41968
		c-1.22043,0.95349-2.72409,0.87152-2.72409,0.87152"/>
	<path class="st3" d="M512.18689,556.52887c1.10199-0.23566,2.10248-0.7973,3.08368-1.3515
		c1.74756-0.987,3.55798-2.03058,4.68524-3.6911c0.31396,1.57404,0.62787,3.14807,0.94177,4.72211
		c0.38489,1.92993,0.76239,3.97626,0.08844,5.8252c-0.25854,0.70941-0.6817,1.37811-1.29895,1.81305
		c-0.78955,0.55634-1.8111,0.67596-2.77466,0.60913c-0.96356-0.06677-1.909-0.30084-2.87152-0.38104
		c-0.49384-0.0412-0.99878-0.04309-1.46893-0.19965c-0.82294-0.27399-1.42136-0.97845-1.92007-1.68811
		c-0.77695-1.10559-1.42151-2.30389-1.91812-3.56055c-0.12689-0.32104-0.24414-0.64594-0.35144-0.97412
		c-0.09409-0.2876-0.24207-0.61774-0.25531-0.92255c-0.01508-0.34735,0.20206-0.33252,0.47919-0.28577
		c0.36984,0.06238,0.74094,0.11841,1.11389,0.15857C510.54031,556.6908,511.37653,556.70215,512.18689,556.52887z"/>
	<path class="st6" d="M371.96091,543.08704c0.34232,1.24188,0.6713,2.62885,0.06683,3.76642
		c-0.54407,1.02393-1.70029,1.55115-2.80685,1.89758c-2.95087,0.92383-6.08069,1.06708-9.12759,1.59375
		c-0.89453,0.15466-1.79898,0.34833-2.59293,0.78851s-1.47348,1.16412-1.66159,2.05219l-3.44025,2.20898h-3.92181l-2.21985-0.73993
		l-1.86386-0.11298c0.31113-2.13263,0.25964-5.15607,1.18286-6.88416c0.92322-1.72815,2.20563-3.23206,3.37161-4.80658
		c2.67303-3.60968,4.82291-7.70294,7.97382-10.85028c0.8476-0.84662,2.09003-1.11536,3.25793-0.84851
		c4.09644,0.93597,8.35168,0.16583,12.36142,1.75824c0.36923,0.14661,0.74243,0.3186,1.01074,0.61157
		c0.40524,0.44257,0.50262,1.0802,0.54709,1.67865c0.13507,1.81812-0.05103,3.65973-0.54709,5.41406
		c-0.29767,1.0528-0.7991,2.18329-1.9722,2.42676c-0.70856,0.14703-1.46423-0.17163-1.88687-0.75909
		c-0.68839-0.95685-0.36734-1.96472-0.0809-2.97736c0.30066-1.06274,0.60129-2.12549,0.90195-3.18823"/>
	<path class="st3" d="M343.54141,560.44952c0.57153-2.33582,0.87659-4.73682,0.90738-7.14136
		c1.79245,0.76929,4.04642,0.68451,5.99503,0.59717c1.94861-0.0874,3.87097-0.46625,5.78458-0.84399
		c-0.62918,2.23181-0.75058,4.31848-0.48978,6.62256c0.03461,0.30585,0.07678,0.61847,0.00827,0.91852
		c-0.06012,0.26337-0.20206,0.50024-0.35339,0.724c-1.13626,1.67987-2.98959,2.89996-5.00726,3.10516
		c-2.01764,0.20514-4.15195-0.67621-5.3027-2.34619C344.61929,561.41174,344.26376,560.83368,343.54141,560.44952z"/>
	<g>
		<path class="st8" d="M366.6727,535.50092c0.34076,0.43964,0.67059,0.8941,0.90753,1.41077
			c0.2337,0.50616,0.38498,1.10876,0.27106,1.67041c-0.17831,1.13062-0.49149,2.17517-0.82123,3.24634
			c0.07837-0.5517,0.16959-1.10052,0.27667-1.64569c0.10825-0.54608,0.2338-1.08887,0.29581-1.62225
			c0.12921-0.53369-0.01257-1.06647-0.19873-1.57458C367.20737,536.47803,366.93726,535.99072,366.6727,535.50092z"/>
	</g>
	<g>
		<path class="st8" d="M363.1846,535.11078c0.49255,0.9198,0.93216,1.86273,1.35529,2.81281l0.01828,0.04102l-0.01428,0.04419
			c-0.40198,1.24323-0.52725,2.56091-0.43903,3.88281c-0.31238-1.29443-0.21262-2.68622,0.2121-3.9574l0.00394,0.08478
			C363.91348,537.06207,363.52255,536.09796,363.1846,535.11078z"/>
	</g>
	<g>
		<path class="st8" d="M358.8342,536.11755c0.57135,0.87482,1.13425,1.75891,1.68256,2.65295
			c0.1293,0.22528,0.2674,0.47375,0.29831,0.76245c0.02457,0.28381-0.00113,0.54413-0.05173,0.81372
			c-0.05139,0.25946-0.11139,0.51062-0.12695,0.75745c-0.01752,0.24487,0.0184,0.49011,0.19916,0.58124
			c0.39798,0.20874,0.95651,0.09143,1.47574,0.08374c0.53067-0.01984,1.05173,0.00348,1.57285,0.04614
			c1.02335,0.05841,2.08664-0.16583,2.95541-0.75366c-0.814,0.66577-1.90286,0.97333-2.95749,0.94592
			c-0.52319-0.01239-1.04648-0.04236-1.5614-0.01105c-0.50653,0.00067-1.0491,0.17279-1.61453-0.09753
			c-0.30835-0.17914-0.33206-0.55847-0.30756-0.81122c0.02185-0.27551,0.08893-0.53406,0.14221-0.78613
			c0.0506-0.24182,0.07803-0.50818,0.05978-0.74524c-0.02332-0.23608-0.13306-0.46362-0.25201-0.69452
			C359.83194,537.95636,359.3284,537.04181,358.8342,536.11755z"/>
	</g>
	<path class="st7" d="M367.13458,541.76782c0.6246-0.03467,1.24924-0.0694,1.87384-0.10406"/>
	<g>
		<path class="st8" d="M359.51065,541.81232c-1.06683,1.16718-2.22644,2.24164-3.40372,3.29413
			c-1.19635,1.03076-2.41199,2.0415-3.7084,2.94696c1.16602-1.06714,2.36856-2.08435,3.5437-3.13464
			C357.13644,543.8902,358.30167,542.83044,359.51065,541.81232z"/>
	</g>
	<g>
		<path class="st8" d="M363.2926,542.05737c-0.60245,0.35767-1.17313,0.81146-1.48471,1.41656
			c-0.3078,0.59381-0.3363,1.3634,0.10583,1.8634c0.41867,0.51141,1.12885,0.74225,1.80234,0.72052
			c0.6875-0.01617,1.36786-0.23492,2.04132-0.44006c-0.64008,0.2901-1.30243,0.57812-2.03195,0.63214
			c-0.72037,0.06128-1.50275-0.17596-2.00452-0.75391c-0.50305-0.60358-0.45422-1.49298-0.08133-2.11328
			C362.01468,542.73792,362.65024,542.33478,363.2926,542.05737z"/>
	</g>
	<path class="st6" d="M370.30399,536.85681"/>
	<path class="st7" d="M370.30399,536.85681c0,0-0.97028,2.40533-1.05026,3.07196s-0.31998,3.47015,2.58646,2.97498"/>
	<path class="st9" d="M450.43674,619.16895c1.88348,2.56989,5.0213,3.83881,7.99417,4.98499
		c7.46774,2.87933,14.93549,5.75861,22.40323,8.63794c1.49796,0.57751,3.00711,1.16071,4.36267,2.021
		c1.07379,0.68146,2.00351,1.56586,3.07129,2.2514c0.18231,0.11707,0.33316,0.18713,0.5408,0.24042
		c0.44754,0.11475,0.84656,0.29559,1.26801,0.48914c0.966,0.44354,1.92511,0.90216,2.87549,1.37823
		c1.89966,0.95166,3.76505,1.97321,5.57721,3.08289c2.54953,1.56122,4.99472,3.29852,7.26294,5.24786
		c1.95676,1.68164,3.80893,3.55786,4.9964,5.84845c0.85483,1.64893,1.3385,3.46045,1.8158,5.25543
		c0.8302,3.12177,1.66168,6.24945,2.18781,9.43658c0.17188,1.04102,0.31018,2.11328,0.08722,3.14453
		c-0.4931,2.28076-2.5813,3.80817-4.52567,5.09839c-1.10223,0.73138-2.20935,1.45624-3.34189,2.14014
		c-1.02606,0.61969-2.14047,1.39178-3.27954,1.77777c-0.42966,0.14557-0.87482,0.26587-1.30438,0.43042
		c-0.8967,0.34351-1.77423,0.7356-2.63507,1.16071c-1.73294,0.85577-3.39624,1.84399-5.04193,2.85522
		c-3.27817,2.01428-6.52325,4.15833-10.1312,5.54816c-0.73389,0.28271-1.48053,0.53278-2.23874,0.74194"/>
	<path class="st9" d="M343.26416,675.98267c-3.49588,2.22394-6.48026,5.2467-8.65936,8.77075
		c1.76172,1.59064,3.56335,3.13708,5.40259,4.63739c2.22061,1.81146,4.90543,3.65961,7.71054,3.07343
		c2.29538-0.47974,4.55444,0.14166,6.67981,0.99567c1.09619,0.44049,2.31201,0.82025,3.30505,1.474
		c0.71048,0.46777,1.60593,0.48108,2.42856,0.62244c2.0376,0.35004,4.0654,0.75635,6.08231,1.21051
		c4.0358,0.90875,8.02679,2.00891,11.97775,3.23315c3.96219,1.22766,7.88467,2.58008,11.784,3.99384
		c3.901,1.41443,7.77924,2.8905,11.65662,4.36816c0.03873,0.01471,0.07742,0.02948,0.11615,0.04425
		c5.96075-2.3208,8.30896-8.46637,10.21292-14.57306c2.09109-6.70691,3.2966-13.66248,4.09665-20.64215
		c0.30643-2.67328,0.55286-5.39337,0.07901-8.04211s-1.75549-5.2558-3.96396-6.79303
		c-5.25702-3.6593-8.30807-10.63733-11.94498-15.90985c-0.64343-0.9328-1.32523-1.90057-2.32663-2.43103
		c-2.03949-1.08032-4.51028,0.01837-6.5238,1.14642c-3.89026,2.1795-7.70157,4.5191-11.23898,7.23413
		c-4.90353,3.76355-9.23795,8.21436-14.01974,12.13147c-4.45511,3.64948-9.27838,6.81952-14.09143,9.98199
		C349.02744,672.4801,346.29269,674.05603,343.26416,675.98267z"/>
	<path class="st10" d="M400.33759,708.61127c-1.74225,3.3891-3.4845,6.7782-5.22675,10.1673
		c0.99689,0.95264,2.55606,0.89441,3.92975,0.77515c6.41046-0.55646,12.80191-1.47632,19.24261-1.14197
		c3.18381,0.16528,6.35312,0.52612,9.51889,0.89154c22.09027,2.54999,44.46326,5.32678,66.47803,2.1911
		c-1.85245-1.46808-3.74609-2.98236-4.95746-5.01202c-1.13162-1.896-1.58679-4.1076-2.02414-6.27191
		c-1.44162-7.13434-2.88327-14.26862-4.32489-21.40295c-0.30997-1.53394-0.84888-3.3338-2.3454-3.79156
		c-0.89877-0.2749-1.86139,0.04974-2.73499,0.39642c-4.46661,1.77264-8.80347,4.24939-13.59906,4.55823
		c-1.95132,0.12561-3.91153-0.11713-5.86386-0.00812c-2.38321,0.13306-4.70184,0.78601-7.04648,1.23322
		c-13.04724,2.48877-26.41602-1.42175-39.69843-1.38519c-1.99969,0.00549-4.21069,0.0874-6.02417,1.03223
		c-0.84445,0.43994-0.78729,0.82532-0.68643,1.6886c0.1272,1.08881,0.11618,2.1936,0.00803,3.28351
		C404.53,700.37775,402.40363,704.59229,400.33759,708.61127z"/>
	<path class="st3" d="M400.87836,641.49799c-0.75507,12.47296,5.4494,24.90356,3.76956,37.13342
		c-0.27673,2.01471,1.14844,3.98724,2.51813,5.49042c2.37518,2.60657,6.29816,2.96454,9.82462,2.96423
		c3.52646-0.00024,7.34534-0.09839,10.2056,1.96436c11.40811,1.07526,22.11395,0.05603,33.51556-1.0863
		c5.67758-0.56879,10.24429-2.66064,15.16251-5.55371c1.09949-0.64673,2.19867-1.3634,2.94827-2.39557
		c0.5687-0.78296,1.55667-1.70319,1.23538-2.61603c-5.19427-14.75848-3.55075-39.46619-4.13419-43.84216
		c-0.41229-3.09241-0.83633-6.2287-2.05853-9.09906c-1.88461-4.42603-5.58313-8.0191-6.78922-12.67596
		c-0.33115-1.27863-0.45264-2.67615,0.07083-3.88879c0.29608-0.68597,0.78918-1.29102,0.95975-2.01843
		c0.17053-0.72742-0.16922-1.6709-0.91049-1.76434c2.91736-3.6507,4.47153-9.0415,1.94946-12.97571
		c-1.16611-1.81903-3.02866-3.06415-4.46609-4.67731c-1.18665-1.33179-2.19238-2.99792-3.87573-3.58795
		c-0.91504-0.32074-1.91077-0.2713-2.87961-0.30988c-2.71771-0.1084-5.40237-0.95581-7.68976-2.42743
		c-1.95587-1.25836-4.14813-3.0531-6.31107-2.1983c-0.95435,0.37714-1.63791,1.20892-2.41571,1.8783
		c-2.66202,2.29095-6.4425,2.67566-9.95456,2.66937c-3.51208-0.00623-6.41589-6.17584-9.67029-4.85541
		c-1.94608,0.78961-11.98639,1.052-13.48273,2.5257c-6.00348,5.91272-1.42749,21.15344-3.36163,29.35468
		C402.4675,620.40741,401.55511,630.31812,400.87836,641.49799z"/>
	<path class="st10" d="M343.04126,559.40564c1.98621,1.40076,4.17725,2.86407,6.60425,2.73456
		c2.40134-0.12811,4.55679-1.81812,6.95999-1.73126c-0.48801,2.20483-0.44431,4.52545,0.1264,6.71033
		c0.26459,1.013,0.64368,2.02032,0.61765,3.06702c-0.04153,1.67017-1.09647,3.13379-1.51508,4.75134
		c-0.582,2.24872,0.02557,4.62842,0.01672,6.90961c-0.00119,0.30695-0.01535,0.54907,0.28577,0.70135
		c0.41284,0.20886,1.01492,0.2467,1.46628,0.34698c0.51044,0.11346,1.02188,0.22229,1.53427,0.32666
		c2.04956,0.41724,4.11395,0.7616,6.1879,1.03265c4.14801,0.54211,8.33429,0.79108,12.51727,0.74426
		c3.03265-0.03394,6.06357-0.22333,9.07663-0.56927c2.32941-2.03046,4.68747-4.10541,7.01688-6.13593
		c0.27954-0.24359,0.56732-0.49225,0.91495-0.62128c0.5661-0.21014,1.19446-0.07251,1.78412,0.05756
		c6.74954,1.48889,13.77682,1.70837,20.60611,0.64355c1.52905-0.2384,2.5242-1.02997,3.9165-1.70551
		c-1.43021,0.40356-2.3981,1.79462-2.76724,3.23407c-0.36917,1.43945-0.25592,2.95117-0.22568,4.43689
		c0.03131,1.53607-0.02908,3.07263-0.1384,4.60468c-0.08011,1.12299-0.2963,2.27173-0.29135,3.39667
		c0.00162,0.37506,0.12933,0.71667,0.17099,1.08508c0.13589,1.20227-0.13058,2.54858-0.2269,3.7522
		c-0.20834,2.60309-0.46069,5.20264-0.75693,7.79718c-0.59247,5.18909-1.36032,10.35809-2.30206,15.4953
		c-0.55597,3.03302-1.35019,6.03821-2.01254,9.06403c-0.54065,2.46967-1.08127,4.93933-1.62192,7.40906
		c-0.43362,1.98077-0.93042,4.07996-2.37527,5.50262c-0.91504,0.901-2.12036,1.43408-3.29718,1.94812
		c-10.077,4.40222-20.15399,8.80438-30.23099,13.20654c-1.96664,0.85913-3.93954,1.7215-5.78021,2.82501
		c-1.10605,0.66309-2.16049,1.41199-3.15161,2.23706c-0.71323,0.59369-1.52539,1.21863-2.08081,1.97174
		c-0.23047,0.3125-0.33624,0.68903-0.55939,1.00531c-0.61752,0.87524-1.59354,1.61737-2.40015,2.31354
		c-1.68582,1.45496-3.50522,2.75494-5.42667,3.88049c-2.45932,1.44055-5.08658,2.59564-7.81427,3.42322
		c-2.15387,0.65356-3.81857,1.07831-5.90594,1.92047c2.18506-2.60291,4.37012-5.20575,6.55515-7.80859
		c5.72855-6.82391,10.76645-14.19,15.52213-21.71478c2.4249-3.83685,4.78049-7.71686,7.13321-11.59821
		c1.13431-1.87128,2.26788-3.74304,3.40814-5.61072c0.7247-1.18695,1.77216-2.42303,2.2348-3.74036
		c0.54745-1.5589,1.37997-3.00171,2.08902-4.5047c0.78345-1.66077,1.51151-3.34766,2.18265-5.05688
		c0.97989-2.49548,1.83844-5.03864,2.57086-7.61761c0.05695-0.20056,0.11221-0.42035,0.03-0.61194
		c-0.08862-0.2066-0.30984-0.31824-0.51669-0.40625c-1.97058-0.83881-4.13925-1.05756-6.26569-1.31262
		c-5.35471-0.64233-10.67468-1.57391-15.92902-2.78943c-5.67294-1.31238-10.09821-3.84894-15.51892-5.9751
		c-1.00565-0.39447-2.01297-0.79681-2.94922-1.33563c-3.87451-2.22986-6.18503-6.9068-5.60168-11.33893
		c0.97223-7.3869,2.82062-13.16724,4.38919-20.45087C341.72806,563.30469,342.81854,561.43964,343.04126,559.40564z"/>
	<path class="st10" d="M447.88354,578.23468c9.07947-0.35785,18.14688-1.02136,27.18167-1.9892
		c1.49332,2.64618,3.73242,4.81879,6.09344,6.73126c0.29407,0.23822,0.59747,0.4718,0.94312,0.62585
		c0.38113,0.16986,0.80066,0.20593,1.1839,0.35266c0.22867,0.08759,0.46008,0.1687,0.6904,0.25183
		c0.44321,0.1601,0.88739,0.31757,1.33246,0.47241c0.89014,0.30963,1.78394,0.60883,2.68112,0.89746
		c1.79437,0.57721,3.60236,1.11218,5.42191,1.60437c2.45584,0.66425,4.93277,1.25061,7.42581,1.75763
		c0.87537,0.17804,1.71063,0.37317,2.56577,0.61835c1.04776,0.30042,2.09552,0.60077,3.14325,0.90118
		c0.70425,0.2019,1.41409,0.40485,2.14429,0.46442c0.59918,0.04889,1.2056,0.00049,1.80023,0.08887
		c0.84644,0.12579,1.82782,0.49036,2.47052-0.07465c0.20111-0.17682,0.32849-0.4209,0.44562-0.66168
		c0.30292-0.62292,0.56799-1.26428,0.79321-1.91931c3.15356-9.17035-5.75342-18.97101-4.9216-28.63269
		c-0.00244,0.02814,0.19815,0.31036,0.25494,0.36322c0.11237,0.10461,0.28189,0.15546,0.41989,0.21857
		c0.33957,0.15527,0.68097,0.30664,1.02417,0.45367c0.66928,0.28674,1.3454,0.55762,2.02753,0.81226
		c1.36432,0.50922,2.75281,0.95367,4.15936,1.33099c1.89978-1.97681,3.39587-3.58978,4.63409-6.03595
		c-0.0354,0.07001,0.38049,0.61462,0.43604,0.80475c0.03729,0.1275,0.04053,0.26208,0.07141,0.39099
		c0.10376,0.43243,0.33356,0.85059,0.50592,1.25934c0.37598,0.89154,0.74933,1.78406,1.12018,2.67773
		c0.74158,1.78729,1.47284,3.57886,2.19373,5.37463c0.89429,2.22754,1.77258,4.46155,2.63489,6.70172
		c0.41443,1.07666,0.82507,2.15485,1.23212,3.23431c0.12402,0.32892,0.27734,0.66095,0.3327,1.01172
		c0.04321,0.27374,0.02625,0.54565,0.10205,0.81549c0.12256,0.43652,0.33655,0.85858,0.50824,1.27771
		c0.71594,1.74774,1.42645,3.4978,2.11517,5.25653c1.37555,3.5127,2.66547,7.0625,3.73102,10.68268
		c0.34613,1.17584,0.6684,2.3587,0.96204,3.54877c0.46149,1.87054,0.84503,3.88043,0.17792,5.68793
		c-0.76068,2.06091-2.70776,3.4035-4.54346,4.61023c-1.82648,1.20062-3.65302,2.40125-5.47949,3.60193
		c-12.2207-0.85992-24.24167-1.67358-36.4921-1.56073c-2.85928,0.02631-5.79767,0.07709-8.47659-0.92267
		c-0.25208,7.04248,7.96225,19.25354,5.87848,25.98541c-8.63922-3.83154-17.59457-5.54675-21.31354-7.18414
		c-4.9986-2.20081-12.10938-1.74835-14.88187-6.45398c-0.87689-1.48828-1.45084-3.13214-2.00317-4.76892
		c-0.37601-1.1142-0.7457-2.23505-0.96255-3.39081c-1.06836-5.69421,3.43536-14.27191,6.06723-19.43317
		c-1.20053-3.13617-3.49365-5.41302-5.10495-8.35931C448.99878,584.76801,447.71136,581.58838,447.88354,578.23468z"/>
	<g>
		<path class="st11" d="M481.08096,583.10376c1.10135,2.81714,1.75247,5.79901,2.13675,8.802
			c0.32709,3.00964,0.3902,6.06134-0.02554,9.05762c-0.00037-3.01898-0.08969-6.02106-0.4704-8.99902
			C482.39822,588.97968,481.78604,586.03918,481.08096,583.10376z"/>
	</g>
	<g>
		<path class="st11" d="M513.48309,590.52338c1.36823,1.89264,2.2019,4.09705,3.27954,6.10974
			c1.0636,2.00897,2.40851,3.92853,4.42511,5.11237c-1.09613-0.40143-2.05975-1.13562-2.86145-1.99341
			c-0.81036-0.85773-1.45319-1.85498-2.00531-2.88519C515.23395,594.78973,514.50916,592.60217,513.48309,590.52338z"/>
	</g>
	<g>
		<path class="st11" d="M389.21716,591.18781c-0.51498,3.25867-1.31766,6.46069-2.20035,9.63629
			c-0.9389,3.15936-1.95929,6.29889-3.25595,9.33264c0.90363-3.17108,1.89499-6.30322,2.77597-9.4707
			C387.47403,597.53473,388.29935,594.35474,389.21716,591.18781z"/>
	</g>
	<g>
		<path class="st11" d="M356.28592,582.26257c-0.08731,1.22864-0.43756,2.42456-0.92139,3.55353
			c-0.5004,1.1217-1.14157,2.19049-1.98627,3.08728c0.51843-1.11487,1.05429-2.18353,1.5285-3.28772
			C355.39752,584.51874,355.81958,583.39996,356.28592,582.26257z"/>
	</g>
	<path class="st12" d="M444.84888,571.03662c1.25735,2.26465,2.26749,4.66644,3.00677,7.14893
		c-2.33435,2.08435-4.41763,4.44958-6.19061,7.02832c-0.6376,0.92743-1.2554,1.90393-2.16232,2.57037
		c-0.53226,0.39105-0.5097,0.82214-0.98737,1.27832c-0.10526,0.10052-0.22806,0.20398-0.37363,0.20367
		c-0.12155-0.00031-0.22946-0.07355-0.32706-0.14606c-1.62106-1.20392-2.73837-2.94965-3.81909-4.65533
		c-0.19781-0.31219-0.39752-0.62823-0.51511-0.9787C436.92404,579.0603,440.79269,574.90887,444.84888,571.03662z"/>
	<path class="st11" d="M447.61865,577.70892c3.46432,3.83807,7.5271,7.13477,11.99631,9.73444
		c-1.83398,5.09741-3.16669,10.46533-4.88181,15.60394c-1.80893,5.41962-4.40384,10.84424-3.9462,16.53943
		c-0.03403-0.08466-0.06805-0.16931-0.10208-0.25391c-2.0062-4.9903-1.07953-10.40613-2.26022-15.65332
		c-0.45178-2.00781-1.25964-3.90808-1.96997-5.83246c-0.30991-0.83948-0.48157-1.79138-0.91595-2.5788
		c-0.29919-0.5423-0.50159-0.97559-0.63223-1.59747c-0.33356-1.58783-0.50507-3.20929-0.51645-4.8316
		c-0.01212-1.72729,0.15707-3.45587,0.50537-5.14777c0.43967-2.13568,1.05432-4.62299,2.62408-6.19598"/>
	<path class="st5" d="M424.97058,590.51862c-0.0636,0.17157-0.31479-0.00189-0.38763-0.16974
		c-0.53876-1.24127-1.07751-2.48254-1.61627-3.72375c-0.07373-0.16986-0.14862-0.34473-0.15512-0.52979
		c-0.01193-0.33875,0.20395-0.63947,0.42157-0.89935c0.43231-0.51624,0.91309-0.99164,1.43353-1.41882
		c0.31577-0.25922,0.78281-0.737,1.18515-0.83179c0.31531-0.07428,0.74585,0.00568,1.07202,0.00391
		c0.71628-0.00385,1.4325-0.02063,2.14819-0.05029c1.41431-0.05859,2.82657-0.16754,4.23312-0.32672
		c0.27084-0.03064,0.56534-0.05817,0.79697,0.08545c0.11951,0.0741,0.20914,0.18683,0.29501,0.29816
		c0.78873,1.02271,1.4762,2.12347,2.04901,3.28101c0.16064,0.32458,0.31586,0.69025,0.216,1.03839
		c-0.09396,0.3277-0.38837,0.55042-0.66037,0.75592c-1.89664,1.43286-3.54211,3.19727-4.83942,5.18909
		c1.50363,4.12134,2.88037,8.08105,4.45624,12.17535c4.92685,12.80048,0.70569,27.6347,2.4447,41.23993
		c0.26526,2.07507,0.59808,4.17822,0.29031,6.24744c-0.38702,2.60211-1.75296,4.94-3.09201,7.20435
		c-1.24466,2.10474-2.48935,4.20947-3.73401,6.31421c0.09988-0.16888-0.83395-1.59076-0.95151-1.80975
		c-0.38516-0.71747-0.77759-1.43109-1.17639-2.14105c-0.86148-1.53363-1.7529-3.05029-2.66565-4.55389
		c-0.42249-0.69598-0.90512-1.25256-1.34888-1.90118c-0.32779-0.47913-0.43304-1.15247-0.59012-1.70294
		c-0.18506-0.6485-0.35809-1.30048-0.51968-1.95526c-0.64575-2.61652-1.10751-5.27637-1.43048-7.95135
		c-0.65125-5.39368-0.74265-10.83783-0.6626-16.2644c0.0361-2.44678,0.10788-4.89276,0.18167-7.33862
		C422.68497,610.14282,426.0976,601.10388,424.97058,590.51862z"/>
	<path class="st13" d="M409.13223,692.29645c1.1001,0.13037,2.23303,0.18372,3.25226,0.61774
		c0.93616,0.39862,7.10672,0.86206,9.43158,0.93146c4.7428,0.14142,9.4856,0.2829,14.22839,0.42438
		c3.14398,0.09375,6.29138,0.1875,9.43372,0.04889c6.09952-0.26917,12.12354-1.41071,18.11313-2.59442
		c1.95389-0.38617,3.91196-0.77844,5.80731-1.39032c1.71704-0.55438,3.37195-1.28619,4.97403-2.11304
		c0.40933-0.2113,0.79739-0.46222,1.26215-0.52002c0.46152-0.05743,0.85931-0.20642,1.28833-0.38629
		c1.05496-0.44226,2.08398-0.94659,3.07965-1.50977c1.06357-0.6015,2.15167-1.34344,2.59662-2.48145
		c0.33865-0.86615,0.25116-1.83588,0.10211-2.75391c-0.16397-1.01001-1.11658-1.89355-1.52948-2.82977
		c-0.04382-0.09943-0.09531-0.20428-0.19006-0.25745c-0.11398-0.0639-0.2554-0.03448-0.38235-0.00336
		c-0.47342,0.11603-0.23294,0.14435-0.71286,0.22876c-0.07889,0.01385-0.14841,0.00793-0.22635,0.01288
		c-0.22656,0.0144-0.4422,0.09467-0.65933,0.16071c-1.0849,0.32996-2.13443,0.76257-3.20227,1.14185
		c-4.50775,1.60114-9.29291,2.22968-14.03641,2.84845c-3.42078,0.44623-6.84158,0.89246-10.26239,1.33868
		c-2.99005,0.39008-5.98047,0.78003-8.9783,1.10638c-1.44012,0.15686-2.88193,0.29907-4.32559,0.41937
		c-0.41895,0.03485-0.85757,0.11096-1.27789,0.03687c-0.99176-0.17493-1.9458-0.15424-2.95889-0.15332
		c-2.42996,0.00208-4.85995-0.0459-7.28793-0.14392c-2.71933-0.1098-5.43613-0.28235-8.14749-0.51764
		c-4.63156-0.40179-9.38654-1.03076-13.42914-3.32648c-0.13516-0.07672-1.12234,2.53204-1.1908,2.77216
		c-0.28226,0.99023-0.43774,2.01642-0.46381,3.04572c-0.02603,1.02875,0.0773,2.06128,0.31369,3.06305
		c0.15671,0.66425,0.30011,1.28583,0.9151,1.65613C405.93765,691.93274,407.68695,692.12518,409.13223,692.29645z"/>
	<g>
		<path class="st11" d="M439.88098,697.41241c-1.06296,1.1178-1.8819,2.45868-2.15198,3.94098
			c-0.28891,1.47827-0.0907,3.01013,0.2381,4.49286c0.29834,1.49689,0.75363,2.97247,1.0791,4.48737
			c0.32449,1.50964,0.55936,3.07416,0.38947,4.61768c-0.03928-1.54626-0.36481-3.04816-0.76334-4.52734
			c-0.3988-1.48077-0.85031-2.95532-1.19382-4.47437c-0.29373-1.51624-0.51202-3.12451-0.12387-4.67645
			C437.72018,699.71991,438.67908,698.37604,439.88098,697.41241z"/>
	</g>
	<g>
		<path class="st11" d="M444.7529,702.11255c0.3324,1.66968,0.44183,3.37122,0.44067,5.06836
			c-0.0199,1.69696-0.15143,3.39709-0.50687,5.06213c-0.03485-1.70105,0.005-3.38123,0.0072-5.06543
			C444.71484,705.49353,444.69708,703.81293,444.7529,702.11255z"/>
	</g>
	<g>
		<path class="st11" d="M487.0174,658.72363c1.97601,2.64435,3.4968,5.60315,4.71268,8.66803
			c1.18881,3.07544,2.08017,6.28088,2.42105,9.56464c-1.11206-3.10358-2.15387-6.17584-3.35178-9.2005
			C489.62851,664.72058,488.30887,661.75665,487.0174,658.72363z"/>
	</g>
	<g>
		<path class="st11" d="M396.85724,669.13623c-1.81131,3.02948-3.56433,6.07758-5.08392,9.24854
			c-1.57169,3.14551-2.90271,6.39996-4.18582,9.68823c0.88818-3.42084,2.20865-6.71979,3.73727-9.90778
			C392.90549,675.00269,394.70172,671.93689,396.85724,669.13623z"/>
	</g>
	<g>
		<path class="st11" d="M390.66092,659.68573c-2.13416,1.99316-4.2066,4.04663-6.22171,6.15155
			c-2.00946,2.11041-3.97153,4.26556-5.83124,6.50787c-1.89062,2.21619-3.68039,4.51648-5.41541,6.8576
			c-1.73004,2.34491-3.39908,4.73779-4.99918,7.18054c1.44235-2.53949,3.00565-5.01288,4.68707-7.40527
			c1.67639-2.39606,3.47714-4.7041,5.3454-6.95447c1.89917-2.2243,3.86435-4.39404,5.93982-6.45416
			C386.2355,663.50385,388.4057,661.54132,390.66092,659.68573z"/>
	</g>
	<polygon class="st9" points="463.84207,689.289 462.36288,689.72394 462.36288,684.07092 463.88129,683.96307 	"/>
	<polygon class="st9" points="417.98117,691.42859 416.40192,691.32129 416.40192,685.85583 418.08313,686.13934 	"/>
	<path class="st6" d="M409.83435,555.66516c-0.19452,0.78375,0.00769,1.60553,0.21695,2.3855
		c0.64789,2.41455,1.38205,4.83624,2.65005,6.99072c0.3255,0.5531,0.73657,1.12531,1.35446,1.29865s1.4212-0.32489,1.28964-0.953
		c0.66138,2.83136,2.45367,5.24152,3.75034,7.84399c1.64853,3.30872,4.29825,7.05927,7.47391,8.95148
		c2.97656,1.77362,5.35483,1.2478,8.29086-0.59216s5.13928-4.61102,7.46716-7.17749
		c0.71259-0.78564,1.45618-1.57831,1.86786-2.55585c0.40887-0.97083,0.45871-2.0495,0.50293-3.10205
		c0.05481-1.30475,0.10962-2.6095,0.16443-3.91425c0.06674-1.58844,0.59567-3.81104-0.89816-4.35504
		c0.26462-0.16492-0.11307,0.2998,0.0293,0.57721c0.1424,0.2774,0.19907,0.61023,0.42398,0.82617
		c0.58237,0.55927,1.48856-0.15576,1.95871-0.81213c1.22549-1.711,2.47006-3.45941,3.103-5.46655
		c0.63293-2.0072,0.56308-4.35345-0.69852-6.03802c-0.27112-0.36206-0.6452-0.711-1.0975-0.70953
		c-0.58719,0.00195-0.99072,0.57031-1.28998,1.0755c-0.50375,0.8504-1.00751,1.70087-1.51126,2.55127
		c0.33493-1.40363,0.31323-2.89081-0.06247-4.28406c-0.32797-1.21619-0.91467-2.34418-1.49701-3.46112
		c-0.59167-1.13483-1.18332-2.26971-1.77499-3.40454c-0.5419-1.03937-1.09644-2.09625-1.92462-2.92578
		c-0.9155-0.91693-2.12238-1.50452-3.375-1.83588c-1.84116-0.48706-3.77188-0.43781-5.62869-0.06451
		c-0.92941,0.18689-1.84216,0.45117-2.73697,0.76306c-0.45398,0.1582-0.89609,0.34808-1.34854,0.50903
		c-0.31577,0.1123-0.5896,0.07086-0.91415,0.10626c-1.89105,0.20605-3.82257,0.78406-5.64267,1.31805
		c-1.65588,0.4859-3.34528,1.08838-4.58539,2.28845c-1.32764,1.28479-1.98788,3.11554-2.3309,4.93097
		c-0.21426,1.13403-0.32108,2.28406-0.461,3.42865c-0.06754,0.55249-0.10455,1.14191-0.24582,1.68127
		c-0.05194,0.19836-0.14282,0.28558-0.25208,0.448c-0.43311,0.64417,0.38626,1.2359,0.12292,1.95544
		C411.38379,553.93536,410.03848,554.84253,409.83435,555.66516z"/>
	<path class="st14" d="M427.25443,571.42139c3.56357,0.26465,7.13513-0.92505,10.31995-2.58136
		c-3.20587,7.56616-11.42154,9.20959-15.52237,1.45703C423.04044,570.57275,425.0289,571.25616,427.25443,571.42139z"/>
	<path class="st8" d="M419.36624,556.61963c-0.51065,0.01758-1.00742,0.16187-1.49786,0.30518
		c-0.72781,0.21259-1.45566,0.42523-2.18347,0.63782c0.49893-0.81384,1.43878-1.33789,2.3934-1.33447
		c0.46359,0.00165,0.92059-0.2561,1.38135-0.20502c0.63968,0.07086,1.28342,0.38947,1.92694,0.38214
		c0.14548-0.00165,0.29517-0.00006,0.42996,0.05469c0.10565,0.04285,0.1958,0.11591,0.28424,0.18793
		c0.33871,0.27582,0.67697,0.55219,1.01611,0.82745c0.11099,0.09009,0.18884,0.20831,0.01746,0.28632
		c-0.13358,0.06079-0.29614-0.02441-0.41586-0.07635c-0.69971-0.30334-1.37762-0.66809-2.11096-0.88727
		C420.20526,556.67786,419.78717,556.60516,419.36624,556.61963z"/>
	<path class="st8" d="M434.66632,557.35681c1.54593-0.7439,3.27914-1.0946,4.99268-1.01019
		c0.5087,0.02502,1.07434,0.07098,1.47003-0.24969c-0.5173-0.2193-1.03458-0.43854-1.55188-0.65784
		c-0.16547-0.07013-0.33615-0.14142-0.51587-0.14386c-0.15271-0.00208-0.30115,0.04584-0.44632,0.0932
		c-0.63678,0.20782-1.27356,0.41565-1.91034,0.62354c-0.56567,0.18463-1.12994,0.3988-1.71463,0.51599
		c-0.45981,0.09222-0.87366,0.11536-1.30524,0.29553c-0.25101,0.10474-0.48901,0.24036-0.70795,0.40167
		c-0.43112,0.31769-0.78912,0.73639-1.02563,1.21753c0.43799-0.18268,0.86423-0.40802,1.33652-0.46735
		C433.76385,557.91553,434.23917,557.56238,434.66632,557.35681z"/>
	<path class="st8" d="M416.39737,544.98694c-0.03711,0.78271-0.07513,1.56976-0.22693,2.34039
		c-0.06812,0.34595-0.13864,0.72491-0.30826,1.04089c-0.09497,0.17688-0.23477,0.29663-0.37204,0.43817
		c-0.39999,0.41229-0.6077,1.02643-0.80026,1.55719c-0.44003,1.21259-0.6564,2.49902-0.71365,3.78528
		c-0.0195,0.43878-0.02042,0.87842-0.00473,1.31732c0.08438,2.36108,0.62021,4.67975,1.14664,6.98291
		c0.13974,0.61139,0.27988,1.23694,0.20999,1.86023c-1.14075-3.74664-2.4917-7.65613-3.63245-11.40277
		c-0.20654-0.67834-0.41443-1.36377-0.46448-2.07117c-0.0574-0.81146,0.0939-1.61658,0.22598-2.41339
		c0.08389-0.50629,0.20038-1.04163,0.14871-1.55115c-0.03284-0.32385-0.02881-0.65417-0.05051-0.97992
		c-0.04526-0.67963-0.12271-1.35669-0.20819-2.03229c-0.17023-1.34564-0.37686-2.69031-0.42905-4.04742
		c-0.04456-1.15845,0.02982-2.32788,0.33945-3.44922c0.24475-0.88654,0.63116-1.72644,1.01587-2.56183
		c0.26724-0.58026,0.54102-1.17059,0.97058-1.64349c0.78577-0.86499,1.96936-1.2168,3.01617-1.73633
		c1.21133-0.6012,2.28146-1.45807,3.49133-2.06219c1.65543-0.82666,3.51462-1.15179,5.35593-1.33435
		c4.03882-0.40039,8.14069-0.1579,12.10419,0.71558c2.08856,0.46027,4.13596,0.56848,5.62201,2.10657
		c1.10971,1.1485,1.19614,2.90137,1.4509,4.47797c0.3288,2.03467,1.03732,3.99213,1.38507,6.02356
		c0.45737,2.67169,0.28131,5.40631,0.10388,8.11102c-0.16,2.43896-0.31998,4.87787-0.47998,7.31683
		c-0.37543-1.53339-0.75085-3.06671-1.12628-4.6001c-0.17563-0.71741-0.41296-1.5174-1.06546-1.8634
		c-0.32306-0.17139-0.70367-0.2016-1.03677-0.35254c-0.98407-0.4458-1.21591-1.70667-1.38583-2.77356
		c-0.16617-1.04327-0.39542-2.07648-0.68607-3.0921c-0.08987-0.31409-0.19907-0.64679-0.45621-0.84827
		c-0.53616-0.42017-1.30292-0.03473-1.88574,0.31787c-3.12387,1.89008-6.79974,2.72485-10.44714,2.89038
		S420.00369,545.55731,416.39737,544.98694z"/>
	<path class="st11" d="M418.87009,578.27881c-4.02127,4.065-8.85037,7.3277-14.12238,9.54144
		c-0.22516,0.09454-0.46982,0.20416-0.57718,0.42352c-0.09943,0.20306-0.05276,0.44397-0.0043,0.66479
		c1.547,7.05042,2.79959,14.16162,4.05173,21.27032c0.57416,3.25964,1.14832,6.51929,1.72247,9.77887
		c0.71564,4.06299,1.43161,8.12811,1.93927,12.22223C411.8797,632.17999,420.8186,593.02325,418.87009,578.27881"/>
	<path class="st12" d="M425.49377,582.65717c0.08661,0.12067,0.17651,0.25043,0.18375,0.39874
		c0.00906,0.18628-0.11322,0.35034-0.22955,0.49609c-1.32758,1.66315-2.68842,3.29974-4.08139,4.90851
		c-1.58902-2.07349-2.78131-4.44989-3.49365-6.9632c-0.12238-0.43176-0.23163-0.87872-0.1846-1.32501
		c0.05811-0.55145,0.34961-1.05066,0.67944-1.49634c0.4028-0.54443,0.87366-1.03827,1.39725-1.46771
		c0.36841-0.30212,0.97751-0.87231,1.45569-0.46216c0.26743,0.22931,0.45786,0.59509,0.66208,0.87964
		c0.2283,0.31812,0.45657,0.63617,0.68484,0.95422c0.45657,0.63617,0.91315,1.27234,1.36969,1.90851
		C424.45615,581.21136,424.97498,581.93427,425.49377,582.65717z"/>
	<rect x="430.82706" y="686.74609" class="st15" width="17.04103" height="4.9748"/>
	<path class="st6" d="M706.4668,554.43317c-2.62646,0.01953-5.1889-1.29688-7.78955-0.92859
		c-1.5119,0.21411-2.88342,0.98199-4.18097,1.78705c-2.56506,1.59143-5.03162,3.41205-6.94507,5.74683
		c-4.85071,5.91895-5.4682,14.13074-5.87457,21.77264c-0.04968,0.93427-0.08069,1.94159,0.43573,2.7218
		c0.59625,0.90094,1.74323,1.23694,2.58258,1.91718c0.70282,0.56964,1.17413,1.3689,1.63031,2.15015
		c1.51031,2.58673,3.02063,5.17346,4.53101,7.76019c0.5307,0.90906,0.02081,2.4209,0.42572,3.37469
		c0.38922,0.91687,1.92474,1.78577,1.5813,2.80072c-0.09296,0.27466-0.32617,0.47656-0.50269,0.6983
		c-0.52765,0.66309-1.06091,1.26819-1.73669,1.78815c-1.35126,1.03967-2.95239,1.72083-4.57233,2.22015
		c-2.60828,0.80408-5.35321,1.22345-7.81671,2.39868c-3.76263,1.79498-6.51202,5.4256-7.48322,9.45129
		c-0.27826,1.1535-0.41107,2.3429-0.37909,3.52948c0.03479,1.29144,0.07416,2.6012,0.87836,3.6861
		c1.10803,1.49475,3.20605,1.95679,5.04022,1.64417s3.48755-1.25836,5.13245-2.12793
		c8.94513-4.72864,18.85938-7.61414,28.94489-8.42438c-3.1601,0.8233-6.11066,2.43829-8.50732,4.65637
		c-0.60474,0.55969-1.20569,1.21906-1.30438,2.03711c-0.21106,1.74994,1.79846,2.80878,3.37885,3.58929
		c2.14703,1.06042,4.06744,2.52008,5.9729,3.9704c3.33289,2.5368,6.66577,5.07355,9.99866,7.61029
		c0.68323,0.52002,1.39172,1.05249,2.22473,1.26062c0.83307,0.20819,1.83099,0.00763,2.31476-0.70178
		c1.92273-2.81982,2.11285-6.37079,2.49066-9.76282c1.59955,5.20508,4.70673,9.79651,7.83044,14.25671
		c3.60303,5.14465,7.62042,10.49762,13.49249,12.7265c0.63202,0.23993,1.3988,0.4231,1.93909,0.01691
		c0.36157-0.27179,0.51276-0.7345,0.64099-1.16821c1.7171-5.80835,2.92163-11.76807,3.59485-17.78735
		c0.12701-1.13556,0.23096-2.31403-0.13495-3.39642c-0.76251-2.25549-3.21954-3.3537-5.14795-4.75006
		c-5.07806-3.677-7.18262-10.39624-12.11652-14.26453c-9.65698-7.57117-7.02521-23.36267-12.67725-34.25458
		c-2.88446-5.55865-6.69714-10.65656-8.91864-16.51178c-0.45587-1.20148-0.85303-2.4502-1.61084-3.48804
		c-0.60004-0.82184-1.39941-1.47314-2.09808-2.21295c-1.13074-1.19727-1.99475-2.62329-3.10431-3.84021
		C707.51715,555.16846,708.11359,554.42096,706.4668,554.43317z"/>
	<path class="st6" d="M670.04974,616.79816c-6.16882,2.67975-11.10199,7.50037-16.07611,12.02728
		c-4.97418,4.52692-10.37524,8.98529-16.8924,10.64709c1.87244,7.17065,2.94861,14.54889,3.20233,21.95563
		c2.18884-2.39734,5.17645-3.87427,8.03564-5.41144c7.83789-4.21375,15.22345-9.26807,21.98926-15.04834
		c3.67517-3.13989-0.42456-9.54883,0.67212-14.25665c0.90961-3.90454,4.35077-7.03882,4.51971-11.04437
		c0.01654-0.39093-0.01129-0.81586-0.26276-1.1156c-0.56439-0.67273-1.64746-0.21161-2.37134,0.28546
		C671.83978,615.54218,671.19183,616.302,670.04974,616.79816z"/>
	<path class="st16" d="M670.74835,637.98041c0.70312,10.0625,1.40619,20.125,2.10931,30.1875
		c2.17615,0.75391,4.67267,1.14844,6.97571,1.13873c2.49384-0.0105,4.98889,0.30542,7.40137,0.93726
		c8.62531,2.25897,17.76147,2.2063,26.67694,2.0921c1.97284-0.02527,3.94696-0.0838,5.91089-0.27216
		c0.52209-0.05011,1.14923-0.19073,1.31116-0.68958c0.11566-0.35626-0.07001-0.73193-0.23334-1.06903
		c-1.07336-2.21521-1.30017-4.79626-0.75458-7.18689c0.27618-1.21027,0.81647-2.32965,1.2417-3.48718
		c0.39514-1.07556,0.74664-2.16687,1.06165-3.26849c0.63098-2.2066,1.11481-4.45288,1.51654-6.71173
		c0.49976-2.81036,0.8725-5.64111,1.24365-8.4707c0.06628-0.50537,0.12714-1.0459-0.10059-1.50195
		c-0.62292-1.24731-2.56421-0.75842-3.77319-1.45294c0.06696-2.24658-0.89679-4.76105-2.21838-6.57898
		c-2.315-3.18445-6.30688-4.78326-10.22284-5.18939s-7.85413,0.21826-11.76874,0.63727
		c-3.37939,0.36176-6.80023,0.57562-10.07166,1.49719c-2.4826,0.6994-4.83691,1.79602-7.10327,3.02728
		C676.48102,633.50372,673.80463,635.48029,670.74835,637.98041z"/>
	<path class="st17" d="M670.21722,627.74316c3.24731-3.85651,7.51428-6.67133,12.00006-8.89038
		c0.90875-0.44952,1.91766-0.78918,2.74469-1.38959c0.25824-0.1875,0.49426-0.3913,0.78638-0.52704
		c0.96252-0.44727,2.14941-0.57672,3.1756-0.8399c1.12-0.28729,2.23657-0.58771,3.34955-0.90125
		c4.45178-1.25409,8.84467-2.71729,13.1593-4.383c3.08502-1.19098,6.13-2.48553,9.12799-3.88116
		c0.5069,2.16956,2.67633,3.49152,3.92145,5.33911s2.33154,4.03455,1.90869,6.22205
		c-0.07495,0.38757-0.24292,0.81659-0.61566,0.94659c-12.79517,4.46136-23.96979,11.78644-36.71826,16.37952
		c-1.78204,0.64203-3.57098,1.26862-5.31683,2.0033c-2.6554,1.11755-5.21399,2.48914-7.52069,4.21521
		C669.91913,637.08698,670.18933,632.70184,670.21722,627.74316z"/>
	<path class="st17" d="M673.1109,667.97729c-10.28571,15.4765-14.17102,34.34253-15.74457,52.85852
		c-0.02893,0.34082-0.05347,0.70209,0.10126,1.00708c0.28741,0.56647,1.03278,0.68457,1.66736,0.71246
		c3.14044,0.13818,6.27875-0.21869,9.4057-0.54016c19.76135-2.03137,39.66602-2.66687,59.51666-1.90009
		c1.04828,0.04047,1.79584-0.60632,2.76373-1.01099c0.04962-0.02075-0.5578-3.94769-0.59174-4.32971
		c-0.15259-1.71869-0.22211-3.44366-0.25732-5.1684c-0.06781-3.32599-0.00592-6.6546-0.15411-9.97888
		c-0.0708-1.58795-0.18921-3.17487-0.39386-4.75159c-0.07471-0.57587-0.22516-1.14478-0.26233-1.71808
		c-0.04083-0.63037-0.0885-1.25726-0.1745-1.88354c-0.34442-2.50916-1.11456-4.93958-2.05646-7.28369
		c-0.79987-1.99066-1.72638-3.92706-2.66034-5.85736c-1.89594-3.91846-3.93762-7.99054-7.46088-10.54706
		C704.33118,658.53162,686.95715,661.19702,673.1109,667.97729z"/>
	<path class="st14" d="M699.20239,593.7229c2.12238,0.04492,4.22644-0.37152,6.29352-0.8551
		c1.04565-0.24457,2.16278-0.55322,2.83966-1.38702c-1.0625,1.39008-2.1463,2.78912-3.51398,3.88031
		c-1.36761,1.09119-3.06696,1.86102-4.81512,1.79083c-2.31256-0.0929-4.35803-1.64026-5.7027-3.52399
		c-0.16785-0.23517-0.32715-0.47632-0.48975-0.71521c-0.07397-0.10864-0.46869-0.52936-0.44678-0.64642
		c0.06256-0.33521,0.96045,0.30328,1.1084,0.37695c0.93781,0.46674,1.95435,0.76447,2.98743,0.92743
		C698.03839,593.66144,698.62012,593.71057,699.20239,593.7229z"/>
	<path class="st8" d="M702.8656,573.57739c-0.49475,0.48895-0.9895,0.97784-1.48425,1.46674
		c0.63763-0.05011,1.20984-0.38953,1.80591-0.62146c1.97253-0.76758,4.19122-0.35156,6.23895,0.18384
		c0.81073,0.21191,1.7265,0.42798,2.44214-0.00793c-1.0257-0.82397-2.53729-0.55652-3.77142-1.01257
		c-0.3443-0.1272-0.66541-0.31085-1.00854-0.4411c-1.703-0.6463-3.59235,0.10675-5.2229,0.91858"/>
	<path class="st8" d="M689.0307,575.14264c-0.4884,0.1814-0.94275,0.4472-1.43481,0.61847
		c-0.49207,0.1712-1.05042,0.24072-1.52478,0.02521c0.11285-0.26392,0.35889-0.44324,0.59973-0.59943
		c1.17389-0.76105,2.49927-1.28369,3.87311-1.54456c0.68713-0.13049,1.3822-0.18896,2.08118-0.19391
		c0.42944-0.00305,0.87305-0.00378,1.26904,0.1842c0.22766,0.10815,0.43207,0.26172,0.63135,0.41431
		c0.29315,0.22449,0.63727,0.46234,0.84222,0.77399c-0.77325,0.20422-1.69647,0.09192-2.4859,0.0473
		c-0.8316-0.04694-1.66876-0.10956-2.50018-0.02594C689.92145,574.88861,689.46503,574.98132,689.0307,575.14264z"/>
	<path class="st8" d="M703.14648,553.96637c-1.46704,0.04321-2.14777,4.53687-4.15442,5.97748
		c-0.13763,0.35254-0.2876,0.72223-0.58459,0.95691c-0.2749,0.21716-0.63489,0.28589-0.97913,0.35126
		c-2.15533,0.40912-4.61652,0.23364-6.24896,1.69928c-0.61853,0.5553-1.12994,1.21936-1.60095,1.9043
		c-2.56616,3.73175-4.01404,8.22217-4.11115,12.75c-0.04724,2.20068,0.21753,4.39606,0.63068,6.55438
		c0.15826,0.82678,0.38782,1.64459,0.52954,2.47327c0.02765,0.16156,0.04572,0.32239,0.03821,0.48645
		c-0.01086,0.23828-0.07812,0.4696-0.08466,0.70844c-0.00995,0.36627,0.08826,0.73169,0.19,1.08044
		c0.45844,1.57111,1.38507,2.95044,2.21265,4.34399c0.0249,0.04199,0.04974,0.08392,0.07452,0.12598
		c1.55762,2.64203,2.76752,5.48871,3.58875,8.44373c0.15894,0.57208,0.30438,1.15497,0.31,1.74866
		c0.0083,0.87579-0.28735,1.72498-0.62781,2.53192c-1.75586,4.16162-4.8399,7.75092-8.68976,10.11334
		c-1.57629,0.96729-2.93903,2.16504-4.47357,3.1972c0.45551-1.6355,1.75208-2.87866,2.99469-4.03564
		c-2.08917,1.19061-3.92133,2.82971-5.33624,4.77399c0.43597-1.05029,0.87195-2.10059,1.30792-3.15088
		c-1.30646,1.56897-2.56152,3.18073-3.76245,4.83179c0.15375-0.47845,0.3075-0.95697,0.46124-1.43549
		c-1.9314,3.0213-3.89044,6.10388-4.82019,9.56708c-0.90295,3.36328-0.80048,6.97186-2.0332,10.2287
		c-0.58319,1.54095-1.45917,2.97046-2.56732,4.18976c-1.40149,1.54199-3.33228,2.79041-5.41418,2.70154
		c-0.05261-5.4328,1.25201-10.87366,3.76276-15.69183c-1.99634,0.56348-3.43774,2.25305-4.75275,3.8573
		c0.32806-1.79907,1.01178-3.53247,2.00018-5.07111c0.98999-1.5412,2.34784-3.12256,2.09503-4.93683
		c-0.05878-0.42169-0.2063-0.8324-0.20801-1.25818c-0.00146-0.375,0.11035-0.74005,0.22107-1.09827
		c0.31512-1.01929,0.63019-2.03857,0.94525-3.05786c0.84082-2.72009,1.59186-5.69623,2.72827-8.3067
		c0.33234-0.76343,0.68585-1.52271,1.15631-2.20966c0.62781-0.91656,1.44763-1.68152,2.18896-2.50897
		c1.66333-1.85645,2.94415-4.05408,3.7395-6.41632c1.3385-3.97528,1.02863-8.22595,2.74133-12.05493
		c0.81995-1.83319,1.82019-3.63116,2.11462-5.61768c0.35516-2.39667-0.3316-4.97662,0.65448-7.1897
		c1.72052-3.86115,0.7287-8.711,3.12207-12.19531c1.18274-1.72186,2.77289-3.11414,4.24414-4.59711
		c0.81378-0.82031,1.60107-1.6781,2.5365-2.35645c1.46069-1.05933,3.21185-1.63123,4.94769-2.12378
		c1.11804-0.31726,3.50562-1.01062,4.65063-0.81134C700.02911,553.63879,703.56909,552.88367,703.14648,553.96637z"/>
	<path class="st8" d="M711.25317,597.9743c0.21167-0.36505,0.07642-1.03015,0.08441-1.41443
		c0.07343-3.5224,0.51849-7.02631,1.03278-10.51172c0.37671-2.55267,0.79193-5.11462,0.75897-7.6947
		c-0.03619-2.83698-0.62146-5.66589-1.71393-8.2843c-1.19226-2.85773-4.20312-4.66113-6.76898-6.39453
		c-1.02423-0.69196-2.09235-1.37213-3.2973-1.64758c-1.3949-0.31891,0.58087-1.13397-0.82788-0.88354
		c0.50836-4.13727,1.78711-5.84106,1.263-6.95917c2.70325-1.58618,9.15631-0.04041,11.78357,1.6687
		c1.81079,1.17792,3.36469,2.15753,5.22449,3.25647c3.56268,2.1051,5.99561,5.66962,8.05426,9.25934
		c1.04529,1.82275,2.03491,3.70917,2.61554,5.73798c0.1286,0.4494,0.23676,0.89313,0.26611,1.35974
		c0.0329,0.52344,0.06427,0.96014,0.32501,1.43164c0.78552,1.42029,1.54169,2.789,2.12036,4.31372
		c0.76318,2.0108,1.34448,4.08368,2.0343,6.11963c2.18433,6.44653,5.50494,12.50104,7.18805,19.09625
		c1.18866,4.65759,1.54407,9.52747,3.14001,14.06165c0.8269,2.34918,1.9762,4.57495,2.79865,6.92572
		c0.82245,2.35071,1.31201,4.90485,0.75952,7.33319c-0.47516-1.97729-0.95032-3.95465-1.42548-5.93201
		c0.06525,1.85437,0.29749,3.70276,0.69299,5.51562c-0.77081-1.06458-1.26709-2.32617-1.42828-3.63055
		c0.07501,0.50555,0.15002,1.01117,0.22504,1.51672c-0.28485-0.33832-0.48273-0.74933-0.56946-1.18311
		c0.16742,0.94427,0.33484,1.88849,0.50226,2.8327c-1.62592-3.50708-4.06085-6.63617-7.06104-9.07385
		c0.70819,2.74902,2.9743,5.12598,2.78033,7.95813c-0.41705-0.09601-0.83411-0.19196-1.25116-0.2879
		c0.07166,0.49731,0.14337,0.99463,0.21503,1.49194c-0.54443-0.54041-1.45178-0.31323-2.17242-0.05035
		c-0.59534,0.2171-1.19067,0.4342-1.78601,0.65137c-0.2807,0.10236-0.60474,0.20215-0.86548,0.05627
		c-0.23944-0.13397-0.33228-0.42328-0.45599-0.66815c-0.31451-0.62268-0.9585-1.06647-1.65234-1.13873
		c-0.17065,0.51514-0.34131,1.03033-0.51196,1.54553c-0.28589-2.37006-1.40131-4.6319-3.1076-6.30145
		c-0.08521,1.61365-0.47247,3.21082-1.12994,4.68665c-0.1355,0.30408-0.28589,0.81042-0.51251,1.08948
		c-0.17944,0.22095-0.53448,0.36761-0.77625,0.5097c-0.29932,0.17596-0.604,0.34271-0.91357,0.49994
		c-0.23987,0.12189-0.50098,0.24121-0.76746,0.20392c-0.26648-0.03723-0.51709-0.30139-0.43762-0.55847
		c-0.5722,0.27942-1.14441,0.55884-1.71655,0.83832c-0.0921,0.04498-0.19177,0.09119-0.29297,0.07489
		c-0.09967-0.01611-0.17908-0.08936-0.25189-0.1593c-0.38312-0.36768-0.76624-0.73535-1.14929-1.10309
		c-0.26459-0.25391-0.54932-0.55499-0.53552-0.92145c0.09906-2.62476-1.58173-5.04675-2.29181-7.57556
		c-0.20215-0.71979-0.40826-1.44904-0.78986-2.09198c-0.38971-0.65656-0.9494-1.20026-1.3324-1.86072
		c-0.91681-1.58118-0.69147-3.54456-0.50122-5.36237c0.06854-0.6546,0.12677-1.33136-0.07379-1.95825
		c-0.13245-0.41406-0.3714-0.78442-0.60767-1.14929c-0.89349-1.3797-1.78693-2.7594-2.68042-4.1391
		C711.41003,605.90552,711.25317,597.9743,711.25317,597.9743z"/>
	<g>
		<path class="st8" d="M691.77551,600.45319c0.57422,0.86755,1.08929,1.86432,1.96027,2.40552
			c0.47498,0.30518,0.79224,0.75806,1.15192,1.12445c0.36005,0.37921,0.73755,0.73975,1.14014,1.06512
			c0.80579,0.63824,1.70898,1.18903,2.69745,1.37946c0.99023,0.2049,2.00232-0.04108,2.92944-0.47943
			c0.94897-0.40448,1.79639-1.04639,2.6778-1.60236c0.43341-0.29224,0.89191-0.55042,1.28656-0.89685
			c0.41217-0.32709,0.79224-0.66003,1.3028-0.96045c0.41327-0.2074,0.73798-0.64984,1.11371-1.02716l1.07794-1.1557l1.09827-1.14191
			c0.35992-0.39032,0.7547-0.74292,1.04138-1.18958c-0.25128,0.46777-0.62433,0.85797-0.94843,1.2691l-1.00824,1.22479
			l-1.03052,1.20923c-0.3526,0.37683-0.63849,0.84399-1.16437,1.15125c-0.39069,0.25525-0.80231,0.62604-1.21405,0.95923
			c-0.39673,0.35785-0.85901,0.62823-1.29633,0.93243c-0.89471,0.58167-1.73376,1.24109-2.73004,1.68274
			c-0.97491,0.448-2.12579,0.71649-3.22449,0.47009c-1.09149-0.23517-2.05286-0.82019-2.85602-1.53247
			c-0.40411-0.35657-0.77563-0.7439-1.12573-1.14606c-0.35767-0.40314-0.64764-0.84308-1.05597-1.13489
			C692.69843,602.38654,692.289,601.36469,691.77551,600.45319z"/>
	</g>
	<path class="st12" d="M592.19476,589.74945c-5.70959-0.16736-11.41608-0.44049-17.11554-0.81909
		c1.88513,18.69604-2.27698,37.99115,0.24445,56.612c0.98462,7.27142,1.18213,14.62164,0.97589,21.94971
		c-0.10846,3.85352-0.32422,7.70312-0.57971,11.54938c-0.04822,0.72614-0.10901,1.43933-0.289,2.14606
		c-0.20325,0.79797-0.50018,1.53729-0.50238,2.37408c-0.00372,1.40704,0.38251,2.85547,0.6109,4.23926
		c7.39014-3.82788,15.82239-5.61908,24.13043-5.12598c6.08008,0.3609,11.10638,0.27374,17.1731-0.26685
		c3.62103-0.32269,7.25488-0.50146,10.89008-0.53583c4.1676-0.03937,7.09412,2.66705,10.49786,5.07227
		c0.72906,0.5152,1.45288,1.08075,2.31226,1.32251s1.91003,0.06915,2.41992-0.66364
		c0.47998-0.68982,0.34509-1.61658,0.20911-2.44592c-0.65912-4.01965-0.87213-8.11237-0.63373-12.17871
		c0.5094-8.69073-3.16388-16.81592-3.77557-25.5c-0.57849-8.21283-1.29828-15.37598-2.25928-23.55286
		c-0.98309-8.36462-1.33948-16.62048-1.49139-25.04132c-0.06415-3.55731-0.2663-6.67688-0.55963-10.2226
		c-4.24542,0.8692-8.60016,1.20349-12.92853,0.99237c-2.42737,0.27283-5.27551,0.64471-7.70288,0.91754
		c-2.5199-1.04382-4.0274-2.78192-5.50385-5.07532c0.04059,3.05469-0.01288,6.1106-0.16028,9.16199
		c-0.02435,0.50421-0.08167,1.07098-0.474,1.38861c-0.68304,0.55298-1.65674-0.08813-2.5304-0.18335
		c-0.74536-0.08124-1.47864,0.26324-2.22815,0.24512c-0.21362-0.00519-0.44916-0.0531-0.57629-0.22491
		c-0.10522-0.14221-0.10925-0.33282-0.10895-0.50977c0.00153-1.03119,0.00305-2.06238,0.00458-3.09357
		c0.00238-1.62634-1.2085-3.31537-2.76538-3.7854c-0.48041-0.14502-0.9884-0.16376-1.48987-0.1814
		c-1.40967-0.04968-2.88562-0.08594-4.15192,0.53528C592.92358,589.29706,593.2113,589.77924,592.19476,589.74945z"/>
	<path class="st6" d="M608.03864,584.86487c0.31946,0.02948,0.64172,0.02875,0.96106-0.00214
		c0.19421-0.01874,0.38904-0.04907,0.57166-0.11774c1.49237-0.56122,0.99451-2.7677,0.43854-3.81537
		c-0.58777-1.1076-1.59918-1.95673-2.73724-2.48328c-0.34631-0.16022-0.71509-0.29919-0.98761-0.56635
		c-0.15063-0.14758-0.26727-0.33063-0.43652-0.45642c-0.57965-0.43085-1.43701,0.03369-1.79919,0.65851
		c-0.36218,0.62488-0.4502,1.37939-0.81366,2.00348c-0.0658,0.11298-0.15076,0.2287-0.27686,0.26324
		c-0.12762,0.03491-0.25964-0.02277-0.3844-0.06683c-0.72687-0.25665-1.59894-0.03107-2.11011,0.54596
		c-0.35333,0.3988-0.46808,0.84717-0.72491,1.31396c0.69263,0.85406,1.32104,1.76025,1.87811,2.70831"/>
	<path class="st6" d="M600.68512,586.14087c-0.82446-0.39954-1.76245-0.65967-2.65692-0.46143s-1.70685,0.95874-1.72858,1.87463
		c-1.13654-0.82629-2.31989-1.67377-3.69702-1.95306c-0.6026-0.12225-1.2478-0.12628-1.81238,0.11743
		c-0.56451,0.24371-1.03064,0.76892-1.08618,1.38129c-0.07745,0.85535,0.62024,1.67609,0.42163,2.51166
		c0.61389,0.24713,1.21326,0.11096,1.8642,0.23029c0.68268,0.12518,1.36383,0.35797,2.05438,0.27856
		c0.33057-0.03809,0.66113-0.07611,0.99176-0.11414c0.66113-0.07605,1.32233-0.1521,1.98346-0.22815
		c0.52838-0.06079,1.07544-0.12,1.58258,0.04022c0.802,0.25336,1.34967,1.01501,1.62323,1.8103
		c0.11084,0.32208,0.19312,0.66827,0.4173,0.92474c0.31293,0.35791,0.84424,0.45734,1.31152,0.36963
		c0.46722-0.08765,0.88763-0.33264,1.29742-0.57355c0.38611-0.22699,0.83276-0.63977,0.625-1.0365
		c0.05438,0.19867,0.10876,0.39734,0.16321,0.59601c0.4306-0.04681,0.86127-0.09363,1.29193-0.14044
		c0.18634-0.02026,0.38458-0.04535,0.52863-0.16541c0.15503-0.12927,0.21222-0.33929,0.25354-0.53693
		c0.21954-1.04999,0.22485-2.14435,0.01544-3.19647c-1.11151-0.79785-2.12128-1.7373-2.99713-2.78845
		c-0.37433-0.44922-0.60834-0.6156-1.19281-0.59833c-0.58441,0.01727-1.12036,0.49994-1.19849,1.07941
		C600.70911,585.79761,600.71277,585.90497,600.68512,586.14087z"/>
	<g>
		<path class="st18" d="M600.64258,592.55322c0.25018,0.24951,0.60394,0.34192,0.93658,0.33734
			c0.33746-0.00476,0.65912-0.12341,0.95795-0.28015c0.28833-0.16309,0.61096-0.34167,0.85974-0.53796
			c0.25214-0.19745,0.44623-0.49689,0.32068-0.67633l0.33215-0.13068l0.18091,0.591l-0.21216-0.14441l1.40326-0.17682
			c0.22516-0.03699,0.32141-0.08484,0.3891-0.24298c0.06732-0.15845,0.10254-0.41071,0.13904-0.63251
			c0.13196-0.91016,0.10931-1.83972-0.0531-2.74377l0.09418,0.14618c-1.06525-0.7851-2.04944-1.68762-2.86792-2.72504
			c-0.20825-0.25775-0.38855-0.51831-0.64032-0.63464c-0.24957-0.10614-0.59143-0.1286-0.86688-0.04889
			c-0.28552,0.08661-0.54681,0.28839-0.70221,0.55859c-0.16339,0.26715-0.1626,0.61133-0.22845,0.92871
			c0.02435-0.32275-0.02887-0.66333,0.12512-0.98187c0.14136-0.31189,0.40601-0.56866,0.73328-0.70526
			c0.33868-0.13202,0.69427-0.13593,1.05139-0.01428c0.35986,0.14648,0.57581,0.44525,0.79034,0.67383
			c0.87634,0.94806,1.82733,1.82562,2.8822,2.5636l0.07391,0.05176l0.02045,0.09479
			c0.20587,0.95502,0.21918,1.94928,0.05157,2.91052c-0.04858,0.24237-0.07025,0.46747-0.18811,0.74689
			c-0.05951,0.13422-0.172,0.28168-0.32153,0.36414c-0.14612,0.0835-0.2926,0.10962-0.42041,0.12726
			c-0.48523,0.04956-0.94611,0.09955-1.42212,0.13342l-0.1745,0.01239l-0.03796-0.15704l-0.14539-0.60071l-0.34161-1.4118
			l0.67383,1.28113c0.11462,0.21802,0.06335,0.49677-0.05219,0.66321c-0.11133,0.17633-0.25549,0.30396-0.4054,0.41449
			c-0.31555,0.21155-0.6109,0.36334-0.94678,0.50653c-0.33014,0.13446-0.6933,0.22943-1.05603,0.19867
			C601.21765,592.98828,600.85577,592.83588,600.64258,592.55322z"/>
	</g>
	<g>
		<path class="st18" d="M602.70477,580.3999c0.53363,0.28217,1.06055,0.57501,1.57861,0.88184
			c0.51813,0.30988,1.0329,0.61176,1.53857,0.95245c0.492,0.35291,1.02252,0.67499,1.40143,1.17017
			c0.39233,0.47211,0.68726,1.0191,0.86475,1.59662c-0.26355-0.54285-0.60712-1.03711-1.00909-1.46954
			c-0.38965-0.44788-0.90247-0.75922-1.39703-1.09045c-0.4809-0.34949-1.00757-0.6546-1.50067-0.99731
			C603.68103,581.10864,603.18958,580.75958,602.70477,580.3999z"/>
	</g>
	<g>
		<path class="st18" d="M600.68512,586.14087c0.49689,0.82288,1.08612,1.49701,1.69012,2.22467
			c0.58228,0.72406,1.17987,1.55542,1.33521,2.52057c-0.51996-0.80829-1.11896-1.47577-1.72345-2.20599
			C601.40393,587.95471,600.81506,587.11005,600.68512,586.14087z"/>
	</g>
	<g>
		<path class="st18" d="M596.29962,587.55408c0.23566,0.4212,0.60205,0.68164,0.94751,1.01422
			c0.17889,0.15942,0.32697,0.34015,0.48639,0.51575c0.14581,0.18439,0.29889,0.38275,0.36737,0.6192
			c-0.16235-0.17566-0.34851-0.31281-0.52179-0.47174c-0.16718-0.16296-0.34454-0.32202-0.49884-0.49475
			c-0.15881-0.17035-0.33563-0.32861-0.47858-0.52753C596.44818,588.0191,596.34845,587.78589,596.29962,587.55408z"/>
	</g>
	<path class="st19" d="M589.41461,601.25354c9.77625-0.2478,19.55249-0.49554,29.32874-0.74335"/>
	<g>
		<path class="st10" d="M626.85156,679.84589c-0.75372-1.01007-1.49152-2.03699-2.21307-3.07544l0.18536-0.11237
			c0.69781,1.14807,1.52557,2.21631,2.44598,3.19501c0.92896,0.96991,1.94836,1.86237,3.10229,2.57361
			c-1.21436-0.60419-2.3064-1.45135-3.26129-2.41962c-0.95905-0.96747-1.79211-2.05896-2.47375-3.23895l0.18536-0.11237
			C625.51495,677.70587,626.19122,678.76746,626.85156,679.84589z"/>
	</g>
	<rect x="982.17035" y="842.8219" class="st20" width="55.74168" height="70.99362"/>
	<g>
		<path class="st18" d="M589.93597,588.29077c1.15961,0.69122,2.25244,1.42847,3.5387,1.83179
			c-0.68683-0.00293-1.3396-0.27832-1.93695-0.59125C590.9527,589.18713,590.39221,588.7959,589.93597,588.29077z"/>
	</g>
	<polygon class="st6" points="768.94812,604.33624 768.13983,608.53448 771.18481,612.091 778.98761,613.49207 783.60529,611.98322 
		784.41357,608.26508 783.32721,604.54565 781.73035,601.71674 781.1272,598.75885 781.18036,597.70331 778.98761,596.67944 
		776.27667,596.08667 774.97845,596.08667 774.17352,596.9765 774.17352,597.91882 	"/>
	<path class="st12" d="M790.87183,604.02551c5.70959-0.16736,11.41608-0.44049,17.11554-0.81909
		c-1.88513,18.69598,2.27698,37.99109-0.24445,56.612c-0.98462,7.27142-1.18213,14.62164-0.97589,21.94971
		c0.1084,3.85352,0.32422,7.70312,0.57971,11.54938c0.04822,0.72614,0.10895,1.43933,0.289,2.14606
		c0.20325,0.79797,0.50012,1.53729,0.50238,2.37408c0.00366,1.40704-0.38251,2.85547-0.6109,4.2392
		c-7.39014-3.82782-15.82239-5.61908-24.13043-5.12592c-6.08014,0.3609-11.10638,0.27374-17.17316-0.26685
		c-3.62097-0.32269-7.25482-0.50146-10.89001-0.53583c-4.1676-0.03937-7.09412,2.66705-10.49786,5.07227
		c-0.72906,0.5152-1.45288,1.08075-2.31226,1.32251s-1.91003,0.06915-2.41992-0.66364
		c-0.47998-0.68988-0.34509-1.61658-0.20911-2.44592c0.65912-4.01965,0.87207-8.11237,0.63373-12.17871
		c-0.50946-8.69073,3.16388-16.81592,3.77557-25.5c0.57849-8.21289,1.29828-15.37598,2.25928-23.55292
		c0.98303-8.36456,1.33948-16.62048,1.49133-25.04126c0.06421-3.55731,0.26636-6.67688,0.55969-10.22266
		c4.24542,0.86926,8.6001,1.20355,12.92847,0.99243c2.42743,0.27283,5.27551,0.64471,7.70294,0.91754
		c2.51984-1.04382,4.0274-2.78192,5.50378-5.07532c-0.04053,3.05469,0.01294,6.1106,0.16034,9.16199
		c0.02435,0.50421,0.0816,1.07092,0.47394,1.38855c0.68311,0.55304,1.6568-0.08807,2.53046-0.18329
		c0.7453-0.08124,1.47864,0.26324,2.22809,0.24512c0.21368-0.00519,0.44922-0.0531,0.57635-0.22491
		c0.10522-0.14227,0.10919-0.33282,0.10895-0.50977c-0.00153-1.03119-0.00305-2.06238-0.00458-3.09357
		c-0.00238-1.62634,1.2085-3.31537,2.76538-3.7854c0.48035-0.14508,0.9884-0.16376,1.48987-0.1814
		c1.40961-0.04968,2.88556-0.08594,4.15192,0.53528C790.14301,603.57312,789.85529,604.0553,790.87183,604.02551z"/>
	<path class="st6" d="M775.02795,599.14093c-0.31946,0.02942-0.64172,0.02875-0.96106-0.00214
		c-0.19421-0.01874-0.38904-0.04907-0.57166-0.1178c-1.49243-0.56116-0.99451-2.76764-0.43854-3.81531
		c0.58777-1.1076,1.59918-1.95679,2.73724-2.48328c0.34631-0.16022,0.71503-0.29919,0.98761-0.56635
		c0.15057-0.14764,0.26727-0.33063,0.43652-0.45642c0.57965-0.43085,1.43701,0.03363,1.79919,0.65851
		c0.36218,0.62482,0.45013,1.37939,0.81366,2.00348c0.0658,0.11298,0.15076,0.2287,0.27679,0.26318
		c0.12762,0.03497,0.2597-0.02271,0.38446-0.06677c0.72687-0.25671,1.59894-0.03107,2.11011,0.54596
		c0.35327,0.3988,0.46802,0.84717,0.72491,1.31396c-0.69263,0.85406-1.32104,1.76025-1.87811,2.70831"/>
	<path class="st6" d="M782.38147,600.41693c0.82446-0.39954,1.76245-0.65967,2.65692-0.46143s1.70679,0.95874,1.72852,1.87463
		c1.1366-0.82629,2.31995-1.67377,3.69702-1.95306c0.60266-0.12225,1.24786-0.12628,1.81238,0.11743
		c0.56458,0.24371,1.0307,0.76892,1.08618,1.38129c0.07751,0.85535-0.62018,1.67609-0.42157,2.51166
		c-0.61389,0.24713-1.21326,0.11096-1.86426,0.23029c-0.68262,0.12512-1.36377,0.35797-2.05432,0.2785
		c-0.33057-0.03802-0.66119-0.07605-0.99176-0.11407c-0.66113-0.07605-1.32233-0.1521-1.98352-0.22821
		c-0.52838-0.06073-1.07538-0.11993-1.58258,0.04028c-0.80194,0.25336-1.34961,1.01495-1.62323,1.81024
		c-0.11078,0.32214-0.19305,0.66833-0.4173,0.9248c-0.31287,0.35791-0.84424,0.45734-1.31146,0.36963
		c-0.46722-0.08765-0.88763-0.33264-1.29742-0.57361c-0.38611-0.22693-0.83282-0.63971-0.625-1.0365
		c-0.05438,0.19873-0.10883,0.3974-0.16321,0.59607c-0.4306-0.04681-0.86127-0.09363-1.29193-0.14044
		c-0.1864-0.02026-0.38464-0.04535-0.52863-0.16547c-0.15503-0.12927-0.21222-0.33929-0.25354-0.53687
		c-0.2196-1.04999-0.22485-2.14435-0.01544-3.19647c1.11151-0.79785,2.12128-1.7373,2.99713-2.78845
		c0.37427-0.44922,0.60834-0.6156,1.19275-0.59833c0.58447,0.01727,1.12042,0.49994,1.19849,1.07941
		C782.35742,600.07367,782.35376,600.18103,782.38147,600.41693z"/>
	<g>
		<path class="st18" d="M782.42395,606.82928c-0.21313,0.28259-0.57507,0.43506-0.93256,0.45929
			c-0.36273,0.03076-0.72589-0.06421-1.05603-0.19867c-0.33588-0.14319-0.63129-0.29498-0.94684-0.50653
			c-0.14984-0.11053-0.29407-0.23816-0.40533-0.41449c-0.11554-0.16644-0.16687-0.44519-0.05219-0.66321l0.67377-1.28119
			l-0.34161,1.41187l-0.14532,0.60071l-0.03802,0.15704l-0.17444-0.01245c-0.47601-0.03381-0.93689-0.0838-1.42218-0.13336
			c-0.12781-0.01764-0.27429-0.04376-0.42035-0.12732c-0.14954-0.0824-0.26202-0.22986-0.32153-0.36407
			c-0.11786-0.27942-0.13953-0.50458-0.18811-0.74689c-0.16766-0.9613-0.15436-1.95551,0.05157-2.91058l0.02039-0.09473
			l0.07397-0.05176c1.05487-0.73798,2.00586-1.61554,2.88214-2.5636c0.2146-0.22864,0.43054-0.52734,0.79041-0.67383
			c0.35706-0.12164,0.71271-0.11774,1.05139,0.01428c0.32721,0.1366,0.59192,0.39337,0.73322,0.70526
			c0.15405,0.31854,0.10077,0.65912,0.12518,0.98187c-0.06586-0.31738-0.06506-0.66156-0.22852-0.92877
			c-0.15533-0.27014-0.41663-0.47192-0.70215-0.55853c-0.27551-0.07971-0.61731-0.05725-0.86688,0.04889
			c-0.25183,0.11627-0.43207,0.37689-0.64038,0.63464c-0.81842,1.03741-1.80261,1.93994-2.86786,2.72504l0.09418-0.14618
			c-0.16241,0.90399-0.18506,1.83362-0.05316,2.74377c0.03656,0.2218,0.07172,0.474,0.1391,0.63245
			c0.06769,0.1582,0.16388,0.20605,0.38904,0.24298l1.40332,0.17682l-0.21222,0.14447l0.18097-0.591l0.33215,0.13068
			c-0.12561,0.17944,0.06854,0.47888,0.32068,0.67633c0.24878,0.19629,0.57141,0.37488,0.85974,0.53796
			c0.29883,0.15674,0.62042,0.27539,0.95795,0.28009C781.82001,607.1712,782.17383,607.0788,782.42395,606.82928z"/>
	</g>
	<g>
		<path class="st18" d="M780.36182,594.67596c-0.4848,0.35968-0.97626,0.70874-1.47656,1.04376
			c-0.49316,0.34271-1.01978,0.64783-1.50067,0.99731c-0.49457,0.33124-1.00739,0.64258-1.39709,1.09045
			c-0.40192,0.43243-0.74554,0.9267-1.00903,1.46954c0.17749-0.57751,0.47241-1.12451,0.86475-1.59662
			c0.37891-0.49518,0.90942-0.81726,1.40143-1.17023c0.50562-0.34064,1.02045-0.64252,1.53857-0.95239
			C779.30127,595.25092,779.82819,594.95813,780.36182,594.67596z"/>
	</g>
	<g>
		<path class="st18" d="M782.38147,600.41693c-0.12994,0.96918-0.71881,1.81384-1.30188,2.53925
			c-0.60449,0.73022-1.20349,1.39771-1.72345,2.20599c0.15533-0.96515,0.75293-1.79651,1.33521-2.52057
			C781.29535,601.91394,781.88458,601.23981,782.38147,600.41693z"/>
	</g>
	<g>
		<path class="st18" d="M786.76691,601.83014c-0.04877,0.23181-0.1485,0.46497-0.302,0.65515
			c-0.14301,0.19891-0.31976,0.35718-0.47864,0.52753c-0.15424,0.17273-0.3316,0.33179-0.49878,0.49475
			c-0.17334,0.15894-0.3595,0.29608-0.52179,0.47174c0.06848-0.23645,0.22156-0.43488,0.36731-0.6192
			c0.15948-0.1756,0.30756-0.35638,0.48639-0.51575C786.16486,602.51178,786.53125,602.25134,786.76691,601.83014z"/>
	</g>
	<g>
		<path class="st18" d="M793.13062,602.56683c-0.45624,0.50513-1.01672,0.89636-1.60175,1.24054
			c-0.59741,0.31293-1.25018,0.58832-1.93695,0.59119C790.87817,603.9953,791.97095,603.25806,793.13062,602.56683z"/>
	</g>
	<g>
		<path class="st10" d="M793.65198,615.52954c-2.44641,0.02966-4.89215,0.03418-7.33704,0.00555l-7.33368-0.12756l-7.33069-0.24323
			c-2.44324-0.09552-4.88562-0.22363-7.32733-0.37805c2.44641-0.03052,4.89215-0.03473,7.33704-0.00641l7.33368,0.12842
			l7.33069,0.24414C788.76782,615.24762,791.21021,615.37604,793.65198,615.52954z"/>
	</g>
	<path class="st3" d="M812.18829,566.66675c2.6546,2.24731,4.80328,4.49286,8.23895,5.03485
		c2.24835,0.35474,4.49677,0.70947,6.74518,1.06415c1.12946,0.17822,2.25378,0.49988,3.38458,0.63635
		c0.28217,0.03406,0.47998,0.07208,0.74194,0.19818c0.67188,0.32343,1.3551,0.57935,2.07379,0.78009
		c1.43903,0.40198,2.93451,0.64374,4.30353,1.26526c0.81683,0.37091,1.56635,0.86853,2.35828,1.28687
		c0.39954,0.21106,0.81238,0.40991,1.2442,0.54639c0.16101,0.0509,0.31702,0.05151,0.4754,0.09015
		c0.28168,0.06873,0.55432,0.24445,0.81317,0.36615c0.61609,0.28973,1.23224,0.57941,1.84839,0.86914
		c0.40973,0.19263,0.81946,0.38531,1.22919,0.57794c0.46387,0.21814,0.88354,0.24866,1.39459,0.33484
		c0.47522,0.08014,0.86371,0.2644,1.31604,0.40149c0.32825,0.09949,0.67078,0.09711,1.01056,0.08502
		c1.60754-0.05737,3.12006-0.62036,4.62909-1.12402c3.16113-1.05493,5.87036-1.85229,9.16449-2.35669
		c2.48749,0.05695,4.96918,0.36682,7.39429,0.9234c0.38098,0.0874,0.76208,0.1814,1.12482,0.32697
		c0.91406,0.3667,1.93127,1.11798,2.51752,1.91754c0.10516,0.14343,0.15454,0.30426,0.23816,0.4585
		c0.42181,0.77771,1.14917,1.44727,1.70947,2.12683c1.94415,2.35773,3.88831,4.71545,5.83246,7.07324
		c0.40973,0.49689,0.81995,0.99469,1.19196,1.52094c0.30872,0.43658,0.54071,0.95911,0.92145,1.33917
		c0.26019,0.2597,0.58594,0.44623,0.8562,0.69666c0.97058,0.89948,1.85809,1.90741,2.77979,2.85699
		c0.5553,0.57214,1.1106,1.14429,1.66589,1.71643c0.31885,0.32855,0.6377,0.65704,0.9566,0.9856
		c0.08264,0.08514,0.34387,0.42188,0.47131,0.4856c1.59619,1.64459,3.19238,3.28918,4.78857,4.93378
		c0.27069,0.27887,0.57867,0.75323,1.0293,0.63727c0.55664-0.14331,0.64532-0.87976,0.76184-1.32361
		c1.22485-4.66583,3.45929-9.06769,6.49835-12.81348c0.26678-0.32886,0.55548-0.69843,0.52759-1.12097
		c-0.01868-0.28326-0.17914-0.53522-0.33966-0.76935c-1.15234-1.6806-2.56757-3.18066-4.17828-4.42883
		c2.80518-2.04156,5.69629-3.96521,8.66309-5.76404c0.44153-0.2677,0.89911-0.53802,1.40924-0.61798
		c1.56726-0.24548,2.8598,1.32825,4.43469,1.51807c1.04755,0.12628,2.05725-0.37573,2.99298-0.86322
		c1.65112-0.86011,3.05542-1.39984,4.73419-2.20465c5.8844-2.82123,11.7688-5.6424,17.65314-8.46356
		c-0.26672-0.58344-0.53345-1.16693-0.80017-1.75037c1.6355,0.24902,3.3208,0.15338,4.92065-0.26532
		c0.73694-0.19287,1.62909-0.42249,2.26923-0.84998c2.84149-1.89752,5.68811-3.80969,8.60803-5.6051
		c3.68927-2.26855,7.43835-4.43988,11.24207-6.51093c1.90179-1.03552,3.81732-2.04602,5.74579-3.03101
		c5.35931-2.73737,10.84625-5.2049,16.30573-7.74615c0.31848-0.14825,0.66235-0.30023,1.00848-0.24042
		c0.45636,0.07892,0.76636,0.49408,1.02393,0.87897c1.86395,2.78564,3.53015,5.70355,4.98199,8.72455
		c0.19122,0.39783,0.37866,0.87183,0.17206,1.26184c-0.13245,0.25012-0.3963,0.39722-0.64606,0.53046
		c-6.92902,3.6972-13.20642,7.03424-20.1579,10.68903c-0.09277,0.04877-0.18542,0.0976-0.27808,0.14655
		c-3.70563,1.95825-7.32886,4.07233-10.85754,6.33398c-3.52863,2.2616-6.96265,4.67084-10.29004,7.21942
		c-1.66364,1.27429-3.3006,2.58337-4.90942,3.92633c-0.37469,0.31274-0.78107,0.61127-1.11444,0.96899
		c-0.19562,0.21002-0.34625,0.45728-0.57611,0.63391c-0.28503,0.21906-0.64911,0.34454-0.97021,0.49115
		c-1.20081,0.5484-2.39215,1.11749-3.57361,1.70642c-2.46307,1.22778-4.88281,2.54242-7.25354,3.94019
		c-3.50867,2.06873-6.90997,4.31958-10.1853,6.74091c-1.63763,1.21063-3.24377,2.46387-4.8161,3.75824
		c-0.78571,0.64679-1.54163,1.33264-2.33301,1.97168c-0.27338,0.22076-0.53406,0.33606-0.86285,0.4433
		c-0.90228,0.29425-1.98071,0.87396-2.43134,1.71814c-0.37122,0.69537-0.25568,1.54028-0.10938,2.31488
		c0.63483,3.36084,1.74805,5.97021,2.91376,9.18573c1.41199,3.89478,1.3595,8.30127-0.14478,12.16132
		c-0.24396,0.62616-0.52344,1.23785-0.81854,1.84137c-0.84583,1.7298-1.83142,3.39526-2.54761,5.18634
		c-0.34656,0.86676-0.6275,1.76349-0.77643,2.68658c-0.07184,0.44556-0.13385,0.90839-0.09967,1.35999
		c0.04688,0.61945-0.11633,0.88953-0.41864,1.48279c-0.71576,1.40472-1.43445,2.81622-1.92737,4.31378
		c-0.40582,1.23279-0.65356,2.50873-0.93182,3.77423c-0.1391,0.63251-0.2851,1.26398-0.46277,1.8869
		c-0.25397,0.89026-0.68555,1.62854-1.08728,2.47028c-0.27258,0.57104-0.54651,1.14563-0.71606,1.75525
		c-0.23657,0.85059-0.26312,1.74335-0.28815,2.62585c-0.02936,1.03217-0.05865,2.06433-0.08801,3.09656
		c-0.03186,1.12274,0.55225,1.89935-0.09222,2.81927c-1.38971,1.9837-4.06903,2.49396-6.47876,2.73749
		c-3.63989,0.36786-7.30377,0.49799-10.96057,0.39026c-1.13568-0.03345-2.27069-0.08984-3.40405-0.16913
		c-0.93738-0.06561-1.84937-0.23529-2.76794-0.0332c-0.52173,0.11481-1.08313,0.06311-1.61145,0.05847
		c-1.16962-0.01025-2.33875-0.07025-3.50317-0.18085c-2.40808-0.22864-4.79565-0.67371-7.12268-1.33459
		c-4.58484-1.30212-8.91876-3.44818-12.72687-6.31512c-1.36053-1.02429-2.09186-2.70941-2.34833-4.39301
		c-0.25647-1.68353-0.09528-3.39844,0.00647-5.09839c0.10376-1.73291,0.1449-3.4696,0.1236-5.20544
		c-0.0116-0.94342-0.04163-1.88666-0.09015-2.82886c-0.04706-0.91547-0.17798-1.84143-0.1795-2.75726
		c-0.00092-0.55133,0.20764-1.00848,0.33868-1.53143c0.22095-0.88177,0.19269-1.83533,0.23383-2.73395
		c0.10297-2.24884,0.10309-4.50238,0.00049-6.75128c-0.08484-1.8595-0.23987-3.71582-0.46503-5.56354
		c-0.09332-0.76556-0.25934-1.52258-0.17413-2.29358c0.03217-0.2912,0.01971-0.55505-0.04773-0.84198
		c-0.43781-1.86078-1.24493-3.68494-2.07843-5.3974c-0.74072-1.52167-1.57501-2.99615-2.45343-4.44208
		c-0.44006-0.72424-0.89142-1.44153-1.34882-2.15491c-0.22717-0.35437-0.47919-0.70062-0.68878-1.06549
		c-0.39526-0.68805-0.63885-1.50525-0.94305-2.23883c-0.43445-1.04749-0.86884-2.09497-1.30322-3.14246
		c-0.11981-0.28888-0.24475-0.58563-0.4649-0.80774c-0.22217-0.22412-0.52106-0.35187-0.81189-0.4743
		c-2.79291-1.17572-5.12445-2.84033-8.09888-3.41937c-6.4187-1.24957-11.67505-4.82678-17.83191-7.03015
		c-1.55994-0.55829-3.10553-1.15668-4.6347-1.79431c-1.66223-0.69305-3.30511-1.4325-4.92609-2.21716
		c-0.81049-0.39233-1.61548-0.79596-2.41467-1.21075c-0.33777-0.17535-0.70752-0.44995-1.08234-0.51685
		c-0.49329-0.08813-0.974-0.17261-1.46057-0.33801c-0.94452-0.32104-1.87952-0.73553-2.88635-0.81116
		c-0.75769-0.05688-1.56726,0.07648-2.24225-0.27228c-0.54272-0.28046-0.89203-0.82202-1.21613-1.33978
		c-1.09204-1.74463-1.33832-3.14484-2.60876-4.76422c-4.33051-5.52008-9.01562-9.90918-12.77448-15.83331
		c-1.43762-2.26569-2.88562-4.5451-4.70435-6.51801c-0.97919-1.06219-2.06299-2.03217-2.94611-3.17548
		s-1.56842-2.50787-1.58319-3.95251c2.23206,1.19165,4.31921,2.65424,6.20105,4.34558
		c0.01111-1.44818-0.58887-2.81927-1.00677-4.20593c-0.13971-0.46338-0.26038-0.95502-0.15326-1.427
		c0.09125-0.4021,0.33893-0.7486,0.5896-1.07599c0.73285-0.95721,1.54034-1.85876,2.41449-2.68903
		c0.20398-0.19373,0.43176-0.48291,0.66766-0.6333c0.31079-0.19818,0.38629-0.09137,0.67993,0.073
		c0.16406,0.09186,0.31732,0.19617,0.48743,0.27692c0.26349,0.12518,0.55768,0.19012,0.80536,0.34698
		c0.37769,0.2392,0.65942,0.6405,0.95483,0.96851c0.35822,0.39777,0.7179,0.79425,1.07898,1.18945
		c1.4444,1.58081,2.91174,3.14069,4.40125,4.67902c2.97906,3.07666,6.04706,6.06726,9.19885,8.96674
		c1.62549,1.49451,3.2724,2.96576,4.94135,4.41168c1.6073,1.39246,3.35461,2.67145,4.86407,4.15118
		C810.617,565.26807,811.38556,565.98718,812.18829,566.66675z"/>
	<g>
		<path class="st21" d="M939.80487,578.92834c0.77368-0.79346,1.42163-1.69165,1.86346-2.67725
			c0.21539-0.4942,0.39337-1.0022,0.49188-1.52502c0.05322-0.2522,0.06372-0.49493,0.03503-0.75098
			c-0.03571-0.2547-0.07172-0.56342-0.08459-0.83728c-0.00745-1.12396-0.10028-2.16376-0.52289-3.17267
			c-0.3974-0.99939-1.0473-1.90265-1.88544-2.62909c0.96436,0.55933,1.74255,1.44775,2.23676,2.47253
			c0.26129,0.50781,0.42389,1.06183,0.53723,1.62311c0.104,0.57178,0.10095,1.13892,0.13336,1.68042
			c0.01044,0.27905,0.0351,0.52063,0.07117,0.81433c0.0285,0.2937,0.01587,0.61151-0.0589,0.89795
			c-0.13538,0.55859-0.33167,1.10046-0.61029,1.59613C941.47461,577.42017,940.71564,578.28925,939.80487,578.92834z"/>
	</g>
	<path class="st22" d="M766.2522,524.396"/>
	<g>
		<path class="st23" d="M1007.75842,532.63776c0.33472,1.93402-0.12781,4.02521-1.25067,5.63568
			C1007.32385,536.49127,1007.74561,534.59814,1007.75842,532.63776z"/>
	</g>
	<g>
		<path class="st23" d="M1001.50824,529.62122c-0.04486,0.93896,0.15057,1.8598,0.03851,2.82684
			c-0.14178,0.9574-0.54248,1.83282-1.01868,2.64227c0.28888-0.89679,0.66522-1.76147,0.77112-2.67474
			C1001.43622,531.51556,1001.25848,530.5462,1001.50824,529.62122z"/>
	</g>
	<path class="st24" d="M914.43182,579.12988c1.84637,0.71069,3.58728,1.69476,5.14838,2.91016"/>
	<g>
		<path class="st21" d="M886.83862,618.01636c1.00165,2.40009,0.93011,5.18823,0.11823,7.66754
			c-0.85333,2.46521-2.48328,4.72925-4.73425,6.03265c1.99011-1.63525,3.47705-3.78857,4.26099-6.19208
			C887.31464,623.1369,887.435,620.52222,886.83862,618.01636z"/>
	</g>
	<g>
		<path class="st17" d="M903.72137,677.57556c0.09149,1.65179,0.03375,3.29425-0.05902,4.93451
			c-0.11163,1.6391-0.2594,3.27594-0.55774,4.90326c-0.09271-1.65186-0.03485-3.29431,0.05902-4.93451
			C903.27649,680.83984,903.42438,679.203,903.72137,677.57556z"/>
	</g>
	<g>
		<path class="st17" d="M900.43372,695.74091c0.06848,3.12103-0.25812,6.23798-0.73346,9.32104
			c-0.53302,3.07452-1.21558,6.1275-2.21613,9.08337c0.59741-3.0603,1.24969-6.09515,1.72327-9.16412
			C899.73846,701.92145,900.08954,698.83936,900.43372,695.74091z"/>
	</g>
	<g>
		<path class="st21" d="M845.51184,598.61377c1.78033,0.71851,3.50348,1.5863,5.09723,2.68451
			c1.57452,1.10352,3.03497,2.4837,3.93152,4.19843c-1.22046-1.48694-2.65924-2.71179-4.21741-3.78864
			C848.77509,600.61682,847.11395,599.67804,845.51184,598.61377z"/>
	</g>
	<g>
		<path class="st23" d="M746.16949,506.82712c1.3064,0.7684,2.56268,1.61526,3.82025,2.45999
			c0.59369,0.47662,1.24048,0.89307,1.75336,1.46652c0.52563,0.55463,0.97852,1.16489,1.41931,1.78104
			c-0.51276-0.55823-1.01587-1.12457-1.55591-1.64569c-0.52869-0.53308-1.16443-0.94333-1.76099-1.39804
			C748.60706,508.62396,747.36176,507.76694,746.16949,506.82712z"/>
	</g>
	<path class="st8" d="M863.04456,555.5802c1.5816-2.70795,4.31738-4.5014,6.95624-6.19586
		c4.17883-2.68341,8.8186-5.47949,13.74634-4.86237c0.75964,0.09515,1.54907,0.29291,2.10059,0.82385
		c0.63818,0.61438,0.8374,1.55231,1.34766,2.27637c0.97565,1.3847,3.10687,2.08826,3.19354,3.77991
		c0.02722,0.53052-0.17487,1.04822-0.18817,1.57928c-0.01886,0.74957,0.33588,1.45312,0.70135,2.10785
		c0.97906,1.75427,2.10205,3.42816,3.354,4.99933c0.66351-0.90363,1.32697-1.80725,1.99048-2.71088
		c0.53864-0.73352,1.20868-1.539,2.11853-1.55737c1.27618-0.0257,1.73779,1.40552,1.68182,2.68066
		c-0.04126,0.93799-0.07593,2.00891-0.73474,2.67786s-1.70837,0.9892-2.57892,0.63757
		c-0.14642,0.71283,1.25647,0.44745,1.71021,1.01642c0.13965,0.17511,0.16394,0.41266,0.18274,0.6358
		c0.13391,1.58813,0.22284,3.34082-0.74481,4.60724c-0.21979,0.28766-0.49213,0.54584-0.62463,0.88269
		c-0.11011,0.27997-0.1131,0.58966-0.09827,0.89014c0.10883,2.19977,1.1366,4.33972,2.78552,5.7998
		c3.71301-0.97723,6.30676-5.07172,5.60388-8.84631c-0.19208-1.03162-0.59283-2.01294-0.8313-3.03479
		c-0.58154-2.49194-0.25098-5.33942-1.80817-7.36993c-0.31854-0.41534-0.70874-0.78156-0.95215-1.245
		c-0.44482-0.84698-0.32996-1.86285-0.27606-2.81799c0.1897-3.36444-0.62762-6.93286-2.94733-9.37714
		c-0.40076-0.42224-0.84637-0.81287-1.14667-1.31158c-0.53668-0.89117-0.55621-2.03961-1.17334-2.87714
		c-0.2348-0.3186-0.54382-0.57355-0.85046-0.82379c-2.45667-2.00439-5.19879-4.01349-8.36609-4.15851
		c-1.84894-0.08466-3.664,0.48352-5.51056,0.60919c-4.12122,0.28058-8.26172-1.6427-12.30634-0.80347
		c-1.72064,0.35706-3.29791,1.19519-4.84052,2.03693c-3.14911,1.71838-6.55945,3.8645-7.40967,7.34973
		c-0.65973,2.70459,0.41711,5.63721-0.39154,8.30109c-0.25848,0.85144-0.70264,1.64264-0.90265,2.5097
		c-0.45697,1.9809,0.41132,4.00092,1.25928,5.84851c0.49982,1.08905,1.00238,2.18311,1.66461,3.18164
		c0.57141,0.86163,1.25549,1.64264,1.85748,2.48315c1.51361,2.11316,2.48663,4.56964,3.95178,6.71667
		c1.84119,2.69824,4.4574,4.86115,7.45367,6.16223c-1.16327-4.68207-6.24554-7.38129-8.11877-11.82709
		c-1.18353-2.80878-0.95111-5.98529-0.69824-9.02271c0.13214-1.58704,0.42444-3.43286,1.82361-4.19348"/>
	<path class="st8" d="M881.00134,557.33197c1.82117-0.75684,3.65735-1.52179,5.28296-2.63843
		c-0.04675,0.03217-0.48309-0.06317-0.57654-0.05719c-0.21185,0.01355-0.42029,0.06055-0.62463,0.11603
		c-0.42877,0.11639-0.85095,0.26398-1.27203,0.4054c-0.79401,0.2666-1.57648,0.56348-2.36487,0.84558
		c-0.87238,0.31219-1.72858,0.59253-2.45325,1.19067c-0.57367,0.47351-1.19171,1.0376-1.62213,1.64337
		C878.60052,558.40985,879.7984,557.83191,881.00134,557.33197z"/>
	<path class="st8" d="M872.37347,561.65564c-0.63153,0.2406-1.26306,0.48114-1.89459,0.72174
		c-0.49762,0.18958-1.00409,0.38116-1.53522,0.41925c-0.43323,0.03101-0.87689-0.04071-1.29822,0.0647
		c-0.39532,0.09894-0.73505,0.34497-1.06384,0.58569c-0.72211,0.52875-1.44427,1.0575-2.16638,1.58624
		c0.30511-1.11719,1.0025-2.14813,2.00208-2.73297c0.39984-0.23395,0.83801-0.39349,1.2735-0.5517
		c0.44733-0.1626,0.89368-0.32837,1.34222-0.48755c0.27539-0.09766,0.55194-0.19629,0.84814-0.17999
		C870.70605,561.12659,871.57336,561.46002,872.37347,561.65564z"/>
	<path class="st14" d="M886.24902,566.99078c-3.94806,1.96997-7.64911,4.43433-10.98938,7.3172
		c1.88275,0.29578,3.43616,1.64655,5.27161,2.15973c1.63184,0.45624,3.45013,0.1983,4.89075-0.69379
		c1.44061-0.89215,2.48175-2.40497,2.80048-4.06921c0.21344-1.11444,0.11481-2.26215,0.01538-3.39252
		c-0.04651-0.52942-0.09308-1.05878-0.13965-1.5882c-0.01019-0.11566-0.03564-0.25342-0.14301-0.29773
		c-0.0849-0.03497-0.53241,0.01782-1.48676,0.50476L886.24902,566.99078z"/>
	<path class="st25" d="M879.97705,576.22412c0.05841-0.17188,0.2514-0.54169,0.34839-0.69403
		c0.20441-0.32111,0.43799-0.62335,0.69482-0.90424c0.51019-0.55804,1.11115-1.0318,1.76581-1.40918
		c0.73834-0.42554,1.54242-0.73071,2.36969-0.93134c0.38898-0.09436,0.81451-0.20911,1.21716-0.20459
		c0.28302,0.00317,0.53479,0.14264,0.80438,0.21161c0.37744,0.09662,0.65399,0.02515,0.99463,0.22333
		c-0.2406,0.81763-0.44885,1.138-0.74701,1.55334c-0.12372,0.1723-0.3092,0.43402-0.44592,0.59619
		c-0.17584,0.20856-0.41797,0.42407-0.60883,0.61902c-0.37006,0.37811-0.45917,0.51013-0.91272,0.724
		c-0.25787,0.12164-0.52985,0.22723-0.78613,0.35217c-0.31305,0.15265-0.65503,0.23694-0.9978,0.29871
		c-1.05298,0.18958-1.74414,0.35236-3.18964-0.04535C880.31537,576.56738,879.90912,576.42413,879.97705,576.22412z"/>
	<g>
		<path class="st26" d="M897.0271,571.16016c-0.45923,2.63354-1.20459,5.26788-2.62482,7.58929
			c-1.38733,2.31805-3.6001,4.22723-6.2583,4.9942c-2.67969,0.67957-5.50262,0.28033-8.01575-0.68018
			c-2.53381-0.96094-4.81903-2.44122-6.89795-4.12799c2.19073,1.53998,4.5249,2.88861,7.02863,3.7663
			c2.48853,0.8678,5.21045,1.24255,7.75281,0.56024c2.53943-0.69568,4.646-2.50433,6.0675-4.71814
			C895.51813,576.32074,896.38928,573.75824,897.0271,571.16016z"/>
	</g>
	<g>
		<path class="st23" d="M764.37604,526.10254c0.47351-0.13647,0.90094-0.38525,1.24561-0.71045
			c0.16949-0.16589,0.32587-0.34393,0.45154-0.54291c0.1189-0.18567,0.255-0.48096,0.56982-0.56458
			c0.29437-0.06744,0.54407,0.02472,0.7702,0.03424c0.22791,0.01709,0.45624-0.02844,0.68018-0.09991
			c0.44653-0.15338,0.85767-0.43365,1.26624-0.7066c-0.35065,0.34351-0.72284,0.68384-1.19763,0.88623
			c-0.23309,0.10767-0.4975,0.15509-0.76086,0.14752c-0.26099-0.01044-0.50311-0.07581-0.69379-0.0202
			c-0.18982,0.03638-0.30463,0.23456-0.44427,0.44781c-0.146,0.2099-0.31287,0.40759-0.5155,0.56256
			C765.35455,525.86011,764.86768,526.05658,764.37604,526.10254z"/>
	</g>
	<circle class="st27" cx="643.29944" cy="369.29141" r="82.5089"/>
	<path class="st28" d="M681.02606,341.06943c-0.01544-0.51077-0.19092-0.80219-0.71313-0.96429
		c-9.26575-3.3602-18.62872-6.45071-27.87415-9.8707c-3.12384-1.17365-6.28754-2.24127-9.43158-3.3613
		c-0.45514-0.16217-0.87354-0.23785-1.37427-0.05954c-11.73029,4.17761-23.46649,8.33871-35.20673,12.48849
		c-0.49921,0.17645-0.67621,0.43097-0.70544,0.9599c-1.21143,21.30188,0.92712,52.34796,36.94733,71.61002
		C673.67505,397.70984,682.11292,365.05115,681.02606,341.06943z M642.75922,405.72388
		c-30.81927-16.48083-32.64911-43.04425-31.61255-61.27042c0.02502-0.45255,0.17645-0.67029,0.60358-0.82132
		c10.0451-3.55057,20.08673-7.11087,30.12329-10.6853c0.42847-0.15256,0.78644-0.0878,1.1759,0.05096
		c2.69006,0.95828,5.39691,1.8718,8.0697,2.87598c7.91052,2.92618,15.92163,5.57047,23.84949,8.44547
		c0.44678,0.13873,0.59698,0.38806,0.61023,0.82507C676.50873,365.66339,669.28918,393.60657,642.75922,405.72388z"/>
</g>
<g id="Calque_5">
	<path class="st29" d="M978.87042,803.41638c0,0,31.64819,7.63922,61.65936-2.72827"/>
	<path class="st29" d="M1564.90002,725.40552c0,0-15.27954,18.38556-39.93286,27.57831"/>
</g>
<g id="Calque_2">
	<path class="st28" d="M1179.79578,1116.29163l-218.966,0.55286l107.01996-87.60779
		C1096.89941,1067.05945,1135.38989,1097.24963,1179.79578,1116.29163z M1548.06775,858.83032
		c0,142.49731-115.51685,258.01416-258.01416,258.01416s-258.01404-115.51685-258.01404-258.01416
		s115.51685-258.0141,258.01404-258.0141S1548.06775,716.33307,1548.06775,858.83032z M1482.59155,858.83032
		c0-106.33575-86.20215-192.53778-192.53796-192.53778c-106.33557,0-192.53784,86.20203-192.53784,192.53778
		s86.20227,192.53784,192.53784,192.53784C1396.3894,1051.36816,1482.59155,965.16614,1482.59155,858.83032z M1277.40894,945.50909
		l108.47852-173.35748l-117.69336,124.21191l-73.97424-58.47974L1277.40894,945.50909z M1846.67017,553.85901
		c-2.49902-6.67218-9.93384-10.05524-16.60596-7.55621c-3.46716,1.29858-6.03442,3.93481-7.36145,7.09937
		c-44.37061,3.99237-77.62634,18.36389-98.93982,42.81421c-3.89661,4.47003-7.17871,9.0376-9.94507,13.58905
		c-1.49988-0.51166-2.61951-0.87878-3.05652-1.008c-7.90027-2.33508-23.60559-8.09192-42.10693-8.24164
		c1.84888-9.54413,4.78247-20.69232,9.43835-31.96313c14.72314-35.63904,39.65503-57.31241,74.20129-64.5611
		c2.35913,2.58075,5.74207,4.2095,9.51392,4.2095c7.12488,0,12.90076-5.77582,12.90076-12.90067
		s-5.77588-12.90076-12.90076-12.90076c-6.11133,0-11.21826,4.25433-12.5509,9.95966
		c-38.06067,8.25104-66.41064,32.90967-82.4303,71.95728c-5.4563,13.29968-8.67896,26.26099-10.58716,36.98883
		c-1.49829,0.20911-3.00623,0.45978-4.52246,0.7627c-72.33569,14.44995-103.80005,87.62946-86.96252,202.20642
		c3.47986,17.63403,5.30908,35.8609,5.30908,54.51581c0,72.40564-27.48267,138.3916-72.58459,188.09802
		c-9.96729,11.25708-20.95166,21.59656-32.83972,30.82849c-19.77563,15.79114-41.73596,28.96106-65.35828,38.97803
		c0.31592,0.0686,0.61719,0.11096,0.91724,0.1095c41.00281-6.80408,80.1405-21.29883,117.07532-42.65833
		c103.01575-55.43561,118.76086-138.37823,152.21436-267.2215c12.28027-47.29669,39.05396-93.99329,83.73303-123.25067
		c34.87329-22.83624,15.39709-43.34375-0.33484-54.67792c-2.95496-2.12885-17.04688-10.07117-23.55725-13.3175
		c-1.02502-0.49396-2.39807-1.0752-3.93652-1.68768c2.17773-3.38763,4.6853-6.76605,7.57971-10.07019
		c19.2146-21.93341,49.72852-34.8819,90.78601-38.57605c3.21729,4.9873,9.57043,7.24731,15.35583,5.08051
		C1845.78613,567.966,1849.16907,560.53125,1846.67017,553.85901z"/>
	<polygon class="st28" points="922.84448,1116.84448 319.22598,1116.84448 319.22598,710.78662 1008.65063,710.78662 
		1008.65063,1048.89343 	"/>
</g>
<g id="Calque_4">
	<path class="st30" d="M1562.75293,710.54974c-9.26282,8.74243,23.44885,92.8576,103.94202,109.21094"/>
	<path class="st30" d="M1563.66626,702.63354c-4.51978,8.68335,56.8927,127.85559,103.02869,118.97723"/>
	<line class="st31" x1="577.80829" y1="746.77454" x2="659.67841" y2="746.77454"/>
	<path class="st30" d="M1666.69495,822.50787c0,0-81.95312,119.95355-396.51343,148.36548s-468.7171-26.91125-633.10028-224.09882
		c0,0-7.64545-21.96045-16.7655-0.57538"/>
	<path class="st30" d="M620.31573,746.77454c0,0,7.5127,16.42993,17.2677,0.60199
		c9.75494-15.82794,16.46887-13.22253,17.97198-5.20587"/>
	<line class="st31" x1="577.80829" y1="746.77454" x2="629.54254" y2="746.77454"/>
</g>
</svg>
